<svg xmlns="http://www.w3.org/2000/svg" xmlns:xlink="http://www.w3.org/1999/xlink" width="150" zoomAndPan="magnify" viewBox="0 0 112.5 112.499997" height="150" preserveAspectRatio="xMidYMid meet" version="1.0"><path fill="#f7f7f7" d="M 88.621094 40.613281 C 87.90625 35.886719 85.710938 31.714844 82.507812 28.40625 C 82.828125 24.167969 83.160156 14.800781 80.128906 13.078125 C 77.097656 11.355469 70.964844 17.738281 68.226562 20.855469 C 64.695312 20.191406 61.160156 20.15625 57.617188 20.742188 C 54.074219 21.328125 50.734375 22.5 47.601562 24.261719 C 44.246094 22.199219 36.042969 17.582031 33.59375 20.210938 C 30.984375 23.011719 34.929688 33.328125 36.253906 36.542969 C 35.382812 38.484375 34.800781 40.511719 34.507812 42.625 C 34.21875 44.734375 34.230469 46.84375 34.546875 48.949219 C 36.558594 62.257812 49.703125 67.261719 64.632812 64.96875 C 79.5625 62.675781 90.632812 53.921875 88.621094 40.613281 Z M 88.621094 40.613281 " fill-opacity="1" fill-rule="nonzero"/><path fill="#eec0c2" d="M 70.324219 21.980469 C 70.324219 21.980469 76.320312 14.496094 78.859375 15.9375 C 81.394531 17.382812 80.261719 27.144531 80.261719 27.144531 C 77.632812 24.652344 74.347656 22.90625 70.324219 21.980469 Z M 70.324219 21.980469 " fill-opacity="1" fill-rule="nonzero"/><path fill="#eec0c2" d="M 45.765625 26.050781 C 45.765625 26.050781 37.835938 20.714844 35.832031 22.855469 C 33.828125 24.996094 37.800781 33.980469 37.800781 33.980469 C 40.023438 30.613281 42.640625 27.914062 45.765625 26.050781 Z M 45.765625 26.050781 " fill-opacity="1" fill-rule="nonzero"/><path fill="#f7f7f7" d="M 22.574219 75.269531 C 24.144531 81.3125 26.847656 93.027344 41.1875 90.179688 L 40.886719 84.59375 C 40.886719 84.59375 36.335938 84.933594 33.324219 79.167969 C 31.851562 76.367188 31.410156 73.28125 30.773438 70.722656 C 30.109375 68.039062 29.253906 65.925781 26.777344 65.300781 C 22.332031 64.1875 21.632812 70.214844 22.363281 74.285156 C 22.425781 74.632812 22.496094 74.960938 22.574219 75.269531 Z M 22.574219 75.269531 " fill-opacity="1" fill-rule="nonzero"/><path fill="#f7f7f7" d="M 37.597656 81.929688 C 38.109375 84.804688 39 87.558594 40.265625 90.1875 C 45.464844 101.136719 75.355469 89.808594 75.355469 89.808594 L 77.101562 80.867188 C 81.304688 72.152344 81.683594 63.574219 76.4375 55.21875 L 43.792969 58 C 43.792969 58 35.15625 67.914062 37.597656 81.929688 Z M 37.597656 81.929688 " fill-opacity="1" fill-rule="nonzero"/><path fill="#f7f7f7" d="M 48.652344 62.804688 C 48.652344 62.804688 42.566406 98.902344 58.703125 97.53125 C 72.542969 96.355469 63.789062 85.597656 63.773438 82.996094 " fill-opacity="1" fill-rule="nonzero"/><path fill="#f7f7f7" d="M 75.214844 96.117188 C 84.449219 95.328125 84.441406 83.667969 82.753906 73.84375 C 82.558594 72.707031 82.339844 71.597656 82.113281 70.527344 C 81.363281 67.054688 80.429688 63.632812 79.308594 60.261719 C 79.296875 60.234375 79.289062 60.210938 79.28125 60.183594 L 74.753906 61.183594 L 74.511719 61.238281 L 67.769531 82.640625 C 68.191406 85.210938 61.367188 97.296875 75.214844 96.117188 Z M 75.214844 96.117188 " fill-opacity="1" fill-rule="nonzero"/><path fill="#4a6289" d="M 72.449219 41.390625 C 72.449219 41.640625 72.402344 41.882812 72.308594 42.117188 C 72.210938 42.351562 72.074219 42.554688 71.898438 42.734375 C 71.71875 42.910156 71.515625 43.046875 71.28125 43.144531 C 71.050781 43.242188 70.808594 43.289062 70.558594 43.289062 C 70.308594 43.289062 70.066406 43.242188 69.832031 43.144531 C 69.601562 43.046875 69.398438 42.910156 69.21875 42.734375 C 69.042969 42.554688 68.90625 42.351562 68.808594 42.117188 C 68.710938 41.882812 68.664062 41.640625 68.664062 41.390625 C 68.664062 41.136719 68.710938 40.894531 68.808594 40.664062 C 68.90625 40.429688 69.042969 40.226562 69.21875 40.046875 C 69.398438 39.871094 69.601562 39.734375 69.832031 39.636719 C 70.066406 39.539062 70.308594 39.492188 70.558594 39.492188 C 70.808594 39.492188 71.050781 39.539062 71.28125 39.636719 C 71.515625 39.734375 71.71875 39.871094 71.898438 40.046875 C 72.074219 40.226562 72.210938 40.429688 72.308594 40.664062 C 72.402344 40.894531 72.449219 41.136719 72.449219 41.390625 Z M 72.449219 41.390625 " fill-opacity="1" fill-rule="nonzero"/><path fill="#62442f" d="M 56.703125 43.9375 C 56.703125 44.191406 56.652344 44.433594 56.558594 44.664062 C 56.460938 44.898438 56.324219 45.105469 56.148438 45.28125 C 55.96875 45.460938 55.765625 45.597656 55.535156 45.691406 C 55.300781 45.789062 55.058594 45.835938 54.808594 45.835938 C 54.558594 45.835938 54.316406 45.789062 54.085938 45.691406 C 53.851562 45.597656 53.648438 45.460938 53.46875 45.28125 C 53.292969 45.105469 53.15625 44.898438 53.058594 44.664062 C 52.964844 44.433594 52.914062 44.191406 52.914062 43.9375 C 52.914062 43.6875 52.964844 43.445312 53.058594 43.210938 C 53.15625 42.980469 53.292969 42.773438 53.46875 42.597656 C 53.648438 42.417969 53.851562 42.28125 54.085938 42.183594 C 54.316406 42.089844 54.558594 42.039062 54.808594 42.039062 C 55.058594 42.039062 55.300781 42.089844 55.535156 42.183594 C 55.765625 42.28125 55.96875 42.417969 56.148438 42.597656 C 56.324219 42.773438 56.460938 42.980469 56.558594 43.210938 C 56.652344 43.445312 56.703125 43.6875 56.703125 43.9375 Z M 56.703125 43.9375 " fill-opacity="1" fill-rule="nonzero"/><path fill="#62442f" d="M 60.96875 47.945312 C 62.636719 47.675781 63.324219 47.289062 63.230469 45.585938 C 63.230469 45.570312 63.230469 45.558594 63.230469 45.542969 C 63.230469 45.511719 63.234375 45.484375 63.242188 45.453125 C 63.25 45.425781 63.257812 45.398438 63.269531 45.371094 C 63.28125 45.347656 63.296875 45.324219 63.3125 45.300781 C 63.328125 45.277344 63.347656 45.253906 63.371094 45.234375 C 63.390625 45.214844 63.414062 45.199219 63.4375 45.183594 C 63.460938 45.167969 63.488281 45.152344 63.519531 45.140625 C 63.53125 45.132812 63.542969 45.128906 63.558594 45.121094 C 63.574219 45.121094 63.589844 45.121094 63.605469 45.121094 C 63.621094 45.117188 63.636719 45.113281 63.652344 45.109375 C 63.667969 45.109375 63.683594 45.109375 63.695312 45.109375 C 63.726562 45.109375 63.753906 45.113281 63.78125 45.121094 C 63.8125 45.128906 63.839844 45.136719 63.871094 45.152344 C 63.917969 45.179688 63.964844 45.210938 64.003906 45.253906 C 64.023438 45.273438 64.039062 45.292969 64.054688 45.316406 C 64.070312 45.34375 64.085938 45.371094 64.09375 45.398438 C 64.101562 45.414062 64.109375 45.425781 64.113281 45.4375 C 64.558594 47.082031 65.328125 47.234375 67 46.964844 C 67.121094 46.945312 67.234375 46.972656 67.332031 47.046875 C 67.433594 47.121094 67.492188 47.21875 67.511719 47.34375 C 67.535156 47.464844 67.507812 47.578125 67.4375 47.679688 C 67.363281 47.78125 67.265625 47.84375 67.144531 47.863281 C 65.738281 48.089844 64.65625 48.019531 63.933594 47.132812 C 63.519531 48.203125 62.515625 48.613281 61.109375 48.839844 C 60.988281 48.859375 60.875 48.835938 60.773438 48.761719 C 60.671875 48.6875 60.609375 48.589844 60.589844 48.464844 C 60.570312 48.339844 60.597656 48.226562 60.667969 48.125 C 60.742188 48.023438 60.839844 47.960938 60.964844 47.941406 Z M 60.96875 47.945312 " fill-opacity="1" fill-rule="nonzero"/><path fill="#62442f" d="M 46.117188 49.394531 C 46.234375 49.375 46.332031 49.320312 46.402344 49.226562 C 46.476562 49.132812 46.511719 49.027344 46.5 48.910156 C 46.492188 48.789062 46.445312 48.691406 46.355469 48.609375 C 46.269531 48.527344 46.167969 48.488281 46.046875 48.488281 L 40.398438 48.433594 C 40.269531 48.425781 40.15625 48.46875 40.0625 48.558594 C 39.964844 48.648438 39.917969 48.757812 39.917969 48.890625 C 39.917969 49.023438 39.964844 49.132812 40.0625 49.222656 C 40.15625 49.3125 40.269531 49.355469 40.398438 49.347656 L 46.046875 49.398438 C 46.070312 49.398438 46.09375 49.398438 46.117188 49.394531 Z M 46.117188 49.394531 " fill-opacity="1" fill-rule="nonzero"/><path fill="#62442f" d="M 40.933594 53.15625 L 40.972656 53.15625 L 46.449219 51.769531 C 46.578125 51.746094 46.675781 51.675781 46.746094 51.566406 C 46.816406 51.457031 46.835938 51.339844 46.804688 51.210938 C 46.773438 51.085938 46.699219 50.988281 46.585938 50.925781 C 46.472656 50.859375 46.351562 50.847656 46.230469 50.886719 L 40.753906 52.273438 C 40.628906 52.296875 40.535156 52.363281 40.464844 52.46875 C 40.398438 52.574219 40.375 52.6875 40.402344 52.808594 C 40.425781 52.929688 40.492188 53.027344 40.59375 53.097656 C 40.699219 53.164062 40.8125 53.1875 40.933594 53.164062 Z M 40.933594 53.15625 " fill-opacity="1" fill-rule="nonzero"/><path fill="#62442f" d="M 80.472656 43.835938 C 80.496094 43.832031 80.523438 43.828125 80.546875 43.820312 L 85.894531 41.984375 C 86.011719 41.945312 86.097656 41.867188 86.152344 41.753906 C 86.207031 41.640625 86.214844 41.527344 86.175781 41.40625 C 86.132812 41.289062 86.058594 41.203125 85.945312 41.144531 C 85.832031 41.089844 85.71875 41.082031 85.597656 41.125 L 80.261719 42.964844 C 80.148438 43.003906 80.0625 43.074219 80.003906 43.175781 C 79.945312 43.28125 79.933594 43.390625 79.960938 43.507812 C 79.988281 43.625 80.054688 43.714844 80.152344 43.78125 C 80.253906 43.84375 80.363281 43.867188 80.480469 43.84375 Z M 80.472656 43.835938 " fill-opacity="1" fill-rule="nonzero"/><path fill="#62442f" d="M 86.574219 45.773438 C 86.695312 45.753906 86.792969 45.695312 86.867188 45.597656 C 86.941406 45.5 86.96875 45.390625 86.957031 45.269531 C 86.941406 45.148438 86.886719 45.050781 86.792969 44.972656 C 86.699219 44.894531 86.59375 44.859375 86.472656 44.871094 L 80.835938 45.28125 C 80.714844 45.296875 80.617188 45.351562 80.539062 45.445312 C 80.460938 45.539062 80.429688 45.644531 80.4375 45.769531 C 80.445312 45.890625 80.496094 45.992188 80.585938 46.074219 C 80.675781 46.15625 80.78125 46.195312 80.902344 46.191406 L 86.535156 45.777344 C 86.550781 45.777344 86.5625 45.773438 86.574219 45.773438 Z M 86.574219 45.773438 " fill-opacity="1" fill-rule="nonzero"/><path fill="#eec0c2" d="M 61.078125 44.492188 C 61.183594 45.167969 62.386719 45.875 63.699219 45.664062 C 65.011719 45.453125 65.929688 44.398438 65.824219 43.722656 C 65.714844 43.050781 64.5625 42.675781 63.253906 42.886719 C 61.945312 43.097656 60.96875 43.8125 61.078125 44.492188 Z M 61.078125 44.492188 " fill-opacity="1" fill-rule="nonzero"/><path fill="#eec0c2" d="M 74.007812 44.320312 C 74.292969 43.910156 74.683594 43.734375 75.175781 43.792969 C 75.472656 43.832031 75.726562 43.960938 75.933594 44.175781 C 76.066406 43.90625 76.265625 43.707031 76.535156 43.574219 C 76.742188 43.476562 76.960938 43.4375 77.191406 43.460938 C 77.421875 43.484375 77.628906 43.566406 77.8125 43.707031 C 78.117188 43.949219 78.285156 44.261719 78.316406 44.652344 C 78.339844 45.171875 78.234375 45.667969 78.011719 46.136719 C 77.835938 46.570312 77.589844 46.953125 77.265625 47.289062 C 77.183594 47.367188 77.09375 47.4375 77.003906 47.5 C 76.691406 47.757812 76.347656 47.816406 75.96875 47.671875 C 75.863281 47.636719 75.757812 47.597656 75.652344 47.550781 C 75.242188 47.335938 74.886719 47.050781 74.585938 46.695312 C 74.226562 46.320312 73.972656 45.878906 73.828125 45.378906 C 73.734375 45 73.792969 44.648438 74.007812 44.320312 Z M 74.007812 44.320312 " fill-opacity="1" fill-rule="nonzero"/><path fill="#eec0c2" d="M 48.277344 48.492188 C 48.40625 48.300781 48.578125 48.15625 48.785156 48.0625 C 48.996094 47.96875 49.214844 47.933594 49.445312 47.960938 C 49.742188 48 49.996094 48.128906 50.203125 48.34375 C 50.332031 48.074219 50.53125 47.875 50.800781 47.742188 C 51.253906 47.53125 51.679688 47.574219 52.078125 47.875 C 52.382812 48.117188 52.554688 48.429688 52.585938 48.820312 C 52.605469 49.339844 52.503906 49.835938 52.277344 50.308594 C 52.101562 50.738281 51.855469 51.121094 51.53125 51.457031 C 51.449219 51.53125 51.363281 51.605469 51.269531 51.667969 C 51.117188 51.773438 50.953125 51.847656 50.777344 51.894531 C 50.59375 51.90625 50.414062 51.886719 50.238281 51.835938 C 50.128906 51.804688 50.023438 51.765625 49.921875 51.71875 C 49.507812 51.5 49.152344 51.214844 48.855469 50.859375 C 48.492188 50.484375 48.238281 50.046875 48.097656 49.546875 C 48.003906 49.167969 48.0625 48.816406 48.277344 48.492188 Z M 48.277344 48.492188 " fill-opacity="1" fill-rule="nonzero"/><path fill="#e5e5e5" d="M 66.457031 91.878906 L 66.515625 91.867188 C 66.625 91.835938 66.710938 91.773438 66.765625 91.675781 C 66.824219 91.574219 66.839844 91.46875 66.808594 91.359375 C 66.300781 89.164062 66.964844 86.148438 67.386719 84.859375 C 68 82.992188 67.921875 81.769531 67.917969 81.71875 C 67.910156 81.609375 67.867188 81.511719 67.785156 81.4375 C 67.703125 81.363281 67.605469 81.328125 67.492188 81.332031 C 67.382812 81.347656 67.292969 81.398438 67.222656 81.480469 C 67.152344 81.566406 67.117188 81.664062 67.125 81.777344 C 67.125 81.796875 67.1875 82.894531 66.632812 84.582031 C 66.183594 85.953125 65.480469 89.160156 66.035156 91.550781 C 66.054688 91.652344 66.105469 91.730469 66.183594 91.792969 C 66.265625 91.855469 66.355469 91.882812 66.457031 91.878906 Z M 66.457031 91.878906 " fill-opacity="1" fill-rule="nonzero"/><path fill="#e5e5e5" d="M 65.972656 89.148438 C 65.992188 89.148438 66.015625 89.144531 66.035156 89.136719 C 66.144531 89.105469 66.226562 89.039062 66.28125 88.941406 C 66.339844 88.839844 66.351562 88.738281 66.320312 88.628906 C 65.992188 87.3125 65.519531 86.050781 64.902344 84.847656 C 64.070312 83.269531 63.949219 82.171875 63.945312 82.164062 C 63.9375 82.050781 63.894531 81.957031 63.808594 81.882812 C 63.722656 81.808594 63.621094 81.777344 63.507812 81.789062 C 63.398438 81.800781 63.308594 81.851562 63.238281 81.941406 C 63.171875 82.03125 63.140625 82.128906 63.15625 82.242188 C 63.15625 82.292969 63.289062 83.503906 64.207031 85.246094 C 64.792969 86.390625 65.246094 87.585938 65.558594 88.832031 C 65.609375 89.050781 65.746094 89.15625 65.972656 89.148438 Z M 65.972656 89.148438 " fill-opacity="1" fill-rule="nonzero"/><path fill="#e5e5e5" d="M 51.914062 64.144531 C 52.015625 64.136719 52.101562 64.09375 52.175781 64.023438 C 52.246094 63.949219 52.285156 63.859375 52.289062 63.757812 C 52.296875 63.644531 52.265625 63.546875 52.195312 63.460938 C 52.125 63.371094 52.03125 63.324219 51.921875 63.308594 C 48.339844 63.03125 45.136719 62.195312 42.136719 60.75 C 42.039062 60.703125 41.933594 60.699219 41.832031 60.742188 C 41.726562 60.78125 41.65625 60.851562 41.613281 60.957031 C 41.566406 61.0625 41.5625 61.164062 41.601562 61.273438 C 41.640625 61.378906 41.707031 61.457031 41.808594 61.507812 C 44.898438 62.996094 48.1875 63.855469 51.863281 64.144531 C 51.878906 64.144531 51.898438 64.144531 51.914062 64.144531 Z M 51.914062 64.144531 " fill-opacity="1" fill-rule="nonzero"/><path fill="#e5e5e5" d="M 74.898438 62.25 C 74.925781 62.25 74.953125 62.242188 74.976562 62.238281 C 76.394531 61.808594 77.761719 61.261719 79.078125 60.589844 C 79.179688 60.535156 79.246094 60.453125 79.28125 60.347656 C 79.316406 60.238281 79.308594 60.132812 79.261719 60.03125 C 79.214844 59.929688 79.140625 59.859375 79.035156 59.820312 C 78.929688 59.78125 78.828125 59.789062 78.726562 59.835938 C 77.453125 60.488281 76.128906 61.019531 74.761719 61.433594 C 74.65625 61.46875 74.578125 61.539062 74.523438 61.636719 C 74.472656 61.734375 74.460938 61.835938 74.492188 61.945312 C 74.542969 62.15625 74.679688 62.261719 74.898438 62.25 Z M 74.898438 62.25 " fill-opacity="1" fill-rule="nonzero"/><path fill="#e5e5e5" d="M 75.375 95.398438 C 75.582031 95.378906 75.699219 95.265625 75.730469 95.058594 L 75.785156 94.761719 C 75.957031 93.898438 76.074219 93.027344 76.136719 92.144531 C 76.144531 92.03125 76.113281 91.933594 76.039062 91.847656 C 75.96875 91.761719 75.875 91.710938 75.761719 91.703125 C 75.652344 91.695312 75.554688 91.734375 75.472656 91.808594 C 75.390625 91.886719 75.34375 91.980469 75.339844 92.089844 C 75.285156 92.9375 75.171875 93.773438 75.003906 94.601562 L 74.949219 94.902344 C 74.929688 95.011719 74.949219 95.113281 75.011719 95.210938 C 75.074219 95.304688 75.160156 95.363281 75.269531 95.390625 C 75.304688 95.398438 75.339844 95.398438 75.375 95.398438 Z M 75.375 95.398438 " fill-opacity="1" fill-rule="nonzero"/><path fill="#e5e5e5" d="M 70.519531 95.253906 C 70.726562 95.234375 70.84375 95.121094 70.875 94.917969 L 70.929688 94.625 C 71.0625 93.789062 71.25 92.964844 71.492188 92.15625 C 71.527344 92.046875 71.519531 91.941406 71.46875 91.839844 C 71.421875 91.738281 71.34375 91.667969 71.238281 91.625 C 71.132812 91.589844 71.027344 91.597656 70.925781 91.648438 C 70.828125 91.699219 70.761719 91.78125 70.730469 91.890625 C 70.476562 92.734375 70.28125 93.59375 70.140625 94.464844 L 70.089844 94.753906 C 70.066406 94.863281 70.085938 94.96875 70.148438 95.0625 C 70.210938 95.15625 70.296875 95.21875 70.40625 95.242188 C 70.445312 95.253906 70.480469 95.257812 70.519531 95.253906 Z M 70.519531 95.253906 " fill-opacity="1" fill-rule="nonzero"/><path fill="#e5e5e5" d="M 63.089844 95.625 L 63.117188 95.625 C 63.230469 95.605469 63.316406 95.550781 63.382812 95.457031 C 63.449219 95.363281 63.472656 95.261719 63.453125 95.148438 L 63.410156 94.851562 C 63.296875 93.972656 63.128906 93.105469 62.902344 92.25 C 62.875 92.140625 62.8125 92.058594 62.71875 92.003906 C 62.621094 91.945312 62.519531 91.933594 62.410156 91.960938 C 62.304688 91.996094 62.226562 92.0625 62.171875 92.164062 C 62.121094 92.261719 62.109375 92.363281 62.140625 92.472656 C 62.355469 93.292969 62.515625 94.125 62.625 94.96875 L 62.667969 95.265625 C 62.679688 95.371094 62.726562 95.457031 62.808594 95.527344 C 62.890625 95.59375 62.980469 95.628906 63.089844 95.625 Z M 63.089844 95.625 " fill-opacity="1" fill-rule="nonzero"/><path fill="#e5e5e5" d="M 58.710938 96.859375 L 58.738281 96.859375 C 58.847656 96.839844 58.9375 96.785156 59.003906 96.691406 C 59.070312 96.601562 59.09375 96.5 59.074219 96.386719 L 59.03125 96.085938 C 58.890625 95.25 58.800781 94.40625 58.769531 93.554688 C 58.769531 93.445312 58.730469 93.347656 58.648438 93.265625 C 58.570312 93.1875 58.472656 93.148438 58.363281 93.144531 C 58.25 93.152344 58.15625 93.195312 58.078125 93.277344 C 58.003906 93.359375 57.96875 93.457031 57.972656 93.570312 C 58.003906 94.453125 58.09375 95.332031 58.242188 96.203125 L 58.28125 96.503906 C 58.296875 96.609375 58.34375 96.695312 58.425781 96.765625 C 58.511719 96.832031 58.605469 96.863281 58.710938 96.859375 Z M 58.710938 96.859375 " fill-opacity="1" fill-rule="nonzero"/><path fill="#e5e5e5" d="M 51.773438 94.582031 C 51.863281 94.574219 51.941406 94.535156 52.007812 94.472656 C 52.085938 94.394531 52.128906 94.296875 52.136719 94.183594 C 52.140625 94.070312 52.105469 93.972656 52.03125 93.886719 C 49.605469 91.089844 48.234375 86.753906 47.835938 80.628906 C 47.828125 80.515625 47.785156 80.421875 47.703125 80.347656 C 47.621094 80.269531 47.523438 80.234375 47.410156 80.238281 C 47.300781 80.25 47.207031 80.300781 47.136719 80.386719 C 47.066406 80.472656 47.03125 80.570312 47.039062 80.679688 C 47.453125 87 48.898438 91.503906 51.445312 94.441406 C 51.53125 94.546875 51.640625 94.589844 51.773438 94.582031 Z M 51.773438 94.582031 " fill-opacity="1" fill-rule="nonzero"/><path fill="#eec0c2" d="M 46.59375 85.320312 C 48.105469 90.710938 44.898438 96.289062 39.429688 97.777344 C 33.960938 99.265625 28.300781 96.105469 26.792969 90.714844 C 25.28125 85.324219 28.488281 79.746094 33.957031 78.257812 C 39.425781 76.769531 45.085938 79.933594 46.59375 85.320312 Z M 46.59375 85.320312 " fill-opacity="1" fill-rule="nonzero"/><path fill="#b8c5cd" d="M 69.699219 86.03125 C 68.980469 86.203125 68.066406 86.105469 67.320312 86.1875 C 66.382812 86.292969 65.457031 86.472656 64.558594 86.75 C 63.285156 87.144531 62.464844 88.003906 61.949219 89.1875 C 61.867188 89.171875 61.785156 89.152344 61.710938 89.140625 C 59.589844 88.882812 57.90625 90.753906 55.957031 91.242188 C 53.878906 91.761719 51.777344 91.15625 49.859375 92.316406 C 49.054688 92.800781 48.363281 93.449219 47.550781 93.933594 C 46.355469 94.644531 44.898438 94.65625 43.566406 94.476562 C 43.445312 94.460938 43.355469 94.523438 43.308594 94.609375 C 43.1875 94.597656 43.066406 94.578125 42.945312 94.5625 C 42.914062 94.484375 42.847656 94.425781 42.734375 94.433594 C 42.585938 94.445312 42.441406 94.449219 42.292969 94.457031 C 42.179688 94.4375 42.0625 94.421875 41.949219 94.398438 C 45.191406 93.28125 47.144531 89.03125 47.109375 85.882812 C 47.109375 85.578125 46.632812 85.578125 46.632812 85.882812 C 46.667969 89.042969 44.589844 93.4375 41.164062 94.125 C 41.113281 94.132812 41.078125 94.15625 41.050781 94.1875 C 40.359375 94 39.683594 93.765625 39.027344 93.488281 C 43.195312 92.292969 46.160156 87.308594 45.246094 83.164062 C 45.183594 82.867188 44.722656 82.992188 44.789062 83.289062 C 45.6875 87.351562 42.578125 92.285156 38.425781 93.167969 C 38.40625 93.171875 38.394531 93.179688 38.378906 93.1875 C 38.003906 93.007812 37.636719 92.816406 37.277344 92.609375 C 41.570312 91.132812 44.449219 86.457031 43.199219 82.019531 C 43.117188 81.726562 42.660156 81.851562 42.742188 82.144531 C 43.960938 86.476562 41.011719 91.027344 36.75 92.277344 C 36.273438 91.972656 35.808594 91.648438 35.375 91.296875 C 39.800781 90.632812 42.359375 84.613281 41.550781 80.609375 C 41.40625 79.8125 41.132812 79.054688 40.609375 78.40625 C 40.421875 78.167969 40.089844 78.507812 40.277344 78.738281 C 40.660156 79.214844 40.886719 79.777344 41.023438 80.363281 C 41.023438 80.382812 41.019531 80.398438 41.023438 80.421875 C 41.054688 80.539062 41.082031 80.660156 41.105469 80.78125 C 41.140625 80.988281 41.167969 81.199219 41.1875 81.40625 C 41.1875 81.414062 41.191406 81.417969 41.191406 81.425781 C 41.550781 85.269531 39.019531 90.632812 34.882812 90.878906 C 34.570312 90.597656 34.269531 90.308594 33.984375 90.003906 C 38.460938 88.746094 41.109375 82.800781 39.167969 78.671875 C 39.039062 78.398438 38.632812 78.640625 38.757812 78.914062 C 40.609375 82.84375 37.914062 88.5625 33.628906 89.609375 C 33.324219 89.253906 33.03125 88.886719 32.765625 88.503906 C 34.835938 87.917969 36.304688 85.96875 37.289062 84.195312 C 38.292969 82.390625 39.105469 79.953125 38.226562 77.957031 C 38.105469 77.679688 37.699219 77.921875 37.820312 78.195312 C 38.628906 80.042969 37.75 82.304688 36.875 83.960938 C 36.574219 84.539062 36.199219 85.140625 35.765625 85.703125 C 35.457031 83.457031 36.160156 81.234375 36.660156 79.058594 C 36.726562 78.761719 36.269531 78.640625 36.199219 78.9375 C 35.652344 81.320312 34.902344 83.722656 35.363281 86.183594 C 35.058594 86.527344 34.730469 86.851562 34.375 87.132812 C 34.359375 87.125 34.347656 87.117188 34.332031 87.117188 C 32.917969 86.945312 33.339844 83.703125 33.417969 82.8125 C 33.546875 81.363281 33.722656 79.570312 34.421875 78.257812 C 34.566406 77.988281 34.152344 77.757812 34.007812 78.023438 C 33.15625 79.628906 32.996094 81.789062 32.886719 83.5625 C 32.820312 84.621094 32.691406 86.898438 33.917969 87.464844 C 33.476562 87.746094 33.003906 87.964844 32.5 88.09375 C 31.121094 85.90625 30.457031 83.3125 30.898438 80.503906 C 30.945312 80.207031 30.484375 80.085938 30.4375 80.382812 C 29.761719 84.699219 31.558594 88.542969 34.5625 91.230469 C 34.585938 91.285156 34.632812 91.324219 34.695312 91.34375 C 35.015625 91.625 35.355469 91.886719 35.703125 92.140625 C 35.78125 92.136719 35.863281 92.15625 35.933594 92.210938 C 36.382812 92.550781 36.828125 92.882812 37.320312 93.164062 C 37.332031 93.167969 37.335938 93.179688 37.347656 93.1875 C 38.453125 93.800781 39.636719 94.296875 40.871094 94.628906 C 40.871094 94.628906 40.871094 94.628906 40.867188 94.632812 C 34.644531 94.671875 27.929688 89.945312 28.265625 83.351562 C 28.28125 83.050781 27.804688 83.050781 27.789062 83.351562 C 27.4375 90.28125 34.582031 95.28125 41.125 95.097656 C 41.195312 95.097656 41.242188 95.066406 41.28125 95.027344 C 41.597656 94.972656 41.921875 94.945312 42.242188 94.929688 C 42.980469 95.0625 43.722656 95.140625 44.472656 95.160156 C 44.585938 95.164062 44.65625 95.101562 44.683594 95.023438 C 45.339844 95.035156 45.984375 94.976562 46.652344 94.792969 C 48 94.417969 48.976562 93.476562 50.101562 92.71875 C 51.480469 91.789062 53.210938 91.96875 54.796875 91.871094 C 56.25 91.785156 57.460938 91.269531 58.695312 90.546875 C 59.664062 89.976562 60.757812 89.480469 61.78125 89.664062 C 61.546875 90.621094 61.992188 91.496094 62.996094 91.839844 C 63.683594 92.074219 64.058594 91.539062 63.953125 90.929688 C 63.824219 90.207031 63.113281 89.613281 62.386719 89.324219 C 62.523438 89.015625 62.703125 88.730469 62.859375 88.5 C 63.628906 87.335938 65.058594 87.039062 66.355469 86.800781 C 67.488281 86.585938 68.730469 86.746094 69.824219 86.484375 C 70.121094 86.410156 69.996094 85.960938 69.699219 86.03125 Z M 63.085938 90.359375 C 63.285156 90.550781 63.410156 90.796875 63.492188 91.054688 C 63.367188 91.164062 63.242188 91.277344 63.117188 91.386719 C 62.667969 91.269531 62.371094 90.996094 62.230469 90.5625 C 62.140625 90.320312 62.152344 90.054688 62.21875 89.789062 C 62.519531 89.90625 62.8125 90.085938 63.085938 90.359375 Z M 63.085938 90.359375 " fill-opacity="1" fill-rule="nonzero"/><path fill="#b8c5cd" d="M 40.304688 96.554688 C 34.257812 97.363281 27.28125 92.304688 26.835938 86.171875 C 26.8125 85.871094 26.339844 85.871094 26.359375 86.171875 C 26.824219 92.539062 33.984375 97.867188 40.308594 97.023438 C 40.605469 96.984375 40.609375 96.515625 40.304688 96.554688 Z M 40.304688 96.554688 " fill-opacity="1" fill-rule="nonzero"/></svg>