<svg xmlns="http://www.w3.org/2000/svg" xmlns:xlink="http://www.w3.org/1999/xlink" width="100" zoomAndPan="magnify" viewBox="0 0 75 74.999997" height="100" preserveAspectRatio="xMidYMid meet" version="1.0"><defs><clipPath id="id1"><path d="M 15 6.25 L 59.960938 6.25 L 59.960938 67 L 15 67 Z M 15 6.25 " clip-rule="nonzero"/></clipPath></defs><g clip-path="url(#id1)"><path fill="#496dbe" d="M 29.167969 66.722656 C 29.195312 66.773438 29.175781 66.769531 29.246094 66.753906 C 29.203125 66.679688 29.21875 66.695312 29.167969 66.722656 Z M 26.378906 17.382812 C 26.378906 17.363281 26.378906 17.347656 26.375 17.328125 C 26.207031 17.351562 26.167969 17.40625 26.378906 17.382812 Z M 47.851562 58.265625 C 47.921875 58.289062 47.992188 58.308594 48.105469 58.34375 C 48.039062 58.171875 47.96875 58.148438 47.851562 58.265625 Z M 39.457031 20.53125 C 39.4375 20.523438 39.414062 20.515625 39.398438 20.503906 C 39.382812 20.546875 39.371094 20.589844 39.359375 20.632812 C 39.371094 20.636719 39.386719 20.644531 39.398438 20.648438 C 39.417969 20.609375 39.4375 20.570312 39.457031 20.53125 Z M 38.90625 29.589844 C 39.003906 29.523438 38.992188 29.554688 38.949219 29.472656 C 38.859375 29.523438 38.875 29.496094 38.90625 29.589844 Z M 30.164062 51.867188 C 30.265625 51.585938 30.261719 51.671875 30.152344 51.5625 C 30.058594 51.675781 30.046875 51.589844 30.164062 51.867188 Z M 42.082031 8.703125 C 42.234375 8.890625 42.234375 8.890625 42.398438 8.789062 C 42.289062 8.761719 42.214844 8.738281 42.082031 8.703125 Z M 42.773438 10.273438 C 42.601562 10.21875 42.503906 10.210938 42.4375 10.339844 C 42.566406 10.4375 42.644531 10.359375 42.773438 10.273438 Z M 48.652344 58.117188 C 48.863281 58.277344 48.863281 58.277344 49.011719 58.117188 C 48.90625 58.117188 48.8125 58.117188 48.652344 58.117188 Z M 39.5625 21.0625 C 39.496094 20.984375 39.4375 20.921875 39.367188 20.835938 C 39.367188 20.941406 39.367188 21.015625 39.367188 21.109375 C 39.445312 21.09375 39.496094 21.082031 39.5625 21.0625 Z M 29.183594 17.609375 C 29.285156 17.683594 29.371094 17.691406 29.429688 17.566406 C 29.347656 17.578125 29.265625 17.597656 29.183594 17.609375 Z M 18.902344 60.675781 C 18.578125 60.6875 18.578125 60.6875 18.609375 60.914062 C 18.703125 60.835938 18.78125 60.773438 18.902344 60.675781 Z M 52.207031 61.148438 C 52.011719 61.066406 51.902344 61.128906 51.738281 61.203125 C 51.921875 61.289062 52.042969 61.265625 52.207031 61.148438 Z M 39.097656 28.871094 C 39.085938 28.855469 39.074219 28.839844 39.058594 28.820312 C 38.96875 28.863281 38.882812 28.910156 38.753906 28.96875 C 38.847656 29.035156 38.894531 29.070312 38.960938 29.117188 C 39.015625 29.019531 39.058594 28.945312 39.097656 28.871094 Z M 54.5625 59.476562 C 54.554688 59.496094 54.550781 59.511719 54.542969 59.527344 C 54.613281 59.5625 54.96875 59.796875 54.925781 59.394531 C 54.789062 59.425781 54.675781 59.453125 54.5625 59.476562 Z M 38.867188 30.222656 C 38.894531 30.21875 38.925781 30.210938 38.957031 30.207031 C 38.925781 30.070312 38.894531 29.9375 38.863281 29.800781 C 38.75 29.957031 38.777344 30.09375 38.867188 30.222656 Z M 39.023438 28.324219 C 38.996094 28.3125 38.96875 28.300781 38.945312 28.289062 C 38.757812 28.460938 38.835938 28.605469 39 28.640625 C 39.007812 28.523438 39.015625 28.425781 39.023438 28.324219 Z M 31.425781 28.875 C 31.570312 28.640625 31.550781 28.453125 31.472656 28.210938 C 31.335938 28.441406 31.378906 28.628906 31.425781 28.875 Z M 23.253906 59.761719 C 23.183594 59.757812 22.621094 59.675781 22.585938 59.851562 C 22.726562 60.027344 23.078125 59.902344 23.253906 59.761719 Z M 51.835938 62.441406 C 52.242188 62.738281 52.394531 62.410156 52.210938 62.308594 C 52.097656 62.347656 51.984375 62.390625 51.835938 62.441406 Z M 38.96875 27.929688 C 39.390625 27.339844 38.824219 27.539062 38.855469 27.757812 C 38.859375 27.804688 38.910156 27.84375 38.96875 27.929688 Z M 43.183594 8.835938 C 43.007812 8.644531 42.894531 8.640625 42.515625 8.828125 C 42.722656 8.941406 43.082031 9.042969 43.183594 8.835938 Z M 17.21875 10.730469 C 16.710938 10.347656 16.523438 10.550781 16.597656 10.878906 C 17.011719 10.964844 17.105469 10.945312 17.21875 10.730469 Z M 53.625 60.925781 C 53.625 60.898438 53.628906 60.875 53.632812 60.84375 C 53.371094 60.753906 52.511719 60.863281 52.25 60.960938 C 52.761719 61.3125 53.191406 61.050781 53.625 60.925781 Z M 31.53125 43.136719 C 31.316406 43.222656 31.378906 46.867188 31.5625 47 C 31.65625 46.820312 31.613281 43.417969 31.53125 43.136719 Z M 25.796875 14.882812 C 25.867188 14.890625 29.1875 15.210938 29.441406 14.925781 C 29.390625 14.621094 26.023438 14.640625 25.796875 14.882812 Z M 39.183594 23.003906 C 39.328125 23.324219 39.425781 23.394531 39.179688 23.628906 C 39.179688 23.632812 39.1875 23.648438 39.191406 23.65625 C 39.378906 23.886719 38.734375 24.234375 39.261719 24.667969 C 39.332031 24.53125 39.871094 22.570312 39.617188 21.4375 C 39.148438 21.46875 39.394531 21.59375 39.234375 21.796875 C 38.980469 22.113281 39.378906 22.296875 39.121094 22.535156 C 39.238281 22.566406 39.328125 22.589844 39.441406 22.621094 C 39.160156 22.746094 39.015625 22.941406 39.109375 23.03125 C 39.132812 23.023438 39.164062 23.011719 39.183594 23.003906 Z M 49.957031 59.445312 C 48.929688 59.457031 47.953125 59.539062 46.941406 59.597656 C 46.980469 59.726562 47.007812 59.808594 47.035156 59.894531 C 46.925781 59.941406 46.828125 59.980469 46.734375 60.019531 C 47.542969 60.066406 52.585938 59.664062 52.835938 59.496094 C 52.429688 59.21875 49.984375 59.957031 49.957031 59.445312 Z M 49.292969 61.375 C 49.164062 60.832031 52.40625 61.085938 52.789062 60.605469 C 52.695312 60.59375 52.640625 60.578125 52.585938 60.582031 C 46.542969 61.238281 46.925781 60.933594 46.808594 61.601562 C 47.003906 61.683594 48.632812 61.519531 49.292969 61.375 Z M 23.875 59.558594 C 23.945312 59.550781 27.484375 59.242188 27.460938 58.898438 C 27.96875 58.929688 28.914062 58.695312 29.289062 58.613281 C 29.132812 58.800781 28.886719 58.636719 28.769531 58.839844 C 28.839844 58.851562 30.164062 58.882812 30.421875 58.574219 C 30.460938 58.628906 30.503906 58.683594 30.542969 58.746094 C 30.871094 58.371094 30.4375 58.097656 30.269531 57.964844 C 30.046875 57.984375 30.09375 58.171875 30.058594 58.292969 C 28.390625 58.75 25.636719 58.453125 25.25 58.921875 C 25.28125 58.996094 25.3125 59.070312 25.339844 59.144531 C 25.132812 59.183594 25.132812 59.183594 24.929688 59.105469 C 24.621094 59.316406 24.207031 59.265625 23.875 59.558594 Z M 39.285156 25.265625 C 39.480469 25.308594 39.484375 24.882812 39.046875 24.824219 C 39.003906 25.214844 39.347656 25.0625 39.292969 25.269531 C 39.214844 25.269531 39.140625 25.261719 39.078125 25.261719 C 39.003906 25.992188 38.839844 26.703125 38.910156 27.421875 C 39.210938 27.519531 38.953125 27.230469 39.34375 26.917969 C 39.109375 26.050781 39.5 25.671875 39.285156 25.265625 Z M 39.996094 55.757812 C 39.964844 55.824219 39.9375 55.894531 39.902344 55.988281 C 39.71875 55.863281 39.539062 55.921875 39.359375 55.960938 C 39.144531 56.628906 49.515625 55.65625 52.117188 56.082031 C 52.507812 55.898438 52.917969 56.0625 53.34375 56.222656 C 53.144531 56.296875 51.878906 56.085938 51.597656 56.292969 C 51.488281 56.371094 51.058594 56.167969 50.921875 56.167969 C 50.757812 56.167969 49.546875 56.308594 49.164062 56.195312 C 48.765625 56.082031 48.980469 56.34375 48.667969 56.347656 C 48.121094 56.351562 48.722656 56.453125 47.808594 56.476562 C 47.628906 56.480469 46.007812 56.496094 45.859375 56.554688 C 45.890625 56.597656 45.917969 56.644531 45.964844 56.714844 C 44.726562 56.90625 43.472656 56.847656 42.195312 57.082031 C 42.519531 57.378906 44.722656 57.011719 44.984375 57.167969 C 44.851562 57.222656 44.75 57.265625 44.628906 57.316406 C 44.644531 57.335938 44.664062 57.363281 44.695312 57.414062 C 44.613281 57.417969 43.617188 57.25 43.234375 57.386719 C 42.65625 57.59375 42.691406 57.671875 42.589844 57.582031 C 42.578125 57.566406 42.503906 57.585938 42.492188 57.605469 C 42.316406 57.898438 41.613281 57.652344 40.644531 57.890625 C 40.773438 57.996094 40.875 58.074219 40.980469 58.160156 C 40.980469 58.160156 53.402344 57.519531 54.382812 57.21875 C 56.824219 57.675781 55.386719 57.28125 56.734375 57.445312 C 57.605469 57.550781 57.390625 57.246094 58.265625 57.5 C 58.195312 57.507812 50.738281 57.878906 50.285156 58.085938 C 50.65625 58.242188 55.671875 57.695312 56.476562 57.878906 C 56.167969 58.175781 56.125 57.664062 55.675781 57.945312 C 55.769531 57.957031 55.863281 57.964844 55.953125 57.972656 C 55.480469 58.464844 53.753906 58.277344 53.492188 58.410156 C 53.421875 58.386719 48.871094 58.707031 48.492188 59.058594 C 49.503906 59.058594 56.828125 58.636719 57.410156 58.910156 C 56.890625 59.207031 56.800781 59.328125 56.601562 59.113281 C 56.578125 59.195312 56.566406 59.238281 56.550781 59.296875 C 55.304688 59.160156 55.691406 59.179688 55.183594 59.285156 C 55.691406 59.875 54.996094 59.464844 59.511719 59.394531 C 59.636719 59.394531 59.757812 59.363281 59.921875 59.34375 C 59.433594 59.710938 55.96875 60.105469 55.902344 60.070312 C 55.609375 60.351562 54.746094 60.046875 54.714844 60.605469 C 54.449219 60.652344 54.179688 60.699219 53.898438 60.746094 C 53.867188 60.867188 53.839844 60.992188 53.8125 61.117188 C 53.832031 61.125 53.855469 61.136719 53.875 61.144531 C 53.953125 61.054688 54.023438 60.96875 54.117188 60.855469 C 54.296875 61.253906 55.746094 60.695312 55.949219 60.855469 C 55.714844 61.09375 55.339844 60.957031 55.121094 61.175781 C 55.226562 61.65625 55.351562 61.242188 55.902344 61.417969 C 54.085938 61.753906 52.070312 63.011719 59.230469 61.957031 C 58.183594 62.632812 54.480469 62.703125 54.386719 63.121094 C 54.5625 63.511719 56.511719 62.878906 57.484375 62.957031 C 57.417969 62.972656 55.507812 63.367188 55.257812 63.523438 C 55.261719 63.542969 55.269531 63.5625 55.277344 63.582031 C 55.40625 63.59375 55.535156 63.605469 55.667969 63.617188 C 55.671875 63.632812 55.675781 63.648438 55.679688 63.660156 C 50.195312 64.941406 51.753906 64.644531 51.179688 64.484375 C 51.144531 64.5625 51.113281 64.636719 51.101562 64.660156 C 50.648438 64.8125 28.875 68.386719 19.101562 66.082031 C 19.171875 66.234375 19.214844 66.320312 19.269531 66.4375 C 18.484375 66.238281 18.601562 65.476562 18.601562 65.394531 C 18.605469 65.160156 19.003906 65.160156 18.941406 65.417969 C 18.832031 65.894531 18.949219 65.859375 19.742188 66.050781 C 19.792969 65.855469 19.722656 65.707031 19.503906 65.582031 C 19.625 65.546875 19.703125 65.527344 19.777344 65.503906 C 19.851562 65.074219 19.835938 65.054688 19.398438 64.980469 C 19.601562 64.859375 19.796875 64.742188 20.015625 64.609375 C 19.867188 64.5 19.738281 64.40625 19.578125 64.289062 C 19.058594 64.4375 19.304688 64.152344 18.449219 63.972656 C 18.433594 63.898438 18.417969 63.828125 18.402344 63.742188 C 18.230469 63.714844 18.058594 63.6875 17.875 63.65625 C 17.957031 63.367188 18.625 63.515625 18.828125 63.335938 C 18.308594 63.28125 17.835938 63.234375 17.332031 63.179688 C 17.230469 63 17.285156 62.628906 16.84375 62.699219 C 17.089844 62.035156 17.734375 62.160156 17.195312 61.789062 C 17.25 61.726562 17.300781 61.664062 17.355469 61.597656 C 17.054688 61.410156 17.054688 61.410156 16.84375 61.445312 C 16.726562 61.207031 16.75 61.289062 16.785156 61.140625 C 17.015625 61.191406 16.90625 61.308594 17.160156 61.222656 C 17.554688 61.089844 17.691406 61.183594 18.527344 61.09375 C 18.386719 60.660156 18.15625 60.375 17.929688 60.085938 C 18.324219 59.421875 29.457031 57.628906 30.632812 57.570312 C 30.589844 56.914062 30.53125 52.90625 30.691406 52.472656 C 30.566406 51.640625 30.667969 48.445312 30.480469 48.03125 C 30.378906 48.011719 30.265625 47.992188 30.164062 47.972656 C 29.996094 48.09375 29.890625 48.75 30.199219 48.695312 C 30.390625 48.660156 30.390625 48.976562 30.355469 49.601562 C 30.355469 49.601562 30.148438 49.890625 30.097656 50 C 29.976562 50.265625 30.347656 50.054688 30.351562 50.472656 C 30.363281 51.179688 30.363281 52.351562 30.363281 53.039062 C 30.339844 53.039062 30.316406 53.039062 30.292969 53.042969 C 30.269531 52.683594 30.28125 52.832031 30.238281 52.480469 C 29.625 52.574219 30.675781 54.710938 30.292969 55.042969 C 30.257812 54.957031 30.226562 54.875 30.183594 54.769531 C 30.140625 54.8125 30.105469 54.84375 30.058594 54.878906 C 29.964844 54.746094 29.769531 50.554688 29.992188 50.53125 C 29.835938 49.523438 29.871094 47.96875 29.871094 46.953125 C 29.925781 47.019531 29.980469 47.09375 30.082031 47.214844 C 30.128906 47.015625 30.160156 46.867188 30.210938 46.65625 C 30.25 46.9375 30.28125 47.152344 30.320312 47.425781 C 30.335938 47.441406 30.394531 47.5 30.472656 47.578125 C 30.730469 46.71875 31.265625 22.3125 32.5 18.445312 C 32.042969 18.386719 31.582031 18.515625 31.164062 18.320312 C 30.910156 18.460938 30.457031 18.382812 30.3125 18.265625 C 30.167969 18.148438 29.800781 18.289062 29.582031 18.089844 C 29.425781 17.945312 29.203125 18.050781 28.558594 18.230469 C 28.5625 18.132812 28.570312 18.085938 28.570312 18.023438 C 28.402344 18.007812 28.230469 17.992188 28.0625 17.980469 C 28.0625 17.964844 28.0625 17.953125 28.0625 17.941406 C 32.183594 17.941406 31.652344 18 32.542969 18.21875 C 32.644531 18.027344 32.601562 17.859375 32.523438 17.675781 C 32.242188 17.882812 31.933594 17.710938 31.640625 17.753906 C 31.515625 17.632812 27.484375 17.6875 27.351562 17.847656 C 27.472656 17.878906 27.59375 17.910156 27.714844 17.945312 C 27.714844 17.953125 27.714844 17.964844 27.714844 17.972656 C 25.769531 17.664062 27.875 18.085938 24.402344 17.554688 C 24.210938 17.527344 23.246094 17.191406 22.792969 17.15625 C 22.792969 17.136719 22.792969 17.121094 22.792969 17.101562 C 23.925781 17.0625 24.375 17.710938 25.148438 17.316406 C 25.386719 17.460938 25.488281 17.453125 25.660156 17.265625 C 25.402344 17.214844 25.78125 17.222656 22.957031 17.097656 C 22.375 16.695312 21.910156 16.921875 21.839844 16.9375 C 21.84375 16.886719 21.847656 16.828125 21.847656 16.761719 C 21.738281 16.761719 21.625 16.761719 21.488281 16.761719 C 21.699219 16.492188 22 16.675781 22.28125 16.566406 C 22.210938 16.496094 22.175781 16.425781 22.117188 16.402344 C 19.921875 15.605469 20.898438 17.019531 18.789062 15.492188 C 18.84375 15.425781 18.917969 14.96875 18.1875 14.445312 C 18.191406 14.421875 18.199219 14.402344 18.207031 14.382812 C 18.996094 14.417969 18.949219 14.71875 19.804688 14.535156 C 19.507812 14.265625 18.890625 14.429688 17.457031 13.992188 C 17.03125 13.859375 17.238281 13.5625 16.941406 13.585938 C 16.910156 13.589844 15.589844 12.910156 15.585938 12.910156 C 15.964844 12.890625 16.320312 12.871094 16.734375 12.851562 C 16.207031 12.382812 15.761719 12.710938 15.230469 12.273438 C 15.175781 12.226562 15.085938 12.214844 15.015625 12.1875 C 14.980469 11.890625 14.941406 11.953125 15.671875 11.742188 C 15.597656 11.644531 15.539062 11.566406 15.472656 11.480469 C 15.59375 11.398438 15.714844 11.324219 15.832031 11.246094 C 15.777344 10.988281 15.441406 11.09375 15.375 10.851562 C 15.476562 10.816406 15.578125 10.785156 15.679688 10.753906 C 15.679688 10.734375 15.679688 10.71875 15.679688 10.699219 C 15.585938 10.683594 15.492188 10.664062 15.378906 10.644531 C 15.445312 10.589844 15.503906 10.542969 15.566406 10.492188 C 15.53125 10.445312 15.503906 10.402344 15.457031 10.335938 C 16.175781 9.945312 16.1875 9.984375 16.175781 9.847656 C 16.175781 9.847656 17.175781 8.789062 19.03125 8.558594 C 21.003906 8.308594 29.429688 6.414062 32.84375 7.175781 C 29.910156 7.175781 29.90625 7.175781 29.683594 7.335938 C 29.324219 7.59375 28.78125 7.324219 28.546875 7.574219 C 35.074219 7.824219 41.636719 7.625 44.308594 8.445312 C 44.335938 8.386719 44.359375 8.339844 44.378906 8.300781 C 44.894531 8.46875 45.777344 8.601562 46.09375 8.828125 C 46.023438 8.820312 43.78125 8.4375 43.296875 8.800781 C 43.339844 8.855469 43.382812 8.910156 43.445312 8.984375 C 43.257812 9.007812 43.152344 9.183594 42.953125 9.132812 C 42.828125 9.105469 42.703125 9.105469 42.59375 9.269531 C 43.214844 9.519531 42.691406 9.226562 43.59375 9.511719 C 43.714844 9.351562 43.75 9.496094 44.296875 9.496094 C 44.484375 9.726562 44.792969 9.726562 45 9.476562 C 45.039062 9.554688 45.074219 9.625 45.101562 9.683594 C 45.660156 9.699219 46.207031 9.664062 46.757812 9.78125 C 46.808594 9.710938 46.855469 9.648438 46.929688 9.542969 C 46.941406 9.636719 46.894531 9.851562 46.832031 9.914062 C 47.773438 10.054688 48.066406 9.753906 50.625 10.136719 C 50.164062 10.472656 43.9375 10.003906 44.011719 10.367188 C 44.558594 10.441406 47.015625 10.449219 48.613281 10.515625 C 48.726562 10.621094 48.644531 10.6875 48.554688 10.78125 C 49.375 10.910156 51.777344 10.714844 53.367188 11.234375 C 52.996094 11.324219 47.589844 11.003906 47.421875 11.371094 C 48.308594 11.585938 49.226562 11.253906 49.949219 11.808594 C 49.804688 11.816406 49.664062 11.824219 49.503906 11.832031 C 49.492188 11.882812 49.480469 11.9375 49.457031 12.023438 C 50.117188 12.035156 50.757812 12.046875 51.398438 12.058594 C 51.398438 12.082031 51.398438 12.101562 51.398438 12.121094 C 50.660156 12.328125 50.355469 11.988281 50.292969 12.359375 C 50.542969 12.476562 52.382812 12.476562 52.488281 12.449219 C 52.65625 12.554688 52.488281 12.617188 52.453125 12.699219 C 52.507812 12.738281 52.558594 12.777344 52.664062 12.859375 C 51.710938 12.933594 50.820312 13 49.875 13.070312 C 49.992188 13.199219 50.078125 13.292969 50.195312 13.414062 C 49.761719 13.503906 49.398438 13.378906 48.785156 13.652344 C 48.683594 13.695312 48.550781 13.671875 48.382812 13.683594 C 47.992188 13.847656 47.839844 13.859375 47.941406 14.097656 C 47.675781 14.191406 47.40625 14.277344 47.117188 14.375 C 47.269531 14.566406 51.269531 14.589844 51.671875 14.726562 C 51.667969 14.742188 51.664062 14.761719 51.660156 14.78125 C 51.125 14.78125 48.375 14.777344 47.984375 15.144531 C 48.132812 15.273438 51.882812 15.179688 51.953125 15.167969 C 52.003906 15.253906 52.054688 15.335938 52.117188 15.445312 C 48.355469 15.738281 48.390625 15.59375 48.28125 15.945312 C 48.421875 16.21875 50.140625 15.953125 50.90625 16.027344 C 50.78125 16.101562 50.792969 16.085938 49.515625 16.164062 C 49.488281 16.234375 49.460938 16.304688 49.429688 16.398438 C 49.375 16.363281 49.332031 16.332031 49.269531 16.289062 C 49.03125 16.527344 47.738281 16.777344 47.597656 16.789062 C 47.648438 17.15625 46.585938 17.011719 46.449219 17.140625 C 46.230469 17.347656 45.9375 17.328125 45.675781 17.339844 C 44.730469 17.371094 44.511719 17.75 45.566406 17.75 C 45.574219 17.773438 45.582031 17.800781 45.589844 17.824219 C 44.898438 18.230469 38.144531 17.785156 39.574219 18.90625 C 39.355469 19.109375 39.351562 19.144531 39.445312 19.394531 C 39.539062 19.648438 39.351562 19.882812 39.492188 20.238281 C 39.605469 20.078125 39.507812 19.925781 39.597656 19.75 C 39.636719 19.933594 39.664062 20.066406 39.703125 20.242188 C 39.917969 20.253906 40.148438 20.265625 40.402344 20.277344 C 40.195312 20.484375 39.957031 20.269531 39.746094 20.398438 C 39.761719 20.464844 40.140625 23.964844 39.765625 24.269531 C 39.789062 24.300781 37.925781 53.15625 38.378906 54.136719 C 38.414062 54.207031 38.371094 54.320312 38.339844 54.402344 C 38.179688 54.851562 38.355469 54.585938 38.347656 55.199219 C 38.347656 55.46875 38.429688 55.636719 38.964844 55.589844 C 39.316406 55.558594 39.316406 55.695312 39.605469 55.777344 C 39.667969 55.703125 39.523438 55.558594 39.695312 55.546875 C 39.851562 55.539062 39.75 55.679688 39.800781 55.746094 C 39.867188 55.75 39.933594 55.757812 40 55.761719 L 39.996094 55.757812 " fill-opacity="1" fill-rule="nonzero"/></g><path fill="#496dbe" d="M 18.964844 16.226562 C 18.574219 16.113281 17.710938 15.667969 17.851562 15.296875 C 18.214844 15.421875 18.878906 16.082031 18.960938 16.230469 L 18.964844 16.226562 " fill-opacity="1" fill-rule="nonzero"/><path fill="#496dbe" d="M 18.960938 16.230469 C 19.828125 16.15625 19.082031 16.34375 20.402344 16.492188 C 20.800781 16.535156 20.628906 16.4375 20.8125 16.628906 C 20.132812 16.601562 19.542969 16.449219 18.964844 16.226562 C 18.964844 16.226562 18.960938 16.230469 18.960938 16.230469 " fill-opacity="1" fill-rule="nonzero"/><path fill="#496dbe" d="M 30.082031 56.371094 C 30.308594 56.386719 30.230469 56.394531 30.378906 56.339844 C 30.402344 56.425781 30.425781 56.5 30.453125 56.582031 C 30.210938 56.570312 30.210938 56.570312 30.082031 56.371094 " fill-opacity="1" fill-rule="nonzero"/><path fill="#496dbe" d="M 45.613281 57.078125 C 45.84375 57 46.078125 57.054688 46.3125 57.082031 C 46.082031 57.101562 45.847656 57.121094 45.621094 57.140625 C 45.621094 57.117188 45.617188 57.097656 45.613281 57.078125 " fill-opacity="1" fill-rule="nonzero"/><path fill="#496dbe" d="M 55.820312 57.070312 C 55.960938 56.964844 56.09375 56.976562 56.265625 57.054688 C 56.097656 57.1875 55.960938 57.121094 55.820312 57.070312 " fill-opacity="1" fill-rule="nonzero"/><path fill="#496dbe" d="M 40 55.761719 C 40.179688 55.707031 40.59375 55.703125 40.769531 55.785156 C 40.457031 55.871094 40.671875 55.890625 39.996094 55.757812 C 39.996094 55.757812 40 55.761719 40 55.761719 " fill-opacity="1" fill-rule="nonzero"/><path fill="#496dbe" d="M 43.242188 55.613281 C 43.050781 55.625 42.859375 55.636719 42.667969 55.648438 C 42.667969 55.625 42.667969 55.601562 42.667969 55.578125 C 42.855469 55.578125 43.046875 55.578125 43.242188 55.578125 C 43.242188 55.589844 43.242188 55.601562 43.242188 55.613281 " fill-opacity="1" fill-rule="nonzero"/><path fill="#496dbe" d="M 50.882812 57.308594 C 50.734375 57.261719 50.65625 57.234375 50.539062 57.195312 C 50.835938 56.96875 50.828125 57.175781 50.882812 57.308594 " fill-opacity="1" fill-rule="nonzero"/><path fill="#496dbe" d="M 30.40625 55.660156 C 30.398438 55.808594 30.390625 55.957031 30.386719 56.105469 C 30.363281 56.105469 30.34375 56.105469 30.328125 56.105469 C 30.328125 55.953125 30.328125 55.804688 30.328125 55.65625 C 30.351562 55.65625 30.378906 55.660156 30.40625 55.660156 " fill-opacity="1" fill-rule="nonzero"/><path fill="#496dbe" d="M 41.710938 55.714844 C 41.5625 55.722656 41.414062 55.730469 41.265625 55.738281 C 41.261719 55.714844 41.261719 55.6875 41.261719 55.660156 C 41.402344 55.597656 41.558594 55.679688 41.707031 55.65625 C 41.707031 55.675781 41.710938 55.695312 41.710938 55.714844 " fill-opacity="1" fill-rule="nonzero"/><path fill="#496dbe" d="M 49.265625 56.914062 C 49.355469 56.914062 49.445312 56.914062 49.535156 56.914062 C 49.535156 56.925781 49.535156 56.941406 49.535156 56.960938 C 49.445312 56.960938 49.359375 56.960938 49.265625 56.960938 C 49.265625 56.941406 49.265625 56.925781 49.265625 56.914062 " fill-opacity="1" fill-rule="nonzero"/><path fill="#496dbe" d="M 30.273438 55.441406 C 30.203125 55.449219 30.128906 55.457031 30.027344 55.46875 C 30.09375 55.308594 30.1875 55.371094 30.261719 55.375 C 30.265625 55.398438 30.269531 55.417969 30.273438 55.441406 " fill-opacity="1" fill-rule="nonzero"/><path fill="#496dbe" d="M 48.566406 61.234375 C 48.503906 61.277344 48.4375 61.316406 48.375 61.359375 C 48.363281 61.222656 48.417969 61.175781 48.566406 61.234375 " fill-opacity="1" fill-rule="nonzero"/></svg>