<svg xmlns="http://www.w3.org/2000/svg" xmlns:xlink="http://www.w3.org/1999/xlink" width="150" zoomAndPan="magnify" viewBox="0 0 112.5 112.499997" height="150" preserveAspectRatio="xMidYMid meet" version="1.0"><defs><clipPath id="id1"><path d="M 57 23.398438 L 69 23.398438 L 69 31 L 57 31 Z M 57 23.398438 " clip-rule="nonzero"/></clipPath><clipPath id="id2"><path d="M 77 62 L 95 62 L 95 89.398438 L 77 89.398438 Z M 77 62 " clip-rule="nonzero"/></clipPath><clipPath id="id3"><path d="M 78 84 L 82 84 L 82 89.398438 L 78 89.398438 Z M 78 84 " clip-rule="nonzero"/></clipPath><clipPath id="id4"><path d="M 82 85 L 86 85 L 86 89.398438 L 82 89.398438 Z M 82 85 " clip-rule="nonzero"/></clipPath><clipPath id="id5"><path d="M 57 23.398438 L 67 23.398438 L 67 28 L 57 28 Z M 57 23.398438 " clip-rule="nonzero"/></clipPath></defs><path fill="#c2ccdd" d="M 59.148438 31.632812 C 59.148438 31.632812 67.105469 26.886719 69.664062 27.980469 C 76.542969 30.921875 84.542969 50.144531 80.949219 55.117188 C 76.617188 61.101562 64.851562 50.398438 64.851562 50.398438 C 64.851562 50.398438 64.859375 41.988281 63.160156 36.828125 C 62.644531 35.269531 59.148438 31.632812 59.148438 31.632812 Z M 59.148438 31.632812 " fill-opacity="1" fill-rule="nonzero"/><path fill="#acb5c5" d="M 96.460938 56.414062 C 96.460938 56.414062 103.59375 63.234375 103.480469 67.300781 C 103.449219 68.472656 102.78125 71.9375 102.78125 71.9375 L 101.238281 71.234375 C 101.238281 71.234375 101.800781 68.296875 101.800781 67.300781 C 101.800781 63.792969 96.460938 59.417969 96.460938 59.417969 Z M 96.460938 56.414062 " fill-opacity="1" fill-rule="nonzero"/><path fill="#acb5c5" d="M 11.226562 40.867188 C 11.226562 40.867188 13.308594 41.144531 13.796875 40.644531 C 14.542969 39.882812 13.722656 36.449219 13.722656 36.449219 C 13.722656 36.449219 12.617188 37.410156 11.648438 38.46875 C 10.65625 39.550781 9.90625 40.644531 9.824219 40.644531 Z M 11.226562 40.867188 " fill-opacity="1" fill-rule="nonzero"/><path fill="#acb5c5" d="M 74.839844 59.417969 C 74.839844 59.417969 75.769531 73.207031 74.839844 77.675781 C 74.484375 79.398438 71.53125 82.449219 72.039062 84.132812 C 72.53125 85.765625 76.644531 86.695312 78.347656 86.699219 C 80.460938 86.707031 85.40625 85.535156 86.199219 83.574219 C 87.199219 81.085938 83.746094 75.71875 84.09375 73.058594 C 84.480469 70.152344 89.304688 62.542969 89.304688 62.542969 Z M 74.839844 59.417969 " fill-opacity="1" fill-rule="nonzero"/><path fill="#78737e" d="M 75.675781 86.300781 C 75.675781 86.300781 76.882812 83.089844 77.625 83.222656 C 78.382812 83.359375 78.347656 86.699219 78.347656 86.699219 C 78.347656 86.699219 77.144531 86.609375 76.824219 86.546875 C 76.542969 86.492188 75.675781 86.300781 75.675781 86.300781 Z M 75.675781 86.300781 " fill-opacity="0.498" fill-rule="nonzero"/><g clip-path="url(#id1)"><path fill="#c2ccdd" d="M 61.703125 23.539062 C 59.214844 23.539062 57.078125 27.839844 57.078125 27.839844 L 62.40625 30.507812 L 68.152344 28.261719 C 68.152344 28.261719 65.945312 23.539062 61.703125 23.539062 Z M 61.703125 23.539062 " fill-opacity="1" fill-rule="nonzero"/></g><path fill="#c2ccdd" d="M 59.8125 59.613281 C 59.8125 59.613281 50.628906 61.199219 48.316406 63.121094 C 45.054688 65.828125 39.824219 73.957031 40.464844 78.148438 C 40.695312 79.667969 43.390625 81.910156 44.808594 82.5 C 46.71875 83.292969 51.59375 83.941406 53.082031 82.5 C 55.304688 80.347656 54.601562 72.878906 57.078125 70.777344 C 58.863281 69.261719 65.503906 69.160156 65.503906 69.160156 Z M 59.8125 59.613281 " fill-opacity="1" fill-rule="nonzero"/><path fill="#c2ccdd" d="M 54.273438 60.980469 C 61.703125 76.570312 82.3125 73.058594 82.3125 73.058594 C 82.3125 73.058594 101.238281 70.953125 95.632812 51.433594 C 91.546875 37.222656 74.953125 39.355469 74.953125 39.355469 C 74.953125 39.355469 51.054688 54.226562 54.273438 60.980469 Z M 54.273438 60.980469 " fill-opacity="1" fill-rule="nonzero"/><g clip-path="url(#id2)"><path fill="#c2ccdd" d="M 80.488281 62.105469 C 80.488281 62.105469 81.417969 75.894531 80.488281 80.359375 C 80.128906 82.085938 77.175781 85.136719 77.683594 86.820312 C 78.175781 88.453125 82.292969 89.382812 83.992188 89.386719 C 86.105469 89.394531 91.054688 88.21875 91.84375 86.257812 C 92.847656 83.773438 89.390625 78.402344 89.742188 75.746094 C 90.125 72.835938 94.949219 65.226562 94.949219 65.226562 Z M 80.488281 62.105469 " fill-opacity="1" fill-rule="nonzero"/></g><path fill="#c2ccdd" d="M 74.953125 39.355469 C 74.039062 33.109375 60.628906 26.199219 53.292969 26.4375 C 38.589844 26.910156 39.597656 43.136719 33.523438 46.800781 C 30.960938 48.34375 24.390625 45.632812 21.886719 43.992188 C 20.144531 42.84375 16.460938 40.410156 15.578125 38.515625 C 15.253906 37.820312 15.425781 35.902344 14.738281 35.566406 C 14.09375 35.246094 12.878906 38.011719 12.191406 38.773438 C 11.496094 39.546875 8.792969 41.085938 9.128906 41.601562 C 9.582031 42.296875 10.625 41.558594 10.953125 41.882812 C 13 43.9375 15.171875 45.574219 19.855469 48.835938 C 27.816406 54.378906 38.429688 55.539062 38.429688 55.539062 C 38.429688 55.539062 38.753906 56.808594 39.9375 57.789062 C 41.921875 59.4375 44.636719 58.574219 44.636719 58.574219 C 44.636719 58.574219 49.839844 60.84375 55.253906 60.84375 C 65.445312 60.84375 76.007812 46.570312 74.949219 39.355469 Z M 74.953125 39.355469 " fill-opacity="1" fill-rule="nonzero"/><path fill="#acb5c5" d="M 57.078125 29.386719 C 57.078125 29.386719 65.03125 24.640625 67.59375 25.734375 C 74.472656 28.679688 82.472656 47.902344 78.875 52.871094 C 74.546875 58.855469 62.78125 48.15625 62.78125 48.15625 C 62.78125 48.15625 62.789062 39.746094 61.089844 34.582031 C 60.574219 33.023438 57.078125 29.386719 57.078125 29.386719 Z M 57.078125 29.386719 " fill-opacity="0.498" fill-rule="nonzero"/><path fill="#c2ccdd" d="M 100.09375 71.132812 C 100.09375 71.132812 98.296875 72.488281 98.015625 73.15625 C 97.417969 74.566406 98.015625 79.28125 98.015625 79.28125 C 98.015625 79.28125 102.886719 77.054688 103.519531 75.507812 C 103.886719 74.609375 102.78125 71.695312 102.78125 71.695312 L 101.238281 70.996094 Z M 100.09375 71.132812 " fill-opacity="1" fill-rule="nonzero"/><path fill="#c2ccdd" d="M 69.070312 29.949219 C 73.144531 30.808594 76.695312 37.625 77.628906 44.273438 C 78.546875 50.828125 73.957031 55.324219 73.957031 55.324219 C 73.957031 55.324219 78.371094 56.078125 80.070312 52.980469 C 81.191406 50.933594 81.136719 45.917969 80.640625 43.636719 C 79.691406 39.261719 77.148438 24.734375 65.445312 25.570312 C 63.417969 25.714844 58.4375 28.585938 57.308594 29.25 C 57.160156 29.335938 57.078125 29.386719 57.078125 29.386719 L 60.628906 33.691406 C 60.628906 33.691406 64.53125 28.988281 69.070312 29.949219 Z M 69.070312 29.949219 " fill-opacity="1" fill-rule="nonzero"/><path fill="#c2ccdd" d="M 69.070312 29.933594 C 73.144531 30.796875 77.082031 37.570312 77.628906 44.257812 C 78.976562 60.84375 62.777344 48.152344 62.777344 48.152344 C 62.777344 48.152344 72.761719 59.101562 80.070312 52.964844 C 81.855469 51.464844 81.136719 45.90625 80.640625 43.621094 C 79.691406 39.25 77.296875 25.246094 65.445312 25.558594 C 63.414062 25.609375 58.4375 28.570312 57.308594 29.234375 C 57.160156 29.324219 57.078125 29.371094 57.078125 29.371094 L 60.628906 33.675781 C 60.628906 33.675781 64.53125 28.976562 69.070312 29.933594 Z M 69.070312 29.933594 " fill-opacity="1" fill-rule="nonzero"/><path fill="#acb5c5" d="M 40.082031 55.480469 C 43.429688 55.617188 44.773438 53.8125 44.773438 53.8125 C 44.773438 53.8125 45.9375 56.957031 42.742188 57.285156 C 40.984375 57.464844 39.695312 55.464844 40.082031 55.480469 Z M 40.082031 55.480469 " fill-opacity="0.498" fill-rule="nonzero"/><path fill="#78737e" d="M 41.3125 79.742188 C 41.3125 79.742188 42.640625 76.632812 44.148438 77.429688 C 44.996094 77.878906 43.453125 81.707031 43.453125 81.707031 C 43.453125 81.707031 42.472656 80.929688 42.164062 80.648438 C 41.9375 80.4375 41.3125 79.742188 41.3125 79.742188 Z M 41.3125 79.742188 " fill-opacity="0.498" fill-rule="nonzero"/><path fill="#78737e" d="M 44.5 82.355469 C 44.5 82.355469 46.144531 78.316406 47.164062 78.507812 C 48.117188 78.691406 47.839844 83.222656 47.839844 83.222656 L 45.988281 82.878906 Z M 44.5 82.355469 " fill-opacity="0.498" fill-rule="nonzero"/><g clip-path="url(#id3)"><path fill="#78737e" d="M 78.175781 87.546875 C 78.175781 87.546875 79.894531 84.289062 80.855469 84.574219 C 81.839844 84.867188 81.492188 89.03125 81.492188 89.03125 C 81.492188 89.03125 80.054688 88.585938 79.585938 88.410156 C 79.082031 88.21875 78.175781 87.546875 78.175781 87.546875 Z M 78.175781 87.546875 " fill-opacity="0.498" fill-rule="nonzero"/></g><g clip-path="url(#id4)"><path fill="#78737e" d="M 84.433594 85.175781 C 83.296875 85.09375 82.25 89.191406 82.25 89.191406 C 82.25 89.191406 83.621094 89.386719 84.082031 89.386719 C 84.535156 89.386719 85.914062 89.191406 85.914062 89.191406 C 85.914062 89.191406 85.5 85.253906 84.433594 85.175781 Z M 84.433594 85.175781 " fill-opacity="0.498" fill-rule="nonzero"/></g><path fill="#ffffff" d="M 96.460938 56.414062 C 96.460938 56.414062 96.359375 56.527344 96.34375 56.800781 C 96.117188 60.09375 93.738281 64.015625 86.859375 74.855469 C 86.214844 75.875 89.5 82.082031 90.101562 84.570312 C 90.253906 85.207031 90.261719 87.765625 90.261719 87.765625 C 90.261719 87.765625 91.390625 87.183594 91.84375 86.257812 C 92.203125 85.53125 92.027344 84.621094 91.914062 84.089844 C 91.390625 81.5625 89.492188 77.886719 89.742188 75.746094 C 90.082031 72.832031 93.503906 68.035156 94.953125 65.226562 C 97.382812 60.519531 96.460938 56.414062 96.460938 56.414062 Z M 96.460938 56.414062 " fill-opacity="0.2" fill-rule="nonzero"/><path fill="#acb5c5" d="M 98.015625 79.277344 C 98.015625 79.277344 102.042969 77.445312 103.40625 75.71875 C 104.003906 74.960938 102.78125 71.695312 102.78125 71.695312 L 101.238281 70.996094 C 101.238281 70.996094 99.980469 71.257812 100.09375 71.558594 C 101.023438 74.050781 98.015625 79.277344 98.015625 79.277344 Z M 98.015625 79.277344 " fill-opacity="1" fill-rule="nonzero"/><path fill="#acb5c5" d="M 34.523438 49.894531 C 34.523438 49.894531 32.683594 47.347656 32.980469 47.046875 C 33.003906 47.023438 33.390625 46.878906 33.503906 46.8125 C 33.664062 46.71875 34.082031 46.414062 34.082031 46.414062 Z M 34.523438 49.894531 " fill-opacity="0.498" fill-rule="nonzero"/><path fill="#acb5c5" d="M 35.097656 45.421875 C 35.378906 46.15625 37.097656 48.152344 37.097656 48.152344 L 35.816406 44.449219 L 35.394531 45.050781 Z M 35.097656 45.421875 " fill-opacity="0.498" fill-rule="nonzero"/><path fill="#acb5c5" d="M 36.320312 43.636719 C 36.265625 43.980469 39.375 45.917969 39.375 45.917969 L 36.898438 42.558594 C 36.898438 42.558594 36.699219 42.953125 36.621094 43.097656 C 36.550781 43.226562 36.328125 43.589844 36.320312 43.636719 Z M 36.320312 43.636719 " fill-opacity="0.498" fill-rule="nonzero"/><path fill="#acb5c5" d="M 38.234375 55.519531 C 38.234375 55.519531 31.335938 54.828125 25.144531 51.796875 C 18.289062 48.445312 13.1875 43.863281 10.953125 41.886719 C 10.828125 41.773438 16.167969 46.6875 22.808594 50.003906 C 29.902344 53.550781 38.238281 55.519531 38.238281 55.519531 Z M 38.234375 55.519531 " fill-opacity="0.498" fill-rule="nonzero"/><path fill="#acb5c5" d="M 71.980469 66.945312 C 72.519531 68.46875 80.671875 67.570312 80.671875 67.570312 L 80.898438 73.234375 C 80.898438 73.234375 72.832031 73.9375 70.613281 72.578125 C 70.070312 72.242188 71.980469 66.945312 71.980469 66.945312 Z M 71.980469 66.945312 " fill-opacity="0.498" fill-rule="nonzero"/><path fill="#c2ccdd" d="M 59.882812 60.417969 C 58.703125 60.417969 55.253906 60.84375 55.253906 60.84375 C 55.253906 60.84375 57.023438 66.140625 58.5625 66.945312 C 60.410156 67.910156 67.933594 60.417969 59.882812 60.417969 Z M 59.882812 60.417969 " fill-opacity="1" fill-rule="nonzero"/><path fill="#acb5c5" d="M 60.097656 60.824219 C 58.917969 60.824219 55.46875 61.246094 55.46875 61.246094 C 55.46875 61.246094 57.238281 66.542969 58.773438 67.347656 C 60.621094 68.3125 68.144531 60.824219 60.097656 60.824219 Z M 60.097656 60.824219 " fill-opacity="0.498" fill-rule="nonzero"/><path fill="#78737e" d="M 72.863281 84.292969 C 72.863281 84.292969 74.390625 82.28125 75.007812 82.578125 C 75.675781 82.902344 74.84375 86.0625 74.84375 86.0625 C 74.84375 86.0625 73.761719 85.652344 73.433594 85.480469 C 73.179688 85.351562 72.519531 84.855469 72.519531 84.855469 " fill-opacity="0.498" fill-rule="nonzero"/><path fill="#ffffff" d="M 58.773438 67.347656 C 58.773438 67.347656 55.683594 67.183594 53.976562 69.03125 C 51.207031 72.027344 51.953125 83.363281 53.082031 82.5 C 55.011719 81.027344 54.675781 72.253906 57.304688 70.613281 C 59.070312 69.511719 65.503906 69.160156 65.503906 69.160156 Z M 58.773438 67.347656 " fill-opacity="0.2" fill-rule="nonzero"/><path fill="#c2ccdd" d="M 59.742188 63.085938 C 57.074219 67.894531 57.777344 84.996094 57.777344 84.996094 C 57.777344 84.996094 58.480469 88.644531 64.367188 88.644531 C 68.222656 88.644531 70.253906 86.257812 70.253906 86.257812 C 70.253906 86.257812 70.011719 78.453125 70.253906 75.867188 C 70.625 71.953125 73.199219 60.417969 73.199219 60.417969 L 66.890625 57.46875 C 66.890625 57.46875 61.84375 59.296875 59.742188 63.085938 Z M 59.742188 63.085938 " fill-opacity="1" fill-rule="nonzero"/><path fill="#ffffff" d="M 72.25 60.941406 C 69.898438 63.296875 67.882812 71.953125 67.578125 75.84375 C 67.242188 80.152344 68.332031 83.355469 69.339844 85.273438 C 69.648438 85.859375 70.253906 86.257812 70.253906 86.257812 C 70.253906 86.257812 69.957031 78.4375 70.253906 75.867188 C 70.710938 71.960938 73.472656 60.519531 73.472656 60.519531 C 73.472656 60.519531 72.671875 60.519531 72.25 60.941406 Z M 72.25 60.941406 " fill-opacity="0.2" fill-rule="nonzero"/><path fill="#78737e" d="M 61.953125 88.402344 C 61.953125 88.402344 63.121094 84.5 64.074219 84.582031 C 65.015625 84.667969 65.25 88.601562 65.25 88.601562 C 65.25 88.601562 63.992188 88.648438 63.574219 88.625 C 63.167969 88.597656 61.953125 88.402344 61.953125 88.402344 Z M 61.953125 88.402344 " fill-opacity="0.498" fill-rule="nonzero"/><path fill="#78737e" d="M 60.628906 83.257812 C 59.816406 82.886719 58.085938 85.777344 58.085938 85.777344 C 58.085938 85.777344 58.65625 86.707031 59.109375 87.050781 C 59.660156 87.46875 60.726562 88.027344 60.726562 88.027344 C 60.726562 88.027344 61.675781 83.734375 60.628906 83.257812 Z M 60.628906 83.257812 " fill-opacity="0.498" fill-rule="nonzero"/><path fill="#ffffff" d="M 53.367188 41.785156 C 53.367188 42.144531 53.335938 42.503906 53.273438 42.859375 C 53.210938 43.214844 53.117188 43.558594 52.996094 43.890625 C 52.875 44.226562 52.722656 44.542969 52.546875 44.84375 C 52.367188 45.144531 52.164062 45.421875 51.9375 45.679688 C 51.710938 45.933594 51.464844 46.164062 51.199219 46.363281 C 50.933594 46.566406 50.652344 46.734375 50.355469 46.875 C 50.058594 47.011719 49.753906 47.117188 49.441406 47.1875 C 49.128906 47.257812 48.808594 47.292969 48.488281 47.292969 C 48.167969 47.292969 47.851562 47.257812 47.539062 47.1875 C 47.222656 47.117188 46.917969 47.011719 46.625 46.875 C 46.328125 46.734375 46.046875 46.566406 45.78125 46.363281 C 45.511719 46.164062 45.265625 45.933594 45.039062 45.679688 C 44.8125 45.421875 44.613281 45.144531 44.433594 44.84375 C 44.257812 44.542969 44.105469 44.226562 43.984375 43.890625 C 43.859375 43.558594 43.769531 43.214844 43.707031 42.859375 C 43.644531 42.503906 43.613281 42.144531 43.613281 41.785156 C 43.613281 41.421875 43.644531 41.0625 43.707031 40.707031 C 43.769531 40.355469 43.859375 40.007812 43.984375 39.675781 C 44.105469 39.339844 44.257812 39.023438 44.433594 38.722656 C 44.613281 38.421875 44.8125 38.144531 45.039062 37.886719 C 45.265625 37.632812 45.511719 37.402344 45.78125 37.203125 C 46.046875 37.003906 46.328125 36.832031 46.625 36.695312 C 46.917969 36.554688 47.222656 36.453125 47.539062 36.378906 C 47.851562 36.308594 48.167969 36.273438 48.488281 36.273438 C 48.808594 36.273438 49.128906 36.308594 49.441406 36.378906 C 49.753906 36.453125 50.058594 36.554688 50.355469 36.695312 C 50.652344 36.832031 50.933594 37.003906 51.199219 37.203125 C 51.464844 37.402344 51.710938 37.632812 51.9375 37.886719 C 52.164062 38.144531 52.367188 38.421875 52.546875 38.722656 C 52.722656 39.023438 52.875 39.339844 52.996094 39.675781 C 53.117188 40.007812 53.210938 40.355469 53.273438 40.707031 C 53.335938 41.0625 53.367188 41.421875 53.367188 41.785156 Z M 53.367188 41.785156 " fill-opacity="0.2" fill-rule="nonzero"/><path fill="#ffffff" d="M 51.796875 42.03125 C 51.796875 42.546875 51.703125 43.042969 51.519531 43.519531 C 51.332031 43.996094 51.070312 44.414062 50.726562 44.78125 C 50.382812 45.144531 49.988281 45.425781 49.539062 45.625 C 49.09375 45.820312 48.625 45.917969 48.140625 45.917969 C 47.65625 45.917969 47.191406 45.820312 46.742188 45.625 C 46.292969 45.425781 45.898438 45.144531 45.554688 44.78125 C 45.214844 44.414062 44.949219 43.996094 44.765625 43.519531 C 44.578125 43.042969 44.484375 42.546875 44.484375 42.03125 C 44.484375 41.515625 44.578125 41.019531 44.765625 40.542969 C 44.949219 40.066406 45.214844 39.644531 45.554688 39.28125 C 45.898438 38.917969 46.292969 38.636719 46.742188 38.4375 C 47.191406 38.242188 47.65625 38.140625 48.140625 38.140625 C 48.625 38.140625 49.09375 38.242188 49.539062 38.4375 C 49.988281 38.636719 50.382812 38.917969 50.726562 39.28125 C 51.070312 39.644531 51.332031 40.066406 51.519531 40.542969 C 51.703125 41.019531 51.796875 41.515625 51.796875 42.03125 Z M 51.796875 42.03125 " fill-opacity="1" fill-rule="nonzero"/><path fill="#cce3c3" d="M 51 42.375 C 51 40.644531 49.664062 39.242188 48.019531 39.242188 C 46.371094 39.242188 45.039062 40.644531 45.039062 42.375 C 45.039062 44.105469 46.371094 45.507812 48.019531 45.507812 C 49.664062 45.507812 51 44.105469 51 42.375 Z M 51 42.375 " fill-opacity="1" fill-rule="nonzero"/><path fill="#231f20" d="M 49.960938 42.757812 C 49.960938 43.050781 49.910156 43.335938 49.808594 43.605469 C 49.707031 43.878906 49.5625 44.117188 49.375 44.324219 C 49.1875 44.53125 48.972656 44.691406 48.730469 44.804688 C 48.484375 44.917969 48.230469 44.972656 47.964844 44.972656 C 47.703125 44.972656 47.449219 44.917969 47.203125 44.804688 C 46.960938 44.691406 46.746094 44.53125 46.558594 44.324219 C 46.371094 44.117188 46.226562 43.878906 46.125 43.605469 C 46.023438 43.335938 45.972656 43.050781 45.972656 42.757812 C 45.972656 42.464844 46.023438 42.183594 46.125 41.910156 C 46.226562 41.636719 46.371094 41.398438 46.558594 41.191406 C 46.746094 40.984375 46.960938 40.824219 47.203125 40.710938 C 47.449219 40.597656 47.703125 40.542969 47.964844 40.542969 C 48.230469 40.542969 48.484375 40.597656 48.730469 40.710938 C 48.972656 40.824219 49.1875 40.984375 49.375 41.191406 C 49.5625 41.398438 49.707031 41.636719 49.808594 41.910156 C 49.910156 42.183594 49.960938 42.464844 49.960938 42.757812 Z M 49.960938 42.757812 " fill-opacity="1" fill-rule="nonzero"/><path fill="#ffffff" d="M 50.929688 42.757812 C 50.929688 42.128906 50.496094 41.621094 49.960938 41.621094 C 49.425781 41.621094 48.988281 42.128906 48.988281 42.757812 C 48.988281 43.386719 49.425781 43.894531 49.960938 43.894531 C 50.496094 43.894531 50.929688 43.386719 50.929688 42.757812 Z M 50.929688 42.757812 " fill-opacity="1" fill-rule="nonzero"/><path fill="#acb5c5" d="M 45.976562 52.882812 C 46.066406 52.792969 46.070312 53.308594 45.976562 53.394531 C 43.613281 55.652344 38.5 55.882812 38.5 55.882812 L 38.433594 55.542969 C 38.433594 55.542969 43.9375 54.921875 45.976562 52.882812 Z M 45.976562 52.882812 " fill-opacity="1" fill-rule="nonzero"/><path fill="#acb5c5" d="M 43.832031 57.425781 C 45.9375 56.8125 45.164062 54.03125 45.164062 54.03125 L 44.664062 54.261719 C 44.664062 54.261719 45.21875 56.550781 43.773438 57.007812 C 41.664062 57.671875 40.15625 55.703125 40.15625 55.703125 L 39.570312 55.769531 C 39.570312 55.769531 41.25 58.179688 43.832031 57.425781 Z M 43.832031 57.425781 " fill-opacity="1" fill-rule="nonzero"/><path fill="#acb5c5" d="M 45.460938 52.386719 C 45.78125 52.707031 46.175781 54.132812 46.175781 54.132812 L 46.417969 54.03125 C 46.417969 54.03125 46.175781 52.488281 45.753906 52.285156 C 45.683594 52.253906 45.40625 52.332031 45.460938 52.386719 Z M 45.460938 52.386719 " fill-opacity="1" fill-rule="nonzero"/><path fill="#ffffff" d="M 57.761719 30.160156 C 57.761719 30.160156 63.472656 25.285156 68.46875 26.5625 C 80.445312 29.621094 82.65625 53.359375 76.066406 54.832031 C 72.5625 55.613281 62.660156 51.007812 62.660156 51.007812 L 62.660156 52.871094 C 62.660156 52.871094 72 57.855469 76.453125 57.253906 C 85.757812 55.996094 80.378906 26.828125 68.152344 25.648438 C 62.125 25.066406 57.121094 29.386719 57.121094 29.386719 Z M 57.761719 30.160156 " fill-opacity="0.2" fill-rule="nonzero"/><g clip-path="url(#id5)"><path fill="#ffffff" d="M 57.597656 26.925781 L 58.207031 27.078125 C 58.207031 27.078125 60.226562 23.984375 61.882812 23.984375 C 64.175781 23.984375 65.503906 25.613281 65.503906 25.613281 L 66.167969 25.535156 C 66.167969 25.535156 64.015625 23.394531 61.527344 23.546875 C 59.523438 23.667969 57.597656 26.925781 57.597656 26.925781 Z M 57.597656 26.925781 " fill-opacity="0.2" fill-rule="nonzero"/></g></svg>