<svg xmlns="http://www.w3.org/2000/svg" xmlns:xlink="http://www.w3.org/1999/xlink" width="150" zoomAndPan="magnify" viewBox="0 0 112.5 112.499997" height="150" preserveAspectRatio="xMidYMid meet" version="1.0"><defs><clipPath id="id1"><path d="M 49 41 L 92 41 L 92 70.511719 L 49 70.511719 Z M 49 41 " clip-rule="nonzero"/></clipPath><clipPath id="id2"><path d="M 45.121094 41 L 54 41 L 54 50 L 45.121094 50 Z M 45.121094 41 " clip-rule="nonzero"/></clipPath><clipPath id="id3"><path d="M 84 22 L 94.621094 22 L 94.621094 32 L 84 32 Z M 84 22 " clip-rule="nonzero"/></clipPath><clipPath id="id4"><path d="M 18.546875 36.089844 L 57.976562 36.089844 L 57.976562 85.792969 L 18.546875 85.792969 Z M 18.546875 36.089844 " clip-rule="nonzero"/></clipPath><clipPath id="id5"><path d="M 17.535156 45 L 57 45 L 57 90.917969 L 17.535156 90.917969 Z M 17.535156 45 " clip-rule="nonzero"/></clipPath><clipPath id="id6"><path d="M 19.808594 51 L 51.957031 51 L 51.957031 90.910156 L 19.808594 90.910156 Z M 19.808594 51 " clip-rule="nonzero"/></clipPath></defs><g clip-path="url(#id1)"><path fill="#eadeb9" d="M 91.96875 56.007812 C 92.296875 45.066406 89.292969 41.824219 89.292969 41.824219 C 89.292969 41.824219 60.695312 38.957031 53.539062 44.125 C 48.40625 47.824219 49.6875 53.828125 49.6875 56.425781 L 49.6875 66 C 49.6875 69.105469 50.320312 70.511719 51.949219 70.511719 C 53.578125 70.511719 54.625 66.515625 54.625 66.515625 L 55.898438 62.160156 C 56.035156 62.160156 56.171875 62.160156 56.320312 62.160156 L 57.25 65.988281 C 57.882812 69.054688 58.867188 70.503906 60.230469 70.433594 C 61.851562 70.335938 62.53125 69.09375 62.53125 65.988281 L 62.53125 62.160156 C 64.523438 63.09375 67.328125 63.667969 70.449219 63.667969 C 73.191406 63.667969 75.699219 63.210938 77.617188 62.46875 L 78.097656 65.929688 C 78.671875 68.945312 79.351562 70.503906 80.980469 70.503906 C 82.789062 70.503906 82.859375 69.046875 83.488281 65.988281 L 83.882812 61.058594 C 84.546875 61.007812 85.660156 60.355469 85.660156 60.355469 L 86.332031 64.332031 C 86.332031 64.332031 87.417969 69.917969 89.039062 70.085938 C 90.980469 70.273438 91.632812 68.679688 91.632812 65.574219 C 91.625 65.582031 91.710938 64.53125 91.96875 56.007812 Z M 91.96875 56.007812 " fill-opacity="1" fill-rule="nonzero"/></g><path fill="#eadeb9" d="M 91.445312 31.683594 C 91.0625 28.984375 90.882812 26.953125 89.492188 24.820312 C 87.507812 21.761719 81.03125 22.796875 76.300781 23.480469 C 72.738281 23.984375 67.496094 24.988281 65.265625 26.824219 C 62.796875 28.847656 63.527344 31.84375 64.070312 35.621094 C 64.632812 39.5625 65.53125 43.183594 67.851562 45.296875 C 69.777344 47.050781 72.355469 47.734375 79.609375 46.695312 C 86.867188 45.652344 88.957031 44.660156 90.3125 42.417969 C 91.949219 39.75 92 35.601562 91.445312 31.683594 Z M 91.445312 31.683594 " fill-opacity="1" fill-rule="nonzero"/><g clip-path="url(#id2)"><path fill="#eadeb9" d="M 53.960938 45.511719 C 53.960938 45.804688 53.933594 46.089844 53.878906 46.375 C 53.820312 46.660156 53.738281 46.9375 53.628906 47.207031 C 53.515625 47.476562 53.378906 47.730469 53.21875 47.972656 C 53.058594 48.214844 52.878906 48.4375 52.671875 48.640625 C 52.46875 48.847656 52.246094 49.03125 52.003906 49.191406 C 51.765625 49.355469 51.511719 49.488281 51.246094 49.601562 C 50.976562 49.710938 50.703125 49.796875 50.417969 49.851562 C 50.136719 49.910156 49.847656 49.9375 49.558594 49.9375 C 49.269531 49.9375 48.984375 49.910156 48.699219 49.851562 C 48.417969 49.796875 48.140625 49.710938 47.875 49.601562 C 47.605469 49.488281 47.355469 49.355469 47.113281 49.191406 C 46.871094 49.03125 46.652344 48.847656 46.445312 48.640625 C 46.242188 48.4375 46.058594 48.214844 45.898438 47.972656 C 45.738281 47.730469 45.601562 47.476562 45.492188 47.207031 C 45.382812 46.9375 45.296875 46.660156 45.242188 46.375 C 45.183594 46.089844 45.15625 45.804688 45.15625 45.511719 C 45.15625 45.222656 45.183594 44.933594 45.242188 44.648438 C 45.296875 44.363281 45.382812 44.089844 45.492188 43.820312 C 45.601562 43.550781 45.738281 43.296875 45.898438 43.054688 C 46.058594 42.8125 46.242188 42.589844 46.445312 42.382812 C 46.652344 42.179688 46.871094 41.996094 47.113281 41.835938 C 47.355469 41.671875 47.605469 41.535156 47.875 41.425781 C 48.140625 41.3125 48.417969 41.230469 48.699219 41.171875 C 48.984375 41.117188 49.269531 41.089844 49.558594 41.089844 C 49.847656 41.089844 50.136719 41.117188 50.417969 41.171875 C 50.703125 41.230469 50.976562 41.3125 51.246094 41.425781 C 51.511719 41.535156 51.765625 41.671875 52.003906 41.835938 C 52.246094 41.996094 52.46875 42.179688 52.671875 42.382812 C 52.878906 42.589844 53.058594 42.8125 53.21875 43.054688 C 53.378906 43.296875 53.515625 43.550781 53.628906 43.820312 C 53.738281 44.089844 53.820312 44.363281 53.878906 44.648438 C 53.933594 44.933594 53.960938 45.222656 53.960938 45.511719 Z M 53.960938 45.511719 " fill-opacity="1" fill-rule="nonzero"/></g><path fill="#605649" d="M 79.371094 45.683594 C 86.046875 44.71875 90.164062 43.488281 90.320312 40.136719 C 90.46875 36.773438 83.441406 31.574219 77.476562 32.4375 C 71.515625 33.300781 66.597656 39.074219 67.46875 42.925781 C 68.34375 46.761719 72.699219 46.644531 79.371094 45.683594 Z M 79.371094 45.683594 " fill-opacity="1" fill-rule="nonzero"/><path fill="#605649" d="M 88.355469 31.980469 C 88.355469 32.394531 88.277344 32.789062 88.121094 33.167969 C 87.964844 33.550781 87.742188 33.886719 87.449219 34.175781 C 87.160156 34.46875 86.828125 34.691406 86.449219 34.851562 C 86.070312 35.007812 85.675781 35.085938 85.265625 35.085938 C 84.855469 35.085938 84.460938 35.007812 84.082031 34.851562 C 83.707031 34.691406 83.371094 34.46875 83.082031 34.175781 C 82.792969 33.886719 82.566406 33.550781 82.410156 33.167969 C 82.253906 32.789062 82.175781 32.394531 82.175781 31.980469 C 82.175781 31.570312 82.253906 31.171875 82.410156 30.792969 C 82.566406 30.414062 82.792969 30.078125 83.082031 29.785156 C 83.371094 29.496094 83.707031 29.269531 84.082031 29.113281 C 84.460938 28.957031 84.855469 28.875 85.265625 28.875 C 85.675781 28.875 86.070312 28.957031 86.449219 29.113281 C 86.828125 29.269531 87.160156 29.496094 87.449219 29.785156 C 87.742188 30.078125 87.964844 30.414062 88.121094 30.792969 C 88.277344 31.171875 88.355469 31.570312 88.355469 31.980469 Z M 88.355469 31.980469 " fill-opacity="1" fill-rule="nonzero"/><path fill="#605649" d="M 72.375 34.710938 C 72.375 35.121094 72.296875 35.515625 72.136719 35.898438 C 71.980469 36.277344 71.757812 36.613281 71.46875 36.90625 C 71.179688 37.195312 70.84375 37.421875 70.464844 37.578125 C 70.085938 37.734375 69.691406 37.816406 69.285156 37.816406 C 68.875 37.816406 68.480469 37.734375 68.101562 37.578125 C 67.722656 37.421875 67.386719 37.195312 67.097656 36.90625 C 66.808594 36.613281 66.585938 36.277344 66.429688 35.898438 C 66.273438 35.515625 66.195312 35.121094 66.195312 34.710938 C 66.195312 34.296875 66.273438 33.902344 66.429688 33.519531 C 66.585938 33.140625 66.808594 32.804688 67.097656 32.515625 C 67.386719 32.222656 67.722656 32 68.101562 31.839844 C 68.480469 31.683594 68.875 31.605469 69.285156 31.605469 C 69.691406 31.605469 70.085938 31.683594 70.464844 31.839844 C 70.84375 32 71.179688 32.222656 71.46875 32.515625 C 71.757812 32.804688 71.980469 33.140625 72.136719 33.519531 C 72.296875 33.902344 72.375 34.296875 72.375 34.710938 Z M 72.375 34.710938 " fill-opacity="1" fill-rule="nonzero"/><path fill="#605649" d="M 67.386719 25.632812 L 64.148438 36.007812 C 64.148438 36.007812 58.691406 31.355469 58.976562 30.105469 C 59.261719 28.855469 67.386719 25.632812 67.386719 25.632812 Z M 67.386719 25.632812 " fill-opacity="1" fill-rule="nonzero"/><g clip-path="url(#id3)"><path fill="#605649" d="M 84.613281 22.6875 L 90.636719 31.734375 C 90.636719 31.734375 94.585938 25.710938 93.953125 24.609375 C 93.300781 23.5 84.613281 22.6875 84.613281 22.6875 Z M 84.613281 22.6875 " fill-opacity="1" fill-rule="nonzero"/></g><path fill="#352e27" d="M 77.722656 34.175781 C 76.933594 34.28125 75.808594 32.625 75.808594 32.625 C 75.777344 32.449219 75.96875 32.277344 76.203125 32.25 L 78.632812 31.902344 C 78.878906 31.863281 79.097656 31.980469 79.117188 32.148438 C 79.117188 32.140625 78.515625 34.054688 77.722656 34.175781 Z M 77.722656 34.175781 " fill-opacity="1" fill-rule="nonzero"/><path fill="#ad2533" d="M 77.101562 40.402344 L 77.378906 42.367188 C 77.476562 43.03125 78.207031 43.46875 79.027344 43.359375 C 79.847656 43.242188 80.429688 42.605469 80.332031 41.941406 L 80.054688 39.976562 Z M 77.101562 40.402344 " fill-opacity="1" fill-rule="nonzero"/><path stroke-linecap="butt" transform="matrix(0.0987194, 0, 0, 0.0992063, 45.146624, 22.050953)" fill="none" stroke-linejoin="miter" d="M 328.997001 114.815774 L 339.008018 184.509526 " stroke="#352e27" stroke-width="5" stroke-opacity="1" stroke-miterlimit="10"/><path stroke-linecap="butt" transform="matrix(0.0987194, 0, 0, 0.0992063, 45.146624, 22.050953)" fill="none" stroke-linejoin="miter" d="M 298.48912 158.0889 C 298.48912 158.0889 310.39946 188.486401 339.997249 184.194526 C 369.713746 179.902651 372.483592 147.418275 372.483592 147.418275 " stroke="#352e27" stroke-width="5" stroke-opacity="1" stroke-miterlimit="10"/><path fill="#352e27" d="M 71.484375 34.800781 C 71.484375 35.089844 71.429688 35.371094 71.320312 35.636719 C 71.207031 35.90625 71.050781 36.144531 70.847656 36.347656 C 70.640625 36.554688 70.40625 36.714844 70.136719 36.824219 C 69.871094 36.9375 69.59375 36.992188 69.304688 36.992188 C 69.015625 36.992188 68.734375 36.9375 68.46875 36.824219 C 68.199219 36.714844 67.964844 36.554688 67.761719 36.347656 C 67.554688 36.144531 67.398438 35.90625 67.289062 35.636719 C 67.175781 35.371094 67.121094 35.089844 67.121094 34.800781 C 67.121094 34.507812 67.175781 34.230469 67.289062 33.960938 C 67.398438 33.691406 67.554688 33.453125 67.761719 33.25 C 67.964844 33.042969 68.199219 32.882812 68.46875 32.773438 C 68.734375 32.664062 69.015625 32.605469 69.304688 32.605469 C 69.59375 32.605469 69.871094 32.664062 70.136719 32.773438 C 70.40625 32.882812 70.640625 33.042969 70.847656 33.25 C 71.050781 33.453125 71.207031 33.691406 71.320312 33.960938 C 71.429688 34.230469 71.484375 34.507812 71.484375 34.800781 Z M 71.484375 34.800781 " fill-opacity="1" fill-rule="nonzero"/><path fill="#352e27" d="M 87.410156 31.683594 C 87.410156 31.976562 87.351562 32.253906 87.242188 32.523438 C 87.132812 32.792969 86.972656 33.027344 86.769531 33.234375 C 86.566406 33.441406 86.328125 33.597656 86.0625 33.710938 C 85.792969 33.820312 85.515625 33.875 85.226562 33.875 C 84.9375 33.875 84.660156 33.820312 84.390625 33.710938 C 84.125 33.597656 83.886719 33.441406 83.683594 33.234375 C 83.480469 33.027344 83.320312 32.792969 83.210938 32.523438 C 83.101562 32.253906 83.046875 31.976562 83.046875 31.683594 C 83.046875 31.394531 83.101562 31.113281 83.210938 30.84375 C 83.320312 30.578125 83.480469 30.339844 83.683594 30.132812 C 83.886719 29.929688 84.125 29.769531 84.390625 29.660156 C 84.660156 29.546875 84.9375 29.492188 85.226562 29.492188 C 85.515625 29.492188 85.792969 29.546875 86.0625 29.660156 C 86.328125 29.769531 86.566406 29.929688 86.769531 30.132812 C 86.972656 30.339844 87.132812 30.578125 87.242188 30.84375 C 87.351562 31.113281 87.410156 31.394531 87.410156 31.683594 Z M 87.410156 31.683594 " fill-opacity="1" fill-rule="nonzero"/><path fill="#ffffff" d="M 70.25 34.164062 C 70.25 34.417969 70.160156 34.636719 69.980469 34.816406 C 69.804688 34.996094 69.585938 35.085938 69.332031 35.085938 C 69.078125 35.085938 68.863281 34.996094 68.683594 34.816406 C 68.503906 34.636719 68.414062 34.417969 68.414062 34.164062 C 68.414062 33.910156 68.503906 33.691406 68.683594 33.511719 C 68.863281 33.332031 69.078125 33.242188 69.332031 33.242188 C 69.585938 33.242188 69.804688 33.332031 69.980469 33.511719 C 70.160156 33.691406 70.25 33.910156 70.25 34.164062 Z M 70.25 34.164062 " fill-opacity="1" fill-rule="nonzero"/><path fill="#ffffff" d="M 86.183594 31.050781 C 86.183594 31.304688 86.09375 31.519531 85.914062 31.703125 C 85.734375 31.882812 85.519531 31.972656 85.265625 31.972656 C 85.011719 31.972656 84.796875 31.882812 84.617188 31.703125 C 84.4375 31.519531 84.347656 31.304688 84.347656 31.050781 C 84.347656 30.792969 84.4375 30.578125 84.617188 30.398438 C 84.796875 30.214844 85.011719 30.125 85.265625 30.125 C 85.519531 30.125 85.734375 30.214844 85.914062 30.398438 C 86.09375 30.578125 86.183594 30.792969 86.183594 31.050781 Z M 86.183594 31.050781 " fill-opacity="1" fill-rule="nonzero"/><path fill="#352e27" d="M 55.898438 62.179688 C 55.898438 62.179688 55.925781 62.171875 55.976562 62.140625 C 56.027344 62.109375 56.09375 62.070312 56.183594 62.019531 C 56.273438 61.972656 56.371094 61.902344 56.488281 61.832031 C 56.609375 61.753906 56.734375 61.675781 56.875 61.574219 C 57.011719 61.476562 57.152344 61.367188 57.300781 61.238281 C 57.445312 61.117188 57.585938 60.980469 57.734375 60.832031 C 57.871094 60.683594 58.007812 60.523438 58.136719 60.34375 C 58.207031 60.265625 58.257812 60.167969 58.316406 60.078125 C 58.363281 59.988281 58.425781 59.898438 58.472656 59.800781 L 58.542969 59.660156 L 58.601562 59.511719 C 58.652344 59.410156 58.679688 59.3125 58.71875 59.214844 C 58.742188 59.164062 58.75 59.113281 58.769531 59.066406 C 58.789062 59.015625 58.800781 58.964844 58.820312 58.917969 C 58.847656 58.816406 58.867188 58.71875 58.886719 58.617188 C 58.90625 58.519531 58.917969 58.421875 58.9375 58.320312 C 58.957031 58.222656 58.957031 58.121094 58.96875 58.03125 C 58.976562 57.933594 58.976562 57.84375 58.988281 57.753906 C 58.996094 57.667969 58.996094 57.578125 58.996094 57.488281 C 58.996094 57.320312 58.996094 57.160156 58.996094 57.019531 C 58.988281 56.882812 58.996094 56.753906 58.976562 56.652344 C 58.96875 56.554688 58.96875 56.476562 58.96875 56.417969 C 58.96875 56.355469 58.96875 56.328125 58.96875 56.328125 C 58.96875 56.328125 58.976562 56.355469 59.007812 56.40625 C 59.027344 56.457031 59.066406 56.535156 59.105469 56.625 C 59.144531 56.722656 59.183594 56.84375 59.234375 56.980469 C 59.253906 57.050781 59.285156 57.121094 59.304688 57.199219 C 59.324219 57.277344 59.34375 57.367188 59.363281 57.449219 C 59.382812 57.535156 59.390625 57.625 59.410156 57.726562 C 59.421875 57.824219 59.441406 57.925781 59.441406 58.023438 C 59.441406 58.132812 59.449219 58.230469 59.449219 58.339844 C 59.449219 58.449219 59.441406 58.570312 59.429688 58.679688 C 59.410156 58.796875 59.402344 58.90625 59.382812 59.023438 C 59.351562 59.144531 59.332031 59.261719 59.292969 59.382812 C 59.253906 59.5 59.222656 59.621094 59.175781 59.730469 L 59.105469 59.898438 L 59.027344 60.066406 C 58.976562 60.175781 58.898438 60.285156 58.839844 60.394531 C 58.808594 60.445312 58.769531 60.492188 58.730469 60.542969 C 58.691406 60.59375 58.660156 60.640625 58.621094 60.691406 C 58.582031 60.742188 58.542969 60.78125 58.503906 60.832031 C 58.464844 60.878906 58.425781 60.921875 58.375 60.960938 C 58.296875 61.050781 58.207031 61.128906 58.117188 61.199219 C 57.941406 61.347656 57.761719 61.476562 57.585938 61.585938 C 57.40625 61.695312 57.230469 61.78125 57.082031 61.851562 C 56.757812 62 56.460938 62.070312 56.261719 62.121094 C 56.015625 62.171875 55.898438 62.179688 55.898438 62.179688 Z M 55.898438 62.179688 " fill-opacity="0.298" fill-rule="nonzero"/><path fill="#352e27" d="M 52.351562 44.957031 C 52.292969 44.976562 52.214844 44.988281 52.125 45.015625 C 52.039062 45.046875 51.949219 45.097656 51.851562 45.144531 C 51.800781 45.175781 51.742188 45.195312 51.691406 45.226562 C 51.640625 45.253906 51.59375 45.296875 51.535156 45.335938 C 51.484375 45.375 51.425781 45.414062 51.367188 45.453125 C 51.316406 45.503906 51.265625 45.554688 51.207031 45.601562 C 51.160156 45.652344 51.097656 45.703125 51.050781 45.761719 C 51 45.820312 50.960938 45.878906 50.910156 45.941406 C 50.8125 46.058594 50.742188 46.1875 50.65625 46.316406 C 50.578125 46.445312 50.515625 46.59375 50.457031 46.722656 C 50.410156 46.851562 50.367188 46.980469 50.328125 47.109375 C 50.191406 47.140625 50.035156 47.171875 49.855469 47.191406 C 49.570312 47.210938 49.242188 47.191406 48.917969 47.101562 C 48.582031 47.011719 48.246094 46.832031 47.949219 46.59375 C 47.644531 46.347656 47.386719 46.007812 47.230469 45.621094 C 47.0625 45.234375 47.011719 44.800781 47.121094 44.390625 C 47.171875 44.195312 47.269531 43.984375 47.386719 43.808594 C 47.507812 43.617188 47.652344 43.460938 47.820312 43.332031 C 48.15625 43.0625 48.582031 42.902344 49.007812 42.914062 C 49.429688 42.925781 49.835938 43.082031 50.140625 43.351562 C 50.179688 43.390625 50.210938 43.410156 50.25 43.449219 L 50.308594 43.507812 L 50.320312 43.527344 C 50.320312 43.519531 50.320312 43.539062 50.328125 43.539062 L 50.347656 43.570312 C 50.398438 43.636719 50.4375 43.71875 50.46875 43.808594 C 50.527344 43.976562 50.527344 44.164062 50.476562 44.34375 C 50.398438 44.699219 50.140625 44.976562 49.855469 45.125 C 49.707031 45.195312 49.550781 45.246094 49.402344 45.265625 C 49.363281 45.265625 49.332031 45.273438 49.292969 45.273438 C 49.253906 45.273438 49.214844 45.273438 49.175781 45.273438 C 49.105469 45.273438 49.035156 45.273438 48.96875 45.253906 C 48.699219 45.214844 48.492188 45.058594 48.363281 44.898438 C 48.238281 44.738281 48.167969 44.582031 48.128906 44.480469 C 48.089844 44.371094 48.078125 44.3125 48.078125 44.3125 C 48.078125 44.3125 48.078125 44.371094 48.097656 44.492188 C 48.117188 44.601562 48.15625 44.769531 48.277344 44.957031 C 48.335938 45.046875 48.414062 45.144531 48.523438 45.234375 C 48.632812 45.324219 48.769531 45.394531 48.917969 45.433594 C 48.996094 45.453125 49.074219 45.472656 49.164062 45.484375 C 49.203125 45.484375 49.242188 45.492188 49.28125 45.492188 C 49.324219 45.492188 49.371094 45.492188 49.410156 45.492188 C 49.589844 45.484375 49.777344 45.453125 49.964844 45.375 C 50.152344 45.304688 50.328125 45.1875 50.488281 45.027344 C 50.636719 44.867188 50.753906 44.660156 50.824219 44.433594 C 50.890625 44.203125 50.910156 43.945312 50.84375 43.699219 C 50.8125 43.570312 50.753906 43.449219 50.675781 43.332031 L 50.644531 43.292969 C 50.636719 43.28125 50.636719 43.28125 50.625 43.261719 L 50.617188 43.242188 L 50.566406 43.171875 C 50.527344 43.132812 50.476562 43.074219 50.4375 43.03125 C 50.074219 42.6875 49.558594 42.457031 49.035156 42.449219 C 48.503906 42.429688 47.960938 42.617188 47.554688 42.945312 C 47.347656 43.113281 47.171875 43.320312 47.023438 43.539062 C 46.882812 43.765625 46.765625 43.996094 46.695312 44.261719 C 46.566406 44.789062 46.667969 45.335938 46.875 45.761719 C 47.082031 46.207031 47.40625 46.574219 47.761719 46.832031 C 48.117188 47.101562 48.511719 47.257812 48.886719 47.328125 C 49.261719 47.40625 49.617188 47.386719 49.914062 47.339844 C 50.0625 47.308594 50.199219 47.277344 50.328125 47.230469 C 50.28125 47.457031 50.25 47.675781 50.242188 47.875 C 50.230469 48.101562 50.242188 48.28125 50.261719 48.410156 C 50.28125 48.527344 50.300781 48.609375 50.300781 48.609375 C 50.300781 48.609375 50.320312 48.539062 50.359375 48.410156 C 50.398438 48.292969 50.449219 48.113281 50.515625 47.914062 C 50.554688 47.816406 50.585938 47.707031 50.625 47.597656 C 50.664062 47.488281 50.714844 47.367188 50.765625 47.25 C 50.8125 47.128906 50.871094 47.011719 50.921875 46.882812 C 50.992188 46.761719 51.039062 46.632812 51.109375 46.523438 C 51.179688 46.40625 51.238281 46.285156 51.316406 46.179688 C 51.355469 46.128906 51.394531 46.070312 51.425781 46.007812 C 51.464844 45.960938 51.503906 45.910156 51.542969 45.859375 C 51.582031 45.8125 51.621094 45.761719 51.660156 45.710938 C 51.703125 45.671875 51.75 45.621094 51.789062 45.582031 C 51.828125 45.542969 51.871094 45.492188 51.910156 45.453125 C 51.949219 45.414062 51.988281 45.382812 52.027344 45.34375 C 52.105469 45.273438 52.175781 45.207031 52.246094 45.15625 C 52.3125 45.105469 52.371094 45.058594 52.421875 45.015625 C 52.519531 44.9375 52.582031 44.886719 52.582031 44.886719 C 52.582031 44.886719 52.480469 44.917969 52.351562 44.957031 Z M 52.351562 44.957031 " fill-opacity="0.298" fill-rule="nonzero"/><path fill="#352e27" d="M 66.382812 31.050781 C 66.382812 31.050781 66.410156 31 66.460938 30.921875 C 66.519531 30.832031 66.597656 30.710938 66.707031 30.554688 C 66.933594 30.246094 67.269531 29.820312 67.734375 29.351562 C 68.199219 28.886719 68.78125 28.378906 69.492188 27.933594 C 69.847656 27.714844 70.242188 27.515625 70.65625 27.359375 C 71.082031 27.199219 71.535156 27.089844 72 27.0625 C 72.472656 27.03125 72.957031 27.089844 73.398438 27.238281 C 73.628906 27.308594 73.835938 27.40625 74.03125 27.515625 C 74.128906 27.578125 74.230469 27.636719 74.316406 27.695312 C 74.40625 27.753906 74.484375 27.804688 74.574219 27.875 C 74.921875 28.121094 75.214844 28.378906 75.492188 28.65625 C 75.757812 28.9375 75.988281 29.214844 76.183594 29.492188 C 76.371094 29.769531 76.519531 30.035156 76.628906 30.285156 C 76.738281 30.53125 76.804688 30.761719 76.855469 30.949219 C 76.90625 31.136719 76.914062 31.285156 76.925781 31.386719 C 76.933594 31.484375 76.933594 31.546875 76.933594 31.546875 C 76.933594 31.546875 76.925781 31.496094 76.886719 31.394531 C 76.855469 31.296875 76.785156 31.167969 76.707031 31 C 76.617188 30.832031 76.511719 30.640625 76.363281 30.433594 C 76.214844 30.226562 76.035156 29.996094 75.828125 29.777344 C 75.621094 29.550781 75.375 29.324219 75.097656 29.105469 C 74.820312 28.886719 74.515625 28.65625 74.199219 28.460938 C 74.121094 28.410156 74.03125 28.359375 73.941406 28.300781 C 73.863281 28.25 73.785156 28.210938 73.695312 28.171875 C 73.527344 28.09375 73.359375 28.023438 73.191406 27.964844 C 72.835938 27.863281 72.453125 27.816406 72.066406 27.84375 C 71.683594 27.863281 71.296875 27.953125 70.921875 28.074219 C 70.546875 28.191406 70.191406 28.359375 69.847656 28.527344 C 69.164062 28.886719 68.554688 29.304688 68.050781 29.679688 C 67.792969 29.867188 67.566406 30.046875 67.367188 30.214844 C 67.171875 30.375 66.992188 30.523438 66.84375 30.640625 C 66.707031 30.761719 66.589844 30.859375 66.519531 30.929688 C 66.421875 31.019531 66.382812 31.050781 66.382812 31.050781 Z M 66.382812 31.050781 " fill-opacity="0.298" fill-rule="nonzero"/><path fill="#352e27" d="M 87.410156 28.113281 C 87.410156 28.113281 87.359375 28.09375 87.28125 28.054688 C 87.191406 28.011719 87.074219 27.964844 86.90625 27.894531 C 86.746094 27.824219 86.550781 27.753906 86.324219 27.667969 C 86.09375 27.585938 85.847656 27.496094 85.5625 27.40625 C 85.285156 27.320312 84.980469 27.238281 84.664062 27.171875 C 84.347656 27.101562 84.003906 27.042969 83.65625 27.011719 C 83.3125 26.980469 82.945312 26.972656 82.582031 27 C 82.226562 27.03125 81.859375 27.101562 81.515625 27.210938 C 81.167969 27.320312 80.832031 27.46875 80.527344 27.65625 C 80.371094 27.746094 80.222656 27.84375 80.082031 27.953125 C 79.925781 28.074219 79.796875 28.171875 79.660156 28.292969 C 79.382812 28.519531 79.136719 28.757812 78.910156 28.996094 C 78.679688 29.234375 78.484375 29.472656 78.316406 29.710938 C 78.148438 29.949219 78.011719 30.167969 77.902344 30.375 C 77.792969 30.582031 77.703125 30.769531 77.644531 30.929688 C 77.585938 31.089844 77.546875 31.21875 77.515625 31.308594 C 77.496094 31.394531 77.488281 31.445312 77.488281 31.445312 C 77.488281 31.445312 77.476562 31.394531 77.476562 31.296875 C 77.476562 31.199219 77.476562 31.058594 77.496094 30.878906 C 77.515625 30.703125 77.554688 30.484375 77.636719 30.246094 C 77.703125 30.007812 77.804688 29.75 77.949219 29.460938 C 78.089844 29.183594 78.265625 28.894531 78.472656 28.609375 C 78.679688 28.320312 78.929688 28.03125 79.203125 27.765625 C 79.273438 27.695312 79.34375 27.625 79.421875 27.566406 C 79.5 27.496094 79.570312 27.4375 79.640625 27.367188 C 79.789062 27.238281 79.957031 27.109375 80.121094 26.992188 C 80.46875 26.753906 80.863281 26.566406 81.277344 26.4375 C 81.683594 26.308594 82.117188 26.226562 82.53125 26.207031 C 82.945312 26.1875 83.359375 26.21875 83.746094 26.277344 C 84.132812 26.347656 84.496094 26.445312 84.832031 26.554688 C 85.167969 26.675781 85.472656 26.804688 85.738281 26.941406 C 86.015625 27.082031 86.242188 27.21875 86.460938 27.359375 C 86.667969 27.488281 86.84375 27.617188 86.984375 27.726562 C 87.121094 27.835938 87.230469 27.925781 87.300781 27.984375 C 87.367188 28.074219 87.410156 28.113281 87.410156 28.113281 Z M 87.410156 28.113281 " fill-opacity="0.298" fill-rule="nonzero"/><g clip-path="url(#id4)"><path fill="#736778" d="M 57.917969 53.332031 C 57.652344 55.804688 56.558594 58.117188 55.292969 60.261719 C 56.144531 61.570312 56.484375 63.085938 56.445312 64.636719 C 57.605469 70.117188 57.339844 75.796875 56.476562 81.394531 C 55.300781 81.515625 52.554688 81.960938 50.152344 81.769531 C 50.148438 81.730469 50.144531 81.691406 50.136719 81.648438 C 49.855469 79.789062 49.28125 77.976562 49.089844 76.101562 C 49.085938 76.089844 49.085938 76.074219 49.085938 76.058594 C 48.339844 76.535156 47.558594 76.960938 46.753906 77.332031 C 46.816406 78.574219 46.839844 79.816406 46.824219 81.058594 C 45.035156 80.90625 42.988281 81.953125 41.609375 82.835938 C 41.40625 82.070312 41.085938 81.300781 40.949219 80.519531 C 40.859375 80.03125 40.847656 79.527344 40.90625 79.03125 C 39.304688 79.253906 37.683594 79.304688 36.0625 79.207031 C 35.90625 81.25 35.6875 83.292969 35.410156 85.324219 C 34.015625 85.773438 32.382812 85.78125 30.722656 85.539062 C 30.738281 85.082031 30.703125 84.621094 30.664062 84.171875 C 30.5 82.179688 30.335938 80.1875 30.171875 78.195312 C 29.570312 78.023438 28.976562 77.839844 28.386719 77.632812 C 28.320312 77.609375 28.25 77.585938 28.183594 77.5625 C 27.6875 79.890625 27.191406 82.214844 26.695312 84.542969 C 24.695312 83.875 22.929688 83.054688 21.847656 82.480469 C 22.039062 78.347656 22.160156 74.210938 22.210938 70.074219 L 22.429688 70.144531 C 22.390625 69.40625 22.402344 68.660156 22.425781 67.929688 C 22.46875 66.519531 22.5625 65.050781 22.847656 63.652344 C 22.144531 62.9375 21.765625 62.421875 21.765625 62.421875 C 16.121094 57.957031 19.957031 46.589844 19.957031 46.589844 C 20.488281 25.019531 26.347656 43.828125 26.347656 43.828125 C 32.738281 40.425781 37 43.933594 37 43.933594 C 42.113281 25.230469 42.96875 45.84375 42.96875 45.84375 C 44.992188 50.503906 45.050781 54.34375 44.421875 57.246094 C 46.144531 57.390625 47.886719 57.34375 49.597656 57.09375 C 50.847656 56.910156 52.140625 56.597656 53.089844 55.761719 C 53.769531 55.164062 54.214844 54.34375 54.570312 53.511719 C 55.511719 51.308594 55.894531 48.871094 55.679688 46.484375 C 57.511719 48.179688 58.183594 50.855469 57.917969 53.332031 " fill-opacity="1" fill-rule="nonzero"/></g><g clip-path="url(#id5)"><path fill="#d7d6d4" d="M 43.945312 49.910156 C 44.273438 49.859375 44.601562 49.8125 44.933594 49.765625 C 45.0625 49.746094 45.207031 49.714844 45.273438 49.601562 C 45.351562 49.464844 45.261719 49.296875 45.164062 49.171875 C 44.546875 48.359375 43.566406 47.835938 42.550781 47.753906 C 42.816406 47.652344 43.023438 47.28125 42.925781 46.980469 C 42.789062 46.570312 42.355469 46.339844 41.949219 46.203125 C 40.832031 45.820312 39.558594 45.800781 38.507812 46.335938 C 37.054688 47.074219 36.296875 48.675781 35.640625 50.164062 L 36.1875 49.988281 C 36.394531 50.570312 37.207031 50.578125 37.820312 50.496094 C 39.136719 50.320312 40.554688 50.257812 41.695312 50.929688 C 42.324219 51.296875 42.832031 51.871094 43.507812 52.132812 C 44.183594 52.398438 45.160156 52.152344 45.277344 51.4375 C 45.390625 50.71875 44.609375 50.210938 43.945312 49.910156 Z M 25.335938 46.8125 C 24.285156 46.277344 23.011719 46.296875 21.894531 46.679688 C 21.484375 46.820312 21.050781 47.046875 20.917969 47.457031 C 20.820312 47.761719 21.023438 48.132812 21.292969 48.230469 C 20.277344 48.3125 19.296875 48.835938 18.679688 49.648438 C 18.582031 49.773438 18.492188 49.941406 18.570312 50.078125 C 18.636719 50.191406 18.78125 50.222656 18.910156 50.242188 C 19.242188 50.289062 19.570312 50.339844 19.898438 50.386719 C 19.234375 50.6875 18.449219 51.195312 18.566406 51.914062 C 18.683594 52.632812 19.660156 52.875 20.335938 52.613281 C 21.011719 52.347656 21.519531 51.777344 22.144531 51.40625 C 23.289062 50.738281 24.707031 50.800781 26.019531 50.976562 C 26.636719 51.058594 27.445312 51.050781 27.65625 50.46875 L 28.203125 50.640625 C 27.546875 49.152344 26.789062 47.550781 25.335938 46.8125 Z M 45.273438 61.097656 C 44.019531 58.664062 41.980469 56.574219 39.425781 55.578125 C 36.867188 54.585938 33.789062 54.808594 31.589844 56.445312 L 31.214844 56.464844 C 28.769531 55.054688 25.5625 55.0625 23.125 56.488281 C 20.6875 57.910156 19.113281 60.695312 19.148438 63.511719 C 19.15625 64.039062 19.242188 64.617188 19.632812 64.972656 C 20.417969 65.683594 21.644531 64.976562 22.445312 64.28125 C 22.214844 64.820312 21.976562 65.382812 22.007812 65.964844 C 22.035156 66.550781 22.417969 67.160156 23 67.25 C 23.679688 67.351562 24.1875 66.765625 24.539062 66.128906 C 24.308594 66.839844 24.574219 67.722656 25.261719 68.027344 C 25.96875 68.347656 26.898438 67.769531 26.988281 67.050781 C 27.074219 67.839844 27.34375 68.605469 27.777344 69.269531 C 27.933594 69.507812 28.117188 69.738281 28.367188 69.871094 C 28.980469 70.195312 29.769531 69.792969 30.113281 69.195312 C 30.367188 68.753906 30.441406 68.242188 30.464844 67.726562 C 30.472656 68.460938 30.585938 69.195312 31.015625 69.777344 C 31.550781 70.5 32.75 70.78125 33.355469 70.113281 C 33.847656 69.570312 33.742188 68.6875 34.171875 68.089844 C 33.886719 68.765625 34.414062 69.601562 35.132812 69.757812 C 35.847656 69.914062 36.613281 69.480469 36.96875 68.839844 C 37.238281 68.359375 37.300781 67.792969 37.226562 67.242188 C 37.320312 67.601562 37.460938 67.945312 37.699219 68.226562 C 38.054688 68.644531 38.691406 68.875 39.171875 68.613281 C 39.457031 68.457031 39.636719 68.167969 39.769531 67.871094 C 40.117188 67.09375 40.199219 66.203125 40.003906 65.371094 C 40.195312 66.140625 40.71875 66.816406 41.414062 67.191406 C 41.5625 67.273438 41.726562 67.339844 41.894531 67.320312 C 42.273438 67.273438 42.4375 66.824219 42.492188 66.449219 C 42.589844 65.777344 42.578125 65.085938 42.457031 64.417969 C 42.945312 64.855469 43.488281 65.320312 44.144531 65.34375 C 45.035156 65.375 45.769531 64.53125 45.894531 63.648438 C 46.019531 62.769531 45.679688 61.890625 45.273438 61.097656 Z M 21.105469 86.089844 C 20.578125 86.863281 19.722656 87.332031 18.988281 87.917969 C 18.257812 88.503906 17.589844 89.355469 17.71875 90.285156 C 19.613281 90.480469 21.527344 90.5 23.421875 90.332031 C 24.125 90.269531 24.894531 90.148438 25.359375 89.621094 C 25.6875 89.25 25.800781 88.742188 25.90625 88.257812 C 26.167969 87.019531 26.433594 85.78125 26.695312 84.542969 C 24.695312 83.875 22.929688 83.054688 21.847656 82.480469 C 21.839844 82.671875 21.832031 82.859375 21.824219 83.046875 C 21.773438 84.101562 21.699219 85.214844 21.105469 86.089844 Z M 41.710938 84.804688 C 41.5625 85.371094 41.230469 85.867188 41.039062 86.417969 C 40.847656 86.964844 40.828125 87.644531 41.234375 88.058594 C 41.734375 88.566406 42.582031 88.421875 43.25 88.1875 C 44.101562 87.886719 44.917969 87.492188 45.675781 87.007812 C 45.914062 86.859375 46.152344 86.695312 46.308594 86.46875 C 46.523438 86.15625 46.566406 85.761719 46.601562 85.382812 C 46.730469 83.945312 46.804688 82.5 46.824219 81.058594 C 45.035156 80.90625 42.988281 81.953125 41.609375 82.835938 C 41.789062 83.496094 41.882812 84.148438 41.710938 84.804688 Z M 50.152344 81.769531 C 50.417969 83.597656 50.363281 85.546875 49.445312 87.144531 C 49.132812 87.691406 48.710938 88.328125 48.992188 88.894531 C 49.3125 89.542969 50.25 89.484375 50.960938 89.328125 C 51.957031 89.105469 52.957031 88.886719 53.953125 88.664062 C 54.332031 88.582031 54.738281 88.480469 55 88.195312 C 55.226562 87.949219 55.304688 87.609375 55.375 87.285156 C 55.792969 85.339844 56.171875 83.375 56.476562 81.394531 C 55.300781 81.515625 52.554688 81.960938 50.152344 81.769531 Z M 30.511719 86.761719 C 30.652344 86.367188 30.707031 85.957031 30.722656 85.539062 C 32.382812 85.78125 34.015625 85.773438 35.410156 85.324219 C 35.253906 86.464844 35.082031 87.601562 34.890625 88.738281 C 34.800781 89.265625 34.675781 89.847656 34.238281 90.160156 C 33.945312 90.371094 33.566406 90.417969 33.207031 90.445312 C 31.832031 90.546875 30.441406 90.5 29.078125 90.296875 C 28.855469 89.019531 30.074219 87.980469 30.511719 86.761719 " fill-opacity="1" fill-rule="nonzero"/></g><path fill="#f3a2d5" d="M 37.90625 44.410156 C 39.238281 43.933594 41.582031 45.367188 41.582031 45.367188 C 41.15625 31.660156 37.90625 44.410156 37.90625 44.410156 Z M 24.644531 44.199219 C 24.644531 44.199219 21.710938 44.78125 20.859375 46.003906 C 20.859375 46.003906 21.554688 31.820312 24.644531 44.199219 " fill-opacity="1" fill-rule="nonzero"/><g clip-path="url(#id6)"><path fill="#1b1b17" d="M 51.636719 87.328125 C 51.621094 87.332031 51.617188 87.3125 51.617188 87.300781 C 51.617188 87.289062 51.625 87.269531 51.640625 87.285156 C 51.648438 87.289062 51.652344 87.296875 51.652344 87.308594 C 51.648438 87.3125 51.648438 87.320312 51.648438 87.335938 C 51.640625 87.390625 51.589844 87.515625 51.566406 87.640625 C 51.535156 87.769531 51.515625 87.914062 51.507812 88.0625 C 51.484375 88.367188 51.519531 88.644531 51.570312 88.835938 C 51.617188 89.027344 51.679688 89.140625 51.714844 89.132812 C 51.792969 89.113281 51.746094 88.648438 51.785156 88.082031 C 51.792969 87.941406 51.804688 87.804688 51.820312 87.683594 C 51.828125 87.621094 51.832031 87.5625 51.839844 87.507812 C 51.839844 87.496094 51.84375 87.480469 51.84375 87.46875 C 51.847656 87.453125 51.847656 87.4375 51.847656 87.421875 C 51.851562 87.386719 51.851562 87.355469 51.84375 87.320312 C 51.839844 87.289062 51.828125 87.253906 51.804688 87.21875 C 51.785156 87.1875 51.757812 87.167969 51.726562 87.160156 C 51.699219 87.148438 51.671875 87.152344 51.660156 87.164062 C 51.648438 87.175781 51.644531 87.1875 51.644531 87.203125 C 51.644531 87.214844 51.65625 87.230469 51.679688 87.261719 C 51.652344 87.328125 51.671875 87.324219 51.671875 87.328125 C 51.675781 87.324219 51.671875 87.316406 51.664062 87.320312 C 51.660156 87.320312 51.648438 87.328125 51.636719 87.328125 Z M 50.410156 87.246094 C 50.28125 87.453125 50.144531 87.773438 50.085938 88.144531 C 50.027344 88.519531 50.058594 88.867188 50.121094 89.101562 C 50.179688 89.339844 50.261719 89.472656 50.296875 89.464844 C 50.375 89.441406 50.25 88.875 50.359375 88.1875 C 50.460938 87.503906 50.753906 87 50.6875 86.957031 C 50.65625 86.9375 50.542969 87.039062 50.410156 87.246094 Z M 43.851562 85.949219 C 43.808594 86.152344 43.789062 86.445312 43.828125 86.761719 C 43.871094 87.078125 43.96875 87.355469 44.0625 87.539062 C 44.160156 87.726562 44.25 87.824219 44.285156 87.804688 C 44.355469 87.769531 44.179688 87.3125 44.105469 86.726562 C 44.023438 86.140625 44.074219 85.652344 43.996094 85.636719 C 43.960938 85.628906 43.898438 85.746094 43.851562 85.949219 Z M 42.691406 86 L 42.609375 85.964844 C 42.554688 86.027344 42.46875 86.160156 42.398438 86.355469 C 42.328125 86.550781 42.277344 86.804688 42.273438 87.082031 C 42.273438 87.257812 42.292969 87.421875 42.324219 87.570312 C 42.355469 87.71875 42.394531 87.847656 42.445312 87.949219 C 42.535156 88.160156 42.632812 88.265625 42.664062 88.25 C 42.738281 88.214844 42.542969 87.71875 42.554688 87.085938 C 42.550781 86.578125 42.675781 86.160156 42.691406 86 L 42.609375 85.96875 C 42.605469 86.015625 42.613281 86.039062 42.625 86.046875 C 42.640625 86.050781 42.664062 86.035156 42.691406 86 Z M 32.046875 89.011719 C 31.960938 89.199219 31.875 89.472656 31.832031 89.785156 C 31.789062 90.097656 31.796875 90.382812 31.828125 90.585938 C 31.859375 90.792969 31.90625 90.914062 31.945312 90.910156 C 32.023438 90.898438 32.023438 90.410156 32.109375 89.824219 C 32.1875 89.238281 32.320312 88.765625 32.246094 88.734375 C 32.214844 88.722656 32.132812 88.824219 32.046875 89.011719 Z M 30.492188 88.714844 C 30.339844 88.867188 30.167969 89.117188 30.0625 89.433594 C 29.953125 89.746094 29.933594 90.050781 29.960938 90.265625 C 29.984375 90.480469 30.042969 90.605469 30.078125 90.597656 C 30.160156 90.585938 30.125 90.085938 30.324219 89.523438 C 30.511719 88.957031 30.847656 88.582031 30.789062 88.523438 C 30.765625 88.496094 30.644531 88.558594 30.492188 88.714844 Z M 22.136719 88.484375 C 22.027344 88.675781 21.921875 88.96875 21.875 89.308594 C 21.835938 89.644531 21.867188 89.957031 21.921875 90.167969 C 21.980469 90.382812 22.054688 90.503906 22.089844 90.492188 C 22.167969 90.472656 22.070312 89.960938 22.152344 89.34375 C 22.226562 88.722656 22.449219 88.253906 22.378906 88.210938 C 22.347656 88.195312 22.246094 88.289062 22.136719 88.484375 Z M 20.796875 87.726562 C 20.675781 87.828125 20.546875 87.964844 20.417969 88.128906 C 20.292969 88.292969 20.171875 88.492188 20.070312 88.710938 C 19.976562 88.929688 19.910156 89.152344 19.871094 89.355469 C 19.832031 89.5625 19.820312 89.75 19.824219 89.90625 C 19.835938 90.21875 19.902344 90.40625 19.9375 90.398438 C 19.980469 90.394531 19.984375 90.207031 20.023438 89.914062 C 20.039062 89.769531 20.074219 89.597656 20.121094 89.410156 C 20.171875 89.226562 20.238281 89.027344 20.328125 88.824219 C 20.417969 88.621094 20.523438 88.4375 20.628906 88.277344 C 20.734375 88.117188 20.839844 87.976562 20.9375 87.867188 C 21.125 87.640625 21.261719 87.511719 21.238281 87.476562 C 21.21875 87.449219 21.039062 87.523438 20.796875 87.726562 Z M 36.890625 61.785156 C 36.863281 61.613281 36.699219 61.492188 36.523438 61.523438 C 32.398438 62.183594 31.730469 59.5625 31.671875 59.300781 L 31.585938 57.601562 C 32.136719 57.628906 33.804688 57.5625 34.335938 55.886719 C 34.335938 55.886719 31.726562 53.761719 28.105469 55.675781 C 28.105469 55.675781 28.199219 57.496094 30.75 57.597656 L 30.664062 59.300781 C 30.605469 59.570312 29.933594 62.183594 25.8125 61.523438 C 25.636719 61.492188 25.472656 61.613281 25.445312 61.785156 C 25.417969 61.960938 25.535156 62.125 25.710938 62.152344 C 26.203125 62.230469 26.652344 62.265625 27.0625 62.265625 C 29.875 62.265625 30.859375 60.601562 31.167969 59.808594 C 31.476562 60.601562 32.460938 62.265625 35.273438 62.265625 C 35.683594 62.265625 36.132812 62.230469 36.625 62.152344 C 36.800781 62.125 36.917969 61.960938 36.890625 61.785156 Z M 37.851562 51.050781 C 37.148438 51.050781 36.574219 51.835938 36.574219 52.804688 C 36.574219 53.773438 37.148438 54.558594 37.851562 54.558594 C 38.558594 54.558594 39.132812 53.773438 39.132812 52.804688 C 39.132812 51.835938 38.558594 51.050781 37.851562 51.050781 Z M 26.160156 53.335938 C 26.160156 54.304688 25.589844 55.089844 24.882812 55.089844 C 24.175781 55.089844 23.605469 54.304688 23.605469 53.335938 C 23.605469 52.367188 24.175781 51.582031 24.882812 51.582031 C 25.589844 51.582031 26.160156 52.367188 26.160156 53.335938 " fill-opacity="1" fill-rule="nonzero"/></g></svg>