<svg xmlns="http://www.w3.org/2000/svg" xmlns:xlink="http://www.w3.org/1999/xlink" width="100" zoomAndPan="magnify" viewBox="0 0 75 74.999997" height="100" preserveAspectRatio="xMidYMid meet" version="1.0"><defs><clipPath id="id1"><path d="M 16.601562 11 L 53 11 L 53 68.5 L 16.601562 68.5 Z M 16.601562 11 " clip-rule="nonzero"/></clipPath><clipPath id="id2"><path d="M 20 6.25 L 58.601562 6.25 L 58.601562 66 L 20 66 Z M 20 6.25 " clip-rule="nonzero"/></clipPath></defs><g clip-path="url(#id1)"><path fill="#231f20" d="M 45.847656 43.175781 C 44.886719 43.175781 41.171875 43.074219 34.699219 42.875 L 31.132812 65.574219 C 26.785156 66.328125 21.957031 67.304688 16.648438 68.507812 C 18.164062 63.042969 19.554688 56.703125 20.820312 49.488281 C 23.195312 36.207031 25.195312 24.082031 26.8125 13.105469 L 52.828125 11.753906 L 50.625 21.226562 L 38.414062 21.226562 L 35.988281 34.980469 C 37.605469 34.933594 39.074219 34.90625 40.386719 34.90625 L 44.257812 34.90625 C 45.46875 34.90625 46.429688 34.882812 47.136719 34.832031 L 45.847656 43.175781 " fill-opacity="1" fill-rule="nonzero"/></g><path fill="#d92b23" d="M 50.472656 38.59375 C 49.511719 38.59375 45.796875 38.492188 39.324219 38.292969 L 35.757812 60.992188 C 31.410156 61.746094 26.582031 62.722656 21.273438 63.921875 C 22.789062 58.460938 24.179688 52.121094 25.441406 44.90625 C 27.820312 31.625 29.816406 19.5 31.433594 8.523438 L 57.449219 7.171875 L 55.25 16.644531 L 43.039062 16.644531 L 40.613281 30.398438 C 42.230469 30.351562 43.695312 30.324219 45.011719 30.324219 L 48.878906 30.324219 C 50.09375 30.324219 51.054688 30.300781 51.761719 30.25 L 50.472656 38.59375 " fill-opacity="1" fill-rule="nonzero"/><path fill="#f68712" d="M 30.808594 58.578125 C 30.984375 58.578125 31.15625 58.578125 31.320312 58.578125 C 31.328125 58.398438 31.335938 58.226562 31.34375 58.058594 C 31.160156 58.058594 30.96875 58.058594 30.785156 58.058594 C 30.792969 58.230469 30.800781 58.40625 30.808594 58.578125 " fill-opacity="1" fill-rule="nonzero"/><path fill="#f68712" d="M 29.101562 50.910156 C 29.320312 51.273438 29.34375 51.617188 29.144531 52.003906 C 29.511719 51.816406 29.847656 51.820312 30.210938 52.003906 C 30.011719 51.617188 30.035156 51.269531 30.253906 50.90625 C 29.859375 51.140625 29.492188 51.136719 29.101562 50.910156 " fill-opacity="1" fill-rule="nonzero"/><path fill="#f68712" d="M 30.925781 61.214844 C 31.027344 61.214844 31.121094 61.214844 31.222656 61.214844 C 31.222656 61.105469 31.222656 61.003906 31.222656 60.910156 C 31.109375 60.910156 31.007812 60.910156 30.90625 60.910156 C 30.910156 61.015625 30.917969 61.109375 30.925781 61.214844 " fill-opacity="1" fill-rule="nonzero"/><path fill="#f68712" d="M 30.707031 55.234375 C 30.707031 55.460938 30.707031 55.703125 30.707031 55.925781 C 30.949219 55.925781 31.183594 55.925781 31.417969 55.925781 C 31.410156 55.824219 31.386719 55.703125 31.390625 55.582031 C 31.394531 55.457031 31.425781 55.335938 31.441406 55.234375 C 31.1875 55.234375 30.9375 55.234375 30.707031 55.234375 " fill-opacity="1" fill-rule="nonzero"/><path fill="#f68712" d="M 30.542969 52.335938 C 30.726562 52.675781 30.726562 52.988281 30.589844 53.324219 C 30.917969 53.175781 31.222656 53.191406 31.542969 53.316406 C 31.394531 52.976562 31.410156 52.667969 31.578125 52.339844 C 31.226562 52.515625 30.902344 52.519531 30.542969 52.335938 " fill-opacity="1" fill-rule="nonzero"/><path fill="#f68712" d="M 27.796875 52.363281 C 27.953125 52.675781 27.949219 52.988281 27.816406 53.324219 C 28.144531 53.175781 28.449219 53.191406 28.765625 53.316406 C 28.621094 52.980469 28.636719 52.671875 28.804688 52.339844 C 28.453125 52.515625 28.128906 52.519531 27.796875 52.363281 " fill-opacity="1" fill-rule="nonzero"/><path fill="#f68712" d="M 29.464844 59.890625 C 29.613281 59.890625 29.75 59.890625 29.890625 59.890625 C 29.890625 59.746094 29.890625 59.609375 29.890625 59.476562 C 29.742188 59.476562 29.601562 59.476562 29.464844 59.476562 C 29.464844 59.617188 29.464844 59.753906 29.464844 59.890625 " fill-opacity="1" fill-rule="nonzero"/><path fill="#f68712" d="M 29.363281 57.261719 C 29.578125 57.261719 29.785156 57.261719 29.992188 57.261719 C 29.992188 57.0625 29.992188 56.847656 29.992188 56.648438 C 29.78125 56.648438 29.558594 56.648438 29.363281 56.648438 C 29.363281 56.855469 29.363281 57.066406 29.363281 57.261719 " fill-opacity="1" fill-rule="nonzero"/><path fill="#f68712" d="M 29.21875 53.769531 C 29.347656 54.0625 29.351562 54.339844 29.253906 54.640625 C 29.542969 54.535156 29.816406 54.539062 30.109375 54.636719 C 29.992188 54.332031 30.019531 54.054688 30.132812 53.765625 C 29.820312 53.902344 29.53125 53.894531 29.21875 53.769531 " fill-opacity="1" fill-rule="nonzero"/><path fill="#f68712" d="M 35.011719 59.914062 C 35.15625 59.914062 35.292969 59.914062 35.441406 59.914062 C 35.441406 59.757812 35.441406 59.613281 35.441406 59.476562 C 35.292969 59.476562 35.152344 59.476562 35.011719 59.476562 C 35.011719 59.621094 35.011719 59.765625 35.011719 59.914062 " fill-opacity="1" fill-rule="nonzero"/><path fill="#f68712" d="M 33.484375 55.925781 C 33.722656 55.925781 33.960938 55.925781 34.195312 55.925781 C 34.195312 55.699219 34.195312 55.457031 34.195312 55.234375 C 33.964844 55.234375 33.707031 55.234375 33.484375 55.234375 C 33.484375 55.460938 33.484375 55.703125 33.484375 55.925781 " fill-opacity="1" fill-rule="nonzero"/><path fill="#f68712" d="M 33.320312 52.335938 C 33.496094 52.675781 33.503906 52.984375 33.359375 53.324219 C 33.6875 53.175781 33.992188 53.1875 34.316406 53.320312 C 34.167969 52.980469 34.183594 52.667969 34.355469 52.335938 C 34 52.519531 33.675781 52.515625 33.320312 52.335938 " fill-opacity="1" fill-rule="nonzero"/><path fill="#f68712" d="M 33.582031 58.578125 C 33.753906 58.578125 33.929688 58.578125 34.09375 58.578125 C 34.101562 58.398438 34.109375 58.222656 34.117188 58.058594 C 33.933594 58.058594 33.746094 58.058594 33.558594 58.058594 C 33.566406 58.226562 33.574219 58.402344 33.582031 58.578125 " fill-opacity="1" fill-rule="nonzero"/><path fill="#f68712" d="M 27.933594 55.925781 C 28.171875 55.925781 28.410156 55.925781 28.644531 55.925781 C 28.644531 55.699219 28.644531 55.457031 28.644531 55.234375 C 28.414062 55.234375 28.164062 55.234375 27.933594 55.234375 C 27.933594 55.460938 27.933594 55.703125 27.933594 55.925781 " fill-opacity="1" fill-rule="nonzero"/><path fill="#f68712" d="M 33.683594 61.246094 C 33.792969 61.246094 33.890625 61.246094 34.011719 61.246094 C 34.011719 61.125 34.011719 61.011719 34.011719 60.90625 C 33.894531 60.90625 33.785156 60.90625 33.683594 60.90625 C 33.683594 61.023438 33.683594 61.136719 33.683594 61.246094 " fill-opacity="1" fill-rule="nonzero"/><path fill="#f68712" d="M 32.136719 57.261719 C 32.347656 57.261719 32.554688 57.261719 32.765625 57.261719 C 32.765625 57.058594 32.765625 56.84375 32.765625 56.648438 C 32.554688 56.648438 32.335938 56.648438 32.136719 56.648438 C 32.136719 56.851562 32.136719 57.066406 32.136719 57.261719 " fill-opacity="1" fill-rule="nonzero"/><path fill="#f68712" d="M 31.988281 53.765625 C 32.125 54.0625 32.125 54.335938 32.027344 54.644531 C 32.324219 54.53125 32.59375 54.542969 32.878906 54.636719 C 32.765625 54.332031 32.789062 54.058594 32.90625 53.765625 C 32.59375 53.90625 32.304688 53.894531 31.988281 53.765625 " fill-opacity="1" fill-rule="nonzero"/><path fill="#f68712" d="M 31.875 50.910156 C 32.09375 51.273438 32.117188 51.617188 31.914062 52.007812 C 32.285156 51.816406 32.621094 51.824219 32.980469 52 C 32.785156 51.617188 32.804688 51.269531 33.03125 50.90625 C 32.632812 51.140625 32.269531 51.136719 31.875 50.910156 " fill-opacity="1" fill-rule="nonzero"/><path fill="#f68712" d="M 32.238281 59.898438 C 32.382812 59.898438 32.519531 59.898438 32.667969 59.898438 C 32.667969 59.746094 32.667969 59.609375 32.667969 59.476562 C 32.519531 59.476562 32.378906 59.476562 32.238281 59.476562 C 32.238281 59.617188 32.238281 59.753906 32.238281 59.898438 " fill-opacity="1" fill-rule="nonzero"/><path fill="#f68712" d="M 28.152344 61.191406 C 28.25 61.191406 28.335938 61.191406 28.429688 61.191406 C 28.4375 61.09375 28.441406 61 28.449219 60.90625 C 28.339844 60.90625 28.242188 60.90625 28.128906 60.90625 C 28.136719 61.007812 28.144531 61.101562 28.152344 61.191406 " fill-opacity="1" fill-rule="nonzero"/><path fill="#f68712" d="M 25.378906 61.167969 C 25.476562 61.167969 25.5625 61.167969 25.65625 61.167969 C 25.660156 61.078125 25.667969 60.996094 25.675781 60.910156 C 25.5625 60.910156 25.460938 60.910156 25.355469 60.910156 C 25.363281 61 25.371094 61.082031 25.378906 61.167969 " fill-opacity="1" fill-rule="nonzero"/><path fill="#f68712" d="M 22.605469 61.167969 C 22.703125 61.167969 22.789062 61.167969 22.878906 61.167969 C 22.886719 61.078125 22.894531 60.996094 22.902344 60.90625 C 22.792969 60.90625 22.695312 60.90625 22.578125 60.90625 C 22.589844 61.003906 22.597656 61.085938 22.605469 61.167969 " fill-opacity="1" fill-rule="nonzero"/><path fill="#f68712" d="M 37.101562 52.378906 C 36.941406 52.410156 36.777344 52.46875 36.617188 52.46875 C 36.453125 52.46875 36.285156 52.414062 36.117188 52.382812 C 36.265625 52.671875 36.28125 52.980469 36.136719 53.316406 C 36.417969 53.210938 36.683594 53.175781 36.96875 53.28125 L 37.007812 53.03125 C 36.957031 52.902344 36.988281 52.695312 37.101562 52.378906 " fill-opacity="1" fill-rule="nonzero"/><path fill="#f68712" d="M 23.8125 57.261719 C 24.027344 57.261719 24.238281 57.261719 24.445312 57.261719 C 24.445312 57.058594 24.445312 56.851562 24.445312 56.648438 C 24.238281 56.648438 24.015625 56.648438 23.8125 56.648438 C 23.8125 56.851562 23.8125 57.0625 23.8125 57.261719 " fill-opacity="1" fill-rule="nonzero"/><path fill="#f68712" d="M 23.917969 59.890625 C 24.066406 59.890625 24.199219 59.890625 24.34375 59.890625 C 24.34375 59.746094 24.34375 59.609375 24.34375 59.476562 C 24.195312 59.476562 24.054688 59.476562 23.917969 59.476562 C 23.917969 59.617188 23.917969 59.753906 23.917969 59.890625 " fill-opacity="1" fill-rule="nonzero"/><path fill="#f68712" d="M 34.648438 50.90625 C 34.875 51.277344 34.886719 51.625 34.695312 52 C 35.058594 51.820312 35.390625 51.820312 35.757812 52.003906 C 35.558594 51.617188 35.582031 51.269531 35.804688 50.902344 C 35.40625 51.140625 35.042969 51.136719 34.648438 50.90625 " fill-opacity="1" fill-rule="nonzero"/><path fill="#f68712" d="M 36.257812 55.21875 C 36.257812 55.460938 36.257812 55.699219 36.257812 55.945312 C 36.351562 55.933594 36.453125 55.921875 36.558594 55.90625 L 36.660156 55.25 C 36.644531 55.253906 36.628906 55.261719 36.613281 55.261719 C 36.488281 55.253906 36.363281 55.234375 36.257812 55.21875 " fill-opacity="1" fill-rule="nonzero"/><path fill="#f68712" d="M 54.667969 14.808594 C 54.445312 14.808594 54.253906 14.613281 54.261719 14.390625 C 54.265625 14.175781 54.457031 13.992188 54.675781 13.996094 C 54.898438 13.996094 55.089844 14.191406 55.082031 14.410156 C 55.078125 14.628906 54.886719 14.8125 54.667969 14.808594 Z M 53.289062 16.214844 C 53.042969 16.21875 52.839844 16.019531 52.839844 15.773438 C 52.84375 15.53125 53.042969 15.335938 53.285156 15.335938 C 53.527344 15.335938 53.726562 15.535156 53.730469 15.773438 C 53.730469 16.015625 53.535156 16.214844 53.289062 16.214844 Z M 51.902344 14.808594 C 51.679688 14.8125 51.484375 14.621094 51.488281 14.398438 C 51.488281 14.183594 51.671875 13.996094 51.894531 13.996094 C 52.117188 13.992188 52.3125 14.179688 52.308594 14.402344 C 52.308594 14.621094 52.125 14.804688 51.902344 14.808594 Z M 50.519531 16.214844 C 50.273438 16.222656 50.066406 16.019531 50.066406 15.777344 C 50.070312 15.535156 50.265625 15.339844 50.507812 15.335938 C 50.75 15.335938 50.953125 15.53125 50.953125 15.769531 C 50.957031 16.011719 50.761719 16.210938 50.519531 16.214844 Z M 49.109375 14.808594 C 48.890625 14.800781 48.707031 14.613281 48.710938 14.394531 C 48.71875 14.171875 48.914062 13.984375 49.136719 13.996094 C 49.359375 14.003906 49.539062 14.191406 49.535156 14.410156 C 49.53125 14.632812 49.332031 14.820312 49.109375 14.808594 Z M 47.730469 16.1875 C 47.488281 16.1875 47.292969 15.988281 47.292969 15.746094 C 47.292969 15.507812 47.492188 15.308594 47.734375 15.308594 C 47.976562 15.308594 48.179688 15.503906 48.179688 15.746094 C 48.183594 15.992188 47.980469 16.191406 47.730469 16.1875 Z M 46.34375 14.78125 C 46.117188 14.777344 45.929688 14.582031 45.9375 14.359375 C 45.949219 14.144531 46.136719 13.960938 46.355469 13.964844 C 46.582031 13.972656 46.769531 14.167969 46.761719 14.386719 C 46.75 14.605469 46.5625 14.785156 46.34375 14.78125 Z M 44.960938 16.1875 C 44.71875 16.1875 44.519531 15.992188 44.519531 15.75 C 44.519531 15.503906 44.722656 15.304688 44.972656 15.308594 C 45.214844 15.316406 45.410156 15.515625 45.40625 15.753906 C 45.402344 15.996094 45.203125 16.191406 44.960938 16.1875 Z M 43.570312 14.78125 C 43.347656 14.777344 43.164062 14.59375 43.164062 14.375 C 43.164062 14.152344 43.359375 13.960938 43.582031 13.964844 C 43.800781 13.972656 43.988281 14.15625 43.988281 14.375 C 43.988281 14.597656 43.792969 14.785156 43.570312 14.78125 Z M 43.578125 11.296875 C 43.757812 11.296875 43.910156 11.449219 43.90625 11.628906 C 43.90625 11.8125 43.75 11.957031 43.566406 11.953125 C 43.386719 11.949219 43.238281 11.792969 43.242188 11.613281 C 43.25 11.4375 43.398438 11.296875 43.578125 11.296875 Z M 43.570312 8.660156 C 43.691406 8.65625 43.792969 8.757812 43.792969 8.875 C 43.796875 8.992188 43.691406 9.09375 43.574219 9.09375 C 43.453125 9.09375 43.351562 8.988281 43.355469 8.871094 C 43.359375 8.757812 43.457031 8.660156 43.570312 8.660156 Z M 44.976562 12.632812 C 45.179688 12.636719 45.335938 12.804688 45.332031 13.007812 C 45.328125 13.210938 45.164062 13.371094 44.957031 13.367188 C 44.75 13.363281 44.589844 13.203125 44.59375 13 C 44.59375 12.789062 44.761719 12.625 44.976562 12.632812 Z M 44.96875 9.976562 C 45.117188 9.980469 45.238281 10.105469 45.238281 10.25 C 45.238281 10.402344 45.109375 10.527344 44.957031 10.523438 C 44.808594 10.519531 44.6875 10.398438 44.6875 10.25 C 44.6875 10.097656 44.816406 9.972656 44.96875 9.976562 Z M 46.34375 11.296875 C 46.527344 11.292969 46.679688 11.441406 46.683594 11.625 C 46.683594 11.804688 46.53125 11.957031 46.347656 11.953125 C 46.171875 11.953125 46.023438 11.808594 46.019531 11.632812 C 46.011719 11.453125 46.160156 11.300781 46.34375 11.296875 Z M 46.363281 8.660156 C 46.476562 8.664062 46.570312 8.765625 46.570312 8.878906 C 46.566406 8.996094 46.460938 9.097656 46.34375 9.09375 C 46.226562 9.089844 46.125 8.984375 46.128906 8.867188 C 46.136719 8.75 46.246094 8.652344 46.363281 8.660156 Z M 47.738281 12.632812 C 47.945312 12.632812 48.105469 12.792969 48.105469 13 C 48.109375 13.203125 47.949219 13.363281 47.742188 13.367188 C 47.53125 13.371094 47.363281 13.203125 47.367188 12.992188 C 47.371094 12.789062 47.53125 12.632812 47.738281 12.632812 Z M 47.746094 9.996094 C 47.90625 10.003906 48.023438 10.125 48.019531 10.285156 C 48.015625 10.441406 47.894531 10.558594 47.734375 10.558594 C 47.570312 10.554688 47.449219 10.429688 47.453125 10.265625 C 47.460938 10.109375 47.585938 9.992188 47.746094 9.996094 Z M 49.121094 11.324219 C 49.304688 11.324219 49.457031 11.472656 49.457031 11.65625 C 49.457031 11.835938 49.300781 11.984375 49.117188 11.980469 C 48.9375 11.980469 48.785156 11.824219 48.792969 11.644531 C 48.796875 11.46875 48.945312 11.324219 49.121094 11.324219 Z M 49.136719 8.6875 C 49.25 8.691406 49.34375 8.792969 49.34375 8.90625 C 49.34375 9.023438 49.238281 9.125 49.117188 9.121094 C 49 9.117188 48.898438 9.011719 48.90625 8.894531 C 48.910156 8.777344 49.019531 8.679688 49.136719 8.6875 Z M 50.507812 12.660156 C 50.714844 12.660156 50.878906 12.816406 50.882812 13.023438 C 50.882812 13.226562 50.726562 13.390625 50.519531 13.394531 C 50.308594 13.398438 50.140625 13.234375 50.140625 13.027344 C 50.140625 12.820312 50.300781 12.660156 50.507812 12.660156 Z M 50.511719 9.996094 C 50.667969 9.996094 50.792969 10.113281 50.792969 10.273438 C 50.796875 10.433594 50.679688 10.554688 50.519531 10.558594 C 50.351562 10.5625 50.226562 10.441406 50.230469 10.277344 C 50.230469 10.117188 50.351562 10 50.511719 9.996094 Z M 50.359375 7.5625 C 50.460938 7.554688 50.566406 7.546875 50.667969 7.539062 C 50.675781 7.550781 50.6875 7.558594 50.695312 7.570312 C 50.640625 7.609375 50.589844 7.679688 50.53125 7.6875 C 50.46875 7.691406 50.402344 7.636719 50.339844 7.609375 C 50.347656 7.59375 50.351562 7.578125 50.359375 7.5625 Z M 51.917969 11.324219 C 52.101562 11.335938 52.242188 11.496094 52.230469 11.675781 C 52.214844 11.855469 52.054688 11.996094 51.871094 11.980469 C 51.695312 11.96875 51.558594 11.8125 51.566406 11.636719 C 51.574219 11.457031 51.734375 11.3125 51.917969 11.324219 Z M 51.890625 8.6875 C 52.011719 8.683594 52.117188 8.78125 52.117188 8.902344 C 52.121094 9.019531 52.015625 9.121094 51.898438 9.121094 C 51.777344 9.121094 51.675781 9.015625 51.679688 8.898438 C 51.679688 8.785156 51.777344 8.6875 51.890625 8.6875 Z M 53.292969 12.660156 C 53.5 12.664062 53.660156 12.828125 53.65625 13.03125 C 53.652344 13.238281 53.488281 13.394531 53.285156 13.394531 C 53.070312 13.394531 52.910156 13.226562 52.914062 13.015625 C 52.921875 12.8125 53.085938 12.65625 53.292969 12.660156 Z M 53.289062 9.996094 C 53.449219 10 53.570312 10.121094 53.566406 10.28125 C 53.566406 10.4375 53.445312 10.558594 53.285156 10.558594 C 53.125 10.558594 53.003906 10.441406 53.003906 10.28125 C 53 10.117188 53.125 9.996094 53.289062 9.996094 Z M 54.683594 11.324219 C 54.863281 11.328125 55.011719 11.484375 55.003906 11.664062 C 54.996094 11.839844 54.847656 11.984375 54.667969 11.980469 C 54.488281 11.980469 54.335938 11.828125 54.339844 11.648438 C 54.34375 11.464844 54.5 11.316406 54.683594 11.324219 Z M 54.671875 8.6875 C 54.792969 8.6875 54.894531 8.789062 54.890625 8.90625 C 54.890625 9.023438 54.78125 9.125 54.664062 9.121094 C 54.550781 9.117188 54.453125 9.019531 54.453125 8.90625 C 54.449219 8.789062 54.554688 8.6875 54.671875 8.6875 Z M 42.175781 19 C 41.890625 18.992188 41.675781 18.765625 41.683594 18.480469 C 41.691406 18.207031 41.914062 17.992188 42.195312 17.996094 C 42.480469 18 42.699219 18.226562 42.695312 18.507812 C 42.691406 18.792969 42.460938 19.007812 42.175781 19 Z M 42.195312 15.304688 C 42.445312 15.308594 42.636719 15.507812 42.636719 15.757812 C 42.632812 16.003906 42.433594 16.195312 42.179688 16.191406 C 41.933594 16.1875 41.738281 15.992188 41.742188 15.742188 C 41.746094 15.496094 41.945312 15.304688 42.195312 15.304688 Z M 42.191406 12.632812 C 42.398438 12.632812 42.558594 12.792969 42.558594 13 C 42.558594 13.210938 42.390625 13.371094 42.179688 13.367188 C 41.972656 13.363281 41.816406 13.199219 41.816406 12.992188 C 41.820312 12.789062 41.984375 12.632812 42.191406 12.632812 Z M 42.195312 9.976562 C 42.347656 9.980469 42.472656 10.113281 42.464844 10.261719 C 42.457031 10.410156 42.332031 10.527344 42.183594 10.523438 C 42.027344 10.523438 41.90625 10.390625 41.910156 10.238281 C 41.917969 10.089844 42.046875 9.972656 42.195312 9.976562 Z M 40.785156 26.003906 C 40.4375 26 40.160156 25.710938 40.164062 25.363281 C 40.167969 25.011719 40.460938 24.734375 40.816406 24.738281 C 41.164062 24.746094 41.445312 25.03125 41.441406 25.378906 C 41.4375 25.730469 41.144531 26.011719 40.785156 26.003906 Z M 40.800781 22.039062 C 41.128906 22.039062 41.390625 22.292969 41.390625 22.617188 C 41.390625 22.945312 41.136719 23.203125 40.808594 23.207031 C 40.472656 23.210938 40.210938 22.953125 40.210938 22.621094 C 40.214844 22.292969 40.472656 22.039062 40.800781 22.039062 Z M 40.804688 19.34375 C 41.105469 19.34375 41.335938 19.578125 41.335938 19.875 C 41.332031 20.171875 41.097656 20.402344 40.796875 20.402344 C 40.5 20.402344 40.265625 20.167969 40.269531 19.871094 C 40.269531 19.574219 40.503906 19.34375 40.804688 19.34375 Z M 40.800781 16.652344 C 41.074219 16.652344 41.28125 16.859375 41.277344 17.132812 C 41.277344 17.394531 41.066406 17.597656 40.800781 17.597656 C 40.53125 17.597656 40.320312 17.386719 40.324219 17.117188 C 40.328125 16.855469 40.535156 16.652344 40.800781 16.652344 Z M 40.800781 13.964844 C 41.027344 13.964844 41.21875 14.160156 41.214844 14.382812 C 41.207031 14.597656 41.019531 14.78125 40.800781 14.78125 C 40.578125 14.78125 40.386719 14.589844 40.390625 14.367188 C 40.394531 14.148438 40.582031 13.964844 40.800781 13.964844 Z M 40.8125 11.296875 C 40.988281 11.300781 41.132812 11.449219 41.132812 11.625 C 41.132812 11.804688 40.980469 11.957031 40.796875 11.953125 C 40.617188 11.953125 40.464844 11.800781 40.46875 11.617188 C 40.472656 11.4375 40.628906 11.289062 40.8125 11.296875 Z M 40.792969 8.660156 C 40.914062 8.652344 41.019531 8.753906 41.019531 8.871094 C 41.023438 8.988281 40.921875 9.09375 40.800781 9.09375 C 40.683594 9.09375 40.578125 8.988281 40.582031 8.871094 C 40.585938 8.761719 40.679688 8.664062 40.792969 8.660156 Z M 40.117188 29.515625 C 40.105469 29.902344 39.789062 30.203125 39.398438 30.195312 C 39.007812 30.183594 38.703125 29.867188 38.710938 29.484375 C 38.71875 29.097656 39.035156 28.792969 39.421875 28.796875 C 39.820312 28.804688 40.132812 29.125 40.117188 29.515625 Z M 40.164062 32.246094 C 40.164062 32.65625 39.828125 32.988281 39.414062 32.988281 C 39 32.988281 38.664062 32.65625 38.664062 32.246094 C 38.664062 31.835938 39 31.503906 39.414062 31.503906 C 39.828125 31.503906 40.164062 31.835938 40.164062 32.246094 Z M 40.808594 32.855469 C 41.226562 32.863281 41.574219 33.207031 41.570312 33.621094 C 41.570312 34.039062 41.222656 34.382812 40.800781 34.382812 C 40.382812 34.382812 40.035156 34.039062 40.03125 33.625 C 40.027344 33.203125 40.386719 32.851562 40.808594 32.855469 Z M 42.1875 31.503906 C 42.601562 31.503906 42.9375 31.832031 42.9375 32.242188 C 42.9375 32.652344 42.605469 32.988281 42.191406 32.988281 C 41.777344 32.988281 41.441406 32.65625 41.441406 32.246094 C 41.4375 31.835938 41.773438 31.503906 42.1875 31.503906 Z M 42.976562 30.453125 C 43.03125 30.378906 43.085938 30.339844 43.183594 30.347656 C 43.3125 30.355469 43.441406 30.347656 43.570312 30.347656 C 43.699219 30.347656 43.828125 30.355469 43.957031 30.347656 C 44.066406 30.335938 44.128906 30.386719 44.183594 30.46875 C 44.382812 30.769531 44.328125 31.179688 44.054688 31.414062 C 43.777344 31.65625 43.355469 31.652344 43.082031 31.402344 C 42.816406 31.164062 42.769531 30.75 42.976562 30.453125 Z M 44.960938 31.503906 C 45.375 31.503906 45.710938 31.832031 45.710938 32.242188 C 45.710938 32.652344 45.378906 32.988281 44.964844 32.988281 C 44.550781 32.988281 44.214844 32.65625 44.214844 32.246094 C 44.214844 31.835938 44.546875 31.503906 44.960938 31.503906 Z M 45.757812 30.449219 C 45.804688 30.378906 45.859375 30.34375 45.949219 30.347656 C 46.210938 30.351562 46.476562 30.351562 46.738281 30.347656 C 46.835938 30.34375 46.90625 30.367188 46.941406 30.453125 C 47.003906 30.585938 47.054688 30.726562 47.109375 30.863281 C 47.074219 31.191406 46.875 31.464844 46.574219 31.558594 C 46.273438 31.652344 45.945312 31.546875 45.761719 31.296875 C 45.574219 31.042969 45.578125 30.703125 45.757812 30.449219 Z M 47.738281 31.503906 C 48.152344 31.503906 48.484375 31.835938 48.484375 32.246094 C 48.484375 32.65625 48.148438 32.988281 47.734375 32.988281 C 47.320312 32.988281 46.988281 32.65625 46.988281 32.246094 C 46.988281 31.832031 47.324219 31.503906 47.738281 31.503906 Z M 48.546875 30.433594 C 48.582031 30.390625 48.660156 30.355469 48.71875 30.351562 C 48.855469 30.339844 48.996094 30.347656 49.132812 30.347656 C 49.253906 30.347656 49.375 30.363281 49.492188 30.34375 C 49.621094 30.324219 49.679688 30.386719 49.738281 30.476562 C 49.933594 30.78125 49.875 31.191406 49.59375 31.421875 C 49.308594 31.660156 48.890625 31.648438 48.621094 31.394531 C 48.351562 31.144531 48.316406 30.71875 48.546875 30.433594 Z M 50.519531 31.53125 C 50.929688 31.535156 51.261719 31.867188 51.261719 32.28125 C 51.257812 32.691406 50.917969 33.019531 50.503906 33.015625 C 50.089844 33.011719 49.757812 32.675781 49.761719 32.265625 C 49.765625 31.855469 50.105469 31.527344 50.519531 31.53125 Z M 49.128906 34.382812 C 48.707031 34.386719 48.351562 34.035156 48.351562 33.617188 C 48.355469 33.199219 48.707031 32.855469 49.125 32.855469 C 49.542969 32.855469 49.890625 33.203125 49.894531 33.617188 C 49.898438 34.03125 49.550781 34.378906 49.128906 34.382812 Z M 49.902344 36.363281 C 49.90625 36.808594 49.550781 37.167969 49.097656 37.167969 C 48.648438 37.167969 48.289062 36.816406 48.289062 36.371094 C 48.289062 35.921875 48.648438 35.570312 49.101562 35.570312 C 49.542969 35.570312 49.902344 35.921875 49.902344 36.363281 Z M 47.710938 35.773438 C 47.265625 35.773438 46.917969 35.421875 46.925781 34.984375 C 46.929688 34.550781 47.277344 34.214844 47.714844 34.21875 C 48.152344 34.222656 48.496094 34.566406 48.492188 35 C 48.492188 35.429688 48.144531 35.773438 47.710938 35.773438 Z M 46.324219 37.167969 C 45.875 37.167969 45.515625 36.816406 45.515625 36.367188 C 45.515625 35.921875 45.875 35.570312 46.324219 35.570312 C 46.769531 35.570312 47.125 35.925781 47.128906 36.363281 C 47.128906 36.808594 46.773438 37.167969 46.324219 37.167969 Z M 45.578125 33.621094 C 45.578125 33.199219 45.9375 32.847656 46.359375 32.855469 C 46.78125 32.863281 47.125 33.214844 47.121094 33.625 C 47.113281 34.042969 46.765625 34.386719 46.347656 34.382812 C 45.925781 34.382812 45.578125 34.035156 45.578125 33.621094 Z M 44.960938 35.773438 C 44.527344 35.773438 44.179688 35.429688 44.179688 34.996094 C 44.175781 34.558594 44.527344 34.214844 44.96875 34.21875 C 45.40625 34.222656 45.75 34.566406 45.746094 35 C 45.746094 35.429688 45.398438 35.773438 44.960938 35.773438 Z M 43.550781 37.167969 C 43.101562 37.167969 42.742188 36.8125 42.742188 36.367188 C 42.742188 35.921875 43.101562 35.570312 43.554688 35.570312 C 43.996094 35.570312 44.351562 35.925781 44.355469 36.363281 C 44.355469 36.8125 44 37.167969 43.550781 37.167969 Z M 42.804688 33.613281 C 42.808594 33.195312 43.160156 32.855469 43.578125 32.855469 C 44 32.859375 44.347656 33.203125 44.347656 33.621094 C 44.347656 34.035156 44 34.378906 43.578125 34.382812 C 43.15625 34.386719 42.800781 34.03125 42.804688 33.613281 Z M 42.1875 35.773438 C 41.753906 35.773438 41.40625 35.429688 41.402344 35 C 41.402344 34.558594 41.753906 34.214844 42.195312 34.21875 C 42.632812 34.21875 42.972656 34.566406 42.972656 34.996094 C 42.972656 35.429688 42.625 35.773438 42.1875 35.773438 Z M 40.769531 37.167969 C 40.320312 37.167969 39.964844 36.808594 39.96875 36.363281 C 39.96875 35.921875 40.328125 35.570312 40.773438 35.570312 C 41.222656 35.570312 41.582031 35.925781 41.582031 36.371094 C 41.578125 36.816406 41.21875 37.171875 40.769531 37.167969 Z M 38.628906 35 C 38.625 34.5625 38.976562 34.214844 39.417969 34.21875 C 39.855469 34.21875 40.199219 34.5625 40.199219 34.996094 C 40.199219 35.429688 39.855469 35.769531 39.417969 35.773438 C 38.980469 35.773438 38.632812 35.433594 38.628906 35 Z M 38 37.167969 C 37.550781 37.167969 37.191406 36.8125 37.191406 36.367188 C 37.195312 35.921875 37.554688 35.566406 38.007812 35.570312 C 38.449219 35.574219 38.804688 35.925781 38.804688 36.363281 C 38.808594 36.8125 38.449219 37.167969 38 37.167969 Z M 38.839844 39.125 C 38.835938 39.589844 38.457031 39.957031 37.988281 39.953125 C 37.519531 39.945312 37.15625 39.574219 37.160156 39.113281 C 37.160156 38.644531 37.539062 38.277344 38.011719 38.285156 C 38.476562 38.292969 38.84375 38.664062 38.839844 39.125 Z M 36.609375 41.347656 C 36.132812 41.347656 35.75 40.964844 35.75 40.488281 C 35.753906 40.019531 36.136719 39.636719 36.617188 39.640625 C 37.09375 39.640625 37.476562 40.023438 37.472656 40.496094 C 37.472656 40.96875 37.085938 41.347656 36.609375 41.347656 Z M 37.503906 43.253906 C 37.5 43.742188 37.105469 44.128906 36.609375 44.128906 C 36.109375 44.125 35.714844 43.730469 35.71875 43.234375 C 35.722656 42.742188 36.121094 42.355469 36.617188 42.359375 C 37.117188 42.359375 37.507812 42.753906 37.503906 43.253906 Z M 37.542969 45.992188 C 37.542969 46.503906 37.121094 46.917969 36.605469 46.914062 C 36.09375 46.910156 35.683594 46.5 35.683594 45.992188 C 35.683594 45.480469 36.105469 45.066406 36.617188 45.070312 C 37.128906 45.074219 37.542969 45.484375 37.542969 45.992188 Z M 37.574219 48.742188 C 37.574219 49.265625 37.136719 49.695312 36.609375 49.695312 C 36.085938 49.695312 35.648438 49.261719 35.652344 48.742188 C 35.652344 48.21875 36.085938 47.789062 36.613281 47.789062 C 37.140625 47.789062 37.574219 48.222656 37.574219 48.742188 Z M 35.210938 48.300781 C 34.691406 48.296875 34.277344 47.875 34.28125 47.355469 C 34.285156 46.839844 34.707031 46.429688 35.230469 46.429688 C 35.753906 46.433594 36.171875 46.851562 36.167969 47.371094 C 36.167969 47.890625 35.742188 48.308594 35.210938 48.300781 Z M 33.835938 49.695312 C 33.308594 49.691406 32.875 49.257812 32.875 48.738281 C 32.878906 48.214844 33.316406 47.785156 33.84375 47.789062 C 34.371094 47.792969 34.804688 48.222656 34.800781 48.746094 C 34.796875 49.269531 34.359375 49.699219 33.835938 49.695312 Z M 31.507812 47.351562 C 31.511719 46.839844 31.9375 46.429688 32.460938 46.429688 C 32.980469 46.433594 33.398438 46.855469 33.394531 47.375 C 33.394531 47.890625 32.96875 48.304688 32.449219 48.300781 C 31.921875 48.300781 31.503906 47.878906 31.507812 47.351562 Z M 31.058594 49.695312 C 30.53125 49.691406 30.097656 49.257812 30.101562 48.738281 C 30.105469 48.214844 30.542969 47.785156 31.070312 47.789062 C 31.597656 47.792969 32.03125 48.226562 32.027344 48.746094 C 32.023438 49.269531 31.585938 49.699219 31.058594 49.695312 Z M 29.664062 48.300781 C 29.148438 48.296875 28.730469 47.878906 28.734375 47.359375 C 28.734375 46.84375 29.160156 46.429688 29.679688 46.429688 C 30.203125 46.433594 30.621094 46.851562 30.621094 47.367188 C 30.621094 47.890625 30.195312 48.304688 29.664062 48.300781 Z M 28.277344 49.695312 C 27.746094 49.683594 27.316406 49.246094 27.328125 48.730469 C 27.339844 48.203125 27.78125 47.777344 28.300781 47.789062 C 28.832031 47.800781 29.261719 48.234375 29.25 48.753906 C 29.242188 49.28125 28.800781 49.703125 28.277344 49.695312 Z M 25.957031 47.363281 C 25.960938 46.839844 26.386719 46.425781 26.917969 46.429688 C 27.433594 46.4375 27.851562 46.859375 27.847656 47.378906 C 27.84375 47.890625 27.417969 48.304688 26.894531 48.300781 C 26.375 48.300781 25.957031 47.882812 25.957031 47.363281 Z M 25.800781 49.648438 C 25.40625 49.769531 24.972656 49.628906 24.742188 49.300781 C 24.707031 49.25 24.679688 49.171875 24.6875 49.113281 C 24.746094 48.769531 24.8125 48.425781 24.882812 48.085938 C 24.894531 48.035156 24.941406 47.980469 24.984375 47.949219 C 25.304688 47.75 25.636719 47.734375 25.96875 47.90625 C 26.289062 48.070312 26.488281 48.410156 26.476562 48.757812 C 26.464844 49.175781 26.195312 49.53125 25.800781 49.648438 Z M 25.042969 47.246094 C 25.058594 47.25 25.078125 47.253906 25.09375 47.257812 C 25.058594 47.445312 25.023438 47.628906 24.988281 47.816406 C 24.96875 47.8125 24.953125 47.808594 24.933594 47.804688 C 24.96875 47.621094 25.007812 47.433594 25.042969 47.246094 Z M 25.132812 46.691406 C 25.207031 46.292969 25.277344 45.898438 25.351562 45.5 C 25.371094 45.390625 25.386719 45.28125 25.40625 45.171875 C 25.421875 45.101562 25.457031 45.066406 25.539062 45.070312 C 26.039062 45.082031 26.445312 45.496094 26.445312 45.996094 C 26.441406 46.617188 25.832031 47.058594 25.234375 46.875 C 25.128906 46.839844 25.117188 46.785156 25.132812 46.691406 Z M 25.894531 42.449219 C 26.273438 42.621094 26.476562 43.027344 26.394531 43.414062 C 26.316406 43.800781 25.984375 44.097656 25.601562 44.117188 C 25.699219 43.5625 25.796875 43.011719 25.894531 42.449219 Z M 26.90625 40.996094 C 27.382812 40.996094 27.777344 41.382812 27.785156 41.859375 C 27.792969 42.335938 27.390625 42.738281 26.910156 42.742188 C 26.425781 42.746094 26.023438 42.347656 26.023438 41.871094 C 26.019531 41.394531 26.421875 40.992188 26.90625 40.996094 Z M 26.296875 40.183594 C 26.429688 40.496094 26.382812 40.773438 26.152344 41.027344 C 26.199219 40.746094 26.246094 40.464844 26.296875 40.183594 Z M 26.390625 39.636719 C 26.457031 39.300781 26.511719 38.957031 26.570312 38.617188 C 26.582031 38.546875 26.574219 38.46875 26.605469 38.40625 C 26.628906 38.359375 26.6875 38.3125 26.742188 38.300781 C 27.257812 38.195312 27.738281 38.589844 27.742188 39.171875 C 27.738281 39.4375 27.597656 39.6875 27.316406 39.84375 C 27.035156 40 26.75 39.988281 26.46875 39.835938 C 26.382812 39.789062 26.367188 39.734375 26.390625 39.636719 Z M 27.097656 35.597656 C 27.511719 35.664062 27.800781 36.082031 27.730469 36.5 C 27.65625 36.929688 27.246094 37.226562 26.824219 37.152344 C 26.914062 36.632812 27.007812 36.117188 27.097656 35.597656 Z M 27.515625 33.136719 C 27.816406 33.519531 27.726562 34.023438 27.328125 34.261719 C 27.390625 33.890625 27.453125 33.527344 27.515625 33.136719 Z M 27.648438 32.324219 C 27.695312 32.160156 27.703125 31.984375 27.738281 31.820312 C 27.753906 31.765625 27.800781 31.707031 27.847656 31.671875 C 28.089844 31.480469 28.359375 31.449219 28.640625 31.578125 C 28.90625 31.699219 29.066406 31.960938 29.066406 32.304688 C 29.050781 32.5625 28.90625 32.796875 28.613281 32.925781 C 28.332031 33.050781 28.007812 32.984375 27.792969 32.773438 C 27.664062 32.648438 27.59375 32.511719 27.648438 32.324219 Z M 28.042969 30.003906 C 28.105469 29.652344 28.167969 29.296875 28.230469 28.945312 C 28.238281 28.90625 28.238281 28.863281 28.238281 28.816406 C 28.714844 28.722656 29.132812 29.210938 29 29.683594 C 28.894531 30.046875 28.523438 30.257812 28.15625 30.179688 C 28.042969 30.15625 28.027344 30.09375 28.042969 30.003906 Z M 28.683594 26.195312 C 28.921875 26.382812 29.019531 26.597656 28.96875 26.863281 C 28.921875 27.125 28.757812 27.296875 28.484375 27.386719 C 28.550781 26.984375 28.617188 26.601562 28.683594 26.195312 Z M 29.703125 27.441406 C 30.078125 27.4375 30.394531 27.75 30.394531 28.121094 C 30.390625 28.496094 30.074219 28.804688 29.699219 28.804688 C 29.324219 28.800781 29.011719 28.484375 29.015625 28.113281 C 29.023438 27.746094 29.332031 27.441406 29.703125 27.441406 Z M 29.710938 24.738281 C 30.066406 24.738281 30.347656 25.023438 30.34375 25.378906 C 30.34375 25.730469 30.058594 26.007812 29.699219 26.007812 C 29.34375 26.003906 29.0625 25.722656 29.0625 25.367188 C 29.066406 25.011719 29.351562 24.734375 29.710938 24.738281 Z M 29.230469 22.804688 C 29.273438 22.621094 29.285156 22.433594 29.328125 22.25 C 29.34375 22.1875 29.410156 22.117188 29.46875 22.089844 C 29.683594 21.984375 29.953125 22.039062 30.121094 22.207031 C 30.289062 22.371094 30.339844 22.625 30.253906 22.84375 C 30.164062 23.066406 29.945312 23.207031 29.695312 23.222656 C 29.601562 23.191406 29.5 23.171875 29.410156 23.128906 C 29.28125 23.066406 29.195312 22.976562 29.230469 22.804688 Z M 29.792969 19.355469 C 30.109375 19.421875 30.289062 19.6875 30.230469 19.988281 C 30.175781 20.257812 29.90625 20.4375 29.625 20.386719 C 29.683594 20.042969 29.738281 19.699219 29.792969 19.355469 Z M 31.09375 26.085938 C 31.464844 26.089844 31.761719 26.390625 31.757812 26.757812 C 31.75 27.113281 31.453125 27.40625 31.089844 27.40625 C 30.722656 27.402344 30.421875 27.101562 30.425781 26.738281 C 30.433594 26.378906 30.734375 26.085938 31.09375 26.085938 Z M 31.089844 23.390625 C 31.429688 23.386719 31.699219 23.652344 31.707031 23.984375 C 31.710938 24.328125 31.445312 24.601562 31.101562 24.605469 C 30.753906 24.609375 30.480469 24.34375 30.480469 24.003906 C 30.476562 23.660156 30.746094 23.390625 31.089844 23.390625 Z M 31.097656 20.6875 C 31.410156 20.691406 31.65625 20.9375 31.65625 21.25 C 31.65625 21.5625 31.410156 21.808594 31.09375 21.808594 C 30.78125 21.808594 30.53125 21.566406 30.527344 21.253906 C 30.523438 20.9375 30.777344 20.683594 31.097656 20.6875 Z M 31.09375 17.996094 C 31.378906 17.996094 31.601562 18.21875 31.597656 18.503906 C 31.59375 18.785156 31.371094 19.003906 31.082031 19 C 30.796875 18.996094 30.582031 18.769531 30.585938 18.488281 C 30.589844 18.210938 30.8125 17.996094 31.09375 17.996094 Z M 31.089844 15.304688 C 31.339844 15.304688 31.539062 15.5 31.539062 15.746094 C 31.539062 15.996094 31.34375 16.191406 31.09375 16.191406 C 30.84375 16.191406 30.648438 16 30.644531 15.753906 C 30.644531 15.503906 30.839844 15.308594 31.089844 15.304688 Z M 30.804688 12.863281 C 30.828125 12.695312 30.929688 12.628906 31.097656 12.632812 C 31.265625 12.636719 31.414062 12.75 31.453125 12.90625 C 31.492188 13.074219 31.417969 13.246094 31.269531 13.324219 C 31.125 13.402344 30.9375 13.371094 30.824219 13.257812 C 30.695312 13.128906 30.789062 12.992188 30.804688 12.863281 Z M 31.230469 10.027344 C 31.34375 10.089844 31.378906 10.175781 31.367188 10.28125 C 31.351562 10.398438 31.285156 10.480469 31.15625 10.511719 C 31.179688 10.351562 31.207031 10.195312 31.230469 10.027344 Z M 32.480469 27.441406 C 32.855469 27.441406 33.167969 27.753906 33.167969 28.125 C 33.164062 28.5 32.847656 28.808594 32.472656 28.804688 C 32.09375 28.796875 31.78125 28.480469 31.792969 28.109375 C 31.800781 27.742188 32.109375 27.4375 32.480469 27.441406 Z M 32.472656 24.738281 C 32.828125 24.738281 33.117188 25.019531 33.117188 25.371094 C 33.117188 25.71875 32.835938 26 32.484375 26.003906 C 32.128906 26.007812 31.839844 25.722656 31.839844 25.371094 C 31.839844 25.023438 32.125 24.742188 32.472656 24.738281 Z M 32.484375 22.039062 C 32.8125 22.042969 33.070312 22.296875 33.066406 22.625 C 33.066406 22.957031 32.800781 23.210938 32.464844 23.207031 C 32.140625 23.199219 31.886719 22.941406 31.890625 22.613281 C 31.894531 22.289062 32.15625 22.035156 32.484375 22.039062 Z M 32.484375 19.34375 C 32.785156 19.347656 33.015625 19.582031 33.011719 19.878906 C 33.011719 20.175781 32.773438 20.40625 32.472656 20.402344 C 32.171875 20.398438 31.941406 20.164062 31.945312 19.867188 C 31.949219 19.570312 32.183594 19.339844 32.484375 19.34375 Z M 32.480469 16.652344 C 32.75 16.652344 32.960938 16.859375 32.957031 17.132812 C 32.953125 17.394531 32.746094 17.597656 32.476562 17.597656 C 32.207031 17.597656 32 17.386719 32.003906 17.117188 C 32.003906 16.855469 32.214844 16.652344 32.480469 16.652344 Z M 32.476562 13.964844 C 32.703125 13.964844 32.894531 14.160156 32.890625 14.378906 C 32.886719 14.597656 32.699219 14.78125 32.480469 14.78125 C 32.253906 14.78125 32.0625 14.589844 32.066406 14.367188 C 32.070312 14.152344 32.257812 13.96875 32.476562 13.964844 Z M 32.480469 11.296875 C 32.664062 11.296875 32.8125 11.449219 32.8125 11.628906 C 32.808594 11.8125 32.652344 11.960938 32.46875 11.953125 C 32.292969 11.949219 32.148438 11.800781 32.148438 11.625 C 32.144531 11.445312 32.296875 11.292969 32.480469 11.296875 Z M 32.484375 8.652344 C 32.613281 8.652344 32.707031 8.75 32.703125 8.878906 C 32.703125 9.007812 32.605469 9.101562 32.476562 9.101562 C 32.34375 9.097656 32.25 9 32.253906 8.871094 C 32.253906 8.742188 32.351562 8.648438 32.484375 8.652344 Z M 33.867188 26.085938 C 34.238281 26.089844 34.535156 26.390625 34.53125 26.757812 C 34.527344 27.113281 34.226562 27.40625 33.863281 27.40625 C 33.496094 27.40625 33.195312 27.101562 33.203125 26.738281 C 33.207031 26.378906 33.507812 26.085938 33.867188 26.085938 Z M 33.867188 23.390625 C 34.210938 23.390625 34.480469 23.660156 34.480469 24.003906 C 34.476562 24.34375 34.203125 24.609375 33.859375 24.605469 C 33.515625 24.601562 33.25 24.328125 33.253906 23.984375 C 33.257812 23.652344 33.527344 23.390625 33.867188 23.390625 Z M 33.867188 20.6875 C 34.179688 20.6875 34.429688 20.933594 34.429688 21.242188 C 34.433594 21.554688 34.1875 21.804688 33.875 21.808594 C 33.554688 21.8125 33.300781 21.5625 33.300781 21.246094 C 33.304688 20.933594 33.550781 20.6875 33.867188 20.6875 Z M 33.878906 17.996094 C 34.15625 18 34.371094 18.222656 34.371094 18.5 C 34.371094 18.78125 34.148438 19.003906 33.863281 19 C 33.574219 19 33.355469 18.773438 33.359375 18.492188 C 33.363281 18.207031 33.589844 17.992188 33.878906 17.996094 Z M 33.863281 15.304688 C 34.113281 15.304688 34.3125 15.5 34.3125 15.746094 C 34.3125 15.996094 34.121094 16.191406 33.867188 16.191406 C 33.617188 16.191406 33.421875 16 33.417969 15.753906 C 33.417969 15.503906 33.613281 15.308594 33.863281 15.304688 Z M 33.859375 12.632812 C 34.074219 12.628906 34.238281 12.796875 34.238281 13.003906 C 34.234375 13.210938 34.070312 13.367188 33.863281 13.367188 C 33.65625 13.367188 33.496094 13.207031 33.496094 13 C 33.496094 12.796875 33.65625 12.636719 33.859375 12.632812 Z M 33.867188 9.976562 C 34.019531 9.976562 34.148438 10.105469 34.144531 10.257812 C 34.140625 10.40625 34.015625 10.523438 33.867188 10.523438 C 33.710938 10.523438 33.585938 10.394531 33.589844 10.242188 C 33.59375 10.097656 33.71875 9.976562 33.867188 9.976562 Z M 35.265625 27.441406 C 35.636719 27.449219 35.941406 27.757812 35.941406 28.125 C 35.9375 28.496094 35.621094 28.808594 35.246094 28.804688 C 34.871094 28.796875 34.558594 28.484375 34.566406 28.113281 C 34.570312 27.738281 34.894531 27.429688 35.265625 27.441406 Z M 35.257812 24.738281 C 35.613281 24.742188 35.894531 25.027344 35.890625 25.382812 C 35.886719 25.726562 35.601562 26.007812 35.25 26.003906 C 34.894531 26.003906 34.609375 25.714844 34.613281 25.363281 C 34.621094 25.015625 34.90625 24.738281 35.257812 24.738281 Z M 35.253906 22.039062 C 35.582031 22.039062 35.839844 22.292969 35.84375 22.621094 C 35.84375 22.949219 35.585938 23.203125 35.257812 23.207031 C 34.921875 23.210938 34.660156 22.949219 34.664062 22.617188 C 34.667969 22.292969 34.925781 22.039062 35.253906 22.039062 Z M 35.253906 19.34375 C 35.554688 19.34375 35.789062 19.578125 35.789062 19.875 C 35.785156 20.171875 35.550781 20.402344 35.25 20.402344 C 34.953125 20.402344 34.71875 20.167969 34.71875 19.871094 C 34.71875 19.574219 34.953125 19.34375 35.253906 19.34375 Z M 35.265625 16.652344 C 35.53125 16.65625 35.734375 16.863281 35.730469 17.128906 C 35.726562 17.398438 35.515625 17.601562 35.242188 17.597656 C 34.976562 17.589844 34.773438 17.382812 34.777344 17.117188 C 34.777344 16.851562 34.992188 16.644531 35.265625 16.652344 Z M 35.265625 13.964844 C 35.488281 13.976562 35.667969 14.164062 35.664062 14.378906 C 35.660156 14.601562 35.464844 14.789062 35.242188 14.78125 C 35.019531 14.773438 34.835938 14.585938 34.839844 14.367188 C 34.847656 14.144531 35.042969 13.957031 35.265625 13.964844 Z M 35.25 11.296875 C 35.433594 11.296875 35.585938 11.445312 35.585938 11.625 C 35.585938 11.808594 35.429688 11.957031 35.246094 11.953125 C 35.066406 11.953125 34.917969 11.796875 34.921875 11.617188 C 34.925781 11.441406 35.074219 11.296875 35.25 11.296875 Z M 35.253906 8.652344 C 35.382812 8.652344 35.480469 8.75 35.480469 8.875 C 35.480469 9.003906 35.382812 9.101562 35.253906 9.101562 C 35.121094 9.097656 35.027344 9.003906 35.027344 8.875 C 35.027344 8.746094 35.125 8.652344 35.253906 8.652344 Z M 36.644531 26.085938 C 37.011719 26.089844 37.3125 26.390625 37.304688 26.757812 C 37.300781 27.117188 37 27.40625 36.636719 27.40625 C 36.269531 27.402344 35.96875 27.101562 35.976562 26.734375 C 35.980469 26.378906 36.28125 26.085938 36.644531 26.085938 Z M 36.644531 23.390625 C 36.988281 23.390625 37.257812 23.664062 37.253906 24.003906 C 37.25 24.347656 36.976562 24.609375 36.628906 24.605469 C 36.292969 24.601562 36.027344 24.332031 36.027344 23.996094 C 36.027344 23.65625 36.300781 23.386719 36.644531 23.390625 Z M 36.644531 20.6875 C 36.957031 20.691406 37.203125 20.9375 37.207031 21.246094 C 37.207031 21.558594 36.957031 21.804688 36.644531 21.808594 C 36.332031 21.808594 36.078125 21.566406 36.074219 21.253906 C 36.070312 20.9375 36.324219 20.6875 36.644531 20.6875 Z M 36.648438 17.996094 C 36.933594 18 37.152344 18.226562 37.148438 18.507812 C 37.140625 18.792969 36.914062 19.007812 36.625 19 C 36.347656 18.992188 36.132812 18.773438 36.132812 18.496094 C 36.136719 18.210938 36.363281 17.992188 36.648438 17.996094 Z M 36.644531 15.304688 C 36.894531 15.308594 37.089844 15.503906 37.085938 15.753906 C 37.085938 16 36.886719 16.191406 36.636719 16.191406 C 36.386719 16.191406 36.191406 15.996094 36.195312 15.746094 C 36.195312 15.5 36.394531 15.304688 36.644531 15.304688 Z M 36.644531 12.632812 C 36.851562 12.636719 37.011719 12.796875 37.011719 13 C 37.011719 13.207031 36.847656 13.367188 36.640625 13.367188 C 36.429688 13.367188 36.265625 13.203125 36.269531 12.992188 C 36.273438 12.789062 36.4375 12.628906 36.644531 12.632812 Z M 36.644531 9.976562 C 36.792969 9.976562 36.914062 10.101562 36.917969 10.246094 C 36.917969 10.398438 36.789062 10.527344 36.636719 10.523438 C 36.488281 10.523438 36.363281 10.398438 36.363281 10.253906 C 36.363281 10.101562 36.492188 9.972656 36.644531 9.976562 Z M 38.019531 31.589844 C 37.613281 31.589844 37.296875 31.265625 37.300781 30.859375 C 37.304688 30.457031 37.628906 30.144531 38.039062 30.148438 C 38.441406 30.15625 38.757812 30.472656 38.753906 30.875 C 38.753906 31.277344 38.429688 31.59375 38.019531 31.589844 Z M 37.257812 33.621094 C 37.257812 33.203125 37.605469 32.859375 38.023438 32.855469 C 38.441406 32.855469 38.792969 33.199219 38.796875 33.613281 C 38.800781 34.027344 38.457031 34.375 38.035156 34.382812 C 37.617188 34.390625 37.257812 34.039062 37.257812 33.621094 Z M 35.855469 34.996094 C 35.855469 34.558594 36.207031 34.214844 36.648438 34.21875 C 37.085938 34.222656 37.425781 34.566406 37.425781 35 C 37.421875 35.433594 37.078125 35.773438 36.640625 35.773438 C 36.203125 35.769531 35.855469 35.429688 35.855469 34.996094 Z M 35.785156 37.742188 C 35.785156 37.292969 36.164062 36.921875 36.617188 36.921875 C 37.066406 36.925781 37.4375 37.292969 37.441406 37.738281 C 37.445312 38.1875 37.066406 38.5625 36.613281 38.5625 C 36.164062 38.566406 35.785156 38.191406 35.785156 37.742188 Z M 35.214844 39.953125 C 34.75 39.945312 34.382812 39.578125 34.382812 39.113281 C 34.386719 38.648438 34.765625 38.28125 35.234375 38.285156 C 35.703125 38.292969 36.066406 38.660156 36.066406 39.121094 C 36.0625 39.589844 35.6875 39.957031 35.214844 39.953125 Z M 35.210938 42.742188 C 34.722656 42.730469 34.328125 42.324219 34.34375 41.847656 C 34.359375 41.367188 34.769531 40.976562 35.246094 40.996094 C 35.734375 41.011719 36.125 41.421875 36.105469 41.894531 C 36.085938 42.375 35.683594 42.753906 35.210938 42.742188 Z M 34.3125 44.625 C 34.308594 44.128906 34.71875 43.714844 35.222656 43.714844 C 35.722656 43.710938 36.132812 44.117188 36.136719 44.609375 C 36.144531 45.105469 35.730469 45.519531 35.226562 45.523438 C 34.730469 45.523438 34.316406 45.117188 34.3125 44.625 Z M 33.84375 45.070312 C 34.355469 45.074219 34.765625 45.484375 34.769531 45.988281 C 34.769531 46.5 34.347656 46.917969 33.832031 46.914062 C 33.320312 46.910156 32.910156 46.5 32.910156 45.992188 C 32.90625 45.484375 33.328125 45.066406 33.84375 45.070312 Z M 31.539062 44.601562 C 31.546875 44.109375 31.964844 43.707031 32.460938 43.714844 C 32.964844 43.71875 33.375 44.136719 33.363281 44.632812 C 33.355469 45.128906 32.9375 45.527344 32.441406 45.523438 C 31.9375 45.515625 31.53125 45.097656 31.539062 44.601562 Z M 31.066406 45.070312 C 31.582031 45.074219 32 45.492188 31.992188 46 C 31.984375 46.511719 31.570312 46.914062 31.0625 46.914062 C 30.542969 46.910156 30.128906 46.492188 30.136719 45.980469 C 30.144531 45.472656 30.558594 45.070312 31.066406 45.070312 Z M 28.765625 44.601562 C 28.773438 44.109375 29.1875 43.707031 29.6875 43.714844 C 30.1875 43.71875 30.597656 44.136719 30.589844 44.632812 C 30.582031 45.125 30.164062 45.527344 29.667969 45.523438 C 29.164062 45.515625 28.753906 45.101562 28.765625 44.601562 Z M 28.292969 45.070312 C 28.808594 45.070312 29.226562 45.492188 29.21875 46 C 29.214844 46.507812 28.800781 46.914062 28.289062 46.914062 C 27.773438 46.910156 27.355469 46.492188 27.359375 45.984375 C 27.367188 45.476562 27.78125 45.070312 28.292969 45.070312 Z M 27.816406 44.617188 C 27.816406 45.117188 27.402344 45.527344 26.898438 45.523438 C 26.394531 45.523438 25.984375 45.109375 25.988281 44.609375 C 25.992188 44.109375 26.40625 43.707031 26.914062 43.710938 C 27.410156 43.714844 27.816406 44.125 27.816406 44.617188 Z M 28.292969 42.359375 C 28.789062 42.359375 29.183594 42.75 29.183594 43.242188 C 29.183594 43.738281 28.789062 44.128906 28.285156 44.128906 C 27.789062 44.125 27.398438 43.734375 27.398438 43.246094 C 27.394531 42.75 27.792969 42.355469 28.292969 42.359375 Z M 28.285156 39.640625 C 28.765625 39.636719 29.148438 40.015625 29.152344 40.488281 C 29.152344 40.964844 28.769531 41.347656 28.292969 41.347656 C 27.816406 41.347656 27.429688 40.96875 27.429688 40.496094 C 27.425781 40.023438 27.808594 39.640625 28.285156 39.640625 Z M 28.289062 36.921875 C 28.738281 36.921875 29.117188 37.296875 29.117188 37.746094 C 29.117188 38.191406 28.738281 38.566406 28.285156 38.5625 C 27.835938 38.5625 27.464844 38.195312 27.460938 37.75 C 27.457031 37.300781 27.835938 36.925781 28.289062 36.921875 Z M 29.105469 35 C 29.105469 35.429688 28.753906 35.773438 28.320312 35.777344 C 27.886719 35.777344 27.535156 35.4375 27.527344 35.003906 C 27.523438 34.566406 27.875 34.214844 28.316406 34.210938 C 28.753906 34.210938 29.109375 34.5625 29.105469 35 Z M 29.703125 32.855469 C 30.121094 32.855469 30.46875 33.199219 30.476562 33.613281 C 30.480469 34.027344 30.136719 34.375 29.714844 34.382812 C 29.292969 34.390625 28.933594 34.039062 28.933594 33.621094 C 28.933594 33.203125 29.28125 32.859375 29.703125 32.855469 Z M 30.433594 30.871094 C 30.433594 31.277344 30.109375 31.59375 29.699219 31.589844 C 29.292969 31.589844 28.972656 31.269531 28.976562 30.863281 C 28.980469 30.457031 29.308594 30.144531 29.714844 30.148438 C 30.117188 30.15625 30.433594 30.472656 30.433594 30.871094 Z M 31.089844 30.195312 C 30.695312 30.191406 30.378906 29.875 30.386719 29.484375 C 30.394531 29.097656 30.710938 28.792969 31.101562 28.796875 C 31.492188 28.804688 31.800781 29.117188 31.796875 29.5 C 31.792969 29.890625 31.480469 30.195312 31.089844 30.195312 Z M 33.207031 30.882812 C 33.203125 31.285156 32.875 31.597656 32.464844 31.589844 C 32.0625 31.585938 31.75 31.265625 31.75 30.867188 C 31.753906 30.460938 32.078125 30.148438 32.488281 30.148438 C 32.894531 30.152344 33.210938 30.476562 33.207031 30.882812 Z M 33.859375 30.195312 C 33.46875 30.191406 33.160156 29.878906 33.160156 29.492188 C 33.160156 29.101562 33.484375 28.789062 33.878906 28.796875 C 34.269531 28.804688 34.578125 29.117188 34.570312 29.503906 C 34.566406 29.890625 34.25 30.199219 33.859375 30.195312 Z M 35.980469 30.882812 C 35.972656 31.285156 35.648438 31.597656 35.238281 31.589844 C 34.835938 31.585938 34.523438 31.265625 34.527344 30.863281 C 34.527344 30.460938 34.851562 30.144531 35.261719 30.148438 C 35.667969 30.152344 35.984375 30.476562 35.980469 30.882812 Z M 36.636719 30.195312 C 36.246094 30.195312 35.9375 29.882812 35.933594 29.496094 C 35.933594 29.105469 36.253906 28.792969 36.648438 28.796875 C 37.039062 28.800781 37.347656 29.117188 37.34375 29.5 C 37.339844 29.890625 37.027344 30.195312 36.636719 30.195312 Z M 35.890625 32.242188 C 35.894531 31.832031 36.230469 31.5 36.644531 31.503906 C 37.058594 31.503906 37.390625 31.839844 37.390625 32.25 C 37.386719 32.660156 37.050781 32.988281 36.636719 32.988281 C 36.222656 32.984375 35.890625 32.652344 35.890625 32.242188 Z M 35.242188 34.382812 C 34.820312 34.375 34.476562 34.023438 34.484375 33.609375 C 34.488281 33.195312 34.84375 32.851562 35.257812 32.855469 C 35.679688 32.859375 36.027344 33.207031 36.023438 33.621094 C 36.023438 34.042969 35.660156 34.394531 35.242188 34.382812 Z M 34.417969 36.367188 C 34.417969 35.921875 34.777344 35.570312 35.230469 35.570312 C 35.679688 35.570312 36.035156 35.929688 36.03125 36.375 C 36.027344 36.820312 35.667969 37.171875 35.214844 37.167969 C 34.773438 37.164062 34.417969 36.808594 34.417969 36.367188 Z M 33.835938 38.5625 C 33.382812 38.5625 33.007812 38.1875 33.011719 37.738281 C 33.015625 37.292969 33.386719 36.925781 33.832031 36.921875 C 34.285156 36.921875 34.664062 37.292969 34.667969 37.742188 C 34.667969 38.191406 34.289062 38.566406 33.835938 38.5625 Z M 33.835938 41.347656 C 33.359375 41.347656 32.976562 40.964844 32.976562 40.488281 C 32.976562 40.019531 33.363281 39.636719 33.839844 39.640625 C 34.320312 39.640625 34.699219 40.023438 34.699219 40.496094 C 34.699219 40.96875 34.3125 41.347656 33.835938 41.347656 Z M 33.84375 42.359375 C 34.335938 42.359375 34.730469 42.75 34.730469 43.238281 C 34.730469 43.738281 34.335938 44.128906 33.835938 44.128906 C 33.339844 44.125 32.945312 43.738281 32.945312 43.246094 C 32.945312 42.75 33.339844 42.355469 33.84375 42.359375 Z M 31.570312 41.847656 C 31.585938 41.363281 32 40.976562 32.476562 40.996094 C 32.964844 41.015625 33.351562 41.421875 33.332031 41.894531 C 33.3125 42.375 32.90625 42.753906 32.433594 42.742188 C 31.949219 42.726562 31.554688 42.320312 31.570312 41.847656 Z M 31.0625 42.359375 C 31.566406 42.359375 31.960938 42.753906 31.957031 43.25 C 31.953125 43.738281 31.558594 44.128906 31.0625 44.128906 C 30.5625 44.128906 30.167969 43.734375 30.171875 43.234375 C 30.175781 42.746094 30.570312 42.359375 31.0625 42.359375 Z M 29.675781 40.996094 C 30.15625 40.992188 30.558594 41.390625 30.558594 41.871094 C 30.558594 42.34375 30.164062 42.734375 29.6875 42.742188 C 29.207031 42.75 28.800781 42.351562 28.796875 41.875 C 28.792969 41.398438 29.191406 40.996094 29.675781 40.996094 Z M 29.683594 38.285156 C 30.148438 38.289062 30.515625 38.65625 30.515625 39.117188 C 30.519531 39.585938 30.140625 39.953125 29.671875 39.953125 C 29.203125 39.949219 28.835938 39.582031 28.835938 39.117188 C 28.835938 38.652344 29.210938 38.28125 29.683594 38.285156 Z M 30.484375 36.386719 C 30.476562 36.824219 30.113281 37.171875 29.667969 37.167969 C 29.21875 37.164062 28.867188 36.804688 28.871094 36.355469 C 28.875 35.914062 29.238281 35.566406 29.691406 35.570312 C 30.140625 35.574219 30.492188 35.9375 30.484375 36.386719 Z M 31.097656 34.21875 C 31.535156 34.21875 31.878906 34.5625 31.875 34.996094 C 31.875 35.433594 31.523438 35.777344 31.078125 35.773438 C 30.644531 35.765625 30.304688 35.417969 30.308594 34.988281 C 30.3125 34.554688 30.660156 34.214844 31.097656 34.21875 Z M 31.09375 32.988281 C 30.679688 32.988281 30.34375 32.65625 30.34375 32.246094 C 30.34375 31.835938 30.675781 31.503906 31.089844 31.503906 C 31.503906 31.503906 31.839844 31.832031 31.839844 32.246094 C 31.839844 32.65625 31.507812 32.988281 31.09375 32.988281 Z M 33.25 33.625 C 33.246094 34.039062 32.898438 34.382812 32.480469 34.382812 C 32.054688 34.382812 31.699219 34.027344 31.707031 33.609375 C 31.714844 33.191406 32.070312 32.851562 32.484375 32.855469 C 32.90625 32.863281 33.253906 33.210938 33.25 33.625 Z M 33.859375 32.988281 C 33.445312 32.984375 33.113281 32.648438 33.117188 32.238281 C 33.121094 31.828125 33.457031 31.5 33.875 31.503906 C 34.285156 31.507812 34.617188 31.839844 34.613281 32.253906 C 34.613281 32.664062 34.273438 32.992188 33.859375 32.988281 Z M 33.082031 34.980469 C 33.089844 34.546875 33.441406 34.210938 33.878906 34.21875 C 34.316406 34.222656 34.65625 34.570312 34.648438 35.003906 C 34.644531 35.441406 34.289062 35.78125 33.847656 35.773438 C 33.410156 35.761719 33.074219 35.414062 33.082031 34.980469 Z M 32.433594 37.167969 C 31.988281 37.164062 31.636719 36.800781 31.644531 36.351562 C 31.652344 35.914062 32.015625 35.566406 32.460938 35.570312 C 32.910156 35.574219 33.261719 35.933594 33.257812 36.382812 C 33.253906 36.824219 32.886719 37.175781 32.433594 37.167969 Z M 31.609375 39.121094 C 31.609375 38.652344 31.984375 38.28125 32.457031 38.285156 C 32.921875 38.289062 33.292969 38.65625 33.292969 39.117188 C 33.292969 39.585938 32.917969 39.953125 32.445312 39.953125 C 31.980469 39.949219 31.613281 39.582031 31.609375 39.121094 Z M 31.066406 38.5625 C 30.613281 38.566406 30.234375 38.191406 30.238281 37.742188 C 30.238281 37.292969 30.617188 36.921875 31.070312 36.921875 C 31.515625 36.925781 31.886719 37.292969 31.890625 37.738281 C 31.894531 38.1875 31.519531 38.5625 31.066406 38.5625 Z M 31.066406 39.640625 C 31.542969 39.640625 31.925781 40.023438 31.925781 40.496094 C 31.925781 40.96875 31.539062 41.347656 31.0625 41.347656 C 30.582031 41.347656 30.203125 40.964844 30.203125 40.488281 C 30.203125 40.019531 30.589844 39.636719 31.066406 39.640625 Z M 38.019531 27.441406 C 38.390625 27.433594 38.710938 27.742188 38.714844 28.117188 C 38.71875 28.484375 38.40625 28.800781 38.03125 28.804688 C 37.65625 28.804688 37.339844 28.492188 37.339844 28.121094 C 37.339844 27.753906 37.644531 27.445312 38.019531 27.441406 Z M 38.039062 24.738281 C 38.386719 24.742188 38.667969 25.027344 38.664062 25.375 C 38.664062 25.726562 38.375 26.007812 38.015625 26.003906 C 37.667969 26 37.386719 25.714844 37.390625 25.367188 C 37.390625 25.015625 37.679688 24.734375 38.039062 24.738281 Z M 38.03125 22.039062 C 38.359375 22.039062 38.617188 22.296875 38.617188 22.625 C 38.617188 22.949219 38.359375 23.207031 38.03125 23.207031 C 37.695312 23.207031 37.433594 22.945312 37.4375 22.613281 C 37.441406 22.289062 37.703125 22.035156 38.03125 22.039062 Z M 38.03125 19.34375 C 38.332031 19.347656 38.5625 19.578125 38.5625 19.878906 C 38.558594 20.175781 38.324219 20.40625 38.023438 20.402344 C 37.722656 20.398438 37.492188 20.167969 37.492188 19.867188 C 37.496094 19.570312 37.730469 19.34375 38.03125 19.34375 Z M 38.03125 16.652344 C 38.300781 16.652344 38.507812 16.863281 38.503906 17.136719 C 38.5 17.398438 38.289062 17.597656 38.023438 17.597656 C 37.753906 17.59375 37.546875 17.382812 37.550781 17.113281 C 37.554688 16.851562 37.765625 16.648438 38.03125 16.652344 Z M 38.027344 13.964844 C 38.246094 13.964844 38.433594 14.148438 38.4375 14.367188 C 38.445312 14.589844 38.25 14.78125 38.027344 14.78125 C 37.808594 14.78125 37.621094 14.597656 37.617188 14.382812 C 37.609375 14.160156 37.804688 13.964844 38.027344 13.964844 Z M 38.03125 11.296875 C 38.210938 11.296875 38.363281 11.449219 38.359375 11.632812 C 38.355469 11.8125 38.199219 11.960938 38.019531 11.953125 C 37.835938 11.949219 37.6875 11.792969 37.695312 11.613281 C 37.703125 11.4375 37.851562 11.292969 38.03125 11.296875 Z M 38.03125 8.652344 C 38.160156 8.652344 38.253906 8.75 38.253906 8.878906 C 38.253906 9.007812 38.15625 9.101562 38.023438 9.101562 C 37.894531 9.097656 37.800781 9 37.800781 8.871094 C 37.800781 8.746094 37.898438 8.648438 38.03125 8.652344 Z M 39.414062 26.085938 C 39.78125 26.085938 40.082031 26.386719 40.078125 26.753906 C 40.078125 27.113281 39.777344 27.40625 39.414062 27.40625 C 39.046875 27.40625 38.746094 27.105469 38.75 26.742188 C 38.753906 26.382812 39.050781 26.085938 39.414062 26.085938 Z M 39.425781 23.390625 C 39.765625 23.394531 40.027344 23.664062 40.027344 24 C 40.027344 24.339844 39.753906 24.609375 39.410156 24.605469 C 39.066406 24.601562 38.796875 24.332031 38.800781 23.988281 C 38.804688 23.648438 39.082031 23.382812 39.425781 23.390625 Z M 39.4375 20.6875 C 39.75 20.699219 39.988281 20.957031 39.980469 21.269531 C 39.96875 21.578125 39.710938 21.816406 39.398438 21.808594 C 39.078125 21.796875 38.835938 21.539062 38.851562 21.222656 C 38.863281 20.910156 39.121094 20.675781 39.4375 20.6875 Z M 39.421875 17.996094 C 39.703125 18 39.921875 18.21875 39.921875 18.496094 C 39.921875 18.78125 39.699219 19 39.414062 19 C 39.125 19 38.90625 18.777344 38.90625 18.492188 C 38.910156 18.210938 39.136719 17.992188 39.421875 17.996094 Z M 39.414062 15.304688 C 39.667969 15.308594 39.863281 15.503906 39.859375 15.75 C 39.859375 16 39.664062 16.191406 39.414062 16.191406 C 39.164062 16.191406 38.96875 15.996094 38.96875 15.75 C 38.96875 15.5 39.164062 15.304688 39.414062 15.304688 Z M 39.421875 12.632812 C 39.628906 12.636719 39.789062 12.800781 39.785156 13.003906 C 39.78125 13.210938 39.617188 13.367188 39.414062 13.367188 C 39.199219 13.367188 39.039062 13.199219 39.042969 12.988281 C 39.050781 12.785156 39.214844 12.628906 39.421875 12.632812 Z M 39.421875 9.976562 C 39.570312 9.980469 39.691406 10.105469 39.691406 10.25 C 39.691406 10.402344 39.558594 10.527344 39.40625 10.523438 C 39.257812 10.519531 39.136719 10.398438 39.136719 10.25 C 39.136719 10.097656 39.269531 9.972656 39.421875 9.976562 Z M 56.058594 9.996094 C 56.21875 10 56.339844 10.117188 56.34375 10.277344 C 56.34375 10.441406 56.21875 10.5625 56.050781 10.558594 C 55.890625 10.554688 55.773438 10.433594 55.777344 10.273438 C 55.777344 10.117188 55.898438 9.996094 56.058594 9.996094 Z M 56.058594 7.378906 C 56.15625 7.378906 56.222656 7.441406 56.207031 7.535156 C 56.195312 7.597656 56.128906 7.648438 56.085938 7.703125 C 56.066406 7.703125 56.046875 7.703125 56.023438 7.703125 C 55.984375 7.640625 55.921875 7.585938 55.910156 7.519531 C 55.898438 7.433594 55.96875 7.378906 56.058594 7.378906 Z M 55.707031 13.148438 C 55.660156 13.007812 55.6875 12.875 55.796875 12.765625 C 55.90625 12.660156 56.027344 12.640625 56.171875 12.675781 L 57.449219 7.171875 L 53.339844 7.386719 C 53.410156 7.414062 53.4375 7.464844 53.4375 7.527344 C 53.4375 7.625 53.375 7.683594 53.277344 7.679688 C 53.1875 7.675781 53.121094 7.613281 53.136719 7.527344 C 53.148438 7.476562 53.203125 7.433594 53.246094 7.390625 L 31.433594 8.523438 C 29.816406 19.5 27.820312 31.625 25.441406 44.90625 C 24.179688 52.121094 22.789062 58.460938 21.273438 63.921875 C 21.285156 63.921875 21.296875 63.917969 21.308594 63.914062 C 21.769531 62.128906 22.226562 60.351562 22.6875 58.566406 C 22.789062 58.574219 22.898438 58.578125 22.996094 58.585938 C 23.003906 58.402344 23.011719 58.226562 23.019531 58.050781 C 22.957031 58.054688 22.882812 58.0625 22.796875 58.070312 C 23.105469 56.683594 23.414062 55.3125 23.726562 53.917969 C 23.808594 54.164062 23.789062 54.386719 23.707031 54.636719 C 23.988281 54.542969 24.261719 54.53125 24.550781 54.640625 C 24.457031 54.34375 24.453125 54.066406 24.59375 53.773438 C 24.296875 53.878906 24.019531 53.914062 23.746094 53.789062 C 23.878906 53.152344 24.011719 52.519531 24.148438 51.851562 C 24.308594 51.890625 24.472656 51.925781 24.640625 51.96875 C 24.464844 51.621094 24.480469 51.273438 24.695312 50.925781 C 24.570312 50.976562 24.460938 51.023438 24.308594 51.085938 C 24.425781 50.472656 24.539062 49.898438 24.648438 49.316406 C 25.097656 49.53125 25.222656 50.113281 24.933594 50.683594 C 25.324219 50.449219 25.699219 50.445312 26.105469 50.691406 C 25.949219 50.4375 25.894531 50.195312 25.941406 49.941406 C 25.988281 49.683594 26.125 49.472656 26.34375 49.320312 C 26.714844 49.0625 27.214844 49.09375 27.558594 49.398438 C 27.851562 49.660156 28.023438 50.152344 27.703125 50.683594 C 28.097656 50.457031 28.472656 50.445312 28.882812 50.691406 C 28.722656 50.429688 28.664062 50.183594 28.722656 49.921875 C 28.777344 49.65625 28.917969 49.449219 29.148438 49.300781 C 29.515625 49.066406 29.992188 49.101562 30.332031 49.394531 C 30.679688 49.695312 30.738281 50.136719 30.5 50.660156 C 31.082031 50.449219 31.09375 50.449219 31.625 50.660156 C 31.378906 50.078125 31.460938 49.632812 31.871094 49.335938 C 32.246094 49.066406 32.746094 49.085938 33.101562 49.390625 C 33.382812 49.636719 33.582031 50.128906 33.253906 50.683594 C 33.648438 50.453125 34.023438 50.445312 34.429688 50.691406 C 34.269531 50.433594 34.214844 50.1875 34.265625 49.929688 C 34.320312 49.667969 34.460938 49.457031 34.6875 49.308594 C 35.0625 49.0625 35.554688 49.101562 35.890625 49.40625 C 36.238281 49.714844 36.296875 50.183594 36.03125 50.683594 C 36.425781 50.453125 36.800781 50.445312 37.1875 50.683594 C 36.890625 50.042969 37.0625 49.460938 37.605469 49.238281 L 37.757812 48.261719 C 37.324219 48.175781 37.007812 47.722656 37.058594 47.257812 C 37.113281 46.777344 37.539062 46.417969 38.042969 46.441406 L 38.191406 45.492188 C 37.820312 45.566406 37.464844 45.433594 37.253906 45.136719 C 37.035156 44.824219 37.03125 44.421875 37.25 44.105469 C 37.464844 43.796875 37.847656 43.652344 38.222656 43.742188 C 38.34375 43.769531 38.414062 43.800781 38.449219 43.851562 L 38.515625 43.425781 C 38.472656 43.199219 38.503906 43 38.613281 42.820312 L 38.671875 42.433594 C 38.570312 42.578125 38.398438 42.664062 38.214844 42.710938 C 37.773438 42.828125 37.3125 42.578125 37.167969 42.144531 C 37.019531 41.707031 37.238281 41.234375 37.671875 41.058594 C 38.101562 40.890625 38.585938 41.074219 38.785156 41.484375 C 38.796875 41.507812 38.804688 41.527344 38.8125 41.550781 L 38.871094 41.171875 C 38.613281 40.960938 38.496094 40.707031 38.535156 40.394531 C 38.574219 40.058594 38.765625 39.832031 39.105469 39.691406 L 39.285156 38.546875 C 38.902344 38.511719 38.605469 38.210938 38.5625 37.808594 C 38.523438 37.425781 38.804688 37.039062 39.1875 36.949219 C 39.542969 36.867188 39.898438 37.011719 40.089844 37.3125 C 40.273438 37.613281 40.253906 37.992188 40.023438 38.261719 C 40.003906 38.28125 39.980469 38.296875 39.949219 38.3125 C 40.160156 38.316406 40.367188 38.324219 40.570312 38.332031 C 40.714844 38.28125 40.863281 38.285156 41.011719 38.34375 C 41.21875 38.351562 41.425781 38.355469 41.628906 38.363281 C 41.613281 38.351562 41.601562 38.34375 41.589844 38.332031 C 41.335938 38.097656 41.265625 37.71875 41.410156 37.398438 C 41.554688 37.09375 41.890625 36.898438 42.21875 36.925781 C 42.578125 36.957031 42.878906 37.207031 42.960938 37.542969 C 43.019531 37.789062 42.972656 38.015625 42.832031 38.222656 C 42.78125 38.296875 42.722656 38.355469 42.660156 38.394531 C 42.824219 38.398438 42.988281 38.402344 43.148438 38.40625 C 43.367188 38.246094 43.792969 38.261719 44.007812 38.433594 C 44.183594 38.4375 44.355469 38.445312 44.523438 38.449219 C 44.328125 38.363281 44.207031 38.183594 44.144531 37.976562 C 44.019531 37.570312 44.238281 37.132812 44.640625 36.980469 C 45.046875 36.824219 45.503906 37.011719 45.683594 37.402344 C 45.863281 37.792969 45.714844 38.253906 45.335938 38.457031 C 45.324219 38.460938 45.3125 38.464844 45.300781 38.46875 C 45.46875 38.476562 45.636719 38.480469 45.796875 38.484375 C 46.132812 38.210938 46.636719 38.234375 46.878906 38.515625 C 47.089844 38.519531 47.289062 38.527344 47.484375 38.53125 C 47.128906 38.429688 46.871094 38.101562 46.882812 37.726562 C 46.894531 37.28125 47.269531 36.917969 47.71875 36.921875 C 48.171875 36.929688 48.546875 37.308594 48.535156 37.757812 C 48.53125 38.136719 48.253906 38.457031 47.898438 38.542969 C 48.109375 38.546875 48.308594 38.550781 48.496094 38.554688 C 48.867188 38.195312 49.453125 38.21875 49.714844 38.582031 C 50.050781 38.589844 50.304688 38.59375 50.472656 38.59375 L 50.472656 38.589844 C 50.457031 38.59375 50.433594 38.589844 50.414062 38.589844 C 49.988281 38.550781 49.652344 38.1875 49.65625 37.765625 C 49.660156 37.25 50.148438 36.863281 50.660156 36.96875 C 50.683594 36.976562 50.703125 36.984375 50.71875 36.996094 L 50.925781 35.648438 C 50.910156 35.671875 50.890625 35.691406 50.867188 35.703125 C 50.582031 35.867188 50.214844 35.828125 49.964844 35.613281 C 49.71875 35.402344 49.628906 35.050781 49.742188 34.75 C 49.855469 34.445312 50.148438 34.242188 50.507812 34.238281 C 50.542969 34.246094 50.613281 34.238281 50.667969 34.261719 C 50.800781 34.324219 50.929688 34.394531 51.046875 34.480469 C 51.070312 34.496094 51.085938 34.511719 51.101562 34.53125 L 51.195312 33.921875 C 51.082031 33.664062 51.132812 33.359375 51.308594 33.175781 L 51.5625 31.539062 C 51.332031 31.410156 51.195312 31.222656 51.175781 30.964844 C 51.148438 30.679688 51.253906 30.449219 51.5 30.300781 C 51.566406 30.257812 51.664062 30.265625 51.761719 30.257812 L 51.761719 30.25 C 51.054688 30.300781 50.09375 30.324219 48.878906 30.324219 L 45.011719 30.324219 C 43.710938 30.324219 42.261719 30.347656 40.664062 30.398438 C 40.664062 30.398438 40.664062 30.402344 40.664062 30.402344 C 40.859375 30.402344 41.050781 30.410156 41.242188 30.402344 C 41.339844 30.394531 41.394531 30.433594 41.4375 30.515625 C 41.589844 30.785156 41.550781 31.125 41.339844 31.359375 C 41.132812 31.585938 40.789062 31.65625 40.503906 31.53125 C 40.207031 31.398438 40.039062 31.101562 40.078125 30.769531 C 40.113281 30.480469 40.328125 30.25 40.652344 30.171875 L 40.898438 28.789062 C 40.871094 28.800781 40.84375 28.804688 40.804688 28.804688 C 40.433594 28.808594 40.117188 28.496094 40.113281 28.125 C 40.113281 27.644531 40.613281 27.308594 41.058594 27.488281 C 41.085938 27.5 41.105469 27.511719 41.121094 27.527344 L 41.683594 24.328125 C 41.5 24.046875 41.566406 23.6875 41.828125 23.515625 L 42.128906 21.800781 C 41.921875 21.78125 41.769531 21.675781 41.679688 21.488281 C 41.582031 21.28125 41.601562 21.078125 41.75 20.898438 C 41.894531 20.71875 42.082031 20.664062 42.324219 20.703125 L 43.039062 16.644531 L 55.25 16.644531 L 56.007812 13.386719 C 55.851562 13.363281 55.753906 13.28125 55.707031 13.148438 " fill-opacity="1" fill-rule="nonzero"/><path fill="#f68712" d="M 34.761719 53.765625 C 34.898438 54.0625 34.898438 54.335938 34.800781 54.640625 C 35.097656 54.53125 35.367188 54.542969 35.652344 54.636719 C 35.542969 54.332031 35.5625 54.058594 35.683594 53.761719 C 35.367188 53.902344 35.078125 53.898438 34.761719 53.765625 " fill-opacity="1" fill-rule="nonzero"/><path fill="#f68712" d="M 26.441406 53.769531 C 26.578125 54.066406 26.574219 54.339844 26.488281 54.617188 C 26.636719 54.597656 26.773438 54.5625 26.90625 54.5625 C 27.042969 54.5625 27.175781 54.597656 27.320312 54.617188 C 27.226562 54.335938 27.234375 54.0625 27.367188 53.761719 C 27.046875 53.90625 26.753906 53.894531 26.441406 53.769531 " fill-opacity="1" fill-rule="nonzero"/><path fill="#f68712" d="M 26.351562 50.933594 C 26.554688 51.277344 26.5625 51.625 26.375 52.003906 C 26.738281 51.8125 27.074219 51.824219 27.4375 52 C 27.234375 51.617188 27.261719 51.269531 27.476562 50.910156 C 27.082031 51.140625 26.71875 51.136719 26.351562 50.933594 " fill-opacity="1" fill-rule="nonzero"/><path fill="#f68712" d="M 26.585938 56.636719 C 26.585938 56.851562 26.585938 57.0625 26.585938 57.261719 C 26.800781 57.261719 27.011719 57.261719 27.21875 57.261719 C 27.21875 57.054688 27.21875 56.84375 27.21875 56.636719 C 27.121094 56.648438 27.011719 56.667969 26.90625 56.667969 C 26.792969 56.667969 26.683594 56.648438 26.585938 56.636719 " fill-opacity="1" fill-rule="nonzero"/><path fill="#f68712" d="M 28.035156 58.578125 C 28.207031 58.578125 28.382812 58.578125 28.546875 58.578125 C 28.554688 58.402344 28.5625 58.226562 28.570312 58.058594 C 28.386719 58.058594 28.195312 58.058594 28.011719 58.058594 C 28.019531 58.234375 28.027344 58.410156 28.035156 58.578125 " fill-opacity="1" fill-rule="nonzero"/><path fill="#f68712" d="M 34.910156 57.261719 C 35.121094 57.261719 35.328125 57.261719 35.539062 57.261719 C 35.539062 57.054688 35.539062 56.84375 35.539062 56.648438 C 35.332031 56.648438 35.109375 56.648438 34.910156 56.648438 C 34.910156 56.851562 34.910156 57.066406 34.910156 57.261719 " fill-opacity="1" fill-rule="nonzero"/><path fill="#f68712" d="M 24.992188 52.335938 C 25.179688 52.675781 25.175781 52.988281 25.042969 53.320312 C 25.371094 53.179688 25.667969 53.1875 25.992188 53.320312 C 25.847656 52.984375 25.859375 52.671875 26.035156 52.335938 C 25.675781 52.519531 25.351562 52.515625 24.992188 52.335938 " fill-opacity="1" fill-rule="nonzero"/><path fill="#f68712" d="M 25.261719 58.578125 C 25.433594 58.578125 25.605469 58.578125 25.769531 58.578125 C 25.777344 58.402344 25.785156 58.226562 25.792969 58.058594 C 25.613281 58.058594 25.421875 58.058594 25.238281 58.058594 C 25.246094 58.234375 25.253906 58.410156 25.261719 58.578125 " fill-opacity="1" fill-rule="nonzero"/><path fill="#f68712" d="M 26.699219 59.890625 C 26.84375 59.890625 26.980469 59.890625 27.117188 59.890625 C 27.117188 59.746094 27.117188 59.609375 27.117188 59.476562 C 26.976562 59.476562 26.835938 59.476562 26.679688 59.476562 C 26.6875 59.621094 26.695312 59.757812 26.699219 59.890625 " fill-opacity="1" fill-rule="nonzero"/><path fill="#f68712" d="M 25.160156 55.234375 C 25.160156 55.460938 25.160156 55.707031 25.160156 55.925781 C 25.398438 55.925781 25.636719 55.925781 25.871094 55.925781 C 25.859375 55.824219 25.839844 55.703125 25.84375 55.582031 C 25.847656 55.457031 25.878906 55.332031 25.890625 55.234375 C 25.640625 55.234375 25.386719 55.234375 25.160156 55.234375 " fill-opacity="1" fill-rule="nonzero"/><path fill="#f68712" d="M 26.890625 62.484375 C 26.90625 62.5 26.949219 62.484375 26.984375 62.480469 C 26.984375 62.4375 26.988281 62.402344 26.988281 62.355469 C 26.941406 62.355469 26.894531 62.355469 26.816406 62.355469 C 26.847656 62.410156 26.859375 62.457031 26.890625 62.484375 " fill-opacity="1" fill-rule="nonzero"/><g clip-path="url(#id2)"><path fill="#231f20" d="M 32.191406 9.34375 C 30.597656 20.085938 28.617188 32.097656 26.296875 45.054688 C 25.136719 51.664062 23.855469 57.617188 22.484375 62.769531 C 27 61.765625 31.199219 60.921875 34.996094 60.253906 L 38.585938 37.410156 L 39.351562 37.433594 C 45.578125 37.625 48.449219 37.699219 49.730469 37.722656 L 50.746094 31.15625 C 50.210938 31.175781 49.59375 31.183594 48.878906 31.183594 L 45.011719 31.183594 C 43.734375 31.183594 42.261719 31.207031 40.640625 31.257812 L 39.574219 31.289062 L 42.3125 15.785156 L 54.5625 15.785156 L 56.347656 8.089844 Z M 20.050781 65.082031 L 20.433594 63.695312 C 21.9375 58.285156 23.335938 51.914062 24.589844 44.757812 C 26.957031 31.53125 28.96875 19.300781 30.578125 8.402344 L 30.679688 7.703125 L 58.554688 6.253906 L 55.941406 17.503906 L 43.769531 17.503906 L 41.648438 29.511719 C 42.875 29.480469 44.003906 29.464844 45.011719 29.464844 L 48.878906 29.464844 C 50.074219 29.464844 51.023438 29.441406 51.699219 29.390625 L 52.785156 29.3125 L 51.21875 39.449219 L 50.472656 39.449219 C 49.527344 39.449219 46.023438 39.359375 40.0625 39.175781 L 36.519531 61.730469 L 35.90625 61.839844 C 31.59375 62.585938 26.738281 63.566406 21.464844 64.761719 L 20.050781 65.082031 " fill-opacity="1" fill-rule="nonzero"/></g></svg>