<svg xmlns="http://www.w3.org/2000/svg" xmlns:xlink="http://www.w3.org/1999/xlink" width="150" zoomAndPan="magnify" viewBox="0 0 112.5 112.499997" height="150" preserveAspectRatio="xMidYMid meet" version="1.0"><defs><clipPath id="id1"><path d="M 16 15 L 87 15 L 87 87.5 L 16 87.5 Z M 16 15 " clip-rule="nonzero"/></clipPath><clipPath id="id2"><path d="M 16 15 L 87 15 L 87 87.5 L 16 87.5 Z M 16 15 " clip-rule="nonzero"/></clipPath><clipPath id="id3"><path d="M 82 71.839844 L 88 71.839844 L 88 83 L 82 83 Z M 82 71.839844 " clip-rule="nonzero"/></clipPath><clipPath id="id4"><path d="M 82 89 L 88 89 L 88 99.589844 L 82 99.589844 Z M 82 89 " clip-rule="nonzero"/></clipPath><clipPath id="id5"><path d="M 88 83 L 98.679688 83 L 98.679688 89 L 88 89 Z M 88 83 " clip-rule="nonzero"/></clipPath><clipPath id="id6"><path d="M 70.929688 83 L 82 83 L 82 89 L 70.929688 89 Z M 70.929688 83 " clip-rule="nonzero"/></clipPath></defs><g clip-path="url(#id1)"><path fill="#f5af4d" d="M 75.148438 50.320312 C 76.53125 51.609375 77.773438 53.0625 78.828125 54.683594 C 81.589844 58.902344 82.910156 64.078125 81.875 69.082031 C 80.847656 74.042969 77.679688 78.300781 73.71875 81.324219 C 69.195312 84.777344 63.664062 86.457031 58.058594 86.953125 C 52.078125 87.480469 45.835938 86.863281 39.992188 85.503906 C 34.957031 84.332031 29.90625 82.117188 26.890625 77.691406 C 24.128906 73.628906 23.472656 68.402344 24.414062 63.640625 C 24.964844 60.859375 26.109375 58.234375 27.675781 55.886719 C 25.25 55.835938 22.714844 55.492188 20.597656 54.269531 C 16.464844 51.886719 15.777344 46.074219 18.914062 42.585938 C 20.429688 40.898438 22.71875 39.785156 25 39.867188 C 26.753906 39.929688 28.355469 40.660156 29.722656 41.71875 C 28.527344 39.261719 27.792969 36.566406 27.582031 33.839844 C 27.160156 28.449219 29.070312 23.125 32.984375 19.386719 C 37.195312 15.359375 42.984375 14.042969 48.453125 16.121094 C 53.960938 18.210938 58.226562 22.523438 60.855469 27.726562 C 62.421875 24.023438 65.707031 21.03125 69.484375 19.761719 C 73.042969 18.566406 77.027344 19.21875 80.1875 21.195312 C 83.546875 23.300781 85.6875 26.789062 86.214844 30.722656 C 86.773438 34.875 85.640625 39.078125 83.414062 42.578125 C 81.351562 45.835938 78.394531 48.3125 75.148438 50.320312 Z M 75.148438 50.320312 " fill-opacity="1" fill-rule="nonzero"/></g><path fill="#a4f4ec" d="M 60.578125 28.933594 C 62.773438 33.597656 63.601562 38.894531 62.769531 44.007812 C 61.980469 43.84375 61.183594 43.714844 60.386719 43.621094 C 60.332031 43.589844 60.269531 43.566406 60.191406 43.566406 C 60.101562 43.5625 60.011719 43.566406 59.925781 43.566406 C 56.601562 43.21875 53.226562 43.402344 49.875 43.859375 C 49.289062 43.9375 48.703125 44.027344 48.117188 44.121094 C 48.105469 44.121094 48.101562 44.121094 48.089844 44.121094 C 48.078125 44.121094 48.066406 44.125 48.054688 44.128906 C 47.121094 44.277344 46.191406 44.433594 45.261719 44.601562 C 41.96875 45.347656 38.761719 46.503906 35.859375 48.207031 C 27.941406 42.015625 25.574219 29.304688 32.230469 21.351562 C 35.734375 17.164062 41.050781 14.945312 46.429688 16.304688 C 51.894531 17.691406 56.480469 21.84375 59.34375 26.617188 C 59.765625 27.324219 60.15625 28.054688 60.511719 28.796875 C 60.523438 28.847656 60.546875 28.894531 60.578125 28.933594 Z M 30.898438 43.820312 C 30.835938 43.804688 30.773438 43.769531 30.714844 43.707031 C 28.742188 41.542969 25.976562 40.070312 23.019531 40.917969 C 20.46875 41.648438 18.328125 43.792969 17.824219 46.441406 C 17.300781 49.175781 18.503906 52.097656 20.894531 53.527344 C 23.0625 54.824219 25.742188 55.09375 28.226562 55.105469 C 29.320312 53.601562 30.585938 52.21875 31.976562 51 C 32.972656 50.121094 34.039062 49.339844 35.148438 48.640625 C 33.476562 47.273438 32.050781 45.636719 30.898438 43.820312 Z M 79.121094 21.484375 C 75.878906 19.714844 71.972656 19.417969 68.589844 20.960938 C 65.320312 22.449219 62.535156 25.265625 61.328125 28.695312 C 63.535156 33.515625 64.367188 39.007812 63.535156 44.171875 C 64.578125 44.417969 65.613281 44.726562 66.636719 45.109375 C 67.492188 45.425781 68.328125 45.789062 69.144531 46.191406 C 69.167969 46.203125 69.195312 46.207031 69.21875 46.214844 C 69.28125 46.238281 69.332031 46.265625 69.375 46.304688 C 71.234375 47.246094 72.96875 48.40625 74.53125 49.769531 C 77.984375 47.667969 81.09375 45.039062 83.15625 41.492188 C 87.019531 34.839844 86.402344 25.457031 79.121094 21.484375 Z M 79.121094 21.484375 " fill-opacity="1" fill-rule="nonzero"/><path fill="#f5f5f5" d="M 74.710938 65.441406 C 74.710938 65.789062 74.429688 66.070312 74.082031 66.070312 C 73.738281 66.070312 73.453125 65.789062 73.453125 65.441406 C 73.453125 65.089844 73.738281 64.808594 74.082031 64.808594 C 74.429688 64.808594 74.710938 65.089844 74.710938 65.441406 Z M 57.320312 65.046875 C 56.972656 65.046875 56.691406 65.328125 56.691406 65.675781 C 56.691406 66.027344 56.972656 66.308594 57.320312 66.308594 C 57.667969 66.308594 57.949219 66.027344 57.949219 65.675781 C 57.949219 65.328125 57.667969 65.046875 57.320312 65.046875 Z M 58.132812 66.226562 C 57.984375 66.226562 57.863281 66.34375 57.863281 66.496094 C 57.863281 66.644531 57.984375 66.765625 58.132812 66.765625 C 58.28125 66.765625 58.398438 66.644531 58.398438 66.496094 C 58.398438 66.34375 58.28125 66.226562 58.132812 66.226562 Z M 74.894531 65.988281 C 74.746094 65.988281 74.628906 66.109375 74.628906 66.257812 C 74.628906 66.40625 74.746094 66.527344 74.894531 66.527344 C 75.042969 66.527344 75.164062 66.410156 75.164062 66.257812 C 75.164062 66.109375 75.042969 65.988281 74.894531 65.988281 Z M 74.894531 65.988281 " fill-opacity="1" fill-rule="nonzero"/><path fill="#ff5c50" d="M 57.835938 70.386719 C 57.835938 71.0625 56.695312 71.609375 55.289062 71.609375 C 53.882812 71.609375 52.742188 71.0625 52.742188 70.386719 C 52.742188 69.714844 53.882812 69.167969 55.289062 69.167969 C 56.695312 69.167969 57.835938 69.714844 57.835938 70.386719 Z M 77.144531 68.933594 C 75.738281 68.933594 74.597656 69.480469 74.597656 70.152344 C 74.597656 70.824219 75.738281 71.371094 77.144531 71.371094 C 78.550781 71.371094 79.691406 70.824219 79.691406 70.152344 C 79.691406 69.476562 78.550781 68.933594 77.144531 68.933594 Z M 77.144531 68.933594 " fill-opacity="1" fill-rule="nonzero"/><g clip-path="url(#id2)"><path fill="#702106" d="M 83.417969 42.574219 C 85.640625 39.070312 86.777344 34.871094 86.21875 30.71875 C 85.691406 26.785156 83.554688 23.296875 80.191406 21.191406 C 77.035156 19.214844 73.046875 18.5625 69.488281 19.757812 C 65.710938 21.027344 62.425781 24.023438 60.859375 27.722656 C 58.230469 22.519531 53.964844 18.210938 48.457031 16.117188 C 42.988281 14.039062 37.199219 15.355469 32.984375 19.382812 C 29.078125 23.125 27.164062 28.449219 27.585938 33.835938 C 27.800781 36.566406 28.535156 39.257812 29.726562 41.714844 C 28.359375 40.660156 26.757812 39.929688 25.003906 39.867188 C 22.722656 39.785156 20.4375 40.894531 18.917969 42.582031 C 15.78125 46.074219 16.46875 51.886719 20.601562 54.269531 C 22.71875 55.492188 25.253906 55.832031 27.679688 55.886719 C 26.113281 58.234375 24.96875 60.859375 24.417969 63.640625 C 23.476562 68.398438 24.132812 73.628906 26.898438 77.6875 C 29.910156 82.113281 34.960938 84.332031 39.996094 85.5 C 45.839844 86.859375 52.082031 87.480469 58.0625 86.949219 C 63.667969 86.453125 69.195312 84.777344 73.722656 81.320312 C 77.679688 78.296875 80.855469 74.042969 81.882812 69.078125 C 82.917969 64.078125 81.59375 58.902344 78.835938 54.679688 C 77.777344 53.0625 76.539062 51.609375 75.152344 50.316406 C 78.394531 48.3125 81.351562 45.835938 83.417969 42.574219 Z M 32.230469 21.351562 C 35.734375 17.164062 41.050781 14.945312 46.429688 16.304688 C 51.894531 17.691406 56.480469 21.84375 59.34375 26.617188 C 59.765625 27.324219 60.15625 28.054688 60.511719 28.796875 C 60.523438 28.847656 60.546875 28.894531 60.578125 28.933594 C 62.773438 33.597656 63.601562 38.894531 62.769531 44.007812 C 61.980469 43.84375 61.183594 43.714844 60.386719 43.621094 C 60.332031 43.589844 60.269531 43.566406 60.191406 43.566406 C 60.101562 43.5625 60.011719 43.566406 59.925781 43.566406 C 56.601562 43.21875 53.226562 43.402344 49.875 43.859375 C 49.289062 43.9375 48.703125 44.027344 48.117188 44.121094 C 48.105469 44.121094 48.101562 44.121094 48.089844 44.121094 C 48.078125 44.121094 48.066406 44.125 48.054688 44.128906 C 47.121094 44.277344 46.191406 44.433594 45.261719 44.601562 C 41.96875 45.347656 38.761719 46.503906 35.859375 48.207031 C 27.941406 42.015625 25.574219 29.304688 32.230469 21.351562 Z M 20.894531 53.523438 C 18.503906 52.09375 17.300781 49.171875 17.824219 46.441406 C 18.328125 43.789062 20.46875 41.644531 23.019531 40.914062 C 25.976562 40.066406 28.742188 41.542969 30.714844 43.707031 C 30.773438 43.765625 30.835938 43.800781 30.898438 43.816406 C 32.050781 45.636719 33.476562 47.273438 35.148438 48.636719 C 34.039062 49.335938 32.972656 50.117188 31.976562 50.996094 C 30.585938 52.21875 29.320312 53.597656 28.226562 55.101562 C 25.742188 55.089844 23.0625 54.824219 20.894531 53.523438 Z M 44.277344 85.507812 C 44.136719 85.488281 44 85.464844 43.863281 85.445312 C 43.863281 85.445312 43.859375 85.441406 43.859375 85.441406 C 41.230469 84.867188 38.890625 83.828125 37.15625 81.6875 C 35.023438 79.0625 33.726562 75.769531 33.21875 72.4375 C 32.101562 65.113281 34.757812 57.351562 38.839844 51.339844 C 41.117188 47.988281 44.273438 45.613281 48.285156 44.886719 C 50.769531 44.496094 53.285156 44.199219 55.792969 44.15625 C 50.074219 45.824219 45.738281 50.828125 43.496094 56.453125 C 40.351562 64.34375 40.496094 73.859375 45.488281 80.949219 C 47.050781 83.164062 49.089844 85.15625 51.53125 86.242188 C 49.078125 86.136719 46.640625 85.871094 44.277344 85.507812 Z M 75.777344 52.050781 C 79.136719 55.675781 81.433594 60.472656 81.453125 65.492188 C 81.472656 70.429688 79.1875 75.027344 75.769531 78.480469 C 73.050781 81.226562 69.882812 83.105469 66.464844 84.332031 C 66.445312 84.332031 66.421875 84.328125 66.398438 84.332031 C 64.554688 84.460938 62.6875 84.503906 60.882812 84.042969 C 58.757812 83.503906 56.890625 82.300781 55.289062 80.816406 C 52.4375 78.164062 50.574219 74.53125 49.875 70.699219 C 49.246094 67.265625 49.210938 63.316406 50.316406 59.980469 C 51.519531 56.339844 53.898438 52.996094 56.820312 50.5625 C 60.070312 47.855469 64.640625 45.636719 68.90625 46.949219 C 71.464844 48.222656 73.808594 49.921875 75.777344 52.050781 Z M 74.53125 49.769531 C 72.96875 48.40625 71.234375 47.246094 69.375 46.304688 C 69.332031 46.265625 69.28125 46.234375 69.21875 46.214844 C 69.195312 46.207031 69.167969 46.199219 69.144531 46.191406 C 68.328125 45.789062 67.492188 45.425781 66.636719 45.105469 C 65.613281 44.726562 64.578125 44.417969 63.535156 44.171875 C 64.367188 39.007812 63.53125 33.515625 61.328125 28.691406 C 62.535156 25.265625 65.320312 22.449219 68.589844 20.960938 C 71.972656 19.417969 75.882812 19.710938 79.121094 21.480469 C 86.402344 25.453125 87.019531 34.839844 83.15625 41.492188 C 81.097656 45.035156 77.984375 47.664062 74.53125 49.769531 Z M 57.835938 64.199219 C 56.753906 64.199219 55.878906 65.082031 55.878906 66.167969 C 55.878906 67.257812 56.757812 68.140625 57.835938 68.140625 C 58.917969 68.140625 59.789062 67.257812 59.789062 66.167969 C 59.789062 65.082031 58.914062 64.199219 57.835938 64.199219 Z M 57.320312 66.308594 C 56.972656 66.308594 56.691406 66.023438 56.691406 65.675781 C 56.691406 65.328125 56.972656 65.042969 57.320312 65.042969 C 57.667969 65.042969 57.949219 65.328125 57.949219 65.675781 C 57.949219 66.023438 57.667969 66.308594 57.320312 66.308594 Z M 58.132812 66.765625 C 57.984375 66.765625 57.863281 66.644531 57.863281 66.496094 C 57.863281 66.347656 57.984375 66.226562 58.132812 66.226562 C 58.28125 66.226562 58.398438 66.34375 58.398438 66.496094 C 58.398438 66.644531 58.28125 66.765625 58.132812 66.765625 Z M 74.597656 67.902344 C 75.679688 67.902344 76.554688 67.019531 76.554688 65.933594 C 76.554688 64.847656 75.675781 63.964844 74.597656 63.964844 C 73.515625 63.964844 72.640625 64.847656 72.640625 65.933594 C 72.640625 67.019531 73.515625 67.902344 74.597656 67.902344 Z M 75.164062 66.257812 C 75.164062 66.40625 75.042969 66.527344 74.894531 66.527344 C 74.746094 66.527344 74.628906 66.410156 74.628906 66.257812 C 74.628906 66.109375 74.746094 65.988281 74.894531 65.988281 C 75.042969 65.988281 75.164062 66.109375 75.164062 66.257812 Z M 74.082031 64.808594 C 74.429688 64.808594 74.710938 65.09375 74.710938 65.441406 C 74.710938 65.789062 74.429688 66.074219 74.082031 66.074219 C 73.738281 66.074219 73.453125 65.789062 73.453125 65.441406 C 73.453125 65.09375 73.738281 64.808594 74.082031 64.808594 Z M 68.953125 72.996094 C 68.667969 74.335938 67.472656 75.429688 66.074219 75.40625 C 64.675781 75.382812 63.503906 74.277344 63.257812 72.921875 C 63.164062 72.421875 63.925781 72.210938 64.015625 72.710938 C 64.449219 75.105469 67.6875 75.167969 68.191406 72.785156 C 68.300781 72.285156 69.058594 72.496094 68.953125 72.996094 Z M 68.953125 72.996094 " fill-opacity="1" fill-rule="nonzero"/></g><path fill="#fab725" d="M 84.1875 78.035156 C 85.28125 80.746094 84.753906 82.195312 83.578125 82.667969 C 82.40625 83.136719 81.023438 82.457031 79.933594 79.746094 C 78.839844 77.035156 79.628906 72.847656 79.628906 72.847656 C 79.628906 72.847656 83.097656 75.324219 84.1875 78.035156 Z M 84.1875 78.035156 " fill-opacity="1" fill-rule="nonzero"/><path fill="#fab725" d="M 85.429688 93.410156 C 84.335938 90.699219 84.863281 89.25 86.039062 88.777344 C 87.210938 88.304688 88.59375 88.988281 89.683594 91.695312 C 90.777344 94.40625 89.988281 98.59375 89.988281 98.59375 C 89.988281 98.59375 86.519531 96.121094 85.429688 93.410156 Z M 85.429688 93.410156 " fill-opacity="1" fill-rule="nonzero"/><path fill="#fab725" d="M 92.496094 85.101562 C 89.785156 86.191406 88.335938 85.667969 87.863281 84.492188 C 87.390625 83.316406 88.074219 81.9375 90.785156 80.84375 C 93.496094 79.753906 97.679688 80.542969 97.679688 80.542969 C 97.679688 80.542969 95.207031 84.011719 92.496094 85.101562 Z M 92.496094 85.101562 " fill-opacity="1" fill-rule="nonzero"/><path fill="#fab725" d="M 77.121094 86.34375 C 79.832031 85.25 81.28125 85.777344 81.753906 86.949219 C 82.226562 88.125 81.542969 89.507812 78.832031 90.597656 C 76.121094 91.691406 71.933594 90.902344 71.933594 90.902344 C 71.933594 90.902344 74.410156 87.433594 77.121094 86.34375 Z M 77.121094 86.34375 " fill-opacity="1" fill-rule="nonzero"/><path fill="#fab725" d="M 78.933594 80.722656 C 81.621094 81.867188 82.277344 83.265625 81.777344 84.429688 C 81.28125 85.59375 79.824219 86.089844 77.136719 84.945312 C 74.445312 83.796875 72.042969 80.28125 72.042969 80.28125 C 72.042969 80.28125 76.246094 79.578125 78.933594 80.722656 Z M 78.933594 80.722656 " fill-opacity="1" fill-rule="nonzero"/><path fill="#fab725" d="M 90.683594 90.71875 C 87.996094 89.574219 87.339844 88.179688 87.839844 87.015625 C 88.335938 85.847656 89.792969 85.355469 92.480469 86.5 C 95.167969 87.644531 97.574219 91.164062 97.574219 91.164062 C 97.574219 91.164062 93.371094 91.867188 90.683594 90.71875 Z M 90.683594 90.71875 " fill-opacity="1" fill-rule="nonzero"/><path fill="#fab725" d="M 89.808594 79.847656 C 88.660156 82.535156 87.265625 83.191406 86.101562 82.691406 C 84.9375 82.195312 84.441406 80.738281 85.585938 78.046875 C 86.730469 75.359375 90.25 72.957031 90.25 72.957031 C 90.25 72.957031 90.953125 77.160156 89.808594 79.847656 Z M 89.808594 79.847656 " fill-opacity="1" fill-rule="nonzero"/><path fill="#fab725" d="M 79.808594 91.597656 C 80.957031 88.90625 82.351562 88.253906 83.515625 88.75 C 84.679688 89.25 85.175781 90.707031 84.03125 93.394531 C 82.886719 96.082031 79.367188 98.484375 79.367188 98.484375 C 79.367188 98.484375 78.664062 94.285156 79.808594 91.597656 Z M 79.808594 91.597656 " fill-opacity="1" fill-rule="nonzero"/><g clip-path="url(#id3)"><path fill="#ffd91d" d="M 87.101562 78.359375 C 87.101562 81.28125 86.074219 82.429688 84.808594 82.429688 C 83.542969 82.429688 82.515625 81.28125 82.515625 78.359375 C 82.515625 75.4375 84.808594 71.847656 84.808594 71.847656 C 84.808594 71.847656 87.101562 75.4375 87.101562 78.359375 Z M 87.101562 78.359375 " fill-opacity="1" fill-rule="nonzero"/></g><g clip-path="url(#id4)"><path fill="#ffd91d" d="M 82.515625 93.085938 C 82.515625 90.164062 83.542969 89.015625 84.808594 89.015625 C 86.074219 89.015625 87.101562 90.164062 87.101562 93.085938 C 87.101562 96.007812 84.808594 99.597656 84.808594 99.597656 C 84.808594 99.597656 82.515625 96.007812 82.515625 93.085938 Z M 82.515625 93.085938 " fill-opacity="1" fill-rule="nonzero"/></g><g clip-path="url(#id5)"><path fill="#ffd91d" d="M 92.171875 88.015625 C 89.25 88.015625 88.101562 86.988281 88.101562 85.722656 C 88.101562 84.453125 89.25 83.425781 92.171875 83.425781 C 95.09375 83.425781 98.683594 85.722656 98.683594 85.722656 C 98.683594 85.722656 95.09375 88.015625 92.171875 88.015625 Z M 92.171875 88.015625 " fill-opacity="1" fill-rule="nonzero"/></g><g clip-path="url(#id6)"><path fill="#ffd91d" d="M 77.445312 83.425781 C 80.367188 83.425781 81.515625 84.453125 81.515625 85.722656 C 81.515625 86.988281 80.367188 88.015625 77.445312 88.015625 C 74.523438 88.015625 70.933594 85.722656 70.933594 85.722656 C 70.933594 85.722656 74.523438 83.425781 77.445312 83.425781 Z M 77.445312 83.425781 " fill-opacity="1" fill-rule="nonzero"/></g><path fill="#ffd91d" d="M 81.222656 78.894531 C 83.289062 80.960938 83.375 82.496094 82.480469 83.394531 C 81.585938 84.289062 80.046875 84.203125 77.980469 82.136719 C 75.914062 80.070312 74.996094 75.910156 74.996094 75.910156 C 74.996094 75.910156 79.15625 76.828125 81.222656 78.894531 Z M 81.222656 78.894531 " fill-opacity="1" fill-rule="nonzero"/><path fill="#ffd91d" d="M 88.394531 92.550781 C 86.324219 90.484375 86.242188 88.949219 87.136719 88.050781 C 88.03125 87.15625 89.570312 87.242188 91.636719 89.308594 C 93.703125 91.375 94.621094 95.535156 94.621094 95.535156 C 94.621094 95.535156 90.460938 94.617188 88.394531 92.550781 Z M 88.394531 92.550781 " fill-opacity="1" fill-rule="nonzero"/><path fill="#ffd91d" d="M 91.636719 82.136719 C 89.570312 84.203125 88.035156 84.289062 87.136719 83.394531 C 86.242188 82.496094 86.328125 80.960938 88.394531 78.894531 C 90.460938 76.828125 94.621094 75.910156 94.621094 75.910156 C 94.621094 75.910156 93.703125 80.070312 91.636719 82.136719 Z M 91.636719 82.136719 " fill-opacity="1" fill-rule="nonzero"/><path fill="#ffd91d" d="M 77.980469 89.304688 C 80.046875 87.238281 81.582031 87.15625 82.480469 88.050781 C 83.375 88.945312 83.289062 90.484375 81.222656 92.550781 C 79.15625 94.617188 74.996094 95.53125 74.996094 95.53125 C 74.996094 95.53125 75.914062 91.375 77.980469 89.304688 Z M 77.980469 89.304688 " fill-opacity="1" fill-rule="nonzero"/><path fill="#414343" d="M 89.632812 85.847656 C 89.632812 86.175781 89.601562 86.496094 89.539062 86.816406 C 89.476562 87.132812 89.382812 87.445312 89.257812 87.746094 C 89.132812 88.046875 88.980469 88.332031 88.800781 88.601562 C 88.617188 88.871094 88.414062 89.121094 88.183594 89.351562 C 87.953125 89.582031 87.703125 89.785156 87.433594 89.96875 C 87.164062 90.148438 86.875 90.300781 86.578125 90.425781 C 86.277344 90.550781 85.964844 90.644531 85.648438 90.707031 C 85.328125 90.769531 85.007812 90.800781 84.679688 90.800781 C 84.355469 90.800781 84.035156 90.769531 83.714844 90.707031 C 83.394531 90.644531 83.085938 90.550781 82.785156 90.425781 C 82.484375 90.300781 82.199219 90.148438 81.929688 89.96875 C 81.660156 89.785156 81.410156 89.582031 81.179688 89.351562 C 80.949219 89.121094 80.742188 88.871094 80.5625 88.601562 C 80.382812 88.332031 80.230469 88.046875 80.105469 87.746094 C 79.980469 87.445312 79.886719 87.132812 79.824219 86.816406 C 79.761719 86.496094 79.726562 86.175781 79.726562 85.847656 C 79.726562 85.523438 79.761719 85.203125 79.824219 84.882812 C 79.886719 84.5625 79.980469 84.253906 80.105469 83.953125 C 80.230469 83.652344 80.382812 83.367188 80.5625 83.097656 C 80.742188 82.828125 80.949219 82.578125 81.179688 82.347656 C 81.410156 82.117188 81.660156 81.910156 81.929688 81.730469 C 82.199219 81.550781 82.484375 81.398438 82.785156 81.273438 C 83.085938 81.148438 83.394531 81.054688 83.714844 80.992188 C 84.035156 80.929688 84.355469 80.894531 84.679688 80.894531 C 85.007812 80.894531 85.328125 80.929688 85.648438 80.992188 C 85.964844 81.054688 86.277344 81.148438 86.578125 81.273438 C 86.875 81.398438 87.164062 81.550781 87.433594 81.730469 C 87.703125 81.910156 87.953125 82.117188 88.183594 82.347656 C 88.414062 82.578125 88.617188 82.828125 88.800781 83.097656 C 88.980469 83.367188 89.132812 83.652344 89.257812 83.953125 C 89.382812 84.253906 89.476562 84.5625 89.539062 84.882812 C 89.601562 85.203125 89.632812 85.523438 89.632812 85.847656 Z M 89.632812 85.847656 " fill-opacity="1" fill-rule="nonzero"/></svg>