<svg xmlns="http://www.w3.org/2000/svg" xmlns:xlink="http://www.w3.org/1999/xlink" width="150" zoomAndPan="magnify" viewBox="0 0 112.5 112.499997" height="150" preserveAspectRatio="xMidYMid meet" version="1.0"><defs><clipPath id="id1"><path d="M 49 23 L 104.988281 23 L 104.988281 76 L 49 76 Z M 49 23 " clip-rule="nonzero"/></clipPath><clipPath id="id2"><path d="M 49 38 L 104.988281 38 L 104.988281 76 L 49 76 Z M 49 38 " clip-rule="nonzero"/></clipPath><clipPath id="id3"><path d="M 61 62 L 79 62 L 79 91.296875 L 61 91.296875 Z M 61 62 " clip-rule="nonzero"/></clipPath><clipPath id="id4"><path d="M 64 64 L 79 64 L 79 91.296875 L 64 91.296875 Z M 64 64 " clip-rule="nonzero"/></clipPath><clipPath id="id5"><path d="M 62 89 L 66 89 L 66 91.296875 L 62 91.296875 Z M 62 89 " clip-rule="nonzero"/></clipPath><clipPath id="id6"><path d="M 11.25 77 L 14 77 L 14 81 L 11.25 81 Z M 11.25 77 " clip-rule="nonzero"/></clipPath><clipPath id="id7"><path d="M 40 77 L 47 77 L 47 90.75 L 40 90.75 Z M 40 77 " clip-rule="nonzero"/></clipPath><clipPath id="id8"><path d="M 44 88 L 47 88 L 47 90.75 L 44 90.75 Z M 44 88 " clip-rule="nonzero"/></clipPath><clipPath id="id9"><path d="M 46 88 L 48 88 L 48 90.75 L 46 90.75 Z M 46 88 " clip-rule="nonzero"/></clipPath><clipPath id="id10"><path d="M 31 88 L 34 88 L 34 90.75 L 31 90.75 Z M 31 88 " clip-rule="nonzero"/></clipPath><clipPath id="id11"><path d="M 34 88 L 36 88 L 36 90.75 L 34 90.75 Z M 34 88 " clip-rule="nonzero"/></clipPath></defs><path fill="#75b437" d="M 69.71875 61.042969 C 69.71875 61.042969 60.601562 58.761719 57.113281 63.886719 C 53.625 69.011719 62.367188 80.570312 62.367188 80.570312 C 62.367188 80.570312 60.894531 83.316406 59.308594 84.050781 C 56.914062 84.59375 56.875 84.109375 55.792969 84.046875 C 54.40625 83.972656 54.773438 84.578125 54.773438 84.578125 C 54.773438 84.578125 53.058594 84.640625 53.839844 85.507812 C 53.839844 85.507812 52.234375 86.105469 53.539062 86.65625 C 54.296875 86.972656 58.796875 88.1875 60.207031 87.875 C 61.96875 87.480469 67.660156 84.222656 67.769531 82.566406 C 67.988281 79.308594 66.886719 74.019531 66.597656 72.421875 C 66.597656 72.421875 70.589844 72.125 71.875 70.359375 C 73.164062 68.59375 73.421875 63.742188 69.71875 61.042969 " fill-opacity="1" fill-rule="nonzero"/><path fill="#dcb74f" d="M 67.71875 79.820312 C 67.484375 76.886719 66.8125 73.617188 66.597656 72.421875 C 66.597656 72.421875 67.609375 72.34375 68.777344 72.046875 C 68.566406 69.890625 68.050781 68.503906 68.050781 68.503906 L 59.238281 68.503906 C 59.238281 68.503906 65.496094 83.105469 67.71875 79.820312 " fill-opacity="1" fill-rule="nonzero"/><path fill="#381214" d="M 54.796875 85.6875 C 55.230469 84.921875 54.773438 84.578125 54.773438 84.578125 C 54.773438 84.578125 53.058594 84.640625 53.839844 85.507812 C 53.839844 85.507812 53.691406 85.5625 53.523438 85.65625 C 53.957031 85.929688 54.542969 86.136719 54.796875 85.6875 " fill-opacity="1" fill-rule="nonzero"/><path fill="#381214" d="M 54.773438 84.578125 C 54.773438 84.578125 54.671875 84.582031 54.535156 84.597656 L 54.542969 84.613281 C 54.632812 84.6875 55.390625 85.035156 55.71875 84.757812 C 55.929688 84.578125 55.894531 84.257812 55.84375 84.050781 L 55.792969 84.046875 C 54.40625 83.972656 54.773438 84.578125 54.773438 84.578125 " fill-opacity="1" fill-rule="nonzero"/><path fill="#669832" d="M 58.066406 63.867188 C 58.0625 63.871094 57.730469 64.136719 57.398438 64.566406 C 57.066406 64.992188 56.722656 65.589844 56.71875 66.261719 C 56.71875 66.503906 56.765625 66.757812 56.875 67.007812 C 56.992188 67.28125 57.136719 67.488281 57.304688 67.628906 C 57.472656 67.765625 57.671875 67.835938 57.867188 67.835938 C 58.054688 67.835938 58.238281 67.773438 58.40625 67.667969 C 58.65625 67.511719 58.878906 67.257812 59.050781 66.941406 C 59.222656 66.625 59.34375 66.246094 59.382812 65.832031 C 59.390625 65.753906 59.394531 65.679688 59.394531 65.605469 C 59.394531 65.28125 59.320312 65.03125 59.179688 64.851562 C 59.042969 64.675781 58.839844 64.585938 58.636719 64.585938 C 58.390625 64.585938 58.144531 64.710938 57.953125 64.917969 C 57.765625 65.128906 57.636719 65.425781 57.621094 65.785156 C 57.617188 65.871094 57.6875 65.945312 57.773438 65.949219 C 57.859375 65.953125 57.933594 65.882812 57.9375 65.796875 C 57.949219 65.507812 58.050781 65.28125 58.1875 65.128906 C 58.324219 64.976562 58.496094 64.902344 58.636719 64.902344 C 58.753906 64.902344 58.847656 64.945312 58.933594 65.046875 C 59.011719 65.152344 59.078125 65.328125 59.078125 65.605469 C 59.078125 65.667969 59.074219 65.734375 59.070312 65.804688 C 59.019531 66.300781 58.84375 66.738281 58.613281 67.046875 C 58.496094 67.199219 58.367188 67.320312 58.238281 67.402344 C 58.109375 67.480469 57.984375 67.519531 57.867188 67.519531 C 57.742188 67.519531 57.625 67.480469 57.503906 67.382812 C 57.386719 67.285156 57.265625 67.125 57.164062 66.882812 C 57.074219 66.671875 57.035156 66.464844 57.035156 66.261719 C 57.035156 65.703125 57.335938 65.160156 57.644531 64.757812 C 57.800781 64.558594 57.957031 64.394531 58.074219 64.285156 C 58.132812 64.226562 58.183594 64.183594 58.214844 64.15625 L 58.253906 64.121094 L 58.265625 64.109375 C 58.332031 64.058594 58.34375 63.957031 58.289062 63.890625 C 58.234375 63.820312 58.136719 63.8125 58.066406 63.867188 " fill-opacity="1" fill-rule="nonzero"/><path fill="#381214" d="M 55.144531 85.683594 C 54.886719 85.515625 54.214844 85.488281 53.820312 85.488281 L 53.839844 85.507812 C 53.839844 85.507812 52.234375 86.105469 53.539062 86.65625 C 53.761719 86.75 54.308594 86.917969 55.003906 87.105469 C 55.457031 86.6875 55.480469 85.898438 55.144531 85.683594 " fill-opacity="1" fill-rule="nonzero"/><path fill="#75b437" d="M 60.386719 53.589844 C 60.386719 53.589844 58.519531 51.339844 56.09375 52.996094 C 56.09375 52.996094 51.675781 53.804688 50.246094 54.355469 C 50.246094 54.355469 47.601562 48.304688 46.953125 47.683594 C 46.304688 47.0625 43.789062 46.558594 42.992188 47.472656 C 42.992188 47.472656 42.804688 47.765625 43.5 47.878906 C 44.191406 47.988281 44.980469 48.152344 44.980469 48.152344 C 44.980469 48.152344 42.382812 48.75 42.320312 49.464844 C 42.289062 49.785156 42.796875 49.878906 43.441406 49.878906 C 44.046875 49.882812 44.988281 49.871094 44.988281 49.871094 C 44.988281 49.871094 46.660156 56.632812 47.441406 57.613281 C 48.222656 58.589844 56.46875 58.648438 56.46875 58.648438 C 56.46875 58.648438 58.566406 60.230469 60.160156 59.371094 C 61.753906 58.507812 62.292969 54.957031 60.386719 53.589844 " fill-opacity="1" fill-rule="nonzero"/><path fill="#70a42f" d="M 60.160156 59.371094 C 60.71875 59.066406 61.148438 58.433594 61.386719 57.679688 C 60.492188 54.152344 50.167969 57.238281 48.949219 56.886719 C 47.730469 56.535156 46.195312 50.304688 45.707031 49.839844 C 45.546875 49.683594 45.191406 49.738281 44.78125 49.875 C 44.90625 49.875 44.988281 49.871094 44.988281 49.871094 C 44.988281 49.871094 46.660156 56.632812 47.441406 57.613281 C 48.222656 58.589844 56.46875 58.648438 56.46875 58.648438 C 56.46875 58.648438 58.566406 60.230469 60.160156 59.371094 " fill-opacity="1" fill-rule="nonzero"/><path fill="#381214" d="M 44.035156 48.417969 C 43.289062 48.660156 42.355469 49.042969 42.320312 49.464844 C 42.289062 49.785156 42.796875 49.878906 43.441406 49.878906 C 43.757812 49.882812 44.167969 49.878906 44.484375 49.875 C 44.867188 49.308594 44.320312 48.683594 44.035156 48.417969 " fill-opacity="1" fill-rule="nonzero"/><path fill="#381214" d="M 42.992188 47.472656 C 42.992188 47.472656 42.804688 47.765625 43.5 47.878906 C 43.785156 47.921875 44.089844 47.980469 44.347656 48.027344 C 44.53125 47.789062 44.542969 47.296875 44.523438 46.972656 C 43.890625 46.972656 43.304688 47.109375 42.992188 47.472656 " fill-opacity="1" fill-rule="nonzero"/><g clip-path="url(#id1)"><path fill="#84cf45" d="M 57.976562 23.535156 C 57.976562 23.535156 66.523438 26.121094 67.546875 32.664062 C 68.273438 37.316406 67.074219 47.488281 68.019531 49.066406 C 68.019531 49.066406 76.054688 50.328125 79.207031 52.375 C 82.359375 54.425781 87.007812 65.007812 87.007812 65.007812 C 87.007812 65.007812 99.691406 67.136719 103.554688 63.507812 C 103.554688 63.507812 104.5 62.71875 104.734375 63.351562 C 104.972656 63.980469 101.742188 71.851562 85.726562 74.53125 C 85.726562 74.53125 77.394531 76.34375 70.070312 75.164062 C 65.707031 74.457031 46.652344 64.492188 49.832031 52.175781 C 49.832031 52.175781 54.152344 41.339844 53.285156 40.550781 C 52.417969 39.761719 57.976562 23.535156 57.976562 23.535156 " fill-opacity="1" fill-rule="nonzero"/></g><path fill="#669832" d="M 76.292969 75.554688 C 78.65625 72.914062 78.378906 68.992188 78.378906 68.992188 L 71.289062 72.691406 C 71.289062 72.691406 70.871094 74.003906 70.832031 75.273438 C 72.65625 75.515625 74.523438 75.585938 76.292969 75.554688 " fill-opacity="1" fill-rule="nonzero"/><path fill="#669832" d="M 53.789062 64.789062 C 55.328125 63.554688 56.753906 61.660156 57.933594 62.035156 C 59.613281 62.566406 60.949219 62.464844 60.949219 62.464844 C 64.890625 60.648438 61.664062 54.738281 61.664062 54.738281 L 56.988281 57.914062 L 50.773438 60.335938 C 51.53125 61.914062 52.574219 63.402344 53.789062 64.789062 " fill-opacity="1" fill-rule="nonzero"/><path fill="#669832" d="M 57.515625 42.65625 C 59.824219 41.214844 59.433594 33.691406 59.433594 33.691406 L 53.386719 38.726562 C 53.183594 39.730469 53.125 40.40625 53.285156 40.550781 C 53.566406 40.804688 53.304688 42.097656 52.828125 43.734375 C 54.019531 43.746094 56.003906 43.601562 57.515625 42.65625 " fill-opacity="1" fill-rule="nonzero"/><g clip-path="url(#id2)"><path fill="#f3e271" d="M 104.742188 63.410156 C 99.097656 70.8125 84.015625 74.042969 76.371094 73.742188 C 68.335938 73.429688 57.304688 59.867188 56.15625 57.5 C 55.007812 55.136719 56.675781 52.457031 56.675781 47.882812 C 56.675781 43.308594 55.636719 38.410156 55.636719 38.410156 L 53.363281 40.691406 C 53.714844 41.859375 51.363281 48.207031 50.316406 50.933594 L 50.316406 50.9375 C 50.273438 51.039062 50.238281 51.136719 50.203125 51.226562 L 50.1875 51.261719 C 50.171875 51.300781 50.160156 51.339844 50.144531 51.378906 L 50.136719 51.394531 C 50.125 51.429688 50.109375 51.46875 50.09375 51.503906 L 50.085938 51.53125 C 50.070312 51.5625 50.058594 51.59375 50.046875 51.625 L 50.039062 51.652344 C 50.023438 51.683594 50.011719 51.714844 50.003906 51.742188 L 50 51.746094 C 49.976562 51.808594 49.953125 51.867188 49.933594 51.917969 L 49.917969 51.957031 L 49.902344 52 L 49.898438 52.003906 C 49.878906 52.058594 49.863281 52.097656 49.851562 52.125 C 49.839844 52.15625 49.832031 52.175781 49.832031 52.175781 C 46.652344 64.492188 65.707031 74.457031 70.066406 75.164062 C 77.394531 76.34375 85.726562 74.53125 85.726562 74.53125 C 93.5625 73.21875 98.335938 70.667969 101.140625 68.328125 C 103.664062 66.027344 104.738281 63.871094 104.742188 63.410156 " fill-opacity="1" fill-rule="nonzero"/></g><path fill="#dcb74f" d="M 76.292969 75.554688 C 76.789062 75 77.171875 74.382812 77.460938 73.761719 C 77.085938 73.761719 76.71875 73.757812 76.371094 73.742188 C 74.921875 73.6875 73.375 73.195312 71.804688 72.421875 L 71.289062 72.691406 C 71.289062 72.691406 70.871094 74.003906 70.832031 75.273438 C 72.65625 75.515625 74.523438 75.585938 76.292969 75.554688 " fill-opacity="1" fill-rule="nonzero"/><path fill="#dcb74f" d="M 53.789062 64.789062 C 55.328125 63.554688 56.753906 61.660156 57.933594 62.035156 C 58.6875 62.273438 59.367188 62.382812 59.894531 62.433594 C 58.316406 60.632812 57.113281 59.054688 56.503906 58.101562 L 50.773438 60.335938 C 51.53125 61.914062 52.574219 63.402344 53.789062 64.789062 " fill-opacity="1" fill-rule="nonzero"/><path fill="#dcb74f" d="M 56.382812 43.199219 C 56.078125 40.488281 55.636719 38.410156 55.636719 38.410156 L 53.363281 40.691406 C 53.496094 41.128906 53.246094 42.300781 52.828125 43.734375 C 53.738281 43.742188 55.113281 43.660156 56.382812 43.199219 " fill-opacity="1" fill-rule="nonzero"/><path fill="#84cf45" d="M 53.835938 23.285156 C 53.835938 23.285156 38.238281 25.804688 35.242188 29.277344 C 32.25 32.746094 32.722656 43.46875 38.550781 44.730469 C 42.847656 45.65625 54.625 41.734375 57.777344 38.265625 C 60.929688 34.792969 64.394531 21.550781 53.835938 23.285156 " fill-opacity="1" fill-rule="nonzero"/><path fill="#381214" d="M 38.550781 39.839844 C 38.550781 39.839844 40.757812 37.316406 39.8125 37.003906 C 38.867188 36.6875 38.550781 39.839844 38.550781 39.839844 " fill-opacity="1" fill-rule="nonzero"/><path fill="#669832" d="M 34.957031 42.320312 C 34.972656 42.328125 36.359375 42.925781 38.308594 42.925781 C 38.863281 42.925781 39.464844 42.878906 40.09375 42.753906 C 40.800781 42.613281 41.339844 42.421875 41.753906 42.214844 C 42.371094 41.898438 42.710938 41.53125 42.902344 41.222656 C 42.996094 41.066406 43.054688 40.929688 43.09375 40.832031 C 43.113281 40.78125 43.128906 40.742188 43.136719 40.71875 L 43.148438 40.699219 L 43.0625 40.648438 L 43.132812 40.71875 L 43.148438 40.699219 L 43.0625 40.648438 L 43.132812 40.71875 L 42.964844 40.550781 L 42.777344 40.691406 C 42.777344 40.695312 43.003906 41 43.277344 41.308594 C 43.414062 41.460938 43.5625 41.617188 43.703125 41.742188 C 43.773438 41.804688 43.84375 41.859375 43.917969 41.902344 C 43.992188 41.945312 44.070312 41.984375 44.183594 41.988281 C 44.246094 41.988281 44.320312 41.96875 44.378906 41.925781 C 44.4375 41.882812 44.476562 41.820312 44.5 41.765625 C 44.574219 41.570312 44.769531 41.105469 44.949219 40.699219 C 45.035156 40.496094 45.121094 40.304688 45.179688 40.164062 C 45.242188 40.023438 45.28125 39.9375 45.28125 39.9375 L 45.066406 39.839844 L 44.847656 39.929688 C 44.847656 39.933594 44.984375 40.269531 45.179688 40.613281 C 45.277344 40.785156 45.386719 40.957031 45.511719 41.101562 C 45.574219 41.175781 45.644531 41.238281 45.722656 41.292969 C 45.800781 41.34375 45.894531 41.386719 46.011719 41.386719 C 46.074219 41.386719 46.136719 41.375 46.195312 41.34375 C 46.253906 41.316406 46.300781 41.277344 46.34375 41.230469 C 46.714844 40.820312 46.914062 40.273438 47.039062 39.824219 C 47.15625 39.378906 47.191406 39.03125 47.191406 39.023438 L 46.957031 39 L 46.742188 39.101562 C 46.746094 39.105469 46.929688 39.496094 47.175781 39.890625 C 47.296875 40.089844 47.433594 40.289062 47.578125 40.453125 C 47.648438 40.535156 47.722656 40.605469 47.808594 40.664062 C 47.890625 40.71875 47.988281 40.769531 48.113281 40.769531 C 48.167969 40.773438 48.230469 40.757812 48.285156 40.734375 C 48.339844 40.707031 48.382812 40.667969 48.421875 40.628906 C 49.003906 39.960938 49.285156 39.226562 49.445312 38.417969 L 49.214844 38.371094 L 49.09375 38.574219 C 49.113281 38.585938 49.933594 39.074219 51.296875 39.183594 C 51.425781 39.195312 51.542969 39.097656 51.550781 38.964844 C 51.5625 38.835938 51.464844 38.722656 51.335938 38.710938 C 50.703125 38.660156 50.199219 38.523438 49.855469 38.398438 C 49.683594 38.335938 49.550781 38.273438 49.460938 38.234375 C 49.417969 38.210938 49.386719 38.195312 49.363281 38.183594 L 49.34375 38.167969 L 49.335938 38.167969 L 49.050781 37.996094 L 48.984375 38.324219 C 48.828125 39.089844 48.585938 39.722656 48.066406 40.316406 L 48.113281 40.363281 L 48.113281 40.296875 L 48.066406 40.316406 L 48.113281 40.363281 L 48.113281 40.296875 L 48.113281 40.335938 L 48.121094 40.300781 L 48.113281 40.296875 L 48.113281 40.335938 L 48.121094 40.300781 L 48.117188 40.296875 C 48.105469 40.292969 48.066406 40.269531 48.019531 40.230469 C 47.941406 40.15625 47.839844 40.035156 47.742188 39.894531 C 47.59375 39.683594 47.449219 39.429688 47.34375 39.234375 C 47.289062 39.136719 47.246094 39.050781 47.214844 38.992188 C 47.199219 38.960938 47.1875 38.9375 47.179688 38.921875 L 47.167969 38.898438 L 46.804688 38.128906 L 46.722656 38.976562 L 46.71875 38.988281 C 46.710938 39.054688 46.671875 39.390625 46.558594 39.78125 C 46.449219 40.171875 46.261719 40.621094 45.992188 40.914062 L 45.988281 40.921875 L 45.992188 40.925781 L 45.988281 40.921875 L 45.992188 40.925781 L 45.988281 40.921875 L 46.011719 40.960938 L 46.011719 40.914062 L 45.988281 40.921875 L 46.011719 40.960938 L 46.011719 40.914062 L 46.011719 40.941406 L 46.015625 40.914062 L 46.011719 40.914062 L 46.011719 40.941406 L 46.015625 40.914062 L 46.003906 40.910156 C 45.964844 40.890625 45.875 40.8125 45.792969 40.695312 C 45.664062 40.523438 45.53125 40.28125 45.4375 40.089844 C 45.390625 39.992188 45.351562 39.90625 45.324219 39.847656 C 45.3125 39.816406 45.300781 39.792969 45.292969 39.773438 L 45.285156 39.75 L 45.074219 39.234375 L 44.847656 39.746094 C 44.847656 39.746094 44.691406 40.101562 44.515625 40.511719 C 44.335938 40.921875 44.140625 41.378906 44.058594 41.597656 L 44.171875 41.640625 L 44.101562 41.542969 C 44.074219 41.5625 44.058594 41.589844 44.058594 41.597656 L 44.171875 41.640625 L 44.101562 41.542969 L 44.183594 41.65625 L 44.183594 41.515625 C 44.167969 41.511719 44.128906 41.519531 44.101562 41.542969 L 44.183594 41.65625 L 44.183594 41.515625 L 44.183594 41.59375 L 44.199219 41.515625 L 44.183594 41.515625 L 44.183594 41.59375 L 44.199219 41.515625 L 44.195312 41.53125 L 44.199219 41.515625 L 44.195312 41.53125 L 44.199219 41.515625 C 44.199219 41.515625 44.164062 41.5 44.121094 41.46875 C 44.042969 41.414062 43.9375 41.320312 43.828125 41.207031 C 43.664062 41.039062 43.496094 40.839844 43.367188 40.679688 C 43.304688 40.601562 43.25 40.53125 43.210938 40.484375 C 43.191406 40.460938 43.179688 40.441406 43.167969 40.425781 L 43.152344 40.40625 L 42.992188 40.191406 L 42.796875 40.382812 C 42.761719 40.421875 42.742188 40.453125 42.726562 40.484375 C 42.699219 40.539062 42.679688 40.589844 42.660156 40.644531 C 42.582031 40.839844 42.464844 41.117188 42.101562 41.429688 C 41.734375 41.734375 41.105469 42.066406 40.003906 42.289062 C 39.40625 42.410156 38.835938 42.453125 38.308594 42.453125 C 37.382812 42.453125 36.585938 42.3125 36.023438 42.167969 C 35.742188 42.097656 35.519531 42.027344 35.371094 41.972656 C 35.292969 41.945312 35.234375 41.925781 35.199219 41.910156 C 35.179688 41.902344 35.164062 41.894531 35.15625 41.894531 L 35.144531 41.886719 C 35.023438 41.835938 34.882812 41.890625 34.832031 42.011719 C 34.78125 42.128906 34.835938 42.269531 34.957031 42.320312 " fill-opacity="1" fill-rule="nonzero"/><path fill="#381214" d="M 51.789062 33.691406 C 51.789062 34.257812 52.125 34.714844 52.539062 34.714844 C 52.949219 34.714844 53.285156 34.257812 53.285156 33.691406 C 53.285156 33.125 52.949219 32.664062 52.539062 32.664062 C 52.125 32.664062 51.789062 33.125 51.789062 33.691406 " fill-opacity="1" fill-rule="nonzero"/><path fill="#66b64f" d="M 66.339844 38.410156 C 66.878906 38.140625 67.378906 37.566406 67.792969 36.945312 C 67.789062 35.320312 67.726562 33.824219 67.546875 32.664062 C 67.398438 31.710938 67.085938 30.839844 66.667969 30.050781 C 66.132812 29.765625 65.546875 29.570312 65.078125 29.695312 C 63.921875 30.011719 61.820312 34.425781 62.347656 35.898438 C 62.871094 37.371094 64.882812 39.132812 66.339844 38.410156 " fill-opacity="1" fill-rule="nonzero"/><path fill="#66b64f" d="M 64.65625 39.839844 C 64.65625 39.839844 62.660156 38.082031 61.613281 38.410156 C 60.5625 38.738281 58.878906 41.574219 59.617188 42.207031 C 60.351562 42.835938 62.347656 45.464844 63.503906 43.570312 C 64.65625 41.679688 64.65625 39.839844 64.65625 39.839844 " fill-opacity="1" fill-rule="nonzero"/><path fill="#66b64f" d="M 64.65625 43.46875 C 65.089844 44.242188 66.722656 46.152344 67.640625 46.113281 C 67.617188 44.390625 67.703125 42.15625 67.757812 39.914062 C 67.3125 39.707031 66.828125 39.605469 66.445312 39.839844 C 65.5 40.417969 64.132812 42.519531 64.65625 43.46875 " fill-opacity="1" fill-rule="nonzero"/><path fill="#66b64f" d="M 63.503906 44.867188 C 63.503906 44.867188 60.5 46.515625 60.949219 47.566406 C 61.402344 48.617188 64.320312 51.5625 64.542969 49.984375 C 64.761719 48.40625 65.078125 44.585938 63.503906 44.867188 " fill-opacity="1" fill-rule="nonzero"/><path fill="#66b64f" d="M 66.023438 49.546875 C 66.023438 49.546875 64.34375 52.824219 66.023438 53.664062 C 67.703125 54.503906 71.382812 54.296875 70.75 52.613281 C 70.121094 50.929688 66.480469 48.421875 66.023438 49.546875 " fill-opacity="1" fill-rule="nonzero"/><path fill="#66b64f" d="M 77.050781 51.328125 C 74.90625 50.5 72.199219 49.871094 70.3125 49.488281 C 70.777344 51.039062 71.761719 53.710938 72.957031 53.558594 C 74.457031 53.371094 77.707031 53.488281 77.050781 51.328125 " fill-opacity="1" fill-rule="nonzero"/><path fill="#66b64f" d="M 74.53125 54.144531 C 74.53125 54.144531 70.683594 54.503906 70.824219 55.453125 C 70.960938 56.398438 70.292969 60.601562 72.675781 60.289062 C 75.058594 59.972656 77.4375 60.183594 77.140625 57.976562 C 76.84375 55.765625 75.246094 54.058594 74.53125 54.144531 " fill-opacity="1" fill-rule="nonzero"/><path fill="#66b64f" d="M 79.207031 52.375 C 79.117188 52.320312 79.023438 52.261719 78.925781 52.203125 C 78.085938 52.558594 77.167969 53.058594 77.164062 53.566406 C 77.160156 54.503906 78.105469 58.605469 79.261719 58.5 C 80.230469 58.410156 82.09375 58.324219 82.851562 56.921875 C 81.628906 54.902344 80.324219 53.105469 79.207031 52.375 " fill-opacity="1" fill-rule="nonzero"/><path fill="#66b64f" d="M 80.167969 59.550781 C 80.167969 59.550781 75.269531 60.078125 75.375 61.339844 C 75.476562 62.601562 78.867188 65.332031 80.167969 64.28125 C 81.464844 63.230469 80.167969 59.550781 80.167969 59.550781 " fill-opacity="1" fill-rule="nonzero"/><path fill="#66b64f" d="M 82.726562 58.503906 C 82.726562 58.503906 80.941406 59.339844 81.359375 60.8125 C 81.78125 62.285156 84.066406 63.328125 84.511719 62.035156 C 84.960938 60.742188 83.644531 59.074219 82.726562 58.503906 " fill-opacity="1" fill-rule="nonzero"/><path fill="#66b64f" d="M 87.007812 65.007812 C 87.007812 65.007812 86.425781 63.679688 85.535156 61.878906 C 84.589844 62.710938 83.113281 64.15625 83.167969 65.019531 C 83.238281 66.085938 86.03125 65.984375 87.527344 65.085938 C 87.195312 65.039062 87.007812 65.007812 87.007812 65.007812 " fill-opacity="1" fill-rule="nonzero"/><path fill="#66b64f" d="M 81.296875 64.519531 C 81.296875 64.519531 78.554688 66.910156 80.167969 67.332031 C 81.78125 67.75 83.070312 68.066406 82.949219 67.332031 C 82.832031 66.59375 81.296875 64.519531 81.296875 64.519531 " fill-opacity="1" fill-rule="nonzero"/><path fill="#66b64f" d="M 88.417969 67.773438 C 90.082031 68.3125 93.910156 66.964844 94.230469 65.625 C 92.035156 65.597656 89.980469 65.398438 88.625 65.234375 C 87.875 66.109375 87.003906 67.3125 88.417969 67.773438 " fill-opacity="1" fill-rule="nonzero"/><path fill="#66b64f" d="M 94.257812 66.699219 C 94.257812 66.699219 92.183594 68.066406 93.125 68.382812 C 94.074219 68.699219 96.699219 68.382812 96.171875 67.539062 C 95.648438 66.699219 94.257812 66.699219 94.257812 66.699219 " fill-opacity="1" fill-rule="nonzero"/><path fill="#66b64f" d="M 96.46875 65.585938 C 96.082031 66.085938 95.820312 66.597656 96.242188 66.699219 C 97.117188 66.910156 98.484375 67.054688 99.011719 66.144531 C 99.179688 65.855469 99.28125 65.550781 99.34375 65.273438 C 98.429688 65.4375 97.453125 65.535156 96.46875 65.585938 " fill-opacity="1" fill-rule="nonzero"/><path fill="#84cf45" d="M 59.984375 53.597656 C 59.984375 53.597656 57.382812 52.261719 55.804688 54.738281 C 55.804688 54.738281 52.058594 57.222656 50.960938 58.289062 C 50.960938 58.289062 46.148438 53.769531 45.308594 53.453125 C 44.46875 53.140625 41.957031 53.664062 41.585938 54.820312 C 41.585938 54.820312 41.527344 55.160156 42.210938 54.992188 C 42.894531 54.820312 43.679688 54.664062 43.679688 54.664062 C 43.679688 54.664062 41.527344 56.234375 41.75 56.917969 C 41.851562 57.21875 42.351562 57.109375 42.945312 56.855469 C 43.503906 56.617188 44.363281 56.242188 44.363281 56.242188 C 44.363281 56.242188 48.558594 61.796875 49.660156 62.390625 C 50.765625 62.980469 58.367188 59.789062 58.367188 59.789062 C 58.367188 59.789062 60.917969 60.417969 62.046875 59 C 63.175781 57.582031 62.269531 54.101562 59.984375 53.597656 " fill-opacity="1" fill-rule="nonzero"/><path fill="#75b437" d="M 62.046875 59 C 62.441406 58.5 62.585938 57.75 62.511719 56.960938 C 60.300781 54.070312 52.023438 60.972656 50.765625 61.128906 C 49.503906 61.285156 45.644531 56.160156 45.011719 55.925781 C 44.804688 55.847656 44.496094 56.035156 44.175781 56.324219 C 44.289062 56.273438 44.363281 56.242188 44.363281 56.242188 C 44.363281 56.242188 48.558594 61.796875 49.660156 62.390625 C 50.765625 62.980469 58.367188 59.789062 58.367188 59.789062 C 58.367188 59.789062 60.917969 60.417969 62.046875 59 " fill-opacity="1" fill-rule="nonzero"/><path fill="#381214" d="M 42.917969 55.277344 C 42.324219 55.792969 41.621094 56.511719 41.75 56.917969 C 41.851562 57.21875 42.351562 57.109375 42.945312 56.855469 C 43.238281 56.730469 43.613281 56.570312 43.902344 56.441406 C 44.03125 55.769531 43.28125 55.410156 42.917969 55.277344 " fill-opacity="1" fill-rule="nonzero"/><path fill="#381214" d="M 41.585938 54.820312 C 41.585938 54.820312 41.527344 55.160156 42.210938 54.992188 C 42.492188 54.921875 42.792969 54.851562 43.050781 54.796875 C 43.128906 54.5 42.945312 54.046875 42.800781 53.757812 C 42.21875 54.003906 41.734375 54.363281 41.585938 54.820312 " fill-opacity="1" fill-rule="nonzero"/><g clip-path="url(#id3)"><path fill="#84cf45" d="M 73.992188 62.464844 C 73.992188 62.464844 64.597656 62.152344 62.265625 67.894531 C 59.929688 73.636719 70.910156 83.101562 70.910156 83.101562 C 70.910156 83.101562 70.046875 86.09375 68.648438 87.148438 C 66.421875 88.179688 66.28125 87.714844 65.210938 87.882812 C 63.835938 88.101562 64.324219 88.613281 64.324219 88.613281 C 64.324219 88.613281 62.660156 89.039062 63.605469 89.722656 C 63.605469 89.722656 62.164062 90.640625 63.554688 90.90625 C 64.359375 91.058594 69.019531 91.300781 70.332031 90.695312 C 71.96875 89.941406 76.847656 85.558594 76.609375 83.914062 C 76.136719 80.683594 73.949219 75.746094 73.328125 74.242188 C 73.328125 74.242188 77.171875 73.113281 78.058594 71.117188 C 78.945312 69.117188 78.179688 64.324219 73.992188 62.464844 " fill-opacity="1" fill-rule="nonzero"/></g><path fill="#381214" d="M 64.578125 89.695312 C 64.839844 88.855469 64.324219 88.613281 64.324219 88.613281 C 64.324219 88.613281 62.660156 89.039062 63.605469 89.722656 C 63.605469 89.722656 63.472656 89.808594 63.328125 89.933594 C 63.8125 90.109375 64.425781 90.1875 64.578125 89.695312 " fill-opacity="1" fill-rule="nonzero"/><path fill="#381214" d="M 64.324219 88.613281 C 64.324219 88.613281 64.226562 88.640625 64.09375 88.6875 L 64.105469 88.699219 C 64.210938 88.75 65.027344 88.933594 65.285156 88.59375 C 65.453125 88.371094 65.351562 88.066406 65.257812 87.875 L 65.210938 87.882812 C 63.835938 88.101562 64.324219 88.613281 64.324219 88.613281 " fill-opacity="1" fill-rule="nonzero"/><path fill="#669832" d="M 63.195312 67.671875 C 63.191406 67.679688 62.976562 67.941406 62.765625 68.339844 C 62.550781 68.742188 62.335938 69.285156 62.335938 69.863281 C 62.332031 70.242188 62.429688 70.636719 62.6875 70.996094 C 62.832031 71.203125 62.988281 71.355469 63.152344 71.460938 C 63.3125 71.5625 63.484375 71.617188 63.65625 71.617188 C 63.839844 71.617188 64.015625 71.554688 64.167969 71.449219 C 64.398438 71.289062 64.582031 71.035156 64.710938 70.730469 C 64.839844 70.425781 64.914062 70.0625 64.914062 69.671875 C 64.914062 69.558594 64.90625 69.441406 64.890625 69.320312 C 64.851562 68.964844 64.75 68.703125 64.601562 68.519531 C 64.453125 68.335938 64.25 68.242188 64.050781 68.242188 C 63.804688 68.242188 63.578125 68.371094 63.410156 68.570312 C 63.246094 68.773438 63.136719 69.054688 63.136719 69.375 C 63.136719 69.460938 63.144531 69.550781 63.160156 69.644531 C 63.175781 69.726562 63.257812 69.785156 63.34375 69.769531 C 63.429688 69.753906 63.488281 69.671875 63.472656 69.589844 C 63.457031 69.515625 63.453125 69.445312 63.453125 69.375 C 63.453125 69.125 63.535156 68.914062 63.65625 68.773438 C 63.773438 68.628906 63.921875 68.554688 64.050781 68.558594 C 64.15625 68.558594 64.257812 68.597656 64.359375 68.71875 C 64.457031 68.835938 64.542969 69.042969 64.578125 69.355469 C 64.589844 69.464844 64.597656 69.570312 64.597656 69.671875 C 64.597656 70.136719 64.476562 70.558594 64.296875 70.851562 C 64.203125 71 64.101562 71.113281 63.988281 71.1875 C 63.878906 71.261719 63.769531 71.300781 63.65625 71.300781 C 63.550781 71.300781 63.441406 71.269531 63.320312 71.195312 C 63.199219 71.117188 63.070312 70.996094 62.941406 70.8125 C 62.730469 70.511719 62.648438 70.191406 62.648438 69.863281 C 62.648438 69.367188 62.84375 68.863281 63.042969 68.488281 C 63.144531 68.300781 63.242188 68.144531 63.316406 68.039062 C 63.355469 67.984375 63.386719 67.941406 63.40625 67.914062 L 63.429688 67.882812 L 63.4375 67.871094 C 63.492188 67.804688 63.484375 67.707031 63.414062 67.648438 C 63.347656 67.59375 63.25 67.605469 63.195312 67.671875 " fill-opacity="1" fill-rule="nonzero"/><g clip-path="url(#id4)"><path fill="#75b437" d="M 76.609375 83.914062 C 76.136719 80.683594 73.949219 75.746094 73.328125 74.242188 C 73.328125 74.242188 77.171875 73.113281 78.058594 71.117188 C 78.679688 69.710938 78.488281 66.925781 76.863281 64.746094 C 73.523438 65.28125 69.359375 70.667969 69.359375 71.929688 C 69.359375 73.347656 74.636719 81.550781 74.875 82.335938 C 75.109375 83.125 71.328125 88.488281 70.164062 89.34375 C 68.996094 90.195312 64.652344 90.304688 64.652344 90.304688 L 64.191406 90.980469 C 65.738281 91.113281 69.222656 91.203125 70.332031 90.695312 C 71.96875 89.941406 76.847656 85.558594 76.609375 83.914062 " fill-opacity="1" fill-rule="nonzero"/></g><g clip-path="url(#id5)"><path fill="#381214" d="M 64.921875 89.617188 C 64.632812 89.507812 63.972656 89.625 63.585938 89.707031 L 63.605469 89.722656 C 63.605469 89.722656 62.164062 90.640625 63.554688 90.90625 C 63.792969 90.949219 64.363281 91.003906 65.082031 91.039062 C 65.4375 90.535156 65.292969 89.757812 64.921875 89.617188 " fill-opacity="1" fill-rule="nonzero"/></g><path fill="#669832" d="M 77.058594 64.617188 C 77.050781 64.605469 76.53125 63.8125 75.507812 63.019531 C 74.484375 62.226562 72.945312 61.429688 70.917969 61.429688 C 69.726562 61.429688 68.375 61.707031 66.871094 62.40625 L 66.839844 62.421875 C 66.832031 62.425781 66.214844 62.835938 65.453125 63.476562 C 64.691406 64.117188 63.78125 64.988281 63.191406 65.941406 C 63.125 66.050781 63.15625 66.195312 63.269531 66.265625 C 63.378906 66.335938 63.527344 66.300781 63.59375 66.1875 C 64.136719 65.3125 65.015625 64.460938 65.757812 63.835938 C 66.128906 63.527344 66.464844 63.269531 66.707031 63.09375 C 66.828125 63.003906 66.929688 62.933594 66.996094 62.886719 C 67.03125 62.867188 67.054688 62.847656 67.074219 62.835938 C 67.089844 62.824219 67.097656 62.816406 67.097656 62.816406 L 66.96875 62.621094 L 67.070312 62.835938 C 68.519531 62.160156 69.800781 61.90625 70.917969 61.902344 C 72.816406 61.90625 74.25 62.648438 75.21875 63.394531 C 75.699219 63.769531 76.066406 64.144531 76.308594 64.421875 C 76.429688 64.5625 76.519531 64.675781 76.578125 64.757812 C 76.609375 64.796875 76.628906 64.828125 76.644531 64.847656 L 76.660156 64.871094 L 76.664062 64.878906 C 76.734375 64.988281 76.882812 65.019531 76.992188 64.945312 C 77.101562 64.875 77.132812 64.726562 77.058594 64.617188 " fill-opacity="1" fill-rule="nonzero"/><path fill="#669832" d="M 62.589844 56.109375 C 62.582031 56.097656 62.34375 55.394531 61.777344 54.679688 C 61.496094 54.324219 61.128906 53.960938 60.667969 53.6875 C 60.207031 53.414062 59.644531 53.226562 58.992188 53.230469 C 58.0625 53.230469 56.957031 53.597656 55.664062 54.546875 C 55.558594 54.625 55.535156 54.773438 55.613281 54.878906 C 55.691406 54.984375 55.835938 55.007812 55.941406 54.929688 C 57.183594 54.019531 58.191406 53.703125 58.992188 53.703125 C 59.554688 53.703125 60.027344 53.859375 60.425781 54.09375 C 61.023438 54.449219 61.460938 54.992188 61.738281 55.449219 C 61.878906 55.679688 61.980469 55.886719 62.046875 56.035156 C 62.082031 56.109375 62.105469 56.167969 62.121094 56.207031 C 62.128906 56.226562 62.132812 56.242188 62.136719 56.253906 L 62.140625 56.261719 L 62.144531 56.265625 C 62.183594 56.390625 62.320312 56.453125 62.441406 56.410156 C 62.566406 56.371094 62.632812 56.234375 62.589844 56.109375 " fill-opacity="1" fill-rule="nonzero"/><path fill="#669832" d="M 65.3125 89.726562 C 65.316406 89.726562 66.042969 89.597656 66.890625 89.375 C 67.3125 89.265625 67.769531 89.128906 68.179688 88.976562 C 68.589844 88.824219 68.957031 88.65625 69.21875 88.460938 C 69.285156 88.410156 69.300781 88.308594 69.25 88.238281 C 69.195312 88.171875 69.097656 88.15625 69.027344 88.210938 C 68.8125 88.371094 68.464844 88.535156 68.070312 88.683594 C 67.472656 88.902344 66.769531 89.085938 66.214844 89.214844 C 65.9375 89.28125 65.699219 89.332031 65.527344 89.367188 C 65.441406 89.382812 65.375 89.394531 65.328125 89.40625 C 65.28125 89.414062 65.257812 89.417969 65.257812 89.417969 C 65.171875 89.433594 65.117188 89.515625 65.132812 89.601562 C 65.144531 89.6875 65.226562 89.742188 65.3125 89.726562 " fill-opacity="1" fill-rule="nonzero"/><path fill="#669832" d="M 67.785156 88.179688 C 67.78125 88.179688 67.679688 88.195312 67.519531 88.222656 C 67.273438 88.261719 66.898438 88.320312 66.542969 88.371094 C 66.191406 88.417969 65.847656 88.457031 65.699219 88.457031 L 65.664062 88.457031 C 65.578125 88.453125 65.503906 88.519531 65.5 88.605469 C 65.492188 88.691406 65.558594 88.765625 65.648438 88.773438 C 65.664062 88.773438 65.683594 88.773438 65.699219 88.773438 C 65.828125 88.773438 66.015625 88.753906 66.238281 88.726562 C 66.902344 88.648438 67.835938 88.492188 67.835938 88.492188 C 67.921875 88.476562 67.980469 88.394531 67.964844 88.308594 C 67.949219 88.222656 67.867188 88.164062 67.785156 88.179688 " fill-opacity="1" fill-rule="nonzero"/><path fill="#669832" d="M 55.320312 85.636719 C 55.324219 85.640625 55.933594 85.847656 56.710938 86.058594 C 57.492188 86.269531 58.4375 86.480469 59.140625 86.484375 C 59.28125 86.484375 59.414062 86.472656 59.535156 86.453125 C 59.621094 86.4375 59.679688 86.359375 59.664062 86.273438 C 59.652344 86.1875 59.570312 86.128906 59.484375 86.140625 C 59.386719 86.160156 59.269531 86.167969 59.140625 86.167969 C 58.496094 86.167969 57.558594 85.960938 56.792969 85.753906 C 56.410156 85.652344 56.066406 85.546875 55.820312 85.46875 C 55.695312 85.429688 55.597656 85.398438 55.53125 85.375 C 55.460938 85.351562 55.425781 85.339844 55.425781 85.339844 C 55.34375 85.3125 55.253906 85.355469 55.222656 85.4375 C 55.195312 85.519531 55.238281 85.609375 55.320312 85.636719 " fill-opacity="1" fill-rule="nonzero"/><path fill="#669832" d="M 56.046875 85.015625 C 56.050781 85.015625 56.382812 85.121094 56.796875 85.226562 C 57.214844 85.328125 57.707031 85.4375 58.0625 85.4375 C 58.140625 85.4375 58.214844 85.433594 58.28125 85.417969 C 58.367188 85.398438 58.421875 85.316406 58.402344 85.230469 C 58.386719 85.144531 58.300781 85.089844 58.214844 85.109375 C 58.179688 85.117188 58.125 85.121094 58.0625 85.121094 C 57.769531 85.125 57.28125 85.023438 56.875 84.917969 C 56.671875 84.867188 56.488281 84.816406 56.355469 84.777344 C 56.289062 84.757812 56.238281 84.742188 56.199219 84.730469 C 56.164062 84.71875 56.144531 84.714844 56.144531 84.714844 C 56.058594 84.6875 55.972656 84.734375 55.945312 84.816406 C 55.917969 84.898438 55.964844 84.988281 56.046875 85.015625 " fill-opacity="1" fill-rule="nonzero"/><path fill="#7f2225" d="M 12.417969 80.117188 C 12.417969 80.117188 13.085938 80.566406 13.613281 80 C 13.613281 80 13.820312 77.347656 13.425781 77.25 C 13.03125 77.152344 12.417969 80.117188 12.417969 80.117188 " fill-opacity="1" fill-rule="nonzero"/><path fill="#7f2225" d="M 13.566406 79.808594 C 13.566406 79.808594 13.996094 80.304688 14.941406 79.898438 C 15.484375 79.664062 16.238281 76.6875 16.207031 76.496094 C 16.175781 76.304688 13.566406 79.808594 13.566406 79.808594 " fill-opacity="1" fill-rule="nonzero"/><path fill="#7f2225" d="M 15.96875 79.796875 C 15.96875 79.796875 16.390625 80.132812 16.804688 79.996094 C 17.082031 79.90625 18.011719 77.949219 18.054688 77.535156 C 18.089844 77.191406 15.96875 79.796875 15.96875 79.796875 " fill-opacity="1" fill-rule="nonzero"/><path fill="#ae3734" d="M 43.925781 69.476562 C 43.925781 69.476562 46.347656 69.089844 46.726562 68.324219 C 47.109375 67.558594 47.8125 65.074219 46.726562 64.628906 C 45.644531 64.183594 42.972656 65.65625 42.84375 66.386719 C 42.71875 67.113281 42.824219 68.453125 42.824219 68.453125 C 42.824219 68.453125 43.660156 69.222656 43.925781 69.476562 " fill-opacity="1" fill-rule="nonzero"/><path fill="#982829" d="M 43.9375 69.183594 C 43.9375 69.183594 45.890625 68.707031 46.144531 68.070312 C 46.398438 67.433594 46.832031 66.0625 46.296875 65.617188 C 45.761719 65.171875 44.171875 65.816406 43.691406 66.386719 C 43.214844 66.957031 43.238281 68.835938 43.238281 68.835938 L 43.9375 69.183594 " fill-opacity="1" fill-rule="nonzero"/><path fill="#ae3734" d="M 40.296875 67.011719 C 40.296875 67.011719 42.335938 65.230469 42.527344 64.546875 C 42.71875 63.867188 42.253906 59.378906 41.054688 59.296875 C 39.46875 59.191406 38.578125 61 37.75 62.527344 C 36.921875 64.058594 38.386719 67.011719 38.386719 67.011719 L 40.296875 67.011719 " fill-opacity="1" fill-rule="nonzero"/><path fill="#982829" d="M 39.78125 67.011719 C 39.78125 67.011719 42.101562 64.949219 41.976562 64.089844 C 41.847656 63.226562 41.878906 61.507812 41.148438 61.191406 C 40.414062 60.871094 38.410156 62.246094 38.25 63.152344 C 38.089844 64.058594 38.695312 66.796875 38.695312 66.796875 L 39.78125 67.011719 " fill-opacity="1" fill-rule="nonzero"/><path fill="#ae3734" d="M 36.351562 67.011719 C 36.351562 67.011719 37.113281 63.992188 36.734375 62.847656 C 36.351562 61.699219 34.566406 58.769531 32.65625 58.257812 C 30.75 57.75 30.609375 62.675781 30.800781 63.898438 C 30.992188 65.121094 33.644531 67.371094 33.644531 67.371094 L 36.351562 67.011719 " fill-opacity="1" fill-rule="nonzero"/><path fill="#982829" d="M 35.480469 67.011719 C 35.480469 67.011719 36.359375 63.960938 35.96875 62.972656 C 35.574219 61.984375 33.824219 59.949219 32.933594 60.203125 C 32.042969 60.457031 31.152344 63.546875 31.660156 64.28125 C 32.167969 65.011719 34.367188 67.328125 34.367188 67.328125 L 35.480469 67.011719 " fill-opacity="1" fill-rule="nonzero"/><path fill="#ae3734" d="M 31.894531 69.476562 C 31.894531 69.476562 31.449219 66.351562 30.175781 65.457031 C 28.902344 64.566406 27.210938 64.214844 25.84375 64.546875 C 24.191406 64.949219 25.484375 68.648438 25.929688 69.925781 C 26.378906 71.199219 30.738281 71.464844 30.738281 71.464844 L 31.894531 69.476562 " fill-opacity="1" fill-rule="nonzero"/><path fill="#982829" d="M 31.386719 69.546875 C 31.386719 69.546875 30.863281 66.765625 29.65625 66.0625 C 28.445312 65.363281 26.859375 65.332031 26.425781 65.839844 C 25.992188 66.351562 26.28125 69.589844 26.886719 69.835938 C 27.488281 70.078125 30.738281 70.652344 30.738281 70.652344 L 31.386719 69.546875 " fill-opacity="1" fill-rule="nonzero"/><path fill="#ae3734" d="M 28.203125 74.566406 C 28.203125 74.566406 27.328125 71.800781 26.746094 71.464844 C 25.488281 70.738281 23.109375 69.851562 22.34375 70.234375 C 21.578125 70.617188 22.707031 73.984375 23.234375 74.566406 C 23.871094 75.269531 26.226562 75.898438 26.226562 75.898438 L 28.203125 74.566406 " fill-opacity="1" fill-rule="nonzero"/><path fill="#982829" d="M 27.523438 74.863281 C 27.523438 74.863281 27.164062 72.398438 26.089844 71.886719 C 25.023438 71.378906 23.796875 70.648438 23.445312 71.097656 C 23.097656 71.542969 23.429688 74.105469 23.972656 74.441406 C 24.511719 74.78125 26.464844 75.570312 26.464844 75.570312 L 27.523438 74.863281 " fill-opacity="1" fill-rule="nonzero"/><path fill="#c83c3c" d="M 47.894531 82.410156 C 47.507812 84.171875 50.054688 87.613281 50.054688 88.503906 C 50.054688 89.398438 47.183594 89.015625 46.546875 88.503906 C 45.910156 87.996094 43.328125 84.34375 43.402344 81.964844 C 43.402344 81.964844 43.007812 77.128906 45.386719 76.613281 C 47.019531 76.257812 49.117188 76.800781 47.894531 82.410156 " fill-opacity="1" fill-rule="nonzero"/><path fill="#c83c3c" d="M 35.863281 74.371094 C 35.863281 74.371094 33.28125 75.460938 34.546875 79.027344 C 35.40625 81.453125 34.3125 82.085938 33.613281 82.976562 C 32.914062 83.867188 34.503906 87.519531 35.140625 88.03125 C 35.777344 88.539062 39.46875 88.753906 39.46875 87.859375 C 39.46875 86.96875 37.832031 84.644531 38.027344 83.882812 C 38.222656 83.117188 42.167969 83.824219 41.476562 79.023438 C 40.714844 73.726562 37.09375 73.632812 35.863281 74.371094 " fill-opacity="1" fill-rule="nonzero"/><path fill="#e55347" d="M 49.085938 71.445312 C 49.085938 71.445312 49.398438 70.113281 50.445312 69.476562 C 51.277344 68.96875 52.710938 68.945312 53.796875 70.042969 C 53.796875 70.042969 56.171875 72.464844 57.480469 73.355469 C 57.480469 73.355469 60.734375 75.84375 59.398438 78.007812 C 58.0625 80.175781 55.707031 79.984375 54.6875 79.089844 C 54.6875 79.089844 53.605469 79.347656 52.90625 78.582031 C 52.203125 77.816406 51.886719 77.242188 51.886719 77.242188 C 51.886719 77.242188 51.820312 76.671875 49.914062 78.199219 C 48 79.726562 46.347656 84.503906 41.574219 85.289062 C 41.574219 85.289062 32.339844 86.480469 28.074219 81.382812 C 28.074219 81.382812 26.101562 80.371094 23.042969 81.074219 C 19.988281 81.773438 14.128906 82.148438 12.03125 80.300781 C 12.03125 80.300781 11.839844 79.984375 12.410156 79.917969 C 12.984375 79.855469 17.25 79.726562 18.777344 78.964844 C 20.304688 78.199219 26.929688 75.203125 28.136719 73.738281 C 29.347656 72.273438 31.46875 66.824219 35.859375 66.445312 C 42.191406 65.894531 44.308594 69.40625 45.902344 70.554688 C 47.492188 71.703125 47.953125 72.425781 49.085938 71.445312 " fill-opacity="1" fill-rule="nonzero"/><path fill="#d94844" d="M 58.039062 77.503906 C 56.480469 78.136719 53.847656 77.253906 53.085938 75.210938 C 52.320312 73.167969 51.609375 72.125 51.117188 72.304688 C 50.675781 72.464844 49.859375 74.269531 51.355469 77.234375 C 51.859375 77.015625 51.886719 77.242188 51.886719 77.242188 C 51.886719 77.242188 52.203125 77.816406 52.902344 78.582031 C 53.605469 79.347656 54.6875 79.089844 54.6875 79.089844 C 55.707031 79.984375 58.0625 80.175781 59.398438 78.007812 C 60.003906 77.023438 59.664062 75.976562 59.113281 75.125 C 59.144531 75.953125 59.003906 77.113281 58.039062 77.503906 " fill-opacity="1" fill-rule="nonzero"/><path fill="#b5312d" d="M 49.972656 78.152344 C 51.050781 77.296875 51.523438 77.128906 51.726562 77.140625 C 51.136719 76.421875 50 74.757812 50.671875 73.234375 C 50.671875 73.234375 48.511719 75.667969 49.972656 78.152344 " fill-opacity="1" fill-rule="nonzero"/><path fill="#dfa580" d="M 49.914062 78.199219 C 51.164062 77.199219 51.621094 77.097656 51.789062 77.148438 C 51.59375 76.949219 51.0625 76.355469 50.761719 75.570312 C 50.761719 75.570312 49.6875 76.320312 48.414062 77.503906 C 47.140625 78.6875 43.578125 83.230469 38.398438 82.785156 C 33.21875 82.339844 29.804688 80.589844 28.203125 79.128906 C 26.597656 77.667969 24.136719 78.761719 23.117188 79.191406 C 22.167969 79.59375 17.636719 81.808594 12.4375 80.601562 C 14.804688 82.101562 20.167969 81.734375 23.042969 81.074219 C 26.101562 80.371094 28.074219 81.382812 28.074219 81.382812 C 32.339844 86.480469 41.574219 85.289062 41.574219 85.289062 C 46.347656 84.507812 48 79.726562 49.914062 78.199219 " fill-opacity="1" fill-rule="nonzero"/><path fill="#ae3734" d="M 17.011719 79.648438 C 17.011719 79.648438 16.757812 80.414062 15.992188 80.285156 C 15.992188 80.285156 14.210938 78.3125 14.464844 77.992188 C 14.71875 77.671875 17.011719 79.648438 17.011719 79.648438 " fill-opacity="1" fill-rule="nonzero"/><path fill="#ae3734" d="M 15.300781 80.300781 C 15.300781 80.300781 14.867188 80.800781 13.921875 80.390625 C 13.382812 80.15625 12.628906 77.179688 12.660156 76.988281 C 12.6875 76.796875 15.300781 80.300781 15.300781 80.300781 " fill-opacity="1" fill-rule="nonzero"/><g clip-path="url(#id6)"><path fill="#ae3734" d="M 13.382812 80.15625 C 13.382812 80.15625 12.960938 80.496094 12.546875 80.359375 C 12.269531 80.269531 11.339844 78.3125 11.296875 77.898438 C 11.261719 77.554688 13.382812 80.15625 13.382812 80.15625 " fill-opacity="1" fill-rule="nonzero"/></g><path fill="#e55347" d="M 31.226562 75.898438 C 31.226562 75.898438 28.644531 76.988281 29.910156 80.558594 C 30.769531 82.980469 29.675781 83.613281 28.976562 84.507812 C 28.277344 85.398438 29.867188 89.050781 30.503906 89.558594 C 31.140625 90.070312 34.832031 90.28125 34.832031 89.390625 C 34.832031 88.5 33.195312 86.175781 33.390625 85.410156 C 33.585938 84.644531 37.53125 85.351562 36.839844 80.550781 C 36.078125 75.253906 32.457031 75.164062 31.226562 75.898438 " fill-opacity="1" fill-rule="nonzero"/><path fill="#d94844" d="M 33.785156 88.144531 C 33.730469 88.625 33.644531 89.296875 33.644531 89.296875 C 33.644531 89.296875 32.710938 87.75 32.328125 88.144531 C 31.945312 88.539062 31.734375 88.839844 31.308594 88.753906 C 30.886719 88.667969 30.082031 86.246094 30.714844 85.652344 C 31.351562 85.058594 34.503906 82.722656 34.097656 80.851562 C 33.734375 79.203125 33.164062 76.570312 31.460938 75.78125 C 31.375 75.816406 31.296875 75.855469 31.226562 75.898438 C 31.226562 75.898438 28.644531 76.988281 29.910156 80.558594 C 30.769531 82.980469 29.675781 83.613281 28.976562 84.507812 C 28.277344 85.398438 29.867188 89.050781 30.503906 89.558594 C 31.140625 90.070312 34.832031 90.28125 34.832031 89.390625 C 34.832031 89.113281 34.671875 88.695312 34.460938 88.230469 C 34.183594 88.039062 33.816406 87.851562 33.785156 88.144531 " fill-opacity="1" fill-rule="nonzero"/><g clip-path="url(#id7)"><path fill="#e55347" d="M 44.554688 83.382812 C 44.171875 85.148438 46.71875 88.585938 46.71875 89.480469 C 46.71875 90.371094 43.84375 89.988281 43.207031 89.480469 C 42.570312 88.96875 39.992188 85.316406 40.066406 82.941406 C 40.066406 82.941406 39.671875 78.101562 42.046875 77.589844 C 43.683594 77.234375 45.777344 77.773438 44.554688 83.382812 " fill-opacity="1" fill-rule="nonzero"/><path fill="#d94844" d="M 46.105469 87.964844 C 45.984375 87.90625 45.847656 87.910156 45.785156 88.144531 C 45.65625 88.625 45.859375 89.148438 45.566406 88.886719 C 45.273438 88.625 44.863281 88.175781 44.539062 88.398438 C 44.214844 88.625 44.296875 89.15625 43.957031 89.039062 C 43.617188 88.921875 41.882812 85.441406 41.835938 84.597656 C 41.792969 83.816406 41.941406 79.25 42.941406 77.507812 C 42.644531 77.492188 42.339844 77.527344 42.046875 77.589844 C 39.671875 78.101562 40.066406 82.941406 40.066406 82.941406 C 39.992188 85.316406 42.570312 88.96875 43.207031 89.480469 C 43.84375 89.988281 46.71875 90.371094 46.71875 89.480469 C 46.71875 89.191406 46.453125 88.640625 46.105469 87.964844 " fill-opacity="1" fill-rule="nonzero"/></g><path fill="#201e21" d="M 53.257812 72.464844 C 53.257812 72.738281 53.394531 72.960938 53.5625 72.960938 C 53.726562 72.960938 53.863281 72.738281 53.863281 72.464844 C 53.863281 72.191406 53.726562 71.972656 53.5625 71.972656 C 53.394531 71.972656 53.257812 72.191406 53.257812 72.464844 " fill-opacity="1" fill-rule="nonzero"/><path fill="#201e21" d="M 54.789062 72.304688 C 54.789062 72.578125 54.921875 72.800781 55.089844 72.800781 C 55.257812 72.800781 55.390625 72.578125 55.390625 72.304688 C 55.390625 72.035156 55.257812 71.8125 55.089844 71.8125 C 54.921875 71.8125 54.789062 72.035156 54.789062 72.304688 " fill-opacity="1" fill-rule="nonzero"/><path fill="#201e21" d="M 56.636719 76.328125 C 56.683594 76.527344 56.800781 76.667969 56.902344 76.644531 C 57.007812 76.621094 57.054688 76.445312 57.011719 76.246094 C 56.96875 76.050781 56.847656 75.90625 56.746094 75.929688 C 56.644531 75.953125 56.59375 76.132812 56.636719 76.328125 " fill-opacity="1" fill-rule="nonzero"/><path fill="#201e21" d="M 58.617188 75.597656 C 58.660156 75.796875 58.757812 75.945312 58.832031 75.925781 C 58.90625 75.910156 58.933594 75.734375 58.890625 75.539062 C 58.847656 75.339844 58.75 75.195312 58.675781 75.210938 C 58.597656 75.226562 58.574219 75.402344 58.617188 75.597656 " fill-opacity="1" fill-rule="nonzero"/><path fill="#b5312d" d="M 56.332031 76.289062 C 56.332031 76.289062 56.332031 76.273438 56.332031 76.242188 C 56.335938 76.144531 56.347656 75.886719 56.398438 75.664062 C 56.425781 75.554688 56.460938 75.449219 56.503906 75.386719 C 56.527344 75.351562 56.546875 75.328125 56.570312 75.316406 C 56.589844 75.300781 56.609375 75.296875 56.632812 75.292969 L 56.660156 75.296875 C 56.746094 75.316406 56.832031 75.371094 56.910156 75.457031 C 57.027344 75.582031 57.128906 75.769531 57.199219 75.9375 C 57.269531 76.105469 57.308594 76.257812 57.320312 76.308594 C 57.332031 76.359375 57.382812 76.390625 57.433594 76.382812 C 57.484375 76.371094 57.519531 76.320312 57.507812 76.269531 C 57.5 76.222656 57.476562 76.140625 57.4375 76.035156 C 57.382812 75.875 57.300781 75.671875 57.179688 75.496094 C 57.121094 75.40625 57.054688 75.320312 56.972656 75.253906 C 56.894531 75.1875 56.804688 75.132812 56.703125 75.113281 C 56.679688 75.105469 56.65625 75.105469 56.632812 75.105469 C 56.558594 75.101562 56.492188 75.128906 56.441406 75.171875 C 56.351562 75.242188 56.296875 75.347656 56.257812 75.464844 C 56.195312 75.640625 56.167969 75.84375 56.15625 76.003906 C 56.140625 76.167969 56.140625 76.285156 56.140625 76.289062 C 56.140625 76.339844 56.183594 76.382812 56.234375 76.382812 C 56.289062 76.382812 56.332031 76.339844 56.332031 76.289062 " fill-opacity="1" fill-rule="nonzero"/><path fill="#b5312d" d="M 58.550781 75.523438 L 58.542969 75.511719 C 58.527344 75.480469 58.488281 75.398438 58.453125 75.304688 C 58.417969 75.207031 58.390625 75.09375 58.390625 75.015625 C 58.390625 74.96875 58.398438 74.933594 58.410156 74.917969 C 58.421875 74.902344 58.433594 74.890625 58.476562 74.886719 L 58.503906 74.882812 C 58.566406 74.882812 58.617188 74.90625 58.667969 74.949219 C 58.746094 75.015625 58.8125 75.125 58.851562 75.21875 C 58.875 75.269531 58.886719 75.308594 58.898438 75.339844 C 58.902344 75.355469 58.90625 75.367188 58.910156 75.375 L 58.914062 75.386719 C 58.925781 75.4375 58.976562 75.46875 59.027344 75.457031 C 59.082031 75.441406 59.109375 75.390625 59.097656 75.339844 C 59.097656 75.335938 59.058594 75.1875 58.96875 75.03125 C 58.925781 74.949219 58.871094 74.871094 58.792969 74.804688 C 58.71875 74.742188 58.621094 74.691406 58.503906 74.691406 C 58.488281 74.691406 58.46875 74.695312 58.453125 74.695312 C 58.367188 74.707031 58.292969 74.75 58.253906 74.8125 C 58.210938 74.875 58.199219 74.945312 58.199219 75.015625 C 58.199219 75.152344 58.246094 75.296875 58.289062 75.414062 C 58.335938 75.527344 58.378906 75.613281 58.378906 75.613281 C 58.402344 75.660156 58.460938 75.679688 58.507812 75.652344 C 58.554688 75.628906 58.574219 75.570312 58.550781 75.523438 " fill-opacity="1" fill-rule="nonzero"/><path fill="#b5312d" d="M 54.679688 79.027344 C 54.644531 78.996094 53.882812 78.378906 53.65625 76.972656 C 53.648438 76.921875 53.597656 76.886719 53.546875 76.894531 C 53.496094 76.902344 53.460938 76.953125 53.46875 77.003906 C 53.710938 78.515625 54.550781 79.171875 54.5625 79.179688 C 54.605469 79.210938 54.664062 79.203125 54.699219 79.160156 C 54.730469 79.121094 54.722656 79.058594 54.679688 79.027344 " fill-opacity="1" fill-rule="nonzero"/><path fill="#bb7c59" d="M 51.199219 76.410156 C 51.070312 76.214844 50.945312 75.992188 50.835938 75.746094 L 50.824219 75.71875 C 50.804688 75.671875 50.78125 75.621094 50.761719 75.570312 C 50.761719 75.570312 50.230469 75.941406 49.476562 76.570312 C 49.511719 77.078125 49.65625 77.613281 49.972656 78.148438 C 50.984375 77.347656 51.460938 77.152344 51.683594 77.140625 C 51.699219 77.140625 51.714844 77.140625 51.726562 77.140625 C 51.574219 76.953125 51.386719 76.703125 51.199219 76.410156 " fill-opacity="1" fill-rule="nonzero"/><path fill="#b5312d" d="M 50.789062 72.894531 C 50.777344 72.902344 50.351562 73.347656 50.351562 74.210938 C 50.347656 74.933594 50.648438 75.9375 51.714844 77.210938 C 51.746094 77.25 51.808594 77.257812 51.847656 77.222656 C 51.890625 77.1875 51.894531 77.128906 51.859375 77.089844 C 50.816406 75.839844 50.539062 74.878906 50.539062 74.210938 C 50.539062 73.8125 50.640625 73.515625 50.738281 73.316406 C 50.785156 73.21875 50.832031 73.144531 50.867188 73.09375 C 50.886719 73.070312 50.902344 73.054688 50.910156 73.042969 L 50.921875 73.027344 L 50.925781 73.027344 C 50.960938 72.988281 50.960938 72.929688 50.921875 72.890625 C 50.886719 72.855469 50.824219 72.855469 50.789062 72.894531 " fill-opacity="1" fill-rule="nonzero"/><path fill="#b5312d" d="M 40.816406 82.742188 C 40.816406 82.742188 40.757812 82.855469 40.699219 83.007812 C 40.640625 83.160156 40.582031 83.347656 40.582031 83.515625 C 40.582031 83.597656 40.59375 83.679688 40.648438 83.746094 C 40.671875 83.78125 40.707031 83.808594 40.75 83.828125 C 40.792969 83.847656 40.839844 83.855469 40.890625 83.855469 L 40.90625 83.855469 C 41.003906 83.851562 41.09375 83.820312 41.167969 83.769531 C 41.277344 83.691406 41.355469 83.574219 41.40625 83.445312 C 41.460938 83.316406 41.484375 83.167969 41.484375 83.023438 C 41.484375 82.789062 41.421875 82.554688 41.265625 82.398438 C 41.203125 82.335938 41.125 82.300781 41.042969 82.300781 C 40.9375 82.300781 40.84375 82.351562 40.757812 82.425781 C 40.632812 82.535156 40.523438 82.699219 40.441406 82.886719 C 40.363281 83.078125 40.308594 83.296875 40.308594 83.507812 C 40.308594 83.601562 40.320312 83.695312 40.34375 83.78125 C 40.390625 83.972656 40.507812 84.128906 40.65625 84.242188 C 40.800781 84.355469 40.980469 84.421875 41.164062 84.421875 C 41.347656 84.425781 41.535156 84.351562 41.675781 84.1875 C 41.816406 84.027344 41.910156 83.785156 41.929688 83.449219 C 41.933594 83.398438 41.894531 83.351562 41.84375 83.347656 C 41.789062 83.34375 41.746094 83.382812 41.742188 83.4375 C 41.722656 83.742188 41.636719 83.941406 41.53125 84.0625 C 41.425781 84.183594 41.300781 84.230469 41.164062 84.230469 C 41.027344 84.230469 40.886719 84.179688 40.769531 84.089844 C 40.652344 84 40.5625 83.875 40.527344 83.734375 C 40.511719 83.664062 40.5 83.585938 40.5 83.507812 C 40.5 83.265625 40.582031 83 40.699219 82.804688 C 40.753906 82.703125 40.820312 82.621094 40.882812 82.570312 C 40.945312 82.515625 41.003906 82.492188 41.042969 82.492188 C 41.074219 82.492188 41.097656 82.5 41.132812 82.535156 C 41.234375 82.632812 41.292969 82.824219 41.292969 83.023438 C 41.292969 83.1875 41.253906 83.355469 41.183594 83.472656 C 41.148438 83.53125 41.105469 83.578125 41.058594 83.609375 C 41.011719 83.644531 40.960938 83.660156 40.898438 83.664062 L 40.890625 83.664062 C 40.859375 83.664062 40.839844 83.660156 40.828125 83.652344 C 40.808594 83.644531 40.800781 83.636719 40.789062 83.613281 C 40.777344 83.59375 40.773438 83.558594 40.773438 83.515625 C 40.769531 83.394531 40.824219 83.214844 40.878906 83.074219 C 40.90625 83.003906 40.933594 82.941406 40.953125 82.898438 C 40.964844 82.875 40.972656 82.859375 40.980469 82.847656 L 40.988281 82.828125 C 41.011719 82.78125 40.992188 82.722656 40.945312 82.699219 C 40.898438 82.675781 40.84375 82.695312 40.816406 82.742188 " fill-opacity="1" fill-rule="nonzero"/><path fill="#b5312d" d="M 29.949219 83.867188 C 29.945312 83.871094 29.746094 83.976562 29.542969 84.152344 C 29.441406 84.242188 29.339844 84.347656 29.257812 84.472656 C 29.179688 84.597656 29.121094 84.742188 29.121094 84.898438 C 29.121094 84.941406 29.125 84.988281 29.136719 85.035156 C 29.15625 85.136719 29.214844 85.21875 29.292969 85.269531 C 29.371094 85.320312 29.460938 85.335938 29.558594 85.339844 C 29.683594 85.335938 29.820312 85.304688 29.960938 85.25 C 30.164062 85.171875 30.371094 85.042969 30.53125 84.890625 C 30.613281 84.8125 30.679688 84.726562 30.730469 84.640625 C 30.78125 84.550781 30.8125 84.453125 30.8125 84.355469 L 30.8125 84.320312 C 30.804688 84.210938 30.761719 84.117188 30.691406 84.058594 C 30.621094 83.996094 30.53125 83.976562 30.445312 83.976562 C 30.253906 83.976562 30.042969 84.066406 29.867188 84.179688 C 29.78125 84.238281 29.703125 84.300781 29.640625 84.367188 C 29.578125 84.433594 29.53125 84.5 29.519531 84.585938 C 29.515625 84.601562 29.511719 84.621094 29.511719 84.636719 C 29.511719 84.683594 29.523438 84.734375 29.5625 84.773438 C 29.597656 84.8125 29.648438 84.824219 29.683594 84.824219 C 29.730469 84.820312 29.769531 84.808594 29.808594 84.796875 C 29.917969 84.753906 30.019531 84.675781 30.023438 84.675781 C 30.066406 84.644531 30.074219 84.585938 30.042969 84.542969 C 30.011719 84.5 29.953125 84.488281 29.910156 84.519531 L 29.90625 84.523438 C 29.890625 84.535156 29.847656 84.566406 29.800781 84.589844 C 29.777344 84.601562 29.75 84.613281 29.730469 84.621094 C 29.710938 84.628906 29.691406 84.632812 29.683594 84.632812 L 29.679688 84.652344 L 29.691406 84.632812 L 29.683594 84.632812 L 29.679688 84.652344 L 29.691406 84.632812 L 29.675781 84.664062 L 29.703125 84.648438 L 29.691406 84.632812 L 29.675781 84.664062 L 29.703125 84.648438 L 29.695312 84.652344 L 29.707031 84.652344 L 29.703125 84.648438 L 29.695312 84.652344 L 29.707031 84.652344 L 29.703125 84.636719 L 29.707031 84.613281 C 29.707031 84.597656 29.730469 84.546875 29.78125 84.496094 C 29.851562 84.421875 29.96875 84.335938 30.09375 84.269531 C 30.214844 84.207031 30.347656 84.167969 30.445312 84.167969 C 30.503906 84.167969 30.542969 84.179688 30.566406 84.203125 C 30.59375 84.226562 30.613281 84.257812 30.621094 84.335938 L 30.714844 84.328125 L 30.621094 84.332031 L 30.621094 84.355469 C 30.621094 84.429688 30.585938 84.523438 30.519531 84.613281 C 30.421875 84.753906 30.253906 84.890625 30.074219 84.988281 C 29.894531 85.085938 29.699219 85.148438 29.558594 85.148438 C 29.488281 85.148438 29.433594 85.132812 29.394531 85.109375 C 29.359375 85.085938 29.335938 85.054688 29.324219 84.996094 C 29.316406 84.960938 29.3125 84.929688 29.3125 84.898438 C 29.3125 84.789062 29.351562 84.679688 29.417969 84.574219 C 29.519531 84.421875 29.671875 84.285156 29.804688 84.1875 C 29.871094 84.140625 29.929688 84.101562 29.972656 84.078125 C 29.992188 84.0625 30.011719 84.054688 30.023438 84.046875 L 30.035156 84.039062 L 30.039062 84.039062 C 30.085938 84.015625 30.101562 83.957031 30.078125 83.910156 C 30.054688 83.863281 29.996094 83.84375 29.949219 83.867188 " fill-opacity="1" fill-rule="nonzero"/><g clip-path="url(#id8)"><path fill="#6a1e23" d="M 45.019531 88.753906 C 45.019531 88.753906 44.429688 89.707031 44.554688 89.929688 C 44.679688 90.152344 45.902344 90.75 46.125 90.324219 C 46.34375 89.898438 45.570312 89.136719 45.019531 88.753906 " fill-opacity="1" fill-rule="nonzero"/></g><g clip-path="url(#id9)"><path fill="#6a1e23" d="M 46.40625 88.566406 C 46.40625 88.566406 46.277344 89.597656 46.40625 89.875 C 46.535156 90.148438 47.398438 90.03125 47.523438 89.796875 C 47.652344 89.558594 46.753906 88.925781 46.40625 88.566406 " fill-opacity="1" fill-rule="nonzero"/></g><path fill="#6a1e23" d="M 48.40625 87.800781 C 48.40625 87.800781 47.738281 88.582031 47.800781 88.941406 C 47.863281 89.300781 49.40625 89.714844 49.488281 89.394531 C 49.566406 89.078125 48.820312 88.074219 48.40625 87.800781 " fill-opacity="1" fill-rule="nonzero"/><path fill="#6a1e23" d="M 49.839844 87.800781 C 49.839844 87.800781 49.632812 88.789062 49.773438 88.886719 C 49.917969 88.980469 50.808594 89.128906 50.777344 88.753906 C 50.746094 88.375 49.871094 87.875 49.839844 87.800781 " fill-opacity="1" fill-rule="nonzero"/><path fill="#6a1e23" d="M 37.183594 87.402344 C 37.183594 87.402344 36.59375 88.144531 36.785156 88.4375 C 36.976562 88.726562 38.183594 89.085938 38.265625 88.757812 C 38.347656 88.433594 37.484375 87.484375 37.183594 87.402344 " fill-opacity="1" fill-rule="nonzero"/><path fill="#6a1e23" d="M 39.3125 87.210938 C 39.3125 87.210938 38.585938 87.96875 38.734375 88.371094 C 38.886719 88.773438 40.03125 88.8125 39.984375 88.371094 C 39.9375 87.929688 39.566406 87.320312 39.3125 87.210938 " fill-opacity="1" fill-rule="nonzero"/><g clip-path="url(#id10)"><path fill="#6a1e23" d="M 32.566406 88.886719 C 32.566406 88.886719 31.867188 89.644531 31.929688 89.941406 C 31.996094 90.238281 33.683594 90.703125 33.777344 90.367188 C 33.871094 90.03125 33.027344 88.953125 32.566406 88.886719 " fill-opacity="1" fill-rule="nonzero"/></g><g clip-path="url(#id11)"><path fill="#6a1e23" d="M 34.65625 88.6875 C 34.65625 88.6875 33.910156 89.71875 34.140625 89.890625 C 34.367188 90.0625 35.480469 90.367188 35.464844 89.792969 C 35.449219 89.21875 34.65625 88.6875 34.65625 88.6875 " fill-opacity="1" fill-rule="nonzero"/></g><path fill="#b5312d" d="M 29.914062 80.265625 L 29.910156 80.257812 C 29.878906 80.179688 29.621094 79.492188 29.621094 78.628906 C 29.621094 77.988281 29.761719 77.253906 30.234375 76.589844 C 30.710938 75.925781 31.519531 75.324219 32.878906 74.957031 C 32.929688 74.945312 32.960938 74.890625 32.949219 74.839844 C 32.933594 74.789062 32.882812 74.757812 32.832031 74.773438 C 31.4375 75.148438 30.582031 75.773438 30.082031 76.480469 C 29.578125 77.183594 29.429688 77.960938 29.429688 78.628906 C 29.429688 79.59375 29.734375 80.332031 29.738281 80.335938 C 29.757812 80.386719 29.8125 80.410156 29.859375 80.390625 C 29.910156 80.371094 29.933594 80.3125 29.914062 80.265625 " fill-opacity="1" fill-rule="nonzero"/><path fill="#b5312d" d="M 36.917969 82.609375 C 36.917969 82.609375 36.941406 82.316406 36.941406 81.855469 C 36.941406 80.921875 36.84375 79.292969 36.261719 77.882812 C 35.96875 77.179688 35.554688 76.527344 34.964844 76.050781 C 34.371094 75.574219 33.605469 75.277344 32.625 75.277344 C 32.609375 75.277344 32.597656 75.277344 32.582031 75.277344 C 32.53125 75.28125 32.488281 75.324219 32.488281 75.375 C 32.488281 75.429688 32.53125 75.46875 32.585938 75.46875 C 32.597656 75.46875 32.613281 75.46875 32.625 75.46875 C 33.566406 75.46875 34.285156 75.75 34.84375 76.203125 C 35.683594 76.875 36.164062 77.941406 36.429688 79.015625 C 36.695312 80.085938 36.75 81.164062 36.75 81.855469 C 36.75 82.082031 36.742188 82.269531 36.738281 82.394531 C 36.734375 82.460938 36.730469 82.511719 36.730469 82.542969 C 36.726562 82.578125 36.726562 82.59375 36.726562 82.59375 C 36.722656 82.648438 36.761719 82.691406 36.8125 82.699219 C 36.867188 82.703125 36.914062 82.664062 36.917969 82.609375 " fill-opacity="1" fill-rule="nonzero"/><path fill="#b5312d" d="M 34.429688 74.113281 L 34.4375 74.117188 C 34.515625 74.1875 35.191406 74.816406 35.851562 75.796875 C 36.507812 76.78125 37.140625 78.113281 37.140625 79.59375 C 37.140625 80.21875 37.027344 80.871094 36.757812 81.539062 C 36.738281 81.589844 36.761719 81.644531 36.808594 81.664062 C 36.859375 81.683594 36.914062 81.660156 36.933594 81.613281 C 37.214844 80.921875 37.332031 80.242188 37.332031 79.59375 C 37.332031 78.007812 36.636719 76.605469 35.945312 75.597656 C 35.25 74.585938 34.5625 73.972656 34.558594 73.96875 C 34.515625 73.933594 34.457031 73.9375 34.421875 73.976562 C 34.386719 74.015625 34.390625 74.078125 34.429688 74.113281 " fill-opacity="1" fill-rule="nonzero"/><path fill="#b5312d" d="M 32.546875 73.144531 C 32.539062 73.148438 31.699219 73.503906 30.855469 74.265625 C 30.011719 75.03125 29.15625 76.210938 29.15625 77.847656 C 29.15625 78.363281 29.242188 78.921875 29.433594 79.523438 C 29.449219 79.574219 29.503906 79.601562 29.554688 79.585938 C 29.605469 79.570312 29.632812 79.515625 29.617188 79.464844 C 29.429688 78.878906 29.347656 78.339844 29.347656 77.847656 C 29.347656 76.28125 30.160156 75.152344 30.980469 74.410156 C 31.390625 74.039062 31.804688 73.765625 32.109375 73.585938 C 32.265625 73.496094 32.394531 73.429688 32.484375 73.386719 C 32.527344 73.363281 32.5625 73.347656 32.585938 73.335938 L 32.613281 73.324219 L 32.621094 73.320312 C 32.667969 73.300781 32.691406 73.246094 32.671875 73.195312 C 32.652344 73.148438 32.59375 73.125 32.546875 73.144531 " fill-opacity="1" fill-rule="nonzero"/><path fill="#b5312d" d="M 42.945312 77.605469 L 42.96875 77.605469 C 43.074219 77.605469 43.539062 77.628906 43.976562 78.019531 C 44.195312 78.21875 44.410156 78.507812 44.574219 78.941406 C 44.734375 79.375 44.839844 79.953125 44.839844 80.71875 C 44.839844 81.507812 44.726562 82.5 44.445312 83.738281 C 44.433594 83.789062 44.464844 83.839844 44.515625 83.851562 C 44.566406 83.863281 44.617188 83.832031 44.628906 83.78125 C 44.914062 82.53125 45.03125 81.527344 45.03125 80.71875 C 45.03125 79.933594 44.921875 79.332031 44.75 78.875 C 44.496094 78.183594 44.097656 77.8125 43.738281 77.621094 C 43.382812 77.429688 43.066406 77.414062 42.96875 77.414062 C 42.949219 77.414062 42.9375 77.414062 42.933594 77.414062 C 42.882812 77.417969 42.84375 77.460938 42.84375 77.515625 C 42.847656 77.566406 42.894531 77.605469 42.945312 77.605469 " fill-opacity="1" fill-rule="nonzero"/><path fill="#b5312d" d="M 43.324219 75.855469 L 43.328125 75.859375 C 43.386719 75.90625 43.914062 76.324219 44.425781 77.039062 C 44.9375 77.753906 45.433594 78.765625 45.433594 80.003906 C 45.433594 80.714844 45.269531 81.5 44.851562 82.355469 C 44.828125 82.402344 44.847656 82.460938 44.894531 82.480469 C 44.941406 82.507812 45 82.488281 45.023438 82.4375 C 45.453125 81.5625 45.625 80.742188 45.625 80.003906 C 45.625 78.671875 45.074219 77.597656 44.53125 76.855469 C 43.984375 76.117188 43.441406 75.707031 43.4375 75.703125 C 43.394531 75.671875 43.335938 75.679688 43.304688 75.722656 C 43.273438 75.765625 43.28125 75.824219 43.324219 75.855469 " fill-opacity="1" fill-rule="nonzero"/><path fill="#b5312d" d="M 42.128906 76.28125 C 42.125 76.285156 41.53125 76.605469 40.9375 77.304688 C 40.34375 78.007812 39.75 79.09375 39.75 80.613281 C 39.75 81.097656 39.808594 81.625 39.949219 82.199219 C 39.960938 82.25 40.011719 82.28125 40.066406 82.269531 C 40.117188 82.257812 40.148438 82.203125 40.136719 82.152344 C 40 81.59375 39.941406 81.082031 39.941406 80.613281 C 39.941406 79.144531 40.511719 78.105469 41.082031 77.429688 C 41.371094 77.089844 41.65625 76.84375 41.867188 76.683594 C 41.976562 76.601562 42.066406 76.542969 42.125 76.503906 C 42.15625 76.484375 42.183594 76.46875 42.199219 76.460938 L 42.214844 76.449219 L 42.222656 76.449219 C 42.269531 76.421875 42.285156 76.363281 42.261719 76.320312 C 42.234375 76.273438 42.175781 76.253906 42.128906 76.28125 " fill-opacity="1" fill-rule="nonzero"/><path fill="#b5312d" d="M 41.054688 75.304688 C 41.050781 75.308594 40.671875 75.671875 40.292969 76.34375 C 39.917969 77.011719 39.539062 77.988281 39.539062 79.214844 C 39.539062 79.714844 39.601562 80.257812 39.753906 80.835938 C 39.765625 80.886719 39.820312 80.917969 39.871094 80.902344 C 39.921875 80.890625 39.953125 80.839844 39.9375 80.785156 C 39.789062 80.222656 39.730469 79.699219 39.730469 79.214844 C 39.730469 78.027344 40.09375 77.085938 40.460938 76.4375 C 40.644531 76.113281 40.828125 75.863281 40.964844 75.695312 C 41.03125 75.613281 41.089844 75.546875 41.128906 75.503906 C 41.148438 75.484375 41.160156 75.46875 41.171875 75.457031 L 41.183594 75.445312 L 41.1875 75.445312 C 41.226562 75.40625 41.226562 75.347656 41.191406 75.308594 C 41.152344 75.269531 41.09375 75.269531 41.054688 75.304688 " fill-opacity="1" fill-rule="nonzero"/><path fill="#883738" d="M 31.09375 69.328125 C 31.746094 69.992188 33.9375 70.3125 34.492188 70.144531 C 35.144531 69.949219 36.492188 67.085938 35.75 66.457031 C 33.773438 66.671875 32.265625 67.90625 31.09375 69.328125 " fill-opacity="1" fill-rule="nonzero"/><path fill="#883738" d="M 36.148438 68.835938 C 36.148438 68.835938 34.410156 70.277344 34.832031 71.085938 C 35.257812 71.890625 37.253906 73.167969 37.972656 72.445312 C 38.695312 71.722656 39.585938 70.535156 39.035156 69.894531 C 38.484375 69.257812 36.148438 68.835938 36.148438 68.835938 " fill-opacity="1" fill-rule="nonzero"/><path fill="#883738" d="M 42.410156 67.710938 C 41.207031 67.007812 39.652344 66.449219 37.539062 66.390625 C 37.269531 66.554688 37.0625 66.757812 36.988281 67.011719 C 36.699219 67.984375 40.183594 70.304688 41.011719 70.144531 C 41.769531 69.996094 43.074219 68.949219 42.410156 67.710938 " fill-opacity="1" fill-rule="nonzero"/><path fill="#883738" d="M 42.175781 70.1875 C 42.175781 70.1875 40.199219 70.703125 40.042969 71.296875 C 39.882812 71.890625 41.453125 73.761719 42.175781 73.507812 C 42.898438 73.25 45.0625 72.394531 44.253906 71.464844 C 43.449219 70.535156 42.667969 70.042969 42.175781 70.1875 " fill-opacity="1" fill-rule="nonzero"/><path fill="#883738" d="M 39.207031 71.847656 C 39.207031 71.847656 37.847656 72.621094 38.058594 73.234375 C 38.269531 73.847656 39.296875 74.660156 39.84375 74.039062 C 40.394531 73.421875 40.3125 72.566406 39.207031 71.847656 " fill-opacity="1" fill-rule="nonzero"/><path fill="#883738" d="M 33.789062 70.746094 C 33.789062 70.746094 32.445312 70.449219 32.113281 70.914062 C 31.777344 71.382812 32.625 72.253906 33.136719 72.285156 C 33.644531 72.316406 34.535156 72.523438 34.492188 71.847656 C 34.449219 71.171875 33.789062 70.746094 33.789062 70.746094 " fill-opacity="1" fill-rule="nonzero"/><path fill="#883738" d="M 46.296875 70.847656 C 46.171875 70.753906 46.042969 70.65625 45.902344 70.554688 C 45.210938 70.058594 44.421875 69.117188 43.234375 68.253906 C 43.003906 68.5 42.769531 68.859375 42.941406 69.175781 C 43.238281 69.726562 44.933594 71.90625 45.527344 71.496094 C 45.773438 71.328125 46.0625 71.089844 46.296875 70.847656 " fill-opacity="1" fill-rule="nonzero"/><path fill="#883738" d="M 47.015625 74.652344 C 47.863281 74.226562 49.078125 73.78125 48.796875 72.800781 C 48.695312 72.445312 48.554688 72.121094 48.417969 71.851562 C 47.921875 72.011719 47.5 71.761719 46.882812 71.292969 C 46.242188 71.621094 45.09375 72.261719 45.042969 72.65625 C 44.976562 73.210938 46.164062 75.078125 47.015625 74.652344 " fill-opacity="1" fill-rule="nonzero"/><path fill="#883738" d="M 50.292969 69.578125 C 49.367188 70.246094 49.085938 71.445312 49.085938 71.445312 C 49.054688 71.472656 49.027344 71.492188 49 71.511719 C 49.015625 71.730469 49.074219 71.910156 49.222656 71.972656 C 49.730469 72.1875 50.664062 72.3125 50.792969 71.464844 C 50.910156 70.6875 51.105469 69.984375 50.292969 69.578125 " fill-opacity="1" fill-rule="nonzero"/><path fill="#883738" d="M 44.128906 73.054688 C 44.128906 73.054688 42.460938 73.554688 42.59375 74.039062 C 42.726562 74.523438 43.804688 75.578125 44.433594 75.199219 C 45.0625 74.824219 45.367188 74.53125 45.042969 74.039062 C 44.722656 73.546875 44.128906 73.054688 44.128906 73.054688 " fill-opacity="1" fill-rule="nonzero"/><path fill="#883738" d="M 31.191406 72.65625 C 31.691406 71.722656 32.175781 70.664062 31.480469 70.1875 C 31.210938 70.003906 30.933594 69.898438 30.695312 69.835938 C 30.042969 70.699219 29.503906 71.589844 29.054688 72.335938 C 29.585938 72.9375 30.792969 73.398438 31.191406 72.65625 " fill-opacity="1" fill-rule="nonzero"/><path fill="#883738" d="M 29.253906 75.054688 C 29.234375 74.269531 29.332031 73.117188 28.714844 72.898438 C 28.5 73.242188 28.308594 73.53125 28.136719 73.738281 C 27.847656 74.09375 27.238281 74.535156 26.464844 75.011719 C 26.601562 75.28125 26.867188 75.558594 27.292969 75.570312 C 28.085938 75.585938 29.277344 76.007812 29.253906 75.054688 " fill-opacity="1" fill-rule="nonzero"/><path fill="#883738" d="M 26.355469 76.003906 C 26.230469 75.707031 26.0625 75.496094 25.902344 75.351562 C 25.273438 75.71875 24.566406 76.101562 23.851562 76.472656 C 23.917969 76.996094 24.476562 77.820312 25.144531 77.503906 C 25.960938 77.117188 26.660156 76.742188 26.355469 76.003906 " fill-opacity="1" fill-rule="nonzero"/><path fill="#883738" d="M 22.355469 78.273438 C 22.921875 78.097656 23.457031 77.339844 23.148438 76.832031 C 22.292969 77.265625 21.445312 77.679688 20.710938 78.03125 C 20.984375 78.1875 21.753906 78.457031 22.355469 78.273438 " fill-opacity="1" fill-rule="nonzero"/><path fill="#883738" d="M 17.925781 79.265625 C 18.109375 79.472656 18.511719 79.816406 19 79.664062 C 19.515625 79.503906 19.957031 78.855469 19.898438 78.421875 C 19.421875 78.652344 19.03125 78.835938 18.777344 78.964844 C 18.546875 79.078125 18.257812 79.179688 17.925781 79.265625 " fill-opacity="1" fill-rule="nonzero"/><path fill="#be4344" d="M 35.859375 78.09375 C 35.859375 78.09375 36.46875 79.144531 35.96875 79.703125 C 35.46875 80.257812 34.367188 79.195312 34.496094 78.601562 C 34.621094 78.007812 35.558594 76.988281 35.859375 78.09375 " fill-opacity="1" fill-rule="nonzero"/><path fill="#be4344" d="M 36.164062 80.300781 C 36.164062 80.300781 36.816406 81.105469 36.164062 81.257812 C 35.511719 81.40625 34.875 80.761719 35.128906 80.488281 C 35.386719 80.214844 35.90625 79.839844 36.164062 80.300781 " fill-opacity="1" fill-rule="nonzero"/><path fill="#be4344" d="M 36.457031 81.832031 C 36.457031 81.832031 36.351562 83.351562 35.464844 83.757812 C 34.578125 84.164062 34.183594 82.519531 34.613281 82.175781 C 35.046875 81.832031 36.582031 81.136719 36.457031 81.832031 " fill-opacity="1" fill-rule="nonzero"/><path fill="#be4344" d="M 33.941406 84.328125 C 33.675781 84.472656 33.578125 84.855469 33.589844 85.199219 C 33.90625 85.023438 34.539062 84.921875 35.167969 84.632812 C 34.84375 84.414062 34.304688 84.125 33.941406 84.328125 " fill-opacity="1" fill-rule="nonzero"/><path fill="#be4344" d="M 34.097656 82.890625 C 34.097656 82.890625 34.503906 83.691406 34.097656 83.757812 C 33.6875 83.824219 33.347656 84.238281 33.265625 83.757812 C 33.183594 83.28125 33.421875 82.160156 34.097656 82.890625 " fill-opacity="1" fill-rule="nonzero"/><path fill="#be4344" d="M 34.714844 80.8125 C 34.714844 80.8125 35.183594 81.023438 35.074219 81.277344 C 34.960938 81.53125 34.378906 82.46875 34.097656 82.042969 C 33.8125 81.617188 33.496094 81.058594 33.761719 80.8125 C 34.03125 80.566406 34.722656 80.554688 34.714844 80.8125 " fill-opacity="1" fill-rule="nonzero"/><path fill="#be4344" d="M 44.453125 81.042969 C 44.453125 81.042969 44.949219 82.378906 44.433594 82.679688 C 43.917969 82.976562 42.933594 82.273438 43.042969 81.863281 C 43.152344 81.449219 44.144531 80.472656 44.453125 81.042969 " fill-opacity="1" fill-rule="nonzero"/><path fill="#be4344" d="M 44.171875 83.0625 C 44.171875 83.0625 44.171875 84.3125 43.578125 84.257812 C 42.980469 84.207031 42.199219 83.273438 42.78125 83.0625 C 43.363281 82.851562 44.171875 83.0625 44.171875 83.0625 " fill-opacity="1" fill-rule="nonzero"/><path fill="#be4344" d="M 44.59375 84.4375 C 44.28125 84.601562 43.765625 84.925781 43.878906 85.242188 C 43.992188 85.554688 44.648438 85.863281 45.101562 85.925781 C 44.878906 85.414062 44.691406 84.90625 44.59375 84.4375 " fill-opacity="1" fill-rule="nonzero"/><path fill="#be4344" d="M 43.378906 84.597656 C 43.378906 84.597656 42.671875 83.980469 42.59375 84.328125 C 42.515625 84.675781 42.519531 85.550781 42.941406 85.410156 C 43.363281 85.269531 43.765625 84.875 43.378906 84.597656 " fill-opacity="1" fill-rule="nonzero"/><path fill="#be4344" d="M 43.535156 85.652344 C 43.535156 85.652344 43.042969 86.332031 43.375 86.5 C 43.703125 86.671875 44.695312 86.671875 44.453125 86.332031 C 44.214844 85.992188 43.535156 85.652344 43.535156 85.652344 " fill-opacity="1" fill-rule="nonzero"/></svg>