<svg xmlns="http://www.w3.org/2000/svg" xmlns:xlink="http://www.w3.org/1999/xlink" width="150" zoomAndPan="magnify" viewBox="0 0 112.5 112.499997" height="150" preserveAspectRatio="xMidYMid meet" version="1.0"><defs><clipPath id="id1"><path d="M 35.878906 13.5625 L 76.355469 13.5625 L 76.355469 99.0625 L 35.878906 99.0625 Z M 35.878906 13.5625 " clip-rule="nonzero"/></clipPath></defs><path fill="#dddddd" d="M 75.398438 21.25 C 75.515625 21.332031 75.628906 21.414062 75.742188 21.5 C 75.628906 21.414062 75.515625 21.332031 75.398438 21.25 " fill-opacity="1" fill-rule="nonzero"/><path fill="#dddddd" d="M 75.214844 21.125 C 75.277344 21.167969 75.335938 21.207031 75.398438 21.25 C 75.335938 21.207031 75.277344 21.167969 75.214844 21.125 " fill-opacity="1" fill-rule="nonzero"/><path fill="#dddddd" d="M 74.90625 20.925781 C 75.011719 20.992188 75.117188 21.058594 75.21875 21.125 C 75.117188 21.058594 75.011719 20.992188 74.90625 20.925781 " fill-opacity="1" fill-rule="nonzero"/><path fill="#dddddd" d="M 74.582031 20.730469 C 74.691406 20.792969 74.800781 20.859375 74.90625 20.925781 C 74.800781 20.859375 74.691406 20.792969 74.582031 20.730469 " fill-opacity="1" fill-rule="nonzero"/><path fill="#dddddd" d="M 74.109375 20.460938 C 74.269531 20.550781 74.429688 20.636719 74.582031 20.730469 C 74.429688 20.636719 74.269531 20.550781 74.109375 20.460938 " fill-opacity="1" fill-rule="nonzero"/><path fill="#dddddd" d="M 73.96875 20.386719 C 74.015625 20.410156 74.0625 20.4375 74.109375 20.460938 C 74.0625 20.4375 74.015625 20.410156 73.96875 20.386719 " fill-opacity="1" fill-rule="nonzero"/><path fill="#dddddd" d="M 73.320312 20.0625 C 73.515625 20.15625 73.710938 20.25 73.898438 20.351562 C 73.710938 20.25 73.515625 20.15625 73.320312 20.0625 " fill-opacity="1" fill-rule="nonzero"/><path fill="#dddddd" d="M 72.945312 19.890625 C 73.046875 19.933594 73.144531 19.980469 73.246094 20.027344 C 73.144531 19.980469 73.046875 19.933594 72.945312 19.890625 " fill-opacity="1" fill-rule="nonzero"/><path fill="#dddddd" d="M 72.007812 19.5 C 72.328125 19.625 72.640625 19.753906 72.945312 19.890625 C 72.640625 19.753906 72.328125 19.625 72.007812 19.5 " fill-opacity="1" fill-rule="nonzero"/><path fill="#dddddd" d="M 70.515625 18.984375 C 71.027344 19.140625 71.523438 19.3125 72.007812 19.5 C 71.523438 19.3125 71.027344 19.140625 70.515625 18.984375 " fill-opacity="1" fill-rule="nonzero"/><path fill="#dddddd" d="M 70.171875 18.882812 C 70.285156 18.914062 70.402344 18.949219 70.515625 18.984375 C 70.402344 18.949219 70.285156 18.914062 70.171875 18.882812 " fill-opacity="1" fill-rule="nonzero"/><path fill="#dddddd" d="M 69.824219 18.785156 C 69.941406 18.816406 70.054688 18.847656 70.171875 18.882812 C 70.054688 18.847656 69.941406 18.816406 69.824219 18.785156 " fill-opacity="1" fill-rule="nonzero"/><path fill="#dddddd" d="M 69.300781 18.648438 C 69.417969 18.675781 69.535156 18.707031 69.652344 18.738281 C 69.535156 18.707031 69.417969 18.675781 69.300781 18.648438 " fill-opacity="1" fill-rule="nonzero"/><path fill="#dddddd" d="M 68.769531 18.519531 C 68.945312 18.5625 69.125 18.601562 69.300781 18.648438 C 69.125 18.601562 68.945312 18.5625 68.769531 18.519531 " fill-opacity="1" fill-rule="nonzero"/><path fill="#1c1c1c" d="M 59.863281 17.460938 C 59.875 17.46875 59.882812 17.476562 59.890625 17.480469 C 59.882812 17.476562 59.875 17.46875 59.863281 17.460938 " fill-opacity="1" fill-rule="nonzero"/><path fill="#1c1c1c" d="M 59.835938 17.441406 C 59.84375 17.449219 59.855469 17.453125 59.863281 17.460938 C 59.855469 17.453125 59.84375 17.449219 59.835938 17.441406 " fill-opacity="1" fill-rule="nonzero"/><path fill="#1c1c1c" d="M 59.785156 17.417969 C 59.804688 17.425781 59.820312 17.433594 59.835938 17.441406 C 59.820312 17.433594 59.804688 17.425781 59.785156 17.417969 " fill-opacity="1" fill-rule="nonzero"/><path fill="#1c1c1c" d="M 59.714844 17.394531 C 59.742188 17.402344 59.765625 17.410156 59.785156 17.417969 C 59.804688 17.425781 59.820312 17.433594 59.835938 17.441406 C 59.84375 17.449219 59.855469 17.453125 59.863281 17.460938 C 59.875 17.46875 59.882812 17.476562 59.890625 17.480469 C 59.984375 17.5625 60.035156 17.6875 60.027344 17.871094 C 59.765625 17.886719 59.671875 17.738281 59.609375 17.554688 C 59.582031 17.4375 59.710938 17.480469 59.714844 17.394531 " fill-opacity="1" fill-rule="nonzero"/><path fill="#dddddd" d="M 59.199219 22.675781 C 59.210938 22.664062 59.226562 22.648438 59.238281 22.636719 C 59.226562 22.648438 59.210938 22.664062 59.199219 22.675781 " fill-opacity="1" fill-rule="nonzero"/><path fill="#1c1c1c" d="M 59.191406 17.816406 C 59.394531 17.867188 59.425781 18.167969 59.351562 18.34375 C 59.140625 18.308594 59.027344 18.175781 59.035156 17.921875 C 59.078125 17.875 59.179688 17.890625 59.191406 17.816406 " fill-opacity="1" fill-rule="nonzero"/><path fill="#dddddd" d="M 59.152344 22.710938 C 59.167969 22.699219 59.183594 22.6875 59.199219 22.675781 C 59.183594 22.6875 59.167969 22.699219 59.152344 22.710938 " fill-opacity="1" fill-rule="nonzero"/><path fill="#dddddd" d="M 59.039062 22.796875 C 59.054688 22.785156 59.070312 22.773438 59.085938 22.761719 C 59.070312 22.773438 59.054688 22.785156 59.039062 22.796875 " fill-opacity="1" fill-rule="nonzero"/><path fill="#1c1c1c" d="M 58.777344 93.476562 C 58.824219 93.582031 58.945312 93.726562 58.828125 93.84375 L 58.617188 93.84375 C 58.539062 93.679688 58.558594 93.476562 58.777344 93.476562 " fill-opacity="1" fill-rule="nonzero"/><path fill="#dddddd" d="M 58.421875 23.042969 C 58.449219 23.035156 58.476562 23.03125 58.503906 23.023438 C 58.476562 23.03125 58.449219 23.035156 58.421875 23.042969 " fill-opacity="1" fill-rule="nonzero"/><path fill="#1c1c1c" d="M 58.671875 76.378906 C 58.488281 76.558594 58.273438 76.382812 58.253906 76.113281 C 58.464844 76.003906 58.679688 76.117188 58.671875 76.378906 " fill-opacity="1" fill-rule="nonzero"/><path fill="#dddddd" d="M 58.339844 23.054688 C 58.367188 23.050781 58.394531 23.046875 58.421875 23.042969 C 58.394531 23.046875 58.367188 23.050781 58.339844 23.054688 " fill-opacity="1" fill-rule="nonzero"/><path fill="#dddddd" d="M 58.171875 23.074219 C 58.214844 23.070312 58.257812 23.066406 58.296875 23.0625 C 58.257812 23.066406 58.214844 23.070312 58.171875 23.074219 " fill-opacity="1" fill-rule="nonzero"/><path fill="#dddddd" d="M 57.960938 23.089844 C 58.03125 23.085938 58.105469 23.082031 58.171875 23.074219 C 58.105469 23.082031 58.03125 23.085938 57.960938 23.089844 " fill-opacity="1" fill-rule="nonzero"/><path fill="#1c1c1c" d="M 57.785156 76.640625 C 57.980469 76.535156 58.199219 76.613281 58.148438 76.902344 C 57.917969 76.925781 57.761719 76.875 57.785156 76.640625 " fill-opacity="1" fill-rule="nonzero"/><path fill="#1c1c1c" d="M 58.253906 93.84375 C 58.167969 94.332031 57.632812 93.792969 57.886719 93.476562 C 58.167969 93.441406 58.042969 93.808594 58.253906 93.84375 " fill-opacity="1" fill-rule="nonzero"/><path fill="#dddddd" d="M 57.78125 23.09375 C 57.84375 23.09375 57.902344 23.089844 57.960938 23.089844 C 57.902344 23.089844 57.84375 23.09375 57.78125 23.09375 " fill-opacity="1" fill-rule="nonzero"/><path fill="#bcbcbc" d="M 55.800781 36.179688 C 55.886719 36.582031 56.527344 36.429688 56.949219 36.496094 L 56.949219 37.285156 C 56.679688 37.34375 56.339844 37.339844 56.0625 37.390625 C 56.226562 37.683594 56.753906 37.496094 57 37.601562 C 56.917969 37.984375 57.078125 38.21875 56.949219 38.652344 C 56.515625 38.699219 56.28125 38.550781 55.90625 38.546875 C 56.023438 38.921875 56.5625 38.863281 57 38.914062 C 57.039062 39.296875 57.054688 39.523438 57.054688 40.019531 C 56.796875 40.183594 56.257812 40.0625 55.957031 40.179688 C 56.097656 40.457031 56.679688 40.289062 57.054688 40.335938 C 57.042969 40.78125 57.144531 41.121094 57.105469 41.597656 C 56.699219 41.699219 56.292969 41.742188 55.90625 41.597656 C 56.046875 42.085938 56.804688 41.875 57.15625 41.914062 C 57.191406 42.300781 57.089844 42.824219 57.210938 43.125 C 56.90625 43.332031 56.335938 43.226562 56.007812 43.28125 C 56.144531 43.621094 56.78125 43.453125 57.210938 43.492188 C 57.183594 44.109375 57.28125 44.289062 57.261719 44.859375 C 57.074219 44.917969 56.703125 44.917969 56.320312 44.914062 C 56.433594 45.289062 57.039062 45.085938 57.3125 45.175781 C 57.304688 45.574219 57.40625 45.855469 57.367188 46.28125 C 56.917969 46.285156 56.433594 46.253906 56.164062 46.4375 C 56.445312 46.648438 57.152344 46.527344 57.417969 46.597656 C 57.496094 47.359375 57.550781 47.957031 57.679688 48.597656 C 56.398438 49.179688 54.328125 49.105469 52.617188 48.859375 C 52.355469 46.097656 52.332031 43.425781 52.199219 40.441406 C 52.089844 38.003906 51.660156 35.539062 51.519531 33.128906 C 51.480469 32.472656 51.453125 31.753906 51.414062 31.179688 C 51.273438 29.09375 51.425781 26.957031 51.363281 24.972656 C 53.171875 24.839844 55.109375 25.082031 56.949219 24.917969 C 56.941406 25.351562 56.972656 25.707031 57 26.289062 C 56.816406 26.316406 56.199219 26.1875 55.695312 26.339844 C 55.917969 26.523438 56.664062 26.671875 56.949219 26.445312 C 57.054688 26.75 56.988281 27.484375 57 27.707031 C 56.6875 27.742188 56.257812 27.660156 55.976562 27.726562 C 55.964844 27.730469 55.953125 27.734375 55.945312 27.738281 C 55.933594 27.738281 55.921875 27.742188 55.910156 27.746094 C 55.902344 27.75 55.890625 27.753906 55.878906 27.761719 C 55.871094 27.765625 55.859375 27.769531 55.851562 27.773438 C 55.808594 27.796875 55.773438 27.828125 55.746094 27.867188 C 56.082031 27.984375 56.546875 27.976562 57 27.972656 C 57.058594 28.425781 57.03125 28.828125 57.054688 29.496094 C 56.585938 29.625 56.003906 29.671875 55.589844 29.707031 C 55.914062 30.082031 56.460938 29.808594 57.054688 29.8125 C 57.070312 30.371094 56.992188 30.816406 57 31.234375 C 56.566406 31.269531 55.992188 31.164062 55.644531 31.285156 C 55.886719 31.566406 56.507812 31.46875 57 31.496094 C 57.015625 31.953125 56.929688 32.570312 56.949219 33.074219 C 56.542969 33.1875 56.027344 33.066406 55.695312 33.179688 C 55.699219 33.1875 55.703125 33.191406 55.710938 33.195312 C 55.714844 33.199219 55.71875 33.207031 55.722656 33.210938 C 56.011719 33.503906 56.601562 33.257812 56.949219 33.445312 C 56.953125 34.023438 56.941406 34.601562 56.894531 34.863281 C 56.480469 34.8125 55.984375 34.738281 55.589844 34.8125 C 55.824219 35.140625 56.519531 35 56.894531 35.179688 C 56.96875 35.394531 56.9375 35.730469 56.949219 36.125 C 56.628906 36.261719 56.25 36.25 55.800781 36.179688 " fill-opacity="1" fill-rule="nonzero"/><path fill="#665454" d="M 58.617188 93.84375 L 58.828125 93.84375 C 58.945312 93.726562 58.824219 93.582031 58.777344 93.476562 C 58.558594 93.476562 58.539062 93.679688 58.617188 93.84375 Z M 58.253906 76.113281 C 58.273438 76.382812 58.488281 76.558594 58.671875 76.378906 C 58.679688 76.117188 58.464844 76.003906 58.253906 76.113281 Z M 57.886719 93.476562 C 57.632812 93.792969 58.167969 94.332031 58.253906 93.84375 C 58.042969 93.808594 58.167969 93.441406 57.886719 93.476562 Z M 58.148438 76.902344 C 58.199219 76.613281 57.980469 76.535156 57.785156 76.640625 C 57.761719 76.875 57.917969 76.925781 58.148438 76.902344 Z M 57.46875 69.328125 C 57.527344 69.375 57.488281 69.519531 57.628906 69.484375 C 57.777344 69.460938 57.863281 69.375 57.886719 69.222656 C 57.777344 68.992188 57.566406 69.324219 57.46875 69.222656 C 57.585938 69.199219 57.519531 68.933594 57.417969 68.957031 C 57.277344 69.117188 57.066406 69.199219 56.949219 69.378906 C 56.988281 69.390625 57.007812 69.421875 57 69.484375 C 57.246094 69.523438 57.34375 69.410156 57.46875 69.328125 Z M 55.332031 88.375 C 55.476562 88.429688 55.546875 88.429688 55.695312 88.375 L 55.695312 88.109375 C 55.496094 88.121094 55.351562 88.183594 55.332031 88.375 Z M 55.539062 61.433594 C 55.613281 61.515625 55.804688 61.480469 55.957031 61.488281 C 56.058594 61.136719 55.449219 61.042969 55.539062 61.433594 Z M 54.652344 87.214844 C 54.90625 87.363281 55.1875 87.136719 55.277344 86.953125 L 55.277344 86.847656 C 55.039062 86.746094 54.710938 86.964844 54.652344 87.214844 Z M 52.929688 52.070312 C 53.011719 52.050781 53.082031 52.019531 53.144531 51.980469 C 53.164062 51.96875 53.1875 51.953125 53.207031 51.933594 C 53.214844 51.929688 53.222656 51.921875 53.226562 51.917969 C 53.234375 51.910156 53.242188 51.90625 53.246094 51.898438 C 53.367188 51.78125 53.445312 51.617188 53.503906 51.4375 C 53.148438 51.308594 52.75 51.824219 52.929688 52.070312 Z M 53.035156 49.332031 C 54.4375 49.546875 57.269531 49.652344 57.992188 48.808594 C 58.074219 48.714844 58.054688 48.601562 58.097656 48.542969 C 58.210938 48.398438 58.207031 48.445312 58.410156 48.386719 C 58.960938 48.226562 58.996094 48.070312 59.140625 49.386719 C 59.796875 55.398438 59.800781 62.3125 59.925781 68.90625 C 60.007812 73.496094 60.40625 78.597656 60.601562 83.847656 C 60.667969 85.574219 60.667969 87.367188 60.914062 88.953125 C 61.191406 90.722656 61.988281 93.0625 61.28125 94.898438 C 60.652344 96.527344 59.269531 97.859375 57.367188 98.371094 C 55.769531 98.796875 53.558594 98.242188 52.511719 97.371094 C 51.710938 96.703125 51.292969 96.398438 51.3125 94.898438 C 51.320312 94.003906 51.59375 93.074219 51.675781 92.109375 C 51.90625 89.390625 51.910156 86.03125 52.042969 83.21875 C 52.222656 79.382812 51.988281 75.585938 52.09375 71.535156 C 52.246094 65.664062 51.804688 60.558594 51.519531 54.382812 C 51.484375 53.597656 51.5 52.46875 51.519531 51.332031 C 51.535156 50.578125 51.355469 49.625 51.773438 49.210938 C 51.808594 49.179688 51.84375 49.148438 51.886719 49.125 C 51.902344 49.113281 51.917969 49.101562 51.933594 49.09375 C 51.941406 49.089844 51.945312 49.089844 51.953125 49.085938 C 51.960938 49.082031 51.972656 49.078125 51.984375 49.070312 C 52.292969 48.949219 52.464844 49.246094 53.035156 49.332031 Z M 53.503906 52.488281 C 53.226562 52.5 53.042969 52.738281 53.136719 52.964844 C 53.433594 53 53.476562 52.777344 53.554688 52.59375 C 53.542969 52.59375 53.535156 52.585938 53.527344 52.582031 C 53.527344 52.582031 53.523438 52.578125 53.523438 52.578125 C 53.519531 52.574219 53.519531 52.574219 53.515625 52.570312 C 53.515625 52.570312 53.515625 52.566406 53.511719 52.566406 C 53.507812 52.558594 53.507812 52.550781 53.503906 52.542969 C 53.503906 52.539062 53.503906 52.535156 53.503906 52.53125 C 53.5 52.527344 53.5 52.523438 53.5 52.515625 C 53.5 52.507812 53.5 52.5 53.503906 52.488281 Z M 55.433594 62.328125 C 55.433594 62.222656 55.578125 62.261719 55.539062 62.117188 C 55.378906 62.019531 55.335938 61.796875 55.121094 61.75 C 54.976562 61.882812 55.039062 62.058594 55.164062 62.183594 C 55.175781 62.191406 55.183594 62.203125 55.195312 62.210938 C 55.265625 62.269531 55.351562 62.316406 55.433594 62.328125 " fill-opacity="1" fill-rule="nonzero"/><path fill="#1c1c1c" d="M 57.886719 69.222656 C 57.863281 69.375 57.777344 69.460938 57.628906 69.484375 C 57.488281 69.519531 57.527344 69.375 57.46875 69.328125 C 57.34375 69.410156 57.246094 69.523438 57 69.484375 C 57.007812 69.421875 56.988281 69.390625 56.949219 69.378906 C 57.066406 69.199219 57.277344 69.117188 57.417969 68.957031 C 57.519531 68.933594 57.585938 69.199219 57.46875 69.222656 C 57.566406 69.324219 57.777344 68.992188 57.886719 69.222656 " fill-opacity="1" fill-rule="nonzero"/><path fill="#1c1c1c" d="M 55.539062 61.433594 C 55.449219 61.042969 56.058594 61.136719 55.957031 61.488281 C 55.804688 61.480469 55.613281 61.515625 55.539062 61.433594 " fill-opacity="1" fill-rule="nonzero"/><path fill="#1c1c1c" d="M 55.695312 88.109375 L 55.695312 88.375 C 55.546875 88.429688 55.476562 88.429688 55.332031 88.375 C 55.351562 88.183594 55.496094 88.121094 55.695312 88.109375 " fill-opacity="1" fill-rule="nonzero"/><path fill="#1c1c1c" d="M 55.539062 62.117188 C 55.578125 62.261719 55.433594 62.222656 55.433594 62.328125 C 55.351562 62.316406 55.265625 62.269531 55.195312 62.210938 C 55.183594 62.203125 55.175781 62.191406 55.164062 62.183594 C 55.039062 62.058594 54.976562 61.882812 55.121094 61.75 C 55.335938 61.796875 55.378906 62.019531 55.539062 62.117188 " fill-opacity="1" fill-rule="nonzero"/><path fill="#1c1c1c" d="M 54.652344 87.214844 C 54.710938 86.964844 55.039062 86.746094 55.277344 86.847656 L 55.277344 86.953125 C 55.1875 87.136719 54.90625 87.363281 54.652344 87.214844 " fill-opacity="1" fill-rule="nonzero"/><path fill="#665454" d="M 53.523438 52.578125 C 53.523438 52.578125 53.527344 52.582031 53.527344 52.582031 C 53.527344 52.582031 53.523438 52.578125 53.523438 52.578125 " fill-opacity="1" fill-rule="nonzero"/><path fill="#665454" d="M 53.511719 52.566406 C 53.515625 52.566406 53.515625 52.570312 53.515625 52.570312 C 53.515625 52.570312 53.515625 52.566406 53.511719 52.566406 " fill-opacity="1" fill-rule="nonzero"/><path fill="#1c1c1c" d="M 53.554688 52.59375 C 53.476562 52.777344 53.433594 53 53.136719 52.964844 C 53.042969 52.738281 53.226562 52.503906 53.503906 52.488281 C 53.5 52.5 53.5 52.507812 53.5 52.515625 C 53.5 52.519531 53.5 52.527344 53.503906 52.53125 C 53.503906 52.539062 53.503906 52.542969 53.503906 52.542969 C 53.507812 52.550781 53.507812 52.558594 53.511719 52.566406 C 53.515625 52.566406 53.515625 52.570312 53.515625 52.570312 C 53.519531 52.574219 53.519531 52.574219 53.523438 52.578125 C 53.523438 52.578125 53.527344 52.582031 53.527344 52.582031 C 53.535156 52.585938 53.542969 52.59375 53.554688 52.59375 " fill-opacity="1" fill-rule="nonzero"/><g clip-path="url(#id1)"><path fill="#1c1c1c" d="M 52.511719 97.371094 C 53.558594 98.242188 55.769531 98.796875 57.367188 98.371094 C 59.269531 97.859375 60.652344 96.527344 61.28125 94.898438 C 61.988281 93.0625 61.191406 90.722656 60.914062 88.953125 C 60.667969 87.367188 60.667969 85.574219 60.601562 83.847656 C 60.40625 78.597656 60.007812 73.496094 59.925781 68.90625 C 59.800781 62.3125 59.796875 55.398438 59.140625 49.386719 C 58.996094 48.070312 58.960938 48.226562 58.410156 48.386719 C 58.207031 48.445312 58.210938 48.398438 58.097656 48.542969 C 58.054688 48.601562 58.074219 48.714844 57.992188 48.808594 C 57.269531 49.652344 54.4375 49.546875 53.035156 49.332031 C 52.464844 49.246094 52.292969 48.949219 51.984375 49.070312 C 51.972656 49.078125 51.960938 49.082031 51.953125 49.085938 C 51.945312 49.089844 51.941406 49.089844 51.933594 49.09375 C 51.917969 49.101562 51.902344 49.113281 51.886719 49.121094 C 51.84375 49.148438 51.808594 49.179688 51.773438 49.210938 C 51.355469 49.625 51.535156 50.582031 51.519531 51.332031 C 51.496094 52.46875 51.484375 53.597656 51.519531 54.382812 C 51.804688 60.558594 52.246094 65.664062 52.09375 71.535156 C 51.988281 75.585938 52.222656 79.382812 52.042969 83.21875 C 51.910156 86.03125 51.90625 89.390625 51.675781 92.109375 C 51.59375 93.074219 51.320312 94.003906 51.3125 94.898438 C 51.292969 96.398438 51.710938 96.703125 52.511719 97.371094 Z M 36.902344 22.816406 C 37.449219 22.46875 37.359375 21.515625 37.371094 20.710938 C 37.386719 19.855469 37.414062 18.925781 37.371094 18.132812 C 37.347656 17.636719 37.140625 17.179688 37.269531 16.816406 C 37.617188 16.957031 37.652344 17.40625 37.6875 17.765625 C 37.832031 19.414062 37.683594 22.027344 37.320312 22.972656 C 38.742188 23.117188 40.023438 22.890625 40.921875 22.445312 C 41.335938 22.242188 41.652344 21.898438 42.070312 21.761719 C 42.296875 21.691406 42.535156 21.632812 42.777344 21.59375 C 42.808594 21.589844 42.839844 21.582031 42.875 21.578125 C 43.09375 21.546875 43.320312 21.523438 43.542969 21.511719 C 43.867188 21.492188 44.183594 21.492188 44.472656 21.5 C 44.6875 21.507812 44.929688 21.515625 45.171875 21.53125 C 45.171875 21.53125 45.175781 21.53125 45.179688 21.53125 C 45.226562 21.535156 45.269531 21.539062 45.316406 21.539062 C 45.804688 21.574219 46.277344 21.640625 46.558594 21.761719 C 47.546875 22.199219 48.28125 23.285156 49.691406 23.234375 C 49.746094 23.289062 49.792969 23.34375 49.835938 23.402344 C 49.851562 23.429688 49.867188 23.453125 49.882812 23.476562 C 49.898438 23.5 49.914062 23.527344 49.929688 23.550781 C 50.097656 23.84375 50.195312 24.179688 50.320312 24.445312 C 51.1875 24.832031 52.242188 24.488281 53.347656 24.5 C 54.710938 24.511719 56.75 24.910156 57.523438 24.183594 C 57.617188 23.992188 57.597656 23.734375 57.574219 23.550781 C 57.496094 23.382812 57.054688 23.367188 57.210938 23.132812 C 57.425781 23.109375 57.609375 23.101562 57.78125 23.09375 C 57.84375 23.09375 57.902344 23.089844 57.960938 23.089844 C 58.03125 23.085938 58.105469 23.082031 58.171875 23.074219 C 58.214844 23.070312 58.257812 23.066406 58.296875 23.0625 C 58.3125 23.058594 58.324219 23.058594 58.339844 23.054688 C 58.367188 23.050781 58.394531 23.046875 58.421875 23.042969 C 58.449219 23.035156 58.476562 23.03125 58.503906 23.023438 C 58.558594 23.007812 58.613281 22.992188 58.671875 22.972656 C 58.808594 22.925781 58.929688 22.867188 59.035156 22.796875 C 59.054688 22.785156 59.070312 22.773438 59.085938 22.761719 C 59.109375 22.746094 59.132812 22.730469 59.152344 22.710938 C 59.167969 22.699219 59.183594 22.6875 59.199219 22.675781 C 59.210938 22.664062 59.226562 22.648438 59.238281 22.636719 C 59.960938 21.964844 59.867188 20.710938 60.445312 19.710938 C 61.203125 18.40625 63.425781 17.867188 65.511719 18.027344 C 66.601562 18.113281 67.699219 18.28125 68.769531 18.523438 C 68.945312 18.5625 69.125 18.601562 69.300781 18.648438 C 69.417969 18.675781 69.535156 18.707031 69.652344 18.738281 C 69.707031 18.753906 69.765625 18.769531 69.824219 18.785156 C 69.941406 18.816406 70.054688 18.847656 70.171875 18.882812 C 70.285156 18.914062 70.402344 18.949219 70.515625 18.984375 C 71.027344 19.140625 71.523438 19.3125 72.007812 19.5 C 72.328125 19.625 72.640625 19.753906 72.945312 19.890625 C 73.046875 19.933594 73.144531 19.980469 73.246094 20.027344 C 73.269531 20.039062 73.296875 20.050781 73.320312 20.0625 C 73.515625 20.15625 73.710938 20.253906 73.898438 20.351562 C 73.921875 20.363281 73.945312 20.375 73.96875 20.386719 C 74.015625 20.414062 74.0625 20.4375 74.109375 20.460938 C 74.269531 20.550781 74.429688 20.636719 74.582031 20.730469 C 74.691406 20.792969 74.800781 20.859375 74.90625 20.925781 C 75.011719 20.992188 75.117188 21.058594 75.214844 21.128906 C 75.277344 21.167969 75.335938 21.207031 75.398438 21.25 C 75.515625 21.332031 75.628906 21.414062 75.742188 21.5 C 75.726562 21.480469 75.714844 21.460938 75.699219 21.441406 C 74.789062 20.238281 73.53125 19.238281 72.140625 18.449219 C 70.738281 17.652344 69.410156 16.753906 67.804688 16.132812 C 66.144531 15.492188 64.386719 15.203125 62.480469 14.820312 C 58.441406 14 54.398438 14.226562 49.953125 14.34375 C 49.042969 14.871094 48.796875 15.914062 48.074219 16.5 C 47.167969 17.242188 45.554688 17.792969 44.160156 17.554688 C 42.449219 17.261719 41.738281 15.71875 40.085938 15.503906 C 39.171875 15.382812 38.128906 15.367188 36.953125 15.449219 C 36.417969 16.253906 36.3125 17.707031 36.328125 19.078125 C 36.34375 20.453125 36.355469 21.976562 36.902344 22.816406 Z M 55.695312 33.179688 C 56.027344 33.066406 56.542969 33.1875 56.949219 33.074219 C 56.929688 32.570312 57.015625 31.953125 57 31.496094 C 56.507812 31.46875 55.886719 31.566406 55.644531 31.285156 C 55.992188 31.164062 56.566406 31.269531 57 31.234375 C 56.992188 30.816406 57.070312 30.371094 57.054688 29.8125 C 56.460938 29.808594 55.914062 30.082031 55.589844 29.707031 C 56.003906 29.667969 56.585938 29.625 57.054688 29.496094 C 57.03125 28.828125 57.058594 28.425781 57 27.972656 C 56.546875 27.972656 56.082031 27.984375 55.746094 27.867188 C 55.773438 27.828125 55.808594 27.796875 55.851562 27.773438 C 55.859375 27.769531 55.871094 27.765625 55.878906 27.761719 C 55.890625 27.753906 55.902344 27.75 55.910156 27.746094 C 55.921875 27.742188 55.933594 27.742188 55.945312 27.738281 C 55.953125 27.734375 55.964844 27.730469 55.976562 27.726562 C 56.257812 27.660156 56.6875 27.742188 57 27.710938 L 57 27.707031 C 56.988281 27.484375 57.054688 26.75 56.949219 26.445312 C 56.664062 26.671875 55.917969 26.523438 55.695312 26.339844 C 56.199219 26.1875 56.816406 26.316406 57 26.289062 C 56.972656 25.707031 56.941406 25.351562 56.949219 24.921875 C 55.109375 25.082031 53.171875 24.839844 51.363281 24.972656 C 51.425781 26.957031 51.273438 29.09375 51.414062 31.179688 C 51.453125 31.753906 51.480469 32.472656 51.519531 33.128906 C 51.660156 35.539062 52.089844 38.003906 52.199219 40.441406 C 52.332031 43.425781 52.355469 46.097656 52.617188 48.859375 C 54.328125 49.105469 56.398438 49.179688 57.679688 48.597656 C 57.550781 47.957031 57.496094 47.359375 57.417969 46.597656 C 57.152344 46.527344 56.445312 46.648438 56.164062 46.4375 C 56.433594 46.253906 56.917969 46.285156 57.367188 46.28125 C 57.40625 45.855469 57.304688 45.574219 57.3125 45.175781 C 57.039062 45.085938 56.433594 45.289062 56.320312 44.914062 C 56.703125 44.917969 57.074219 44.917969 57.261719 44.863281 C 57.28125 44.289062 57.183594 44.109375 57.210938 43.492188 C 56.78125 43.453125 56.144531 43.621094 56.007812 43.28125 C 56.335938 43.226562 56.90625 43.332031 57.210938 43.125 C 57.089844 42.828125 57.191406 42.300781 57.15625 41.914062 C 56.804688 41.875 56.046875 42.085938 55.90625 41.597656 C 56.292969 41.742188 56.699219 41.699219 57.105469 41.597656 C 57.144531 41.121094 57.042969 40.78125 57.054688 40.335938 C 56.679688 40.289062 56.097656 40.457031 55.957031 40.179688 C 56.257812 40.0625 56.796875 40.183594 57.054688 40.019531 C 57.054688 39.523438 57.039062 39.296875 57 38.914062 C 56.5625 38.863281 56.023438 38.921875 55.90625 38.546875 C 56.28125 38.550781 56.515625 38.699219 56.949219 38.652344 C 57.078125 38.21875 56.917969 37.984375 57 37.601562 C 56.753906 37.496094 56.226562 37.683594 56.0625 37.390625 C 56.339844 37.339844 56.679688 37.34375 56.949219 37.285156 L 56.949219 36.496094 C 56.527344 36.429688 55.886719 36.582031 55.800781 36.179688 C 56.25 36.25 56.628906 36.261719 56.949219 36.125 C 56.9375 35.730469 56.96875 35.394531 56.894531 35.179688 C 56.519531 35 55.824219 35.140625 55.589844 34.8125 C 55.984375 34.738281 56.480469 34.8125 56.894531 34.863281 C 56.941406 34.601562 56.953125 34.023438 56.949219 33.445312 C 56.601562 33.257812 56.011719 33.503906 55.722656 33.210938 C 55.71875 33.207031 55.714844 33.199219 55.710938 33.195312 C 55.703125 33.191406 55.699219 33.1875 55.695312 33.179688 Z M 74.800781 19.765625 C 75.527344 20.398438 76.855469 21.558594 76.160156 22.078125 C 75.699219 22.421875 75.152344 21.773438 74.855469 21.554688 C 74.445312 21.25 74.042969 20.964844 73.652344 20.761719 C 72.640625 20.238281 71.613281 19.972656 70.730469 19.660156 C 68.757812 18.957031 66.113281 18.355469 63.945312 18.5 C 63.132812 18.554688 61.578125 19.128906 61.125 19.660156 C 60.449219 20.453125 60.664062 21.519531 60.027344 22.5 C 59.644531 23.089844 59.214844 23.371094 58.148438 23.550781 C 58.167969 24.339844 57.855469 24.796875 57.367188 25.078125 C 57.621094 32.292969 57.195312 40.644531 58.042969 47.859375 C 58.324219 47.960938 58.847656 47.710938 59.191406 47.859375 C 59.683594 48.640625 59.566406 49.640625 59.664062 50.542969 C 60.378906 57.15625 60.171875 64.085938 60.445312 70.957031 C 60.597656 74.773438 60.71875 78.855469 61.019531 82.742188 C 61.171875 84.695312 61.125 86.707031 61.386719 88.53125 C 61.691406 90.679688 62.480469 93.386719 61.59375 95.371094 C 61.285156 96.0625 60.808594 96.859375 60.339844 97.316406 C 59.71875 97.925781 58.527344 98.605469 57.679688 98.84375 C 55.003906 99.597656 51.976562 98.289062 51.152344 96.6875 C 50.648438 95.703125 50.886719 94.089844 51.101562 92.6875 C 51.511719 90.015625 51.464844 86.976562 51.570312 84.109375 C 51.855469 76.496094 51.777344 68.652344 51.414062 61.015625 C 51.230469 57.128906 50.851562 53.308594 51.050781 49.4375 C 51.25 48.921875 51.699219 48.65625 52.09375 48.332031 C 51.867188 42.445312 51.308594 36.746094 50.945312 30.96875 C 50.824219 29.050781 50.929688 27.15625 50.839844 25.234375 C 50.386719 24.886719 50.15625 25.058594 49.902344 24.761719 C 49.699219 24.53125 49.804688 24.164062 49.585938 23.921875 C 49.308594 23.605469 48.28125 23.503906 47.867188 23.289062 C 47.28125 22.988281 46.90625 22.484375 46.351562 22.289062 C 45.296875 21.914062 43.339844 21.941406 42.226562 22.289062 C 41.746094 22.441406 41.265625 22.832031 40.660156 23.078125 C 40.117188 23.300781 39.390625 23.554688 38.675781 23.550781 C 38.023438 23.550781 36.882812 23.5625 36.539062 23.289062 C 35.941406 22.816406 35.953125 21.066406 35.910156 19.921875 C 35.859375 18.578125 35.84375 17.34375 36.066406 16.34375 C 36.164062 15.910156 36.398438 15.140625 36.695312 14.976562 C 36.996094 14.808594 38.007812 14.867188 38.675781 14.921875 C 39.574219 15 40.382812 14.949219 40.972656 15.1875 C 42.398438 15.757812 43.15625 17.316406 45.515625 17.082031 C 46.257812 17.007812 47.359375 16.460938 47.8125 16.027344 C 48.566406 15.3125 48.890625 14.15625 49.847656 13.871094 C 50.894531 13.5625 52.664062 13.773438 53.609375 13.660156 C 55.964844 13.375 58.648438 13.777344 60.96875 14.082031 C 63.144531 14.363281 65.632812 14.742188 67.441406 15.398438 C 69.289062 16.066406 71.027344 17.210938 72.558594 18.082031 C 73.253906 18.476562 74.195312 19.234375 74.800781 19.765625 " fill-opacity="1" fill-rule="nonzero"/></g><path fill="#1c1c1c" d="M 52.929688 52.070312 C 52.75 51.824219 53.148438 51.308594 53.503906 51.4375 C 53.445312 51.617188 53.367188 51.78125 53.246094 51.898438 C 53.242188 51.90625 53.234375 51.910156 53.226562 51.917969 C 53.222656 51.921875 53.214844 51.929688 53.207031 51.933594 C 53.1875 51.953125 53.164062 51.96875 53.144531 51.980469 C 53.082031 52.019531 53.011719 52.050781 52.929688 52.070312 " fill-opacity="1" fill-rule="nonzero"/><path fill="#1c1c1c" d="M 50.894531 21.816406 C 51.199219 21.492188 51.371094 22.152344 51.3125 22.339844 C 51 22.335938 50.964844 22.058594 50.894531 21.816406 " fill-opacity="1" fill-rule="nonzero"/><path fill="#1c1c1c" d="M 50.738281 22.65625 C 50.492188 22.675781 50.398438 22.542969 50.214844 22.5 C 50.222656 22.488281 50.230469 22.476562 50.238281 22.464844 C 50.246094 22.449219 50.25 22.4375 50.253906 22.421875 C 50.257812 22.410156 50.261719 22.398438 50.261719 22.382812 C 50.265625 22.375 50.265625 22.367188 50.265625 22.359375 C 50.265625 22.335938 50.269531 22.3125 50.265625 22.289062 C 50.4375 22.261719 50.589844 22.316406 50.675781 22.40625 C 50.679688 22.410156 50.683594 22.410156 50.6875 22.414062 C 50.753906 22.488281 50.777344 22.574219 50.738281 22.65625 " fill-opacity="1" fill-rule="nonzero"/><path fill="#1c1c1c" d="M 50.6875 22.414062 C 50.683594 22.410156 50.679688 22.40625 50.675781 22.40625 C 50.679688 22.40625 50.683594 22.410156 50.6875 22.414062 " fill-opacity="1" fill-rule="nonzero"/><path fill="#1c1c1c" d="M 49.328125 17.660156 C 49.433594 17.835938 49.179688 18.136719 48.960938 17.976562 C 48.984375 17.769531 49.097656 17.65625 49.328125 17.660156 " fill-opacity="1" fill-rule="nonzero"/><path fill="#1c1c1c" d="M 48.804688 17.238281 C 48.699219 17.460938 48.570312 17.894531 48.230469 17.710938 C 48.363281 17.527344 48.558594 16.96875 48.804688 17.238281 " fill-opacity="1" fill-rule="nonzero"/><path fill="#dddddd" d="M 45.179688 21.53125 C 45.226562 21.535156 45.269531 21.539062 45.316406 21.539062 C 45.269531 21.539062 45.226562 21.535156 45.179688 21.53125 " fill-opacity="1" fill-rule="nonzero"/><path fill="#dddddd" d="M 59.609375 17.554688 C 59.671875 17.738281 59.765625 17.886719 60.027344 17.871094 C 60.03125 17.6875 59.984375 17.5625 59.890625 17.480469 C 59.882812 17.476562 59.875 17.46875 59.863281 17.460938 C 59.855469 17.453125 59.84375 17.449219 59.835938 17.441406 C 59.820312 17.433594 59.804688 17.425781 59.785156 17.417969 C 59.765625 17.410156 59.742188 17.402344 59.714844 17.394531 C 59.710938 17.480469 59.582031 17.4375 59.609375 17.554688 Z M 51.3125 22.34375 C 51.371094 22.152344 51.199219 21.492188 50.894531 21.816406 C 50.964844 22.058594 51 22.335938 51.3125 22.34375 Z M 37.371094 20.710938 C 37.359375 21.515625 37.449219 22.46875 36.902344 22.816406 C 36.355469 21.976562 36.34375 20.453125 36.328125 19.082031 C 36.3125 17.707031 36.417969 16.25 36.953125 15.449219 C 38.128906 15.367188 39.171875 15.382812 40.085938 15.503906 C 41.738281 15.71875 42.449219 17.261719 44.160156 17.554688 C 45.554688 17.792969 47.167969 17.242188 48.074219 16.5 C 48.796875 15.914062 49.042969 14.871094 49.953125 14.34375 C 54.398438 14.226562 58.441406 14 62.480469 14.816406 C 64.386719 15.203125 66.144531 15.492188 67.804688 16.132812 C 69.410156 16.753906 70.738281 17.652344 72.140625 18.449219 C 73.53125 19.238281 74.789062 20.238281 75.699219 21.441406 C 75.710938 21.460938 75.726562 21.480469 75.742188 21.5 C 75.628906 21.414062 75.515625 21.332031 75.398438 21.25 C 75.335938 21.207031 75.277344 21.167969 75.214844 21.125 C 75.117188 21.058594 75.011719 20.992188 74.90625 20.925781 C 74.800781 20.859375 74.691406 20.792969 74.582031 20.730469 C 74.429688 20.636719 74.269531 20.550781 74.109375 20.460938 C 74.0625 20.4375 74.015625 20.410156 73.96875 20.386719 C 73.945312 20.375 73.921875 20.363281 73.898438 20.351562 C 73.710938 20.25 73.515625 20.15625 73.320312 20.0625 C 73.296875 20.050781 73.269531 20.039062 73.246094 20.027344 C 73.144531 19.980469 73.046875 19.933594 72.945312 19.890625 C 72.640625 19.753906 72.328125 19.621094 72.007812 19.5 C 71.523438 19.3125 71.027344 19.140625 70.515625 18.984375 C 70.402344 18.949219 70.285156 18.914062 70.171875 18.882812 C 70.054688 18.847656 69.941406 18.816406 69.824219 18.785156 C 69.765625 18.769531 69.707031 18.753906 69.652344 18.738281 C 69.535156 18.707031 69.417969 18.675781 69.300781 18.648438 C 69.125 18.601562 68.945312 18.5625 68.769531 18.519531 C 67.699219 18.28125 66.601562 18.113281 65.511719 18.027344 C 63.425781 17.867188 61.203125 18.40625 60.445312 19.710938 C 59.867188 20.710938 59.960938 21.964844 59.238281 22.636719 C 59.226562 22.648438 59.210938 22.664062 59.199219 22.675781 C 59.183594 22.6875 59.167969 22.699219 59.152344 22.710938 C 59.132812 22.730469 59.109375 22.746094 59.085938 22.761719 C 59.070312 22.773438 59.054688 22.785156 59.035156 22.796875 C 58.929688 22.863281 58.808594 22.925781 58.671875 22.972656 C 58.613281 22.992188 58.558594 23.011719 58.503906 23.023438 C 58.476562 23.03125 58.449219 23.035156 58.421875 23.042969 C 58.394531 23.046875 58.367188 23.050781 58.339844 23.054688 C 58.324219 23.058594 58.3125 23.058594 58.296875 23.0625 C 58.257812 23.066406 58.214844 23.070312 58.171875 23.074219 C 58.105469 23.082031 58.03125 23.085938 57.960938 23.089844 C 57.902344 23.089844 57.84375 23.09375 57.78125 23.09375 C 57.609375 23.101562 57.425781 23.109375 57.210938 23.128906 C 57.054688 23.367188 57.496094 23.382812 57.574219 23.550781 C 57.597656 23.734375 57.617188 23.992188 57.523438 24.183594 C 56.75 24.910156 54.710938 24.511719 53.347656 24.5 C 52.242188 24.492188 51.1875 24.832031 50.320312 24.445312 C 50.195312 24.179688 50.097656 23.84375 49.929688 23.550781 C 49.914062 23.527344 49.898438 23.5 49.882812 23.476562 C 49.867188 23.453125 49.851562 23.429688 49.835938 23.402344 C 49.792969 23.34375 49.746094 23.289062 49.691406 23.234375 C 48.28125 23.285156 47.546875 22.199219 46.558594 21.761719 C 46.277344 21.640625 45.804688 21.574219 45.316406 21.539062 C 45.269531 21.535156 45.226562 21.535156 45.179688 21.53125 C 45.175781 21.53125 45.171875 21.53125 45.171875 21.53125 C 44.929688 21.515625 44.6875 21.507812 44.472656 21.5 C 44.183594 21.492188 43.867188 21.492188 43.542969 21.511719 C 43.320312 21.523438 43.09375 21.546875 42.875 21.578125 C 42.839844 21.582031 42.808594 21.589844 42.777344 21.59375 C 42.535156 21.632812 42.296875 21.6875 42.070312 21.761719 C 41.652344 21.898438 41.335938 22.242188 40.921875 22.445312 C 40.023438 22.890625 38.742188 23.117188 37.320312 22.972656 C 37.683594 22.027344 37.832031 19.414062 37.6875 17.765625 C 37.652344 17.40625 37.617188 16.957031 37.269531 16.816406 C 37.140625 17.179688 37.347656 17.636719 37.371094 18.132812 C 37.414062 18.925781 37.386719 19.855469 37.371094 20.710938 Z M 59.351562 18.34375 C 59.425781 18.167969 59.394531 17.867188 59.191406 17.816406 C 59.179688 17.890625 59.078125 17.875 59.035156 17.921875 C 59.027344 18.179688 59.140625 18.308594 59.351562 18.34375 Z M 50.734375 22.65625 C 50.777344 22.574219 50.753906 22.488281 50.6875 22.414062 C 50.683594 22.414062 50.679688 22.40625 50.675781 22.40625 C 50.589844 22.316406 50.4375 22.261719 50.265625 22.289062 C 50.269531 22.3125 50.265625 22.335938 50.265625 22.359375 C 50.265625 22.367188 50.261719 22.375 50.261719 22.382812 C 50.261719 22.398438 50.257812 22.410156 50.253906 22.421875 C 50.25 22.4375 50.246094 22.449219 50.238281 22.464844 C 50.230469 22.476562 50.222656 22.488281 50.214844 22.5 C 50.398438 22.542969 50.492188 22.675781 50.734375 22.65625 Z M 48.960938 17.976562 C 49.179688 18.136719 49.433594 17.835938 49.328125 17.660156 C 49.097656 17.65625 48.984375 17.769531 48.960938 17.976562 Z M 48.804688 17.238281 C 48.558594 16.972656 48.363281 17.527344 48.230469 17.710938 C 48.570312 17.894531 48.699219 17.460938 48.804688 17.238281 " fill-opacity="1" fill-rule="nonzero"/><path fill="#dddddd" d="M 43.542969 21.511719 C 43.867188 21.492188 44.183594 21.492188 44.472656 21.5 C 44.6875 21.507812 44.929688 21.515625 45.171875 21.53125 C 44.929688 21.515625 44.6875 21.507812 44.472656 21.5 C 44.183594 21.492188 43.867188 21.492188 43.542969 21.511719 " fill-opacity="1" fill-rule="nonzero"/></svg>