<svg xmlns="http://www.w3.org/2000/svg" xmlns:xlink="http://www.w3.org/1999/xlink" width="100" zoomAndPan="magnify" viewBox="0 0 75 74.999997" height="100" preserveAspectRatio="xMidYMid meet" version="1.0"><defs><clipPath id="id1"><path d="M 6.261719 8.644531 L 68.511719 8.644531 L 68.511719 66.394531 L 6.261719 66.394531 Z M 6.261719 8.644531 " clip-rule="nonzero"/></clipPath></defs><path fill="#4574ba" d="M 33.5 24.410156 C 32.789062 23.640625 31.34375 23.570312 30.476562 24.398438 C 30.085938 23.3125 29.539062 22.296875 28.847656 21.394531 C 28.539062 21 28.144531 20.605469 27.621094 20.535156 C 27.28125 20.480469 26.929688 20.554688 26.628906 20.75 C 26.515625 20.003906 26.339844 19.226562 25.8125 18.71875 C 25.339844 18.265625 24.636719 18.027344 23.925781 18.285156 C 23.800781 18.324219 23.65625 18.429688 23.523438 18.367188 C 23.429688 18.324219 23.378906 18.203125 23.339844 18.109375 C 23.246094 17.890625 23.171875 17.664062 23.101562 17.433594 C 22.945312 16.96875 22.8125 16.503906 22.617188 16.066406 C 22.304688 15.371094 21.851562 14.769531 21.128906 14.460938 C 20.519531 14.203125 19.820312 14.191406 19.199219 14.542969 C 18.941406 13.609375 18.5625 12.648438 17.558594 12.367188 C 17.09375 12.242188 16.640625 12.324219 16.199219 12.574219 C 15.992188 12.6875 15.773438 12.84375 15.546875 12.894531 C 15.226562 12.96875 15.011719 12.761719 14.804688 12.5625 C 14.132812 11.941406 13.121094 11.476562 12.164062 12.148438 C 11.945312 12.304688 11.761719 12.5 11.636719 12.730469 C 11.511719 12.957031 11.523438 13.195312 11.429688 13.433594 C 11.308594 13.746094 10.574219 13.664062 9.914062 14.53125 C 9.667969 14.863281 9.242188 16.242188 9.667969 16.148438 C 8.574219 16.917969 8.46875 17.726562 8.757812 19.011719 C 8.964844 19.902344 9.863281 20.648438 10.820312 20.429688 C 10.367188 21.609375 10.386719 22.96875 11.164062 23.859375 C 11.875 24.679688 13.214844 24.957031 14.308594 24.398438 C 14.277344 25.601562 14.382812 27 15.414062 27.644531 C 16.085938 28.066406 17.125 28.058594 17.816406 27.527344 C 17.652344 29.03125 17.898438 30.605469 18.921875 31.621094 C 19.828125 32.523438 21.304688 32.90625 22.625 32.378906 C 22.265625 33.414062 22.128906 34.597656 22.78125 35.40625 C 23.328125 36.078125 24.410156 36.347656 25.257812 35.839844 C 25.320312 36.503906 25.183594 37.1875 25.226562 37.851562 C 25.265625 38.484375 25.503906 39.054688 25.9375 39.476562 C 26.722656 40.234375 27.960938 40.492188 29.085938 40.039062 C 29.785156 41.0625 30.128906 42.472656 31.386719 42.980469 C 32.210938 43.3125 33.367188 42.960938 33.78125 42.089844 C 34.503906 42.640625 35.429688 43.09375 36.433594 42.824219 C 37.257812 42.597656 37.988281 41.914062 38.09375 41.09375 C 39.15625 40.917969 40.167969 40.089844 40.464844 39.023438 C 40.753906 37.964844 40.320312 36.886719 39.433594 36.398438 C 39.828125 35.113281 40.023438 33.644531 39.339844 32.542969 C 38.804688 31.683594 37.722656 31.113281 36.617188 31.425781 C 36.503906 30.429688 36.277344 29.414062 35.636719 28.679688 C 35.140625 28.109375 34.449219 27.746094 33.65625 27.746094 C 34.171875 26.617188 34.296875 25.257812 33.5 24.410156 Z M 33.5 24.410156 " fill-opacity="1" fill-rule="nonzero"/><path fill="#fed71a" d="M 43.035156 21.082031 C 42.21875 21.746094 42.042969 23.1875 42.796875 24.109375 C 41.695312 24.417969 40.632812 24.886719 39.691406 25.519531 C 39.28125 25.796875 38.855469 26.160156 38.742188 26.6875 C 38.671875 27.03125 38.710938 27.382812 38.886719 27.695312 C 38.132812 27.746094 37.359375 27.871094 36.804688 28.367188 C 36.308594 28.8125 36.03125 29.496094 36.234375 30.222656 C 36.277344 30.347656 36.359375 30.503906 36.296875 30.628906 C 36.257812 30.722656 36.121094 30.761719 36.03125 30.792969 C 35.8125 30.875 35.574219 30.917969 35.347656 30.980469 C 34.875 31.09375 34.398438 31.199219 33.957031 31.363281 C 33.242188 31.621094 32.605469 32.035156 32.253906 32.730469 C 31.953125 33.320312 31.882812 34.027344 32.191406 34.667969 C 31.253906 34.855469 30.261719 35.167969 29.910156 36.152344 C 29.757812 36.605469 29.808594 37.0625 30.015625 37.53125 C 30.105469 37.746094 30.25 37.976562 30.28125 38.203125 C 30.324219 38.535156 30.105469 38.730469 29.898438 38.929688 C 29.230469 39.550781 28.691406 40.535156 29.292969 41.539062 C 29.425781 41.769531 29.613281 41.964844 29.828125 42.109375 C 30.042969 42.246094 30.28125 42.253906 30.507812 42.371094 C 30.808594 42.515625 30.664062 43.25 31.488281 43.976562 C 31.800781 44.253906 33.140625 44.773438 33.066406 44.339844 C 33.75 45.5 34.542969 45.65625 35.84375 45.457031 C 36.742188 45.324219 37.554688 44.472656 37.410156 43.488281 C 38.546875 44.039062 39.898438 44.109375 40.835938 43.40625 C 41.703125 42.753906 42.085938 41.425781 41.601562 40.296875 C 42.789062 40.410156 44.179688 40.410156 44.902344 39.4375 C 45.378906 38.792969 45.449219 37.757812 44.964844 37.023438 C 46.449219 37.300781 48.03125 37.175781 49.113281 36.222656 C 50.074219 35.382812 50.566406 33.933594 50.144531 32.566406 C 51.144531 33 52.3125 33.230469 53.15625 32.636719 C 53.871094 32.140625 54.210938 31.074219 53.777344 30.191406 C 54.4375 30.183594 55.109375 30.359375 55.769531 30.367188 C 56.398438 30.378906 56.984375 30.183594 57.441406 29.777344 C 58.253906 29.050781 58.605469 27.828125 58.234375 26.667969 C 59.308594 26.046875 60.730469 25.808594 61.328125 24.585938 C 61.710938 23.789062 61.453125 22.605469 60.617188 22.117188 C 61.214844 21.433594 61.742188 20.542969 61.546875 19.519531 C 61.382812 18.679688 60.761719 17.890625 59.945312 17.726562 C 59.855469 16.648438 59.101562 15.570312 58.070312 15.195312 C 57.046875 14.824219 55.933594 15.1875 55.386719 16.023438 C 54.136719 15.539062 52.691406 15.226562 51.558594 15.828125 C 50.660156 16.304688 50.019531 17.339844 50.238281 18.472656 C 49.238281 18.511719 48.214844 18.667969 47.429688 19.25 C 46.832031 19.695312 46.417969 20.367188 46.359375 21.164062 C 45.285156 20.574219 43.933594 20.347656 43.035156 21.082031 Z M 43.035156 21.082031 " fill-opacity="1" fill-rule="nonzero"/><g clip-path="url(#id1)"><path fill="#f176ae" d="M 68.492188 42.878906 C 68.46875 41.34375 67.4375 39.863281 66.242188 39.902344 C 66.675781 38.339844 66.941406 36.699219 67.015625 35.042969 C 67.046875 34.316406 67.015625 33.507812 66.675781 32.898438 C 66.457031 32.515625 66.148438 32.246094 65.796875 32.171875 C 66.210938 31.25 66.59375 30.242188 66.539062 29.15625 C 66.488281 28.191406 66.128906 27.25 65.425781 26.84375 C 65.300781 26.773438 65.125 26.730469 65.066406 26.542969 C 65.023438 26.410156 65.074219 26.222656 65.097656 26.089844 C 65.167969 25.765625 65.269531 25.445312 65.363281 25.125 C 65.558594 24.472656 65.765625 23.828125 65.910156 23.15625 C 66.136719 22.097656 66.199219 20.988281 65.859375 19.964844 C 65.582031 19.09375 65.066406 18.386719 64.363281 18.160156 C 64.785156 16.90625 65.148438 15.476562 64.578125 14.191406 C 64.320312 13.601562 63.917969 13.257812 63.425781 13.082031 C 63.199219 13.007812 62.929688 12.96875 62.734375 12.792969 C 62.445312 12.554688 62.421875 12.117188 62.390625 11.714844 C 62.308594 10.378906 61.867188 8.882812 60.699219 8.6875 C 60.433594 8.644531 60.175781 8.675781 59.925781 8.8125 C 59.679688 8.945312 59.535156 9.207031 59.308594 9.382812 C 59.007812 9.601562 58.511719 8.792969 57.449219 9.09375 C 57.039062 9.207031 55.808594 10.292969 56.203125 10.605469 C 54.871094 10.367188 54.261719 11.144531 53.632812 12.832031 C 53.1875 14.003906 53.363281 15.695312 54.230469 16.398438 C 53.105469 17.238281 52.21875 18.730469 52.207031 20.449219 C 52.199219 22.035156 53.011719 23.652344 54.199219 24.109375 C 53.382812 25.382812 52.527344 27 52.867188 28.699219 C 53.085938 29.820312 53.871094 30.824219 54.738281 30.917969 C 53.613281 32.390625 52.753906 34.335938 52.835938 36.441406 C 52.910156 38.296875 53.757812 40.160156 55.097656 40.886719 C 54.148438 41.65625 53.261719 42.816406 53.210938 44.328125 C 53.167969 45.59375 53.796875 46.941406 54.765625 47.21875 C 54.375 47.996094 53.828125 48.617188 53.414062 49.375 C 53.023438 50.101562 52.816406 50.949219 52.867188 51.839844 C 52.941406 53.425781 53.695312 54.917969 54.839844 55.519531 C 54.675781 57.324219 53.992188 59.191406 54.601562 60.960938 C 54.996094 62.121094 56.089844 62.867188 56.984375 62.328125 C 57.160156 63.636719 57.542969 65.035156 58.472656 65.71875 C 59.234375 66.277344 60.234375 66.257812 60.867188 65.460938 C 61.773438 66.308594 63.082031 66.390625 64.011719 65.523438 C 64.929688 64.660156 65.324219 63.054688 64.992188 61.667969 C 66.136719 60.652344 67.261719 59.242188 67.480469 57.398438 C 67.65625 55.933594 67.222656 54.265625 66.199219 53.519531 C 66.777344 52.328125 67.273438 51.003906 67.292969 49.570312 C 67.304688 48.472656 67.023438 47.394531 66.4375 46.617188 C 67.519531 45.933594 68.511719 44.578125 68.492188 42.878906 Z M 22.5625 43.539062 C 22.542969 42.070312 21.511719 40.648438 20.316406 40.691406 C 20.746094 39.1875 21.015625 37.613281 21.089844 36.027344 C 21.121094 35.332031 21.089844 34.554688 20.746094 33.976562 C 20.53125 33.601562 20.222656 33.34375 19.871094 33.28125 C 20.285156 32.398438 20.664062 31.425781 20.613281 30.390625 C 20.5625 29.464844 20.203125 28.566406 19.5 28.171875 C 19.375 28.097656 19.199219 28.066406 19.136719 27.890625 C 19.097656 27.765625 19.148438 27.582031 19.167969 27.457031 C 19.242188 27.144531 19.34375 26.835938 19.4375 26.535156 C 19.632812 25.910156 19.839844 25.289062 19.984375 24.648438 C 20.210938 23.632812 20.273438 22.574219 19.933594 21.582031 C 19.65625 20.75 19.136719 20.066406 18.4375 19.847656 C 18.859375 18.636719 19.222656 17.277344 18.652344 16.046875 C 18.394531 15.488281 17.992188 15.144531 17.496094 14.988281 C 17.269531 14.917969 17.003906 14.875 16.804688 14.71875 C 16.515625 14.492188 16.496094 14.066406 16.464844 13.683594 C 16.382812 12.410156 15.941406 10.96875 14.773438 10.769531 C 14.503906 10.730469 14.246094 10.761719 14 10.886719 C 13.753906 11.007812 13.609375 11.269531 13.378906 11.421875 C 13.082031 11.640625 12.585938 10.855469 11.523438 11.144531 C 11.109375 11.257812 9.882812 12.304688 10.273438 12.59375 C 8.945312 12.367188 8.335938 13.113281 7.707031 14.730469 C 7.261719 15.847656 7.4375 17.476562 8.304688 18.148438 C 7.167969 18.957031 6.292969 20.386719 6.273438 22.046875 C 6.261719 23.570312 7.078125 25.113281 8.261719 25.550781 C 7.449219 26.773438 6.589844 28.328125 6.933594 29.953125 C 7.148438 31.019531 7.933594 31.996094 8.800781 32.078125 C 7.675781 33.488281 6.820312 35.363281 6.902344 37.375 C 6.972656 39.175781 7.820312 40.960938 9.160156 41.65625 C 8.210938 42.390625 7.324219 43.507812 7.273438 44.960938 C 7.230469 46.171875 7.859375 47.46875 8.832031 47.726562 C 8.4375 48.472656 7.890625 49.0625 7.480469 49.800781 C 7.085938 50.496094 6.878906 51.3125 6.933594 52.164062 C 7.003906 53.6875 7.757812 55.117188 8.902344 55.695312 C 8.738281 57.425781 8.054688 59.210938 8.664062 60.921875 C 9.058594 62.027344 10.152344 62.753906 11.050781 62.226562 C 11.222656 63.480469 11.605469 64.828125 12.535156 65.480469 C 13.296875 66.019531 14.300781 66 14.929688 65.230469 C 15.835938 66.039062 17.148438 66.121094 18.074219 65.292969 C 18.992188 64.476562 19.386719 62.921875 19.054688 61.59375 C 20.203125 60.621094 21.324219 59.273438 21.542969 57.488281 C 21.71875 56.089844 21.285156 54.484375 20.261719 53.769531 C 20.839844 52.617188 21.335938 51.355469 21.355469 49.988281 C 21.367188 48.929688 21.089844 47.902344 20.5 47.15625 C 21.59375 46.464844 22.59375 45.167969 22.5625 43.539062 Z M 22.5625 43.539062 " fill-opacity="1" fill-rule="nonzero"/></g></svg>