<svg xmlns="http://www.w3.org/2000/svg" xmlns:xlink="http://www.w3.org/1999/xlink" width="150" zoomAndPan="magnify" viewBox="0 0 112.5 112.499997" height="150" preserveAspectRatio="xMidYMid meet" version="1.0"><defs><clipPath id="id1"><path d="M 11.25 13.882812 L 56.25 13.882812 L 56.25 58.132812 L 11.25 58.132812 Z M 11.25 13.882812 " clip-rule="nonzero"/></clipPath><clipPath id="id2"><path d="M 21.191406 78 L 101.441406 78 L 101.441406 98.644531 L 21.191406 98.644531 Z M 21.191406 78 " clip-rule="nonzero"/></clipPath><clipPath id="id3"><path d="M 51 19.144531 L 98 19.144531 L 98 59 L 51 59 Z M 51 19.144531 " clip-rule="nonzero"/></clipPath></defs><path fill="#ffd773" d="M 45.429688 36.007812 C 45.429688 36.761719 45.351562 37.507812 45.203125 38.25 C 45.054688 38.988281 44.832031 39.707031 44.539062 40.40625 C 44.246094 41.101562 43.886719 41.765625 43.460938 42.390625 C 43.035156 43.019531 42.550781 43.597656 42.007812 44.132812 C 41.464844 44.667969 40.875 45.144531 40.238281 45.5625 C 39.601562 45.980469 38.925781 46.335938 38.21875 46.625 C 37.511719 46.914062 36.78125 47.132812 36.027344 47.277344 C 35.277344 47.425781 34.515625 47.5 33.75 47.5 C 32.984375 47.5 32.222656 47.425781 31.472656 47.277344 C 30.71875 47.132812 29.988281 46.914062 29.28125 46.625 C 28.574219 46.335938 27.898438 45.980469 27.261719 45.5625 C 26.625 45.144531 26.035156 44.667969 25.492188 44.132812 C 24.949219 43.597656 24.464844 43.019531 24.039062 42.390625 C 23.613281 41.765625 23.253906 41.101562 22.960938 40.40625 C 22.667969 39.707031 22.445312 38.988281 22.296875 38.25 C 22.148438 37.507812 22.070312 36.761719 22.070312 36.007812 C 22.070312 35.25 22.148438 34.503906 22.296875 33.765625 C 22.445312 33.023438 22.667969 32.304688 22.960938 31.609375 C 23.253906 30.910156 23.613281 30.25 24.039062 29.621094 C 24.464844 28.992188 24.949219 28.414062 25.492188 27.878906 C 26.035156 27.347656 26.625 26.871094 27.261719 26.449219 C 27.898438 26.03125 28.574219 25.675781 29.28125 25.386719 C 29.988281 25.097656 30.71875 24.882812 31.472656 24.734375 C 32.222656 24.585938 32.984375 24.511719 33.75 24.511719 C 34.515625 24.511719 35.277344 24.585938 36.027344 24.734375 C 36.78125 24.882812 37.511719 25.097656 38.21875 25.386719 C 38.925781 25.675781 39.601562 26.03125 40.238281 26.449219 C 40.875 26.871094 41.464844 27.347656 42.007812 27.878906 C 42.550781 28.414062 43.035156 28.992188 43.460938 29.621094 C 43.886719 30.25 44.246094 30.910156 44.539062 31.609375 C 44.832031 32.304688 45.054688 33.023438 45.203125 33.765625 C 45.351562 34.503906 45.429688 35.25 45.429688 36.007812 Z M 45.429688 36.007812 " fill-opacity="1" fill-rule="nonzero"/><g clip-path="url(#id1)"><path fill="#d1a12a" d="M 33.75 21.664062 C 33.410156 21.664062 33.144531 21.398438 33.144531 21.058594 L 33.144531 14.488281 C 33.144531 14.148438 33.410156 13.882812 33.75 13.882812 C 34.089844 13.882812 34.355469 14.148438 34.355469 14.488281 L 34.355469 21.058594 C 34.355469 21.386719 34.078125 21.664062 33.75 21.664062 Z M 34.355469 57.523438 L 34.355469 50.953125 C 34.355469 50.613281 34.089844 50.347656 33.75 50.347656 C 33.410156 50.347656 33.144531 50.613281 33.144531 50.953125 L 33.144531 57.523438 C 33.144531 57.863281 33.410156 58.132812 33.75 58.132812 C 34.089844 58.132812 34.355469 57.863281 34.355469 57.523438 Z M 19.148438 36.007812 C 19.148438 35.667969 18.882812 35.398438 18.542969 35.398438 L 11.875 35.398438 C 11.535156 35.398438 11.265625 35.667969 11.265625 36.007812 C 11.265625 36.34375 11.535156 36.613281 11.875 36.613281 L 18.542969 36.613281 C 18.882812 36.613281 19.148438 36.34375 19.148438 36.007812 Z M 56.234375 36.007812 C 56.234375 35.667969 55.964844 35.398438 55.625 35.398438 L 48.957031 35.398438 C 48.617188 35.398438 48.351562 35.667969 48.351562 36.007812 C 48.351562 36.34375 48.617188 36.613281 48.957031 36.613281 L 55.625 36.613281 C 55.964844 36.613281 56.234375 36.34375 56.234375 36.007812 Z M 23.429688 25.859375 C 23.660156 25.617188 23.660156 25.242188 23.417969 25 L 18.699219 20.355469 C 18.457031 20.125 18.082031 20.125 17.839844 20.367188 C 17.609375 20.609375 17.609375 20.984375 17.851562 21.226562 L 22.570312 25.871094 C 22.691406 25.992188 22.835938 26.039062 22.992188 26.039062 C 23.152344 26.039062 23.308594 25.980469 23.429688 25.859375 Z M 49.648438 51.65625 C 49.878906 51.414062 49.878906 51.039062 49.636719 50.796875 L 44.917969 46.152344 C 44.675781 45.921875 44.300781 45.921875 44.058594 46.164062 C 43.828125 46.40625 43.828125 46.785156 44.070312 47.027344 L 48.785156 51.667969 C 48.90625 51.789062 49.054688 51.839844 49.210938 51.839844 C 49.367188 51.839844 49.527344 51.777344 49.648438 51.65625 Z M 18.699219 51.65625 L 23.417969 47.015625 C 23.660156 46.785156 23.660156 46.394531 23.429688 46.152344 C 23.199219 45.910156 22.8125 45.910156 22.570312 46.140625 L 17.851562 50.796875 C 17.609375 51.027344 17.609375 51.414062 17.839844 51.65625 C 17.960938 51.777344 18.117188 51.839844 18.277344 51.839844 C 18.433594 51.839844 18.578125 51.777344 18.699219 51.65625 Z M 44.917969 25.871094 L 49.636719 21.226562 C 49.878906 20.996094 49.878906 20.609375 49.648438 20.367188 C 49.417969 20.125 49.03125 20.125 48.785156 20.355469 L 44.070312 25 C 43.828125 25.230469 43.828125 25.617188 44.058594 25.859375 C 44.179688 25.980469 44.335938 26.039062 44.492188 26.039062 C 44.652344 26.039062 44.808594 25.980469 44.917969 25.871094 Z M 28.148438 22.71875 C 28.449219 22.585938 28.597656 22.234375 28.476562 21.929688 L 27.285156 19.105469 C 27.152344 18.804688 26.800781 18.65625 26.484375 18.777344 C 26.183594 18.914062 26.039062 19.265625 26.160156 19.566406 L 27.347656 22.390625 C 27.445312 22.621094 27.675781 22.765625 27.90625 22.765625 C 28.003906 22.765625 28.074219 22.753906 28.148438 22.71875 Z M 41 53.246094 C 41.304688 53.113281 41.449219 52.761719 41.328125 52.457031 L 40.140625 49.632812 C 40.007812 49.328125 39.65625 49.183594 39.339844 49.304688 C 39.039062 49.4375 38.890625 49.789062 39.011719 50.09375 L 40.203125 52.917969 C 40.296875 53.148438 40.527344 53.292969 40.757812 53.292969 C 40.84375 53.292969 40.929688 53.269531 41 53.246094 Z M 17.027344 43.472656 L 19.902344 42.296875 C 20.21875 42.175781 20.363281 41.8125 20.230469 41.511719 C 20.109375 41.195312 19.742188 41.050781 19.441406 41.183594 L 16.566406 42.359375 C 16.25 42.480469 16.105469 42.84375 16.238281 43.148438 C 16.335938 43.378906 16.566406 43.523438 16.796875 43.523438 C 16.871094 43.523438 16.953125 43.511719 17.027344 43.472656 Z M 48.046875 30.839844 L 50.921875 29.664062 C 51.238281 29.542969 51.382812 29.179688 51.25 28.878906 C 51.128906 28.5625 50.761719 28.417969 50.460938 28.550781 L 47.585938 29.726562 C 47.269531 29.847656 47.125 30.210938 47.257812 30.515625 C 47.355469 30.746094 47.585938 30.890625 47.816406 30.890625 C 47.902344 30.878906 47.972656 30.867188 48.046875 30.839844 Z M 40.140625 22.402344 L 41.328125 19.578125 C 41.460938 19.277344 41.316406 18.914062 41 18.792969 C 40.6875 18.65625 40.335938 18.804688 40.203125 19.117188 L 39.011719 21.941406 C 38.878906 22.246094 39.023438 22.609375 39.339844 22.730469 C 39.414062 22.765625 39.496094 22.78125 39.570312 22.78125 C 39.8125 22.765625 40.042969 22.632812 40.140625 22.402344 Z M 27.285156 52.917969 L 28.476562 50.09375 C 28.609375 49.789062 28.460938 49.425781 28.148438 49.304688 C 27.832031 49.171875 27.480469 49.316406 27.347656 49.632812 L 26.160156 52.457031 C 26.027344 52.761719 26.171875 53.125 26.484375 53.246094 C 26.558594 53.28125 26.644531 53.292969 26.714844 53.292969 C 26.960938 53.292969 27.191406 53.148438 27.285156 52.917969 Z M 20.242188 30.503906 C 20.363281 30.1875 20.21875 29.835938 19.914062 29.714844 L 17.039062 28.539062 C 16.722656 28.417969 16.371094 28.5625 16.25 28.867188 C 16.128906 29.179688 16.277344 29.53125 16.578125 29.652344 L 19.453125 30.828125 C 19.527344 30.867188 19.609375 30.878906 19.683594 30.878906 C 19.914062 30.878906 20.144531 30.734375 20.242188 30.503906 Z M 51.261719 43.148438 C 51.382812 42.832031 51.238281 42.480469 50.933594 42.359375 L 48.046875 41.183594 C 47.730469 41.0625 47.378906 41.207031 47.257812 41.511719 C 47.136719 41.824219 47.28125 42.175781 47.585938 42.296875 L 50.460938 43.472656 C 50.53125 43.511719 50.617188 43.523438 50.691406 43.523438 C 50.933594 43.523438 51.164062 43.378906 51.261719 43.148438 Z M 51.261719 43.148438 " fill-opacity="1" fill-rule="nonzero"/></g><g clip-path="url(#id2)"><path fill="#6da7cc" d="M 101.171875 88.429688 C 100.914062 89.519531 98.613281 90.035156 95.023438 90.15625 C 96.21875 90.957031 96.792969 91.679688 96.671875 92.257812 C 96.339844 93.753906 91.6875 94.023438 84.644531 93.933594 C 85.082031 94.417969 85.296875 94.886719 85.21875 95.324219 C 84.734375 98.105469 74.402344 98.648438 62.023438 98.636719 C 49.664062 98.542969 39.316406 97.910156 38.859375 95.128906 C 38.785156 94.675781 38.996094 94.21875 39.449219 93.738281 C 32.40625 93.765625 27.753906 93.449219 27.4375 91.9375 C 27.332031 91.4375 27.753906 90.832031 28.648438 90.183594 C 24.46875 90.109375 21.769531 89.625 21.484375 88.429688 C 21.242188 87.476562 22.605469 86.175781 25.195312 84.847656 C 25.90625 84.46875 26.710938 84.105469 27.589844 83.742188 C 32.695312 81.582031 40.726562 79.585938 49.859375 78.996094 C 57.507812 78.496094 65.152344 78.496094 72.796875 78.996094 C 84.222656 79.722656 93.855469 82.683594 98.339844 85.332031 C 98.351562 85.332031 98.355469 85.335938 98.355469 85.347656 C 100.355469 86.496094 101.382812 87.597656 101.171875 88.429688 Z M 101.171875 88.429688 " fill-opacity="1" fill-rule="nonzero"/></g><path fill="#fddea0" d="M 30.703125 83.542969 C 30.683594 83.734375 30.691406 83.921875 30.71875 84.109375 C 30.917969 85.234375 31.980469 85.882812 32.929688 86.28125 C 36.21875 87.640625 39.707031 88.105469 43.164062 88.320312 C 44.160156 88.386719 45.15625 88.433594 46.152344 88.46875 C 48.3125 88.550781 50.457031 88.632812 52.617188 88.851562 C 54.171875 89.007812 55.714844 89.273438 57.234375 89.644531 C 58.347656 89.925781 59.425781 90.65625 60.558594 90.804688 C 63.648438 91.203125 67.121094 90.789062 70.175781 90.441406 C 73.367188 90.042969 76.523438 89.332031 79.511719 87.96875 C 80.726562 87.421875 81.90625 86.777344 83.183594 86.476562 C 85.210938 85.980469 87.320312 86.445312 89.382812 86.0625 C 90.660156 85.847656 92.105469 84.984375 92.171875 83.527344 L 92.171875 83.394531 C 92.15625 82.464844 91.539062 81.667969 90.925781 81.039062 C 88.285156 78.386719 84.796875 77.125 81.355469 76.148438 C 80.328125 75.851562 79.28125 75.570312 78.234375 75.320312 C 71.15625 73.511719 63.863281 72.617188 56.621094 73.132812 C 48.3125 73.695312 40.039062 76.132812 32.8125 80.824219 C 31.882812 81.4375 30.820312 82.382812 30.703125 83.542969 Z M 30.703125 83.542969 " fill-opacity="1" fill-rule="nonzero"/><path fill="#d39046" d="M 72.710938 78.859375 C 72.710938 78.859375 78.585938 56.546875 70.90625 39.644531 L 75.875 37.730469 C 75.875 37.730469 82.648438 50.351562 81.746094 80.097656 C 81.746094 80.097656 78.546875 79.273438 72.710938 78.859375 Z M 72.710938 78.859375 " fill-opacity="1" fill-rule="nonzero"/><g clip-path="url(#id3)"><path fill="#02b18a" d="M 76.714844 44.082031 C 76.714844 44.082031 63.472656 51.070312 62.585938 57.851562 C 62.550781 58.171875 62.375 58.367188 62.058594 58.429688 C 61.738281 58.496094 61.5 58.390625 61.339844 58.109375 C 59.207031 54.457031 56.402344 46.292969 70.304688 42.050781 C 70.566406 41.976562 70.71875 41.804688 70.773438 41.542969 C 70.828125 41.277344 70.75 41.0625 70.539062 40.890625 C 67.8125 38.683594 59.785156 32.792969 52.492188 33.335938 C 52.1875 33.359375 51.96875 33.238281 51.832031 32.964844 C 51.695312 32.691406 51.734375 32.441406 51.9375 32.214844 C 54.496094 29.460938 61.128906 24.101562 69.199219 31.453125 C 69.316406 31.558594 69.449219 31.617188 69.605469 31.628906 C 69.761719 31.640625 69.902344 31.605469 70.03125 31.515625 C 70.164062 31.429688 70.25 31.3125 70.296875 31.164062 C 70.34375 31.015625 70.339844 30.867188 70.28125 30.722656 C 69.070312 27.636719 66.722656 22.96875 63.246094 21.601562 C 62.945312 21.492188 62.796875 21.273438 62.804688 20.953125 C 62.816406 20.632812 62.972656 20.425781 63.28125 20.332031 C 66.726562 19.316406 73.558594 19.144531 77.246094 31.550781 C 77.277344 31.664062 77.339844 31.761719 77.421875 31.84375 C 77.507812 31.925781 77.605469 31.980469 77.71875 32.007812 C 77.835938 32.039062 77.949219 32.039062 78.0625 32.007812 C 78.175781 31.976562 78.273438 31.921875 78.359375 31.839844 C 81.03125 29.21875 89.933594 21.910156 97.3125 32.210938 C 97.472656 32.441406 97.488281 32.675781 97.351562 32.921875 C 97.214844 33.164062 97.007812 33.28125 96.726562 33.261719 C 93.96875 33.121094 87.417969 33.453125 80.050781 38.5625 C 79.925781 38.644531 79.839844 38.757812 79.792969 38.898438 C 79.746094 39.039062 79.746094 39.183594 79.792969 39.324219 C 79.839844 39.464844 79.925781 39.578125 80.046875 39.664062 C 80.167969 39.746094 80.304688 39.789062 80.453125 39.78125 C 85.460938 39.605469 96.679688 40.542969 93.480469 53.011719 C 93.453125 53.117188 93.402344 53.210938 93.328125 53.292969 C 93.253906 53.375 93.167969 53.433594 93.066406 53.472656 C 92.960938 53.507812 92.855469 53.523438 92.746094 53.507812 C 92.640625 53.496094 92.539062 53.457031 92.449219 53.394531 C 89.480469 51.34375 82.417969 43.292969 76.714844 44.082031 " fill-opacity="1" fill-rule="nonzero"/></g></svg>