<svg xmlns="http://www.w3.org/2000/svg" xmlns:xlink="http://www.w3.org/1999/xlink" width="150" zoomAndPan="magnify" viewBox="0 0 112.5 112.499997" height="150" preserveAspectRatio="xMidYMid meet" version="1.0"><defs><clipPath id="id1"><path d="M 13.214844 11.25 L 99.464844 11.25 L 99.464844 101 L 13.214844 101 Z M 13.214844 11.25 " clip-rule="nonzero"/></clipPath><clipPath id="id2"><path d="M 92 17 L 99.464844 17 L 99.464844 27 L 92 27 Z M 92 17 " clip-rule="nonzero"/></clipPath><clipPath id="id3"><path d="M 90 19 L 99.464844 19 L 99.464844 28 L 90 28 Z M 90 19 " clip-rule="nonzero"/></clipPath><clipPath id="id4"><path d="M 89 13 L 99.464844 13 L 99.464844 24 L 89 24 Z M 89 13 " clip-rule="nonzero"/></clipPath><clipPath id="id5"><path d="M 87 12 L 99.464844 12 L 99.464844 26 L 87 26 Z M 87 12 " clip-rule="nonzero"/></clipPath><clipPath id="id6"><path d="M 87 11.25 L 97 11.25 L 97 21 L 87 21 Z M 87 11.25 " clip-rule="nonzero"/></clipPath><clipPath id="id7"><path d="M 84 11.25 L 93 11.25 L 93 19 L 84 19 Z M 84 11.25 " clip-rule="nonzero"/></clipPath><clipPath id="id8"><path d="M 82 11.25 L 92 11.25 L 92 21 L 82 21 Z M 82 11.25 " clip-rule="nonzero"/></clipPath></defs><path fill="#915e36" d="M 86.335938 23.933594 L 86.238281 24.21875 C 86.25 24.222656 86.261719 24.226562 86.273438 24.230469 C 75.191406 35.9375 63.835938 47.351562 52.695312 59.023438 C 52.441406 58.832031 52.171875 58.664062 51.9375 58.453125 C 63.300781 46.859375 74.496094 35.09375 85.953125 23.554688 L 85.855469 23.839844 L 86.046875 23.839844 L 86.046875 24.03125 Z M 86.335938 23.933594 " fill-opacity="1" fill-rule="nonzero"/><path fill="#915e36" d="M 51.835938 58.359375 L 51.835938 57.976562 C 53.144531 56.324219 55.625 53.800781 57.378906 51.871094 C 61.5 47.34375 66.230469 43.019531 70.566406 38.332031 C 74.917969 33.625 79.847656 29.488281 83.753906 24.792969 C 84.472656 24.609375 85.109375 22.777344 85.664062 23.648438 L 85.953125 23.554688 C 74.496094 35.09375 63.300781 46.859375 51.9375 58.453125 C 51.902344 58.421875 51.867188 58.390625 51.835938 58.359375 Z M 51.835938 58.359375 " fill-opacity="1" fill-rule="nonzero"/><path fill="#915e36" d="M 52.695312 59.023438 C 52.410156 59.3125 52.125 59.597656 51.835938 59.882812 C 51.777344 59.878906 51.71875 59.875 51.664062 59.863281 C 51.453125 59.621094 51.21875 59.4375 51.074219 59.3125 C 51.273438 59.011719 51.449219 58.6875 51.597656 58.359375 L 51.644531 58.738281 L 51.835938 58.738281 L 51.835938 58.359375 C 51.867188 58.390625 51.902344 58.421875 51.9375 58.453125 C 52.171875 58.664062 52.445312 58.832031 52.695312 59.023438 Z M 52.695312 59.023438 " fill-opacity="1" fill-rule="nonzero"/><path fill="#915e36" d="M 53.460938 59.789062 C 64.507812 48.109375 75.828125 36.550781 86.855469 24.851562 L 86.8125 24.984375 C 87.140625 24.972656 87.304688 25.128906 87.386719 25.363281 L 87.671875 25.269531 C 76.351562 36.832031 65.570312 49.007812 54.128906 60.453125 C 53.917969 60.242188 53.703125 60.03125 53.460938 59.789062 Z M 53.460938 59.789062 " fill-opacity="1" fill-rule="nonzero"/><g clip-path="url(#id1)"><path fill="#000000" d="M 87.386719 25.363281 C 87.304688 25.128906 87.140625 24.972656 86.8125 24.984375 L 86.855469 24.851562 L 86.910156 24.695312 L 86.621094 24.792969 C 86.628906 24.480469 86.492188 24.316406 86.273438 24.230469 C 86.261719 24.226562 86.25 24.222656 86.238281 24.21875 L 86.335938 23.933594 L 86.046875 24.03125 L 86.046875 23.839844 L 86.601562 23.628906 L 86.8125 23.078125 L 87.003906 23.078125 L 86.910156 23.359375 L 87.195312 23.457031 C 87.277344 23.628906 87.363281 23.796875 87.578125 23.839844 L 87.480469 24.125 L 87.769531 24.03125 C 87.851562 24.199219 87.9375 24.371094 88.148438 24.410156 L 88.054688 24.695312 L 88.339844 24.792969 L 88.722656 24.792969 L 88.628906 25.078125 L 88.914062 24.984375 C 88.949219 25.136719 89.105469 25.171875 89.105469 25.363281 C 91.148438 26.207031 92.058594 24.0625 93.308594 22.695312 C 94.988281 20.855469 96.617188 19.570312 98.089844 17.734375 C 97.574219 17.425781 97.179688 16.992188 96.941406 16.402344 C 98.03125 14.039062 95.988281 12.34375 93.691406 13.347656 C 93.289062 13.179688 93.128906 12.769531 92.546875 12.777344 C 91.738281 13.867188 90.285156 15.035156 88.914062 16.402344 C 87.160156 18.152344 84.519531 19.789062 86.238281 22.695312 L 86.621094 22.695312 L 86.527344 22.980469 L 86.8125 23.078125 L 86.257812 23.285156 L 86.046875 23.839844 L 85.855469 23.839844 L 85.953125 23.554688 L 85.664062 23.648438 C 85.109375 22.777344 84.472656 24.609375 83.753906 24.792969 C 79.847656 29.488281 74.917969 33.625 70.566406 38.332031 C 66.230469 43.019531 61.5 47.34375 57.378906 51.871094 C 55.625 53.800781 53.144531 56.324219 51.835938 57.976562 L 51.835938 58.738281 L 51.644531 58.738281 L 51.597656 58.359375 L 51.261719 58.546875 C 50.964844 58.269531 50.371094 58.292969 50.117188 57.976562 L 50.402344 57.753906 L 50.308594 57.402344 L 50.691406 57.402344 C 52.875 54.878906 55.550781 52.847656 57.570312 50.15625 C 55.199219 46.636719 47.84375 44.234375 43.425781 47.675781 C 42.058594 48.746094 40.941406 50.390625 40.175781 51.871094 C 39.355469 53.46875 39.1875 55.390625 38.265625 57.210938 C 36.765625 60.1875 34.707031 60.121094 30.8125 60.453125 C 25.988281 60.871094 20.703125 63.21875 17.816406 66.175781 C 15.066406 68.992188 13.359375 74.476562 14.949219 79.714844 C 15.578125 81.785156 17.160156 84.503906 18.582031 86.582031 C 20.046875 88.722656 21.769531 90.828125 23.359375 92.304688 C 27.375 96.03125 33.382812 100.246094 41.324219 99.359375 C 44.109375 99.050781 46.5 97.527344 48.011719 96.117188 C 51.171875 93.179688 53.355469 87.914062 53.746094 82.769531 C 53.984375 79.667969 53.988281 76.492188 56.421875 74.949219 C 57.8125 74.070312 59.671875 73.644531 61.203125 72.851562 C 63.894531 71.453125 66.660156 69.542969 66.933594 65.414062 C 67.222656 61.058594 64.910156 57.820312 62.539062 54.921875 C 60.320312 57.734375 57.65625 60.097656 55.46875 62.933594 L 55.117188 62.839844 L 54.894531 63.125 C 54.5 63.074219 54.84375 62.285156 54.511719 62.171875 L 54.605469 61.882812 L 54.320312 61.980469 C 54.402344 61.582031 54.191406 61.476562 54.128906 61.21875 L 54.417969 61.121094 L 54.703125 61.027344 C 60.519531 55.515625 65.828125 49.289062 71.332031 43.289062 C 75.421875 38.828125 79.570312 34.453125 83.753906 29.941406 C 85.0625 28.53125 86.679688 27.277344 87.578125 25.554688 L 87.671875 25.269531 Z M 98.089844 16.019531 C 98.210938 16.976562 99.304688 16.96875 99.425781 17.925781 C 98.664062 19.03125 96.855469 20.035156 96.75 21.167969 L 96.464844 21.390625 L 96.558594 21.742188 L 96.371094 21.742188 L 95.890625 21.265625 L 95.792969 21.929688 C 95.515625 22.097656 95.1875 22.214844 95.222656 22.695312 L 94.527344 22.644531 L 94.839844 23.265625 L 94.21875 22.957031 L 94.265625 23.648438 L 93.882812 23.648438 C 93.664062 23.929688 93.664062 24.128906 93.882812 24.410156 L 93.519531 24.582031 L 93.503906 24.984375 C 93.339844 24.945312 93.320312 25.058594 93.308594 25.171875 L 93.023438 25.078125 L 92.738281 25.171875 C 91.824219 26.058594 90.867188 26.980469 89.105469 26.507812 C 80.191406 35.285156 72.046875 44.832031 63.496094 53.96875 C 65.90625 57.589844 68.625 61.476562 67.890625 66.367188 C 67.25 70.644531 63.726562 73.222656 60.054688 74.757812 C 58.785156 75.289062 57.148438 75.410156 56.234375 76.285156 C 54.429688 78.007812 54.957031 80.835938 54.703125 83.53125 C 53.789062 93.277344 47.886719 101.261719 37.882812 100.503906 C 31.527344 100.023438 26.066406 96.4375 22.210938 92.683594 C 18.847656 89.40625 13.9375 82.949219 13.421875 77.046875 C 13.257812 75.179688 13.230469 73.320312 13.609375 71.707031 C 15.320312 64.449219 23.5625 59.96875 31.195312 59.3125 C 34.097656 59.0625 35.5625 59.347656 36.929688 57.402344 C 37.707031 56.296875 37.816406 54.816406 38.265625 53.589844 C 39.746094 49.558594 43.109375 44.488281 49.542969 44.816406 C 53.664062 45.023438 55.066406 46.636719 58.335938 49.394531 C 67.257812 40.496094 76.023438 31.445312 84.710938 22.3125 C 84.246094 20.875 84.59375 19.164062 85.476562 18.5 L 85.761719 18.277344 L 85.664062 17.925781 C 85.828125 17.960938 85.84375 17.851562 85.859375 17.734375 L 86.335938 17.832031 L 86.429688 17.355469 C 86.664062 17.269531 86.824219 17.109375 86.8125 16.78125 L 87.292969 16.878906 L 87.386719 16.402344 L 87.386719 16.019531 L 87.863281 16.113281 L 87.960938 15.636719 L 88.34375 15.636719 C 88.378906 15.484375 88.535156 15.449219 88.53125 15.257812 L 89.167969 15.265625 L 88.914062 14.683594 L 88.914062 14.300781 L 89.265625 14.398438 L 89.488281 14.113281 C 90.777344 13.425781 91.578125 12.253906 92.546875 11.25 C 93.492188 12.671875 96.238281 11.5 97.515625 12.777344 C 98.171875 13.433594 98.457031 14.570312 98.089844 16.019531 Z M 98.089844 16.019531 " fill-opacity="1" fill-rule="nonzero"/></g><path fill="#915e36" d="M 53.460938 59.789062 C 53.207031 59.53125 52.949219 59.277344 52.695312 59.023438 C 63.835938 47.351562 75.191406 35.9375 86.273438 24.230469 C 86.492188 24.316406 86.628906 24.480469 86.621094 24.792969 L 86.910156 24.695312 L 86.855469 24.851562 C 75.828125 36.550781 64.507812 48.109375 53.460938 59.789062 Z M 53.460938 59.789062 " fill-opacity="1" fill-rule="nonzero"/><path fill="#f8b662" d="M 89.5 22.890625 C 88.515625 23.160156 87.714844 23.890625 87.480469 24.125 L 87.578125 23.839844 C 87.363281 23.796875 87.277344 23.628906 87.195312 23.457031 L 86.910156 23.359375 C 87.296875 22.957031 87.726562 22.589844 88.066406 22.140625 C 88.058594 21.957031 87.960938 21.730469 87.816406 21.550781 C 87.988281 21.527344 88.339844 21.367188 88.5 21.074219 L 88.722656 21.359375 C 89.058594 21.1875 89.316406 20.933594 89.488281 20.59375 L 89.203125 20.375 C 89.53125 20.195312 89.855469 19.851562 90.03125 19.546875 L 90.253906 19.832031 C 90.582031 19.589844 91.003906 19.4375 91.015625 18.878906 L 90.730469 18.65625 C 91.058594 18.476562 91.382812 18.136719 91.558594 17.832031 L 91.78125 18.117188 C 92.242188 17.816406 92.625 17.433594 92.929688 16.972656 L 92.605469 16.839844 C 93.074219 16.410156 93.078125 15.335938 92.304688 15.269531 C 91.835938 15.363281 91.4375 15.679688 91.238281 16.113281 L 91.015625 15.828125 C 90.679688 16 90.425781 16.253906 90.253906 16.589844 L 90.539062 16.8125 C 90.234375 16.988281 89.890625 17.3125 89.710938 17.640625 L 89.488281 17.355469 C 89.027344 17.65625 88.644531 18.039062 88.339844 18.5 L 88.664062 18.632812 C 88.550781 18.769531 88.421875 18.894531 88.285156 19.011719 L 88.148438 18.6875 C 87.640625 18.878906 87.519531 19.460938 87.195312 19.832031 L 87.480469 20.058594 C 86.625 20.359375 87.160156 21.332031 87.769531 21.550781 C 87.40625 22.074219 86.882812 22.449219 86.527344 22.980469 L 86.621094 22.695312 L 86.238281 22.695312 C 84.519531 19.789062 87.160156 18.152344 88.914062 16.402344 C 90.285156 15.035156 91.738281 13.867188 92.546875 12.777344 C 93.128906 12.769531 93.289062 13.179688 93.691406 13.347656 C 95.988281 12.34375 98.03125 14.039062 96.941406 16.402344 C 97.179688 16.992188 97.574219 17.425781 98.089844 17.734375 C 96.617188 19.570312 94.988281 20.855469 93.308594 22.695312 C 92.058594 24.0625 91.148438 26.207031 89.105469 25.363281 C 89.105469 25.171875 88.949219 25.136719 88.914062 24.984375 L 88.628906 25.078125 L 88.722656 24.792969 L 88.339844 24.792969 L 88.054688 24.695312 C 88.511719 24.242188 88.9375 23.75 89.507812 23.4375 C 89.929688 23.808594 90.734375 24.09375 90.984375 23.359375 L 91.207031 23.648438 C 91.484375 23.539062 91.675781 23.351562 91.78125 23.078125 L 91.496094 22.742188 C 91.941406 22.609375 92.304688 22.238281 92.515625 21.835938 L 92.738281 22.121094 C 93.121094 21.804688 93.625 21.609375 93.691406 20.976562 L 93.597656 20.691406 C 93.929688 20.414062 94.132812 20.027344 94.234375 19.609375 C 94.804688 19.503906 95.296875 19.105469 95.402344 18.519531 C 95.433594 18.222656 95.304688 17.890625 95.066406 17.710938 C 94.304688 17.417969 93.664062 18.234375 93.535156 18.910156 C 93.019531 19.023438 92.578125 19.335938 92.296875 19.777344 L 92.164062 19.453125 C 91.636719 19.816406 91.191406 20.261719 90.828125 20.789062 L 91.152344 20.921875 C 90.886719 21.246094 90.648438 21.597656 90.507812 21.996094 L 90.253906 21.550781 C 89.976562 21.65625 89.785156 21.847656 89.679688 22.121094 L 89.964844 22.34375 C 89.691406 22.429688 89.554688 22.644531 89.5 22.890625 Z M 89.5 22.890625 " fill-opacity="1" fill-rule="nonzero"/><path fill="#f8b662" d="M 87.480469 24.125 C 87.714844 23.890625 88.515625 23.160156 89.5 22.890625 C 89.464844 23.070312 89.472656 23.261719 89.507812 23.4375 C 88.9375 23.75 88.511719 24.242188 88.054688 24.695312 L 88.148438 24.410156 C 87.9375 24.371094 87.851562 24.199219 87.769531 24.03125 Z M 87.480469 24.125 " fill-opacity="1" fill-rule="nonzero"/><path fill="#000000" d="M 93.597656 20.691406 L 93.691406 20.976562 C 93.625 21.609375 93.121094 21.804688 92.738281 22.121094 L 92.515625 21.835938 L 92.164062 21.929688 C 92.140625 21.445312 91.886719 21.191406 91.398438 21.167969 L 91.152344 20.921875 L 90.824219 20.789062 C 91.191406 20.261719 91.636719 19.816406 92.164062 19.453125 L 92.296875 19.777344 L 92.546875 20.023438 C 92.613281 20.273438 92.882812 20.324219 92.925781 20.59375 C 93.238281 20.648438 93.257812 20.414062 93.503906 20.40625 Z M 93.597656 20.691406 " fill-opacity="1" fill-rule="nonzero"/><path fill="#000000" d="M 92.605469 16.839844 L 92.929688 16.972656 C 92.625 17.433594 92.242188 17.816406 91.78125 18.117188 L 91.558594 17.832031 L 91.207031 17.925781 C 91.183594 17.441406 90.929688 17.1875 90.445312 17.164062 L 90.539062 16.8125 L 90.253906 16.589844 C 90.425781 16.253906 90.679688 16 91.015625 15.828125 L 91.238281 16.113281 L 91.589844 16.019531 C 91.757812 16.296875 91.875 16.625 92.355469 16.589844 Z M 92.605469 16.839844 " fill-opacity="1" fill-rule="nonzero"/><path fill="#000000" d="M 91.496094 22.742188 L 91.78125 23.078125 C 91.675781 23.351562 91.484375 23.539062 91.207031 23.648438 L 90.984375 23.359375 L 90.636719 23.457031 C 90.609375 22.972656 90.355469 22.71875 89.871094 22.695312 L 89.964844 22.34375 L 89.679688 22.121094 C 89.785156 21.847656 89.976562 21.65625 90.253906 21.550781 L 90.507812 21.996094 L 91.015625 21.929688 C 91.265625 22 91.316406 22.269531 91.589844 22.3125 Z M 91.496094 22.742188 " fill-opacity="1" fill-rule="nonzero"/><path fill="#000000" d="M 90.730469 18.65625 L 91.015625 18.878906 C 91.003906 19.4375 90.582031 19.589844 90.253906 19.832031 L 90.03125 19.546875 L 89.679688 19.640625 C 89.65625 19.15625 89.402344 18.902344 88.914062 18.878906 L 88.664062 18.632812 L 88.339844 18.5 C 88.644531 18.039062 89.027344 17.65625 89.488281 17.355469 L 89.710938 17.640625 L 90.0625 17.546875 L 90.0625 17.925781 C 90.230469 18.011719 90.402344 18.09375 90.445312 18.308594 L 90.828125 18.308594 Z M 90.730469 18.65625 " fill-opacity="1" fill-rule="nonzero"/><path fill="#000000" d="M 89.203125 20.375 L 89.488281 20.59375 C 89.316406 20.933594 89.058594 21.1875 88.722656 21.359375 L 88.5 21.074219 L 88.148438 21.167969 C 88.125 20.683594 87.871094 20.429688 87.386719 20.40625 L 87.480469 20.058594 L 87.195312 19.832031 C 87.519531 19.457031 87.640625 18.878906 88.148438 18.6875 L 88.285156 19.011719 L 88.53125 19.261719 C 88.707031 19.597656 88.960938 19.851562 89.296875 20.023438 Z M 89.203125 20.375 " fill-opacity="1" fill-rule="nonzero"/><path fill="#3e3d40" d="M 87.816406 21.550781 C 87.960938 21.730469 88.058594 21.957031 88.066406 22.140625 C 87.726562 22.589844 87.296875 22.957031 86.910156 23.359375 L 87.003906 23.078125 L 86.8125 23.078125 L 86.527344 22.980469 C 86.882812 22.449219 87.40625 22.074219 87.769531 21.550781 Z M 87.816406 21.550781 " fill-opacity="1" fill-rule="nonzero"/><path fill="#915e36" d="M 87.671875 25.269531 L 87.578125 25.554688 C 86.679688 27.277344 85.0625 28.53125 83.753906 29.941406 C 79.570312 34.453125 75.421875 38.832031 71.332031 43.289062 C 65.828125 49.289062 60.519531 55.519531 54.703125 61.027344 L 54.417969 61.121094 C 54.347656 61.019531 54.273438 60.914062 54.148438 60.816406 C 54.136719 60.710938 54.128906 60.585938 54.128906 60.453125 C 65.570312 49.007812 76.351562 36.832031 87.671875 25.269531 Z M 87.671875 25.269531 " fill-opacity="1" fill-rule="nonzero"/><path fill="#f8b662" d="M 62.539062 54.921875 C 64.910156 57.820312 67.226562 61.058594 66.933594 65.414062 C 66.660156 69.542969 63.894531 71.453125 61.203125 72.851562 C 59.671875 73.644531 57.8125 74.070312 56.421875 74.949219 C 53.988281 76.496094 53.984375 79.667969 53.746094 82.769531 C 53.355469 87.917969 51.171875 93.179688 48.011719 96.117188 C 46.503906 97.527344 44.109375 99.050781 41.324219 99.359375 C 33.382812 100.246094 27.375 96.03125 23.359375 92.304688 C 21.769531 90.828125 20.046875 88.722656 18.582031 86.582031 C 17.160156 84.507812 15.578125 81.785156 14.949219 79.714844 C 13.359375 74.476562 15.066406 68.992188 17.816406 66.175781 C 20.707031 63.21875 25.988281 60.871094 30.8125 60.453125 C 34.707031 60.121094 36.765625 60.1875 38.265625 57.210938 C 39.1875 55.390625 39.355469 53.46875 40.179688 51.871094 C 40.941406 50.390625 42.058594 48.746094 43.425781 47.675781 C 47.84375 44.234375 55.199219 46.640625 57.570312 50.15625 C 55.554688 52.847656 52.875 54.878906 50.691406 57.402344 L 50.308594 57.402344 L 50.402344 57.753906 C 44.863281 55.84375 39.191406 62.710938 42.472656 67.65625 L 42.472656 67.894531 C 39.726562 70.640625 37.15625 73.476562 34.347656 76.1875 L 34.445312 75.902344 L 34.0625 75.902344 C 32.515625 74.074219 30.636719 72.582031 29.09375 70.753906 C 28.730469 71.074219 26.054688 72.933594 26.035156 73.421875 C 26.019531 73.757812 27.339844 74.726562 27.753906 75.140625 C 31.847656 79.226562 36.535156 84.210938 39.988281 87.535156 C 40.972656 86.675781 41.644531 85.503906 42.472656 84.484375 C 41.253906 82.710938 39.621094 81.351562 38.078125 79.90625 L 37.789062 79.8125 C 40.597656 76.863281 43.535156 73.945312 46.054688 70.753906 C 46.214844 70.75 46.371094 70.769531 46.515625 70.785156 C 51.167969 72.65625 56.394531 67.601562 55.117188 62.839844 L 55.46875 62.933594 C 57.65625 60.097656 60.320312 57.734375 62.539062 54.921875 Z M 62.539062 54.921875 " fill-opacity="1" fill-rule="nonzero"/><path fill="#41281b" d="M 55.117188 62.839844 C 56.394531 67.601562 51.167969 72.65625 46.515625 70.785156 C 46.65625 70.441406 46.871094 70.140625 47.011719 69.800781 L 47.296875 69.800781 C 51.0625 70.921875 55.179688 66.660156 53.746094 62.980469 L 53.746094 62.503906 C 54.046875 62.308594 54.328125 62.101562 54.609375 61.886719 L 54.511719 62.171875 C 54.84375 62.285156 54.5 63.074219 54.894531 63.125 Z M 55.117188 62.839844 " fill-opacity="1" fill-rule="nonzero"/><path fill="#915e36" d="M 54.320312 61.980469 L 54.609375 61.886719 C 54.328125 62.101562 54.046875 62.308594 53.746094 62.503906 C 53.664062 62.34375 53.539062 62.050781 53.367188 61.835938 C 53.359375 61.699219 53.359375 61.542969 53.347656 61.425781 C 53.585938 61.214844 53.925781 61.035156 54.148438 60.816406 C 54.273438 60.914062 54.347656 61.019531 54.417969 61.121094 L 54.128906 61.21875 C 54.191406 61.476562 54.402344 61.582031 54.320312 61.980469 Z M 54.320312 61.980469 " fill-opacity="1" fill-rule="nonzero"/><path fill="#915e36" d="M 54.128906 60.453125 C 54.128906 60.585938 54.136719 60.710938 54.148438 60.816406 C 53.925781 61.035156 53.585938 61.214844 53.347656 61.425781 C 53.058594 61.179688 52.808594 60.835938 52.601562 60.644531 C 52.597656 60.585938 52.59375 60.527344 52.582031 60.472656 C 52.898438 60.273438 53.210938 60.074219 53.460938 59.789062 C 53.703125 60.03125 53.917969 60.242188 54.128906 60.453125 Z M 54.128906 60.453125 " fill-opacity="1" fill-rule="nonzero"/><path fill="#41281b" d="M 53.746094 62.980469 C 55.179688 66.660156 51.0625 70.921875 47.296875 69.800781 C 47.507812 69.339844 47.917969 69.027344 48.109375 68.558594 L 48.207031 68.847656 C 50.851562 68.308594 52.613281 66.886719 52.792969 63.886719 L 52.503906 63.792969 C 53 63.640625 53.238281 63.109375 53.746094 62.980469 Z M 53.746094 62.980469 " fill-opacity="1" fill-rule="nonzero"/><path fill="#915e36" d="M 53.746094 62.503906 L 53.746094 62.980469 C 53.238281 63.109375 53 63.640625 52.503906 63.792969 L 52.601562 63.503906 C 52.644531 63.144531 52.386719 63.085938 52.410156 62.742188 L 52.3125 62.550781 C 52.707031 62.378906 52.917969 61.929688 53.367188 61.835938 C 53.539062 62.050781 53.664062 62.34375 53.746094 62.503906 Z M 53.746094 62.503906 " fill-opacity="1" fill-rule="nonzero"/><path fill="#915e36" d="M 52.695312 59.023438 C 52.949219 59.277344 53.207031 59.53125 53.460938 59.789062 C 53.210938 60.074219 52.898438 60.273438 52.582031 60.472656 C 52.273438 60.246094 52.035156 60.058594 51.835938 59.882812 C 52.125 59.597656 52.410156 59.3125 52.695312 59.023438 Z M 52.695312 59.023438 " fill-opacity="1" fill-rule="nonzero"/><path fill="#915e36" d="M 53.347656 61.425781 C 53.359375 61.542969 53.359375 61.699219 53.367188 61.835938 C 52.917969 61.929688 52.707031 62.378906 52.3125 62.550781 L 52.410156 62.363281 C 52.136719 62.316406 52.085938 62.046875 51.835938 61.980469 L 51.835938 61.789062 L 51.550781 61.695312 C 51.898438 61.34375 52.25 60.996094 52.601562 60.644531 C 52.808594 60.835938 53.058594 61.179688 53.347656 61.425781 Z M 53.347656 61.425781 " fill-opacity="1" fill-rule="nonzero"/><path fill="#000000" d="M 52.503906 63.792969 L 52.792969 63.886719 C 52.613281 66.886719 50.851562 68.308594 48.207031 68.847656 L 48.109375 68.558594 L 47.824219 68.464844 L 47.058594 68.464844 L 46.867188 68.371094 L 46.675781 68.464844 L 46.675781 68.273438 C 46.296875 68.273438 46.433594 67.753906 45.910156 67.894531 L 46.007812 67.605469 L 45.722656 67.511719 C 45.46875 67.445312 45.417969 67.175781 45.144531 67.128906 L 45.242188 66.84375 L 44.957031 66.746094 C 44.59375 66.726562 44.824219 66.117188 44.382812 66.175781 L 44.476562 65.984375 L 44.382812 65.792969 C 43.4375 62.078125 46.117188 59.429688 49.734375 60.265625 L 49.925781 60.359375 L 50.117188 60.265625 L 50.117188 60.453125 C 50.285156 60.601562 50.546875 60.660156 50.878906 60.644531 L 50.785156 60.929688 L 51.074219 61.027344 C 51.324219 61.09375 51.371094 61.363281 51.644531 61.410156 L 51.550781 61.695312 L 51.835938 61.789062 L 51.835938 61.980469 C 52.085938 62.046875 52.136719 62.316406 52.410156 62.363281 L 52.3125 62.550781 L 52.410156 62.742188 C 52.386719 63.085938 52.644531 63.144531 52.601562 63.503906 Z M 52.503906 63.792969 " fill-opacity="1" fill-rule="nonzero"/><path fill="#915e36" d="M 52.601562 60.644531 C 52.25 60.996094 51.898438 61.34375 51.550781 61.695312 L 51.644531 61.410156 C 51.371094 61.363281 51.324219 61.09375 51.074219 61.027344 L 50.785156 60.929688 C 51.125 60.613281 51.441406 60.273438 51.664062 59.863281 C 51.71875 59.875 51.777344 59.878906 51.835938 59.882812 C 52.035156 60.058594 52.273438 60.246094 52.582031 60.472656 C 52.59375 60.527344 52.597656 60.585938 52.601562 60.644531 Z M 52.601562 60.644531 " fill-opacity="1" fill-rule="nonzero"/><path fill="#41281b" d="M 51.261719 58.546875 L 51.597656 58.359375 C 51.449219 58.6875 51.273438 59.011719 51.074219 59.3125 L 50.691406 59.3125 C 46.371094 56.730469 40.730469 62.511719 43.425781 66.746094 L 43.425781 67.128906 C 43.128906 67.339844 42.800781 67.5 42.472656 67.65625 C 39.191406 62.710938 44.863281 55.84375 50.402344 57.753906 L 50.117188 57.976562 C 50.371094 58.292969 50.964844 58.269531 51.261719 58.546875 Z M 51.261719 58.546875 " fill-opacity="1" fill-rule="nonzero"/><path fill="#915e36" d="M 51.074219 59.3125 C 51.21875 59.4375 51.453125 59.621094 51.664062 59.863281 C 51.441406 60.273438 51.125 60.613281 50.785156 60.929688 L 50.878906 60.644531 C 50.546875 60.660156 50.285156 60.601562 50.117188 60.453125 L 50.117188 60.265625 L 49.925781 60.359375 C 50.128906 59.976562 50.511719 59.714844 50.691406 59.3125 Z M 51.074219 59.3125 " fill-opacity="1" fill-rule="nonzero"/><path fill="#41281b" d="M 50.691406 59.3125 C 50.511719 59.714844 50.128906 59.976562 49.925781 60.359375 L 49.734375 60.265625 C 46.117188 59.429688 43.4375 62.078125 44.382812 65.792969 L 44.476562 65.984375 C 44.09375 66.191406 43.832031 66.570312 43.425781 66.746094 C 40.730469 62.511719 46.371094 56.730469 50.691406 59.3125 Z M 50.691406 59.3125 " fill-opacity="1" fill-rule="nonzero"/><path fill="#915e36" d="M 47.824219 68.464844 L 48.109375 68.558594 C 47.917969 69.027344 47.507812 69.339844 47.296875 69.800781 L 47.011719 69.800781 C 46.71875 69.675781 46.367188 69.6875 46.152344 69.417969 C 46.242188 68.972656 46.695312 68.761719 46.867188 68.371094 L 47.058594 68.464844 C 47.3125 68.464844 47.566406 68.464844 47.824219 68.464844 Z M 47.824219 68.464844 " fill-opacity="1" fill-rule="nonzero"/><path fill="#915e36" d="M 46.675781 68.464844 L 46.867188 68.371094 C 46.695312 68.761719 46.242188 68.972656 46.152344 69.417969 C 46.011719 69.414062 45.851562 69.410156 45.738281 69.398438 C 45.488281 69.117188 45.191406 68.933594 44.859375 68.75 C 45.242188 68.371094 45.625 67.988281 46.007812 67.605469 L 45.910156 67.894531 C 46.433594 67.753906 46.296875 68.269531 46.675781 68.273438 Z M 46.675781 68.464844 " fill-opacity="1" fill-rule="nonzero"/><path fill="#915e36" d="M 46.152344 69.417969 C 46.367188 69.6875 46.71875 69.675781 47.011719 69.800781 C 46.871094 70.140625 46.65625 70.441406 46.515625 70.785156 C 46.371094 70.765625 46.214844 70.75 46.054688 70.753906 C 45.835938 70.652344 45.449219 70.484375 45.050781 70.277344 C 45.339844 70.027344 45.539062 69.714844 45.738281 69.398438 C 45.851562 69.410156 46.011719 69.414062 46.152344 69.417969 Z M 46.152344 69.417969 " fill-opacity="1" fill-rule="nonzero"/><path fill="#915e36" d="M 46.007812 67.605469 C 45.625 67.988281 45.242188 68.371094 44.859375 68.75 C 44.605469 68.496094 44.351562 68.242188 44.09375 67.988281 C 44.519531 67.636719 44.789062 67.148438 45.242188 66.84375 L 45.144531 67.128906 C 45.417969 67.175781 45.46875 67.445312 45.722656 67.511719 Z M 46.007812 67.605469 " fill-opacity="1" fill-rule="nonzero"/><path fill="#915e36" d="M 45.050781 70.277344 C 45.449219 70.484375 45.835938 70.652344 46.054688 70.753906 C 43.535156 73.945312 40.597656 76.863281 37.789062 79.8125 L 37.882812 79.527344 C 37.605469 79.359375 37.277344 79.242188 37.3125 78.761719 L 37.023438 78.859375 C 39.648438 75.957031 42.46875 73.191406 45.050781 70.277344 Z M 45.050781 70.277344 " fill-opacity="1" fill-rule="nonzero"/><path fill="#915e36" d="M 44.957031 66.746094 L 45.242188 66.84375 C 44.789062 67.148438 44.519531 67.636719 44.09375 67.988281 C 43.890625 67.691406 43.667969 67.402344 43.425781 67.128906 L 43.425781 66.746094 C 43.832031 66.570312 44.09375 66.191406 44.476562 65.984375 L 44.382812 66.175781 C 44.824219 66.117188 44.59375 66.726562 44.957031 66.746094 Z M 44.957031 66.746094 " fill-opacity="1" fill-rule="nonzero"/><path fill="#915e36" d="M 45.738281 69.398438 C 45.539062 69.714844 45.339844 70.027344 45.050781 70.277344 C 44.738281 70.082031 44.417969 69.902344 44.171875 69.628906 C 44.398438 69.332031 44.558594 68.988281 44.859375 68.75 C 45.191406 68.933594 45.488281 69.117188 45.738281 69.398438 Z M 45.738281 69.398438 " fill-opacity="1" fill-rule="nonzero"/><path fill="#915e36" d="M 44.09375 67.988281 C 44.351562 68.242188 44.605469 68.496094 44.859375 68.75 C 44.558594 68.988281 44.398438 69.332031 44.171875 69.628906 C 44.117188 69.617188 44.0625 69.613281 44 69.609375 C 43.746094 69.355469 43.492188 69.101562 43.234375 68.847656 C 43.230469 68.785156 43.226562 68.726562 43.214844 68.675781 C 43.53125 68.476562 43.847656 68.273438 44.09375 67.988281 Z M 44.09375 67.988281 " fill-opacity="1" fill-rule="nonzero"/><path fill="#915e36" d="M 44.171875 69.628906 C 44.417969 69.902344 44.738281 70.082031 45.050781 70.277344 C 42.46875 73.191406 39.648438 75.957031 37.023438 78.859375 L 37.121094 78.574219 C 36.632812 78.546875 36.378906 78.292969 36.355469 77.808594 L 36.066406 77.90625 C 38.761719 75.171875 41.398438 72.402344 44 69.609375 C 44.0625 69.613281 44.117188 69.617188 44.171875 69.628906 Z M 44.171875 69.628906 " fill-opacity="1" fill-rule="nonzero"/><path fill="#915e36" d="M 43.234375 68.847656 C 43.492188 69.101562 43.746094 69.355469 44 69.609375 C 41.398438 72.402344 38.761719 75.171875 36.066406 77.90625 L 36.164062 77.617188 C 35.902344 77.628906 35.746094 77.527344 35.589844 77.429688 L 35.589844 77.046875 L 35.304688 77.140625 C 37.902344 74.351562 40.589844 71.609375 43.234375 68.847656 Z M 43.234375 68.847656 " fill-opacity="1" fill-rule="nonzero"/><path fill="#915e36" d="M 43.425781 67.128906 C 43.667969 67.402344 43.890625 67.6875 44.09375 67.988281 C 43.847656 68.273438 43.53125 68.476562 43.214844 68.675781 C 42.929688 68.425781 42.679688 68.082031 42.472656 67.894531 L 42.472656 67.65625 C 42.800781 67.5 43.128906 67.339844 43.425781 67.128906 Z M 43.425781 67.128906 " fill-opacity="1" fill-rule="nonzero"/><path fill="#915e36" d="M 43.214844 68.675781 C 43.226562 68.726562 43.230469 68.785156 43.234375 68.847656 C 40.589844 71.609375 37.902344 74.351562 35.304688 77.140625 L 35.398438 76.855469 C 35.136719 76.863281 34.980469 76.765625 34.828125 76.664062 C 34.828125 76.472656 34.671875 76.4375 34.632812 76.285156 L 34.347656 76.1875 C 37.15625 73.472656 39.726562 70.640625 42.472656 67.894531 C 42.679688 68.082031 42.929688 68.425781 43.214844 68.675781 Z M 43.214844 68.675781 " fill-opacity="1" fill-rule="nonzero"/><path fill="#000000" d="M 42.472656 84.484375 C 41.644531 85.503906 40.96875 86.675781 39.988281 87.535156 C 36.535156 84.210938 31.847656 79.226562 27.753906 75.140625 C 27.339844 74.726562 26.019531 73.757812 26.035156 73.421875 C 26.054688 72.933594 28.730469 71.074219 29.09375 70.753906 C 30.636719 72.582031 32.515625 74.074219 34.0625 75.902344 L 34.445312 75.902344 L 34.347656 76.1875 L 34.632812 76.285156 C 34.671875 76.4375 34.828125 76.472656 34.828125 76.664062 C 34.980469 76.765625 35.136719 76.863281 35.398438 76.855469 L 35.304688 77.140625 L 35.589844 77.046875 L 35.589844 77.429688 C 35.746094 77.527344 35.902344 77.628906 36.164062 77.617188 L 36.066406 77.90625 L 36.355469 77.808594 C 36.378906 78.292969 36.632812 78.546875 37.121094 78.574219 L 37.023438 78.859375 L 37.3125 78.761719 C 37.277344 79.242188 37.605469 79.359375 37.882812 79.527344 L 37.789062 79.8125 L 38.074219 79.90625 C 39.621094 81.351562 41.253906 82.710938 42.472656 84.484375 Z M 39.988281 86.011719 C 40.320312 85.390625 40.941406 85.054688 41.132812 84.292969 C 40.035156 83.609375 39.523438 82.339844 38.265625 81.816406 C 38.0625 82.246094 37.832031 82.652344 37.5 82.957031 C 35.253906 80.433594 32.730469 78.183594 30.621094 75.523438 C 32.210938 74.390625 29.710938 73.089844 28.710938 72.277344 C 28.445312 72.84375 27.828125 73.050781 27.5625 73.613281 C 31.910156 77.539062 35.714844 82.007812 39.988281 86.011719 Z M 34.828125 78.570312 C 35.589844 79.203125 37.015625 81.554688 37.695312 80.859375 C 35.894531 79.222656 34.175781 77.507812 32.53125 75.710938 C 32.308594 75.683594 32.101562 75.371094 31.960938 75.710938 C 33.003906 76.574219 33.933594 77.554688 34.828125 78.570312 Z M 34.828125 78.570312 " fill-opacity="1" fill-rule="nonzero"/><path fill="#915e36" d="M 41.132812 84.292969 C 40.941406 85.054688 40.320312 85.390625 39.988281 86.011719 C 35.714844 82.007812 31.910156 77.539062 27.5625 73.613281 C 27.828125 73.050781 28.445312 72.84375 28.710938 72.277344 C 29.710938 73.089844 32.210938 74.390625 30.621094 75.523438 C 32.730469 78.183594 35.253906 80.433594 37.5 82.957031 C 37.832031 82.652344 38.0625 82.246094 38.265625 81.816406 C 39.523438 82.339844 40.035156 83.609375 41.132812 84.292969 Z M 41.132812 84.292969 " fill-opacity="1" fill-rule="nonzero"/><path fill="#915e36" d="M 37.695312 80.859375 C 37.015625 81.554688 35.589844 79.203125 34.828125 78.570312 C 33.933594 77.554688 33.003906 76.574219 31.960938 75.710938 C 32.101562 75.371094 32.308594 75.683594 32.53125 75.710938 C 34.175781 77.507812 35.894531 79.222656 37.695312 80.859375 Z M 37.695312 80.859375 " fill-opacity="1" fill-rule="nonzero"/><path stroke-linecap="round" transform="matrix(0.173121, 0, 0, 0.172745, 4.895711, -10.79207)" fill="none" stroke-linejoin="miter" d="M 469.97229 197.26929 C 470.649201 197.925063 471.303548 198.580835 471.957895 199.259221 " stroke="#000000" stroke-width="6.245" stroke-opacity="1" stroke-miterlimit="4"/><g clip-path="url(#id2)"><path stroke-linecap="round" transform="matrix(0.173121, 0, 0, 0.172745, 4.895711, -10.79207)" fill="none" stroke-linejoin="miter" d="M 528.931213 186.302058 C 531.3004 186.596025 534.436753 187.613604 534.527008 190.485435 C 534.572135 192.023109 532.721913 193.425106 531.977311 193.764299 C 527.960974 193.357267 526.494334 188.902536 525.61435 185.578447 " stroke="#000000" stroke-width="3.514" stroke-opacity="1" stroke-miterlimit="4"/></g><g clip-path="url(#id3)"><path stroke-linecap="round" transform="matrix(0.173121, 0, 0, 0.172745, 4.895711, -10.79207)" fill="none" stroke-linejoin="miter" d="M 515.957091 195.369811 C 517.852441 198.309481 518.912934 202.379794 522.568252 203.691339 C 524.57642 203.849629 525.885114 201.724021 525.772296 199.914994 C 524.531293 196.432615 520.379574 195.709004 517.739622 193.560783 " stroke="#000000" stroke-width="3.56" stroke-opacity="1" stroke-miterlimit="4"/></g><path stroke-linecap="round" transform="matrix(0.173121, 0, 0, 0.172745, 4.895711, -10.79207)" fill="none" stroke-linejoin="miter" d="M 511.940754 204.776756 C 516.047345 204.799369 519.228826 210.882225 514.309941 212.510351 C 511.895626 212.261609 509.706949 209.909873 509.052601 207.648588 " stroke="#000000" stroke-width="3.514" stroke-opacity="1" stroke-miterlimit="4"/><path stroke-linecap="round" transform="matrix(0.173121, 0, 0, 0.172745, 4.895711, -10.79207)" fill="none" stroke-linejoin="miter" d="M 516.047345 175.990599 C 515.46069 178.410174 514.287378 180.648846 512.369464 182.254358 " stroke="#000000" stroke-width="4.065" stroke-opacity="1" stroke-miterlimit="4"/><g clip-path="url(#id4)"><path stroke-linecap="round" transform="matrix(0.173121, 0, 0, 0.172745, 4.895711, -10.79207)" fill="none" stroke-linejoin="miter" d="M 512.008445 171.942899 C 512.753047 168.030876 516.453492 163.304791 520.853411 165.000755 C 522.229797 166.040946 522.974398 167.963038 522.793889 169.681614 C 522.184669 173.073542 519.319081 175.380052 516.047345 175.990599 " stroke="#000000" stroke-width="4.004" stroke-opacity="1" stroke-miterlimit="4"/></g><g clip-path="url(#id5)"><path stroke-linecap="round" transform="matrix(0.173121, 0, 0, 0.172745, 4.895711, -10.79207)" fill="none" stroke-linejoin="miter" d="M 512.008445 171.942899 L 516.047345 175.990599 " stroke="#000000" stroke-width="6.323" stroke-opacity="1" stroke-miterlimit="4"/></g><path stroke-linecap="round" transform="matrix(0.173121, 0, 0, 0.172745, 4.895711, -10.79207)" fill="none" stroke-linejoin="miter" d="M 504.855755 176.962952 C 506.457777 174.4077 509.030038 172.598672 512.008445 171.942899 " stroke="#000000" stroke-width="4.056" stroke-opacity="1" stroke-miterlimit="4"/><path stroke-linecap="round" transform="matrix(0.173121, 0, 0, 0.172745, 4.895711, -10.79207)" fill="none" stroke-linejoin="miter" d="M 500.230199 194.126104 C 502.802459 193.357267 504.900882 191.209047 506.119322 188.879923 " stroke="#000000" stroke-width="3.568" stroke-opacity="1" stroke-miterlimit="4"/><g clip-path="url(#id6)"><path stroke-linecap="round" transform="matrix(0.173121, 0, 0, 0.172745, 4.895711, -10.79207)" fill="none" stroke-linejoin="miter" d="M 498.740995 155.752099 C 499.891743 153.242073 502.19324 151.410432 504.900882 150.867724 C 509.368493 151.252142 509.345929 157.470676 506.638287 159.958089 " stroke="#000000" stroke-width="3.831" stroke-opacity="1" stroke-miterlimit="4"/></g><path stroke-linecap="round" transform="matrix(0.173121, 0, 0, 0.172745, 4.895711, -10.79207)" fill="none" stroke-linejoin="miter" d="M 481.682845 172.530833 C 482.472574 171.852448 483.217176 171.128837 483.871523 170.337387 " stroke="#000000" stroke-width="3.981" stroke-opacity="1" stroke-miterlimit="4"/><path stroke-linecap="round" transform="matrix(0.173121, 0, 0, 0.172745, 4.895711, -10.79207)" fill="none" stroke-linejoin="miter" d="M 494.521585 189.80705 C 495.333878 187.500539 496.710263 185.465383 498.244594 183.588517 " stroke="#000000" stroke-width="3.981" stroke-opacity="1" stroke-miterlimit="4"/><path stroke-linecap="round" transform="matrix(0.173121, 0, 0, 0.172745, 4.895711, -10.79207)" fill="none" stroke-linejoin="miter" d="M 495.807715 170.473064 C 497.703065 169.432873 499.575852 167.465555 500.591218 165.701753 " stroke="#000000" stroke-width="3.338" stroke-opacity="1" stroke-miterlimit="4"/><path stroke-linecap="round" transform="matrix(0.173121, 0, 0, 0.172745, 4.895711, -10.79207)" fill="none" stroke-linejoin="miter" d="M 489.918592 164.593723 C 490.956522 162.694244 492.942127 160.817378 494.702094 159.799799 " stroke="#000000" stroke-width="3.338" stroke-opacity="1" stroke-miterlimit="4"/><path stroke-linecap="round" transform="matrix(0.173121, 0, 0, 0.172745, 4.895711, -10.79207)" fill="none" stroke-linejoin="miter" d="M 486.985312 180.422718 C 488.880662 179.382527 490.753449 177.392596 491.768815 175.628794 " stroke="#000000" stroke-width="3.338" stroke-opacity="1" stroke-miterlimit="4"/><path stroke-linecap="round" transform="matrix(0.173121, 0, 0, 0.172745, 4.895711, -10.79207)" fill="none" stroke-linejoin="miter" d="M 490.843703 200.344638 C 489.647828 201.543119 484.593561 206.698848 483.66845 207.648588 " stroke="#000000" stroke-width="1.847" stroke-opacity="1" stroke-miterlimit="4"/><g clip-path="url(#id7)"><path stroke-linecap="round" transform="matrix(0.173121, 0, 0, 0.172745, 4.895711, -10.79207)" fill="none" stroke-linejoin="miter" d="M 486.782239 150.845111 C 482.337192 149.669243 475.22963 143.518548 482.765902 140.940683 C 485.428418 140.850232 486.940185 143.541161 487.346331 145.825059 " stroke="#000000" stroke-width="3.678" stroke-opacity="1" stroke-miterlimit="4"/></g><path stroke-linecap="round" transform="matrix(0.173121, 0, 0, 0.172745, 4.895711, -10.79207)" fill="none" stroke-linejoin="miter" d="M 488.74528 198.151191 C 491.182159 200.299412 495.830279 201.95015 497.274355 197.698934 " stroke="#000000" stroke-width="3.824" stroke-opacity="1" stroke-miterlimit="4"/><path stroke-linecap="round" transform="matrix(0.173121, 0, 0, 0.172745, 4.895711, -10.79207)" fill="none" stroke-linejoin="miter" d="M 488.74528 198.151191 C 488.542207 197.133613 488.49708 196.025584 488.700153 194.985392 C 489.016045 193.560783 489.805774 192.317076 491.385232 191.819594 " stroke="#000000" stroke-width="4.131" stroke-opacity="1" stroke-miterlimit="4"/><path stroke-linecap="round" transform="matrix(0.173121, 0, 0, 0.172745, 4.895711, -10.79207)" fill="none" stroke-linejoin="miter" d="M 480.351587 205.432529 C 482.991539 202.809438 485.450981 199.960219 488.74528 198.151191 " stroke="#000000" stroke-width="2.121" stroke-opacity="1" stroke-miterlimit="4"/><path stroke-linecap="round" transform="matrix(0.173121, 0, 0, 0.172745, 4.895711, -10.79207)" fill="none" stroke-linejoin="miter" d="M 477.034725 202.131053 C 478.388546 200.774282 483.014103 196.545679 488.700153 194.985392 C 488.722717 194.985392 488.722717 194.985392 488.74528 194.985392 " stroke="#000000" stroke-width="1.912" stroke-opacity="1" stroke-miterlimit="4"/><g clip-path="url(#id8)"><path stroke-linecap="round" transform="matrix(0.173121, 0, 0, 0.172745, 4.895711, -10.79207)" fill="none" stroke-linejoin="miter" d="M 479.245967 155.752099 C 478.027527 153.309912 477.440871 151.862689 475.861413 150.551144 C 473.289152 149.510953 470.513819 152.020979 470.355873 154.531005 C 470.852274 157.470676 474.281955 158.081223 475.929104 160.184218 " stroke="#000000" stroke-width="3.581" stroke-opacity="1" stroke-miterlimit="4"/></g><path stroke-linecap="round" transform="matrix(0.173121, 0, 0, 0.172745, 4.895711, -10.79207)" fill="none" stroke-linejoin="miter" d="M 478.975202 187.229185 C 479.810059 188.269376 480.374151 189.580922 480.419279 190.643725 C 478.456238 193.244203 475.974232 195.369811 473.740426 197.698934 " stroke="#000000" stroke-width="1.892" stroke-opacity="1" stroke-miterlimit="4"/><path stroke-linecap="round" transform="matrix(0.173121, 0, 0, 0.172745, 4.895711, -10.79207)" fill="none" stroke-linejoin="miter" d="M 478.975202 187.229185 C 479.968005 187.093508 481.998737 186.166381 482.923848 184.470418 " stroke="#000000" stroke-width="3.491" stroke-opacity="1" stroke-miterlimit="4"/><path stroke-linecap="round" transform="matrix(0.173121, 0, 0, 0.172745, 4.895711, -10.79207)" fill="none" stroke-linejoin="miter" d="M 478.704438 187.229185 C 475.184502 185.962866 472.093277 180.332266 477.034725 178.591077 " stroke="#000000" stroke-width="3.549" stroke-opacity="1" stroke-miterlimit="4"/><path stroke-linecap="round" transform="matrix(0.173121, 0, 0, 0.172745, 4.895711, -10.79207)" fill="none" stroke-linejoin="miter" d="M 478.704438 187.229185 L 478.975202 187.229185 " stroke="#000000" stroke-width="4.416" stroke-opacity="1" stroke-miterlimit="4"/><path stroke-linecap="round" transform="matrix(0.173121, 0, 0, 0.172745, 4.895711, -10.79207)" fill="none" stroke-linejoin="miter" d="M 471.529185 195.505488 C 473.58248 192.430141 476.606015 190.259307 478.704438 187.229185 " stroke="#000000" stroke-width="1.614" stroke-opacity="1" stroke-miterlimit="4"/><path stroke-linecap="round" transform="matrix(0.173121, 0, 0, 0.172745, 4.895711, -10.79207)" fill="none" stroke-linejoin="miter" d="M 470.423564 165.701753 C 470.355873 160.52341 462.684218 156.679226 461.510906 163.350017 C 462.007307 166.108784 465.008278 167.058524 467.106701 168.279618 " stroke="#000000" stroke-width="3.76" stroke-opacity="1" stroke-miterlimit="4"/><path stroke-linecap="round" transform="matrix(0.173121, 0, 0, 0.172745, 4.895711, -10.79207)" fill="none" stroke-linejoin="miter" d="M 282.174696 424.302295 C 283.9121 423.171653 285.536686 421.973172 287.161272 420.729465 " stroke="#000000" stroke-width="1.561" stroke-opacity="1" stroke-miterlimit="4"/><path stroke-linecap="round" transform="matrix(0.173121, 0, 0, 0.172745, 4.895711, -10.79207)" fill="none" stroke-linejoin="miter" d="M 279.986018 420.435498 C 280.97882 421.679205 281.700859 423.375168 282.174696 424.302295 " stroke="#000000" stroke-width="3.864" stroke-opacity="1" stroke-miterlimit="4"/><path stroke-linecap="round" transform="matrix(0.173121, 0, 0, 0.172745, 4.895711, -10.79207)" fill="none" stroke-linejoin="miter" d="M 279.986018 420.435498 C 277.391194 420.978206 276.172754 423.578684 273.893822 424.573649 " stroke="#000000" stroke-width="2.028" stroke-opacity="1" stroke-miterlimit="4"/><path stroke-linecap="round" transform="matrix(0.173121, 0, 0, 0.172745, 4.895711, -10.79207)" fill="none" stroke-linejoin="miter" d="M 284.498756 414.533544 C 285.220794 415.098865 285.649504 415.709412 286.055651 416.297346 " stroke="#000000" stroke-width="3.744" stroke-opacity="1" stroke-miterlimit="4"/><path stroke-linecap="round" transform="matrix(0.173121, 0, 0, 0.172745, 4.895711, -10.79207)" fill="none" stroke-linejoin="miter" d="M 284.385938 412.430549 C 284.385938 413.199386 284.431065 413.922997 284.498756 414.533544 " stroke="#000000" stroke-width="4.484" stroke-opacity="1" stroke-miterlimit="4"/><path stroke-linecap="round" transform="matrix(0.173121, 0, 0, 0.172745, 4.895711, -10.79207)" fill="none" stroke-linejoin="miter" d="M 284.385938 412.430549 C 350.474986 346.174901 412.750772 275.690651 478.140346 208.756618 " stroke="#000000" stroke-width="1.73" stroke-opacity="1" stroke-miterlimit="4"/><path stroke-linecap="round" transform="matrix(0.173121, 0, 0, 0.172745, 4.895711, -10.79207)" fill="none" stroke-linejoin="miter" d="M 282.174696 427.061063 C 279.241416 427.807287 277.865031 430.882634 274.999443 431.764535 " stroke="#000000" stroke-width="2.082" stroke-opacity="1" stroke-miterlimit="4"/><path stroke-linecap="round" transform="matrix(0.173121, 0, 0, 0.172745, 4.895711, -10.79207)" fill="none" stroke-linejoin="miter" d="M 282.174696 427.061063 L 282.174696 424.302295 " stroke="#000000" stroke-width="4.471" stroke-opacity="1" stroke-miterlimit="4"/><path stroke-linecap="round" transform="matrix(0.173121, 0, 0, 0.172745, 4.895711, -10.79207)" fill="none" stroke-linejoin="miter" d="M 279.8732 418.061149 C 279.940891 418.739534 279.940891 419.644048 279.986018 420.435498 " stroke="#000000" stroke-width="4.484" stroke-opacity="1" stroke-miterlimit="4"/><path stroke-linecap="round" transform="matrix(0.173121, 0, 0, 0.172745, 4.895711, -10.79207)" fill="none" stroke-linejoin="miter" d="M 279.8732 418.061149 C 281.249585 416.840055 283.212626 415.799864 284.498756 414.533544 " stroke="#000000" stroke-width="2.323" stroke-opacity="1" stroke-miterlimit="4"/><path stroke-linecap="round" transform="matrix(0.173121, 0, 0, 0.172745, 4.895711, -10.79207)" fill="none" stroke-linejoin="miter" d="M 280.527547 408.586365 C 344.337663 340.973946 409.727237 274.062526 473.424535 206.337043 C 473.717863 206.043076 474.011191 205.749109 474.281955 205.432529 " stroke="#000000" stroke-width="1.704" stroke-opacity="1" stroke-miterlimit="4"/><path stroke-linecap="round" transform="matrix(0.173121, 0, 0, 0.172745, 4.895711, -10.79207)" fill="none" stroke-linejoin="miter" d="M 280.527547 408.586365 C 281.926495 409.988362 283.167498 411.209455 284.385938 412.430549 " stroke="#000000" stroke-width="3.25" stroke-opacity="1" stroke-miterlimit="4"/><path stroke-linecap="round" transform="matrix(0.173121, 0, 0, 0.172745, 4.895711, -10.79207)" fill="none" stroke-linejoin="miter" d="M 244.922043 466.543097 C 246.140483 463.874781 248.50967 462.065753 249.615291 459.352211 " stroke="#000000" stroke-width="2.079" stroke-opacity="1" stroke-miterlimit="4"/><path stroke-linecap="round" transform="matrix(0.173121, 0, 0, 0.172745, 4.895711, -10.79207)" fill="none" stroke-linejoin="miter" d="M 244.922043 466.543097 C 266.673441 473.032985 290.45557 448.362366 282.174696 427.061063 " stroke="#000000" stroke-width="3.688" stroke-opacity="1" stroke-miterlimit="4"/><path stroke-linecap="round" transform="matrix(0.173121, 0, 0, 0.172745, 4.895711, -10.79207)" fill="none" stroke-linejoin="miter" d="M 275.563535 413.538579 C 276.75941 414.646608 278.203487 416.636539 279.8732 418.061149 " stroke="#000000" stroke-width="3.456" stroke-opacity="1" stroke-miterlimit="4"/><path stroke-linecap="round" transform="matrix(0.173121, 0, 0, 0.172745, 4.895711, -10.79207)" fill="none" stroke-linejoin="miter" d="M 275.563535 413.538579 C 273.532803 415.573735 271.502071 417.586279 269.493902 419.621435 " stroke="#000000" stroke-width="2.152" stroke-opacity="1" stroke-miterlimit="4"/><path stroke-linecap="round" transform="matrix(0.173121, 0, 0, 0.172745, 4.895711, -10.79207)" fill="none" stroke-linejoin="miter" d="M 271.727707 400.85277 C 337.365482 333.737834 402.033019 265.627933 468.212322 198.829577 " stroke="#000000" stroke-width="1.726" stroke-opacity="1" stroke-miterlimit="4"/><path stroke-linecap="round" transform="matrix(0.173121, 0, 0, 0.172745, 4.895711, -10.79207)" fill="none" stroke-linejoin="miter" d="M 276.105063 404.154246 C 340.456708 336.587053 406.049355 270.512308 470.062545 202.7416 C 470.355873 202.42502 470.671764 202.10844 470.965092 201.79186 " stroke="#000000" stroke-width="1.711" stroke-opacity="1" stroke-miterlimit="4"/><path stroke-linecap="round" transform="matrix(0.173121, 0, 0, 0.172745, 4.895711, -10.79207)" fill="none" stroke-linejoin="miter" d="M 276.105063 404.154246 C 277.571703 405.624082 279.060907 407.093917 280.527547 408.586365 " stroke="#000000" stroke-width="3.25" stroke-opacity="1" stroke-miterlimit="4"/><path stroke-linecap="round" transform="matrix(0.173121, 0, 0, 0.172745, 4.895711, -10.79207)" fill="none" stroke-linejoin="miter" d="M 240.409305 472.241535 C 267.28266 483.07309 297.472878 453.812063 290.094551 426.247 " stroke="#000000" stroke-width="3.817" stroke-opacity="1" stroke-miterlimit="4"/><path stroke-linecap="round" transform="matrix(0.173121, 0, 0, 0.172745, 4.895711, -10.79207)" fill="none" stroke-linejoin="miter" d="M 243.274894 466.543097 C 242.462601 468.510415 241.221598 470.251604 240.409305 472.241535 " stroke="#000000" stroke-width="2.208" stroke-opacity="1" stroke-miterlimit="4"/><path stroke-linecap="round" transform="matrix(0.173121, 0, 0, 0.172745, 4.895711, -10.79207)" fill="none" stroke-linejoin="miter" d="M 243.274894 466.543097 L 244.922043 466.543097 " stroke="#000000" stroke-width="4.462" stroke-opacity="1" stroke-miterlimit="4"/><path stroke-linecap="round" transform="matrix(0.173121, 0, 0, 0.172745, 4.895711, -10.79207)" fill="none" stroke-linejoin="miter" d="M 275.450716 412.543613 C 275.518407 412.860193 275.540971 413.199386 275.563535 413.538579 " stroke="#000000" stroke-width="4.484" stroke-opacity="1" stroke-miterlimit="4"/><path stroke-linecap="round" transform="matrix(0.173121, 0, 0, 0.172745, 4.895711, -10.79207)" fill="none" stroke-linejoin="miter" d="M 275.450716 412.543613 C 277.278375 411.390358 279.08347 410.237103 280.527547 408.586365 " stroke="#000000" stroke-width="2.799" stroke-opacity="1" stroke-miterlimit="4"/><path stroke-linecap="round" transform="matrix(0.173121, 0, 0, 0.172745, 4.895711, -10.79207)" fill="none" stroke-linejoin="miter" d="M 276.105063 404.154246 C 274.660987 403.046217 273.081529 402.073864 271.727707 400.85277 C 271.524634 400.671868 271.321561 400.490965 271.141051 400.310062 " stroke="#000000" stroke-width="3.662" stroke-opacity="1" stroke-miterlimit="4"/><path stroke-linecap="round" transform="matrix(0.173121, 0, 0, 0.172745, 4.895711, -10.79207)" fill="none" stroke-linejoin="miter" d="M 237.74679 472.060632 C 223.19321 490.53533 206.225315 507.427128 190.002021 524.499829 " stroke="#000000" stroke-width="1.749" stroke-opacity="1" stroke-miterlimit="4"/><path stroke-linecap="round" transform="matrix(0.173121, 0, 0, 0.172745, 4.895711, -10.79207)" fill="none" stroke-linejoin="miter" d="M 237.74679 472.060632 C 238.671901 472.038019 239.574449 472.151084 240.409305 472.241535 " stroke="#000000" stroke-width="4.484" stroke-opacity="1" stroke-miterlimit="4"/><path stroke-linecap="round" transform="matrix(0.173121, 0, 0, 0.172745, 4.895711, -10.79207)" fill="none" stroke-linejoin="miter" d="M 238.310882 464.327038 C 238.829847 461.749173 241.447235 460.528079 242.440038 458.266794 " stroke="#000000" stroke-width="2.028" stroke-opacity="1" stroke-miterlimit="4"/><path stroke-linecap="round" transform="matrix(0.173121, 0, 0, 0.172745, 4.895711, -10.79207)" fill="none" stroke-linejoin="miter" d="M 238.310882 464.327038 C 239.551885 465.887324 241.582617 465.819486 243.274894 466.543097 " stroke="#000000" stroke-width="3.717" stroke-opacity="1" stroke-miterlimit="4"/><path stroke-linecap="round" transform="matrix(0.173121, 0, 0, 0.172745, 4.895711, -10.79207)" fill="none" stroke-linejoin="miter" d="M 271.141051 409.129073 C 272.2918 410.146651 273.668185 411.232068 275.450716 412.543613 " stroke="#000000" stroke-width="3.662" stroke-opacity="1" stroke-miterlimit="4"/><path stroke-linecap="round" transform="matrix(0.173121, 0, 0, 0.172745, 4.895711, -10.79207)" fill="none" stroke-linejoin="miter" d="M 271.141051 409.129073 C 272.810765 407.478335 274.457914 405.827597 276.105063 404.154246 " stroke="#000000" stroke-width="2.433" stroke-opacity="1" stroke-miterlimit="4"/><path stroke-linecap="round" transform="matrix(0.173121, 0, 0, 0.172745, 4.895711, -10.79207)" fill="none" stroke-linejoin="miter" d="M 231.947922 469.301865 C 234.249418 470.500346 236.483223 471.472698 237.74679 472.060632 " stroke="#000000" stroke-width="3.792" stroke-opacity="1" stroke-miterlimit="4"/><path stroke-linecap="round" transform="matrix(0.173121, 0, 0, 0.172745, 4.895711, -10.79207)" fill="none" stroke-linejoin="miter" d="M 235.919131 464.213974 C 236.573478 464.281812 237.498589 464.304425 238.310882 464.327038 " stroke="#000000" stroke-width="4.484" stroke-opacity="1" stroke-miterlimit="4"/><path stroke-linecap="round" transform="matrix(0.173121, 0, 0, 0.172745, 4.895711, -10.79207)" fill="none" stroke-linejoin="miter" d="M 235.919131 464.213974 C 234.768383 466.045614 233.617635 467.854642 231.947922 469.301865 " stroke="#000000" stroke-width="2.55" stroke-opacity="1" stroke-miterlimit="4"/><path stroke-linecap="round" transform="matrix(0.173121, 0, 0, 0.172745, 4.895711, -10.79207)" fill="none" stroke-linejoin="miter" d="M 270.148249 409.016009 C 270.464141 409.083848 270.802596 409.10646 271.141051 409.129073 " stroke="#000000" stroke-width="4.484" stroke-opacity="1" stroke-miterlimit="4"/><path stroke-linecap="round" transform="matrix(0.173121, 0, 0, 0.172745, 4.895711, -10.79207)" fill="none" stroke-linejoin="miter" d="M 270.148249 409.016009 C 268.862119 411.390358 267.03446 413.357676 265.071419 415.189317 " stroke="#000000" stroke-width="2.208" stroke-opacity="1" stroke-miterlimit="4"/><path stroke-linecap="round" transform="matrix(0.173121, 0, 0, 0.172745, 4.895711, -10.79207)" fill="none" stroke-linejoin="miter" d="M 231.947922 469.301865 C 217.033322 486.17105 200.742338 502.180947 185.579538 518.982294 " stroke="#000000" stroke-width="1.683" stroke-opacity="1" stroke-miterlimit="4"/><path stroke-linecap="round" transform="matrix(0.173121, 0, 0, 0.172745, 4.895711, -10.79207)" fill="none" stroke-linejoin="miter" d="M 230.842301 460.460241 C 233.053542 458.266794 235.264784 456.050735 237.476026 453.834676 " stroke="#000000" stroke-width="2.152" stroke-opacity="1" stroke-miterlimit="4"/><path stroke-linecap="round" transform="matrix(0.173121, 0, 0, 0.172745, 4.895711, -10.79207)" fill="none" stroke-linejoin="miter" d="M 230.842301 460.460241 C 232.760214 461.523045 234.475055 462.585848 235.919131 464.213974 " stroke="#000000" stroke-width="3.628" stroke-opacity="1" stroke-miterlimit="4"/><path stroke-linecap="round" transform="matrix(0.173121, 0, 0, 0.172745, 4.895711, -10.79207)" fill="none" stroke-linejoin="miter" d="M 266.741132 405.827597 C 267.89188 404.086408 268.907246 402.209541 269.764666 400.310062 " stroke="#000000" stroke-width="2.385" stroke-opacity="1" stroke-miterlimit="4"/><path stroke-linecap="round" transform="matrix(0.173121, 0, 0, 0.172745, 4.895711, -10.79207)" fill="none" stroke-linejoin="miter" d="M 266.741132 405.827597 C 267.575988 406.551208 268.92981 407.614012 270.148249 409.016009 " stroke="#000000" stroke-width="3.549" stroke-opacity="1" stroke-miterlimit="4"/><path stroke-linecap="round" transform="matrix(0.173121, 0, 0, 0.172745, 4.895711, -10.79207)" fill="none" stroke-linejoin="miter" d="M 226.871091 465.548132 C 228.292604 467.131031 230.142826 468.171222 231.947922 469.301865 " stroke="#000000" stroke-width="3.628" stroke-opacity="1" stroke-miterlimit="4"/><path stroke-linecap="round" transform="matrix(0.173121, 0, 0, 0.172745, 4.895711, -10.79207)" fill="none" stroke-linejoin="miter" d="M 230.842301 460.460241 C 229.104897 461.839624 228.179785 463.829555 226.871091 465.548132 " stroke="#000000" stroke-width="2.799" stroke-opacity="1" stroke-miterlimit="4"/><path stroke-linecap="round" transform="matrix(0.173121, 0, 0, 0.172745, 4.895711, -10.79207)" fill="none" stroke-linejoin="miter" d="M 264.52989 405.827597 L 266.741132 405.827597 " stroke="#000000" stroke-width="4.471" stroke-opacity="1" stroke-miterlimit="4"/><path stroke-linecap="round" transform="matrix(0.173121, 0, 0, 0.172745, 4.895711, -10.79207)" fill="none" stroke-linejoin="miter" d="M 264.52989 405.827597 C 263.491961 408.156721 261.280719 409.671782 260.107407 411.887841 " stroke="#000000" stroke-width="2.177" stroke-opacity="1" stroke-miterlimit="4"/><path stroke-linecap="round" transform="matrix(0.173121, 0, 0, 0.172745, 4.895711, -10.79207)" fill="none" stroke-linejoin="miter" d="M 225.878289 465.435067 C 210.850871 481.603255 195.62038 497.635765 180.051434 513.464759 " stroke="#000000" stroke-width="1.72" stroke-opacity="1" stroke-miterlimit="4"/><path stroke-linecap="round" transform="matrix(0.173121, 0, 0, 0.172745, 4.895711, -10.79207)" fill="none" stroke-linejoin="miter" d="M 225.878289 465.435067 C 226.239308 465.45768 226.5552 465.480293 226.871091 465.548132 " stroke="#000000" stroke-width="4.484" stroke-opacity="1" stroke-miterlimit="4"/><path stroke-linecap="round" transform="matrix(0.173121, 0, 0, 0.172745, 4.895711, -10.79207)" fill="none" stroke-linejoin="miter" d="M 226.419817 456.050735 C 227.909021 457.52057 229.375661 458.990405 230.842301 460.460241 " stroke="#000000" stroke-width="3.25" stroke-opacity="1" stroke-miterlimit="4"/><path stroke-linecap="round" transform="matrix(0.173121, 0, 0, 0.172745, 4.895711, -10.79207)" fill="none" stroke-linejoin="miter" d="M 226.419817 456.050735 C 228.87926 454.015579 230.436154 451.188973 233.053542 449.42517 " stroke="#000000" stroke-width="2.187" stroke-opacity="1" stroke-miterlimit="4"/><path stroke-linecap="round" transform="matrix(0.173121, 0, 0, 0.172745, 4.895711, -10.79207)" fill="none" stroke-linejoin="miter" d="M 222.561426 448.859849 C 206.99248 424.347521 239.574449 390.880504 264.52989 405.827597 " stroke="#000000" stroke-width="3.776" stroke-opacity="1" stroke-miterlimit="4"/><path stroke-linecap="round" transform="matrix(0.173121, 0, 0, 0.172745, 4.895711, -10.79207)" fill="none" stroke-linejoin="miter" d="M 222.561426 448.859849 C 224.90805 447.842271 226.419817 445.648825 228.631059 444.450344 " stroke="#000000" stroke-width="2.177" stroke-opacity="1" stroke-miterlimit="4"/><path stroke-linecap="round" transform="matrix(0.173121, 0, 0, 0.172745, 4.895711, -10.79207)" fill="none" stroke-linejoin="miter" d="M 221.455806 461.025562 C 222.945009 462.495397 224.411649 463.965232 225.878289 465.435067 " stroke="#000000" stroke-width="3.275" stroke-opacity="1" stroke-miterlimit="4"/><path stroke-linecap="round" transform="matrix(0.173121, 0, 0, 0.172745, 4.895711, -10.79207)" fill="none" stroke-linejoin="miter" d="M 221.455806 461.025562 C 206.180187 477.012846 190.656368 492.887066 175.651514 509.032641 " stroke="#000000" stroke-width="1.704" stroke-opacity="1" stroke-miterlimit="4"/><path stroke-linecap="round" transform="matrix(0.173121, 0, 0, 0.172745, 4.895711, -10.79207)" fill="none" stroke-linejoin="miter" d="M 222.561426 451.075908 C 223.960375 452.658808 225.246506 454.309546 226.419817 456.050735 " stroke="#000000" stroke-width="3.662" stroke-opacity="1" stroke-miterlimit="4"/><path stroke-linecap="round" transform="matrix(0.173121, 0, 0, 0.172745, 4.895711, -10.79207)" fill="none" stroke-linejoin="miter" d="M 222.561426 451.075908 L 222.561426 448.859849 " stroke="#000000" stroke-width="4.471" stroke-opacity="1" stroke-miterlimit="4"/><path stroke-linecap="round" transform="matrix(0.173121, 0, 0, 0.172745, 4.895711, -10.79207)" fill="none" stroke-linejoin="miter" d="M 221.342987 460.030597 C 221.410678 460.324564 221.433242 460.663756 221.455806 461.025562 " stroke="#000000" stroke-width="4.484" stroke-opacity="1" stroke-miterlimit="4"/><path stroke-linecap="round" transform="matrix(0.173121, 0, 0, 0.172745, 4.895711, -10.79207)" fill="none" stroke-linejoin="miter" d="M 221.342987 460.030597 C 223.170646 458.877341 224.998305 457.701473 226.419817 456.050735 " stroke="#000000" stroke-width="3.098" stroke-opacity="1" stroke-miterlimit="4"/><path stroke-linecap="round" transform="matrix(0.173121, 0, 0, 0.172745, 4.895711, -10.79207)" fill="none" stroke-linejoin="miter" d="M 217.055886 454.128643 C 198.102386 425.500776 230.864864 385.747387 262.860177 396.805071 " stroke="#000000" stroke-width="3.632" stroke-opacity="1" stroke-miterlimit="4"/><path stroke-linecap="round" transform="matrix(0.173121, 0, 0, 0.172745, 4.895711, -10.79207)" fill="none" stroke-linejoin="miter" d="M 217.055886 454.128643 C 218.951236 453.224129 220.846586 452.297002 222.561426 451.075908 " stroke="#000000" stroke-width="2.385" stroke-opacity="1" stroke-miterlimit="4"/><path stroke-linecap="round" transform="matrix(0.173121, 0, 0, 0.172745, 4.895711, -10.79207)" fill="none" stroke-linejoin="miter" d="M 217.055886 455.508027 C 218.251762 456.593443 219.695838 458.583374 221.342987 460.030597 " stroke="#000000" stroke-width="3.456" stroke-opacity="1" stroke-miterlimit="4"/><path stroke-linecap="round" transform="matrix(0.173121, 0, 0, 0.172745, 4.895711, -10.79207)" fill="none" stroke-linejoin="miter" d="M 217.055886 455.508027 L 217.055886 454.128643 " stroke="#000000" stroke-width="4.462" stroke-opacity="1" stroke-miterlimit="4"/><path stroke-linecap="round" transform="matrix(0.173121, 0, 0, 0.172745, 4.895711, -10.79207)" fill="none" stroke-linejoin="miter" d="M 170.12341 503.515105 C 186.346704 487.799175 201.193612 471.40486 217.055886 455.508027 " stroke="#000000" stroke-width="1.739" stroke-opacity="1" stroke-miterlimit="4"/></svg>