<svg xmlns="http://www.w3.org/2000/svg" xmlns:xlink="http://www.w3.org/1999/xlink" width="150" zoomAndPan="magnify" viewBox="0 0 112.5 112.499997" height="150" preserveAspectRatio="xMidYMid meet" version="1.0"><defs><clipPath id="id1"><path d="M 12.015625 77 L 92 77 L 92 92.308594 L 12.015625 92.308594 Z M 12.015625 77 " clip-rule="nonzero"/></clipPath><clipPath id="id2"><path d="M 33 20.308594 L 100 20.308594 L 100 54 L 33 54 Z M 33 20.308594 " clip-rule="nonzero"/></clipPath></defs><path fill="#f79c7f" d="M 32.785156 88.066406 C 32.785156 88.066406 32.097656 84.105469 39.847656 83.960938 C 45.296875 83.859375 44.726562 86.347656 44.195312 87.808594 C 43.324219 90.1875 32.941406 91.691406 32.785156 88.066406 " fill-opacity="1" fill-rule="nonzero"/><path fill="#f9b099" d="M 34.480469 87.984375 C 34.480469 87.984375 33.042969 85.136719 39.855469 84.859375 C 43.996094 84.691406 43.566406 86.675781 43.160156 87.785156 C 42.5 89.597656 34.597656 90.742188 34.480469 87.984375 " fill-opacity="1" fill-rule="nonzero"/><path fill="#f9bda9" d="M 42.023438 63.429688 C 42.023438 63.429688 43.570312 86.191406 62.25 86.191406 C 80.929688 86.191406 93.519531 75.179688 96.433594 64.433594 C 99.347656 53.6875 89.675781 47.453125 88.617188 40.023438 C 87.554688 32.59375 56.421875 25.425781 48.339844 31.796875 C 40.257812 38.164062 46.085938 46.125 44.496094 49.042969 C 42.90625 51.960938 41.457031 59.707031 42.023438 63.429688 " fill-opacity="1" fill-rule="nonzero"/><path fill="#58595b" d="M 48.964844 79.664062 C 48.964844 79.664062 56.371094 83.871094 64.992188 84.164062 C 79.367188 84.648438 91.617188 79.988281 91.023438 80.785156 C 90.03125 82.121094 82.015625 85.03125 76.957031 85.59375 C 71.898438 86.160156 57.699219 84.988281 54.726562 83.273438 C 51.757812 81.558594 48.964844 79.664062 48.964844 79.664062 " fill-opacity="1" fill-rule="nonzero"/><path fill="#8f1622" d="M 57.785156 77.640625 C 57.238281 77.179688 48.867188 64.664062 55.742188 60.21875 C 62.851562 55.625 80.75 58.230469 82.988281 58.722656 C 89.097656 60.058594 88.339844 71.78125 80.949219 77.324219 C 77.804688 79.683594 62.6875 81.753906 57.785156 77.640625 " fill-opacity="1" fill-rule="nonzero"/><path fill="#ed1c24" d="M 66.585938 73.058594 C 66.183594 72.824219 58.75 70.128906 62.863281 67.992188 C 66.976562 65.855469 68.164062 69.023438 70.097656 67.4375 C 72.035156 65.855469 74.960938 67.121094 75.59375 67.992188 C 76.226562 68.863281 72.660156 73.972656 70.609375 74.03125 C 68.558594 74.089844 66.585938 73.058594 66.585938 73.058594 " fill-opacity="1" fill-rule="nonzero"/><path fill="#8dc63f" d="M 69.863281 83.277344 C 68.847656 82.90625 71.289062 79.8125 71.289062 79.8125 C 71.492188 80.464844 72.585938 80.566406 72.585938 80.566406 C 72.585938 80.566406 70.878906 83.644531 69.863281 83.277344 Z M 67.996094 82.839844 C 67.261719 82.402344 67.382812 77.777344 67.382812 77.777344 C 67.875 78.78125 69.617188 78.515625 69.617188 78.515625 C 69.492188 79.207031 68.726562 83.277344 67.996094 82.839844 Z M 65.164062 82.726562 C 64.828125 80.359375 63.726562 79.941406 63.726562 79.941406 C 64.585938 80.316406 64.910156 77.28125 64.910156 77.28125 C 64.910156 77.28125 66.546875 81.121094 66.792969 81.851562 C 67.035156 82.585938 65.332031 83.90625 65.164062 82.726562 Z M 75.023438 75.269531 C 72.097656 75.429688 71.441406 73.703125 72.011719 72.726562 C 72.582031 71.75 72.675781 69.25 67.554688 69.003906 C 62.429688 68.757812 65.835938 72.65625 60.796875 73.0625 C 55.757812 73.46875 57.015625 77.953125 57.015625 77.953125 C 55.996094 81.453125 62.019531 80.558594 63.726562 81.046875 C 65.433594 81.535156 62.425781 87.882812 64.710938 89.914062 C 66.996094 91.941406 72.261719 89.347656 71.855469 85.363281 C 71.449219 81.375 72.503906 82.351562 75.917969 80.417969 C 79.332031 78.484375 77.949219 75.105469 75.023438 75.269531 " fill-opacity="1" fill-rule="nonzero"/><path fill="#6a952f" d="M 71.4375 79.042969 C 71.4375 79.042969 68.714844 82.683594 69.664062 83.3125 C 70.613281 83.941406 72.65625 81.09375 72.65625 81.09375 C 72.65625 81.09375 72.710938 80.695312 72.585938 80.566406 C 72.585938 80.566406 70.761719 83.710938 69.738281 83.199219 C 69.738281 83.199219 69.027344 82.859375 71.289062 79.8125 C 71.289062 79.8125 71.53125 79.382812 71.4375 79.042969 " fill-opacity="1" fill-rule="nonzero"/><path fill="#6a952f" d="M 69.617188 78.128906 C 69.617188 78.128906 68.878906 82.617188 68.144531 82.871094 C 68.144531 82.871094 67.832031 83.050781 67.679688 82.265625 C 67.53125 81.480469 67.664062 82.203125 67.664062 82.203125 C 67.664062 82.203125 67.324219 78.515625 67.390625 78.066406 C 67.390625 78.066406 66.996094 82.789062 67.96875 83.046875 C 68.945312 83.304688 69.230469 81.210938 69.527344 80.324219 C 69.824219 79.4375 69.910156 78.144531 69.910156 78.144531 L 69.617188 78.128906 " fill-opacity="1" fill-rule="nonzero"/><path fill="#d7df23" d="M 65.398438 85.238281 C 65.398438 85.238281 65.253906 84.4375 66.234375 84.496094 C 67.210938 84.554688 67.117188 84.203125 67.445312 83.886719 C 67.773438 83.570312 69.28125 83.6875 69.476562 84.082031 C 69.671875 84.480469 70.410156 84.550781 70.699219 84.667969 C 70.988281 84.78125 71.199219 85.523438 71.160156 85.585938 C 71.121094 85.652344 65.398438 85.238281 65.398438 85.238281 " fill-opacity="1" fill-rule="nonzero"/><path fill="#6a952f" d="M 65.398438 77.1875 C 65.398438 77.1875 67.351562 81.582031 66.816406 82.769531 C 66.28125 83.960938 65.40625 83.523438 65.273438 83.03125 C 65.136719 82.539062 64.554688 80.160156 62.792969 80.144531 L 63.519531 79.660156 C 63.519531 79.660156 64.8125 79.816406 65.355469 82.980469 C 65.355469 82.980469 65.636719 83.542969 66.160156 82.988281 C 66.683594 82.433594 66.691406 81.566406 66.542969 81.191406 C 66.390625 80.820312 65.273438 77.839844 64.734375 77.1875 C 64.363281 76.742188 64.824219 76.453125 64.933594 76.523438 C 65.046875 76.589844 65.242188 76.828125 65.398438 77.1875 " fill-opacity="1" fill-rule="nonzero"/><path fill="#f15a29" d="M 53.164062 82.945312 C 53.164062 82.945312 51.476562 80.023438 53.628906 77.980469 C 55.785156 75.933594 59.226562 77.417969 59.421875 78.722656 C 59.617188 80.03125 59.277344 83.890625 56.382812 83.742188 C 53.488281 83.597656 53.164062 82.945312 53.164062 82.945312 " fill-opacity="1" fill-rule="nonzero"/><path fill="#346702" d="M 57.046875 75.554688 C 57.046875 75.554688 55.683594 82.847656 62.484375 80.925781 C 66.113281 79.898438 63.914062 76.136719 65.871094 76.425781 C 67.828125 76.714844 66.449219 78.566406 69.183594 78.546875 C 71.949219 78.527344 69.359375 80.152344 73.824219 81.03125 C 75.394531 81.339844 78.441406 78.867188 77.882812 77.207031 C 77.429688 75.863281 77.304688 75.222656 75.023438 75.269531 C 72.582031 75.320312 71.722656 73.878906 72.183594 72.632812 C 73.015625 70.378906 70.734375 68.960938 68.375 68.789062 C 66.015625 68.613281 64.460938 69.550781 64.113281 71.105469 C 63.761719 72.664062 61.953125 73.324219 60.570312 73.324219 C 59.191406 73.324219 57.929688 73.285156 57.046875 75.554688 " fill-opacity="1" fill-rule="nonzero"/><path fill="#f7941d" d="M 53.816406 83.179688 C 53.816406 83.179688 52.128906 80.261719 54.28125 78.214844 C 56.4375 76.171875 59.878906 77.65625 60.074219 78.960938 C 60.269531 80.265625 59.929688 84.125 57.035156 83.980469 C 54.140625 83.832031 53.816406 83.179688 53.816406 83.179688 " fill-opacity="1" fill-rule="nonzero"/><path fill="#f15a29" d="M 54.710938 82.125 C 54.710938 82.125 54.058594 79.191406 56.171875 78.867188 C 58.285156 78.542969 58.84375 80.257812 58.402344 81.355469 C 57.960938 82.449219 55.15625 83.386719 54.710938 82.125 " fill-opacity="1" fill-rule="nonzero"/><path fill="#b5441f" d="M 56.855469 85.917969 C 56.855469 85.917969 55.214844 83.078125 57.3125 81.089844 C 59.410156 79.097656 62.757812 80.539062 62.945312 81.8125 C 63.136719 83.082031 62.808594 86.839844 59.988281 86.695312 C 57.175781 86.550781 56.855469 85.917969 56.855469 85.917969 " fill-opacity="1" fill-rule="nonzero"/><path fill="#f7941d" d="M 57.492188 86.148438 C 57.492188 86.148438 55.851562 83.308594 57.949219 81.316406 C 60.046875 79.328125 63.390625 80.769531 63.582031 82.042969 C 63.773438 83.3125 63.441406 87.066406 60.625 86.925781 C 57.808594 86.78125 57.492188 86.148438 57.492188 86.148438 " fill-opacity="1" fill-rule="nonzero"/><path fill="#f15a29" d="M 58.363281 85.117188 C 58.363281 85.117188 57.730469 82.269531 59.785156 81.953125 C 61.84375 81.632812 62.386719 83.304688 61.957031 84.371094 C 61.527344 85.4375 58.796875 86.347656 58.363281 85.117188 " fill-opacity="1" fill-rule="nonzero"/><path fill="#5d8535" d="M 58.128906 73.953125 C 58.128906 73.953125 57.679688 75.335938 58.128906 75.621094 C 58.574219 75.90625 59.875 76.1875 59.914062 77.023438 C 59.957031 77.859375 61.746094 78.144531 62.230469 77.207031 C 62.71875 76.269531 61.460938 74.15625 63.65625 73.953125 C 65.847656 73.746094 65.871094 75.09375 67.769531 75.863281 C 69.667969 76.636719 71.285156 75.53125 71.859375 76.082031 C 72.433594 76.636719 71.453125 77.136719 73.019531 77.722656 C 74.585938 78.304688 76.496094 75.699219 75.359375 75.335938 C 74.222656 74.96875 70.847656 74.765625 70.847656 73.421875 C 70.847656 72.078125 71.089844 70.308594 69.710938 69.425781 C 68.328125 68.539062 64.683594 68.414062 64.402344 69.878906 C 64.117188 71.34375 62.789062 72.785156 61.8125 72.910156 C 60.839844 73.035156 58.738281 72.648438 58.128906 73.953125 " fill-opacity="1" fill-rule="nonzero"/><path fill="#ed1c24" d="M 79.394531 84.800781 C 79.394531 84.800781 70.195312 80.976562 75.277344 73.8125 L 87.46875 80.515625 C 87.46875 80.515625 85.546875 85.695312 79.394531 84.800781 " fill-opacity="1" fill-rule="nonzero"/><path fill="#f14950" d="M 75.609375 73.996094 C 75.609375 73.996094 73.578125 77.503906 75.074219 80.140625 C 76.984375 83.519531 80.132812 84.429688 80.132812 84.429688 C 80.132812 84.429688 83.578125 85.371094 87.160156 80.34375 L 75.609375 73.996094 " fill-opacity="1" fill-rule="nonzero"/><path fill="#b2151b" d="M 76.578125 75.886719 C 76.578125 75.886719 75.207031 80.320312 79.382812 82.285156 C 83.121094 84.046875 85.03125 80.488281 84.097656 79.796875 C 83.160156 79.101562 83.730469 80.136719 82.1875 80.515625 C 80.640625 80.894531 77.675781 79.0625 78.652344 78.167969 C 79.625 77.273438 77.390625 75.238281 76.578125 75.886719 " fill-opacity="1" fill-rule="nonzero"/><g clip-path="url(#id1)"><path fill="#939598" d="M 12.324219 86.824219 C 12.019531 85.359375 12.96875 83.925781 14.433594 83.636719 L 42.394531 78.113281 C 44.632812 77.675781 46.949219 78.183594 48.792969 79.519531 C 49.863281 80.296875 51.519531 81.246094 54.070312 82.335938 C 68.542969 88.503906 88.671875 82.601562 91.023438 80.785156 C 91.023438 80.785156 85.089844 92.308594 68.277344 92.269531 C 57.035156 92.242188 54.980469 86.148438 47.191406 83.101562 C 42.878906 81.410156 22.960938 87.449219 15.46875 88.917969 C 14.027344 89.203125 12.621094 88.269531 12.324219 86.824219 " fill-opacity="1" fill-rule="nonzero"/></g><path fill="#bcbec0" d="M 57.160156 86.511719 C 57.160156 86.511719 62.933594 91.535156 70.128906 90.84375 C 77.324219 90.152344 86.734375 85.273438 87.492188 83.859375 C 88.246094 82.445312 80.066406 87.390625 70.289062 87.207031 C 63.148438 87.070312 53.039062 83.921875 57.160156 86.511719 " fill-opacity="1" fill-rule="nonzero"/><g clip-path="url(#id2)"><path fill="#603913" d="M 39.863281 46.125 C 39.863281 46.125 31.144531 38.871094 33.992188 30.953125 C 36.839844 23.035156 52.992188 22.367188 60.265625 24.902344 C 67.542969 27.4375 59.386719 21.257812 59.113281 20.785156 C 58.84375 20.308594 75.289062 21.101562 80.035156 27.753906 C 84.78125 34.40625 90.042969 39.535156 90.113281 34.5625 C 90.179688 29.882812 93.800781 31.875 93.523438 35.042969 C 93.246094 38.210938 91.480469 39.144531 93.570312 40.167969 C 94.75 40.746094 96.148438 40.554688 96.976562 40.78125 C 98.046875 41.074219 99.929688 42.113281 99.257812 42.988281 C 97.667969 45.066406 94.648438 41.679688 93.605469 42.191406 C 92.878906 42.542969 96.976562 48.636719 94.832031 53.609375 C 94.832031 53.609375 84.78125 48.816406 85.253906 43.75 C 85.730469 38.679688 75.132812 33.613281 66.277344 34.40625 C 57.417969 35.195312 48.632812 40.589844 47.675781 45.917969 C 46.53125 52.277344 43.648438 50.683594 43.648438 50.683594 C 43.648438 50.683594 41.726562 47.527344 39.863281 46.125 " fill-opacity="1" fill-rule="nonzero"/></g><path fill="#603913" d="M 52.316406 50.832031 C 52.316406 50.832031 52.609375 47.503906 56.050781 46.4375 C 59.492188 45.367188 60.738281 49.109375 60.738281 49.109375 L 61.628906 48.871094 C 61.628906 48.871094 59.253906 43.761719 55.636719 45.308594 C 52.019531 46.851562 51.304688 51.367188 51.304688 51.367188 L 52.316406 50.832031 " fill-opacity="1" fill-rule="nonzero"/><path fill="#603913" d="M 72.039062 49.390625 C 72.039062 49.390625 73.011719 43.949219 77.882812 44.660156 C 82.757812 45.375 80.667969 50.128906 80.667969 50.128906 L 79.6875 49.949219 C 79.6875 49.949219 80.621094 45.730469 77.46875 45.730469 C 74.027344 45.730469 72.964844 49.363281 72.964844 49.363281 L 72.039062 49.390625 " fill-opacity="1" fill-rule="nonzero"/><path fill="#f58d86" d="M 62.515625 51.664062 C 62.515625 51.664062 63.226562 47.03125 65.957031 46.972656 C 68.683594 46.910156 69.8125 49.820312 69.871094 51.367188 L 62.515625 51.664062 " fill-opacity="1" fill-rule="nonzero"/><path fill="#e6e7e8" d="M 57.882812 59.230469 C 57.882812 59.230469 56.765625 61.167969 62.035156 61.328125 C 67.304688 61.484375 74.972656 60.378906 79.796875 60.929688 C 84.621094 61.484375 82.988281 58.722656 82.988281 58.722656 C 82.988281 58.722656 68.867188 53.410156 57.882812 59.230469 " fill-opacity="1" fill-rule="nonzero"/><path fill="#f9bda9" d="M 91.617188 52.757812 C 91.617188 52.757812 94.582031 48.484375 97.546875 50.738281 C 100.511719 52.996094 99.386719 54.429688 95.976562 56.503906 C 92.566406 58.578125 91.617188 52.757812 91.617188 52.757812 " fill-opacity="1" fill-rule="nonzero"/><path fill="#f9bda9" d="M 42.996094 58.238281 C 42.996094 58.238281 36.117188 57.898438 36.589844 53.605469 C 37.066406 49.316406 40.863281 49.082031 43.648438 50.683594 C 46.433594 52.285156 42.996094 58.238281 42.996094 58.238281 " fill-opacity="1" fill-rule="nonzero"/><path fill="#ed1c24" d="M 90.113281 54.296875 C 90.113281 55.214844 88.839844 55.957031 87.265625 55.957031 C 85.695312 55.957031 84.421875 55.214844 84.421875 54.296875 C 84.421875 53.378906 85.695312 52.632812 87.265625 52.632812 C 88.839844 52.632812 90.113281 53.378906 90.113281 54.296875 " fill-opacity="1" fill-rule="nonzero"/><path fill="#ed1c24" d="M 52.003906 56.503906 C 52.003906 57.421875 50.730469 58.167969 49.15625 58.167969 C 47.585938 58.167969 46.3125 57.421875 46.3125 56.503906 C 46.3125 55.585938 47.585938 54.839844 49.15625 54.839844 C 50.730469 54.839844 52.003906 55.585938 52.003906 56.503906 " fill-opacity="1" fill-rule="nonzero"/><path fill="#6d6e71" d="M 18.90625 82.742188 C 18.90625 82.742188 18.640625 84.34375 19.269531 85.648438 C 19.894531 86.949219 21.011719 87.65625 21.011719 87.65625 C 21.011719 87.65625 37.675781 83.058594 44.738281 82.785156 C 44.738281 82.785156 46.9375 82.214844 52.375 85.941406 C 52.375 85.941406 57.359375 89.886719 60.542969 90.972656 C 60.542969 90.972656 52.226562 84.492188 49.71875 82.699219 C 47.214844 80.910156 44.738281 81.574219 44.738281 81.574219 C 44.738281 81.574219 45.527344 79.035156 45.351562 78.304688 C 45.351562 78.304688 43.359375 77.671875 35.703125 79.351562 C 28.449219 80.941406 18.90625 82.742188 18.90625 82.742188 " fill-opacity="1" fill-rule="nonzero"/><path fill="#f2a28c" d="M 35.859375 73.605469 C 35.859375 73.605469 39.746094 69.542969 42.859375 72.085938 C 45.972656 74.628906 44.980469 81.367188 43.410156 83.554688 C 41.835938 85.746094 38.476562 84.925781 38.195312 83.402344 C 37.910156 81.875 37.636719 74.253906 35.859375 73.605469 " fill-opacity="1" fill-rule="nonzero"/><path fill="#f6a995" d="M 19.878906 81.617188 C 19.878906 81.617188 19.121094 78.664062 22.277344 77.824219 C 25.4375 76.984375 26.445312 85.953125 25.5625 87.183594 C 24.679688 88.414062 20.761719 89.597656 19.878906 81.617188 " fill-opacity="1" fill-rule="nonzero"/><path fill="#f4afa2" d="M 20.109375 81.671875 C 20.109375 81.671875 19.433594 79.066406 21.5625 78.183594 C 23.691406 77.304688 24.859375 85.277344 24.316406 86.414062 C 23.773438 87.550781 21.136719 88.769531 20.109375 81.671875 " fill-opacity="1" fill-rule="nonzero"/><path fill="#f9bda9" d="M 23.976562 77.046875 C 23.976562 77.046875 24.085938 73.984375 28.011719 73.585938 C 30.839844 73.300781 32.835938 84.332031 31.304688 85.640625 C 29.777344 86.953125 26.695312 87.953125 26.148438 85.988281 C 25.601562 84.023438 23.761719 78.46875 23.976562 77.046875 " fill-opacity="1" fill-rule="nonzero"/><path fill="#f9b29b" d="M 30.40625 76.378906 C 30.40625 76.378906 29.15625 72.734375 32.359375 72.085938 C 36.496094 71.25 37.53125 74.558594 37.660156 77.738281 C 37.789062 80.914062 38.386719 84.582031 36.003906 85.300781 C 34.425781 85.773438 32.128906 85.707031 31.65625 82.71875 C 31.140625 79.441406 30.40625 76.378906 30.40625 76.378906 " fill-opacity="1" fill-rule="nonzero"/><path fill="#f7bbaa" d="M 32.082031 72.769531 C 32.082031 72.769531 31.015625 73.375 31.574219 75.371094 C 32.128906 77.371094 33.429688 83.972656 35.238281 84.085938 C 37.046875 84.203125 37.976562 80.734375 37.328125 77.078125 C 36.675781 73.421875 35.425781 70.957031 32.082031 72.769531 " fill-opacity="1" fill-rule="nonzero"/><path fill="#f7b7a3" d="M 37.855469 73.5625 C 37.855469 73.5625 39.195312 71.25 41.1875 71.621094 C 43.289062 72.011719 44.566406 73.332031 44.519531 77.140625 C 44.472656 80.949219 43.460938 83.207031 42.476562 83.851562 C 41.980469 84.175781 39.65625 84.710938 39.554688 81.636719 C 39.457031 78.5625 38.398438 74.023438 37.855469 73.5625 " fill-opacity="1" fill-rule="nonzero"/><path fill="#f7c7ba" d="M 25.816406 74.386719 C 25.816406 74.386719 24.519531 74.847656 25.308594 77.078125 C 26.097656 79.3125 27.117188 84.914062 28.230469 84.996094 C 29.34375 85.074219 31.34375 84.386719 30.902344 81.988281 C 30.457031 79.589844 29.484375 73.96875 28.277344 73.921875 C 27.070312 73.875 26.269531 74.027344 25.816406 74.386719 " fill-opacity="1" fill-rule="nonzero"/></svg>