<svg xmlns="http://www.w3.org/2000/svg" xmlns:xlink="http://www.w3.org/1999/xlink" width="150" zoomAndPan="magnify" viewBox="0 0 112.5 112.499997" height="150" preserveAspectRatio="xMidYMid meet" version="1.0"><defs><clipPath id="id1"><path d="M 8.828125 36 L 94 36 L 94 70 L 8.828125 70 Z M 8.828125 36 " clip-rule="nonzero"/></clipPath><clipPath id="id2"><path d="M 17 67 L 98.828125 67 L 98.828125 79 L 17 79 Z M 17 67 " clip-rule="nonzero"/></clipPath><clipPath id="id3"><path d="M 53.828125 74 L 95.828125 74 L 95.828125 85.527344 L 53.828125 85.527344 Z M 53.828125 74 " clip-rule="nonzero"/></clipPath><clipPath id="id4"><path d="M 69 43.527344 L 94 43.527344 L 94 65 L 69 65 Z M 69 43.527344 " clip-rule="nonzero"/></clipPath></defs><path fill="#db315e" d="M 61.953125 31.164062 C 61.953125 31.164062 64.367188 27.136719 74.289062 29.96875 L 82.273438 38.921875 C 82.273438 38.921875 72.003906 31.769531 61.953125 31.164062 " fill-opacity="1" fill-rule="nonzero"/><path fill="#fcfafc" d="M 50.667969 34.417969 C 50.667969 34.417969 58.3125 27.214844 71.175781 31.511719 C 71.175781 31.511719 81.867188 35.925781 83.070312 38.417969 C 84.273438 40.90625 83.699219 45.1875 83.699219 45.1875 C 83.699219 45.1875 55.9375 34.011719 50.667969 34.417969 " fill-opacity="1" fill-rule="nonzero"/><path fill="#d6d7cc" d="M 87.800781 52.496094 C 87.800781 52.496094 92.550781 44.832031 68.136719 37.539062 C 43.726562 30.25 45.167969 34.148438 44.652344 37.535156 C 44.652344 37.535156 77.449219 40.453125 87.800781 52.496094 " fill-opacity="1" fill-rule="nonzero"/><path fill="#a4add5" d="M 34.054688 40.960938 C 34.054688 40.960938 35.597656 29.921875 64.195312 39.539062 C 92.789062 49.160156 91.902344 47.433594 92.378906 55.601562 L 34.054688 40.960938 " fill-opacity="1" fill-rule="nonzero"/><path fill="#eca250" d="M 63.488281 46.519531 C 63.488281 46.519531 64.304688 41.65625 75.371094 46.4375 C 86.4375 51.214844 81.546875 52.140625 81.546875 52.140625 L 63.488281 46.519531 " fill-opacity="1" fill-rule="nonzero"/><path fill="#eca250" d="M 43.003906 41.707031 C 43.003906 41.707031 43.796875 36.535156 54.058594 40 L 55.394531 44.398438 L 43.003906 41.707031 " fill-opacity="1" fill-rule="nonzero"/><g clip-path="url(#id1)"><path fill="#fefcf6" d="M 8.855469 36.433594 C 8.855469 36.433594 19.652344 55.703125 23.957031 68.90625 C 23.957031 68.90625 69.457031 70.574219 92.546875 68.210938 C 92.546875 68.210938 94.230469 57.625 92.933594 54.820312 C 92.933594 54.820312 31.089844 34.023438 8.855469 36.433594 " fill-opacity="1" fill-rule="nonzero"/></g><path fill="#5b7383" d="M 55.679688 55.570312 C 55.546875 56.453125 54.722656 57.058594 53.84375 56.925781 C 52.964844 56.789062 52.363281 55.960938 52.496094 55.082031 C 52.632812 54.195312 53.457031 53.589844 54.332031 53.726562 C 55.210938 53.863281 55.816406 54.6875 55.679688 55.570312 " fill-opacity="1" fill-rule="nonzero"/><path fill="#5b7383" d="M 49.234375 54.433594 C 49.097656 55.316406 48.277344 55.921875 47.398438 55.785156 C 46.519531 55.652344 45.917969 54.824219 46.050781 53.941406 C 46.1875 53.058594 47.007812 52.453125 47.886719 52.589844 C 48.765625 52.722656 49.367188 53.550781 49.234375 54.433594 " fill-opacity="1" fill-rule="nonzero"/><path fill="#5b7383" d="M 65.679688 56.785156 C 65.597656 57.304688 65.113281 57.660156 64.59375 57.582031 C 64.078125 57.503906 63.722656 57.015625 63.804688 56.492188 C 63.882812 55.976562 64.367188 55.617188 64.882812 55.699219 C 65.402344 55.777344 65.757812 56.265625 65.679688 56.785156 " fill-opacity="1" fill-rule="nonzero"/><path fill="#5b7383" d="M 62.535156 43.023438 C 62.457031 43.542969 61.972656 43.898438 61.453125 43.820312 C 60.9375 43.738281 60.582031 43.253906 60.660156 42.730469 C 60.738281 42.210938 61.226562 41.855469 61.742188 41.933594 C 62.261719 42.015625 62.613281 42.5 62.535156 43.023438 " fill-opacity="1" fill-rule="nonzero"/><path fill="#5b7383" d="M 60.761719 56.25 C 60.660156 56.902344 60.050781 57.351562 59.398438 57.253906 C 58.746094 57.152344 58.300781 56.542969 58.402344 55.886719 C 58.503906 55.230469 59.109375 54.785156 59.761719 54.882812 C 60.414062 54.984375 60.859375 55.597656 60.761719 56.25 " fill-opacity="1" fill-rule="nonzero"/><path fill="#5b7383" d="M 69.683594 57.292969 C 69.613281 57.742188 69.195312 58.050781 68.746094 57.980469 C 68.300781 57.910156 67.996094 57.492188 68.0625 57.042969 C 68.132812 56.59375 68.550781 56.285156 68.996094 56.355469 C 69.445312 56.425781 69.753906 56.84375 69.683594 57.292969 " fill-opacity="1" fill-rule="nonzero"/><path fill="#5b7383" d="M 86.300781 50.253906 C 86.230469 50.703125 85.8125 51.011719 85.363281 50.941406 C 84.917969 50.871094 84.609375 50.453125 84.679688 50.003906 C 84.746094 49.554688 85.164062 49.246094 85.613281 49.3125 C 86.058594 49.382812 86.367188 49.804688 86.300781 50.253906 " fill-opacity="1" fill-rule="nonzero"/><path fill="#5b7383" d="M 73.507812 57.675781 C 73.453125 58.027344 73.125 58.265625 72.777344 58.214844 C 72.425781 58.160156 72.1875 57.832031 72.242188 57.480469 C 72.296875 57.128906 72.621094 56.886719 72.972656 56.941406 C 73.320312 56.996094 73.558594 57.324219 73.507812 57.675781 " fill-opacity="1" fill-rule="nonzero"/><path fill="#5b7383" d="M 76.890625 58.125 C 76.84375 58.4375 76.550781 58.652344 76.242188 58.605469 C 75.933594 58.554688 75.71875 58.265625 75.765625 57.953125 C 75.8125 57.640625 76.105469 57.429688 76.414062 57.476562 C 76.726562 57.523438 76.9375 57.8125 76.890625 58.125 " fill-opacity="1" fill-rule="nonzero"/><path fill="#5b7383" d="M 78.800781 58.347656 C 78.757812 58.621094 78.941406 58.878906 79.214844 58.917969 C 79.488281 58.960938 79.742188 58.773438 79.78125 58.5 C 79.824219 58.226562 79.636719 57.972656 79.367188 57.929688 C 79.09375 57.890625 78.839844 58.074219 78.800781 58.347656 " fill-opacity="1" fill-rule="nonzero"/><path fill="#5b7383" d="M 82.3125 58.890625 C 82.269531 59.164062 82.457031 59.421875 82.726562 59.460938 C 83 59.503906 83.253906 59.316406 83.292969 59.042969 C 83.339844 58.769531 83.152344 58.515625 82.878906 58.472656 C 82.605469 58.429688 82.351562 58.617188 82.3125 58.890625 " fill-opacity="1" fill-rule="nonzero"/><path fill="#5e5a4f" d="M 71.191406 36.707031 C 71.191406 36.707031 71.214844 33.664062 74.75 35.464844 C 78.28125 37.265625 76.78125 39.339844 76.78125 39.339844 L 71.191406 36.707031 " fill-opacity="1" fill-rule="nonzero"/><path fill="#5e5a4f" d="M 67.632812 32.121094 C 67.632812 32.121094 59.457031 30.085938 55.875 32.8125 L 65.359375 34.277344 C 65.359375 34.277344 66.863281 33.492188 67.632812 32.121094 " fill-opacity="1" fill-rule="nonzero"/><path fill="#5b7383" d="M 58.933594 42.050781 C 58.835938 42.691406 58.238281 43.132812 57.597656 43.035156 C 56.957031 42.9375 56.519531 42.335938 56.617188 41.691406 C 56.714844 41.046875 57.316406 40.609375 57.953125 40.707031 C 58.59375 40.804688 59.03125 41.40625 58.933594 42.050781 " fill-opacity="1" fill-rule="nonzero"/><path fill="#5b7383" d="M 12.765625 41.960938 L 12.035156 42.335938 L 12.992188 44.183594 L 13.894531 43.773438 C 13.894531 43.773438 81.1875 54.113281 93.421875 58.898438 C 93.421875 58.898438 93.480469 58.125 93.40625 57.671875 C 93.40625 57.671875 20.878906 40.757812 12.765625 41.960938 " fill-opacity="1" fill-rule="nonzero"/><path fill="#a9afb1" d="M 9.75 37.375 C 9.75 37.375 15.742188 45.144531 20.742188 54.527344 C 22.746094 58.277344 26.394531 66.0625 25.871094 67.378906 C 25.261719 68.929688 24.332031 66.679688 21.140625 59.230469 C 19.265625 54.84375 13.90625 43.722656 9.75 37.375 " fill-opacity="1" fill-rule="nonzero"/><path fill="#548fd3" d="M 97.828125 68.773438 C 97.828125 68.773438 36.269531 81.601562 20.824219 68.625 C 12.539062 61.664062 20.582031 63.621094 29.707031 67.449219 C 38.832031 71.28125 37.265625 68.328125 40.1875 66.535156 C 43.117188 64.746094 49.257812 67.460938 51.140625 68.625 C 53.023438 69.789062 55.203125 66.125 59.605469 67.007812 C 64.070312 67.894531 65.425781 69.738281 69.695312 68.625 C 73.964844 67.511719 73.042969 64.722656 78.792969 65.871094 C 84.542969 67.023438 87.46875 67.816406 89.273438 65.871094 C 91.070312 63.929688 97.828125 68.773438 97.828125 68.773438 " fill-opacity="1" fill-rule="nonzero"/><path fill="#90c8d0" d="M 97.828125 68.773438 C 97.828125 68.773438 36.269531 85.636719 18.800781 71.9375 C 10.285156 65.257812 20.582031 65.519531 29.707031 69.347656 C 38.832031 73.179688 37.265625 70.222656 40.1875 68.429688 C 43.117188 66.644531 49.257812 69.359375 51.140625 70.523438 C 53.023438 71.6875 54.089844 67.84375 59.605469 68.902344 C 64.074219 69.761719 65.425781 71.640625 69.695312 70.523438 C 73.964844 69.410156 73.042969 66.621094 78.792969 67.769531 C 84.542969 68.921875 87.46875 69.714844 89.273438 67.769531 C 91.070312 65.828125 97.828125 68.773438 97.828125 68.773438 " fill-opacity="1" fill-rule="nonzero"/><g clip-path="url(#id2)"><path fill="#548fd3" d="M 98.808594 68.773438 C 98.808594 68.773438 80.1875 74.914062 59.148438 77.300781 C 47.65625 78.605469 26.265625 80.070312 22.175781 75.957031 C 10.867188 64.589844 23.585938 68.90625 29.574219 71.472656 C 32.757812 72.839844 36.960938 73.296875 39.785156 71.34375 C 42.605469 69.390625 48.890625 71.761719 50.832031 72.816406 C 52.777344 73.875 53.628906 69.976562 59.195312 70.726562 C 63.707031 71.332031 65.160156 73.128906 69.359375 71.777344 C 73.558594 70.425781 72.484375 67.691406 78.292969 68.519531 C 84.097656 69.34375 88.335938 70.195312 90.027344 68.152344 C 91.71875 66.113281 98.808594 68.773438 98.808594 68.773438 " fill-opacity="1" fill-rule="nonzero"/></g><g clip-path="url(#id3)"><path fill="#6da7cc" d="M 95.691406 80.132812 C 95.554688 80.707031 94.351562 80.980469 92.472656 81.042969 C 93.097656 81.464844 93.398438 81.847656 93.335938 82.152344 C 93.160156 82.945312 90.726562 83.085938 87.039062 83.039062 C 87.269531 83.292969 87.378906 83.542969 87.339844 83.773438 C 87.085938 85.242188 81.679688 85.53125 75.199219 85.523438 C 68.730469 85.476562 63.3125 85.140625 63.074219 83.671875 C 63.035156 83.429688 63.148438 83.191406 63.382812 82.933594 C 59.699219 82.949219 57.261719 82.785156 57.097656 81.984375 C 57.039062 81.71875 57.261719 81.402344 57.730469 81.058594 C 55.542969 81.019531 54.128906 80.761719 53.980469 80.132812 C 53.855469 79.628906 54.566406 78.941406 55.921875 78.238281 C 56.296875 78.039062 56.714844 77.847656 57.175781 77.65625 C 59.847656 76.511719 64.050781 75.457031 68.832031 75.148438 C 72.835938 74.882812 76.835938 74.882812 80.839844 75.148438 C 86.816406 75.53125 91.859375 77.097656 94.207031 78.492188 C 94.214844 78.492188 94.214844 78.496094 94.214844 78.503906 C 95.261719 79.109375 95.800781 79.691406 95.691406 80.132812 Z M 95.691406 80.132812 " fill-opacity="1" fill-rule="nonzero"/></g><path fill="#fddea0" d="M 58.804688 77.550781 C 58.796875 77.648438 58.796875 77.75 58.816406 77.847656 C 58.917969 78.445312 59.476562 78.785156 59.972656 78.996094 C 61.691406 79.714844 63.519531 79.960938 65.328125 80.074219 C 65.847656 80.109375 66.371094 80.132812 66.894531 80.152344 C 68.023438 80.195312 69.144531 80.238281 70.277344 80.355469 C 71.089844 80.4375 71.898438 80.578125 72.691406 80.773438 C 73.273438 80.921875 73.839844 81.308594 74.433594 81.386719 C 76.050781 81.597656 77.867188 81.378906 79.464844 81.195312 C 81.136719 80.984375 82.789062 80.605469 84.351562 79.886719 C 84.988281 79.597656 85.605469 79.257812 86.273438 79.101562 C 87.335938 78.835938 88.441406 79.082031 89.519531 78.882812 C 90.1875 78.765625 90.945312 78.3125 90.980469 77.539062 L 90.980469 77.472656 C 90.972656 76.980469 90.648438 76.558594 90.328125 76.226562 C 88.945312 74.824219 87.117188 74.160156 85.320312 73.644531 C 84.78125 73.484375 84.230469 73.335938 83.683594 73.207031 C 79.980469 72.25 76.164062 71.777344 72.371094 72.050781 C 68.023438 72.347656 63.691406 73.636719 59.910156 76.113281 C 59.421875 76.4375 58.867188 76.9375 58.804688 77.550781 Z M 58.804688 77.550781 " fill-opacity="1" fill-rule="nonzero"/><path fill="#d39046" d="M 80.792969 75.074219 C 80.792969 75.074219 83.867188 63.289062 79.847656 54.359375 L 82.449219 53.347656 C 82.449219 53.347656 85.996094 60.015625 85.523438 75.730469 C 85.523438 75.730469 83.847656 75.292969 80.792969 75.074219 Z M 80.792969 75.074219 " fill-opacity="1" fill-rule="nonzero"/><g clip-path="url(#id4)"><path fill="#02b18a" d="M 82.890625 56.703125 C 82.890625 56.703125 75.957031 60.394531 75.496094 63.976562 C 75.476562 64.144531 75.382812 64.25 75.21875 64.285156 C 75.050781 64.316406 74.925781 64.261719 74.839844 64.113281 C 73.726562 62.183594 72.257812 57.871094 79.535156 55.628906 C 79.671875 55.589844 79.75 55.5 79.78125 55.359375 C 79.808594 55.222656 79.765625 55.105469 79.65625 55.015625 C 78.230469 53.851562 74.027344 50.738281 70.210938 51.023438 C 70.050781 51.039062 69.9375 50.972656 69.863281 50.828125 C 69.792969 50.683594 69.8125 50.550781 69.921875 50.433594 C 71.257812 48.980469 74.730469 46.144531 78.957031 50.03125 C 79.09375 50.160156 79.238281 50.167969 79.390625 50.066406 C 79.546875 49.960938 79.589844 49.820312 79.523438 49.644531 C 78.886719 48.011719 77.660156 45.546875 75.839844 44.824219 C 75.679688 44.765625 75.605469 44.652344 75.609375 44.484375 C 75.613281 44.316406 75.695312 44.207031 75.855469 44.15625 C 77.660156 43.621094 81.238281 43.527344 83.167969 50.082031 C 83.183594 50.140625 83.214844 50.191406 83.257812 50.238281 C 83.304688 50.28125 83.355469 50.308594 83.414062 50.324219 C 83.476562 50.339844 83.535156 50.339844 83.59375 50.324219 C 83.652344 50.308594 83.707031 50.277344 83.75 50.234375 C 85.148438 48.851562 89.808594 44.988281 93.671875 50.429688 C 93.753906 50.550781 93.761719 50.675781 93.691406 50.804688 C 93.617188 50.933594 93.507812 50.996094 93.363281 50.988281 C 91.921875 50.910156 88.492188 51.085938 84.632812 53.785156 C 84.488281 53.886719 84.445312 54.019531 84.5 54.1875 C 84.554688 54.355469 84.671875 54.4375 84.84375 54.429688 C 87.464844 54.335938 93.339844 54.832031 91.664062 61.421875 C 91.632812 61.539062 91.5625 61.621094 91.445312 61.664062 C 91.332031 61.707031 91.226562 61.691406 91.125 61.621094 C 89.570312 60.539062 85.875 56.285156 82.890625 56.703125 " fill-opacity="1" fill-rule="nonzero"/></g></svg>