<svg xmlns="http://www.w3.org/2000/svg" xmlns:xlink="http://www.w3.org/1999/xlink" width="100" zoomAndPan="magnify" viewBox="0 0 75 74.999997" height="100" preserveAspectRatio="xMidYMid meet" version="1.0"><defs><clipPath id="id1"><path d="M 13.542969 6.25 L 61.484375 6.25 L 61.484375 68.5 L 13.542969 68.5 Z M 13.542969 6.25 " clip-rule="nonzero"/></clipPath><clipPath id="id2"><path d="M 13.515625 6.25 L 57 6.25 L 57 64 L 13.515625 64 Z M 13.515625 6.25 " clip-rule="nonzero"/></clipPath><clipPath id="id3"><path d="M 24 47 L 33 47 L 33 68.5 L 24 68.5 Z M 24 47 " clip-rule="nonzero"/></clipPath><clipPath id="id4"><path d="M 43.59375 6.25 L 61.484375 6.25 L 61.484375 68.5 L 43.59375 68.5 Z M 43.59375 6.25 " clip-rule="nonzero"/></clipPath></defs><g clip-path="url(#id1)"><path fill="#412c1e" d="M 39.953125 20.914062 L 44.738281 42.046875 L 35.167969 42.046875 L 39.953125 20.914062 M 32.804688 52.492188 L 47.101562 52.492188 L 45.847656 63.640625 L 50.726562 68.5 L 61.484375 68.5 L 48.488281 11.105469 L 43.613281 6.25 L 31.417969 11.105469 L 13.542969 63.640625 L 18.417969 68.5 L 29.175781 68.5 L 32.804688 52.492188 " fill-opacity="1" fill-rule="nonzero"/></g><g clip-path="url(#id2)"><path fill="#f6f2d9" d="M 35.074219 16.058594 L 39.859375 37.191406 L 30.289062 37.191406 L 35.074219 16.058594 M 27.921875 47.636719 L 42.222656 47.636719 L 45.847656 63.640625 L 56.601562 63.640625 L 43.613281 6.25 L 26.539062 6.25 L 13.542969 63.640625 L 24.300781 63.640625 L 27.921875 47.636719 " fill-opacity="1" fill-rule="nonzero"/></g><path fill="#cac2bb" d="M 28.339844 38.746094 L 41.808594 38.746094 L 36.226562 14.355469 L 33.980469 14.355469 L 28.339844 38.746094 M 47.097656 62.089844 L 43.46875 46.082031 L 26.675781 46.082031 L 23.054688 62.089844 L 15.492188 62.089844 L 27.785156 7.800781 L 42.363281 7.800781 L 54.65625 62.089844 L 47.097656 62.089844 " fill-opacity="1" fill-rule="nonzero"/><g clip-path="url(#id3)"><path fill="#bf673f" d="M 24.300781 63.640625 L 29.175781 68.5 L 32.804688 52.492188 L 27.921875 47.636719 L 24.300781 63.640625 " fill-opacity="1" fill-rule="nonzero"/></g><g clip-path="url(#id4)"><path fill="#bf673f" d="M 56.601562 63.640625 L 61.484375 68.5 L 48.488281 11.105469 L 43.613281 6.25 L 56.601562 63.640625 " fill-opacity="1" fill-rule="nonzero"/></g><path fill="#bf673f" d="M 35.074219 16.058594 L 38.113281 29.453125 L 36.316406 37.148438 L 30.289062 37.148438 L 35.074219 16.058594 " fill-opacity="1" fill-rule="nonzero"/><path fill="#aaa498" d="M 18.382812 62.089844 L 15.492188 62.089844 L 27.785156 7.800781 L 42.363281 7.800781 L 42.929688 10.296875 L 30.113281 10.296875 L 18.382812 62.089844 " fill-opacity="1" fill-rule="nonzero"/><path fill="#aaa498" d="M 44.136719 41.238281 L 30.667969 41.238281 L 29.371094 39.941406 L 41.808594 38.746094 L 37.167969 15.140625 L 38.28125 15.90625 L 44.136719 41.238281 " fill-opacity="1" fill-rule="nonzero"/><path fill="#c3b89f" d="M 48.859375 62.089844 L 47.097656 62.089844 L 44.503906 47.28125 L 45.800781 48.582031 L 48.859375 62.089844 " fill-opacity="1" fill-rule="nonzero"/><path fill="#412c1e" d="M 37.167969 15.140625 L 36.226562 14.355469 L 41.808594 38.746094 L 28.3125 38.746094 L 29.371094 39.941406 L 42.839844 39.941406 L 37.167969 15.140625 " fill-opacity="1" fill-rule="nonzero"/><path fill="#412c1e" d="M 44.503906 47.28125 L 43.46875 46.082031 L 47.097656 62.089844 L 47.855469 62.089844 L 44.503906 47.28125 " fill-opacity="1" fill-rule="nonzero"/><path fill="#412c1e" d="M 28.820312 9 L 42.636719 9 L 42.363281 7.800781 L 27.785156 7.800781 L 15.492188 62.089844 L 16.796875 62.089844 L 28.820312 9 " fill-opacity="1" fill-rule="nonzero"/></svg>