<svg xmlns="http://www.w3.org/2000/svg" xmlns:xlink="http://www.w3.org/1999/xlink" width="100" zoomAndPan="magnify" viewBox="0 0 75 74.999997" height="100" preserveAspectRatio="xMidYMid meet" version="1.0"><defs><clipPath id="id1"><path d="M 16.1875 7 L 58 7 L 58 67 L 16.1875 67 Z M 16.1875 7 " clip-rule="nonzero"/></clipPath><clipPath id="id2"><path d="M 16.1875 6.488281 L 58.9375 6.488281 L 58.9375 68.738281 L 16.1875 68.738281 Z M 16.1875 6.488281 " clip-rule="nonzero"/></clipPath></defs><g clip-path="url(#id1)"><path fill="#ec7342" d="M 19.382812 66.171875 L 16.695312 66.171875 C 16.359375 66.011719 16.214844 65.835938 16.226562 65.660156 C 16.480469 63.230469 16.589844 60.730469 16.695312 58.324219 L 16.738281 57.332031 C 16.886719 54.144531 16.992188 51.285156 17.074219 48.597656 C 17.152344 46.015625 17.207031 43.195312 17.246094 39.957031 C 17.273438 37.296875 17.289062 34.488281 17.300781 30.847656 C 17.300781 29.101562 17.300781 27.3125 17.300781 25.582031 L 17.300781 25.246094 C 17.300781 24.25 17.300781 23.269531 17.300781 22.273438 C 17.300781 21.710938 17.300781 21.132812 17.300781 20.570312 C 17.300781 18.246094 17.300781 15.851562 17.328125 13.488281 L 17.328125 13.179688 C 17.355469 12.535156 17.367188 11.863281 17.394531 11.203125 L 17.410156 10.949219 C 17.421875 10.679688 17.433594 10.382812 17.449219 10.101562 C 17.449219 10.023438 17.460938 9.941406 17.460938 9.847656 C 17.476562 9.46875 17.488281 8.988281 17.71875 8.730469 C 18 8.503906 18.335938 8.34375 18.683594 8.246094 C 19.261719 8.074219 19.851562 7.953125 20.457031 7.859375 C 21.960938 7.617188 23.585938 7.507812 25.425781 7.507812 C 25.949219 7.507812 26.511719 7.523438 27.101562 7.535156 C 28.621094 7.589844 30.242188 7.683594 31.816406 8.03125 L 31.882812 8.046875 C 32.941406 8.273438 33.546875 8.542969 33.679688 8.851562 C 33.722656 8.960938 33.722656 9.054688 33.652344 9.160156 C 33.601562 9.390625 33.585938 9.644531 33.585938 9.886719 L 33.585938 9.925781 C 33.585938 9.996094 33.585938 10.046875 33.574219 10.101562 C 33.558594 10.464844 33.535156 10.828125 33.519531 11.191406 C 33.492188 11.875 33.480469 12.574219 33.464844 13.246094 L 33.464844 13.476562 C 33.453125 14.765625 33.4375 16.082031 33.4375 17.359375 L 33.4375 17.773438 C 33.4375 20.273438 33.4375 22.8125 33.4375 25.273438 L 33.4375 26.589844 C 33.4375 29.464844 33.4375 32.472656 33.414062 35.496094 C 33.398438 38.507812 33.359375 41.449219 33.304688 44.257812 C 33.25 47.320312 33.171875 50.035156 33.0625 52.574219 C 33.574219 52.601562 34.097656 52.613281 34.605469 52.640625 C 37.277344 52.75 40.140625 52.800781 43.335938 52.800781 L 43.777344 52.800781 C 46.652344 52.800781 49.5625 52.761719 52.128906 52.734375 C 53.953125 52.707031 55.550781 52.695312 57.003906 52.65625 L 57.003906 66.144531 L 19.382812 66.144531 Z M 19.382812 66.171875 " fill-opacity="1" fill-rule="nonzero"/></g><g clip-path="url(#id2)"><path fill="#ffad00" d="M 24.578125 10.839844 C 24.402344 10.855469 24.230469 10.855469 24.054688 10.867188 C 23.972656 11.835938 23.878906 12.976562 23.8125 14.160156 L 24.417969 14.121094 C 25.894531 14.027344 27.210938 13.957031 28.445312 13.890625 L 28.445312 13.863281 C 28.445312 13.582031 28.445312 13.285156 28.429688 13.003906 L 28.417969 12.292969 C 28.40625 11.742188 28.40625 11.191406 28.40625 10.640625 C 27.128906 10.707031 25.855469 10.773438 24.578125 10.839844 Z M 24.46875 18.632812 L 25.328125 18.648438 C 26.351562 18.660156 27.371094 18.675781 28.40625 18.675781 C 28.429688 17.316406 28.445312 16.136719 28.445312 15.046875 C 28.191406 15.058594 27.949219 15.074219 27.691406 15.085938 L 27.652344 15.085938 C 26.472656 15.152344 25.222656 15.222656 23.746094 15.316406 C 23.691406 16.363281 23.636719 17.453125 23.585938 18.621094 L 23.597656 18.621094 Z M 23.421875 22.730469 C 24.804688 22.773438 26.363281 22.839844 28.296875 22.933594 C 28.3125 22.25 28.335938 21.5625 28.351562 20.863281 C 28.363281 20.527344 28.363281 20.191406 28.378906 19.855469 C 27.140625 19.84375 25.90625 19.828125 24.683594 19.816406 L 23.542969 19.804688 C 23.503906 20.785156 23.464844 21.75 23.421875 22.730469 Z M 28.175781 27.113281 C 28.203125 26.117188 28.242188 25.125 28.269531 24.128906 C 28.148438 24.128906 28.015625 24.117188 27.882812 24.117188 C 26.335938 24.035156 24.832031 23.96875 23.371094 23.929688 C 23.328125 24.976562 23.289062 26.023438 23.261719 27.085938 C 23.679688 27.085938 24.09375 27.070312 24.511719 27.070312 C 25.8125 27.070312 27.007812 27.085938 28.175781 27.113281 Z M 23.222656 28.253906 C 23.195312 29.074219 23.167969 29.90625 23.128906 30.726562 C 23.101562 31.425781 23.074219 32.125 23.046875 32.824219 C 24.671875 32.863281 26.296875 32.890625 27.921875 32.929688 C 27.988281 31.585938 28.042969 30.1875 28.097656 28.792969 L 28.109375 28.535156 L 28.121094 28.28125 C 27.746094 28.269531 27.355469 28.269531 26.980469 28.253906 C 26.242188 28.253906 25.449219 28.253906 24.550781 28.253906 C 24.109375 28.253906 23.664062 28.253906 23.222656 28.253906 Z M 22.753906 38.652344 C 22.726562 39.097656 22.699219 39.539062 22.671875 39.972656 L 23.328125 40.039062 L 23.691406 40.078125 C 24.941406 40.199219 26.214844 40.320312 27.492188 40.425781 L 27.53125 39.6875 L 27.53125 39.636719 C 27.585938 38.695312 27.640625 37.765625 27.691406 36.828125 C 27.746094 35.953125 27.785156 35.066406 27.839844 34.113281 C 26.429688 34.085938 25.019531 34.058594 23.625 34.019531 C 23.410156 34.019531 23.195312 34.003906 22.980469 34.003906 C 22.914062 35.550781 22.847656 37.121094 22.753906 38.652344 Z M 22.375 45.210938 L 23.019531 45.210938 C 23.71875 45.210938 24.429688 45.210938 25.128906 45.210938 C 25.828125 45.210938 26.523438 45.210938 27.222656 45.210938 L 27.238281 44.984375 L 27.25 44.753906 C 27.304688 43.707031 27.371094 42.671875 27.425781 41.625 C 26.402344 41.542969 25.34375 41.449219 24.175781 41.339844 C 23.652344 41.289062 23.128906 41.234375 22.605469 41.179688 C 22.539062 42.523438 22.457031 43.867188 22.375 45.210938 Z M 22.28125 46.582031 L 22.269531 46.730469 C 22.132812 48.785156 22.039062 50.34375 21.945312 51.78125 C 22.296875 51.753906 22.644531 51.742188 23.007812 51.714844 L 23.503906 51.6875 C 24.148438 51.648438 24.792969 51.621094 25.4375 51.578125 L 25.558594 51.566406 L 26.925781 51.484375 C 26.980469 49.925781 27.0625 48.261719 27.15625 46.378906 C 26.996094 46.378906 26.832031 46.378906 26.660156 46.378906 L 26.402344 46.378906 C 25.855469 46.378906 25.289062 46.378906 24.738281 46.378906 L 24.511719 46.378906 C 23.90625 46.378906 23.289062 46.378906 22.683594 46.378906 L 22.28125 46.378906 Z M 24.390625 52.816406 L 24.335938 52.816406 C 23.71875 52.84375 23.113281 52.882812 22.496094 52.921875 C 22.28125 52.9375 22.066406 52.949219 21.851562 52.964844 C 21.8125 53.59375 21.773438 54.214844 21.71875 54.84375 C 21.691406 55.261719 21.652344 55.664062 21.625 56.082031 L 22.441406 56.027344 L 22.886719 56 L 23.503906 55.960938 C 24.589844 55.894531 25.691406 55.824219 26.78125 55.757812 C 26.808594 54.65625 26.832031 53.664062 26.875 52.679688 C 26.054688 52.722656 25.222656 52.761719 24.390625 52.816406 Z M 22.65625 57.167969 C 22.28125 57.195312 21.917969 57.210938 21.542969 57.238281 C 21.488281 58.003906 21.421875 58.796875 21.34375 59.683594 C 21.824219 59.667969 22.308594 59.65625 22.792969 59.640625 C 24.148438 59.613281 25.4375 59.601562 26.710938 59.585938 C 26.726562 58.660156 26.738281 57.71875 26.765625 56.914062 C 25.382812 56.996094 24.027344 57.089844 22.65625 57.167969 Z M 30.445312 59.601562 C 32.632812 59.628906 34.984375 59.667969 37.804688 59.722656 C 37.855469 58.59375 37.910156 57.492188 37.9375 56.445312 C 35.265625 56.523438 32.835938 56.605469 30.511719 56.726562 C 29.679688 56.765625 28.808594 56.804688 27.933594 56.859375 C 27.90625 57.949219 27.894531 58.820312 27.882812 59.601562 C 28.054688 59.601562 28.242188 59.601562 28.429688 59.601562 C 29.128906 59.585938 29.789062 59.585938 30.445312 59.601562 Z M 46.382812 56.121094 L 46.113281 56.132812 C 44.984375 56.1875 43.722656 56.253906 42.476562 56.308594 C 41.46875 56.347656 40.40625 56.375 39.144531 56.417969 C 39.117188 57.476562 39.066406 58.578125 39.011719 59.683594 L 39.011719 59.761719 C 41.023438 59.800781 43.078125 59.871094 45.066406 59.921875 L 46.488281 59.964844 C 46.851562 59.976562 47.214844 59.976562 47.578125 59.992188 C 47.738281 58.527344 47.859375 57.238281 47.980469 56.039062 C 47.441406 56.054688 46.917969 56.09375 46.382812 56.121094 Z M 21.773438 63.066406 C 23.371094 63.066406 25.046875 63.09375 26.738281 63.148438 C 26.710938 62.316406 26.710938 61.535156 26.699219 60.785156 C 25.410156 60.796875 24.121094 60.808594 22.792969 60.835938 C 22.28125 60.851562 21.773438 60.851562 21.25 60.863281 C 21.179688 61.457031 21.128906 62.03125 21.074219 62.625 L 21.074219 62.636719 L 21.019531 63.066406 C 21.128906 63.066406 21.25 63.066406 21.371094 63.066406 C 21.503906 63.066406 21.636719 63.066406 21.773438 63.066406 Z M 27.882812 60.785156 C 27.882812 61.226562 27.882812 61.671875 27.882812 62.113281 C 27.882812 62.476562 27.894531 62.839844 27.894531 63.203125 C 28.523438 63.214844 29.167969 63.242188 29.867188 63.269531 C 32.417969 63.375 34.957031 63.523438 37.546875 63.671875 C 37.613281 62.851562 37.667969 61.964844 37.734375 60.917969 C 35.425781 60.863281 33.144531 60.824219 30.820312 60.796875 C 30.015625 60.785156 29.222656 60.785156 28.445312 60.785156 Z M 38.796875 63.390625 C 38.78125 63.511719 38.78125 63.632812 38.769531 63.753906 L 38.78125 63.753906 C 40.929688 63.875 43.347656 64.023438 45.75 64.144531 C 46.179688 64.167969 46.609375 64.183594 47.054688 64.210938 L 47.09375 64.210938 C 47.148438 63.792969 47.199219 63.484375 47.226562 63.214844 C 47.308594 62.609375 47.363281 62.019531 47.441406 61.359375 L 47.457031 61.1875 L 47.175781 61.1875 L 46.890625 61.171875 L 46.074219 61.144531 L 44.582031 61.105469 L 44.316406 61.09375 C 42.554688 61.039062 40.730469 61 38.945312 60.957031 C 38.890625 61.886719 38.851562 62.664062 38.796875 63.390625 Z M 47.347656 68.699219 C 47.1875 68.699219 47.027344 68.65625 46.890625 68.628906 C 46.746094 68.589844 46.625 68.5625 46.515625 68.507812 L 46.503906 68.507812 C 46.449219 68.484375 46.316406 68.441406 46.328125 68.386719 L 46.421875 67.929688 L 46.4375 67.878906 C 46.597656 67.058594 46.769531 66.210938 46.90625 65.378906 C 45.105469 65.296875 43.359375 65.203125 41.722656 65.109375 C 40.703125 65.054688 39.683594 64.988281 38.660156 64.933594 L 38.648438 65.054688 L 38.648438 65.070312 C 38.59375 65.6875 38.527344 66.332031 38.488281 66.949219 C 38.472656 67.21875 38.449219 67.476562 38.433594 67.742188 C 38.433594 67.769531 38.394531 67.785156 38.3125 67.785156 L 38.285156 67.785156 C 38.125 67.785156 37.949219 67.742188 37.816406 67.714844 C 37.667969 67.675781 37.546875 67.648438 37.441406 67.59375 L 37.425781 67.582031 C 37.375 67.554688 37.253906 67.515625 37.253906 67.460938 C 37.304688 66.5625 37.386719 65.660156 37.453125 64.855469 L 36.433594 64.789062 C 35.519531 64.734375 34.59375 64.679688 33.679688 64.625 C 31.816406 64.519531 29.882812 64.4375 27.933594 64.371094 C 27.949219 64.574219 27.949219 64.773438 27.960938 64.976562 L 27.988281 65.984375 C 28 66.574219 28.027344 67.152344 28.042969 67.742188 C 28.042969 67.757812 28.042969 67.757812 28.027344 67.757812 C 28.015625 67.769531 27.976562 67.785156 27.921875 67.785156 C 27.746094 67.785156 27.425781 67.714844 27.425781 67.714844 C 27.277344 67.675781 27.15625 67.648438 27.046875 67.597656 L 27.023438 67.582031 C 26.96875 67.554688 26.859375 67.515625 26.847656 67.460938 L 26.820312 66.761719 L 26.808594 66.492188 C 26.78125 65.769531 26.753906 65.042969 26.738281 64.316406 L 26.726562 64.316406 C 26.390625 64.304688 26.054688 64.289062 25.71875 64.289062 C 24.402344 64.25 23.046875 64.238281 21.679688 64.238281 C 21.410156 64.238281 21.15625 64.238281 20.886719 64.238281 C 20.777344 65.3125 20.644531 66.480469 20.46875 68.027344 C 20.46875 68.050781 20.429688 68.066406 20.347656 68.066406 L 20.320312 68.066406 C 20.148438 68.066406 19.988281 68.027344 19.851562 68 C 19.703125 67.957031 19.582031 67.929688 19.476562 67.878906 L 19.460938 67.878906 C 19.410156 67.851562 19.273438 67.8125 19.289062 67.757812 C 19.421875 66.589844 19.558594 65.40625 19.675781 64.25 C 19.085938 64.261719 18.484375 64.277344 17.878906 64.289062 C 17.316406 64.304688 16.738281 64.332031 16.292969 64.34375 L 16.308594 64.101562 L 16.335938 63.550781 L 16.359375 63.175781 C 16.910156 63.148438 17.449219 63.136719 17.984375 63.109375 C 18.578125 63.09375 19.179688 63.082031 19.796875 63.066406 C 19.867188 62.355469 19.933594 61.628906 19.988281 60.90625 L 19.988281 60.863281 C 19.597656 60.878906 19.222656 60.878906 18.84375 60.890625 C 18.363281 60.90625 17.851562 60.90625 17.355469 60.90625 C 17.234375 60.90625 17.113281 60.90625 16.992188 60.90625 L 16.429688 60.90625 L 16.429688 59.734375 C 16.738281 59.75 17.074219 59.75 17.421875 59.75 C 17.730469 59.75 18.027344 59.75 18.335938 59.75 L 18.765625 59.75 C 19.207031 59.75 19.652344 59.734375 20.09375 59.722656 C 20.160156 58.914062 20.226562 58.109375 20.296875 57.316406 C 19.8125 57.34375 19.355469 57.355469 18.925781 57.382812 C 18.65625 57.398438 18.375 57.398438 18.078125 57.398438 C 17.8125 57.398438 17.515625 57.398438 17.179688 57.382812 C 16.9375 57.371094 16.710938 57.355469 16.496094 57.332031 L 16.507812 57.074219 L 16.535156 56.457031 L 16.550781 56.121094 L 16.628906 56.132812 C 16.671875 56.132812 16.695312 56.148438 16.738281 56.148438 C 17.058594 56.175781 17.394531 56.203125 17.71875 56.214844 C 17.890625 56.214844 18.066406 56.230469 18.242188 56.230469 C 18.75 56.230469 19.273438 56.214844 19.71875 56.203125 C 19.945312 56.1875 20.175781 56.1875 20.390625 56.175781 C 20.46875 55.101562 20.550781 54.050781 20.617188 53.058594 C 20.09375 53.085938 19.542969 53.113281 18.953125 53.136719 C 18.292969 53.164062 17.691406 53.191406 17.101562 53.207031 C 16.980469 53.207031 16.859375 53.207031 16.738281 53.207031 L 16.765625 52.75 L 16.804688 52.144531 L 16.804688 52.023438 C 17.058594 52.023438 17.316406 52.007812 17.582031 52.007812 C 18.160156 51.996094 18.710938 51.96875 19.460938 51.941406 C 19.878906 51.929688 20.296875 51.902344 20.710938 51.890625 C 20.820312 50.25 20.941406 48.515625 21.058594 46.445312 C 19.476562 46.433594 18.175781 46.394531 16.925781 46.3125 C 16.898438 46.3125 16.886719 46.3125 16.859375 46.3125 L 16.859375 45.773438 L 16.871094 45.101562 L 16.898438 45.101562 C 17.636719 45.15625 18.375 45.199219 18.925781 45.210938 C 19.597656 45.238281 20.296875 45.25 21.128906 45.265625 C 21.140625 45.078125 21.140625 44.886719 21.15625 44.699219 L 21.195312 43.988281 C 21.25 43.035156 21.316406 42.066406 21.371094 41.113281 C 20.886719 41.058594 20.390625 41.003906 19.890625 40.953125 L 19.71875 40.9375 C 18.832031 40.84375 17.917969 40.738281 17.019531 40.644531 L 17.03125 40.308594 L 17.046875 39.582031 L 17.046875 39.433594 C 17.234375 39.445312 17.421875 39.472656 17.597656 39.488281 L 17.691406 39.5 L 17.839844 39.515625 C 18.292969 39.566406 18.765625 39.621094 19.222656 39.675781 L 19.675781 39.730469 C 20.269531 39.796875 20.859375 39.863281 21.449219 39.929688 C 21.515625 38.601562 21.570312 37.605469 21.625 36.71875 C 21.664062 35.832031 21.71875 34.945312 21.757812 34.046875 C 20.859375 34.019531 19.71875 33.992188 18.628906 33.992188 C 17.960938 33.992188 17.367188 34.003906 16.789062 34.019531 L 16.75 33.589844 L 16.738281 32.957031 L 16.722656 32.78125 C 16.886719 32.769531 17.03125 32.769531 17.195312 32.753906 C 17.664062 32.742188 18.175781 32.730469 18.777344 32.730469 C 18.914062 32.730469 19.046875 32.730469 19.179688 32.730469 C 20.082031 32.730469 21.007812 32.753906 21.8125 32.78125 L 21.851562 32.78125 C 21.917969 31.25 21.972656 29.773438 22.027344 28.269531 L 22.027344 28.253906 L 21.585938 28.269531 L 21.421875 28.269531 C 20.699219 28.28125 19.960938 28.28125 19.222656 28.28125 L 19.167969 28.28125 C 18.496094 28.28125 17.839844 28.269531 17.195312 28.242188 C 16.953125 28.226562 16.722656 28.214844 16.480469 28.214844 L 16.46875 27.664062 L 16.46875 27.019531 C 17.101562 27.046875 17.648438 27.070312 18.160156 27.085938 C 18.589844 27.097656 19.046875 27.097656 19.542969 27.097656 C 20.121094 27.097656 20.710938 27.085938 21.289062 27.085938 L 21.34375 27.085938 L 22.015625 27.070312 L 22.082031 27.070312 C 22.121094 26.011719 22.160156 24.9375 22.203125 23.875 C 21.4375 23.859375 20.804688 23.847656 20.214844 23.847656 L 19.597656 23.832031 C 18.9375 23.820312 18.335938 23.820312 17.746094 23.808594 C 17.339844 23.792969 16.925781 23.78125 16.523438 23.765625 L 16.523438 23.511719 L 16.535156 22.90625 L 16.550781 22.585938 L 16.992188 22.597656 L 17.261719 22.597656 C 17.878906 22.625 18.496094 22.625 19.140625 22.636719 L 20.011719 22.652344 L 20.214844 22.652344 C 20.886719 22.664062 21.570312 22.664062 22.242188 22.679688 C 22.269531 21.859375 22.296875 21.039062 22.335938 20.21875 L 22.347656 20.003906 L 22.363281 19.789062 L 21.046875 19.789062 C 20.308594 19.777344 19.570312 19.777344 18.816406 19.761719 C 18.269531 19.761719 17.703125 19.75 17.152344 19.734375 L 16.601562 19.734375 L 16.601562 19.507812 L 16.617188 18.96875 L 16.628906 18.539062 L 16.765625 18.539062 C 17.03125 18.554688 17.300781 18.554688 17.554688 18.554688 L 17.71875 18.554688 C 18.386719 18.582031 19.046875 18.582031 19.703125 18.59375 C 20.605469 18.605469 21.503906 18.605469 22.390625 18.621094 C 22.429688 17.492188 22.484375 16.429688 22.539062 15.394531 C 21.691406 15.449219 20.84375 15.503906 19.988281 15.570312 L 19.960938 15.570312 C 19.300781 15.609375 18.765625 15.652344 18.269531 15.691406 L 18.175781 15.691406 C 17.691406 15.730469 17.207031 15.757812 16.738281 15.851562 C 16.722656 15.851562 16.710938 15.851562 16.695312 15.867188 L 16.695312 15.261719 C 16.722656 15.152344 16.75 15.058594 16.777344 14.964844 L 16.789062 14.9375 C 16.816406 14.859375 16.859375 14.75 16.925781 14.699219 C 16.9375 14.683594 16.980469 14.683594 16.992188 14.671875 L 17.003906 14.671875 C 17.074219 14.65625 17.140625 14.644531 17.207031 14.644531 C 17.367188 14.617188 17.53125 14.601562 17.691406 14.589844 C 17.960938 14.5625 18.253906 14.535156 18.589844 14.507812 C 19.207031 14.46875 19.8125 14.429688 20.496094 14.375 L 21.558594 14.308594 L 22.617188 14.242188 C 22.65625 13.582031 22.699219 12.9375 22.738281 12.277344 C 22.765625 11.835938 22.804688 11.378906 22.847656 10.933594 L 22.792969 10.933594 C 22.121094 10.976562 21.355469 11.015625 20.589844 11.070312 C 19.582031 11.136719 18.671875 11.203125 17.757812 11.390625 L 17.703125 11.40625 C 17.542969 11.445312 17.382812 11.484375 17.246094 11.582031 C 17.234375 11.59375 17.234375 11.605469 17.21875 11.605469 C 17.207031 11.621094 17.195312 11.632812 17.179688 11.632812 C 17.152344 11.632812 17.140625 11.582031 17.140625 11.539062 C 17.125 11.433594 17.152344 11.324219 17.167969 11.230469 C 17.195312 11.054688 17.234375 10.882812 17.289062 10.71875 C 17.300781 10.652344 17.339844 10.546875 17.410156 10.464844 C 17.488281 10.371094 17.625 10.316406 17.730469 10.277344 C 17.878906 10.222656 18.027344 10.195312 18.175781 10.167969 L 18.242188 10.15625 C 18.550781 10.089844 18.871094 10.046875 19.152344 10.023438 L 19.167969 10.023438 C 19.839844 9.941406 20.511719 9.902344 21.140625 9.859375 C 21.691406 9.820312 22.269531 9.792969 22.953125 9.753906 C 22.953125 9.660156 22.96875 9.566406 22.980469 9.457031 L 22.992188 9.351562 L 22.992188 9.308594 L 23.019531 8.972656 C 23.046875 8.636719 23.074219 8.300781 23.101562 7.964844 L 23.113281 7.816406 C 23.128906 7.617188 23.15625 7.414062 23.167969 7.226562 C 23.183594 7.09375 23.195312 6.972656 23.207031 6.835938 L 23.207031 6.796875 C 23.222656 6.703125 23.234375 6.609375 23.277344 6.527344 C 23.300781 6.488281 23.355469 6.488281 23.398438 6.488281 L 23.4375 6.488281 C 23.597656 6.488281 23.773438 6.527344 23.894531 6.554688 C 23.894531 6.554688 24.417969 6.6875 24.457031 6.785156 C 24.457031 6.796875 24.457031 6.796875 24.457031 6.808594 C 24.429688 6.863281 24.417969 6.917969 24.417969 6.972656 C 24.402344 7.066406 24.390625 7.144531 24.390625 7.226562 C 24.375 7.386719 24.351562 7.550781 24.335938 7.710938 C 24.308594 8.046875 24.269531 8.382812 24.242188 8.730469 C 24.214844 9.054688 24.1875 9.390625 24.160156 9.710938 C 24.351562 9.699219 24.550781 9.6875 24.738281 9.6875 L 25.007812 9.671875 C 26.148438 9.617188 27.277344 9.550781 28.417969 9.496094 C 28.417969 9.109375 28.417969 8.730469 28.417969 8.410156 L 28.417969 8.367188 C 28.417969 8.152344 28.429688 7.886719 28.445312 7.628906 C 28.457031 7.496094 28.457031 7.359375 28.472656 7.214844 C 28.472656 7.1875 28.484375 7.144531 28.484375 7.105469 L 28.484375 7.078125 L 28.5 7.023438 C 28.511719 6.957031 28.523438 6.878906 28.550781 6.824219 C 28.578125 6.785156 28.621094 6.785156 28.671875 6.785156 L 28.714844 6.785156 C 28.875 6.785156 29.035156 6.824219 29.167969 6.851562 C 29.167969 6.851562 29.695312 6.984375 29.734375 7.078125 C 29.734375 7.09375 29.734375 7.09375 29.734375 7.105469 C 29.695312 7.160156 29.695312 7.238281 29.679688 7.308594 L 29.679688 7.320312 C 29.667969 7.402344 29.667969 7.480469 29.652344 7.5625 C 29.640625 7.722656 29.625 7.871094 29.625 8.007812 C 29.613281 8.367188 29.597656 8.691406 29.597656 9 C 29.597656 9.132812 29.597656 9.253906 29.597656 9.390625 L 29.746094 9.390625 C 30.714844 9.335938 31.679688 9.28125 32.648438 9.230469 C 33.0625 9.203125 33.480469 9.175781 33.910156 9.148438 L 33.894531 9.324219 L 33.855469 9.832031 L 33.828125 10.332031 C 32.433594 10.425781 31.089844 10.503906 29.613281 10.585938 L 29.613281 11.027344 C 29.613281 11.417969 29.625 11.808594 29.625 12.210938 L 29.625 12.414062 C 29.640625 12.898438 29.640625 13.378906 29.640625 13.863281 C 30.445312 13.824219 31.238281 13.796875 32.054688 13.769531 C 32.605469 13.757812 33.15625 13.742188 33.695312 13.730469 L 33.773438 13.730469 L 33.773438 14.898438 L 33.277344 14.898438 C 32.660156 14.914062 32.042969 14.925781 31.4375 14.953125 C 30.835938 14.964844 30.242188 14.992188 29.640625 15.019531 C 29.640625 16.160156 29.625 17.371094 29.597656 18.703125 L 29.988281 18.703125 C 30.378906 18.703125 30.78125 18.703125 31.183594 18.703125 C 31.867188 18.703125 32.902344 18.703125 33.9375 18.726562 L 34.003906 19.171875 L 34.070312 19.710938 L 34.097656 19.925781 C 33.84375 19.925781 33.601562 19.910156 33.359375 19.910156 C 32.539062 19.898438 31.722656 19.898438 30.914062 19.898438 C 30.527344 19.898438 30.125 19.898438 29.734375 19.898438 L 29.574219 19.898438 C 29.558594 20.785156 29.53125 21.738281 29.503906 22.894531 L 29.503906 23.027344 L 30.550781 23.082031 C 31.976562 23.164062 33.34375 23.214844 34.59375 23.257812 L 34.605469 23.324219 L 34.675781 23.671875 L 34.742188 24.023438 L 34.796875 24.371094 L 34.808594 24.453125 C 33.519531 24.410156 32.511719 24.371094 31.546875 24.316406 C 30.914062 24.289062 30.269531 24.25 29.640625 24.210938 L 29.464844 24.195312 C 29.4375 25.136719 29.410156 26.132812 29.371094 27.152344 C 29.480469 27.152344 29.574219 27.152344 29.679688 27.167969 L 29.773438 27.167969 L 32.367188 27.273438 L 34.957031 27.367188 L 34.941406 27.71875 L 34.917969 28.160156 L 34.890625 28.5625 L 34.460938 28.550781 L 34.058594 28.535156 C 32.96875 28.496094 31.867188 28.457031 30.78125 28.414062 C 30.296875 28.402344 29.800781 28.375 29.316406 28.363281 C 29.289062 29.179688 29.25 30 29.222656 30.820312 C 29.195312 31.546875 29.15625 32.257812 29.128906 32.984375 C 29.695312 32.996094 30.269531 32.996094 30.835938 33.011719 C 32.003906 33.039062 33.183594 33.050781 34.460938 33.066406 L 34.433594 33.507812 L 34.394531 33.976562 L 34.378906 34.261719 C 33.371094 34.246094 32.417969 34.234375 31.480469 34.21875 C 30.671875 34.207031 29.867188 34.191406 29.0625 34.167969 C 28.996094 35.511719 28.914062 36.988281 28.808594 38.828125 L 28.792969 38.9375 L 28.738281 39.742188 L 28.6875 40.546875 C 29.652344 40.617188 30.59375 40.683594 31.464844 40.738281 C 32.296875 40.789062 33.210938 40.832031 34.339844 40.882812 L 34.351562 40.925781 L 34.417969 41.394531 L 34.5 41.851562 L 34.539062 42.09375 C 33.546875 42.054688 32.769531 42.011719 32.003906 41.972656 C 30.914062 41.917969 29.773438 41.839844 28.621094 41.757812 L 28.605469 42.066406 C 28.539062 43.128906 28.484375 44.191406 28.429688 45.25 C 29.238281 45.25 29.976562 45.265625 30.6875 45.277344 C 31.921875 45.304688 33.25 45.34375 34.769531 45.398438 L 34.753906 45.773438 L 34.726562 46.152344 L 34.703125 46.542969 L 34.703125 46.59375 L 34.675781 46.59375 C 34.015625 46.566406 33.34375 46.542969 32.6875 46.527344 C 31.34375 46.488281 29.933594 46.460938 28.378906 46.445312 L 28.378906 46.609375 C 28.285156 48.355469 28.214844 49.953125 28.148438 51.484375 C 29.464844 51.40625 30.390625 51.351562 31.222656 51.296875 C 32.351562 51.21875 33.574219 51.136719 34.820312 51.015625 L 34.847656 51.070312 L 34.929688 51.21875 L 35.023438 51.363281 L 35.117188 51.5 L 35.226562 51.648438 L 35.347656 51.792969 L 35.480469 51.941406 L 35.613281 52.078125 C 35.144531 52.144531 34.648438 52.183594 34.230469 52.226562 C 32.929688 52.34375 31.640625 52.425781 30.324219 52.519531 C 29.585938 52.574219 28.847656 52.613281 28.109375 52.65625 C 28.097656 53.273438 28.070312 53.890625 28.054688 54.507812 L 28.042969 54.925781 L 28.042969 54.964844 C 28.027344 55.222656 28.027344 55.488281 28.015625 55.746094 C 29.195312 55.679688 30.285156 55.625 31.359375 55.570312 C 33.507812 55.476562 35.679688 55.394531 38.019531 55.328125 C 38.042969 54.308594 38.058594 53.40625 38.058594 52.601562 C 38.058594 52.507812 38.058594 52.398438 38.058594 52.304688 L 38.058594 52.265625 C 38.058594 52.128906 38.042969 51.984375 38.042969 51.847656 C 38.042969 51.820312 38.085938 51.808594 38.164062 51.808594 L 38.191406 51.808594 C 38.367188 51.808594 38.527344 51.847656 38.660156 51.875 C 38.808594 51.902344 38.929688 51.941406 39.039062 51.984375 L 39.066406 51.996094 C 39.117188 52.023438 39.238281 52.0625 39.238281 52.117188 C 39.238281 52.265625 39.238281 52.398438 39.238281 52.546875 L 39.238281 52.574219 C 39.238281 52.695312 39.253906 52.816406 39.253906 52.921875 C 39.253906 53.273438 39.253906 53.621094 39.238281 53.972656 C 39.238281 54.414062 39.226562 54.859375 39.210938 55.300781 L 39.28125 55.300781 C 42.207031 55.222656 44.824219 55.113281 47.296875 54.964844 C 47.578125 54.953125 47.84375 54.9375 48.128906 54.910156 L 48.15625 54.601562 C 48.179688 54.308594 48.207031 54 48.234375 53.6875 C 48.261719 53.378906 48.289062 53.070312 48.316406 52.761719 L 48.328125 52.613281 L 48.34375 52.464844 L 48.355469 52.304688 C 48.355469 52.226562 48.371094 52.15625 48.371094 52.078125 L 48.371094 52.035156 C 48.371094 51.996094 48.371094 51.941406 48.394531 51.914062 C 48.421875 51.875 48.476562 51.875 48.515625 51.875 L 48.558594 51.875 C 48.703125 51.875 48.867188 51.902344 49.011719 51.941406 C 49.011719 51.941406 49.539062 52.078125 49.578125 52.171875 C 49.578125 52.183594 49.578125 52.183594 49.578125 52.199219 C 49.5625 52.226562 49.5625 52.265625 49.5625 52.292969 L 49.5625 52.320312 C 49.5625 52.371094 49.550781 52.414062 49.550781 52.464844 L 49.550781 52.519531 L 49.539062 52.777344 L 49.523438 53.03125 C 49.496094 53.339844 49.46875 53.648438 49.441406 53.972656 C 49.417969 54.265625 49.390625 54.550781 49.363281 54.84375 C 51.539062 54.710938 53.605469 54.5625 55.164062 54.457031 C 56.332031 54.375 57.511719 54.292969 58.695312 54.199219 L 58.695312 54.238281 L 58.707031 54.496094 L 58.71875 54.765625 L 58.761719 55.074219 L 58.800781 55.355469 C 57.378906 55.460938 55.820312 55.582031 54.15625 55.691406 L 53.925781 55.703125 L 53.859375 55.703125 C 52.34375 55.8125 50.785156 55.917969 49.242188 56.015625 C 49.121094 57.277344 49 58.5 48.867188 59.761719 L 48.851562 59.910156 L 48.839844 60.058594 C 50.839844 60.097656 52.476562 60.113281 53.996094 60.113281 C 54.210938 60.113281 54.4375 60.113281 54.652344 60.113281 C 56.035156 60.113281 57.457031 60.070312 58.910156 60.019531 L 58.894531 60.207031 L 58.816406 61.078125 L 58.800781 61.1875 L 58.746094 61.1875 C 57.433594 61.242188 56.089844 61.265625 54.652344 61.28125 C 54.195312 61.28125 53.738281 61.292969 53.28125 61.292969 C 51.941406 61.292969 50.492188 61.28125 48.703125 61.242188 C 48.652344 61.816406 48.558594 62.679688 48.449219 63.523438 C 48.421875 63.78125 48.382812 64.035156 48.34375 64.289062 C 50.085938 64.371094 51.847656 64.4375 53.726562 64.503906 C 55.296875 64.558594 56.894531 64.613281 58.453125 64.652344 L 58.425781 65.136719 L 58.425781 65.835938 L 58.0625 65.835938 L 57.714844 65.820312 C 55.203125 65.753906 52.558594 65.660156 49.644531 65.539062 C 49.148438 65.511719 48.636719 65.5 48.140625 65.472656 C 48.058594 65.957031 47.964844 66.480469 47.859375 67.070312 C 47.75 67.609375 47.644531 68.160156 47.535156 68.699219 C 47.535156 68.722656 47.496094 68.738281 47.414062 68.738281 C 47.375 68.699219 47.363281 68.699219 47.347656 68.699219 Z M 47.347656 68.699219 " fill-opacity="1" fill-rule="nonzero"/></g></svg>