<svg xmlns="http://www.w3.org/2000/svg" xmlns:xlink="http://www.w3.org/1999/xlink" width="150" zoomAndPan="magnify" viewBox="0 0 112.5 112.499997" height="150" preserveAspectRatio="xMidYMid meet" version="1.0"><defs><clipPath id="id1"><path d="M 36.242188 26.957031 L 75.992188 26.957031 L 75.992188 66.707031 L 36.242188 66.707031 Z M 36.242188 26.957031 " clip-rule="nonzero"/></clipPath><clipPath id="id2"><path d="M 50 76 L 63 76 L 63 97.457031 L 50 97.457031 Z M 50 76 " clip-rule="nonzero"/></clipPath><clipPath id="id3"><path d="M 50 63.707031 L 56 63.707031 L 56 73 L 50 73 Z M 50 63.707031 " clip-rule="nonzero"/></clipPath><clipPath id="id4"><path d="M 34 63.707031 L 79 63.707031 L 79 97 L 34 97 Z M 34 63.707031 " clip-rule="nonzero"/></clipPath><clipPath id="id5"><path d="M 54 19 L 59 19 L 59 26.792969 L 54 26.792969 Z M 54 19 " clip-rule="nonzero"/></clipPath><clipPath id="id6"><path d="M 54 14.792969 L 56 14.792969 L 56 18 L 54 18 Z M 54 14.792969 " clip-rule="nonzero"/></clipPath><clipPath id="id7"><path d="M 48 14.792969 L 64.921875 14.792969 L 64.921875 26.792969 L 48 26.792969 Z M 48 14.792969 " clip-rule="nonzero"/></clipPath><clipPath id="id8"><path d="M 65 34.636719 L 92 34.636719 L 92 46 L 65 46 Z M 65 34.636719 " clip-rule="nonzero"/></clipPath><clipPath id="id9"><path d="M 21 51.378906 L 47.800781 51.378906 L 47.800781 63 L 21 63 Z M 21 51.378906 " clip-rule="nonzero"/></clipPath></defs><g clip-path="url(#id1)"><path fill="#e3eff1" d="M 75.992188 46.832031 C 75.992188 47.480469 75.960938 48.132812 75.894531 48.777344 C 75.832031 49.425781 75.738281 50.070312 75.609375 50.707031 C 75.484375 51.347656 75.324219 51.976562 75.136719 52.601562 C 74.949219 53.222656 74.726562 53.835938 74.480469 54.4375 C 74.230469 55.039062 73.953125 55.625 73.644531 56.199219 C 73.339844 56.773438 73.003906 57.332031 72.640625 57.871094 C 72.28125 58.414062 71.894531 58.9375 71.480469 59.441406 C 71.066406 59.941406 70.632812 60.425781 70.171875 60.882812 C 69.710938 61.34375 69.230469 61.78125 68.726562 62.195312 C 68.222656 62.609375 67.699219 62.996094 67.160156 63.355469 C 66.617188 63.71875 66.058594 64.050781 65.484375 64.359375 C 64.910156 64.664062 64.324219 64.945312 63.722656 65.191406 C 63.121094 65.441406 62.507812 65.660156 61.886719 65.851562 C 61.261719 66.039062 60.632812 66.195312 59.996094 66.324219 C 59.355469 66.449219 58.714844 66.546875 58.066406 66.609375 C 57.417969 66.675781 56.769531 66.707031 56.117188 66.707031 C 55.464844 66.707031 54.816406 66.675781 54.167969 66.609375 C 53.519531 66.546875 52.878906 66.449219 52.238281 66.324219 C 51.601562 66.195312 50.96875 66.039062 50.347656 65.851562 C 49.726562 65.660156 49.113281 65.441406 48.511719 65.191406 C 47.910156 64.945312 47.320312 64.664062 46.75 64.359375 C 46.175781 64.050781 45.617188 63.71875 45.074219 63.355469 C 44.535156 62.996094 44.011719 62.609375 43.507812 62.195312 C 43.003906 61.78125 42.523438 61.34375 42.0625 60.882812 C 41.601562 60.425781 41.167969 59.941406 40.753906 59.441406 C 40.339844 58.9375 39.953125 58.414062 39.589844 57.871094 C 39.230469 57.332031 38.894531 56.773438 38.589844 56.199219 C 38.28125 55.625 38.003906 55.039062 37.753906 54.4375 C 37.507812 53.835938 37.285156 53.222656 37.097656 52.601562 C 36.910156 51.976562 36.75 51.347656 36.625 50.707031 C 36.496094 50.070312 36.402344 49.425781 36.335938 48.777344 C 36.273438 48.132812 36.242188 47.480469 36.242188 46.832031 C 36.242188 46.179688 36.273438 45.53125 36.335938 44.882812 C 36.402344 44.234375 36.496094 43.59375 36.625 42.953125 C 36.75 42.316406 36.910156 41.683594 37.097656 41.0625 C 37.285156 40.4375 37.507812 39.828125 37.753906 39.226562 C 38.003906 38.625 38.28125 38.035156 38.589844 37.460938 C 38.894531 36.886719 39.230469 36.332031 39.589844 35.789062 C 39.953125 35.246094 40.339844 34.726562 40.753906 34.222656 C 41.167969 33.71875 41.601562 33.238281 42.0625 32.777344 C 42.523438 32.316406 43.003906 31.878906 43.507812 31.46875 C 44.011719 31.054688 44.535156 30.667969 45.074219 30.304688 C 45.617188 29.945312 46.175781 29.609375 46.75 29.304688 C 47.320312 28.996094 47.910156 28.71875 48.511719 28.46875 C 49.113281 28.21875 49.726562 28 50.347656 27.8125 C 50.96875 27.621094 51.601562 27.464844 52.238281 27.335938 C 52.878906 27.210938 53.519531 27.117188 54.167969 27.050781 C 54.816406 26.988281 55.464844 26.957031 56.117188 26.957031 C 56.769531 26.957031 57.417969 26.988281 58.066406 27.050781 C 58.714844 27.117188 59.355469 27.210938 59.996094 27.335938 C 60.632812 27.464844 61.261719 27.621094 61.886719 27.8125 C 62.507812 28 63.121094 28.21875 63.722656 28.46875 C 64.324219 28.71875 64.910156 28.996094 65.484375 29.304688 C 66.058594 29.609375 66.617188 29.945312 67.160156 30.304688 C 67.699219 30.667969 68.222656 31.054688 68.726562 31.46875 C 69.230469 31.878906 69.710938 32.316406 70.171875 32.777344 C 70.632812 33.238281 71.066406 33.71875 71.480469 34.222656 C 71.894531 34.726562 72.28125 35.246094 72.640625 35.789062 C 73.003906 36.332031 73.339844 36.886719 73.644531 37.460938 C 73.953125 38.035156 74.230469 38.625 74.480469 39.226562 C 74.726562 39.828125 74.949219 40.4375 75.136719 41.0625 C 75.324219 41.683594 75.484375 42.316406 75.609375 42.953125 C 75.738281 43.59375 75.832031 44.234375 75.894531 44.882812 C 75.960938 45.53125 75.992188 46.179688 75.992188 46.832031 Z M 75.992188 46.832031 " fill-opacity="1" fill-rule="nonzero"/></g><path fill="#b8c5cd" d="M 51.699219 36.339844 C 51.699219 36.855469 51.601562 37.347656 51.40625 37.820312 C 51.210938 38.292969 50.929688 38.710938 50.570312 39.074219 C 50.207031 39.4375 49.789062 39.714844 49.316406 39.910156 C 48.839844 40.109375 48.347656 40.207031 47.835938 40.207031 C 47.324219 40.207031 46.832031 40.109375 46.355469 39.910156 C 45.882812 39.714844 45.464844 39.4375 45.101562 39.074219 C 44.742188 38.710938 44.460938 38.292969 44.265625 37.820312 C 44.070312 37.347656 43.972656 36.855469 43.972656 36.339844 C 43.972656 35.828125 44.070312 35.335938 44.265625 34.863281 C 44.460938 34.390625 44.742188 33.972656 45.101562 33.609375 C 45.464844 33.246094 45.882812 32.96875 46.355469 32.769531 C 46.832031 32.574219 47.324219 32.476562 47.835938 32.476562 C 48.347656 32.476562 48.839844 32.574219 49.316406 32.769531 C 49.789062 32.96875 50.207031 33.246094 50.570312 33.609375 C 50.929688 33.972656 51.210938 34.390625 51.40625 34.863281 C 51.601562 35.335938 51.699219 35.828125 51.699219 36.339844 Z M 51.699219 36.339844 " fill-opacity="1" fill-rule="nonzero"/><path fill="#b8c5cd" d="M 61.636719 45.726562 C 61.636719 46.167969 61.554688 46.589844 61.386719 46.996094 C 61.21875 47.398438 60.976562 47.757812 60.667969 48.070312 C 60.355469 48.378906 60 48.617188 59.59375 48.789062 C 59.1875 48.957031 58.765625 49.039062 58.324219 49.039062 C 57.886719 49.039062 57.464844 48.957031 57.058594 48.789062 C 56.652344 48.617188 56.292969 48.378906 55.984375 48.070312 C 55.671875 47.757812 55.433594 47.398438 55.265625 46.996094 C 55.097656 46.589844 55.011719 46.167969 55.011719 45.726562 C 55.011719 45.289062 55.097656 44.863281 55.265625 44.460938 C 55.433594 44.054688 55.671875 43.695312 55.984375 43.382812 C 56.292969 43.074219 56.652344 42.835938 57.058594 42.667969 C 57.464844 42.5 57.886719 42.414062 58.324219 42.414062 C 58.765625 42.414062 59.1875 42.5 59.59375 42.667969 C 60 42.835938 60.355469 43.074219 60.667969 43.382812 C 60.976562 43.695312 61.21875 44.054688 61.386719 44.460938 C 61.554688 44.863281 61.636719 45.289062 61.636719 45.726562 Z M 61.636719 45.726562 " fill-opacity="1" fill-rule="nonzero"/><path fill="#b8c5cd" d="M 67.160156 58.425781 C 67.160156 58.9375 67.0625 59.429688 66.863281 59.902344 C 66.667969 60.378906 66.390625 60.796875 66.027344 61.15625 C 65.664062 61.519531 65.246094 61.800781 64.773438 61.996094 C 64.300781 62.191406 63.808594 62.289062 63.292969 62.289062 C 62.78125 62.289062 62.289062 62.191406 61.816406 61.996094 C 61.339844 61.800781 60.925781 61.519531 60.5625 61.15625 C 60.199219 60.796875 59.917969 60.378906 59.722656 59.902344 C 59.527344 59.429688 59.429688 58.9375 59.429688 58.425781 C 59.429688 57.914062 59.527344 57.417969 59.722656 56.945312 C 59.917969 56.472656 60.199219 56.054688 60.5625 55.691406 C 60.925781 55.328125 61.339844 55.050781 61.816406 54.855469 C 62.289062 54.660156 62.78125 54.558594 63.292969 54.558594 C 63.808594 54.558594 64.300781 54.660156 64.773438 54.855469 C 65.246094 55.050781 65.664062 55.328125 66.027344 55.691406 C 66.390625 56.054688 66.667969 56.472656 66.863281 56.945312 C 67.0625 57.417969 67.160156 57.914062 67.160156 58.425781 Z M 67.160156 58.425781 " fill-opacity="1" fill-rule="nonzero"/><path fill="#b8c5cd" d="M 62.742188 32.476562 C 62.742188 32.769531 62.6875 33.050781 62.574219 33.320312 C 62.460938 33.59375 62.300781 33.832031 62.09375 34.039062 C 61.886719 34.246094 61.648438 34.40625 61.378906 34.515625 C 61.109375 34.628906 60.828125 34.683594 60.535156 34.683594 C 60.242188 34.683594 59.960938 34.628906 59.6875 34.515625 C 59.417969 34.40625 59.179688 34.246094 58.972656 34.039062 C 58.765625 33.832031 58.605469 33.59375 58.492188 33.320312 C 58.382812 33.050781 58.324219 32.769531 58.324219 32.476562 C 58.324219 32.183594 58.382812 31.902344 58.492188 31.632812 C 58.605469 31.359375 58.765625 31.121094 58.972656 30.914062 C 59.179688 30.707031 59.417969 30.546875 59.6875 30.4375 C 59.960938 30.324219 60.242188 30.269531 60.535156 30.269531 C 60.828125 30.269531 61.109375 30.324219 61.378906 30.4375 C 61.648438 30.546875 61.886719 30.707031 62.09375 30.914062 C 62.300781 31.121094 62.460938 31.359375 62.574219 31.632812 C 62.6875 31.902344 62.742188 32.183594 62.742188 32.476562 Z M 62.742188 32.476562 " fill-opacity="1" fill-rule="nonzero"/><path fill="#b8c5cd" d="M 40.660156 46.832031 C 40.660156 46.976562 40.628906 47.117188 40.574219 47.253906 C 40.519531 47.390625 40.4375 47.507812 40.335938 47.613281 C 40.230469 47.714844 40.113281 47.796875 39.976562 47.851562 C 39.84375 47.90625 39.699219 47.933594 39.554688 47.933594 C 39.40625 47.933594 39.265625 47.90625 39.132812 47.851562 C 38.996094 47.796875 38.878906 47.714844 38.773438 47.613281 C 38.671875 47.507812 38.589844 47.390625 38.535156 47.253906 C 38.476562 47.117188 38.449219 46.976562 38.449219 46.832031 C 38.449219 46.683594 38.476562 46.542969 38.535156 46.410156 C 38.589844 46.273438 38.671875 46.152344 38.773438 46.050781 C 38.878906 45.945312 38.996094 45.867188 39.132812 45.8125 C 39.265625 45.753906 39.40625 45.726562 39.554688 45.726562 C 39.699219 45.726562 39.84375 45.753906 39.976562 45.8125 C 40.113281 45.867188 40.230469 45.945312 40.335938 46.050781 C 40.4375 46.152344 40.519531 46.273438 40.574219 46.410156 C 40.628906 46.542969 40.660156 46.683594 40.660156 46.832031 Z M 40.660156 46.832031 " fill-opacity="1" fill-rule="nonzero"/><path fill="#b8c5cd" d="M 70.472656 36.894531 C 70.472656 37.039062 70.441406 37.179688 70.386719 37.316406 C 70.332031 37.453125 70.25 37.570312 70.148438 37.675781 C 70.042969 37.777344 69.925781 37.859375 69.789062 37.914062 C 69.65625 37.96875 69.511719 37.996094 69.367188 37.996094 C 69.21875 37.996094 69.078125 37.96875 68.945312 37.914062 C 68.808594 37.859375 68.691406 37.777344 68.585938 37.675781 C 68.484375 37.570312 68.402344 37.453125 68.347656 37.316406 C 68.289062 37.179688 68.261719 37.039062 68.261719 36.894531 C 68.261719 36.746094 68.289062 36.605469 68.347656 36.472656 C 68.402344 36.335938 68.484375 36.214844 68.585938 36.113281 C 68.691406 36.007812 68.808594 35.929688 68.945312 35.875 C 69.078125 35.816406 69.21875 35.789062 69.367188 35.789062 C 69.511719 35.789062 69.65625 35.816406 69.789062 35.875 C 69.925781 35.929688 70.042969 36.007812 70.148438 36.113281 C 70.25 36.214844 70.332031 36.335938 70.386719 36.472656 C 70.441406 36.605469 70.472656 36.746094 70.472656 36.894531 Z M 70.472656 36.894531 " fill-opacity="1" fill-rule="nonzero"/><path fill="#b8c5cd" d="M 53.910156 61.183594 C 53.910156 61.332031 53.878906 61.472656 53.824219 61.609375 C 53.769531 61.742188 53.6875 61.863281 53.585938 61.964844 C 53.480469 62.070312 53.363281 62.148438 53.226562 62.207031 C 53.09375 62.261719 52.949219 62.289062 52.804688 62.289062 C 52.65625 62.289062 52.515625 62.261719 52.382812 62.207031 C 52.246094 62.148438 52.128906 62.070312 52.023438 61.964844 C 51.921875 61.863281 51.839844 61.742188 51.785156 61.609375 C 51.726562 61.472656 51.699219 61.332031 51.699219 61.183594 C 51.699219 61.039062 51.726562 60.898438 51.785156 60.761719 C 51.839844 60.628906 51.921875 60.507812 52.023438 60.40625 C 52.128906 60.300781 52.246094 60.222656 52.382812 60.164062 C 52.515625 60.109375 52.65625 60.082031 52.804688 60.082031 C 52.949219 60.082031 53.09375 60.109375 53.226562 60.164062 C 53.363281 60.222656 53.480469 60.300781 53.585938 60.40625 C 53.6875 60.507812 53.769531 60.628906 53.824219 60.761719 C 53.878906 60.898438 53.910156 61.039062 53.910156 61.183594 Z M 53.910156 61.183594 " fill-opacity="1" fill-rule="nonzero"/><path fill="#b8c5cd" d="M 73.785156 47.933594 C 73.785156 48.226562 73.726562 48.507812 73.617188 48.78125 C 73.503906 49.050781 73.34375 49.289062 73.136719 49.496094 C 72.929688 49.703125 72.691406 49.863281 72.421875 49.976562 C 72.148438 50.085938 71.867188 50.144531 71.574219 50.144531 C 71.28125 50.144531 71 50.085938 70.730469 49.976562 C 70.460938 49.863281 70.222656 49.703125 70.015625 49.496094 C 69.808594 49.289062 69.648438 49.050781 69.535156 48.78125 C 69.421875 48.507812 69.367188 48.226562 69.367188 47.933594 C 69.367188 47.640625 69.421875 47.359375 69.535156 47.089844 C 69.648438 46.820312 69.808594 46.582031 70.015625 46.375 C 70.222656 46.167969 70.460938 46.007812 70.730469 45.894531 C 71 45.78125 71.28125 45.726562 71.574219 45.726562 C 71.867188 45.726562 72.148438 45.78125 72.421875 45.894531 C 72.691406 46.007812 72.929688 46.167969 73.136719 46.375 C 73.34375 46.582031 73.503906 46.820312 73.617188 47.089844 C 73.726562 47.359375 73.785156 47.640625 73.785156 47.933594 Z M 73.785156 47.933594 " fill-opacity="1" fill-rule="nonzero"/><path fill="#b8c5cd" d="M 49.492188 52.351562 C 49.492188 52.644531 49.4375 52.925781 49.324219 53.195312 C 49.210938 53.46875 49.050781 53.707031 48.84375 53.914062 C 48.636719 54.121094 48.398438 54.28125 48.128906 54.390625 C 47.859375 54.503906 47.578125 54.558594 47.285156 54.558594 C 46.992188 54.558594 46.710938 54.503906 46.4375 54.390625 C 46.167969 54.28125 45.929688 54.121094 45.722656 53.914062 C 45.515625 53.707031 45.355469 53.46875 45.242188 53.195312 C 45.132812 52.925781 45.074219 52.644531 45.074219 52.351562 C 45.074219 52.058594 45.132812 51.777344 45.242188 51.507812 C 45.355469 51.234375 45.515625 50.996094 45.722656 50.789062 C 45.929688 50.582031 46.167969 50.421875 46.4375 50.3125 C 46.710938 50.199219 46.992188 50.144531 47.285156 50.144531 C 47.578125 50.144531 47.859375 50.199219 48.128906 50.3125 C 48.398438 50.421875 48.636719 50.582031 48.84375 50.789062 C 49.050781 50.996094 49.210938 51.234375 49.324219 51.507812 C 49.4375 51.777344 49.492188 52.058594 49.492188 52.351562 Z M 49.492188 52.351562 " fill-opacity="1" fill-rule="nonzero"/><g clip-path="url(#id2)"><path fill="#66757f" d="M 62.640625 84.957031 C 62.640625 92.894531 58.859375 97.457031 56.335938 97.457031 C 53.816406 97.457031 50.035156 92.894531 50.035156 84.957031 C 50.035156 77.015625 52.855469 76.207031 56.335938 76.207031 C 59.820312 76.207031 62.640625 77.015625 62.640625 84.957031 Z M 62.640625 84.957031 " fill-opacity="1" fill-rule="nonzero"/></g><path fill="#66757f" d="M 61.378906 72.457031 C 61.378906 72.785156 61.347656 73.109375 61.285156 73.429688 C 61.21875 73.753906 61.121094 74.066406 60.996094 74.367188 C 60.871094 74.671875 60.714844 74.960938 60.53125 75.234375 C 60.347656 75.507812 60.136719 75.757812 59.902344 75.992188 C 59.667969 76.222656 59.414062 76.429688 59.140625 76.613281 C 58.863281 76.796875 58.574219 76.949219 58.265625 77.074219 C 57.960938 77.199219 57.644531 77.296875 57.320312 77.359375 C 56.996094 77.421875 56.667969 77.457031 56.335938 77.457031 C 56.007812 77.457031 55.679688 77.421875 55.355469 77.359375 C 55.027344 77.296875 54.714844 77.199219 54.40625 77.074219 C 54.101562 76.949219 53.8125 76.796875 53.535156 76.613281 C 53.261719 76.429688 53.007812 76.222656 52.773438 75.992188 C 52.539062 75.757812 52.328125 75.507812 52.144531 75.234375 C 51.960938 74.960938 51.804688 74.671875 51.679688 74.367188 C 51.550781 74.066406 51.457031 73.753906 51.390625 73.429688 C 51.328125 73.109375 51.292969 72.785156 51.292969 72.457031 C 51.292969 72.128906 51.328125 71.800781 51.390625 71.480469 C 51.457031 71.15625 51.550781 70.84375 51.679688 70.542969 C 51.804688 70.238281 51.960938 69.949219 52.144531 69.675781 C 52.328125 69.40625 52.539062 69.152344 52.773438 68.917969 C 53.007812 68.6875 53.261719 68.480469 53.535156 68.296875 C 53.8125 68.117188 54.101562 67.960938 54.40625 67.835938 C 54.714844 67.710938 55.027344 67.617188 55.355469 67.550781 C 55.679688 67.488281 56.007812 67.457031 56.335938 67.457031 C 56.667969 67.457031 56.996094 67.488281 57.320312 67.550781 C 57.644531 67.617188 57.960938 67.710938 58.265625 67.835938 C 58.574219 67.960938 58.863281 68.117188 59.140625 68.296875 C 59.414062 68.480469 59.667969 68.6875 59.902344 68.917969 C 60.136719 69.152344 60.347656 69.40625 60.53125 69.675781 C 60.714844 69.949219 60.871094 70.238281 60.996094 70.542969 C 61.121094 70.84375 61.21875 71.15625 61.285156 71.480469 C 61.347656 71.800781 61.378906 72.128906 61.378906 72.457031 Z M 61.378906 72.457031 " fill-opacity="1" fill-rule="nonzero"/><g clip-path="url(#id3)"><path fill="#66757f" d="M 51.292969 72.457031 C 48.773438 66.207031 52.554688 63.707031 52.554688 63.707031 C 52.554688 63.707031 55.078125 64.957031 55.078125 68.707031 C 55.078125 72.457031 51.292969 72.457031 51.292969 72.457031 Z M 51.292969 72.457031 " fill-opacity="1" fill-rule="nonzero"/></g><path fill="#546066" d="M 52.136719 71.085938 C 51.160156 68.015625 51.988281 66.214844 52.644531 65.359375 C 53.167969 65.921875 53.816406 66.964844 53.816406 68.707031 C 53.816406 70.289062 52.882812 70.871094 52.136719 71.085938 Z M 52.136719 71.085938 " fill-opacity="1" fill-rule="nonzero"/><g clip-path="url(#id4)"><path fill="#66757f" d="M 61.378906 72.457031 C 63.902344 66.207031 60.121094 63.707031 60.121094 63.707031 C 60.121094 63.707031 57.597656 64.957031 57.597656 68.707031 C 57.597656 72.457031 61.378906 72.457031 61.378906 72.457031 Z M 53.835938 76.207031 C 51.792969 77.652344 41.230469 78.707031 42.492188 69.957031 C 42.667969 68.71875 41.230469 68.707031 39.96875 69.957031 C 36.1875 73.707031 32.40625 79.746094 34.925781 94.957031 C 38.707031 88.707031 42.492188 89.957031 43.75 96.207031 C 47.53125 91.207031 51.316406 93.707031 53.835938 96.207031 C 57.617188 92.457031 53.835938 76.207031 53.835938 76.207031 Z M 58.800781 76.207031 C 60.84375 77.652344 71.40625 78.707031 70.144531 69.957031 C 69.964844 68.71875 71.40625 68.707031 72.667969 69.957031 C 76.449219 73.707031 80.230469 79.746094 77.710938 94.957031 C 73.925781 88.707031 70.144531 89.957031 68.886719 96.207031 C 65.101562 91.207031 61.320312 93.707031 58.800781 96.207031 C 55.019531 92.457031 58.800781 76.207031 58.800781 76.207031 Z M 58.800781 76.207031 " fill-opacity="1" fill-rule="nonzero"/></g><path fill="#292f33" d="M 55.078125 72.457031 C 55.078125 72.621094 55.042969 72.78125 54.980469 72.933594 C 54.917969 73.085938 54.824219 73.222656 54.707031 73.339844 C 54.589844 73.457031 54.453125 73.546875 54.296875 73.609375 C 54.144531 73.671875 53.984375 73.707031 53.816406 73.707031 C 53.648438 73.707031 53.488281 73.671875 53.332031 73.609375 C 53.179688 73.546875 53.042969 73.457031 52.925781 73.339844 C 52.804688 73.222656 52.714844 73.085938 52.652344 72.933594 C 52.585938 72.78125 52.554688 72.621094 52.554688 72.457031 C 52.554688 72.289062 52.585938 72.128906 52.652344 71.976562 C 52.714844 71.824219 52.804688 71.6875 52.925781 71.570312 C 53.042969 71.453125 53.179688 71.363281 53.332031 71.300781 C 53.488281 71.238281 53.648438 71.207031 53.816406 71.207031 C 53.984375 71.207031 54.144531 71.238281 54.296875 71.300781 C 54.453125 71.363281 54.589844 71.453125 54.707031 71.570312 C 54.824219 71.6875 54.917969 71.824219 54.980469 71.976562 C 55.042969 72.128906 55.078125 72.289062 55.078125 72.457031 Z M 55.078125 72.457031 " fill-opacity="1" fill-rule="nonzero"/><path fill="#292f33" d="M 60.121094 72.457031 C 60.121094 72.621094 60.085938 72.78125 60.023438 72.933594 C 59.960938 73.085938 59.867188 73.222656 59.75 73.339844 C 59.632812 73.457031 59.496094 73.546875 59.339844 73.609375 C 59.1875 73.671875 59.027344 73.707031 58.859375 73.707031 C 58.691406 73.707031 58.53125 73.671875 58.375 73.609375 C 58.222656 73.546875 58.085938 73.457031 57.96875 73.339844 C 57.847656 73.222656 57.757812 73.085938 57.695312 72.933594 C 57.628906 72.78125 57.597656 72.621094 57.597656 72.457031 C 57.597656 72.289062 57.628906 72.128906 57.695312 71.976562 C 57.757812 71.824219 57.847656 71.6875 57.96875 71.570312 C 58.085938 71.453125 58.222656 71.363281 58.375 71.300781 C 58.53125 71.238281 58.691406 71.207031 58.859375 71.207031 C 59.027344 71.207031 59.1875 71.238281 59.339844 71.300781 C 59.496094 71.363281 59.632812 71.453125 59.75 71.570312 C 59.867188 71.6875 59.960938 71.824219 60.023438 71.976562 C 60.085938 72.128906 60.121094 72.289062 60.121094 72.457031 Z M 60.121094 72.457031 " fill-opacity="1" fill-rule="nonzero"/><path fill="#546066" d="M 60.539062 71.085938 C 61.515625 68.015625 60.6875 66.214844 60.03125 65.359375 C 59.507812 65.921875 58.859375 66.964844 58.859375 68.707031 C 58.859375 70.289062 59.789062 70.871094 60.539062 71.085938 Z M 60.539062 71.085938 " fill-opacity="1" fill-rule="nonzero"/><path fill="#99aab5" d="M 43.726562 92.34375 C 44.851562 88.980469 44.449219 84.859375 42.46875 79.957031 C 40.597656 75.308594 40.8125 72.042969 41.046875 70.675781 C 40.984375 70.726562 40.925781 70.773438 40.859375 70.839844 C 37.449219 74.222656 34.246094 79.371094 35.738281 91.75 C 37.347656 90.027344 38.777344 89.597656 39.808594 89.597656 C 41.402344 89.597656 42.75 90.574219 43.726562 92.34375 Z M 43.726562 92.34375 " fill-opacity="1" fill-rule="nonzero"/><path fill="#99aab5" d="M 42.257812 75.269531 C 42.234375 75.230469 42.207031 75.195312 42.183594 75.160156 C 42.46875 78.707031 44.234375 79.957031 44.992188 83.707031 C 45.734375 87.378906 45.589844 90.605469 45.101562 93.160156 C 46.160156 92.445312 47.277344 92.066406 48.449219 92.066406 C 50.042969 92.066406 51.664062 92.742188 53.359375 94.101562 C 51.292969 82.457031 44.992188 79.957031 42.257812 75.269531 Z M 68.949219 92.34375 C 67.824219 88.980469 68.226562 84.859375 70.203125 79.957031 C 72.078125 75.308594 71.863281 72.042969 71.628906 70.675781 C 71.691406 70.726562 71.75 70.773438 71.816406 70.839844 C 75.226562 74.222656 78.429688 79.371094 76.9375 91.75 C 75.328125 90.027344 73.894531 89.597656 72.867188 89.597656 C 71.273438 89.597656 69.925781 90.574219 68.949219 92.34375 Z M 68.949219 92.34375 " fill-opacity="1" fill-rule="nonzero"/><path fill="#99aab5" d="M 70.417969 75.269531 L 70.492188 75.160156 C 70.203125 78.707031 68.441406 79.957031 67.683594 83.707031 C 66.941406 87.378906 67.082031 90.605469 67.574219 93.160156 C 66.511719 92.445312 65.398438 92.066406 64.222656 92.066406 C 62.628906 92.066406 61.011719 92.742188 59.3125 94.101562 C 61.378906 82.457031 67.683594 79.957031 70.417969 75.269531 Z M 57.203125 75.089844 C 56.726562 75.558594 55.945312 75.558594 55.472656 75.089844 L 54.753906 74.375 C 54.277344 73.902344 54.4375 73.515625 55.113281 73.515625 L 57.5625 73.515625 C 58.238281 73.515625 58.402344 73.902344 57.921875 74.375 Z M 57.203125 75.089844 " fill-opacity="1" fill-rule="nonzero"/><g clip-path="url(#id5)"><path fill="#66757f" d="M 58.585938 22.347656 C 58.585938 25.171875 57.226562 26.792969 56.320312 26.792969 C 55.414062 26.792969 54.058594 25.171875 54.058594 22.347656 C 54.058594 19.523438 55.070312 19.238281 56.320312 19.238281 C 57.570312 19.238281 58.585938 19.523438 58.585938 22.347656 Z M 58.585938 22.347656 " fill-opacity="1" fill-rule="nonzero"/></g><path fill="#66757f" d="M 58.132812 17.902344 C 58.132812 18.140625 58.085938 18.367188 57.996094 18.585938 C 57.902344 18.800781 57.773438 18.996094 57.601562 19.160156 C 57.433594 19.328125 57.234375 19.457031 57.015625 19.546875 C 56.792969 19.636719 56.5625 19.683594 56.320312 19.683594 C 56.082031 19.683594 55.851562 19.636719 55.628906 19.546875 C 55.40625 19.457031 55.210938 19.328125 55.039062 19.160156 C 54.871094 18.996094 54.738281 18.800781 54.648438 18.585938 C 54.554688 18.367188 54.507812 18.140625 54.507812 17.902344 C 54.507812 17.667969 54.554688 17.441406 54.648438 17.222656 C 54.738281 17.007812 54.871094 16.8125 55.039062 16.648438 C 55.210938 16.480469 55.40625 16.351562 55.628906 16.261719 C 55.851562 16.171875 56.082031 16.125 56.320312 16.125 C 56.5625 16.125 56.792969 16.171875 57.015625 16.261719 C 57.234375 16.351562 57.433594 16.480469 57.601562 16.648438 C 57.773438 16.8125 57.902344 17.007812 57.996094 17.222656 C 58.085938 17.441406 58.132812 17.667969 58.132812 17.902344 Z M 58.132812 17.902344 " fill-opacity="1" fill-rule="nonzero"/><g clip-path="url(#id6)"><path fill="#66757f" d="M 54.507812 17.902344 C 53.605469 15.683594 54.960938 14.792969 54.960938 14.792969 C 54.960938 14.792969 55.867188 15.238281 55.867188 16.570312 C 55.867188 17.902344 54.507812 17.902344 54.507812 17.902344 Z M 54.507812 17.902344 " fill-opacity="1" fill-rule="nonzero"/></g><path fill="#546066" d="M 54.8125 17.417969 C 54.460938 16.324219 54.757812 15.683594 54.996094 15.382812 C 55.183594 15.582031 55.414062 15.953125 55.414062 16.570312 C 55.414062 17.132812 55.082031 17.339844 54.8125 17.417969 Z M 54.8125 17.417969 " fill-opacity="1" fill-rule="nonzero"/><g clip-path="url(#id7)"><path fill="#66757f" d="M 58.132812 17.902344 C 59.039062 15.683594 57.679688 14.792969 57.679688 14.792969 C 57.679688 14.792969 56.773438 15.238281 56.773438 16.570312 C 56.773438 17.902344 58.132812 17.902344 58.132812 17.902344 Z M 55.421875 19.238281 C 54.6875 19.75 50.894531 20.125 51.347656 17.015625 C 51.410156 16.574219 50.894531 16.570312 50.441406 17.015625 C 49.082031 18.347656 47.722656 20.496094 48.628906 25.902344 C 49.988281 23.683594 51.347656 24.125 51.800781 26.347656 C 53.160156 24.570312 54.515625 25.460938 55.421875 26.347656 C 56.78125 25.015625 55.421875 19.238281 55.421875 19.238281 Z M 57.207031 19.238281 C 57.9375 19.75 61.734375 20.125 61.28125 17.015625 C 61.21875 16.574219 61.734375 16.570312 62.1875 17.015625 C 63.546875 18.347656 64.902344 20.496094 64 25.902344 C 62.640625 23.683594 61.28125 24.125 60.828125 26.347656 C 59.46875 24.570312 58.109375 25.460938 57.207031 26.347656 C 55.847656 25.015625 57.207031 19.238281 57.207031 19.238281 Z M 57.207031 19.238281 " fill-opacity="1" fill-rule="nonzero"/></g><path fill="#292f33" d="M 55.867188 17.902344 C 55.867188 18.027344 55.824219 18.132812 55.734375 18.21875 C 55.648438 18.304688 55.539062 18.347656 55.414062 18.347656 C 55.289062 18.347656 55.183594 18.304688 55.09375 18.21875 C 55.007812 18.132812 54.960938 18.027344 54.960938 17.902344 C 54.960938 17.78125 55.007812 17.675781 55.09375 17.589844 C 55.183594 17.503906 55.289062 17.460938 55.414062 17.460938 C 55.539062 17.460938 55.648438 17.503906 55.734375 17.589844 C 55.824219 17.675781 55.867188 17.78125 55.867188 17.902344 Z M 55.867188 17.902344 " fill-opacity="1" fill-rule="nonzero"/><path fill="#292f33" d="M 57.679688 17.902344 C 57.679688 18.027344 57.636719 18.132812 57.546875 18.21875 C 57.457031 18.304688 57.351562 18.347656 57.226562 18.347656 C 57.101562 18.347656 56.996094 18.304688 56.90625 18.21875 C 56.816406 18.132812 56.773438 18.027344 56.773438 17.902344 C 56.773438 17.78125 56.816406 17.675781 56.90625 17.589844 C 56.996094 17.503906 57.101562 17.460938 57.226562 17.460938 C 57.351562 17.460938 57.457031 17.503906 57.546875 17.589844 C 57.636719 17.675781 57.679688 17.78125 57.679688 17.902344 Z M 57.679688 17.902344 " fill-opacity="1" fill-rule="nonzero"/><path fill="#546066" d="M 57.828125 17.417969 C 58.179688 16.324219 57.882812 15.683594 57.648438 15.382812 C 57.460938 15.582031 57.226562 15.953125 57.226562 16.570312 C 57.226562 17.132812 57.5625 17.339844 57.828125 17.417969 Z M 57.828125 17.417969 " fill-opacity="1" fill-rule="nonzero"/><path fill="#99aab5" d="M 51.789062 24.976562 C 52.195312 23.777344 52.050781 22.3125 51.339844 20.570312 C 50.667969 18.917969 50.746094 17.757812 50.828125 17.273438 C 50.804688 17.289062 50.785156 17.304688 50.761719 17.328125 C 49.535156 18.53125 48.386719 20.363281 48.921875 24.765625 C 49.5 24.152344 50.015625 24 50.382812 24 C 50.957031 24 51.441406 24.347656 51.789062 24.976562 Z M 51.789062 24.976562 " fill-opacity="1" fill-rule="nonzero"/><path fill="#99aab5" d="M 51.261719 18.902344 C 51.253906 18.890625 51.246094 18.878906 51.238281 18.867188 C 51.339844 20.125 51.972656 20.570312 52.246094 21.902344 C 52.511719 23.210938 52.460938 24.355469 52.285156 25.265625 C 52.664062 25.011719 53.066406 24.878906 53.488281 24.878906 C 54.058594 24.878906 54.640625 25.117188 55.253906 25.601562 C 54.507812 21.460938 52.246094 20.570312 51.261719 18.902344 Z M 60.851562 24.976562 C 60.445312 23.777344 60.59375 22.3125 61.300781 20.570312 C 61.976562 18.917969 61.898438 17.757812 61.8125 17.273438 C 61.835938 17.289062 61.859375 17.304688 61.878906 17.328125 C 63.105469 18.53125 64.257812 20.363281 63.722656 24.765625 C 63.144531 24.152344 62.628906 24 62.257812 24 C 61.6875 24 61.203125 24.347656 60.851562 24.976562 Z M 60.851562 24.976562 " fill-opacity="1" fill-rule="nonzero"/><path fill="#99aab5" d="M 61.378906 18.902344 L 61.40625 18.867188 C 61.300781 20.125 60.667969 20.570312 60.398438 21.902344 C 60.128906 23.210938 60.179688 24.355469 60.355469 25.265625 C 59.976562 25.011719 59.574219 24.878906 59.152344 24.878906 C 58.582031 24.878906 58 25.117188 57.390625 25.601562 C 58.132812 21.460938 60.398438 20.570312 61.378906 18.902344 Z M 56.632812 18.839844 C 56.460938 19.007812 56.179688 19.007812 56.011719 18.839844 L 55.75 18.585938 C 55.582031 18.417969 55.640625 18.28125 55.882812 18.28125 L 56.761719 18.28125 C 57.003906 18.28125 57.0625 18.417969 56.890625 18.585938 Z M 56.632812 18.839844 " fill-opacity="1" fill-rule="nonzero"/><g clip-path="url(#id8)"><path fill="#ffffff" d="M 87.175781 38.761719 C 86.453125 36.796875 84.019531 35.503906 81.238281 36.769531 C 81.238281 36.769531 80.253906 34.632812 77.617188 34.71875 C 74.980469 34.800781 74.371094 37.21875 74.371094 37.21875 C 74.371094 37.21875 70.921875 35.363281 69.359375 39.15625 C 69.359375 39.15625 67.214844 38.539062 66.054688 40.363281 C 64.894531 42.191406 67.679688 43.933594 69.589844 42.613281 C 69.589844 42.613281 69.820312 44.664062 73.066406 45.648438 C 76.3125 46.628906 79.035156 45.28125 79.761719 44.15625 C 79.761719 44.15625 81.207031 46.039062 84.683594 45.535156 C 88.160156 45.027344 88.074219 43.007812 88.074219 43.007812 C 88.074219 43.007812 90.652344 43.566406 91.582031 41.882812 C 92.507812 40.195312 91.402344 38.039062 89.8125 37.75 C 88.105469 37.441406 87.175781 38.761719 87.175781 38.761719 Z M 87.175781 38.761719 " fill-opacity="1" fill-rule="nonzero"/></g><g clip-path="url(#id9)"><path fill="#ffffff" d="M 42.398438 55.503906 C 41.675781 53.539062 39.242188 52.246094 36.460938 53.507812 C 36.460938 53.507812 35.476562 51.375 32.839844 51.457031 C 30.203125 51.542969 29.59375 53.960938 29.59375 53.960938 C 29.59375 53.960938 26.144531 52.105469 24.582031 55.898438 C 24.582031 55.898438 22.4375 55.28125 21.277344 57.105469 C 20.117188 58.933594 22.902344 60.675781 24.8125 59.355469 C 24.8125 59.355469 25.042969 61.40625 28.289062 62.390625 C 31.535156 63.371094 34.257812 62.023438 34.984375 60.898438 C 34.984375 60.898438 36.429688 62.78125 39.90625 62.277344 C 43.386719 61.769531 43.296875 59.746094 43.296875 59.746094 C 43.296875 59.746094 45.875 60.308594 46.804688 58.625 C 47.730469 56.9375 46.625 54.78125 45.035156 54.492188 C 43.328125 54.183594 42.398438 55.503906 42.398438 55.503906 Z M 42.398438 55.503906 " fill-opacity="1" fill-rule="nonzero"/></g></svg>