<svg xmlns="http://www.w3.org/2000/svg" xmlns:xlink="http://www.w3.org/1999/xlink" width="100" zoomAndPan="magnify" viewBox="0 0 75 74.999997" height="100" preserveAspectRatio="xMidYMid meet" version="1.0"><defs><clipPath id="id1"><path d="M 13.363281 11.664062 L 61.363281 11.664062 L 61.363281 66.859375 L 13.363281 66.859375 Z M 13.363281 11.664062 " clip-rule="nonzero"/></clipPath><clipPath id="id2"><path d="M 13.363281 7.285156 L 61.363281 7.285156 L 61.363281 57.722656 L 13.363281 57.722656 Z M 13.363281 7.285156 " clip-rule="nonzero"/></clipPath><clipPath id="id3"><path d="M 13.363281 10.789062 L 61.363281 10.789062 L 61.363281 67.984375 L 13.363281 67.984375 Z M 13.363281 10.789062 " clip-rule="nonzero"/></clipPath></defs><g clip-path="url(#id1)"><path fill="#f3ef15" d="M 60.199219 17.058594 L 56.355469 18.9375 L 56.355469 11.679688 L 47.929688 11.679688 L 47.929688 23.054688 L 39.445312 27.195312 L 26.496094 27.195312 L 26.496094 11.679688 L 18.070312 11.679688 L 18.070312 37.648438 L 13.363281 39.949219 L 13.363281 66.78125 L 31.800781 66.78125 L 31.800781 48.347656 L 33.039062 47.421875 L 41.6875 47.421875 L 42.925781 48.347656 L 42.925781 66.78125 L 61.363281 66.78125 L 61.363281 16.496094 L 60.199219 17.058594 " fill-opacity="1" fill-rule="nonzero"/></g><g clip-path="url(#id2)"><path fill="#fabd15" d="M 54.871094 25.496094 C 54.859375 25.769531 54.832031 26.046875 54.734375 26.308594 C 54.621094 26.632812 54.460938 26.933594 54.25 27.210938 C 54.140625 27.347656 54.015625 27.472656 53.878906 27.585938 C 53.445312 27.960938 52.863281 28.199219 52.292969 28.222656 C 51.871094 28.246094 51.449219 28.171875 51.054688 28.023438 C 50.546875 27.824219 50.101562 27.433594 49.800781 26.972656 C 49.441406 26.421875 49.292969 25.730469 49.382812 25.082031 C 49.46875 24.480469 49.742188 23.878906 50.222656 23.503906 C 50.296875 23.441406 50.386719 23.390625 50.472656 23.34375 C 50.210938 23.679688 49.964844 24.003906 49.777344 24.394531 C 49.589844 24.804688 49.53125 25.28125 49.578125 25.730469 C 49.628906 26.195312 49.800781 26.632812 50.085938 26.996094 C 50.347656 27.335938 50.683594 27.597656 51.066406 27.773438 C 51.386719 27.933594 51.746094 27.972656 52.09375 27.996094 C 52.269531 27.984375 52.429688 27.984375 52.589844 27.949219 C 52.777344 27.910156 52.972656 27.847656 53.148438 27.761719 C 53.59375 27.546875 53.976562 27.222656 54.238281 26.785156 C 54.363281 26.582031 54.460938 26.359375 54.523438 26.132812 C 54.558594 26.007812 54.585938 25.882812 54.597656 25.746094 C 54.609375 25.644531 54.609375 25.542969 54.621094 25.445312 C 54.609375 25.207031 54.585938 24.980469 54.523438 24.742188 C 54.484375 24.605469 54.4375 24.480469 54.386719 24.355469 C 54.421875 24.492188 54.449219 24.644531 54.449219 24.792969 C 54.449219 25.683594 53.742188 26.394531 52.863281 26.394531 C 51.984375 26.394531 51.277344 25.683594 51.277344 24.792969 C 51.277344 23.90625 51.984375 23.191406 52.863281 23.191406 C 53.136719 23.191406 53.382812 23.253906 53.605469 23.378906 C 53.59375 23.378906 53.59375 23.367188 53.582031 23.367188 C 53.359375 23.203125 53.121094 23.089844 52.863281 22.992188 C 52.714844 22.941406 52.566406 22.917969 52.417969 22.867188 C 52.304688 22.839844 52.179688 22.816406 52.082031 22.777344 C 52.355469 22.703125 52.652344 22.742188 52.914062 22.828125 C 53.210938 22.929688 53.496094 23.066406 53.742188 23.253906 C 53.988281 23.441406 54.214844 23.679688 54.386719 23.941406 C 54.558594 24.21875 54.683594 24.507812 54.757812 24.832031 C 54.84375 25.03125 54.882812 25.269531 54.871094 25.496094 Z M 54.894531 15.894531 C 54.882812 16.171875 54.859375 16.445312 54.757812 16.707031 C 54.648438 17.035156 54.484375 17.335938 54.273438 17.609375 C 54.164062 17.746094 54.039062 17.871094 53.902344 17.984375 C 53.46875 18.359375 52.886719 18.597656 52.316406 18.625 C 51.894531 18.648438 51.476562 18.574219 51.078125 18.421875 C 50.570312 18.222656 50.125 17.835938 49.828125 17.371094 C 49.46875 16.820312 49.320312 16.132812 49.40625 15.480469 C 49.492188 14.882812 49.765625 14.28125 50.25 13.90625 C 50.324219 13.84375 50.410156 13.792969 50.496094 13.742188 C 50.234375 14.082031 49.988281 14.40625 49.800781 14.792969 C 49.617188 15.207031 49.554688 15.683594 49.605469 16.132812 C 49.652344 16.597656 49.828125 17.035156 50.113281 17.398438 C 50.371094 17.734375 50.707031 17.996094 51.089844 18.171875 C 51.414062 18.335938 51.773438 18.375 52.121094 18.398438 C 52.292969 18.386719 52.453125 18.386719 52.613281 18.347656 C 52.800781 18.3125 53 18.25 53.171875 18.160156 C 53.617188 17.949219 54.003906 17.621094 54.261719 17.183594 C 54.386719 16.984375 54.484375 16.757812 54.546875 16.535156 C 54.585938 16.40625 54.609375 16.28125 54.621094 16.144531 C 54.636719 16.046875 54.636719 15.945312 54.648438 15.84375 C 54.636719 15.605469 54.609375 15.382812 54.546875 15.144531 C 54.511719 15.007812 54.460938 14.882812 54.410156 14.757812 C 54.449219 14.894531 54.472656 15.042969 54.472656 15.195312 C 54.472656 16.082031 53.765625 16.796875 52.886719 16.796875 C 52.007812 16.796875 51.300781 16.082031 51.300781 15.195312 C 51.300781 14.304688 52.007812 13.59375 52.886719 13.59375 C 53.160156 13.59375 53.40625 13.65625 53.632812 13.78125 C 53.617188 13.78125 53.617188 13.769531 53.605469 13.769531 C 53.382812 13.605469 53.148438 13.492188 52.886719 13.390625 C 52.738281 13.34375 52.589844 13.316406 52.441406 13.265625 C 52.328125 13.242188 52.207031 13.214844 52.105469 13.179688 C 52.378906 13.105469 52.675781 13.140625 52.9375 13.230469 C 53.234375 13.328125 53.519531 13.46875 53.765625 13.65625 C 54.015625 13.84375 54.238281 14.082031 54.410156 14.34375 C 54.585938 14.617188 54.707031 14.90625 54.785156 15.230469 C 54.871094 15.445312 54.90625 15.683594 54.894531 15.894531 Z M 35.304688 34.292969 C 35.367188 34.503906 35.394531 34.742188 35.378906 34.96875 C 35.367188 35.242188 35.34375 35.519531 35.242188 35.78125 C 35.132812 36.109375 34.972656 36.40625 34.761719 36.683594 C 34.648438 36.820312 34.523438 36.945312 34.390625 37.058594 C 33.957031 37.433594 33.371094 37.671875 32.804688 37.695312 C 32.382812 37.722656 31.960938 37.648438 31.5625 37.496094 C 31.054688 37.296875 30.609375 36.910156 30.3125 36.445312 C 30.089844 36.09375 29.953125 35.707031 29.890625 35.292969 C 29.855469 35.042969 29.855469 34.792969 29.890625 34.554688 C 29.976562 33.957031 30.25 33.355469 30.734375 32.980469 C 30.808594 32.917969 30.894531 32.867188 30.980469 32.816406 C 30.722656 33.152344 30.472656 33.480469 30.289062 33.867188 C 30.101562 34.28125 30.039062 34.742188 30.089844 35.195312 L 30.089844 35.207031 C 30.140625 35.667969 30.3125 36.109375 30.597656 36.46875 C 30.859375 36.808594 31.191406 37.070312 31.578125 37.246094 C 31.898438 37.410156 32.257812 37.445312 32.605469 37.472656 C 32.777344 37.460938 32.9375 37.460938 33.101562 37.421875 C 33.285156 37.382812 33.484375 37.320312 33.65625 37.234375 C 34.105469 37.019531 34.488281 36.695312 34.75 36.257812 C 34.871094 36.058594 34.972656 35.832031 35.03125 35.605469 C 35.070312 35.480469 35.09375 35.355469 35.109375 35.21875 C 35.121094 35.117188 35.121094 35.019531 35.132812 34.917969 C 35.121094 34.679688 35.09375 34.457031 35.03125 34.21875 C 34.996094 34.082031 34.945312 33.957031 34.898438 33.828125 C 34.933594 33.96875 34.957031 34.117188 34.957031 34.269531 C 34.957031 35.15625 34.253906 35.871094 33.371094 35.871094 C 32.53125 35.871094 31.835938 35.195312 31.785156 34.355469 C 31.785156 34.332031 31.785156 34.292969 31.785156 34.269531 C 31.785156 33.378906 32.492188 32.664062 33.371094 32.664062 C 33.644531 32.664062 33.894531 32.730469 34.117188 32.855469 C 34.105469 32.855469 34.105469 32.839844 34.089844 32.839844 C 33.867188 32.679688 33.632812 32.566406 33.371094 32.464844 C 33.222656 32.414062 33.074219 32.390625 32.925781 32.339844 C 32.816406 32.316406 32.691406 32.289062 32.59375 32.253906 C 32.863281 32.175781 33.164062 32.214844 33.421875 32.300781 C 33.71875 32.402344 34.003906 32.539062 34.253906 32.730469 C 34.363281 32.816406 34.464844 32.902344 34.5625 33.003906 C 34.6875 33.128906 34.796875 33.265625 34.898438 33.417969 C 35.109375 33.679688 35.230469 33.980469 35.304688 34.292969 Z M 25.304688 15.894531 C 25.292969 16.171875 25.269531 16.445312 25.171875 16.707031 C 25.058594 17.035156 24.898438 17.335938 24.6875 17.609375 C 24.574219 17.746094 24.453125 17.871094 24.316406 17.984375 C 23.882812 18.359375 23.300781 18.597656 22.730469 18.625 C 22.308594 18.648438 21.886719 18.574219 21.492188 18.421875 C 20.984375 18.222656 20.535156 17.835938 20.238281 17.371094 C 19.878906 16.820312 19.730469 16.132812 19.816406 15.480469 C 19.90625 14.882812 20.175781 14.28125 20.660156 13.90625 C 20.734375 13.84375 20.820312 13.792969 20.90625 13.742188 C 20.648438 14.082031 20.398438 14.40625 20.214844 14.792969 C 20.027344 15.207031 19.964844 15.683594 20.015625 16.132812 C 20.066406 16.597656 20.238281 17.035156 20.523438 17.398438 C 20.785156 17.734375 21.117188 17.996094 21.503906 18.171875 C 21.824219 18.335938 22.183594 18.375 22.53125 18.398438 C 22.703125 18.386719 22.867188 18.386719 23.027344 18.347656 C 23.210938 18.3125 23.410156 18.25 23.585938 18.160156 C 24.03125 17.949219 24.414062 17.621094 24.675781 17.183594 C 24.800781 16.984375 24.898438 16.757812 24.960938 16.535156 C 24.996094 16.40625 25.023438 16.28125 25.035156 16.144531 C 25.046875 16.046875 25.046875 15.945312 25.058594 15.84375 C 25.046875 15.605469 25.023438 15.382812 24.960938 15.144531 C 24.921875 15.007812 24.871094 14.882812 24.824219 14.757812 C 24.859375 14.894531 24.886719 15.042969 24.886719 15.195312 C 24.886719 16.082031 24.179688 16.796875 23.300781 16.796875 C 22.421875 16.796875 21.75 16.082031 21.75 15.195312 C 21.75 14.304688 22.457031 13.59375 23.335938 13.59375 C 23.609375 13.59375 23.855469 13.65625 24.082031 13.78125 C 24.066406 13.78125 24.066406 13.769531 24.054688 13.769531 C 23.832031 13.605469 23.597656 13.492188 23.335938 13.390625 C 23.1875 13.34375 23.039062 13.316406 22.890625 13.265625 C 22.777344 13.242188 22.65625 13.214844 22.554688 13.179688 C 22.828125 13.105469 23.125 13.140625 23.386719 13.230469 C 23.683594 13.328125 23.96875 13.46875 24.214844 13.65625 C 24.464844 13.84375 24.6875 14.082031 24.859375 14.34375 C 25.035156 14.617188 25.15625 14.90625 25.234375 15.230469 C 25.292969 15.445312 25.320312 15.683594 25.304688 15.894531 Z M 25.304688 25.496094 C 25.292969 25.769531 25.269531 26.046875 25.171875 26.308594 C 25.058594 26.632812 24.898438 26.933594 24.6875 27.210938 C 24.574219 27.347656 24.453125 27.472656 24.316406 27.585938 C 23.882812 27.960938 23.300781 28.199219 22.730469 28.222656 C 22.308594 28.246094 21.886719 28.171875 21.492188 28.023438 C 20.984375 27.824219 20.535156 27.433594 20.238281 26.972656 C 19.878906 26.421875 19.730469 25.730469 19.816406 25.082031 C 19.90625 24.480469 20.175781 23.878906 20.660156 23.503906 C 20.734375 23.441406 20.820312 23.390625 20.90625 23.34375 C 20.648438 23.679688 20.398438 24.003906 20.214844 24.394531 C 20.027344 24.804688 19.964844 25.28125 20.015625 25.730469 C 20.066406 26.195312 20.238281 26.632812 20.523438 26.996094 C 20.785156 27.335938 21.117188 27.597656 21.503906 27.773438 C 21.824219 27.933594 22.183594 27.972656 22.53125 27.996094 C 22.703125 27.984375 22.867188 27.984375 23.027344 27.949219 C 23.210938 27.910156 23.410156 27.847656 23.585938 27.761719 C 24.03125 27.546875 24.414062 27.222656 24.675781 26.785156 C 24.800781 26.582031 24.898438 26.359375 24.960938 26.132812 C 24.996094 26.007812 25.023438 25.882812 25.035156 25.746094 C 25.046875 25.644531 25.046875 25.542969 25.058594 25.445312 C 25.046875 25.207031 25.023438 24.980469 24.960938 24.742188 C 24.921875 24.605469 24.871094 24.480469 24.824219 24.355469 C 24.859375 24.492188 24.886719 24.644531 24.886719 24.792969 C 24.886719 25.683594 24.179688 26.394531 23.300781 26.394531 C 22.421875 26.394531 21.714844 25.683594 21.714844 24.792969 C 21.714844 23.90625 22.421875 23.191406 23.300781 23.191406 C 23.570312 23.191406 23.820312 23.253906 24.042969 23.378906 C 24.03125 23.378906 24.03125 23.367188 24.019531 23.367188 C 23.796875 23.203125 23.558594 23.089844 23.300781 22.992188 C 23.152344 22.941406 23.003906 22.917969 22.855469 22.867188 C 22.742188 22.839844 22.617188 22.816406 22.519531 22.777344 C 22.792969 22.703125 23.089844 22.742188 23.347656 22.828125 C 23.648438 22.929688 23.929688 23.066406 24.179688 23.253906 C 24.425781 23.441406 24.648438 23.679688 24.824219 23.941406 C 24.996094 24.21875 25.121094 24.507812 25.195312 24.832031 C 25.292969 25.03125 25.320312 25.269531 25.304688 25.496094 Z M 21.503906 37.609375 C 20.996094 37.410156 20.550781 37.019531 20.25 36.558594 C 19.890625 36.007812 19.742188 35.320312 19.832031 34.667969 C 19.917969 34.066406 20.191406 33.464844 20.671875 33.089844 C 20.746094 33.027344 20.835938 32.980469 20.921875 32.929688 C 20.660156 33.265625 20.414062 33.59375 20.226562 33.980469 C 20.039062 34.394531 19.980469 34.867188 20.027344 35.320312 C 20.078125 35.78125 20.25 36.21875 20.535156 36.582031 C 20.796875 36.921875 21.132812 37.183594 21.515625 37.359375 C 21.835938 37.523438 22.195312 37.558594 22.542969 37.585938 C 22.71875 37.570312 22.878906 37.570312 23.039062 37.535156 C 23.226562 37.496094 23.421875 37.433594 23.597656 37.347656 C 24.042969 37.132812 24.425781 36.808594 24.6875 36.371094 C 24.8125 36.171875 24.910156 35.945312 24.972656 35.71875 C 25.007812 35.59375 25.035156 35.46875 25.046875 35.332031 C 25.058594 35.230469 25.058594 35.132812 25.070312 35.03125 C 25.058594 34.792969 25.035156 34.566406 24.972656 34.332031 C 24.933594 34.191406 24.886719 34.066406 24.835938 33.941406 C 24.871094 34.082031 24.898438 34.230469 24.898438 34.378906 C 24.898438 35.269531 24.191406 35.984375 23.3125 35.984375 C 22.433594 35.984375 21.75 35.257812 21.75 34.378906 C 21.75 33.492188 22.457031 32.777344 23.335938 32.777344 C 23.609375 32.777344 23.855469 32.839844 24.082031 32.964844 C 24.066406 32.964844 24.066406 32.953125 24.054688 32.953125 C 23.832031 32.792969 23.597656 32.679688 23.335938 32.578125 C 23.1875 32.527344 23.039062 32.503906 22.890625 32.453125 C 22.777344 32.429688 22.65625 32.402344 22.554688 32.367188 C 22.828125 32.289062 23.125 32.328125 23.386719 32.414062 C 23.683594 32.515625 23.96875 32.652344 24.214844 32.839844 C 24.464844 33.027344 24.6875 33.265625 24.859375 33.53125 C 25.035156 33.804688 25.15625 34.09375 25.234375 34.417969 C 25.292969 34.628906 25.320312 34.867188 25.304688 35.09375 C 25.292969 35.367188 25.269531 35.644531 25.171875 35.90625 C 25.058594 36.234375 24.898438 36.53125 24.6875 36.808594 C 24.574219 36.945312 24.453125 37.070312 24.316406 37.183594 C 23.882812 37.558594 23.300781 37.796875 22.730469 37.820312 C 22.308594 37.835938 21.898438 37.773438 21.503906 37.609375 Z M 42.925781 7.285156 L 42.925781 25.605469 L 31.800781 25.605469 L 31.800781 7.285156 L 13.363281 7.285156 L 13.363281 43.378906 L 14.527344 42.804688 L 23.210938 38.558594 C 23.855469 38.449219 24.453125 38.148438 24.921875 37.722656 L 29.519531 35.480469 C 29.78125 36.984375 31.082031 38.121094 32.628906 38.121094 C 34.375 38.121094 35.800781 36.695312 35.800781 34.917969 C 35.800781 34.105469 35.503906 33.367188 35.007812 32.804688 L 48.648438 26.121094 C 48.972656 27.773438 50.410156 29.023438 52.132812 29.023438 C 54.089844 29.023438 55.6875 27.410156 55.6875 25.433594 C 55.6875 24.542969 55.367188 23.71875 54.832031 23.089844 L 60.199219 20.476562 L 61.363281 19.898438 L 61.363281 7.285156 Z M 53.902344 56.132812 C 53.46875 56.507812 52.886719 56.746094 52.316406 56.769531 C 51.894531 56.796875 51.476562 56.71875 51.078125 56.570312 C 50.570312 56.371094 50.125 55.980469 49.828125 55.519531 C 49.46875 54.96875 49.320312 54.28125 49.40625 53.628906 C 49.492188 53.027344 49.765625 52.425781 50.25 52.050781 C 50.324219 51.988281 50.410156 51.941406 50.496094 51.890625 C 50.234375 52.226562 49.988281 52.550781 49.800781 52.941406 C 49.617188 53.355469 49.554688 53.828125 49.605469 54.28125 C 49.652344 54.742188 49.828125 55.179688 50.113281 55.542969 C 50.371094 55.882812 50.707031 56.144531 51.089844 56.320312 C 51.414062 56.484375 51.773438 56.519531 52.121094 56.546875 C 52.292969 56.53125 52.453125 56.53125 52.613281 56.496094 C 52.800781 56.457031 53 56.394531 53.171875 56.308594 C 53.617188 56.09375 54.003906 55.769531 54.261719 55.332031 C 54.386719 55.132812 54.484375 54.90625 54.546875 54.679688 C 54.585938 54.554688 54.609375 54.429688 54.621094 54.292969 C 54.636719 54.191406 54.636719 54.09375 54.648438 53.992188 C 54.636719 53.753906 54.609375 53.527344 54.546875 53.292969 C 54.511719 53.152344 54.460938 53.027344 54.410156 52.902344 C 54.449219 53.042969 54.472656 53.191406 54.472656 53.339844 C 54.472656 54.230469 53.765625 54.941406 52.886719 54.941406 C 52.007812 54.941406 51.300781 54.230469 51.300781 53.339844 C 51.300781 52.453125 52.007812 51.738281 52.886719 51.738281 C 53.160156 51.738281 53.40625 51.800781 53.632812 51.925781 C 53.617188 51.925781 53.617188 51.914062 53.605469 51.914062 C 53.382812 51.75 53.148438 51.640625 52.886719 51.539062 C 52.738281 51.488281 52.589844 51.464844 52.441406 51.414062 C 52.328125 51.390625 52.207031 51.363281 52.105469 51.324219 C 52.378906 51.25 52.675781 51.289062 52.9375 51.375 C 53.234375 51.476562 53.519531 51.613281 53.765625 51.800781 C 54.015625 51.988281 54.238281 52.226562 54.410156 52.488281 C 54.585938 52.765625 54.707031 53.054688 54.785156 53.378906 C 54.84375 53.589844 54.871094 53.828125 54.859375 54.054688 C 54.84375 54.328125 54.820312 54.605469 54.722656 54.867188 C 54.609375 55.195312 54.449219 55.492188 54.238281 55.769531 C 54.164062 55.894531 54.039062 56.019531 53.902344 56.132812 Z M 52.167969 50.398438 C 50.210938 50.398438 48.613281 52.015625 48.613281 53.992188 C 48.613281 55.96875 50.210938 57.582031 52.167969 57.582031 C 54.125 57.582031 55.726562 55.96875 55.726562 53.992188 C 55.726562 52.003906 54.125 50.398438 52.167969 50.398438 Z M 53.902344 46.59375 C 53.46875 46.972656 52.886719 47.207031 52.316406 47.234375 C 51.894531 47.257812 51.476562 47.183594 51.078125 47.035156 C 50.570312 46.832031 50.125 46.445312 49.828125 45.980469 C 49.46875 45.433594 49.320312 44.742188 49.40625 44.09375 C 49.492188 43.492188 49.765625 42.890625 50.25 42.515625 C 50.324219 42.453125 50.410156 42.402344 50.496094 42.351562 C 50.234375 42.691406 49.988281 43.015625 49.800781 43.402344 C 49.617188 43.816406 49.554688 44.292969 49.605469 44.742188 C 49.652344 45.207031 49.828125 45.644531 50.113281 46.007812 C 50.371094 46.34375 50.707031 46.609375 51.089844 46.785156 C 51.414062 46.945312 51.773438 46.984375 52.121094 47.007812 C 52.292969 46.996094 52.453125 46.996094 52.613281 46.957031 C 52.800781 46.921875 53 46.859375 53.171875 46.769531 C 53.617188 46.558594 54.003906 46.234375 54.261719 45.792969 C 54.386719 45.59375 54.484375 45.367188 54.546875 45.144531 C 54.585938 45.019531 54.609375 44.894531 54.621094 44.753906 C 54.636719 44.65625 54.636719 44.554688 54.648438 44.457031 C 54.636719 44.21875 54.609375 43.992188 54.546875 43.753906 C 54.511719 43.617188 54.460938 43.492188 54.410156 43.367188 C 54.449219 43.503906 54.472656 43.65625 54.472656 43.804688 C 54.472656 44.691406 53.765625 45.40625 52.886719 45.40625 C 52.007812 45.40625 51.300781 44.691406 51.300781 43.804688 C 51.300781 42.914062 52.007812 42.203125 52.886719 42.203125 C 53.160156 42.203125 53.40625 42.265625 53.632812 42.390625 C 53.617188 42.390625 53.617188 42.378906 53.605469 42.378906 C 53.382812 42.214844 53.148438 42.101562 52.886719 42.003906 C 52.738281 41.953125 52.589844 41.925781 52.441406 41.878906 C 52.328125 41.851562 52.207031 41.828125 52.105469 41.789062 C 52.378906 41.714844 52.675781 41.75 52.9375 41.839844 C 53.234375 41.941406 53.519531 42.078125 53.765625 42.265625 C 54.015625 42.453125 54.238281 42.691406 54.410156 42.953125 C 54.585938 43.230469 54.707031 43.515625 54.785156 43.84375 C 54.84375 44.054688 54.871094 44.292969 54.859375 44.519531 C 54.84375 44.792969 54.820312 45.070312 54.722656 45.332031 C 54.609375 45.65625 54.449219 45.957031 54.238281 46.234375 C 54.164062 46.359375 54.039062 46.484375 53.902344 46.59375 Z M 52.167969 40.777344 C 50.210938 40.777344 48.613281 42.390625 48.613281 44.367188 C 48.613281 46.34375 50.210938 47.960938 52.167969 47.960938 C 54.125 47.960938 55.726562 46.34375 55.726562 44.367188 C 55.726562 42.390625 54.125 40.777344 52.167969 40.777344 Z M 53.902344 37.058594 C 53.46875 37.433594 52.886719 37.671875 52.316406 37.695312 C 51.894531 37.722656 51.476562 37.648438 51.078125 37.496094 C 50.570312 37.296875 50.125 36.910156 49.828125 36.445312 C 49.46875 35.894531 49.320312 35.207031 49.40625 34.554688 C 49.492188 33.957031 49.765625 33.355469 50.25 32.980469 C 50.324219 32.917969 50.410156 32.867188 50.496094 32.816406 C 50.234375 33.152344 49.988281 33.480469 49.800781 33.867188 C 49.617188 34.28125 49.554688 34.757812 49.605469 35.207031 C 49.652344 35.667969 49.828125 36.109375 50.113281 36.46875 C 50.371094 36.808594 50.707031 37.070312 51.089844 37.246094 C 51.414062 37.410156 51.773438 37.445312 52.121094 37.472656 C 52.292969 37.460938 52.453125 37.460938 52.613281 37.421875 C 52.800781 37.382812 53 37.320312 53.171875 37.234375 C 53.617188 37.019531 54.003906 36.695312 54.261719 36.257812 C 54.386719 36.058594 54.484375 35.832031 54.546875 35.605469 C 54.585938 35.480469 54.609375 35.355469 54.621094 35.21875 C 54.636719 35.117188 54.636719 35.019531 54.648438 34.917969 C 54.636719 34.679688 54.609375 34.457031 54.546875 34.21875 C 54.511719 34.082031 54.460938 33.957031 54.410156 33.828125 C 54.449219 33.96875 54.472656 34.117188 54.472656 34.269531 C 54.472656 35.15625 53.765625 35.871094 52.886719 35.871094 C 52.007812 35.871094 51.300781 35.15625 51.300781 34.269531 C 51.300781 33.378906 52.007812 32.664062 52.886719 32.664062 C 53.160156 32.664062 53.40625 32.730469 53.632812 32.855469 C 53.617188 32.855469 53.617188 32.839844 53.605469 32.839844 C 53.382812 32.679688 53.148438 32.566406 52.886719 32.464844 C 52.738281 32.414062 52.589844 32.390625 52.441406 32.339844 C 52.328125 32.316406 52.207031 32.289062 52.105469 32.253906 C 52.378906 32.175781 52.675781 32.214844 52.9375 32.300781 C 53.234375 32.402344 53.519531 32.539062 53.765625 32.730469 C 54.015625 32.917969 54.238281 33.152344 54.410156 33.417969 C 54.585938 33.691406 54.707031 33.980469 54.785156 34.304688 C 54.84375 34.519531 54.871094 34.757812 54.859375 34.980469 C 54.84375 35.257812 54.820312 35.53125 54.722656 35.792969 C 54.609375 36.121094 54.449219 36.421875 54.238281 36.695312 C 54.164062 36.820312 54.039062 36.945312 53.902344 37.058594 Z M 52.167969 31.328125 C 50.210938 31.328125 48.613281 32.941406 48.613281 34.917969 C 48.613281 36.894531 50.210938 38.511719 52.167969 38.511719 C 54.125 38.511719 55.726562 36.894531 55.726562 34.917969 C 55.726562 32.941406 54.125 31.328125 52.167969 31.328125 Z M 44.152344 37.058594 C 43.71875 37.433594 43.136719 37.671875 42.566406 37.695312 C 42.144531 37.722656 41.722656 37.648438 41.328125 37.496094 C 40.820312 37.296875 40.375 36.910156 40.078125 36.445312 C 39.714844 35.894531 39.566406 35.207031 39.65625 34.554688 C 39.742188 33.957031 40.015625 33.355469 40.496094 32.980469 C 40.570312 32.917969 40.660156 32.867188 40.746094 32.816406 C 40.484375 33.152344 40.238281 33.480469 40.050781 33.867188 C 39.863281 34.28125 39.804688 34.757812 39.851562 35.207031 C 39.902344 35.667969 40.078125 36.109375 40.359375 36.46875 C 40.621094 36.808594 40.957031 37.070312 41.339844 37.246094 C 41.660156 37.410156 42.019531 37.445312 42.367188 37.472656 C 42.542969 37.460938 42.703125 37.460938 42.863281 37.421875 C 43.050781 37.382812 43.246094 37.320312 43.421875 37.234375 C 43.867188 37.019531 44.25 36.695312 44.511719 36.257812 C 44.636719 36.058594 44.734375 35.832031 44.796875 35.605469 C 44.832031 35.480469 44.859375 35.355469 44.871094 35.21875 C 44.882812 35.117188 44.882812 35.019531 44.894531 34.917969 C 44.882812 34.679688 44.859375 34.457031 44.796875 34.21875 C 44.757812 34.082031 44.710938 33.957031 44.660156 33.828125 C 44.699219 33.96875 44.722656 34.117188 44.722656 34.269531 C 44.722656 35.15625 44.015625 35.871094 43.136719 35.871094 C 42.257812 35.871094 41.550781 35.15625 41.550781 34.269531 C 41.550781 33.378906 42.257812 32.664062 43.136719 32.664062 C 43.410156 32.664062 43.65625 32.730469 43.878906 32.855469 C 43.867188 32.855469 43.867188 32.839844 43.855469 32.839844 C 43.632812 32.679688 43.394531 32.566406 43.136719 32.464844 C 42.988281 32.414062 42.839844 32.390625 42.691406 32.339844 C 42.578125 32.316406 42.453125 32.289062 42.355469 32.253906 C 42.628906 32.175781 42.925781 32.214844 43.1875 32.300781 C 43.484375 32.402344 43.769531 32.539062 44.015625 32.730469 C 44.265625 32.917969 44.488281 33.152344 44.660156 33.417969 C 44.832031 33.691406 44.957031 33.980469 45.03125 34.304688 C 45.09375 34.519531 45.117188 34.757812 45.105469 34.980469 C 45.09375 35.257812 45.070312 35.53125 44.96875 35.792969 C 44.859375 36.121094 44.699219 36.421875 44.488281 36.695312 C 44.414062 36.820312 44.289062 36.945312 44.152344 37.058594 Z M 42.394531 31.328125 C 40.433594 31.328125 38.835938 32.941406 38.835938 34.917969 C 38.835938 36.894531 40.433594 38.511719 42.394531 38.511719 C 44.351562 38.511719 45.949219 36.894531 45.949219 34.917969 C 45.9375 32.941406 44.351562 31.328125 42.394531 31.328125 Z M 20.277344 55.507812 C 19.917969 54.957031 19.769531 54.265625 19.855469 53.617188 C 19.941406 53.015625 20.214844 52.414062 20.699219 52.039062 C 20.773438 51.976562 20.859375 51.925781 20.945312 51.878906 C 20.683594 52.214844 20.4375 52.539062 20.25 52.929688 C 20.066406 53.339844 20.003906 53.816406 20.054688 54.265625 C 20.101562 54.730469 20.277344 55.167969 20.5625 55.53125 C 20.820312 55.871094 21.15625 56.132812 21.539062 56.308594 C 21.863281 56.46875 22.222656 56.507812 22.570312 56.53125 C 22.742188 56.519531 22.902344 56.519531 23.0625 56.484375 C 23.25 56.445312 23.449219 56.382812 23.621094 56.296875 C 24.066406 56.082031 24.453125 55.757812 24.710938 55.320312 C 24.835938 55.117188 24.933594 54.894531 24.996094 54.667969 C 25.035156 54.542969 25.058594 54.417969 25.070312 54.28125 C 25.082031 54.179688 25.082031 54.078125 25.097656 53.980469 C 25.082031 53.742188 25.058594 53.515625 24.996094 53.277344 C 24.960938 53.140625 24.910156 53.015625 24.859375 52.890625 C 24.898438 53.027344 24.921875 53.179688 24.921875 53.328125 C 24.921875 54.21875 24.214844 54.929688 23.335938 54.929688 C 22.457031 54.929688 21.75 54.21875 21.75 53.328125 C 21.75 52.441406 22.457031 51.726562 23.335938 51.726562 C 23.609375 51.726562 23.855469 51.789062 24.082031 51.914062 C 24.066406 51.914062 24.066406 51.902344 24.054688 51.902344 C 23.832031 51.738281 23.597656 51.625 23.335938 51.527344 C 23.1875 51.476562 23.039062 51.453125 22.890625 51.402344 C 22.777344 51.375 22.65625 51.351562 22.554688 51.3125 C 22.828125 51.238281 23.125 51.277344 23.386719 51.363281 C 23.683594 51.464844 23.96875 51.601562 24.214844 51.789062 C 24.464844 51.976562 24.6875 52.214844 24.859375 52.476562 C 25.035156 52.753906 25.15625 53.042969 25.234375 53.367188 C 25.292969 53.578125 25.320312 53.816406 25.304688 54.042969 C 25.292969 54.316406 25.269531 54.59375 25.171875 54.855469 C 25.058594 55.179688 24.898438 55.480469 24.6875 55.757812 C 24.574219 55.894531 24.453125 56.019531 24.316406 56.132812 C 23.882812 56.507812 23.300781 56.746094 22.730469 56.769531 C 22.308594 56.796875 21.886719 56.71875 21.492188 56.570312 C 21.019531 56.359375 20.574219 55.96875 20.277344 55.507812 Z M 22.582031 50.4375 C 20.625 50.4375 19.023438 52.050781 19.023438 54.03125 C 19.023438 56.007812 20.625 57.621094 22.582031 57.621094 C 24.539062 57.621094 26.136719 56.007812 26.136719 54.03125 C 26.136719 52.039062 24.539062 50.4375 22.582031 50.4375 Z M 20.277344 45.96875 C 19.917969 45.417969 19.769531 44.730469 19.855469 44.078125 C 19.941406 43.480469 20.214844 42.878906 20.699219 42.503906 C 20.773438 42.441406 20.859375 42.390625 20.945312 42.339844 C 20.683594 42.679688 20.4375 43.003906 20.25 43.390625 C 20.066406 43.804688 20.003906 44.28125 20.054688 44.730469 C 20.101562 45.195312 20.277344 45.632812 20.5625 45.996094 C 20.820312 46.332031 21.15625 46.59375 21.539062 46.769531 C 21.863281 46.933594 22.222656 46.972656 22.570312 46.996094 C 22.742188 46.984375 22.902344 46.984375 23.0625 46.945312 C 23.25 46.910156 23.449219 46.847656 23.621094 46.757812 C 24.066406 46.546875 24.453125 46.21875 24.710938 45.78125 C 24.835938 45.582031 24.933594 45.355469 24.996094 45.132812 C 25.035156 45.003906 25.058594 44.878906 25.070312 44.742188 C 25.082031 44.644531 25.082031 44.542969 25.097656 44.441406 C 25.082031 44.203125 25.058594 43.980469 24.996094 43.742188 C 24.960938 43.605469 24.910156 43.480469 24.859375 43.355469 C 24.898438 43.492188 24.921875 43.640625 24.921875 43.792969 C 24.921875 44.679688 24.214844 45.394531 23.335938 45.394531 C 22.457031 45.394531 21.75 44.679688 21.75 43.792969 C 21.75 42.902344 22.457031 42.191406 23.335938 42.191406 C 23.609375 42.191406 23.855469 42.253906 24.082031 42.378906 C 24.066406 42.378906 24.066406 42.367188 24.054688 42.367188 C 23.832031 42.203125 23.597656 42.089844 23.335938 41.988281 C 23.1875 41.941406 23.039062 41.914062 22.890625 41.863281 C 22.777344 41.839844 22.65625 41.8125 22.554688 41.777344 C 22.828125 41.703125 23.125 41.738281 23.386719 41.828125 C 23.683594 41.925781 23.96875 42.066406 24.214844 42.253906 C 24.464844 42.441406 24.6875 42.679688 24.859375 42.941406 C 25.035156 43.214844 25.15625 43.503906 25.234375 43.828125 C 25.292969 44.042969 25.320312 44.28125 25.304688 44.503906 C 25.292969 44.78125 25.269531 45.054688 25.171875 45.320312 C 25.058594 45.644531 24.898438 45.945312 24.6875 46.21875 C 24.574219 46.359375 24.453125 46.484375 24.316406 46.59375 C 23.882812 46.972656 23.300781 47.207031 22.730469 47.234375 C 22.308594 47.257812 21.886719 47.183594 21.492188 47.035156 C 21.019531 46.820312 20.574219 46.433594 20.277344 45.96875 Z M 22.582031 40.902344 C 20.625 40.902344 19.023438 42.515625 19.023438 44.492188 C 19.023438 46.46875 20.625 48.085938 22.582031 48.085938 C 24.539062 48.085938 26.136719 46.46875 26.136719 44.492188 C 26.136719 42.515625 24.539062 40.902344 22.582031 40.902344 " fill-opacity="1" fill-rule="nonzero"/></g><path fill="#ffffff" d="M 23.707031 14.054688 C 23.3125 14.054688 23.003906 14.378906 23.003906 14.769531 C 23.003906 15.15625 23.324219 15.480469 23.707031 15.480469 C 24.09375 15.480469 24.414062 15.15625 24.414062 14.769531 C 24.414062 14.378906 24.105469 14.054688 23.707031 14.054688 Z M 23.707031 23.59375 C 23.3125 23.59375 23.003906 23.917969 23.003906 24.304688 C 23.003906 24.695312 23.324219 25.019531 23.707031 25.019531 C 24.09375 25.019531 24.414062 24.695312 24.414062 24.304688 C 24.414062 23.917969 24.105469 23.59375 23.707031 23.59375 Z M 23.707031 33.128906 C 23.3125 33.128906 23.003906 33.453125 23.003906 33.84375 C 23.003906 34.242188 23.324219 34.554688 23.707031 34.554688 C 24.09375 34.554688 24.414062 34.230469 24.414062 33.84375 C 24.414062 33.441406 24.105469 33.128906 23.707031 33.128906 Z M 23.707031 42.664062 C 23.3125 42.664062 23.003906 42.992188 23.003906 43.378906 C 23.003906 43.78125 23.324219 44.09375 23.707031 44.09375 C 24.09375 44.09375 24.414062 43.765625 24.414062 43.378906 C 24.414062 42.976562 24.105469 42.664062 23.707031 42.664062 Z M 23.707031 52.191406 C 23.3125 52.191406 23.003906 52.515625 23.003906 52.902344 C 23.003906 53.292969 23.324219 53.617188 23.707031 53.617188 C 24.09375 53.617188 24.414062 53.292969 24.414062 52.902344 C 24.414062 52.515625 24.105469 52.191406 23.707031 52.191406 Z M 53.273438 15.496094 C 53.667969 15.496094 53.976562 15.167969 53.976562 14.78125 C 53.976562 14.394531 53.65625 14.066406 53.273438 14.066406 C 52.886719 14.066406 52.566406 14.394531 52.566406 14.78125 C 52.566406 15.167969 52.875 15.496094 53.273438 15.496094 Z M 53.632812 23.691406 C 53.519531 23.628906 53.40625 23.59375 53.273438 23.59375 C 52.914062 23.59375 52.613281 23.867188 52.578125 24.207031 C 52.578125 24.242188 52.566406 24.269531 52.566406 24.304688 C 52.566406 24.707031 52.886719 25.019531 53.273438 25.019531 C 53.65625 25.019531 53.976562 24.695312 53.976562 24.304688 C 53.976562 24.042969 53.828125 23.816406 53.632812 23.691406 Z M 53.273438 33.128906 C 52.875 33.128906 52.566406 33.453125 52.566406 33.84375 C 52.566406 34.242188 52.886719 34.554688 53.273438 34.554688 C 53.65625 34.554688 53.976562 34.230469 53.976562 33.84375 C 53.976562 33.441406 53.65625 33.128906 53.273438 33.128906 Z M 53.273438 42.664062 C 52.875 42.664062 52.566406 42.992188 52.566406 43.378906 C 52.566406 43.78125 52.886719 44.09375 53.273438 44.09375 C 53.65625 44.09375 53.976562 43.765625 53.976562 43.378906 C 53.976562 42.976562 53.65625 42.664062 53.273438 42.664062 Z M 53.273438 52.191406 C 52.875 52.191406 52.566406 52.515625 52.566406 52.902344 C 52.566406 53.292969 52.886719 53.617188 53.273438 53.617188 C 53.65625 53.617188 53.976562 53.292969 53.976562 52.902344 C 53.976562 52.515625 53.65625 52.191406 53.273438 52.191406 Z M 43.507812 33.128906 C 43.113281 33.128906 42.800781 33.453125 42.800781 33.84375 C 42.800781 34.242188 43.125 34.554688 43.507812 34.554688 C 43.890625 34.554688 44.214844 34.230469 44.214844 33.84375 C 44.226562 33.441406 43.90625 33.128906 43.507812 33.128906 Z M 34.464844 33.84375 C 34.464844 34.242188 34.140625 34.554688 33.757812 34.554688 C 33.371094 34.554688 33.050781 34.230469 33.050781 33.84375 C 33.050781 33.804688 33.050781 33.78125 33.0625 33.742188 C 33.113281 33.390625 33.398438 33.117188 33.757812 33.117188 C 33.894531 33.117188 34.015625 33.152344 34.117188 33.214844 C 34.328125 33.355469 34.464844 33.578125 34.464844 33.84375 " fill-opacity="1" fill-rule="nonzero"/><path fill="#851625" d="M 57.496094 59.960938 L 46.792969 59.960938 L 46.792969 40.324219 L 27.933594 40.324219 L 27.933594 59.960938 L 17.226562 59.960938 L 17.226562 11.1875 L 27.933594 11.1875 L 27.933594 29.511719 L 46.792969 29.511719 L 46.792969 11.1875 L 57.496094 11.1875 Z M 44.089844 8.460938 L 44.089844 26.785156 L 30.632812 26.785156 L 30.632812 8.460938 L 14.527344 8.460938 L 14.527344 62.679688 L 30.632812 62.679688 L 30.632812 43.054688 L 44.089844 43.054688 L 44.089844 62.691406 L 60.199219 62.691406 L 60.199219 8.460938 L 44.089844 8.460938 " fill-opacity="1" fill-rule="nonzero"/><g clip-path="url(#id3)"><path fill="#c2212b" d="M 25.753906 44.457031 C 25.753906 42.691406 24.339844 41.25 22.582031 41.25 C 20.835938 41.25 19.410156 42.679688 19.410156 44.457031 C 19.410156 46.21875 20.820312 47.660156 22.582031 47.660156 C 24.328125 47.648438 25.753906 46.21875 25.753906 44.457031 Z M 25.753906 53.992188 C 25.753906 52.226562 24.339844 50.789062 22.582031 50.789062 C 20.835938 50.789062 19.410156 52.214844 19.410156 53.992188 C 19.410156 55.769531 20.820312 57.195312 22.582031 57.195312 C 24.328125 57.183594 25.753906 55.757812 25.753906 53.992188 Z M 29.519531 35.480469 C 29.78125 36.984375 31.082031 38.121094 32.628906 38.121094 C 34.375 38.121094 35.800781 36.695312 35.800781 34.917969 C 35.800781 34.105469 35.503906 33.367188 35.007812 32.804688 C 34.425781 32.140625 33.582031 31.726562 32.640625 31.726562 C 30.894531 31.726562 29.46875 33.152344 29.46875 34.929688 C 29.46875 35.105469 29.484375 35.292969 29.519531 35.480469 Z M 19.410156 34.917969 C 19.410156 36.683594 20.820312 38.121094 22.582031 38.121094 C 24.328125 38.121094 25.753906 36.695312 25.753906 34.917969 C 25.753906 33.152344 24.339844 31.714844 22.582031 31.714844 C 20.835938 31.714844 19.410156 33.152344 19.410156 34.917969 Z M 19.410156 25.382812 C 19.410156 27.144531 20.820312 28.585938 22.582031 28.585938 C 24.328125 28.585938 25.753906 27.160156 25.753906 25.382812 C 25.753906 23.617188 24.339844 22.179688 22.582031 22.179688 C 20.835938 22.191406 19.410156 23.617188 19.410156 25.382812 Z M 19.410156 15.84375 C 19.410156 17.609375 20.820312 19.050781 22.582031 19.050781 C 24.328125 19.050781 25.753906 17.621094 25.753906 15.84375 C 25.753906 14.082031 24.339844 12.640625 22.582031 12.640625 C 20.835938 12.652344 19.410156 14.082031 19.410156 15.84375 Z M 42.394531 31.714844 C 40.644531 31.714844 39.222656 33.140625 39.222656 34.917969 C 39.222656 36.683594 40.632812 38.121094 42.394531 38.121094 C 44.140625 38.121094 45.566406 36.695312 45.566406 34.917969 C 45.550781 33.152344 44.140625 31.714844 42.394531 31.714844 Z M 49.023438 25.945312 C 49.28125 27.445312 50.582031 28.585938 52.144531 28.585938 C 53.890625 28.585938 55.316406 27.160156 55.316406 25.382812 C 55.316406 24.570312 55.007812 23.828125 54.511719 23.253906 C 53.929688 22.589844 53.085938 22.179688 52.144531 22.179688 C 50.398438 22.179688 48.972656 23.605469 48.972656 25.382812 C 48.972656 25.570312 48.996094 25.757812 49.023438 25.945312 Z M 48.972656 15.84375 C 48.972656 17.609375 50.386719 19.050781 52.144531 19.050781 C 53.890625 19.050781 55.316406 17.621094 55.316406 15.84375 C 55.316406 14.082031 53.902344 12.640625 52.144531 12.640625 C 50.398438 12.652344 48.972656 14.082031 48.972656 15.84375 Z M 55.316406 34.917969 C 55.316406 33.152344 53.902344 31.714844 52.144531 31.714844 C 50.398438 31.714844 48.972656 33.140625 48.972656 34.917969 C 48.972656 36.683594 50.386719 38.121094 52.144531 38.121094 C 53.890625 38.121094 55.316406 36.683594 55.316406 34.917969 Z M 55.316406 44.457031 C 55.316406 42.691406 53.902344 41.25 52.144531 41.25 C 50.398438 41.25 48.972656 42.679688 48.972656 44.457031 C 48.972656 46.21875 50.386719 47.660156 52.144531 47.660156 C 53.890625 47.648438 55.316406 46.21875 55.316406 44.457031 Z M 55.316406 53.992188 C 55.316406 52.226562 53.902344 50.789062 52.144531 50.789062 C 50.398438 50.789062 48.972656 52.214844 48.972656 53.992188 C 48.972656 55.769531 50.386719 57.195312 52.144531 57.195312 C 53.890625 57.183594 55.316406 55.757812 55.316406 53.992188 Z M 28.304688 60.335938 L 16.855469 60.335938 L 16.855469 10.8125 L 28.304688 10.8125 L 28.304688 29.136719 L 46.421875 29.136719 L 46.421875 10.8125 L 57.867188 10.8125 L 57.867188 60.335938 L 46.421875 60.335938 L 46.421875 40.699219 L 28.304688 40.699219 Z M 13.363281 67.058594 L 13.363281 67.984375 L 31.800781 67.984375 L 31.800781 63.867188 L 13.363281 63.867188 Z M 42.925781 63.867188 L 42.925781 67.984375 L 61.363281 67.984375 L 61.363281 63.867188 Z M 42.925781 48.347656 L 31.800781 48.347656 L 31.800781 44.230469 L 42.925781 44.230469 L 42.925781 48.347656 " fill-opacity="1" fill-rule="nonzero"/></g></svg>