<svg xmlns="http://www.w3.org/2000/svg" xmlns:xlink="http://www.w3.org/1999/xlink" width="150" zoomAndPan="magnify" viewBox="0 0 112.5 112.499997" height="150" preserveAspectRatio="xMidYMid meet" version="1.0"><defs><clipPath id="id1"><path d="M 49 11.25 L 63 11.25 L 63 29 L 49 29 Z M 49 11.25 " clip-rule="nonzero"/></clipPath><clipPath id="id2"><path d="M 27.121094 78 L 85.621094 78 L 85.621094 101.25 L 27.121094 101.25 Z M 27.121094 78 " clip-rule="nonzero"/></clipPath></defs><path fill="#95c127" d="M 50.566406 54.757812 C 55.898438 60.128906 55.851562 68.785156 55.851562 68.785156 C 55.851562 68.785156 47.15625 68.730469 41.824219 63.363281 C 36.492188 57.992188 35.203125 50.652344 36.539062 49.335938 C 37.878906 48.019531 45.234375 49.386719 50.566406 54.757812 Z M 50.566406 54.757812 " fill-opacity="1" fill-rule="nonzero"/><path fill="#68a52c" d="M 53.019531 65.335938 C 48.671875 60.953125 44.320312 56.570312 39.972656 52.1875 C 39.585938 51.800781 38.988281 52.402344 39.375 52.785156 C 43.722656 57.167969 48.074219 61.550781 52.421875 65.929688 C 52.804688 66.320312 53.402344 65.71875 53.019531 65.335938 Z M 53.019531 65.335938 " fill-opacity="1" fill-rule="nonzero"/><path fill="#68a52c" d="M 50.644531 62.71875 C 49.769531 61.121094 49.609375 59.476562 50.328125 57.785156 C 50.542969 57.289062 49.808594 56.859375 49.59375 57.359375 C 48.75 59.332031 48.878906 61.261719 49.910156 63.144531 C 50.171875 63.621094 50.90625 63.195312 50.644531 62.71875 Z M 50.644531 62.71875 " fill-opacity="1" fill-rule="nonzero"/><path fill="#68a52c" d="M 45.722656 57.914062 C 44.949219 56.640625 44.746094 55.214844 45.132812 53.78125 C 45.277344 53.253906 44.457031 53.027344 44.316406 53.554688 C 43.871094 55.203125 44.105469 56.882812 44.988281 58.339844 C 45.273438 58.804688 46.007812 58.382812 45.722656 57.914062 Z M 45.722656 57.914062 " fill-opacity="1" fill-rule="nonzero"/><path fill="#68a52c" d="M 49.488281 61.628906 C 47.664062 60.609375 45.738281 60.417969 43.785156 61.214844 C 43.285156 61.417969 43.503906 62.238281 44.011719 62.027344 C 45.753906 61.316406 47.417969 61.441406 49.058594 62.359375 C 49.539062 62.625 49.96875 61.894531 49.488281 61.628906 Z M 49.488281 61.628906 " fill-opacity="1" fill-rule="nonzero"/><path fill="#68a52c" d="M 44.722656 56.675781 C 43.265625 55.777344 41.585938 55.53125 39.925781 55.957031 C 39.398438 56.09375 39.621094 56.910156 40.152344 56.773438 C 41.597656 56.398438 43.03125 56.625 44.296875 57.40625 C 44.757812 57.695312 45.1875 56.960938 44.722656 56.675781 Z M 44.722656 56.675781 " fill-opacity="1" fill-rule="nonzero"/><path fill="#95c127" d="M 69.882812 63.421875 C 64.488281 68.730469 55.796875 68.6875 55.796875 68.6875 C 55.796875 68.6875 55.847656 60.027344 61.242188 54.71875 C 66.632812 49.410156 74.007812 48.125 75.328125 49.453125 C 76.652344 50.789062 75.277344 58.113281 69.882812 63.421875 Z M 69.882812 63.421875 " fill-opacity="1" fill-rule="nonzero"/><path fill="#68a52c" d="M 59.265625 65.867188 C 63.664062 61.535156 68.0625 57.203125 72.464844 52.875 C 72.855469 52.488281 72.253906 51.894531 71.867188 52.277344 C 67.464844 56.609375 63.066406 60.941406 58.664062 65.269531 C 58.273438 65.652344 58.875 66.25 59.265625 65.867188 Z M 59.265625 65.867188 " fill-opacity="1" fill-rule="nonzero"/><path fill="#68a52c" d="M 61.890625 63.5 C 63.492188 62.628906 65.144531 62.46875 66.84375 63.1875 C 67.339844 63.398438 67.769531 62.667969 67.269531 62.457031 C 65.285156 61.617188 63.351562 61.742188 61.460938 62.769531 C 60.980469 63.03125 61.410156 63.761719 61.890625 63.5 Z M 61.890625 63.5 " fill-opacity="1" fill-rule="nonzero"/><path fill="#68a52c" d="M 66.714844 58.601562 C 67.992188 57.835938 69.425781 57.628906 70.867188 58.015625 C 71.394531 58.160156 71.621094 57.34375 71.09375 57.203125 C 69.4375 56.757812 67.753906 56.992188 66.289062 57.871094 C 65.816406 58.152344 66.242188 58.886719 66.714844 58.601562 Z M 66.714844 58.601562 " fill-opacity="1" fill-rule="nonzero"/><path fill="#68a52c" d="M 62.984375 62.351562 C 64.007812 60.53125 64.203125 58.613281 63.402344 56.667969 C 63.195312 56.171875 62.375 56.390625 62.582031 56.894531 C 63.300781 58.632812 63.175781 60.285156 62.25 61.921875 C 61.980469 62.398438 62.714844 62.828125 62.984375 62.351562 Z M 62.984375 62.351562 " fill-opacity="1" fill-rule="nonzero"/><path fill="#68a52c" d="M 67.953125 57.605469 C 68.859375 56.15625 69.105469 54.480469 68.675781 52.828125 C 68.539062 52.300781 67.722656 52.523438 67.859375 53.054688 C 68.234375 54.492188 68.007812 55.917969 67.222656 57.179688 C 66.933594 57.644531 67.667969 58.066406 67.953125 57.605469 Z M 67.953125 57.605469 " fill-opacity="1" fill-rule="nonzero"/><path fill="#b2cc17" d="M 55.878906 95.132812 C 54.773438 95.132812 53.875 94.238281 53.875 93.136719 L 53.875 34.015625 C 53.875 32.914062 54.769531 32.019531 55.878906 32.019531 C 56.984375 32.019531 57.886719 32.914062 57.886719 34.015625 L 57.886719 93.136719 C 57.886719 94.238281 56.988281 95.132812 55.878906 95.132812 Z M 55.878906 95.132812 " fill-opacity="1" fill-rule="nonzero"/><path fill="#ef808c" d="M 70.070312 28.207031 C 72.863281 26.136719 73.433594 22.199219 71.355469 19.425781 C 69.277344 16.648438 65.324219 16.074219 62.539062 18.144531 C 61.773438 18.710938 61.171875 19.421875 60.75 20.207031 L 56.515625 28.085938 L 58.589844 30.855469 L 67.585938 29.332031 L 67.578125 29.324219 C 68.449219 29.140625 69.304688 28.773438 70.070312 28.207031 Z M 70.070312 28.207031 " fill-opacity="1" fill-rule="nonzero"/><path fill="#e72557" d="M 58.800781 28.058594 C 60.851562 26.394531 62.507812 24.695312 63.429688 22.183594 C 63.515625 21.953125 63.148438 21.855469 63.0625 22.082031 C 62.164062 24.523438 60.515625 26.175781 58.53125 27.785156 C 58.339844 27.941406 58.613281 28.210938 58.800781 28.058594 Z M 58.800781 28.058594 " fill-opacity="1" fill-rule="nonzero"/><path fill="#e72557" d="M 59.46875 29.03125 C 61.585938 27.59375 63.621094 26.511719 66.214844 26.285156 C 66.460938 26.265625 66.460938 25.882812 66.214844 25.90625 C 63.542969 26.136719 61.464844 27.21875 59.273438 28.703125 C 59.074219 28.839844 59.265625 29.171875 59.46875 29.03125 Z M 59.46875 29.03125 " fill-opacity="1" fill-rule="nonzero"/><path fill="#ef808c" d="M 49.496094 42.140625 C 49.53125 45.605469 52.382812 48.390625 55.863281 48.351562 C 59.339844 48.316406 62.136719 45.476562 62.097656 42.011719 C 62.085938 41.0625 61.863281 40.164062 61.476562 39.359375 L 57.585938 31.304688 L 54.113281 31.339844 L 50.046875 39.472656 L 50.058594 39.472656 C 49.6875 40.289062 49.484375 41.191406 49.496094 42.140625 Z M 49.496094 42.140625 " fill-opacity="1" fill-rule="nonzero"/><path fill="#e72557" d="M 56.253906 33.132812 C 56.394531 35.761719 56.789062 38.101562 58.273438 40.328125 C 58.410156 40.53125 58.742188 40.34375 58.605469 40.136719 C 57.152344 37.960938 56.773438 35.699219 56.636719 33.132812 C 56.621094 32.890625 56.242188 32.890625 56.253906 33.132812 Z M 56.253906 33.132812 " fill-opacity="1" fill-rule="nonzero"/><path fill="#e72557" d="M 55.070312 33.148438 C 54.984375 35.710938 54.660156 37.960938 53.308594 40.191406 C 53.179688 40.402344 53.511719 40.59375 53.636719 40.382812 C 55.019531 38.09375 55.363281 35.777344 55.449219 33.148438 C 55.457031 32.90625 55.074219 32.90625 55.070312 33.148438 Z M 55.070312 33.148438 " fill-opacity="1" fill-rule="nonzero"/><path fill="#ef808c" d="M 41.46875 28.207031 C 38.675781 26.136719 38.101562 22.199219 40.179688 19.425781 C 42.261719 16.648438 46.210938 16.074219 49 18.144531 C 49.765625 18.710938 50.363281 19.421875 50.785156 20.207031 L 55.023438 28.085938 L 52.945312 30.855469 L 43.953125 29.332031 L 43.957031 29.324219 C 43.082031 29.140625 42.234375 28.773438 41.46875 28.207031 Z M 41.46875 28.207031 " fill-opacity="1" fill-rule="nonzero"/><path fill="#e72557" d="M 53.003906 27.789062 C 51.015625 26.175781 49.363281 24.527344 48.472656 22.085938 C 48.386719 21.855469 48.019531 21.953125 48.105469 22.1875 C 49.023438 24.699219 50.6875 26.398438 52.734375 28.0625 C 52.921875 28.210938 53.195312 27.945312 53.003906 27.789062 Z M 53.003906 27.789062 " fill-opacity="1" fill-rule="nonzero"/><path fill="#e72557" d="M 52.257812 28.703125 C 50.070312 27.21875 47.992188 26.136719 45.320312 25.90625 C 45.074219 25.882812 45.074219 26.265625 45.320312 26.285156 C 47.910156 26.511719 49.953125 27.597656 52.066406 29.03125 C 52.269531 29.167969 52.460938 28.839844 52.257812 28.703125 Z M 52.257812 28.703125 " fill-opacity="1" fill-rule="nonzero"/><g clip-path="url(#id1)"><path fill="#eb5b60" d="M 62.070312 17.539062 C 62.070312 14.074219 59.25 11.265625 55.765625 11.265625 C 52.289062 11.265625 49.464844 14.074219 49.464844 17.539062 C 49.464844 18.488281 49.675781 19.394531 50.054688 20.199219 L 53.863281 28.292969 L 57.335938 28.292969 L 61.484375 20.199219 L 61.472656 20.199219 C 61.855469 19.394531 62.070312 18.492188 62.070312 17.539062 Z M 62.070312 17.539062 " fill-opacity="1" fill-rule="nonzero"/></g><path fill="#e72557" d="M 55.21875 26.476562 C 55.101562 23.847656 54.730469 21.507812 53.269531 19.261719 C 53.132812 19.058594 52.804688 19.25 52.941406 19.453125 C 54.367188 21.644531 54.722656 23.910156 54.835938 26.476562 C 54.847656 26.71875 55.226562 26.71875 55.21875 26.476562 Z M 55.21875 26.476562 " fill-opacity="1" fill-rule="nonzero"/><path fill="#e72557" d="M 56.402344 26.476562 C 56.511719 23.914062 56.863281 21.667969 58.234375 19.453125 C 58.363281 19.246094 58.03125 19.054688 57.902344 19.261719 C 56.496094 21.535156 56.132812 23.847656 56.019531 26.476562 C 56.011719 26.71875 56.390625 26.71875 56.402344 26.476562 Z M 56.402344 26.476562 " fill-opacity="1" fill-rule="nonzero"/><path fill="#eb5b60" d="M 63.820312 41.597656 C 66.945312 43.125 70.722656 41.839844 72.253906 38.730469 C 73.789062 35.617188 72.5 31.855469 69.375 30.328125 C 68.519531 29.910156 67.609375 29.707031 66.71875 29.6875 L 57.742188 29.523438 L 56.214844 32.625 L 61.679688 39.902344 L 61.683594 39.894531 C 62.242188 40.589844 62.960938 41.179688 63.820312 41.597656 Z M 63.820312 41.597656 " fill-opacity="1" fill-rule="nonzero"/><path fill="#e72557" d="M 58.773438 31.527344 C 61.203125 32.585938 63.460938 33.289062 66.132812 32.976562 C 66.375 32.949219 66.378906 32.566406 66.132812 32.59375 C 63.523438 32.902344 61.339844 32.234375 58.964844 31.199219 C 58.742188 31.101562 58.546875 31.429688 58.773438 31.527344 Z M 58.773438 31.527344 " fill-opacity="1" fill-rule="nonzero"/><path fill="#e72557" d="M 58.25 32.585938 C 60.503906 33.808594 62.398438 35.113281 63.777344 37.320312 C 63.910156 37.527344 64.238281 37.335938 64.105469 37.128906 C 62.691406 34.871094 60.753906 33.515625 58.441406 32.257812 C 58.230469 32.140625 58.035156 32.46875 58.25 32.585938 Z M 58.25 32.585938 " fill-opacity="1" fill-rule="nonzero"/><path fill="#eb5b60" d="M 47.71875 41.765625 C 44.59375 43.296875 40.816406 42.011719 39.28125 38.898438 C 37.746094 35.789062 39.039062 32.027344 42.160156 30.5 C 43.019531 30.078125 43.925781 29.875 44.820312 29.855469 L 53.792969 29.695312 L 55.324219 32.796875 L 49.855469 40.070312 L 49.855469 40.0625 C 49.289062 40.757812 48.574219 41.347656 47.71875 41.765625 Z M 47.71875 41.765625 " fill-opacity="1" fill-rule="nonzero"/><path fill="#e72557" d="M 52.566406 31.367188 C 50.195312 32.402344 48.015625 33.066406 45.398438 32.761719 C 45.15625 32.730469 45.160156 33.113281 45.398438 33.140625 C 48.074219 33.457031 50.332031 32.753906 52.757812 31.695312 C 52.984375 31.601562 52.789062 31.273438 52.566406 31.367188 Z M 52.566406 31.367188 " fill-opacity="1" fill-rule="nonzero"/><path fill="#e72557" d="M 53.09375 32.425781 C 50.777344 33.679688 48.839844 35.03125 47.425781 37.292969 C 47.296875 37.503906 47.625 37.691406 47.757812 37.484375 C 49.132812 35.28125 51.035156 33.972656 53.285156 32.753906 C 53.5 32.636719 53.308594 32.308594 53.09375 32.425781 Z M 53.09375 32.425781 " fill-opacity="1" fill-rule="nonzero"/><path fill="#ffd91d" d="M 59.414062 30.035156 C 59.414062 30.515625 59.320312 30.976562 59.136719 31.421875 C 58.949219 31.867188 58.6875 32.261719 58.34375 32.601562 C 58.003906 32.941406 57.609375 33.203125 57.160156 33.386719 C 56.714844 33.570312 56.25 33.664062 55.765625 33.664062 C 55.285156 33.664062 54.820312 33.570312 54.371094 33.386719 C 53.925781 33.203125 53.53125 32.941406 53.1875 32.601562 C 52.847656 32.261719 52.582031 31.867188 52.398438 31.421875 C 52.214844 30.976562 52.121094 30.515625 52.121094 30.035156 C 52.121094 29.550781 52.214844 29.089844 52.398438 28.644531 C 52.582031 28.199219 52.847656 27.804688 53.1875 27.464844 C 53.53125 27.125 53.925781 26.863281 54.371094 26.679688 C 54.820312 26.496094 55.285156 26.402344 55.765625 26.402344 C 56.25 26.402344 56.714844 26.496094 57.160156 26.679688 C 57.609375 26.863281 58.003906 27.125 58.34375 27.464844 C 58.6875 27.804688 58.949219 28.199219 59.136719 28.644531 C 59.320312 29.089844 59.414062 29.550781 59.414062 30.035156 Z M 59.414062 30.035156 " fill-opacity="1" fill-rule="nonzero"/><g clip-path="url(#id2)"><path fill="#dc7d3f" d="M 81.269531 86.621094 C 81.089844 86.621094 80.90625 86.636719 80.730469 86.65625 C 79.605469 84.457031 77.316406 82.945312 74.667969 82.945312 C 74.023438 82.945312 73.398438 83.042969 72.808594 83.207031 C 71.785156 80.753906 69.359375 79.027344 66.523438 79.027344 C 65.0625 79.027344 63.714844 79.488281 62.605469 80.269531 C 60.984375 79.0625 58.980469 78.34375 56.800781 78.34375 C 56.664062 78.34375 56.523438 78.355469 56.386719 78.363281 C 56.25 78.355469 56.113281 78.34375 55.972656 78.34375 C 53.792969 78.34375 51.792969 79.066406 50.167969 80.269531 C 49.058594 79.488281 47.710938 79.027344 46.25 79.027344 C 43.417969 79.027344 40.988281 80.753906 39.964844 83.207031 C 39.375 83.042969 38.75 82.945312 38.105469 82.945312 C 35.457031 82.945312 33.167969 84.457031 32.042969 86.65625 C 31.867188 86.636719 31.6875 86.621094 31.503906 86.621094 C 29.113281 86.621094 27.175781 88.550781 27.175781 90.933594 C 27.175781 93.316406 29.113281 95.246094 31.503906 95.246094 C 32.242188 95.246094 32.933594 95.0625 33.539062 94.742188 C 34.746094 95.832031 36.34375 96.503906 38.105469 96.503906 C 38.921875 96.503906 39.707031 96.351562 40.433594 96.089844 C 41.628906 98.050781 43.78125 99.363281 46.25 99.363281 C 47.585938 99.363281 48.824219 98.972656 49.871094 98.3125 C 51.292969 100.109375 53.492188 101.269531 55.972656 101.269531 C 58.621094 101.269531 60.960938 99.945312 62.359375 97.925781 C 63.511719 98.820312 64.949219 99.359375 66.523438 99.359375 C 68.992188 99.359375 71.148438 98.046875 72.339844 96.085938 C 73.066406 96.347656 73.851562 96.5 74.667969 96.5 C 76.429688 96.5 78.027344 95.832031 79.234375 94.738281 C 79.839844 95.058594 80.53125 95.242188 81.269531 95.242188 C 83.660156 95.242188 85.597656 93.3125 85.597656 90.929688 C 85.597656 88.550781 83.660156 86.621094 81.269531 86.621094 Z M 81.269531 86.621094 " fill-opacity="1" fill-rule="nonzero"/></g><path fill="#a86230" d="M 46.425781 89.722656 C 46.425781 90.007812 46.371094 90.28125 46.261719 90.542969 C 46.152344 90.808594 45.996094 91.039062 45.792969 91.242188 C 45.589844 91.441406 45.359375 91.597656 45.09375 91.707031 C 44.832031 91.816406 44.554688 91.867188 44.269531 91.867188 C 43.984375 91.867188 43.710938 91.816406 43.445312 91.707031 C 43.183594 91.597656 42.949219 91.441406 42.746094 91.242188 C 42.542969 91.039062 42.390625 90.808594 42.28125 90.542969 C 42.171875 90.28125 42.117188 90.007812 42.117188 89.722656 C 42.117188 89.441406 42.171875 89.164062 42.28125 88.902344 C 42.390625 88.640625 42.542969 88.410156 42.746094 88.207031 C 42.949219 88.007812 43.183594 87.851562 43.445312 87.742188 C 43.710938 87.632812 43.984375 87.578125 44.269531 87.578125 C 44.554688 87.578125 44.832031 87.632812 45.09375 87.742188 C 45.359375 87.851562 45.589844 88.007812 45.792969 88.207031 C 45.996094 88.410156 46.152344 88.640625 46.261719 88.902344 C 46.371094 89.164062 46.425781 89.441406 46.425781 89.722656 Z M 46.425781 89.722656 " fill-opacity="1" fill-rule="nonzero"/><path fill="#a86230" d="M 45.199219 84.386719 C 45.199219 84.546875 45.167969 84.703125 45.105469 84.851562 C 45.042969 85.003906 44.953125 85.132812 44.839844 85.25 C 44.722656 85.363281 44.589844 85.453125 44.441406 85.515625 C 44.292969 85.574219 44.136719 85.605469 43.972656 85.605469 C 43.808594 85.605469 43.652344 85.574219 43.503906 85.515625 C 43.351562 85.453125 43.21875 85.363281 43.105469 85.25 C 42.992188 85.132812 42.902344 85.003906 42.839844 84.851562 C 42.777344 84.703125 42.746094 84.546875 42.746094 84.386719 C 42.746094 84.222656 42.777344 84.070312 42.839844 83.917969 C 42.902344 83.769531 42.992188 83.636719 43.105469 83.523438 C 43.21875 83.410156 43.351562 83.320312 43.503906 83.257812 C 43.652344 83.195312 43.808594 83.164062 43.972656 83.164062 C 44.136719 83.164062 44.292969 83.195312 44.441406 83.257812 C 44.589844 83.320312 44.722656 83.410156 44.839844 83.523438 C 44.953125 83.636719 45.042969 83.769531 45.105469 83.917969 C 45.167969 84.070312 45.199219 84.222656 45.199219 84.386719 Z M 45.199219 84.386719 " fill-opacity="1" fill-rule="nonzero"/><path fill="#a86230" d="M 40.332031 88.296875 C 40.332031 88.457031 40.300781 88.613281 40.238281 88.761719 C 40.175781 88.910156 40.085938 89.042969 39.972656 89.160156 C 39.855469 89.273438 39.722656 89.359375 39.574219 89.421875 C 39.421875 89.484375 39.265625 89.515625 39.105469 89.515625 C 38.941406 89.515625 38.785156 89.484375 38.636719 89.421875 C 38.484375 89.359375 38.351562 89.273438 38.238281 89.160156 C 38.121094 89.042969 38.035156 88.910156 37.972656 88.761719 C 37.910156 88.613281 37.878906 88.457031 37.878906 88.296875 C 37.878906 88.132812 37.910156 87.976562 37.972656 87.828125 C 38.035156 87.679688 38.121094 87.546875 38.238281 87.433594 C 38.351562 87.316406 38.484375 87.230469 38.636719 87.167969 C 38.785156 87.105469 38.941406 87.074219 39.105469 87.074219 C 39.265625 87.074219 39.421875 87.105469 39.574219 87.167969 C 39.722656 87.230469 39.855469 87.316406 39.972656 87.433594 C 40.085938 87.546875 40.175781 87.679688 40.238281 87.828125 C 40.300781 87.976562 40.332031 88.132812 40.332031 88.296875 Z M 40.332031 88.296875 " fill-opacity="1" fill-rule="nonzero"/><path fill="#a86230" d="M 70.683594 89.789062 C 70.683594 90.070312 70.628906 90.34375 70.519531 90.609375 C 70.410156 90.871094 70.253906 91.101562 70.050781 91.304688 C 69.851562 91.503906 69.617188 91.660156 69.351562 91.769531 C 69.089844 91.878906 68.8125 91.933594 68.527344 91.933594 C 68.242188 91.933594 67.96875 91.878906 67.703125 91.769531 C 67.441406 91.660156 67.207031 91.503906 67.003906 91.304688 C 66.804688 91.101562 66.648438 90.871094 66.539062 90.609375 C 66.429688 90.34375 66.375 90.070312 66.375 89.789062 C 66.375 89.503906 66.429688 89.230469 66.539062 88.964844 C 66.648438 88.703125 66.804688 88.472656 67.003906 88.269531 C 67.207031 88.070312 67.441406 87.914062 67.703125 87.804688 C 67.96875 87.695312 68.242188 87.640625 68.527344 87.640625 C 68.8125 87.640625 69.089844 87.695312 69.351562 87.804688 C 69.617188 87.914062 69.851562 88.070312 70.050781 88.269531 C 70.253906 88.472656 70.410156 88.703125 70.519531 88.964844 C 70.628906 89.230469 70.683594 89.503906 70.683594 89.789062 Z M 70.683594 89.789062 " fill-opacity="1" fill-rule="nonzero"/><path fill="#a86230" d="M 70.050781 84.449219 C 70.050781 84.613281 70.019531 84.765625 69.957031 84.917969 C 69.894531 85.066406 69.808594 85.199219 69.691406 85.3125 C 69.578125 85.425781 69.445312 85.515625 69.296875 85.578125 C 69.144531 85.640625 68.988281 85.671875 68.824219 85.671875 C 68.664062 85.671875 68.507812 85.640625 68.355469 85.578125 C 68.207031 85.515625 68.074219 85.425781 67.960938 85.3125 C 67.84375 85.199219 67.753906 85.066406 67.695312 84.917969 C 67.632812 84.765625 67.601562 84.613281 67.601562 84.449219 C 67.601562 84.289062 67.632812 84.132812 67.695312 83.984375 C 67.753906 83.832031 67.84375 83.699219 67.960938 83.585938 C 68.074219 83.472656 68.207031 83.382812 68.355469 83.320312 C 68.507812 83.261719 68.664062 83.230469 68.824219 83.230469 C 68.988281 83.230469 69.144531 83.261719 69.296875 83.320312 C 69.445312 83.382812 69.578125 83.472656 69.691406 83.585938 C 69.808594 83.699219 69.894531 83.832031 69.957031 83.980469 C 70.019531 84.132812 70.050781 84.289062 70.050781 84.449219 Z M 70.050781 84.449219 " fill-opacity="1" fill-rule="nonzero"/><path fill="#a86230" d="M 74.921875 88.359375 C 74.921875 88.519531 74.890625 88.675781 74.828125 88.824219 C 74.765625 88.976562 74.675781 89.105469 74.5625 89.222656 C 74.445312 89.335938 74.3125 89.425781 74.164062 89.488281 C 74.011719 89.546875 73.855469 89.578125 73.695312 89.578125 C 73.53125 89.578125 73.375 89.546875 73.226562 89.488281 C 73.074219 89.425781 72.941406 89.335938 72.828125 89.222656 C 72.710938 89.105469 72.625 88.976562 72.5625 88.824219 C 72.5 88.675781 72.46875 88.519531 72.46875 88.359375 C 72.46875 88.195312 72.5 88.042969 72.5625 87.890625 C 72.625 87.742188 72.710938 87.609375 72.828125 87.496094 C 72.941406 87.382812 73.074219 87.292969 73.226562 87.230469 C 73.375 87.167969 73.53125 87.136719 73.695312 87.136719 C 73.855469 87.136719 74.011719 87.167969 74.164062 87.230469 C 74.3125 87.292969 74.445312 87.382812 74.5625 87.496094 C 74.675781 87.609375 74.765625 87.742188 74.828125 87.890625 C 74.890625 88.042969 74.921875 88.195312 74.921875 88.359375 Z M 74.921875 88.359375 " fill-opacity="1" fill-rule="nonzero"/></svg>