<svg xmlns="http://www.w3.org/2000/svg" xmlns:xlink="http://www.w3.org/1999/xlink" width="150" zoomAndPan="magnify" viewBox="0 0 112.5 112.499997" height="150" preserveAspectRatio="xMidYMid meet" version="1.0"><defs><clipPath id="id1"><path d="M 55 15.074219 L 58 15.074219 L 58 18 L 55 18 Z M 55 15.074219 " clip-rule="nonzero"/></clipPath><clipPath id="id2"><path d="M 57 15.074219 L 59 15.074219 L 59 18 L 57 18 Z M 57 15.074219 " clip-rule="nonzero"/></clipPath><clipPath id="id3"><path d="M 27.117188 83 L 31 83 L 31 86 L 27.117188 86 Z M 27.117188 83 " clip-rule="nonzero"/></clipPath><clipPath id="id4"><path d="M 27.117188 84 L 31 84 L 31 87 L 27.117188 87 Z M 27.117188 84 " clip-rule="nonzero"/></clipPath><clipPath id="id5"><path d="M 82 84 L 85.617188 84 L 85.617188 87 L 82 87 Z M 82 84 " clip-rule="nonzero"/></clipPath></defs><path fill="#bdbcbc" d="M 79.511719 81.164062 C 78.40625 89.628906 69.894531 94.054688 58.035156 94.054688 C 46.175781 94.054688 37.753906 89.886719 36.558594 81.164062 C 34.082031 63.082031 46.175781 43.660156 58.035156 43.660156 C 69.894531 43.660156 81.859375 63.195312 79.511719 81.164062 " fill-opacity="1" fill-rule="nonzero"/><path fill="#351f17" d="M 77.640625 64.222656 C 78.878906 68.132812 79.585938 72.324219 79.585938 76.523438 C 79.585938 78.066406 79.492188 79.605469 79.292969 81.136719 C 79.019531 83.21875 78.292969 85.046875 77.175781 86.621094 C 75.5 88.984375 72.933594 90.789062 69.675781 92 C 66.414062 93.214844 62.460938 93.835938 58.035156 93.835938 C 52.128906 93.835938 47.09375 92.792969 43.40625 90.691406 C 41.5625 89.636719 40.054688 88.320312 38.933594 86.730469 C 37.808594 85.144531 37.074219 83.285156 36.777344 81.132812 C 36.558594 79.535156 36.453125 77.925781 36.453125 76.316406 C 36.453125 72.382812 37.082031 68.472656 38.179688 64.796875 C 38.214844 64.679688 38.148438 64.558594 38.03125 64.523438 C 37.914062 64.488281 37.789062 64.554688 37.753906 64.671875 C 36.644531 68.382812 36.011719 72.335938 36.011719 76.316406 C 36.011719 77.945312 36.117188 79.574219 36.339844 81.195312 C 36.640625 83.40625 37.40625 85.339844 38.570312 86.988281 C 40.316406 89.457031 42.953125 91.28125 46.265625 92.484375 C 49.578125 93.6875 53.566406 94.277344 58.035156 94.277344 C 63.992188 94.277344 69.121094 93.167969 72.917969 90.976562 C 74.816406 89.878906 76.378906 88.511719 77.539062 86.878906 C 78.695312 85.242188 79.449219 83.34375 79.730469 81.195312 C 79.933594 79.644531 80.03125 78.082031 80.03125 76.523438 C 80.03125 72.273438 79.3125 68.039062 78.0625 64.085938 C 78.023438 63.972656 77.898438 63.90625 77.785156 63.945312 C 77.667969 63.980469 77.601562 64.105469 77.640625 64.222656 " fill-opacity="1" fill-rule="nonzero"/><path fill="#bdbcbc" d="M 78.332031 73.117188 C 78.332031 73.117188 76.589844 67.679688 69.460938 63.105469 C 68.5 62.15625 71.882812 57 75.949219 58.691406 C 83.6875 62.042969 82.160156 71.664062 82.160156 71.664062 C 82.160156 71.664062 85.539062 76.054688 80.984375 76.554688 C 76.429688 77.058594 78.332031 73.117188 78.332031 73.117188 " fill-opacity="1" fill-rule="nonzero"/><path fill="#bdbcbc" d="M 64.875 59.554688 C 64.875 61.648438 61.207031 63.34375 56.683594 63.34375 C 52.160156 63.34375 48.492188 61.648438 48.492188 59.554688 C 48.492188 57.460938 52.160156 55.769531 56.683594 55.769531 C 61.207031 55.769531 64.875 57.460938 64.875 59.554688 " fill-opacity="1" fill-rule="nonzero"/><path fill="#bdbcbc" d="M 35.945312 73.117188 C 35.945312 73.117188 37.6875 67.679688 44.816406 63.105469 C 45.777344 62.15625 42.398438 57 38.328125 58.691406 C 30.589844 62.042969 32.113281 71.664062 32.113281 71.664062 C 32.113281 71.664062 28.742188 76.054688 33.292969 76.554688 C 37.847656 77.058594 35.945312 73.117188 35.945312 73.117188 " fill-opacity="1" fill-rule="nonzero"/><path fill="#351f17" d="M 38.238281 58.488281 C 35.40625 59.710938 33.78125 61.773438 32.875 63.894531 C 31.96875 66.015625 31.773438 68.195312 31.769531 69.710938 C 31.769531 70.90625 31.894531 71.6875 31.898438 71.699219 L 32.113281 71.664062 L 31.9375 71.527344 C 31.933594 71.535156 31.628906 71.933594 31.316406 72.511719 C 31.007812 73.09375 30.691406 73.847656 30.691406 74.597656 C 30.691406 74.847656 30.726562 75.101562 30.820312 75.34375 C 30.953125 75.703125 31.214844 76.03125 31.617188 76.277344 C 32.019531 76.527344 32.558594 76.695312 33.269531 76.773438 C 33.550781 76.804688 33.804688 76.820312 34.042969 76.820312 C 34.523438 76.820312 34.921875 76.761719 35.253906 76.648438 C 35.75 76.484375 36.089844 76.199219 36.289062 75.859375 C 36.496094 75.519531 36.5625 75.136719 36.5625 74.773438 C 36.5625 74.320312 36.457031 73.886719 36.355469 73.5625 C 36.25 73.238281 36.148438 73.027344 36.144531 73.019531 L 35.945312 73.117188 L 36.15625 73.1875 L 36.160156 73.175781 C 36.21875 73.015625 36.742188 71.605469 37.742188 69.957031 C 38.742188 68.308594 40.214844 66.433594 42.140625 65.335938 C 42.246094 65.273438 42.285156 65.136719 42.222656 65.03125 C 42.164062 64.925781 42.027344 64.890625 41.921875 64.949219 C 39.824219 66.148438 38.289062 68.171875 37.265625 69.890625 C 36.246094 71.613281 35.742188 73.035156 35.738281 73.042969 C 35.71875 73.097656 35.722656 73.15625 35.746094 73.210938 L 35.75 73.21875 C 35.789062 73.296875 36.121094 74.046875 36.117188 74.773438 C 36.117188 74.980469 36.09375 75.183594 36.03125 75.367188 C 35.9375 75.648438 35.773438 75.886719 35.46875 76.070312 C 35.164062 76.253906 34.710938 76.378906 34.042969 76.378906 C 33.824219 76.378906 33.582031 76.363281 33.320312 76.335938 C 32.429688 76.238281 31.882812 75.988281 31.566406 75.6875 C 31.410156 75.535156 31.300781 75.367188 31.234375 75.1875 C 31.164062 75.003906 31.132812 74.804688 31.132812 74.597656 C 31.128906 73.976562 31.414062 73.265625 31.707031 72.722656 C 31.855469 72.449219 32 72.214844 32.113281 72.050781 C 32.164062 71.96875 32.210938 71.90625 32.242188 71.863281 C 32.257812 71.839844 32.273438 71.824219 32.28125 71.8125 L 32.289062 71.796875 C 32.328125 71.75 32.34375 71.6875 32.335938 71.628906 C 32.335938 71.628906 32.332031 71.617188 32.328125 71.597656 C 32.308594 71.441406 32.214844 70.730469 32.214844 69.710938 C 32.214844 68.234375 32.410156 66.109375 33.28125 64.066406 C 34.15625 62.027344 35.699219 60.070312 38.414062 58.890625 C 38.527344 58.84375 38.578125 58.714844 38.53125 58.601562 C 38.480469 58.488281 38.351562 58.4375 38.238281 58.488281 " fill-opacity="1" fill-rule="nonzero"/><path fill="#351f17" d="M 64.875 59.554688 L 64.652344 59.554688 C 64.652344 60.011719 64.457031 60.457031 64.070312 60.878906 C 63.488281 61.515625 62.480469 62.085938 61.199219 62.484375 C 59.914062 62.886719 58.359375 63.121094 56.683594 63.121094 C 54.453125 63.125 52.429688 62.703125 50.984375 62.035156 C 50.265625 61.699219 49.6875 61.304688 49.300781 60.878906 C 48.914062 60.457031 48.714844 60.011719 48.714844 59.554688 C 48.714844 59.097656 48.914062 58.65625 49.300781 58.230469 C 49.882812 57.59375 50.890625 57.023438 52.171875 56.625 C 53.453125 56.226562 55.011719 55.988281 56.683594 55.988281 C 58.917969 55.988281 60.941406 56.410156 62.382812 57.078125 C 63.105469 57.410156 63.679688 57.804688 64.070312 58.230469 C 64.457031 58.65625 64.652344 59.097656 64.652344 59.554688 L 65.097656 59.554688 C 65.097656 58.964844 64.835938 58.414062 64.394531 57.933594 C 63.730469 57.210938 62.664062 56.621094 61.332031 56.203125 C 60 55.789062 58.402344 55.546875 56.683594 55.546875 C 54.394531 55.546875 52.320312 55.976562 50.800781 56.675781 C 50.039062 57.027344 49.417969 57.449219 48.972656 57.933594 C 48.53125 58.414062 48.273438 58.964844 48.273438 59.554688 C 48.273438 60.144531 48.53125 60.699219 48.972656 61.179688 C 49.636719 61.902344 50.707031 62.488281 52.039062 62.90625 C 53.371094 63.324219 54.96875 63.5625 56.683594 63.5625 C 58.976562 63.5625 61.050781 63.136719 62.570312 62.433594 C 63.328125 62.082031 63.953125 61.660156 64.394531 61.179688 C 64.835938 60.699219 65.097656 60.144531 65.097656 59.554688 L 64.875 59.554688 " fill-opacity="1" fill-rule="nonzero"/><path fill="#bdbcbc" d="M 75.277344 38.410156 C 75.609375 36.914062 75.769531 35.332031 75.769531 33.699219 C 75.769531 24.144531 70.320312 16.398438 57.082031 16.398438 C 43.847656 16.398438 39.496094 24.144531 39.496094 33.699219 C 39.496094 35.179688 39.601562 36.613281 39.824219 37.984375 C 36.945312 40.246094 33.777344 43.238281 34.433594 49.878906 C 36.171875 67.457031 56.683594 59.414062 56.683594 59.414062 C 56.683594 59.414062 78.398438 67.421875 80.175781 49.972656 C 80.738281 44.453125 77.546875 40.578125 75.277344 38.410156 " fill-opacity="1" fill-rule="nonzero"/><path fill="#351f17" d="M 55.140625 16.238281 C 52.183594 16.417969 49.710938 17.027344 47.664062 17.980469 C 44.59375 19.414062 42.484375 21.636719 41.15625 24.351562 C 39.828125 27.066406 39.273438 30.273438 39.273438 33.699219 C 39.273438 35.1875 39.378906 36.636719 39.605469 38.019531 L 39.824219 37.984375 L 39.6875 37.808594 C 38.375 38.84375 36.980469 40.039062 35.917969 41.679688 C 34.851562 43.316406 34.125 45.398438 34.125 48.167969 C 34.125 48.714844 34.152344 49.292969 34.214844 49.898438 C 34.441406 52.214844 34.996094 54.101562 35.789062 55.628906 C 36.980469 57.917969 38.71875 59.386719 40.675781 60.273438 C 42.636719 61.160156 44.816406 61.472656 46.921875 61.472656 C 52.054688 61.46875 56.753906 59.625 56.765625 59.621094 L 56.683594 59.414062 L 56.609375 59.621094 C 56.621094 59.625 61.609375 61.46875 67.035156 61.46875 C 69.996094 61.46875 73.09375 60.921875 75.582031 59.203125 C 76.828125 58.34375 77.917969 57.191406 78.75 55.679688 C 79.585938 54.164062 80.164062 52.292969 80.398438 49.992188 C 80.441406 49.550781 80.464844 49.121094 80.464844 48.699219 C 80.464844 47.558594 80.304688 46.496094 80.039062 45.507812 C 80.007812 45.390625 79.886719 45.320312 79.769531 45.351562 C 79.652344 45.382812 79.582031 45.503906 79.613281 45.625 C 79.871094 46.574219 80.019531 47.597656 80.019531 48.699219 C 80.019531 49.105469 80 49.523438 79.957031 49.949219 C 79.726562 52.199219 79.164062 54.011719 78.363281 55.464844 C 77.160156 57.644531 75.425781 59.027344 73.441406 59.875 C 71.453125 60.722656 69.214844 61.027344 67.035156 61.027344 C 64.371094 61.027344 61.796875 60.570312 59.894531 60.117188 C 58.941406 59.890625 58.15625 59.660156 57.613281 59.492188 C 57.339844 59.40625 57.125 59.335938 56.980469 59.285156 C 56.910156 59.261719 56.855469 59.242188 56.816406 59.226562 C 56.78125 59.214844 56.761719 59.207031 56.761719 59.207031 C 56.710938 59.191406 56.65625 59.191406 56.605469 59.210938 C 56.605469 59.210938 56.585938 59.214844 56.554688 59.230469 C 56.035156 59.425781 51.636719 61.03125 46.921875 61.03125 C 44.171875 61.03125 41.324219 60.484375 39.066406 58.828125 C 37.9375 58 36.949219 56.894531 36.183594 55.425781 C 35.417969 53.957031 34.878906 52.128906 34.65625 49.855469 C 34.59375 49.261719 34.570312 48.703125 34.570312 48.167969 C 34.570312 45.472656 35.269531 43.492188 36.289062 41.917969 C 37.308594 40.34375 38.65625 39.179688 39.960938 38.15625 C 40.027344 38.109375 40.058594 38.027344 40.042969 37.949219 C 39.820312 36.589844 39.71875 35.167969 39.71875 33.699219 C 39.71875 29.191406 40.695312 25.117188 43.097656 22.085938 C 44.300781 20.570312 45.863281 19.308594 47.851562 18.382812 C 49.839844 17.453125 52.257812 16.855469 55.167969 16.675781 C 55.289062 16.671875 55.382812 16.566406 55.375 16.441406 C 55.367188 16.320312 55.261719 16.230469 55.140625 16.238281 " fill-opacity="1" fill-rule="nonzero"/><path fill="#351f17" d="M 78.785156 42.460938 C 77.78125 40.675781 76.5 39.273438 75.429688 38.25 L 75.277344 38.410156 L 75.492188 38.457031 C 75.828125 36.941406 75.992188 35.347656 75.992188 33.699219 C 75.992188 29.144531 74.765625 24.980469 72.039062 21.847656 C 69.316406 18.71875 65.105469 16.644531 59.210938 16.246094 C 59.085938 16.238281 58.980469 16.332031 58.972656 16.453125 C 58.964844 16.574219 59.058594 16.679688 59.179688 16.6875 C 64.988281 17.082031 69.066406 19.109375 71.707031 22.136719 C 74.34375 25.167969 75.550781 29.222656 75.550781 33.699219 C 75.550781 35.316406 75.386719 36.882812 75.0625 38.363281 C 75.042969 38.4375 75.066406 38.515625 75.125 38.570312 C 76.175781 39.574219 77.425781 40.945312 78.398438 42.675781 C 78.457031 42.78125 78.59375 42.820312 78.699219 42.761719 C 78.804688 42.703125 78.84375 42.566406 78.785156 42.460938 " fill-opacity="1" fill-rule="nonzero"/><path fill="#bdbcbc" d="M 45.230469 22.601562 C 45.230469 22.601562 39.550781 23.632812 38.210938 22.601562 C 36.871094 21.570312 35.941406 18.847656 38.933594 17.722656 C 41.925781 16.59375 46.675781 20.160156 46.675781 20.160156 L 45.230469 22.601562 " fill-opacity="1" fill-rule="nonzero"/><path fill="#f68971" d="M 43.261719 21.542969 C 43.261719 21.542969 40.636719 22.023438 39.9375 21.488281 C 39.242188 20.953125 38.757812 19.539062 40.316406 18.949219 C 41.871094 18.367188 44.339844 20.933594 44.339844 20.933594 L 43.261719 21.542969 " fill-opacity="1" fill-rule="nonzero"/><path fill="#351f17" d="M 42.378906 22.753906 C 41.800781 22.804688 41.195312 22.839844 40.628906 22.839844 C 40.117188 22.839844 39.636719 22.8125 39.234375 22.742188 C 38.835938 22.675781 38.519531 22.5625 38.347656 22.425781 C 38.03125 22.183594 37.730469 21.832031 37.515625 21.429688 C 37.300781 21.027344 37.167969 20.570312 37.167969 20.128906 C 37.167969 19.707031 37.285156 19.292969 37.566406 18.917969 C 37.851562 18.539062 38.3125 18.191406 39.011719 17.929688 C 39.390625 17.785156 39.804688 17.722656 40.238281 17.722656 C 41.144531 17.722656 42.140625 18 43.0625 18.378906 C 43.988281 18.753906 44.84375 19.230469 45.472656 19.621094 C 45.574219 19.6875 45.710938 19.65625 45.777344 19.550781 C 45.839844 19.445312 45.808594 19.3125 45.707031 19.246094 C 45.0625 18.847656 44.1875 18.359375 43.234375 17.96875 C 42.277344 17.578125 41.234375 17.28125 40.238281 17.28125 C 39.761719 17.28125 39.292969 17.351562 38.855469 17.515625 C 38.09375 17.800781 37.558594 18.195312 37.214844 18.652344 C 36.871094 19.109375 36.722656 19.625 36.722656 20.128906 C 36.722656 20.660156 36.878906 21.179688 37.125 21.636719 C 37.371094 22.09375 37.703125 22.492188 38.074219 22.777344 C 38.347656 22.984375 38.722656 23.101562 39.160156 23.179688 C 39.597656 23.253906 40.101562 23.28125 40.628906 23.28125 C 41.214844 23.28125 41.832031 23.246094 42.417969 23.195312 C 42.539062 23.183594 42.628906 23.078125 42.617188 22.957031 C 42.609375 22.835938 42.5 22.746094 42.378906 22.753906 " fill-opacity="1" fill-rule="nonzero"/><path fill="#351f17" d="M 42.921875 21.367188 C 42.449219 21.433594 41.78125 21.503906 41.195312 21.503906 C 40.933594 21.503906 40.6875 21.488281 40.488281 21.457031 C 40.289062 21.421875 40.140625 21.367188 40.074219 21.3125 C 39.925781 21.195312 39.777344 21.023438 39.671875 20.828125 C 39.566406 20.632812 39.503906 20.410156 39.503906 20.203125 C 39.503906 20.003906 39.558594 19.8125 39.691406 19.636719 C 39.824219 19.460938 40.042969 19.289062 40.394531 19.15625 C 40.523438 19.109375 40.664062 19.085938 40.816406 19.085938 C 41.148438 19.082031 41.535156 19.199219 41.917969 19.386719 C 42.492188 19.664062 43.0625 20.089844 43.484375 20.449219 C 43.695312 20.625 43.871094 20.785156 43.992188 20.902344 C 44.050781 20.960938 44.097656 21.007812 44.132812 21.039062 L 44.179688 21.085938 C 44.261719 21.175781 44.402344 21.179688 44.492188 21.09375 C 44.582031 21.007812 44.582031 20.871094 44.5 20.78125 C 44.492188 20.777344 43.992188 20.253906 43.285156 19.722656 C 42.933594 19.457031 42.53125 19.191406 42.109375 18.988281 C 41.691406 18.785156 41.25 18.644531 40.816406 18.644531 C 40.621094 18.644531 40.425781 18.671875 40.238281 18.742188 C 39.828125 18.898438 39.53125 19.113281 39.335938 19.371094 C 39.144531 19.625 39.058594 19.921875 39.058594 20.203125 C 39.0625 20.5 39.148438 20.785156 39.28125 21.035156 C 39.414062 21.285156 39.597656 21.503906 39.804688 21.660156 C 39.972656 21.789062 40.179688 21.847656 40.414062 21.890625 C 40.652344 21.933594 40.917969 21.945312 41.195312 21.945312 C 41.816406 21.945312 42.5 21.871094 42.984375 21.804688 C 43.105469 21.789062 43.1875 21.675781 43.171875 21.554688 C 43.15625 21.433594 43.042969 21.351562 42.921875 21.367188 " fill-opacity="1" fill-rule="nonzero"/><path fill="#bdbcbc" d="M 69.171875 22.601562 C 69.171875 22.601562 74.851562 23.632812 76.191406 22.601562 C 77.535156 21.570312 78.464844 18.847656 75.46875 17.722656 C 72.476562 16.59375 67.730469 20.160156 67.730469 20.160156 L 69.171875 22.601562 " fill-opacity="1" fill-rule="nonzero"/><path fill="#f68971" d="M 71.140625 21.542969 C 71.140625 21.542969 73.765625 22.023438 74.464844 21.488281 C 75.164062 20.953125 75.644531 19.539062 74.089844 18.949219 C 72.53125 18.367188 70.066406 20.933594 70.066406 20.933594 L 71.140625 21.542969 " fill-opacity="1" fill-rule="nonzero"/><path fill="#351f17" d="M 71.988281 23.195312 C 72.574219 23.246094 73.191406 23.28125 73.773438 23.28125 C 74.304688 23.28125 74.804688 23.253906 75.242188 23.179688 C 75.679688 23.101562 76.054688 22.984375 76.328125 22.777344 C 76.699219 22.492188 77.03125 22.09375 77.277344 21.636719 C 77.523438 21.179688 77.679688 20.660156 77.679688 20.128906 C 77.679688 19.625 77.535156 19.109375 77.191406 18.652344 C 76.84375 18.195312 76.308594 17.800781 75.546875 17.515625 C 75.109375 17.351562 74.640625 17.28125 74.164062 17.28125 C 73.167969 17.28125 72.128906 17.578125 71.171875 17.96875 C 70.214844 18.359375 69.34375 18.847656 68.699219 19.246094 C 68.59375 19.3125 68.5625 19.445312 68.628906 19.550781 C 68.691406 19.65625 68.828125 19.6875 68.933594 19.621094 C 69.5625 19.230469 70.414062 18.753906 71.339844 18.378906 C 72.261719 18 73.257812 17.722656 74.164062 17.722656 C 74.597656 17.722656 75.011719 17.785156 75.390625 17.929688 C 76.09375 18.191406 76.550781 18.539062 76.835938 18.917969 C 77.121094 19.292969 77.234375 19.707031 77.238281 20.128906 C 77.238281 20.574219 77.105469 21.027344 76.886719 21.429688 C 76.671875 21.832031 76.375 22.183594 76.058594 22.425781 C 75.882812 22.5625 75.570312 22.675781 75.167969 22.742188 C 74.769531 22.8125 74.289062 22.839844 73.773438 22.839844 C 73.207031 22.839844 72.601562 22.804688 72.027344 22.753906 C 71.902344 22.746094 71.796875 22.832031 71.785156 22.957031 C 71.773438 23.078125 71.867188 23.183594 71.988281 23.195312 " fill-opacity="1" fill-rule="nonzero"/><path fill="#351f17" d="M 71.421875 21.804688 C 71.902344 21.871094 72.585938 21.945312 73.207031 21.945312 C 73.484375 21.945312 73.753906 21.933594 73.988281 21.890625 C 74.226562 21.847656 74.433594 21.789062 74.597656 21.660156 C 74.804688 21.503906 74.988281 21.285156 75.121094 21.035156 C 75.257812 20.785156 75.34375 20.5 75.34375 20.203125 C 75.34375 19.921875 75.261719 19.625 75.066406 19.371094 C 74.875 19.113281 74.578125 18.898438 74.167969 18.742188 C 73.980469 18.671875 73.785156 18.644531 73.585938 18.644531 C 73.152344 18.644531 72.714844 18.785156 72.292969 18.988281 C 71.664062 19.292969 71.070312 19.738281 70.632812 20.109375 C 70.195312 20.480469 69.910156 20.777344 69.90625 20.78125 C 69.820312 20.871094 69.824219 21.007812 69.910156 21.09375 C 70 21.179688 70.140625 21.175781 70.226562 21.085938 L 70.246094 21.066406 C 70.351562 20.957031 70.863281 20.453125 71.511719 19.980469 C 71.835938 19.746094 72.199219 19.519531 72.558594 19.351562 C 72.917969 19.1875 73.273438 19.082031 73.585938 19.085938 C 73.738281 19.085938 73.878906 19.109375 74.011719 19.15625 C 74.359375 19.289062 74.578125 19.460938 74.710938 19.636719 C 74.847656 19.8125 74.898438 20.003906 74.898438 20.203125 C 74.902344 20.410156 74.835938 20.632812 74.730469 20.828125 C 74.625 21.023438 74.480469 21.195312 74.328125 21.3125 C 74.261719 21.367188 74.113281 21.421875 73.914062 21.457031 C 73.714844 21.488281 73.46875 21.503906 73.207031 21.503906 C 72.621094 21.503906 71.953125 21.433594 71.480469 21.367188 C 71.359375 21.351562 71.25 21.433594 71.230469 21.554688 C 71.214844 21.675781 71.300781 21.789062 71.421875 21.804688 " fill-opacity="1" fill-rule="nonzero"/><path fill="#351f17" d="M 46.675781 50.902344 C 46.675781 52.273438 46.011719 53.382812 45.195312 53.382812 C 44.375 53.382812 43.714844 52.273438 43.714844 50.902344 C 43.714844 49.535156 44.375 48.425781 45.195312 48.425781 C 46.011719 48.425781 46.675781 49.535156 46.675781 50.902344 " fill-opacity="1" fill-rule="nonzero"/><path fill="#351f17" d="M 42.503906 50.382812 C 42.503906 49.34375 42.820312 48.410156 43.3125 47.746094 C 43.8125 47.078125 44.476562 46.6875 45.195312 46.6875 C 45.601562 46.6875 45.988281 46.8125 46.34375 47.042969 C 46.695312 47.273438 47.007812 47.609375 47.261719 48.023438 C 47.324219 48.128906 47.460938 48.164062 47.566406 48.097656 C 47.671875 48.035156 47.703125 47.898438 47.640625 47.796875 C 47.359375 47.332031 47 46.945312 46.585938 46.671875 C 46.171875 46.402344 45.695312 46.246094 45.195312 46.246094 C 44.304688 46.246094 43.515625 46.734375 42.957031 47.480469 C 42.398438 48.234375 42.0625 49.257812 42.0625 50.382812 C 42.0625 50.503906 42.160156 50.601562 42.285156 50.601562 C 42.40625 50.601562 42.503906 50.503906 42.503906 50.382812 " fill-opacity="1" fill-rule="nonzero"/><path fill="#351f17" d="M 67.785156 50.902344 C 67.785156 52.273438 68.445312 53.382812 69.265625 53.382812 C 70.082031 53.382812 70.746094 52.273438 70.746094 50.902344 C 70.746094 49.535156 70.082031 48.425781 69.265625 48.425781 C 68.445312 48.425781 67.785156 49.535156 67.785156 50.902344 " fill-opacity="1" fill-rule="nonzero"/><path fill="#351f17" d="M 72.394531 50.382812 C 72.394531 49.257812 72.058594 48.234375 71.5 47.484375 C 70.945312 46.734375 70.152344 46.246094 69.265625 46.246094 C 68.761719 46.246094 68.289062 46.402344 67.875 46.671875 C 67.457031 46.945312 67.101562 47.332031 66.820312 47.796875 C 66.753906 47.898438 66.789062 48.035156 66.894531 48.097656 C 67 48.164062 67.132812 48.128906 67.199219 48.023438 C 67.449219 47.609375 67.765625 47.273438 68.117188 47.042969 C 68.46875 46.8125 68.855469 46.6875 69.265625 46.6875 C 69.984375 46.6875 70.648438 47.078125 71.144531 47.746094 C 71.640625 48.410156 71.953125 49.34375 71.953125 50.382812 C 71.953125 50.503906 72.050781 50.601562 72.175781 50.601562 C 72.296875 50.601562 72.394531 50.503906 72.394531 50.382812 " fill-opacity="1" fill-rule="nonzero"/><path fill="#351f17" d="M 47.101562 36.464844 C 47.101562 36.464844 47.414062 36.347656 47.96875 36.148438 C 48.25 36.058594 48.578125 35.917969 48.976562 35.8125 C 49.371094 35.695312 49.816406 35.5625 50.308594 35.429688 C 50.800781 35.320312 51.335938 35.191406 51.90625 35.078125 C 52.191406 35.03125 52.488281 34.980469 52.789062 34.929688 C 53.089844 34.882812 53.398438 34.824219 53.714844 34.796875 C 54.34375 34.730469 54.996094 34.640625 55.664062 34.617188 C 55.996094 34.605469 56.328125 34.574219 56.667969 34.570312 C 57.003906 34.566406 57.34375 34.5625 57.683594 34.558594 C 58.019531 34.550781 58.359375 34.578125 58.695312 34.585938 C 59.03125 34.605469 59.367188 34.609375 59.699219 34.640625 C 60.03125 34.671875 60.363281 34.699219 60.6875 34.726562 C 61.011719 34.765625 61.332031 34.8125 61.644531 34.851562 C 61.960938 34.890625 62.269531 34.941406 62.570312 35 C 62.871094 35.058594 63.164062 35.101562 63.449219 35.167969 C 63.730469 35.234375 64.007812 35.296875 64.273438 35.359375 C 64.539062 35.417969 64.792969 35.503906 65.035156 35.570312 C 65.527344 35.699219 65.964844 35.863281 66.351562 36.003906 C 66.738281 36.140625 67.066406 36.292969 67.339844 36.402344 C 67.609375 36.527344 67.8125 36.640625 67.953125 36.710938 C 68.09375 36.78125 68.167969 36.820312 68.167969 36.820312 C 68.167969 36.820312 67.855469 36.699219 67.304688 36.484375 C 67.027344 36.394531 66.691406 36.269531 66.300781 36.15625 C 65.90625 36.050781 65.464844 35.921875 64.972656 35.816406 C 64.484375 35.691406 63.949219 35.601562 63.386719 35.492188 C 63.101562 35.4375 62.808594 35.40625 62.511719 35.359375 C 62.363281 35.335938 62.210938 35.3125 62.058594 35.289062 C 61.90625 35.269531 61.75 35.257812 61.597656 35.238281 C 61.285156 35.203125 60.96875 35.167969 60.648438 35.136719 C 60.324219 35.113281 60 35.089844 59.671875 35.066406 C 59.34375 35.035156 59.011719 35.035156 58.679688 35.023438 C 58.347656 35.015625 58.011719 34.992188 57.679688 35 C 57.34375 35.003906 57.011719 35.003906 56.675781 35.003906 C 56.34375 35.003906 56.015625 35.03125 55.683594 35.042969 C 55.027344 35.066406 54.382812 35.128906 53.757812 35.183594 C 53.445312 35.203125 53.140625 35.253906 52.839844 35.289062 C 52.539062 35.328125 52.246094 35.363281 51.960938 35.402344 C 51.394531 35.5 50.859375 35.59375 50.363281 35.675781 C 49.871094 35.785156 49.421875 35.882812 49.023438 35.96875 C 48.621094 36.042969 48.28125 36.160156 47.996094 36.230469 C 47.425781 36.382812 47.101562 36.464844 47.101562 36.464844 " fill-opacity="1" fill-rule="nonzero"/><path fill="#351f17" d="M 67.660156 25.859375 C 67.652344 25.851562 67.433594 25.457031 67.050781 25.054688 C 66.859375 24.855469 66.628906 24.652344 66.355469 24.496094 C 66.082031 24.339844 65.769531 24.226562 65.421875 24.226562 C 65.183594 24.226562 64.929688 24.28125 64.679688 24.402344 C 64.425781 24.523438 64.175781 24.707031 63.921875 24.96875 C 63.835938 25.054688 63.839844 25.195312 63.929688 25.28125 C 64.015625 25.363281 64.15625 25.363281 64.242188 25.273438 C 64.464844 25.042969 64.671875 24.894531 64.871094 24.800781 C 65.066406 24.707031 65.246094 24.671875 65.421875 24.671875 C 65.671875 24.671875 65.910156 24.75 66.132812 24.878906 C 66.46875 25.070312 66.757812 25.371094 66.960938 25.625 C 67.0625 25.753906 67.140625 25.867188 67.195312 25.949219 C 67.222656 25.988281 67.242188 26.023438 67.253906 26.042969 L 67.269531 26.070312 L 67.273438 26.074219 L 67.273438 26.078125 C 67.332031 26.183594 67.46875 26.222656 67.574219 26.160156 C 67.683594 26.101562 67.71875 25.96875 67.660156 25.859375 " fill-opacity="1" fill-rule="nonzero"/><path fill="#351f17" d="M 47.992188 26.078125 L 47.992188 26.074219 C 48.011719 26.039062 48.230469 25.671875 48.566406 25.328125 C 48.738281 25.15625 48.9375 24.988281 49.152344 24.867188 C 49.371094 24.746094 49.601562 24.671875 49.84375 24.671875 C 50.019531 24.671875 50.199219 24.707031 50.394531 24.800781 C 50.59375 24.894531 50.804688 25.042969 51.023438 25.273438 C 51.109375 25.363281 51.25 25.363281 51.339844 25.28125 C 51.425781 25.195312 51.429688 25.054688 51.34375 24.96875 C 51.09375 24.707031 50.839844 24.523438 50.585938 24.402344 C 50.335938 24.28125 50.085938 24.226562 49.84375 24.226562 C 49.5 24.226562 49.183594 24.339844 48.910156 24.496094 C 48.503906 24.730469 48.183594 25.070312 47.960938 25.351562 C 47.734375 25.628906 47.609375 25.851562 47.605469 25.859375 C 47.546875 25.96875 47.585938 26.101562 47.691406 26.160156 C 47.796875 26.222656 47.933594 26.183594 47.992188 26.078125 " fill-opacity="1" fill-rule="nonzero"/><path fill="#351f17" d="M 65.984375 32.234375 C 65.984375 33.636719 65.488281 34.773438 64.875 34.773438 C 64.261719 34.773438 63.765625 33.636719 63.765625 32.234375 C 63.765625 30.828125 64.261719 29.691406 64.875 29.691406 C 65.488281 29.691406 65.984375 30.828125 65.984375 32.234375 " fill-opacity="1" fill-rule="nonzero"/><path fill="#553122" d="M 65.125 32.46875 C 64.859375 32.46875 64.644531 31.996094 64.644531 31.410156 C 64.644531 30.824219 64.859375 30.351562 65.125 30.351562 C 65.390625 30.351562 65.605469 30.824219 65.605469 31.410156 C 65.605469 31.996094 65.390625 32.46875 65.125 32.46875 " fill-opacity="1" fill-rule="nonzero"/><path fill="#351f17" d="M 51.40625 32.234375 C 51.40625 33.636719 50.910156 34.773438 50.296875 34.773438 C 49.683594 34.773438 49.1875 33.636719 49.1875 32.234375 C 49.1875 30.828125 49.683594 29.691406 50.296875 29.691406 C 50.910156 29.691406 51.40625 30.828125 51.40625 32.234375 " fill-opacity="1" fill-rule="nonzero"/><path fill="#553122" d="M 50.546875 32.46875 C 50.28125 32.46875 50.066406 31.996094 50.066406 31.410156 C 50.066406 30.824219 50.28125 30.351562 50.546875 30.351562 C 50.8125 30.351562 51.027344 30.824219 51.027344 31.410156 C 51.027344 31.996094 50.8125 32.46875 50.546875 32.46875 " fill-opacity="1" fill-rule="nonzero"/><path fill="#351f17" d="M 78.875 44.828125 L 79.910156 42.679688 C 79.960938 42.570312 79.914062 42.4375 79.804688 42.382812 C 79.695312 42.332031 79.5625 42.378906 79.507812 42.488281 L 78.476562 44.636719 C 78.425781 44.746094 78.46875 44.878906 78.582031 44.933594 C 78.691406 44.984375 78.824219 44.9375 78.875 44.828125 " fill-opacity="1" fill-rule="nonzero"/><g clip-path="url(#id1)"><path fill="#351f17" d="M 56.023438 17.546875 L 57.476562 15.507812 C 57.546875 15.40625 57.523438 15.269531 57.421875 15.199219 C 57.324219 15.128906 57.183594 15.152344 57.113281 15.25 L 55.660156 17.289062 C 55.589844 17.390625 55.613281 17.527344 55.714844 17.597656 C 55.8125 17.667969 55.953125 17.644531 56.023438 17.546875 " fill-opacity="1" fill-rule="nonzero"/></g><g clip-path="url(#id2)"><path fill="#351f17" d="M 57.476562 17.546875 L 58.925781 15.507812 C 59 15.40625 58.976562 15.269531 58.875 15.199219 C 58.777344 15.128906 58.636719 15.152344 58.566406 15.25 L 57.113281 17.289062 C 57.042969 17.390625 57.066406 17.527344 57.167969 17.597656 C 57.265625 17.667969 57.402344 17.644531 57.476562 17.546875 " fill-opacity="1" fill-rule="nonzero"/></g><path fill="#351f17" d="M 41.847656 64.277344 L 42.976562 65.984375 C 43.042969 66.085938 43.179688 66.113281 43.28125 66.046875 C 43.382812 65.980469 43.410156 65.839844 43.34375 65.738281 L 42.214844 64.03125 C 42.148438 63.929688 42.011719 63.902344 41.910156 63.96875 C 41.808594 64.039062 41.78125 64.175781 41.847656 64.277344 " fill-opacity="1" fill-rule="nonzero"/><path fill="#351f17" d="M 75.863281 58.890625 C 78.582031 60.070312 80.121094 62.027344 80.996094 64.066406 C 81.867188 66.109375 82.0625 68.234375 82.0625 69.710938 C 82.0625 70.292969 82.03125 70.777344 82.003906 71.109375 C 81.988281 71.277344 81.972656 71.410156 81.960938 71.496094 C 81.957031 71.539062 81.953125 71.574219 81.949219 71.597656 C 81.945312 71.617188 81.941406 71.628906 81.941406 71.628906 C 81.933594 71.6875 81.949219 71.75 81.984375 71.796875 L 82 71.8125 C 82.058594 71.894531 82.351562 72.292969 82.621094 72.824219 C 82.898438 73.355469 83.144531 74.015625 83.144531 74.597656 C 83.144531 74.804688 83.113281 75.003906 83.042969 75.1875 C 82.941406 75.457031 82.753906 75.699219 82.425781 75.902344 C 82.097656 76.105469 81.625 76.261719 80.960938 76.335938 C 80.695312 76.363281 80.453125 76.378906 80.234375 76.378906 C 79.789062 76.378906 79.4375 76.324219 79.164062 76.230469 C 78.753906 76.09375 78.515625 75.882812 78.367188 75.632812 C 78.214844 75.382812 78.15625 75.082031 78.15625 74.773438 C 78.15625 74.386719 78.25 73.992188 78.34375 73.695312 C 78.390625 73.546875 78.4375 73.425781 78.472656 73.339844 C 78.492188 73.296875 78.507812 73.265625 78.515625 73.242188 L 78.53125 73.210938 C 78.554688 73.15625 78.558594 73.097656 78.539062 73.042969 C 78.535156 73.035156 78.03125 71.613281 77.011719 69.890625 C 75.988281 68.171875 74.453125 66.148438 72.355469 64.949219 C 72.25 64.890625 72.113281 64.925781 72.054688 65.03125 C 71.992188 65.136719 72.03125 65.273438 72.136719 65.335938 C 74.125 66.46875 75.632812 68.433594 76.628906 70.117188 C 77.128906 70.957031 77.503906 71.730469 77.753906 72.289062 C 77.875 72.566406 77.96875 72.792969 78.03125 72.949219 C 78.0625 73.027344 78.085938 73.089844 78.101562 73.128906 C 78.105469 73.148438 78.113281 73.164062 78.117188 73.175781 L 78.121094 73.1875 L 78.332031 73.117188 L 78.132812 73.019531 C 78.128906 73.027344 78.023438 73.238281 77.921875 73.5625 C 77.820312 73.886719 77.714844 74.320312 77.714844 74.773438 C 77.714844 75.015625 77.746094 75.265625 77.824219 75.507812 C 77.945312 75.871094 78.183594 76.210938 78.578125 76.449219 C 78.976562 76.6875 79.511719 76.820312 80.234375 76.820312 C 80.472656 76.820312 80.726562 76.804688 81.007812 76.773438 C 81.953125 76.671875 82.601562 76.402344 83.015625 76.007812 C 83.222656 75.808594 83.367188 75.582031 83.457031 75.34375 C 83.550781 75.101562 83.585938 74.851562 83.585938 74.597656 C 83.585938 73.847656 83.265625 73.09375 82.960938 72.511719 C 82.648438 71.933594 82.34375 71.535156 82.335938 71.527344 L 82.160156 71.664062 L 82.382812 71.699219 C 82.382812 71.6875 82.503906 70.90625 82.503906 69.710938 C 82.503906 68.195312 82.308594 66.015625 81.402344 63.894531 C 80.496094 61.773438 78.871094 59.710938 76.039062 58.488281 C 75.925781 58.4375 75.796875 58.488281 75.746094 58.601562 C 75.699219 58.714844 75.75 58.84375 75.863281 58.890625 " fill-opacity="1" fill-rule="nonzero"/><path fill="#351f17" d="M 72.0625 64.03125 L 70.933594 65.738281 C 70.867188 65.839844 70.894531 65.980469 70.996094 66.046875 C 71.097656 66.113281 71.234375 66.085938 71.304688 65.980469 L 72.429688 64.277344 C 72.496094 64.175781 72.46875 64.039062 72.367188 63.96875 C 72.265625 63.902344 72.128906 63.929688 72.0625 64.03125 " fill-opacity="1" fill-rule="nonzero"/><path fill="#bdbcbc" d="M 46.777344 87.816406 C 47.660156 91.453125 45.257812 94.398438 40.980469 95.960938 C 36.703125 97.519531 33.035156 96.910156 31.285156 93.472656 C 27.660156 86.339844 27.117188 80.429688 32.941406 77.074219 C 38.535156 73.855469 44.910156 80.101562 46.777344 87.816406 " fill-opacity="1" fill-rule="nonzero"/><path fill="#df92be" d="M 44.03125 89.015625 C 44.550781 91.214844 42.996094 93.03125 40.269531 94.027344 C 37.542969 95.019531 35.226562 94.691406 34.15625 92.621094 C 31.9375 88.328125 31.015625 83.632812 35.675781 81.488281 C 39.152344 79.886719 42.933594 84.351562 44.03125 89.015625 " fill-opacity="1" fill-rule="nonzero"/><path fill="#351f17" d="M 28.917969 82.742188 C 29.121094 81.632812 29.542969 80.621094 30.21875 79.703125 C 30.894531 78.789062 31.824219 77.972656 33.050781 77.265625 C 34.054688 76.691406 35.070312 76.433594 36.082031 76.429688 C 37.203125 76.429688 38.320312 76.75 39.398438 77.332031 C 41.007812 78.207031 42.519531 79.671875 43.765625 81.503906 C 45.015625 83.335938 45.996094 85.535156 46.5625 87.871094 C 46.679688 88.355469 46.738281 88.828125 46.738281 89.285156 C 46.734375 90.703125 46.191406 91.980469 45.1875 93.078125 C 44.1875 94.175781 42.722656 95.089844 40.902344 95.75 C 39.460938 96.277344 38.09375 96.550781 36.859375 96.550781 C 35.671875 96.550781 34.605469 96.300781 33.699219 95.78125 C 32.792969 95.257812 32.042969 94.46875 31.484375 93.371094 C 30.320312 91.085938 29.480469 88.933594 29.070312 86.960938 C 29.042969 86.84375 28.925781 86.765625 28.804688 86.792969 C 28.6875 86.816406 28.609375 86.933594 28.636719 87.054688 C 29.058594 89.078125 29.914062 91.261719 31.089844 93.570312 C 31.679688 94.738281 32.496094 95.597656 33.480469 96.160156 C 34.460938 96.726562 35.609375 96.996094 36.859375 96.992188 C 38.160156 96.992188 39.574219 96.707031 41.054688 96.167969 C 42.925781 95.484375 44.449219 94.539062 45.515625 93.375 C 46.582031 92.210938 47.179688 90.820312 47.179688 89.285156 C 47.179688 88.792969 47.117188 88.285156 46.992188 87.765625 C 46.222656 84.585938 44.695312 81.652344 42.769531 79.507812 C 41.800781 78.433594 40.734375 77.554688 39.609375 76.945312 C 38.480469 76.332031 37.289062 75.988281 36.082031 75.988281 C 34.992188 75.988281 33.894531 76.273438 32.832031 76.886719 C 31.558594 77.617188 30.578125 78.472656 29.859375 79.441406 C 29.144531 80.410156 28.695312 81.492188 28.484375 82.660156 C 28.460938 82.78125 28.542969 82.898438 28.660156 82.917969 C 28.78125 82.941406 28.898438 82.859375 28.917969 82.742188 " fill-opacity="1" fill-rule="nonzero"/><path fill="#351f17" d="M 41.492188 84.089844 C 42.554688 85.480469 43.390625 87.261719 43.816406 89.066406 C 43.878906 89.332031 43.910156 89.59375 43.910156 89.84375 C 43.90625 90.695312 43.566406 91.464844 42.929688 92.140625 C 42.292969 92.816406 41.355469 93.394531 40.191406 93.816406 C 39.242188 94.164062 38.347656 94.34375 37.554688 94.34375 C 36.832031 94.34375 36.195312 94.199219 35.65625 93.898438 C 35.121094 93.601562 34.679688 93.152344 34.351562 92.519531 C 33.300781 90.484375 32.550781 88.367188 32.550781 86.511719 C 32.550781 85.496094 32.773438 84.566406 33.277344 83.753906 C 33.785156 82.9375 34.582031 82.234375 35.765625 81.6875 C 36.230469 81.476562 36.695312 81.378906 37.160156 81.378906 C 37.777344 81.378906 38.394531 81.550781 39 81.867188 C 39.109375 81.921875 39.242188 81.882812 39.296875 81.773438 C 39.355469 81.664062 39.3125 81.53125 39.207031 81.476562 C 38.550781 81.132812 37.859375 80.9375 37.160156 80.9375 C 36.632812 80.933594 36.101562 81.046875 35.582031 81.289062 C 34.332031 81.863281 33.457031 82.625 32.902344 83.519531 C 32.34375 84.414062 32.109375 85.433594 32.109375 86.511719 C 32.109375 88.484375 32.890625 90.652344 33.960938 92.722656 C 34.320312 93.421875 34.828125 93.945312 35.441406 94.285156 C 36.058594 94.625 36.773438 94.785156 37.554688 94.785156 C 38.414062 94.785156 39.355469 94.59375 40.34375 94.234375 C 41.558594 93.789062 42.550781 93.1875 43.25 92.445312 C 43.953125 91.703125 44.351562 90.816406 44.351562 89.84375 C 44.351562 89.558594 44.316406 89.265625 44.246094 88.964844 C 43.808594 87.097656 42.949219 85.265625 41.84375 83.824219 C 41.769531 83.726562 41.632812 83.707031 41.535156 83.78125 C 41.4375 83.855469 41.417969 83.992188 41.492188 84.089844 " fill-opacity="1" fill-rule="nonzero"/><path fill="#351f17" d="M 40.074219 83.222656 L 40.355469 81.535156 C 40.375 81.417969 40.292969 81.304688 40.171875 81.28125 C 40.050781 81.261719 39.9375 81.34375 39.917969 81.464844 L 39.636719 83.148438 C 39.617188 83.269531 39.699219 83.382812 39.816406 83.402344 C 39.9375 83.421875 40.054688 83.339844 40.074219 83.222656 " fill-opacity="1" fill-rule="nonzero"/><path fill="#351f17" d="M 40.902344 84.394531 L 41.746094 82.429688 C 41.792969 82.316406 41.742188 82.1875 41.628906 82.140625 C 41.515625 82.089844 41.386719 82.144531 41.339844 82.253906 L 40.496094 84.21875 C 40.445312 84.332031 40.5 84.460938 40.613281 84.507812 C 40.722656 84.558594 40.855469 84.503906 40.902344 84.394531 " fill-opacity="1" fill-rule="nonzero"/><g clip-path="url(#id3)"><path fill="#351f17" d="M 27.898438 83.492188 L 29.65625 85.03125 C 29.746094 85.113281 29.886719 85.105469 29.96875 85.011719 C 30.050781 84.921875 30.039062 84.78125 29.949219 84.699219 L 28.191406 83.160156 C 28.097656 83.078125 27.957031 83.085938 27.878906 83.179688 C 27.796875 83.269531 27.808594 83.410156 27.898438 83.492188 " fill-opacity="1" fill-rule="nonzero"/></g><g clip-path="url(#id4)"><path fill="#351f17" d="M 27.574219 85.054688 L 29.683594 86.386719 C 29.785156 86.453125 29.921875 86.421875 29.988281 86.316406 C 30.054688 86.214844 30.023438 86.078125 29.921875 86.011719 L 27.8125 84.679688 C 27.707031 84.613281 27.570312 84.644531 27.507812 84.75 C 27.441406 84.851562 27.472656 84.988281 27.574219 85.054688 " fill-opacity="1" fill-rule="nonzero"/></g><path fill="#bdbcbc" d="M 65.957031 87.816406 C 65.078125 91.453125 67.476562 94.398438 71.757812 95.960938 C 76.035156 97.519531 79.699219 96.910156 81.449219 93.472656 C 85.078125 86.339844 85.621094 80.429688 79.796875 77.074219 C 74.199219 73.855469 67.828125 80.101562 65.957031 87.816406 " fill-opacity="1" fill-rule="nonzero"/><path fill="#df92be" d="M 68.703125 89.015625 C 68.1875 91.214844 69.742188 93.03125 72.46875 94.027344 C 75.195312 95.019531 77.511719 94.691406 78.582031 92.621094 C 80.800781 88.328125 81.722656 83.632812 77.0625 81.488281 C 73.585938 79.886719 69.804688 84.351562 68.703125 89.015625 " fill-opacity="1" fill-rule="nonzero"/><path fill="#351f17" d="M 84.253906 82.660156 C 84.042969 81.492188 83.59375 80.410156 82.875 79.441406 C 82.160156 78.472656 81.175781 77.617188 79.90625 76.886719 C 78.839844 76.273438 77.742188 75.988281 76.652344 75.988281 C 75.445312 75.988281 74.257812 76.332031 73.128906 76.945312 C 71.4375 77.863281 69.882812 79.375 68.601562 81.257812 C 67.324219 83.136719 66.320312 85.378906 65.742188 87.765625 C 65.617188 88.285156 65.554688 88.792969 65.554688 89.285156 C 65.554688 90.820312 66.15625 92.210938 67.21875 93.375 C 68.285156 94.539062 69.8125 95.484375 71.679688 96.167969 C 73.160156 96.707031 74.578125 96.992188 75.875 96.992188 C 77.128906 96.996094 78.273438 96.726562 79.257812 96.160156 C 80.242188 95.597656 81.054688 94.738281 81.648438 93.570312 C 82.820312 91.261719 83.675781 89.078125 84.101562 87.050781 C 84.125 86.933594 84.050781 86.816406 83.929688 86.792969 C 83.808594 86.765625 83.691406 86.84375 83.667969 86.960938 C 83.253906 88.933594 82.414062 91.085938 81.253906 93.371094 C 80.691406 94.46875 79.941406 95.257812 79.035156 95.78125 C 78.128906 96.300781 77.066406 96.550781 75.875 96.550781 C 74.640625 96.550781 73.273438 96.277344 71.832031 95.75 C 70.015625 95.089844 68.550781 94.175781 67.546875 93.078125 C 66.546875 91.980469 66 90.703125 66 89.285156 C 66 88.828125 66.054688 88.355469 66.171875 87.871094 C 66.925781 84.757812 68.425781 81.886719 70.296875 79.800781 C 71.234375 78.757812 72.265625 77.914062 73.339844 77.332031 C 74.414062 76.75 75.53125 76.429688 76.652344 76.429688 C 77.667969 76.433594 78.683594 76.691406 79.683594 77.265625 C 80.914062 77.972656 81.84375 78.789062 82.519531 79.703125 C 83.195312 80.621094 83.617188 81.632812 83.820312 82.742188 C 83.839844 82.859375 83.957031 82.941406 84.074219 82.917969 C 84.195312 82.898438 84.277344 82.78125 84.253906 82.660156 " fill-opacity="1" fill-rule="nonzero"/><path fill="#351f17" d="M 70.890625 83.824219 C 69.789062 85.265625 68.929688 87.097656 68.488281 88.964844 C 68.417969 89.265625 68.382812 89.558594 68.382812 89.84375 C 68.382812 90.816406 68.785156 91.703125 69.484375 92.445312 C 70.183594 93.1875 71.179688 93.789062 72.390625 94.234375 C 73.378906 94.59375 74.320312 94.785156 75.183594 94.785156 C 75.964844 94.785156 76.679688 94.625 77.292969 94.285156 C 77.90625 93.945312 78.414062 93.421875 78.777344 92.722656 C 79.84375 90.652344 80.625 88.484375 80.628906 86.511719 C 80.628906 85.433594 80.390625 84.414062 79.832031 83.519531 C 79.277344 82.625 78.402344 81.863281 77.15625 81.289062 C 76.636719 81.046875 76.101562 80.933594 75.574219 80.9375 C 74.875 80.9375 74.1875 81.132812 73.53125 81.476562 C 73.421875 81.53125 73.378906 81.664062 73.4375 81.773438 C 73.496094 81.882812 73.628906 81.921875 73.738281 81.867188 C 74.339844 81.550781 74.960938 81.378906 75.574219 81.378906 C 76.039062 81.378906 76.503906 81.476562 76.96875 81.6875 C 78.15625 82.234375 78.949219 82.9375 79.457031 83.75 C 79.964844 84.566406 80.183594 85.496094 80.183594 86.511719 C 80.1875 88.367188 79.4375 90.484375 78.382812 92.519531 C 78.054688 93.152344 77.617188 93.601562 77.078125 93.898438 C 76.542969 94.199219 75.902344 94.34375 75.183594 94.34375 C 74.386719 94.34375 73.496094 94.164062 72.542969 93.816406 C 71.378906 93.394531 70.445312 92.816406 69.808594 92.140625 C 69.167969 91.464844 68.828125 90.695312 68.828125 89.84375 C 68.828125 89.59375 68.859375 89.332031 68.921875 89.066406 C 69.34375 87.261719 70.183594 85.480469 71.246094 84.089844 C 71.316406 83.992188 71.300781 83.855469 71.203125 83.78125 C 71.105469 83.707031 70.964844 83.726562 70.890625 83.824219 " fill-opacity="1" fill-rule="nonzero"/><path fill="#351f17" d="M 73.101562 83.148438 L 72.820312 81.464844 C 72.800781 81.34375 72.683594 81.261719 72.5625 81.28125 C 72.445312 81.304688 72.363281 81.417969 72.382812 81.535156 L 72.664062 83.222656 C 72.683594 83.34375 72.796875 83.421875 72.917969 83.402344 C 73.039062 83.382812 73.121094 83.269531 73.101562 83.148438 " fill-opacity="1" fill-rule="nonzero"/><path fill="#351f17" d="M 72.242188 84.21875 L 71.398438 82.253906 C 71.351562 82.144531 71.21875 82.089844 71.105469 82.140625 C 70.996094 82.1875 70.941406 82.316406 70.992188 82.429688 L 71.835938 84.394531 C 71.882812 84.503906 72.011719 84.558594 72.125 84.507812 C 72.238281 84.460938 72.289062 84.332031 72.242188 84.21875 " fill-opacity="1" fill-rule="nonzero"/><path fill="#351f17" d="M 84.546875 83.160156 L 82.789062 84.699219 C 82.695312 84.78125 82.6875 84.921875 82.769531 85.011719 C 82.847656 85.105469 82.988281 85.113281 83.082031 85.03125 L 84.839844 83.492188 C 84.929688 83.410156 84.9375 83.269531 84.859375 83.179688 C 84.777344 83.085938 84.636719 83.078125 84.546875 83.160156 " fill-opacity="1" fill-rule="nonzero"/><g clip-path="url(#id5)"><path fill="#351f17" d="M 84.925781 84.679688 L 82.816406 86.011719 C 82.714844 86.078125 82.683594 86.214844 82.746094 86.316406 C 82.8125 86.421875 82.949219 86.453125 83.054688 86.386719 L 85.164062 85.054688 C 85.265625 84.988281 85.296875 84.851562 85.230469 84.75 C 85.164062 84.644531 85.027344 84.613281 84.925781 84.679688 " fill-opacity="1" fill-rule="nonzero"/></g></svg>