<svg xmlns="http://www.w3.org/2000/svg" xmlns:xlink="http://www.w3.org/1999/xlink" width="100" zoomAndPan="magnify" viewBox="0 0 75 74.999997" height="100" preserveAspectRatio="xMidYMid meet" version="1.0"><defs><clipPath id="id1"><path d="M 6.097656 15 L 69 15 L 69 65.308594 L 6.097656 65.308594 Z M 6.097656 15 " clip-rule="nonzero"/></clipPath><clipPath id="id2"><path d="M 6.097656 10 L 63 10 L 63 59 L 6.097656 59 Z M 6.097656 10 " clip-rule="nonzero"/></clipPath><clipPath id="id3"><path d="M 6.097656 9.808594 L 63 9.808594 L 63 59 L 6.097656 59 Z M 6.097656 9.808594 " clip-rule="nonzero"/></clipPath></defs><path fill="#2b59c3" d="M 68.898438 23.515625 C 68.714844 25.105469 68.898438 26.859375 68.898438 26.859375 L 67.28125 26.410156 L 65.792969 26.859375 C 65.792969 26.859375 66.167969 31.945312 65.792969 37.972656 C 65.417969 44 65.378906 49.808594 65.792969 55.621094 C 66.207031 61.429688 65.792969 64.972656 65.792969 64.972656 L 57.695312 59.875 L 56.738281 55.8125 L 56.628906 53.929688 L 48.417969 53.929688 L 48.417969 41.105469 L 55.863281 41.105469 L 55.652344 37.597656 L 55.832031 18.792969 L 62.507812 10.222656 C 62.507812 10.222656 64.519531 12.039062 65.5 13.332031 C 66.476562 14.621094 68.898438 16.679688 68.898438 16.679688 C 68.898438 16.679688 68.996094 18.664062 68.898438 19.714844 C 68.800781 20.765625 69.078125 21.925781 68.898438 23.515625 Z M 38.582031 21.839844 C 37.203125 19.4375 35.367188 16.679688 35.367188 16.679688 C 35.367188 16.679688 34.265625 15.496094 33.691406 15.015625 C 33.117188 14.535156 32.1875 13.367188 31.273438 12.433594 L 28.808594 10.21875 L 28.476562 11.714844 L 39.246094 32.136719 L 34.507812 26.523438 L 27.664062 32.289062 L 35.9375 42.09375 L 42.78125 36.328125 L 41.941406 35.332031 L 46.304688 35.960938 L 46.425781 33.113281 C 46.425781 33.113281 44.390625 30.339844 43.601562 28.976562 C 42.808594 27.617188 39.964844 24.246094 38.582031 21.839844 Z M 33.148438 54.792969 C 33.148438 54.792969 31.945312 53.347656 31.273438 52.871094 C 30.605469 52.390625 30.171875 51.746094 30.171875 51.746094 C 30.171875 51.746094 29.953125 46.964844 30.171875 45.191406 C 30.386719 43.425781 30.074219 38.738281 30.074219 38.738281 L 24 27.546875 L 21.605469 35.769531 L 23.1875 52.988281 L 27.433594 61.980469 L 33.148438 64.972656 C 33.148438 64.972656 33.261719 63.34375 33.261719 62.746094 C 33.261719 62.148438 33.148438 59.136719 33.148438 57.484375 C 33.148438 55.835938 33.148438 54.792969 33.148438 54.792969 Z M 21.949219 15.980469 L 12.996094 15.980469 L 12.996094 28.804688 L 21.945312 28.804688 L 21.945312 15.980469 Z M 21.949219 15.980469 " fill-opacity="1" fill-rule="nonzero"/><g clip-path="url(#id1)"><path fill="#d36582" d="M 35.210938 34.070312 C 34.617188 34.765625 33.621094 35.28125 32.917969 35.578125 C 32.644531 35.421875 32.347656 35.273438 32.074219 35.144531 C 31.496094 34.867188 30.8125 34.621094 30.8125 34.621094 C 30.8125 34.621094 32.820312 34.035156 33.246094 33.851562 C 33.671875 33.660156 34.144531 33.046875 34.523438 32.808594 C 34.902344 32.574219 35.390625 31.15625 35.390625 31.15625 C 35.390625 31.15625 35.671875 31.441406 35.976562 31.964844 C 35.976562 31.96875 35.972656 31.96875 35.972656 31.96875 C 36.019531 32.046875 36.066406 32.121094 36.113281 32.210938 C 36.164062 32.308594 36.234375 32.410156 36.320312 32.511719 C 36.023438 33 35.640625 33.570312 35.210938 34.070312 Z M 15.324219 22.027344 L 15.335938 21.984375 C 15.335938 21.984375 15.402344 20.277344 16.464844 20.035156 C 17.09375 19.890625 18.0625 19.816406 18.886719 19.890625 C 18.84375 19.78125 18.796875 19.679688 18.753906 19.566406 C 18.632812 19.238281 18.632812 19.238281 18.632812 19.238281 C 18.632812 19.238281 18.398438 18.539062 18.121094 18.632812 C 17.84375 18.726562 17.128906 18.632812 17.128906 18.632812 C 16.972656 18.632812 15.859375 18.773438 15.660156 18.957031 C 15.464844 19.144531 14.511719 19.984375 14.511719 20.449219 C 14.511719 20.914062 14.75 21.382812 15.027344 21.707031 C 15.105469 21.800781 15.207031 21.910156 15.324219 22.027344 Z M 53.625 42.164062 C 53.410156 42.238281 52.867188 42.164062 52.867188 42.164062 C 52.746094 42.164062 51.898438 42.273438 51.746094 42.414062 C 51.589844 42.558594 50.863281 43.199219 50.863281 43.554688 C 50.863281 43.910156 51.046875 44.265625 51.261719 44.515625 C 51.316406 44.585938 51.398438 44.671875 51.488281 44.761719 L 51.496094 44.730469 C 51.496094 44.730469 51.546875 43.425781 52.359375 43.238281 C 52.839844 43.128906 53.578125 43.070312 54.207031 43.128906 C 54.175781 43.042969 54.140625 42.964844 54.109375 42.878906 C 54.015625 42.625 54.015625 42.625 54.015625 42.625 C 54.015625 42.625 53.835938 42.09375 53.625 42.164062 Z M 18.203125 25.136719 C 17.992188 25.207031 17.445312 25.136719 17.445312 25.136719 C 17.324219 25.136719 16.476562 25.246094 16.324219 25.386719 C 16.171875 25.53125 15.445312 26.167969 15.445312 26.527344 C 15.445312 26.882812 15.628906 27.238281 15.839844 27.488281 C 15.898438 27.558594 15.976562 27.644531 16.066406 27.730469 L 16.078125 27.699219 C 16.078125 27.699219 16.125 26.398438 16.9375 26.210938 C 17.417969 26.101562 18.160156 26.042969 18.789062 26.097656 C 18.753906 26.015625 18.71875 25.9375 18.6875 25.851562 C 18.597656 25.597656 18.597656 25.597656 18.597656 25.597656 C 18.597656 25.597656 18.417969 25.066406 18.203125 25.136719 Z M 54.871094 17.457031 L 49.78125 17.457031 L 49.78125 39.886719 L 54.871094 39.886719 Z M 19.304688 29.785156 L 14.21875 29.785156 L 14.21875 52.816406 L 19.304688 52.816406 Z M 50.222656 49.449219 C 50.316406 49.738281 50.476562 50.007812 50.65625 50.21875 C 50.730469 50.308594 50.835938 50.421875 50.953125 50.535156 L 50.964844 50.492188 C 50.964844 50.492188 51.03125 48.789062 52.09375 48.546875 C 52.722656 48.402344 53.691406 48.324219 54.511719 48.398438 C 54.46875 48.289062 54.421875 48.1875 54.382812 48.074219 C 54.261719 47.746094 54.261719 47.746094 54.261719 47.746094 C 54.261719 47.746094 54.027344 47.046875 53.746094 47.140625 C 53.46875 47.234375 52.757812 47.140625 52.757812 47.140625 C 52.597656 47.140625 51.488281 47.28125 51.289062 47.46875 C 51.089844 47.652344 50.140625 48.492188 50.140625 48.957031 C 50.140625 48.96875 50.140625 48.972656 50.140625 48.984375 L 41.863281 36.804688 L 35.097656 41.398438 L 43.617188 53.929688 Z M 36.542969 28.71875 L 27.371094 15.226562 L 20.605469 19.816406 L 29.777344 33.308594 Z M 67.558594 25.441406 C 67.367188 25.25 66.480469 24.246094 66.050781 23.9375 C 65.621094 23.625 64.855469 22.691406 64.855469 22.691406 C 64.855469 22.691406 64.757812 22.667969 64.613281 22.527344 C 64.472656 22.382812 63.5625 21.59375 63.417969 21.316406 C 63.273438 21.042969 62.386719 20.441406 62.386719 20.441406 L 60.929688 20.179688 L 59.402344 20.394531 C 59.402344 20.394531 60.1875 20.683594 60.691406 21.316406 C 61.191406 21.949219 62.386719 22.570312 62.941406 23.410156 C 63.492188 24.246094 63.96875 24.914062 64.351562 25.273438 C 64.734375 25.632812 65.792969 26.859375 65.792969 26.859375 C 65.792969 26.859375 66.648438 26.695312 67.367188 26.859375 C 68.085938 27.019531 68.898438 26.859375 68.898438 26.859375 C 68.898438 26.859375 67.75 25.632812 67.558594 25.441406 Z M 43.074219 21.351562 C 43.601562 21.949219 44.269531 22.40625 44.628906 22.789062 C 44.988281 23.167969 45.371094 23.574219 45.492188 23.792969 C 45.609375 24.007812 45.921875 23.480469 46.089844 22.332031 C 46.257812 21.1875 46.304688 18.960938 46.304688 18.960938 L 44.652344 18.792969 L 42.152344 20.394531 C 42.152344 20.394531 42.546875 20.753906 43.074219 21.351562 Z M 63.945312 63.296875 C 63.296875 62.507812 62.757812 62.140625 62.363281 61.785156 C 61.96875 61.429688 60.785156 60.140625 60.785156 60.140625 L 59.402344 58.515625 C 59.402344 58.515625 58.632812 56.875 56.117188 56.875 C 53.605469 56.875 48.292969 56.585938 45.851562 56.585938 C 43.410156 56.585938 41.964844 58.515625 41.964844 58.515625 C 41.964844 58.515625 42.367188 59.0625 43.660156 60.355469 C 44.953125 61.644531 47.378906 63.472656 47.714844 63.988281 C 48.050781 64.503906 48.351562 64.972656 48.351562 64.972656 C 48.351562 64.972656 54.105469 64.785156 57.050781 64.972656 C 59.992188 65.160156 60.890625 64.972656 61.535156 64.972656 C 62.183594 64.972656 62.972656 64.972656 63.078125 64.972656 C 63.1875 64.972656 64.261719 64.972656 64.261719 64.972656 L 65.789062 64.972656 C 65.792969 64.972656 64.589844 64.085938 63.945312 63.296875 Z M 30.808594 62.792969 C 30.054688 61.789062 28.871094 60.925781 28.691406 60.785156 C 28.511719 60.640625 26.757812 58.507812 26.757812 58.507812 C 26.757812 58.507812 23.664062 56.585938 23.089844 56.585938 C 22.515625 56.585938 8.550781 57.519531 8.550781 57.519531 L 6.402344 58.511719 C 6.402344 58.511719 7.941406 59.605469 9.160156 61.339844 C 10.382812 63.078125 12.792969 64.96875 12.792969 64.96875 C 12.792969 64.96875 14.4375 64.636719 18.171875 64.96875 C 21.90625 65.300781 26.140625 64.800781 28.078125 64.800781 C 30.019531 64.800781 33.148438 64.96875 33.148438 64.96875 C 33.148438 64.96875 31.5625 63.796875 30.808594 62.792969 Z M 7.296875 21.292969 C 7.867188 22.117188 7.652344 21.796875 8.875 22.726562 C 10.09375 23.660156 10.488281 24.699219 10.488281 24.699219 L 10.632812 19.847656 L 8.875 19.464844 L 6.402344 20.394531 C 6.402344 20.394531 6.722656 20.46875 7.296875 21.292969 Z M 7.296875 21.292969 " fill-opacity="1" fill-rule="nonzero"/></g><g clip-path="url(#id2)"><path fill="#253c78" d="M 62.507812 15.734375 C 62.414062 14.539062 62.507812 10.222656 62.507812 10.222656 C 62.507812 10.222656 59.78125 10.449219 55.257812 10.222656 C 50.734375 9.996094 50.230469 10.449219 47.464844 10.222656 C 44.703125 9.996094 42.152344 10.222656 42.152344 10.222656 C 42.152344 10.222656 42.363281 11.964844 42.152344 13.582031 C 41.9375 15.195312 42.152344 17.457031 42.152344 18.710938 C 42.152344 19.964844 42.152344 20.394531 42.152344 20.394531 C 42.152344 20.394531 42.351562 20.316406 43.480469 20.402344 C 44.613281 20.484375 45.132812 20.402344 45.132812 20.402344 C 45.132812 20.402344 45.4375 24.4375 45.132812 28.742188 C 44.824219 33.042969 45.132812 35.113281 45.132812 35.113281 C 45.132812 35.113281 42.285156 31.59375 39.148438 25.984375 C 36.015625 20.371094 33.660156 18.671875 32.636719 16.054688 C 31.613281 13.4375 28.808594 10.21875 28.808594 10.21875 C 28.808594 10.21875 24.433594 10.636719 18.542969 10.21875 C 12.65625 9.804688 6.402344 10.214844 6.402344 10.214844 C 6.402344 10.214844 6.613281 13.582031 6.402344 15.878906 C 6.195312 18.175781 6.402344 20.394531 6.402344 20.394531 C 6.402344 20.394531 7.652344 20.289062 8.417969 20.402344 C 9.183594 20.515625 9.507812 20.394531 9.507812 20.394531 C 9.507812 20.394531 9.300781 28.886719 9.507812 33.046875 C 9.710938 37.207031 9.78125 44.285156 9.507812 45.410156 L 9.507812 48.328125 C 9.507812 48.328125 8.609375 48.472656 7.703125 48.328125 C 6.792969 48.183594 6.402344 48.328125 6.402344 48.328125 C 6.402344 48.328125 6.300781 53.132812 6.402344 55.023438 C 6.503906 56.910156 6.402344 58.515625 6.402344 58.515625 C 6.402344 58.515625 8.132812 58.289062 12.964844 58.507812 C 17.800781 58.726562 21.367188 58.398438 23.496094 58.515625 C 25.628906 58.632812 26.757812 58.507812 26.757812 58.507812 C 26.757812 58.507812 26.863281 57.246094 26.757812 54.808594 C 26.65625 52.367188 26.648438 51.457031 26.757812 49.476562 L 26.757812 48.328125 C 26.757812 48.328125 25.578125 48.449219 24.765625 48.328125 C 23.953125 48.207031 23.78125 48.207031 23.78125 48.207031 C 23.78125 48.207031 24.039062 43.953125 23.78125 38.164062 C 23.519531 32.375 23.78125 30.515625 23.78125 30.515625 C 23.78125 30.515625 25.027344 31.722656 26.234375 34.296875 C 27.445312 36.875 28.429688 37.261719 30.078125 40.210938 C 31.730469 43.160156 34.179688 46.527344 34.179688 46.527344 C 34.179688 46.527344 36.792969 50.171875 39.09375 54.09375 C 41.398438 58.011719 41.964844 58.519531 41.964844 58.519531 C 41.964844 58.519531 43.050781 58.339844 48.386719 58.511719 C 53.722656 58.683594 56.355469 58.511719 56.355469 58.511719 L 59.402344 58.519531 C 59.402344 58.519531 59.125 57.414062 59.402344 54.113281 C 59.683594 50.816406 59.125 46.367188 59.402344 42.589844 C 59.683594 38.8125 59.21875 33.359375 59.402344 30.585938 C 59.585938 27.8125 59.402344 20.398438 59.402344 20.398438 C 59.402344 20.398438 60.582031 20.265625 61.476562 20.398438 C 62.375 20.53125 62.507812 20.40625 62.507812 20.40625 C 62.507812 20.40625 62.601562 16.929688 62.507812 15.734375 Z M 16.871094 39.484375 C 16.527344 43.679688 17.476562 48.644531 16.925781 51.199219 C 16.925781 51.199219 16.488281 47.738281 16.488281 46.230469 C 16.488281 44.71875 16.304688 35.40625 16.488281 33.472656 C 16.738281 30.820312 17.117188 31.023438 17.117188 31.023438 L 16.957031 32.527344 C 16.957031 32.527344 17.210938 35.289062 16.871094 39.484375 Z M 17.375 27.121094 C 17.28125 27.253906 16.835938 27.40625 16.59375 27.382812 C 16.417969 27.367188 16.226562 27.214844 16.082031 27.074219 C 16.027344 27.019531 15.980469 26.96875 15.941406 26.925781 C 15.8125 26.773438 15.699219 26.550781 15.699219 26.332031 C 15.699219 26.113281 16.144531 25.722656 16.238281 25.632812 C 16.332031 25.546875 16.855469 25.480469 16.925781 25.480469 C 16.925781 25.480469 17.261719 25.527344 17.390625 25.480469 C 17.523438 25.4375 17.632812 25.765625 17.632812 25.765625 C 17.632812 25.765625 17.632812 25.765625 17.691406 25.921875 C 17.710938 25.972656 17.730469 26.023438 17.75 26.074219 C 17.789062 26.167969 17.820312 26.269531 17.820312 26.433594 C 17.820312 26.6875 17.46875 26.988281 17.375 27.121094 Z M 17.902344 21.898438 C 17.730469 22.144531 16.898438 22.429688 16.449219 22.386719 C 16.125 22.359375 15.765625 22.074219 15.496094 21.8125 C 15.394531 21.710938 15.304688 21.613281 15.238281 21.535156 C 14.996094 21.25 14.789062 20.839844 14.789062 20.433594 C 14.789062 20.027344 15.617188 19.292969 15.792969 19.132812 C 15.964844 18.96875 16.9375 18.847656 17.074219 18.847656 C 17.074219 18.847656 17.699219 18.929688 17.941406 18.847656 C 18.183594 18.765625 18.390625 19.375 18.390625 19.375 C 18.390625 19.375 18.390625 19.375 18.492188 19.660156 C 18.53125 19.761719 18.570312 19.851562 18.609375 19.945312 C 18.679688 20.121094 18.734375 20.316406 18.734375 20.621094 C 18.734375 21.089844 18.078125 21.65625 17.902344 21.898438 Z M 29.496094 27.148438 C 29.011719 26.164062 28.191406 25.242188 27.890625 24.863281 C 27.59375 24.484375 26.945312 23.699219 26.632812 23.421875 C 26.316406 23.144531 24.914062 21.199219 24.75 20.945312 C 24.582031 20.691406 23.554688 19.183594 23.554688 19.183594 C 23.96875 19.425781 24.785156 20.214844 25.125 20.609375 C 25.464844 21 26.8125 22.507812 27.535156 23.304688 C 28.257812 24.101562 29.347656 25.082031 29.941406 26.367188 C 30.535156 27.652344 31.328125 28.867188 31.726562 29.578125 C 32.125 30.285156 32.507812 30.894531 32.566406 31.054688 C 32.625 31.210938 32.625 31.210938 32.625 31.210938 C 32.625 31.210938 32.292969 31.03125 32.058594 30.730469 C 31.824219 30.433594 31.195312 29.632812 30.652344 28.945312 C 30.109375 28.253906 29.980469 28.128906 29.496094 27.148438 Z M 36.394531 37.296875 C 36.394531 37.296875 35.628906 39.167969 35.414062 38.996094 C 35.203125 38.828125 35.03125 37.933594 34.691406 37.210938 C 34.351562 36.488281 34.394531 36.660156 34.054688 36.0625 C 33.929688 35.847656 33.558594 35.59375 33.136719 35.355469 C 32.890625 35.214844 32.621094 35.082031 32.375 34.964844 C 31.855469 34.714844 31.242188 34.496094 31.242188 34.496094 C 31.242188 34.496094 33.046875 33.96875 33.429688 33.800781 C 33.816406 33.628906 34.238281 33.078125 34.582031 32.863281 C 34.921875 32.652344 35.359375 31.375 35.359375 31.375 C 35.359375 31.375 35.613281 31.632812 35.886719 32.105469 C 35.886719 32.105469 35.882812 32.105469 35.882812 32.109375 C 35.925781 32.175781 35.96875 32.246094 36.007812 32.324219 C 36.058594 32.414062 36.117188 32.503906 36.195312 32.59375 C 36.59375 33.085938 37.363281 33.625 38.222656 33.980469 C 39.242188 34.40625 39.199219 34.574219 39.199219 34.574219 L 37.582031 35.425781 Z M 46.878906 50.722656 C 46.644531 50.425781 46.011719 49.625 45.472656 48.9375 C 44.929688 48.246094 44.800781 48.121094 44.316406 47.140625 C 43.832031 46.15625 43.011719 45.234375 42.710938 44.855469 C 42.414062 44.476562 41.765625 43.691406 41.453125 43.414062 C 41.136719 43.140625 39.738281 41.195312 39.570312 40.941406 C 39.402344 40.6875 38.375 39.175781 38.375 39.175781 C 38.789062 39.417969 39.605469 40.210938 39.945312 40.601562 C 40.285156 40.992188 41.632812 42.5 42.355469 43.296875 C 43.078125 44.09375 44.167969 45.074219 44.761719 46.359375 C 45.355469 47.644531 46.148438 48.859375 46.546875 49.570312 C 46.945312 50.28125 47.328125 50.890625 47.386719 51.046875 C 47.445312 51.203125 47.445312 51.203125 47.445312 51.203125 C 47.445312 51.203125 47.113281 51.023438 46.878906 50.722656 Z M 52.261719 21.4375 C 52.511719 18.785156 52.894531 18.988281 52.894531 18.988281 L 52.734375 20.492188 C 52.734375 20.492188 52.988281 23.253906 52.644531 27.453125 C 52.304688 31.648438 53.253906 36.609375 52.703125 39.164062 C 52.703125 39.164062 52.261719 35.707031 52.261719 34.195312 C 52.261719 32.683594 52.082031 23.371094 52.261719 21.4375 Z M 52.015625 42.664062 C 52.109375 42.574219 52.632812 42.511719 52.703125 42.511719 C 52.703125 42.511719 53.039062 42.554688 53.167969 42.511719 C 53.300781 42.46875 53.410156 42.792969 53.410156 42.792969 C 53.410156 42.792969 53.410156 42.792969 53.464844 42.949219 C 53.484375 43 53.507812 43.050781 53.527344 43.101562 C 53.566406 43.195312 53.597656 43.296875 53.597656 43.460938 C 53.597656 43.714844 53.242188 44.019531 53.148438 44.152344 C 53.058594 44.28125 52.609375 44.433594 52.371094 44.410156 C 52.195312 44.394531 52 44.246094 51.859375 44.101562 C 51.800781 44.050781 51.753906 43.996094 51.71875 43.953125 C 51.585938 43.800781 51.476562 43.582031 51.476562 43.363281 C 51.476562 43.144531 51.921875 42.75 52.015625 42.664062 Z M 53.679688 50.5625 C 53.507812 50.804688 52.675781 51.089844 52.226562 51.050781 C 51.902344 51.019531 51.539062 50.738281 51.273438 50.472656 C 51.171875 50.371094 51.082031 50.273438 51.011719 50.195312 C 50.769531 49.910156 50.5625 49.5 50.5625 49.09375 C 50.5625 48.6875 51.394531 47.957031 51.566406 47.792969 C 51.742188 47.628906 52.710938 47.507812 52.847656 47.507812 C 52.847656 47.507812 53.472656 47.589844 53.714844 47.507812 C 53.957031 47.425781 54.164062 48.035156 54.164062 48.035156 C 54.164062 48.035156 54.164062 48.035156 54.269531 48.324219 C 54.304688 48.421875 54.347656 48.511719 54.386719 48.609375 C 54.453125 48.785156 54.511719 48.976562 54.511719 49.28125 C 54.511719 49.75 53.855469 50.316406 53.679688 50.5625 Z M 53.679688 50.5625 " fill-opacity="1" fill-rule="nonzero"/></g><g clip-path="url(#id3)"><path fill="#ffd89f" d="M 62.582031 15.726562 C 62.488281 14.546875 62.582031 10.265625 62.582031 10.222656 L 62.582031 10.140625 L 62.5 10.148438 C 62.488281 10.148438 61.265625 10.246094 59.148438 10.246094 C 57.902344 10.246094 56.59375 10.210938 55.261719 10.144531 C 54.378906 10.101562 53.597656 10.078125 52.867188 10.078125 C 51.882812 10.078125 51.160156 10.121094 50.523438 10.15625 C 50.003906 10.183594 49.515625 10.210938 48.976562 10.210938 C 48.492188 10.210938 48.015625 10.1875 47.472656 10.144531 C 46.65625 10.078125 45.777344 10.042969 44.859375 10.042969 C 43.300781 10.042969 42.15625 10.140625 42.144531 10.144531 L 42.070312 10.152344 L 42.078125 10.226562 C 42.078125 10.246094 42.289062 11.984375 42.078125 13.566406 C 41.929688 14.703125 41.988281 16.171875 42.039062 17.351562 C 42.058594 17.855469 42.078125 18.332031 42.078125 18.707031 L 42.078125 20.492188 L 42.175781 20.460938 C 42.179688 20.460938 42.265625 20.433594 42.597656 20.433594 C 42.832031 20.433594 43.125 20.445312 43.476562 20.472656 C 43.8125 20.496094 44.128906 20.507812 44.414062 20.507812 C 44.742188 20.507812 44.957031 20.492188 45.0625 20.480469 C 45.101562 21.0625 45.335938 24.808594 45.054688 28.730469 C 44.8125 32.140625 44.957031 34.167969 45.027344 34.855469 C 44.378906 34.023438 41.886719 30.730469 39.214844 25.941406 C 37.582031 23.015625 36.164062 21.160156 35.023438 19.667969 C 34 18.328125 33.191406 17.269531 32.703125 16.023438 C 31.6875 13.421875 28.894531 10.199219 28.863281 10.167969 L 28.839844 10.140625 L 28.800781 10.140625 C 28.78125 10.144531 26.824219 10.328125 23.820312 10.328125 C 22.058594 10.328125 20.285156 10.265625 18.550781 10.140625 C 16.792969 10.019531 14.828125 9.957031 12.714844 9.957031 C 9.1875 9.957031 6.425781 10.136719 6.398438 10.140625 L 6.324219 10.144531 L 6.328125 10.21875 C 6.332031 10.25 6.535156 13.605469 6.328125 15.871094 C 6.121094 18.148438 6.328125 20.378906 6.328125 20.402344 L 6.335938 20.472656 L 6.410156 20.46875 C 6.414062 20.46875 6.945312 20.421875 7.515625 20.421875 C 7.875 20.421875 8.175781 20.441406 8.410156 20.476562 C 8.628906 20.507812 8.835938 20.523438 9.023438 20.523438 C 9.214844 20.523438 9.347656 20.507812 9.429688 20.492188 C 9.40625 21.453125 9.242188 29.175781 9.433594 33.050781 C 9.632812 37.105469 9.714844 44.246094 9.433594 45.390625 L 9.433594 48.261719 C 9.300781 48.28125 8.976562 48.320312 8.574219 48.320312 C 8.269531 48.320312 7.976562 48.296875 7.714844 48.253906 C 7.441406 48.210938 7.191406 48.1875 6.964844 48.1875 C 6.570312 48.1875 6.386719 48.257812 6.378906 48.257812 L 6.332031 48.277344 L 6.332031 48.328125 C 6.328125 48.375 6.230469 53.15625 6.332031 55.027344 C 6.429688 56.890625 6.332031 58.496094 6.332031 58.511719 L 6.324219 58.601562 L 6.414062 58.589844 C 6.421875 58.589844 7.21875 58.488281 9.183594 58.488281 C 10.296875 58.488281 11.566406 58.519531 12.964844 58.582031 C 14.113281 58.636719 15.277344 58.660156 16.515625 58.660156 C 17.859375 58.660156 19.066406 58.632812 20.128906 58.605469 C 20.980469 58.582031 21.714844 58.566406 22.371094 58.566406 C 22.8125 58.566406 23.179688 58.574219 23.492188 58.589844 C 24.097656 58.625 24.683594 58.640625 25.226562 58.640625 C 26.226562 58.640625 26.761719 58.582031 26.765625 58.582031 L 26.828125 58.574219 L 26.832031 58.515625 C 26.835938 58.503906 26.9375 57.21875 26.832031 54.804688 C 26.730469 52.414062 26.71875 51.480469 26.832031 49.476562 L 26.832031 48.246094 L 26.75 48.257812 C 26.746094 48.257812 26.222656 48.308594 25.640625 48.308594 C 25.304688 48.308594 25.011719 48.292969 24.773438 48.257812 C 24.230469 48.175781 23.972656 48.148438 23.859375 48.136719 C 23.890625 47.542969 24.09375 43.472656 23.855469 38.160156 C 23.640625 33.351562 23.785156 31.238281 23.835938 30.679688 C 24.164062 31.035156 25.183594 32.230469 26.167969 34.328125 C 26.808594 35.695312 27.378906 36.4375 28.035156 37.292969 C 28.597656 38.027344 29.238281 38.859375 30.011719 40.25 C 31.648438 43.167969 34.09375 46.535156 34.117188 46.570312 C 34.144531 46.605469 36.753906 50.257812 39.027344 54.128906 C 41.3125 58.015625 41.890625 58.550781 41.914062 58.574219 L 41.941406 58.597656 L 41.976562 58.589844 C 41.980469 58.589844 42.496094 58.511719 44.433594 58.511719 C 45.519531 58.511719 46.851562 58.535156 48.382812 58.585938 C 49.960938 58.636719 51.453125 58.660156 52.824219 58.660156 C 55.164062 58.660156 56.347656 58.585938 56.355469 58.585938 L 59.5 58.59375 L 59.476562 58.5 C 59.472656 58.488281 59.203125 57.363281 59.476562 54.121094 C 59.617188 52.484375 59.550781 50.59375 59.480469 48.589844 C 59.410156 46.578125 59.335938 44.5 59.476562 42.59375 C 59.632812 40.519531 59.558594 37.894531 59.496094 35.578125 C 59.445312 33.652344 59.394531 31.835938 59.476562 30.589844 C 59.652344 27.984375 59.496094 21.222656 59.480469 20.460938 C 59.640625 20.449219 60.066406 20.410156 60.539062 20.410156 C 60.894531 20.410156 61.207031 20.429688 61.464844 20.46875 C 61.742188 20.511719 61.976562 20.53125 62.160156 20.53125 C 62.449219 20.53125 62.535156 20.480469 62.554688 20.457031 L 62.578125 20.4375 L 62.578125 20.40625 C 62.582031 20.367188 62.675781 16.914062 62.582031 15.726562 Z M 58.433594 20.417969 C 58.433594 20.492188 58.613281 27.839844 58.433594 30.519531 C 58.347656 31.816406 58.398438 33.660156 58.453125 35.609375 C 58.515625 37.898438 58.585938 40.496094 58.433594 42.515625 C 58.289062 44.476562 58.363281 46.582031 58.433594 48.625 C 58.503906 50.59375 58.570312 52.457031 58.433594 54.03125 C 58.320312 55.414062 58.28125 56.59375 58.324219 57.542969 L 56.359375 57.539062 L 56.292969 57.539062 C 56.246094 57.542969 55.09375 57.613281 52.824219 57.613281 C 51.464844 57.613281 49.980469 57.589844 48.417969 57.539062 C 46.871094 57.488281 45.53125 57.464844 44.433594 57.464844 C 43.589844 57.464844 42.90625 57.476562 42.394531 57.507812 C 42.074219 57.066406 41.339844 55.992188 39.933594 53.601562 C 37.625 49.671875 34.992188 45.992188 34.964844 45.953125 C 34.941406 45.921875 32.515625 42.578125 30.929688 39.738281 C 30.117188 38.285156 29.453125 37.421875 28.867188 36.65625 C 28.246094 35.847656 27.710938 35.148438 27.117188 33.882812 C 25.847656 31.175781 24.511719 29.867188 24.457031 29.816406 L 23.082031 28.488281 L 22.820312 30.378906 C 22.808594 30.457031 22.550781 32.402344 22.8125 38.207031 C 23.066406 43.863281 22.8125 48.105469 22.8125 48.144531 L 22.691406 49.242188 L 23.765625 49.179688 C 23.820312 49.183594 24.042969 49.203125 24.625 49.289062 C 24.910156 49.332031 25.253906 49.355469 25.648438 49.355469 C 25.695312 49.355469 25.742188 49.355469 25.789062 49.351562 L 25.789062 49.445312 C 25.675781 51.476562 25.6875 52.421875 25.789062 54.847656 C 25.84375 56.085938 25.839844 57.011719 25.828125 57.589844 C 25.148438 57.605469 24.367188 57.589844 23.550781 57.546875 C 23.21875 57.53125 22.832031 57.519531 22.375 57.519531 C 21.703125 57.519531 20.960938 57.539062 20.105469 57.5625 C 19.046875 57.585938 17.847656 57.617188 16.515625 57.617188 C 15.292969 57.617188 14.148438 57.589844 13.011719 57.539062 C 11.601562 57.476562 10.3125 57.441406 9.183594 57.441406 C 8.527344 57.441406 7.933594 57.453125 7.414062 57.476562 C 7.425781 56.867188 7.429688 55.957031 7.375 54.972656 C 7.304688 53.652344 7.332031 50.863281 7.359375 49.261719 C 7.421875 49.269531 7.484375 49.277344 7.546875 49.289062 C 7.867188 49.339844 8.210938 49.363281 8.574219 49.363281 C 9.152344 49.363281 9.582031 49.300781 9.660156 49.285156 L 10.476562 49.152344 L 10.476562 45.511719 C 10.789062 43.796875 10.640625 36.34375 10.476562 33 C 10.277344 28.921875 10.476562 20.503906 10.476562 20.421875 L 10.628906 18.703125 L 9.1875 19.46875 C 9.152344 19.472656 9.097656 19.476562 9.019531 19.476562 C 8.886719 19.476562 8.730469 19.464844 8.5625 19.441406 C 8.277344 19.398438 7.925781 19.378906 7.511719 19.378906 C 7.445312 19.378906 7.378906 19.378906 7.3125 19.378906 C 7.273438 18.519531 7.253906 17.25 7.371094 15.964844 C 7.519531 14.359375 7.46875 12.277344 7.421875 11.132812 C 8.441406 11.082031 10.417969 11.003906 12.714844 11.003906 C 14.804688 11.003906 16.742188 11.066406 18.472656 11.191406 C 20.234375 11.316406 22.03125 11.378906 23.820312 11.378906 C 25.988281 11.378906 27.597656 11.285156 28.386719 11.230469 C 29.160156 12.167969 30.976562 14.488281 31.726562 16.40625 C 32.269531 17.789062 33.117188 18.902344 34.191406 20.308594 C 35.308594 21.773438 36.699219 23.59375 38.300781 26.457031 C 41.441406 32.085938 44.253906 35.578125 44.375 35.722656 L 46.601562 38.472656 L 46.09375 34.96875 C 46.089844 34.949219 45.804688 32.921875 46.101562 28.808594 C 46.410156 24.496094 46.113281 20.492188 46.101562 20.328125 L 46.035156 19.25 L 44.980469 19.441406 C 44.960938 19.445312 44.773438 19.464844 44.410156 19.464844 C 44.152344 19.464844 43.863281 19.453125 43.550781 19.433594 C 43.398438 19.417969 43.257812 19.410156 43.121094 19.40625 L 43.121094 18.707031 C 43.121094 18.308594 43.101562 17.824219 43.078125 17.308594 C 43.035156 16.171875 42.976562 14.753906 43.113281 13.707031 C 43.238281 12.765625 43.226562 11.800781 43.195312 11.128906 C 43.746094 11.101562 44.304688 11.089844 44.855469 11.089844 C 45.746094 11.089844 46.59375 11.125 47.382812 11.1875 C 47.949219 11.234375 48.46875 11.257812 48.972656 11.257812 C 49.542969 11.257812 50.042969 11.230469 50.578125 11.199219 C 51.203125 11.164062 51.90625 11.125 52.867188 11.125 C 53.578125 11.125 54.34375 11.148438 55.207031 11.191406 C 56.554688 11.257812 57.878906 11.292969 59.144531 11.292969 C 59.988281 11.292969 60.785156 11.277344 61.515625 11.246094 C 61.492188 12.613281 61.46875 14.945312 61.535156 15.808594 C 61.597656 16.566406 61.574219 18.363281 61.554688 19.425781 C 61.257812 19.382812 60.914062 19.363281 60.539062 19.363281 C 59.898438 19.363281 59.351562 19.421875 59.292969 19.429688 L 58.410156 19.527344 Z M 58.433594 20.417969 " fill-opacity="1" fill-rule="nonzero"/></g></svg>