<svg xmlns="http://www.w3.org/2000/svg" xmlns:xlink="http://www.w3.org/1999/xlink" width="150" zoomAndPan="magnify" viewBox="0 0 112.5 112.499997" height="150" preserveAspectRatio="xMidYMid meet" version="1.0"><defs><clipPath id="id1"><path d="M 33 34 L 105.554688 34 L 105.554688 76 L 33 76 Z M 33 34 " clip-rule="nonzero"/></clipPath><clipPath id="id2"><path d="M 40 46 L 105.554688 46 L 105.554688 75 L 40 75 Z M 40 46 " clip-rule="nonzero"/></clipPath><clipPath id="id3"><path d="M 7.304688 60 L 58 60 L 58 71 L 7.304688 71 Z M 7.304688 60 " clip-rule="nonzero"/></clipPath><clipPath id="id4"><path d="M 53 84 L 101 84 L 101 101.25 L 53 101.25 Z M 53 84 " clip-rule="nonzero"/></clipPath></defs><path fill="#5579a5" d="M 73.792969 60.773438 C 73.792969 60.773438 89.210938 63.816406 102.613281 64.464844 C 102.613281 64.464844 70.132812 67.722656 61.863281 67.605469 L 73.792969 60.773438 " fill-opacity="1" fill-rule="nonzero"/><path fill="#f4f6f3" d="M 34.265625 73.523438 C 34.265625 73.523438 31.53125 58.816406 32.773438 55.101562 L 34.265625 54.113281 L 39.730469 70.203125 L 34.265625 73.523438 " fill-opacity="1" fill-rule="nonzero"/><g clip-path="url(#id1)"><path fill="#f4f6f3" d="M 105.160156 47.226562 C 105.550781 44.519531 105.046875 42.433594 105.046875 42.433594 C 104.128906 38.859375 98.175781 38.949219 96.515625 37.421875 C 90.808594 32.171875 84.226562 35.6875 84.226562 35.6875 C 76.949219 40.96875 33.824219 72.765625 33.824219 72.765625 C 30.820312 77.304688 39.148438 75.304688 39.148438 75.304688 L 40.824219 74.789062 C 49.371094 67.503906 61.546875 56.761719 72.417969 51.199219 C 81.710938 46.449219 96.128906 46.554688 105.160156 47.226562 " fill-opacity="1" fill-rule="nonzero"/></g><g clip-path="url(#id2)"><path fill="#5b5f8a" d="M 72.417969 51.199219 C 61.546875 56.761719 49.371094 67.503906 40.824219 74.789062 L 95.175781 57.976562 C 102.464844 55.691406 104.632812 50.890625 105.160156 47.226562 C 96.128906 46.554688 81.710938 46.449219 72.417969 51.199219 " fill-opacity="1" fill-rule="nonzero"/></g><g clip-path="url(#id3)"><path fill="#5579a5" d="M 53.453125 61.652344 C 39.789062 64.78125 18.917969 68.347656 7.308594 66.285156 C 7.308594 66.285156 20.648438 74.480469 48.167969 68.53125 C 51.148438 66.027344 54.328125 63.417969 57.589844 60.921875 C 56.488281 61.035156 55.132812 61.269531 53.453125 61.652344 " fill-opacity="1" fill-rule="nonzero"/></g><path fill="#050607" d="M 96.589844 39.085938 C 96.589844 39.085938 90.847656 38.492188 89.496094 40.777344 C 89.496094 40.777344 86.949219 37.726562 96.949219 37.726562 C 96.949219 37.726562 98.347656 39.152344 96.589844 39.085938 " fill-opacity="1" fill-rule="nonzero"/><path fill="#f4f6f3" d="M 48.679688 68.597656 C 48.679688 70.925781 46.742188 72.8125 44.355469 72.8125 C 41.964844 72.8125 40.03125 70.925781 40.03125 68.597656 C 40.03125 66.273438 41.964844 64.390625 44.355469 64.390625 C 46.742188 64.390625 48.679688 66.273438 48.679688 68.597656 " fill-opacity="1" fill-rule="nonzero"/><path fill="#050607" d="M 47.777344 68.597656 C 47.777344 70.039062 46.605469 71.203125 45.160156 71.203125 C 43.71875 71.203125 42.546875 70.039062 42.546875 68.597656 C 42.546875 67.160156 43.71875 65.996094 45.160156 65.996094 C 46.605469 65.996094 47.777344 67.160156 47.777344 68.597656 " fill-opacity="1" fill-rule="nonzero"/><path fill="#f4f6f3" d="M 30.53125 69.765625 C 30.53125 71.574219 29.027344 73.042969 27.167969 73.042969 C 25.3125 73.042969 23.804688 71.574219 23.804688 69.765625 C 23.804688 67.953125 25.3125 66.488281 27.167969 66.488281 C 29.027344 66.488281 30.53125 67.953125 30.53125 69.765625 " fill-opacity="1" fill-rule="nonzero"/><path fill="#050607" d="M 29.828125 69.765625 C 29.828125 70.882812 28.917969 71.792969 27.792969 71.792969 C 26.671875 71.792969 25.757812 70.882812 25.757812 69.765625 C 25.757812 68.644531 26.671875 67.738281 27.792969 67.738281 C 28.917969 67.738281 29.828125 68.644531 29.828125 69.765625 " fill-opacity="1" fill-rule="nonzero"/><path fill="#f4f6f3" d="M 88.46875 65.996094 C 88.46875 67.914062 86.867188 69.472656 84.898438 69.472656 C 82.925781 69.472656 81.324219 67.914062 81.324219 65.996094 C 81.324219 64.074219 82.925781 62.519531 84.898438 62.519531 C 86.867188 62.519531 88.46875 64.074219 88.46875 65.996094 " fill-opacity="1" fill-rule="nonzero"/><path fill="#050607" d="M 87.71875 65.996094 C 87.71875 67.183594 86.753906 68.144531 85.5625 68.144531 C 84.371094 68.144531 83.402344 67.183594 83.402344 65.996094 C 83.402344 64.808594 84.371094 63.84375 85.5625 63.84375 C 86.753906 63.84375 87.71875 64.808594 87.71875 65.996094 " fill-opacity="1" fill-rule="nonzero"/><path fill="#f4f6f3" d="M 97.738281 66.488281 C 97.738281 67.980469 96.492188 69.191406 94.957031 69.191406 C 93.421875 69.191406 92.179688 67.980469 92.179688 66.488281 C 92.179688 64.992188 93.421875 63.78125 94.957031 63.78125 C 96.492188 63.78125 97.738281 64.992188 97.738281 66.488281 " fill-opacity="1" fill-rule="nonzero"/><path fill="#050607" d="M 97.15625 66.488281 C 97.15625 67.410156 96.402344 68.160156 95.476562 68.160156 C 94.550781 68.160156 93.796875 67.410156 93.796875 66.488281 C 93.796875 65.5625 94.550781 64.8125 95.476562 64.8125 C 96.402344 64.8125 97.15625 65.5625 97.15625 66.488281 " fill-opacity="1" fill-rule="nonzero"/><path fill="#050607" d="M 82.578125 42.015625 C 82.578125 42.550781 82.28125 42.984375 81.914062 42.984375 C 81.546875 42.984375 81.253906 42.550781 81.253906 42.015625 C 81.253906 41.476562 81.546875 41.042969 81.914062 41.042969 C 82.28125 41.042969 82.578125 41.476562 82.578125 42.015625 " fill-opacity="1" fill-rule="nonzero"/><path fill="#050607" d="M 80.425781 43.398438 C 80.425781 43.882812 80.152344 44.277344 79.828125 44.277344 C 79.492188 44.277344 79.222656 43.882812 79.222656 43.398438 C 79.222656 42.910156 79.492188 42.515625 79.828125 42.515625 C 80.152344 42.515625 80.425781 42.910156 80.425781 43.398438 " fill-opacity="1" fill-rule="nonzero"/><path fill="#050607" d="M 78.269531 44.859375 C 78.269531 45.328125 78.015625 45.707031 77.691406 45.707031 C 77.375 45.707031 77.109375 45.328125 77.109375 44.859375 C 77.109375 44.390625 77.375 44.011719 77.691406 44.011719 C 78.015625 44.011719 78.269531 44.390625 78.269531 44.859375 " fill-opacity="1" fill-rule="nonzero"/><path fill="#050607" d="M 75.808594 46.46875 C 75.808594 46.890625 75.582031 47.234375 75.289062 47.234375 C 75 47.234375 74.765625 46.890625 74.765625 46.46875 C 74.765625 46.046875 75 45.703125 75.289062 45.703125 C 75.582031 45.703125 75.808594 46.046875 75.808594 46.46875 " fill-opacity="1" fill-rule="nonzero"/><path fill="#050607" d="M 73.65625 47.949219 C 73.65625 48.289062 73.46875 48.558594 73.242188 48.558594 C 73.007812 48.558594 72.824219 48.289062 72.824219 47.949219 C 72.824219 47.613281 73.007812 47.339844 73.242188 47.339844 C 73.46875 47.339844 73.65625 47.613281 73.65625 47.949219 " fill-opacity="1" fill-rule="nonzero"/><path fill="#e3eff1" d="M 16.019531 31.007812 C 16.019531 31.007812 7.308594 26.539062 19.4375 25.796875 C 19.4375 25.796875 12.996094 15.6875 27.167969 22.097656 C 27.167969 22.097656 25.757812 11.25 36.984375 23.148438 C 36.984375 23.148438 40.824219 15.195312 44.355469 25.625 C 44.355469 25.625 51.089844 21.113281 49.628906 31.023438 L 16.019531 31.007812 " fill-opacity="1" fill-rule="nonzero"/><path fill="#e3eff1" d="M 28.882812 91.820312 C 28.882812 91.820312 21.914062 88.242188 31.613281 87.652344 C 31.613281 87.652344 26.460938 79.566406 37.796875 84.691406 C 37.796875 84.691406 36.671875 76.015625 45.652344 85.53125 C 45.652344 85.53125 48.71875 79.171875 51.542969 87.515625 C 51.542969 87.515625 56.933594 83.902344 55.765625 91.828125 L 28.882812 91.820312 " fill-opacity="1" fill-rule="nonzero"/><g clip-path="url(#id4)"><path fill="#e3eff1" d="M 57.332031 101.238281 C 57.332031 101.238281 46.230469 95.539062 61.679688 94.59375 C 61.679688 94.59375 53.472656 81.710938 71.539062 89.878906 C 71.539062 89.878906 69.746094 76.054688 84.046875 91.21875 C 84.046875 91.21875 88.941406 81.082031 93.449219 94.375 C 93.449219 94.375 102.027344 88.621094 100.167969 101.253906 L 57.332031 101.238281 " fill-opacity="1" fill-rule="nonzero"/></g></svg>