<svg xmlns="http://www.w3.org/2000/svg" xmlns:xlink="http://www.w3.org/1999/xlink" width="150" zoomAndPan="magnify" viewBox="0 0 112.5 112.499997" height="150" preserveAspectRatio="xMidYMid meet" version="1.0"><defs><clipPath id="id1"><path d="M 13.929688 17.351562 L 98.585938 17.351562 L 98.585938 95.34375 L 13.929688 95.34375 Z M 13.929688 17.351562 " clip-rule="nonzero"/></clipPath><clipPath id="id2"><path d="M 13.929688 17.351562 L 98.585938 17.351562 L 98.585938 95.34375 L 13.929688 95.34375 Z M 13.929688 17.351562 " clip-rule="nonzero"/></clipPath></defs><g clip-path="url(#id1)"><path fill="#5579a5" d="M 96.242188 37.25 L 96.207031 37.164062 C 95.804688 36.160156 95.390625 35.121094 95.507812 34.113281 C 95.597656 33.34375 95.980469 32.640625 96.386719 31.894531 C 96.472656 31.738281 96.558594 31.578125 96.640625 31.421875 C 97.074219 30.59375 97.613281 29.355469 97.269531 28.148438 C 97.074219 27.464844 96.5 26.859375 95.808594 26.609375 C 95.246094 26.40625 94.6875 26.460938 94.238281 26.769531 C 93.515625 27.265625 93.386719 28.121094 93.273438 28.875 C 93.1875 29.441406 93.105469 29.976562 92.8125 30.339844 C 92.566406 30.644531 92.164062 30.820312 91.738281 31.003906 C 91.4375 31.136719 91.125 31.269531 90.835938 31.464844 C 89.292969 32.507812 89.132812 34.695312 89.664062 36.394531 C 89.890625 37.125 90.214844 37.816406 90.53125 38.488281 C 90.914062 39.308594 91.273438 40.082031 91.472656 40.914062 C 92.207031 44 90.082031 47.53125 87.015625 48.324219 C 85.085938 48.820312 82.976562 48.367188 80.929688 47.929688 C 78.417969 47.390625 75.824219 46.835938 73.480469 48 C 70.023438 49.714844 69.257812 54.183594 69.109375 56.691406 C 69.097656 56.894531 69.085938 57.097656 69.078125 57.304688 C 69.011719 58.574219 68.949219 59.890625 68.414062 60.996094 C 67.847656 62.171875 66.445312 63.128906 65.257812 62.683594 C 64.15625 62.273438 63.6875 60.894531 63.507812 60.109375 C 62.652344 56.402344 64.011719 52.492188 65.105469 49.871094 C 65.46875 49 65.867188 48.121094 66.25 47.269531 C 67.335938 44.867188 68.460938 42.382812 69.007812 39.742188 C 70.390625 33.066406 67.734375 25.746094 62.394531 21.519531 C 59.242188 19.023438 55.21875 17.59375 50.761719 17.378906 C 46.640625 17.179688 42.257812 18.058594 38.414062 19.851562 C 34.101562 21.871094 30.089844 24.960938 26.261719 29.226562 C 24.882812 30.597656 23.652344 32.140625 22.558594 33.789062 C 22.355469 34.070312 22.148438 34.351562 21.945312 34.636719 C 21.136719 33.894531 20.324219 33.152344 19.515625 32.40625 C 18.007812 31.023438 17.003906 31.160156 16.429688 31.515625 C 15.707031 31.964844 15.53125 32.882812 15.4375 33.378906 C 14.324219 39.289062 14.371094 45.53125 15.574219 51.441406 C 13.53125 55.695312 13.382812 61.878906 15.183594 68.023438 C 17.160156 74.753906 20.257812 79.703125 24.929688 83.59375 C 33.730469 90.917969 44.875 95.089844 56.308594 95.332031 C 56.640625 95.339844 56.96875 95.34375 57.289062 95.34375 C 60.9375 95.34375 64.011719 94.875 66.65625 93.914062 C 72.300781 91.867188 77.1875 86.980469 79.726562 80.84375 C 81.980469 75.394531 82.535156 68.957031 81.335938 62.226562 C 81.113281 60.976562 80.976562 59.476562 81.914062 58.921875 C 82.320312 58.679688 82.863281 58.679688 83.382812 58.699219 C 83.964844 58.71875 84.5625 58.757812 85.140625 58.796875 C 87.398438 58.9375 89.730469 59.089844 91.902344 58.304688 C 95.957031 56.839844 98.144531 52.492188 98.507812 48.832031 C 98.929688 44.625 97.515625 40.433594 96.242188 37.25 " fill-opacity="1" fill-rule="nonzero"/></g><path fill="#f5fcfd" d="M 40.007812 31.265625 C 41.628906 28.453125 41.78125 25.496094 40.347656 24.667969 C 38.914062 23.839844 36.4375 25.449219 34.816406 28.265625 C 33.195312 31.078125 33.042969 34.035156 34.476562 34.863281 C 35.910156 35.695312 38.386719 34.082031 40.007812 31.265625 Z M 41.589844 39.324219 C 41.671875 38.960938 41.109375 39.019531 40.972656 39.21875 C 40.148438 40.457031 39.078125 42.4375 37.417969 40.996094 C 36.355469 40.070312 36.011719 38.484375 36.480469 37.175781 C 36.605469 36.828125 36.046875 36.722656 35.910156 37.007812 C 35.09375 38.730469 35.539062 41.019531 37.242188 42.042969 C 39.328125 43.300781 41.164062 41.25 41.589844 39.324219 Z M 52.585938 36.820312 C 54.492188 33.511719 54.671875 30.039062 52.984375 29.066406 C 51.300781 28.089844 48.390625 29.984375 46.488281 33.292969 C 44.582031 36.597656 44.402344 40.070312 46.085938 41.046875 C 47.769531 42.019531 50.679688 40.128906 52.585938 36.820312 Z M 55.941406 54.5625 C 56.179688 54.921875 56.886719 54.652344 56.699219 54.214844 C 55.578125 51.578125 53.800781 49.191406 51.945312 47.027344 C 50.542969 45.394531 48.617188 42.863281 46.140625 43.519531 C 43.410156 44.246094 43.882812 47.570312 44.21875 49.65625 C 44.464844 51.195312 44.710938 52.734375 44.972656 54.269531 C 45.21875 55.738281 45.296875 57.519531 45.925781 58.871094 C 46.003906 59.03125 46.34375 59.015625 46.371094 58.820312 C 46.515625 57.609375 46.175781 56.265625 46 55.066406 C 45.8125 53.792969 45.625 52.519531 45.429688 51.25 C 45.230469 49.964844 44.933594 48.648438 44.867188 47.34375 C 44.804688 46.109375 45.171875 44.289062 46.710938 44.199219 C 47.914062 44.125 48.890625 45.09375 49.652344 45.90625 C 50.472656 46.777344 51.25 47.695312 51.980469 48.644531 C 53.441406 50.527344 54.636719 52.570312 55.941406 54.5625 Z M 76.757812 76.316406 C 76.808594 75.914062 76.15625 75.953125 76.066406 76.285156 C 74.722656 81.296875 71.808594 85.859375 67.308594 88.5625 C 62.386719 91.515625 56.269531 91.828125 50.945312 89.828125 C 50.683594 89.730469 50.304688 90.125 50.632812 90.277344 C 59.027344 94.097656 69.320312 90.898438 74.234375 83.121094 C 75.546875 81.046875 76.464844 78.765625 76.757812 76.316406 Z M 95.460938 37.566406 C 96.703125 40.65625 98.074219 44.726562 97.675781 48.75 C 97.332031 52.144531 95.328125 56.171875 91.621094 57.511719 C 89.609375 58.234375 87.363281 58.09375 85.195312 57.953125 C 84.613281 57.917969 84.007812 57.878906 83.414062 57.855469 C 82.796875 57.832031 82.089844 57.839844 81.488281 58.195312 C 80.105469 59.015625 80.238281 60.859375 80.507812 62.375 C 81.679688 68.945312 81.140625 75.21875 78.949219 80.519531 C 76.5 86.441406 71.796875 91.152344 66.367188 93.125 C 63.589844 94.132812 60.304688 94.578125 56.328125 94.492188 C 45.082031 94.25 34.125 90.148438 25.46875 82.945312 C 20.929688 79.167969 17.917969 74.347656 15.992188 67.785156 C 14.226562 61.773438 14.378906 55.757812 16.390625 51.683594 C 16.429688 51.601562 16.441406 51.503906 16.425781 51.410156 C 15.21875 45.566406 15.160156 39.386719 16.261719 33.535156 C 16.359375 33.027344 16.496094 32.464844 16.871094 32.230469 C 17 32.152344 17.140625 32.117188 17.289062 32.117188 C 17.828125 32.117188 18.460938 32.582031 18.949219 33.027344 C 19.816406 33.828125 20.683594 34.625 21.550781 35.417969 C 19.726562 38.550781 18.363281 41.988281 17.421875 45.375 C 17.339844 45.679688 17.882812 45.683594 17.972656 45.421875 C 18.9375 42.496094 20.1875 39.65625 21.6875 36.96875 C 22.425781 35.640625 23.25 34.375 24.105469 33.136719 C 28.695312 27.183594 33.507812 23.074219 38.769531 20.617188 C 42.488281 18.878906 46.734375 18.027344 50.71875 18.21875 C 55 18.425781 58.859375 19.796875 61.875 22.179688 C 66.96875 26.214844 69.503906 33.203125 68.183594 39.570312 C 67.65625 42.117188 66.550781 44.558594 65.484375 46.921875 C 65.097656 47.777344 64.695312 48.664062 64.328125 49.546875 C 63.1875 52.273438 61.777344 56.355469 62.6875 60.300781 C 63.066406 61.941406 63.875 63.070312 64.964844 63.476562 C 66.632812 64.097656 68.445312 62.867188 69.171875 61.363281 C 69.777344 60.101562 69.847656 58.699219 69.917969 57.34375 C 69.925781 57.144531 69.9375 56.945312 69.945312 56.746094 C 70.085938 54.414062 70.773438 50.28125 73.851562 48.753906 C 75.933594 47.722656 78.277344 48.222656 80.753906 48.753906 C 82.894531 49.210938 85.105469 49.6875 87.222656 49.136719 C 90.769531 48.222656 93.136719 44.289062 92.289062 40.71875 C 92.070312 39.800781 91.675781 38.953125 91.289062 38.132812 C 90.976562 37.457031 90.679688 36.820312 90.46875 36.144531 C 90.042969 34.785156 90.125 32.960938 91.304688 32.164062 C 91.53125 32.011719 91.792969 31.898438 92.074219 31.777344 C 92.574219 31.558594 93.089844 31.335938 93.46875 30.871094 C 93.902344 30.332031 94.011719 29.625 94.105469 29.003906 C 94.207031 28.332031 94.292969 27.753906 94.714844 27.464844 C 94.996094 27.273438 95.3125 27.324219 95.523438 27.402344 C 95.960938 27.558594 96.335938 27.953125 96.460938 28.378906 C 96.71875 29.296875 96.265625 30.332031 95.898438 31.027344 C 95.816406 31.183594 95.734375 31.335938 95.648438 31.492188 C 95.21875 32.273438 94.78125 33.085938 94.671875 34.015625 C 94.53125 35.238281 94.984375 36.375 95.425781 37.476562 L 95.460938 37.566406 " fill-opacity="1" fill-rule="nonzero"/><g clip-path="url(#id2)"><path fill="#5579a5" d="M 34.816406 28.265625 C 33.195312 31.078125 33.042969 34.035156 34.476562 34.863281 C 35.910156 35.695312 38.386719 34.082031 40.007812 31.265625 C 41.628906 28.453125 41.78125 25.496094 40.347656 24.667969 C 38.914062 23.839844 36.4375 25.449219 34.816406 28.265625 Z M 37.417969 40.996094 C 36.355469 40.070312 36.011719 38.484375 36.480469 37.175781 C 36.605469 36.828125 36.046875 36.722656 35.910156 37.007812 C 35.09375 38.730469 35.539062 41.019531 37.242188 42.042969 C 39.328125 43.300781 41.164062 41.25 41.589844 39.324219 C 41.671875 38.960938 41.109375 39.019531 40.972656 39.21875 C 40.148438 40.457031 39.078125 42.4375 37.417969 40.996094 Z M 46.488281 33.292969 C 44.582031 36.597656 44.402344 40.070312 46.085938 41.046875 C 47.769531 42.019531 50.679688 40.128906 52.585938 36.820312 C 54.492188 33.511719 54.671875 30.039062 52.984375 29.066406 C 51.300781 28.089844 48.390625 29.984375 46.488281 33.292969 Z M 51.945312 47.027344 C 50.542969 45.394531 48.617188 42.863281 46.140625 43.519531 C 43.410156 44.246094 43.882812 47.570312 44.21875 49.65625 C 44.464844 51.195312 44.710938 52.734375 44.972656 54.269531 C 45.21875 55.738281 45.296875 57.519531 45.925781 58.871094 C 46.003906 59.03125 46.34375 59.015625 46.371094 58.820312 C 46.515625 57.609375 46.175781 56.265625 46 55.066406 C 45.8125 53.792969 45.625 52.519531 45.429688 51.25 C 45.230469 49.964844 44.933594 48.648438 44.867188 47.34375 C 44.804688 46.109375 45.171875 44.289062 46.710938 44.199219 C 47.914062 44.125 48.890625 45.09375 49.652344 45.90625 C 50.472656 46.777344 51.25 47.695312 51.980469 48.644531 C 53.441406 50.527344 54.636719 52.570312 55.941406 54.5625 C 56.179688 54.921875 56.886719 54.652344 56.699219 54.214844 C 55.578125 51.578125 53.800781 49.191406 51.945312 47.027344 Z M 67.308594 88.5625 C 62.386719 91.515625 56.269531 91.828125 50.945312 89.828125 C 50.683594 89.730469 50.304688 90.125 50.632812 90.277344 C 59.027344 94.097656 69.320312 90.898438 74.234375 83.121094 C 75.546875 81.046875 76.464844 78.765625 76.757812 76.316406 C 76.808594 75.914062 76.15625 75.953125 76.066406 76.285156 C 74.722656 81.296875 71.808594 85.859375 67.308594 88.5625 Z M 97.675781 48.75 C 98.074219 44.726562 96.703125 40.65625 95.460938 37.566406 L 95.425781 37.476562 C 94.984375 36.375 94.53125 35.238281 94.671875 34.015625 C 94.78125 33.085938 95.21875 32.273438 95.648438 31.492188 C 95.734375 31.335938 95.816406 31.183594 95.898438 31.027344 C 96.265625 30.332031 96.71875 29.296875 96.460938 28.378906 C 96.335938 27.953125 95.960938 27.558594 95.523438 27.402344 C 95.3125 27.324219 94.996094 27.273438 94.714844 27.464844 C 94.292969 27.753906 94.207031 28.332031 94.105469 29.003906 C 94.011719 29.625 93.902344 30.332031 93.46875 30.871094 C 93.089844 31.335938 92.574219 31.558594 92.074219 31.777344 C 91.792969 31.898438 91.53125 32.011719 91.304688 32.164062 C 90.125 32.960938 90.042969 34.785156 90.46875 36.144531 C 90.679688 36.820312 90.976562 37.457031 91.289062 38.132812 C 91.675781 38.953125 92.070312 39.800781 92.289062 40.71875 C 93.136719 44.289062 90.769531 48.222656 87.222656 49.136719 C 85.105469 49.6875 82.894531 49.210938 80.753906 48.753906 C 78.277344 48.222656 75.933594 47.722656 73.851562 48.753906 C 70.773438 50.28125 70.085938 54.414062 69.945312 56.746094 C 69.9375 56.945312 69.925781 57.144531 69.917969 57.34375 C 69.847656 58.699219 69.777344 60.101562 69.171875 61.363281 C 68.445312 62.867188 66.632812 64.097656 64.964844 63.476562 C 63.875 63.070312 63.066406 61.941406 62.6875 60.300781 C 61.777344 56.355469 63.1875 52.273438 64.328125 49.546875 C 64.695312 48.664062 65.097656 47.777344 65.484375 46.921875 C 66.550781 44.558594 67.65625 42.117188 68.183594 39.570312 C 69.503906 33.203125 66.96875 26.214844 61.875 22.179688 C 58.859375 19.796875 55 18.425781 50.71875 18.21875 C 46.734375 18.027344 42.488281 18.878906 38.769531 20.617188 C 33.507812 23.074219 28.695312 27.183594 24.105469 33.136719 C 23.25 34.375 22.425781 35.640625 21.6875 36.96875 C 20.1875 39.65625 18.9375 42.496094 17.972656 45.421875 C 17.882812 45.683594 17.339844 45.679688 17.421875 45.375 C 18.363281 41.988281 19.726562 38.550781 21.550781 35.417969 C 20.683594 34.625 19.816406 33.828125 18.949219 33.027344 C 18.460938 32.582031 17.828125 32.117188 17.289062 32.117188 C 17.140625 32.117188 17 32.152344 16.871094 32.230469 C 16.496094 32.464844 16.359375 33.027344 16.261719 33.535156 C 15.160156 39.386719 15.21875 45.566406 16.425781 51.410156 C 16.441406 51.503906 16.429688 51.601562 16.390625 51.683594 C 14.378906 55.757812 14.226562 61.773438 15.992188 67.785156 C 17.917969 74.347656 20.929688 79.167969 25.46875 82.945312 C 34.125 90.148438 45.082031 94.25 56.328125 94.492188 C 60.304688 94.578125 63.589844 94.132812 66.367188 93.125 C 71.796875 91.152344 76.5 86.441406 78.949219 80.519531 C 81.140625 75.21875 81.679688 68.945312 80.507812 62.375 C 80.238281 60.859375 80.105469 59.015625 81.488281 58.195312 C 82.089844 57.839844 82.796875 57.832031 83.414062 57.855469 C 84.007812 57.878906 84.613281 57.917969 85.195312 57.953125 C 87.363281 58.09375 89.609375 58.234375 91.621094 57.511719 C 95.328125 56.171875 97.332031 52.144531 97.675781 48.75 Z M 96.242188 37.25 C 97.515625 40.433594 98.929688 44.625 98.507812 48.832031 C 98.144531 52.492188 95.957031 56.839844 91.902344 58.304688 C 89.730469 59.089844 87.398438 58.9375 85.140625 58.796875 C 84.5625 58.757812 83.964844 58.71875 83.382812 58.699219 C 82.863281 58.679688 82.320312 58.679688 81.914062 58.921875 C 80.976562 59.476562 81.113281 60.976562 81.335938 62.226562 C 82.535156 68.957031 81.980469 75.394531 79.726562 80.84375 C 77.1875 86.980469 72.300781 91.867188 66.65625 93.914062 C 64.011719 94.875 60.9375 95.34375 57.289062 95.34375 C 56.96875 95.34375 56.640625 95.339844 56.308594 95.332031 C 44.875 95.089844 33.730469 90.917969 24.929688 83.59375 C 20.257812 79.703125 17.160156 74.753906 15.183594 68.023438 C 13.382812 61.878906 13.53125 55.695312 15.574219 51.441406 C 14.371094 45.53125 14.324219 39.289062 15.4375 33.378906 C 15.53125 32.882812 15.707031 31.964844 16.429688 31.515625 C 17.003906 31.160156 18.007812 31.023438 19.515625 32.40625 C 20.324219 33.152344 21.136719 33.894531 21.945312 34.636719 C 22.148438 34.351562 22.355469 34.070312 22.558594 33.789062 C 23.652344 32.140625 24.882812 30.597656 26.261719 29.226562 C 30.089844 24.960938 34.101562 21.871094 38.414062 19.851562 C 42.257812 18.058594 46.640625 17.179688 50.761719 17.378906 C 55.21875 17.59375 59.242188 19.023438 62.394531 21.519531 C 67.734375 25.746094 70.390625 33.066406 69.007812 39.742188 C 68.460938 42.382812 67.335938 44.867188 66.25 47.269531 C 65.867188 48.121094 65.46875 49 65.105469 49.871094 C 64.011719 52.492188 62.652344 56.402344 63.507812 60.109375 C 63.6875 60.894531 64.15625 62.273438 65.257812 62.683594 C 66.445312 63.128906 67.847656 62.171875 68.414062 60.996094 C 68.949219 59.890625 69.011719 58.574219 69.078125 57.304688 C 69.085938 57.097656 69.097656 56.894531 69.109375 56.691406 C 69.257812 54.183594 70.023438 49.714844 73.480469 48 C 75.824219 46.835938 78.417969 47.390625 80.929688 47.929688 C 82.976562 48.367188 85.085938 48.820312 87.015625 48.324219 C 90.082031 47.53125 92.207031 44 91.472656 40.914062 C 91.273438 40.082031 90.914062 39.308594 90.53125 38.488281 C 90.214844 37.816406 89.890625 37.125 89.664062 36.394531 C 89.132812 34.695312 89.292969 32.507812 90.835938 31.464844 C 91.125 31.269531 91.4375 31.136719 91.738281 31.003906 C 92.164062 30.820312 92.566406 30.644531 92.8125 30.339844 C 93.105469 29.976562 93.1875 29.441406 93.273438 28.875 C 93.386719 28.121094 93.515625 27.265625 94.238281 26.769531 C 94.6875 26.460938 95.246094 26.40625 95.808594 26.609375 C 96.5 26.859375 97.074219 27.464844 97.269531 28.148438 C 97.613281 29.355469 97.074219 30.59375 96.640625 31.421875 C 96.558594 31.578125 96.472656 31.738281 96.386719 31.894531 C 95.980469 32.640625 95.597656 33.34375 95.507812 34.113281 C 95.390625 35.121094 95.804688 36.160156 96.207031 37.164062 L 96.242188 37.25 " fill-opacity="1" fill-rule="nonzero"/></g></svg>