<svg xmlns="http://www.w3.org/2000/svg" xmlns:xlink="http://www.w3.org/1999/xlink" width="150" zoomAndPan="magnify" viewBox="0 0 112.5 112.499997" height="150" preserveAspectRatio="xMidYMid meet" version="1.0"><defs><clipPath id="id1"><path d="M 20 13 L 95.980469 13 L 95.980469 97 L 20 97 Z M 20 13 " clip-rule="nonzero"/></clipPath><clipPath id="id2"><path d="M 22 11.25 L 36 11.25 L 36 32 L 22 32 Z M 22 11.25 " clip-rule="nonzero"/></clipPath><clipPath id="id3"><path d="M 60 95 L 69 95 L 69 101.25 L 60 101.25 Z M 60 95 " clip-rule="nonzero"/></clipPath></defs><g clip-path="url(#id1)"><path fill="#9f6b3d" d="M 94.289062 78.035156 C 92.582031 79.8125 90.597656 81.175781 88.335938 82.179688 C 87.261719 82.65625 86.023438 83.269531 85.972656 84.578125 C 85.917969 85.863281 87.09375 86.351562 88.191406 86.671875 C 89.085938 86.929688 89.273438 87.574219 89.015625 88.320312 C 88.664062 89.347656 89.070312 89.933594 89.941406 90.355469 C 88.507812 92.175781 86.75 93.292969 84.316406 92.945312 C 83.4375 91.164062 82.5 89.410156 81.699219 87.59375 C 80.144531 84.054688 80.429688 82.949219 83.003906 80.144531 C 83.921875 79.144531 85.882812 78.417969 85.375 76.914062 C 84.859375 75.394531 82.820312 75.53125 81.378906 75.28125 C 78.992188 74.871094 76.863281 73.847656 74.703125 72.871094 C 74.460938 72.882812 74.136719 72.886719 74.035156 72.714844 C 71.796875 68.972656 68.921875 71.152344 66.214844 71.859375 C 65.839844 71.953125 65.527344 72.246094 65.132812 72.328125 C 64.65625 71.609375 64.0625 71.3125 63.148438 71.476562 C 58.972656 72.21875 54.78125 71.980469 50.613281 71.410156 C 49.167969 71.210938 48.355469 71.613281 47.578125 72.90625 C 44.515625 78.007812 43.542969 83.664062 42.910156 89.429688 C 42.859375 89.886719 42.886719 90.433594 43.09375 90.820312 C 43.859375 92.234375 44.144531 93.441406 42.332031 94.308594 C 41.691406 94.613281 41.980469 95.269531 42.125 95.800781 C 40.328125 97.367188 38.144531 97.3125 35.964844 95.65625 C 38.808594 91.320312 37.980469 86.582031 37.523438 81.871094 C 37.183594 78.332031 36.882812 74.785156 36.652344 71.238281 C 36.585938 70.222656 36.527344 69.363281 35.347656 69.089844 C 34.929688 65.6875 34.195312 62.300781 34.839844 58.832031 C 35.046875 57.738281 34.671875 56.65625 34.472656 55.578125 C 35.359375 55.167969 35.910156 54.597656 36.203125 53.550781 C 37.253906 49.820312 38.875 46.21875 38.265625 41.78125 C 35.847656 43.726562 32.988281 43.402344 30.359375 44.074219 C 29.507812 41.902344 28.527344 39.769531 28.585938 37.351562 C 28.640625 35.050781 27.855469 34.589844 25.707031 35.410156 C 23.9375 36.085938 22.132812 36.371094 20.703125 34.617188 C 22.71875 31.863281 22.351562 28.59375 22.660156 25.480469 C 22.765625 24.394531 22.710938 23.296875 22.726562 22.203125 C 26.464844 23.105469 26.851562 24.453125 25.238281 29.546875 C 25.878906 28.125 27.640625 26.390625 27.488281 23.867188 C 27.414062 22.648438 28.765625 23.125 29.386719 22.65625 C 31.207031 21.289062 31.433594 18.945312 33.082031 17.53125 C 34.035156 16.714844 34.824219 15.707031 35.980469 15.128906 C 36.757812 15.015625 37.003906 14.214844 37.726562 13.804688 C 38.292969 14.3125 37.976562 15.78125 39.324219 15.542969 C 38.789062 17.867188 39.53125 19.460938 41.171875 21.394531 C 44.425781 25.234375 44.667969 30.125 43.882812 34.988281 C 43.6875 36.207031 43.21875 37.382812 42.988281 38.605469 C 43.203125 37.835938 43.386719 36.902344 44.40625 37.042969 C 45.203125 37.15625 45.328125 38.054688 45.488281 38.742188 C 45.824219 40.203125 45.324219 41.589844 44.925781 42.953125 C 44.375 44.847656 44.160156 46.695312 45.023438 48.449219 C 45.019531 47.664062 44.730469 46.554688 45.714844 46.125 C 46.445312 45.804688 47.027344 46.617188 47.40625 47.1875 C 48.515625 48.867188 50.421875 48.3125 51.910156 48.90625 C 52.714844 50.375 51.878906 51.691406 51.457031 53.007812 C 50.960938 54.554688 51.15625 55.464844 53.011719 55.523438 C 54.132812 55.558594 55.167969 56.003906 56.199219 56.429688 C 63.050781 59.253906 69.222656 55.40625 69.71875 48.023438 C 69.792969 46.871094 69.449219 45.609375 70.429688 44.640625 C 74.53125 44.628906 78.636719 44.621094 82.738281 44.609375 C 84.917969 43.90625 86.234375 45.289062 87.480469 46.667969 C 88.097656 47.347656 88.515625 48.214844 89.007812 49.007812 C 90.613281 52.535156 91.535156 56.183594 90.917969 60.09375 C 90.609375 61.152344 90.390625 62.234375 90.03125 63.277344 C 89.320312 65.035156 88.398438 66.75 88.699219 68.753906 C 88.875 69.949219 89.207031 71.085938 90.363281 71.753906 C 91.34375 72.742188 92.695312 73.0625 93.851562 73.730469 C 95.859375 74.886719 95.980469 76.402344 94.289062 78.035156 Z M 94.289062 78.035156 " fill-opacity="1" fill-rule="nonzero"/></g><path fill="#643918" d="M 75.054688 76.957031 C 76.269531 74.402344 75.945312 73.582031 73.21875 72.6875 C 72.152344 72.335938 71.238281 71.914062 70.832031 70.785156 C 68.882812 68.285156 69.644531 65.621094 70.367188 62.960938 C 70.902344 61.78125 70.917969 60.449219 71.421875 59.257812 C 71.617188 57.683594 72 56.15625 72.40625 54.625 C 73.574219 50.246094 73.273438 49.628906 69.328125 47.882812 C 67.773438 45.917969 66.34375 43.789062 63.511719 43.539062 C 65.289062 38.523438 68.871094 36.015625 73.71875 36.390625 C 78.570312 36.765625 83.246094 41.023438 84.089844 45.835938 C 84.761719 49.652344 83.890625 53.257812 82.503906 56.769531 C 81.480469 59.359375 80.152344 61.804688 78.703125 64.175781 C 77.953125 65.394531 77.277344 66.648438 76.902344 68.046875 C 76.273438 70.394531 76.964844 72.296875 78.839844 73.414062 C 80.75 74.554688 81.398438 72.585938 82.710938 71.78125 C 83.414062 73.558594 82.878906 74.992188 81.683594 76.132812 C 79.714844 78 77.433594 78.039062 75.054688 76.957031 Z M 75.054688 76.957031 " fill-opacity="1" fill-rule="nonzero"/><path fill="#643918" d="M 51.851562 49.09375 C 49.117188 49.902344 47.277344 48.722656 45.882812 46.078125 C 45.136719 47.742188 45.765625 49.066406 46.039062 50.511719 C 44.128906 48.957031 43.539062 46.8125 43.933594 44.441406 C 44.320312 42.109375 45.90625 39.8125 44.339844 37.296875 C 43.320312 37.847656 43.277344 38.9375 42.859375 39.863281 C 42.691406 38.453125 42.628906 37.125 43.03125 35.742188 C 44.332031 31.257812 43.515625 26.972656 41.605469 22.824219 C 41.230469 22.015625 40.707031 21.351562 39.960938 20.828125 C 38.015625 19.46875 37.792969 17.464844 39.328125 15.546875 C 41.554688 15.007812 43.78125 14.632812 46.355469 15.855469 C 45.238281 16.175781 44.46875 16.402344 43.664062 16.632812 C 44.007812 17.683594 44.859375 17.894531 45.566406 18.070312 C 49.9375 19.164062 51.222656 22.492188 51.761719 26.410156 C 52.050781 28.53125 52.304688 30.65625 52.699219 32.761719 C 53.074219 34.75 54.1875 36.390625 55.746094 37.984375 C 53.082031 39.101562 51.671875 37.289062 49.910156 35.910156 C 49.945312 37.402344 50.914062 38.277344 51.410156 39.367188 C 51.761719 40.128906 54.050781 40.53125 52.027344 42.058594 C 51.769531 42.253906 53.566406 43.605469 54.246094 44.5625 C 54.242188 46.484375 54.804688 48.238281 55.738281 49.917969 C 56.121094 50.609375 56.878906 51.597656 55.933594 52.210938 C 55.140625 52.71875 54.570312 51.722656 54.113281 51.136719 C 53.476562 50.308594 52.625 49.753906 51.851562 49.09375 Z M 51.851562 49.09375 " fill-opacity="1" fill-rule="nonzero"/><path fill="#976538" d="M 34.476562 55.582031 C 36.613281 56.71875 35.582031 58.730469 35.375 60.164062 C 35 62.796875 35.554688 65.261719 35.921875 67.777344 C 36.019531 68.464844 36.335938 68.980469 35.355469 69.097656 C 32.921875 68.878906 30.484375 68.691406 28.054688 68.421875 C 26.679688 68.269531 26.007812 68.617188 26.058594 70.171875 C 26.132812 72.535156 25.933594 74.910156 26.015625 77.273438 C 26.074219 78.878906 26.601562 80.296875 28.699219 80.070312 C 29.699219 79.957031 30.195312 80.441406 30.21875 81.40625 C 30.246094 82.375 30.722656 82.84375 31.679688 82.859375 C 32.0625 85.136719 31.300781 86.382812 28.710938 87.726562 C 27.519531 86.234375 26.257812 84.839844 24.597656 83.828125 C 23.171875 82.960938 22.425781 81.542969 21.921875 79.996094 C 20.535156 75.738281 19.816406 71.347656 19.449219 66.902344 C 19.191406 63.722656 20.109375 62.28125 23.070312 60.949219 C 26.902344 59.226562 30.40625 56.800781 34.476562 55.582031 Z M 34.476562 55.582031 " fill-opacity="1" fill-rule="nonzero"/><path fill="#0eafbb" d="M 51.851562 49.09375 C 54.09375 48.898438 54.363281 51.222656 56.136719 51.976562 C 55.53125 50.816406 54.90625 49.667969 54.328125 48.492188 C 53.695312 47.203125 52.949219 45.894531 54.246094 44.5625 C 57.625 46.585938 61.128906 45.265625 64.574219 44.90625 C 66.53125 44.707031 68.46875 44.460938 70.433594 44.648438 C 70.441406 46.789062 70.523438 48.917969 69.890625 51.023438 C 68.121094 56.925781 61.777344 59.808594 56.179688 57.191406 C 54.886719 56.585938 53.625 55.835938 52.121094 55.996094 C 50.066406 56.214844 50.105469 55.15625 50.582031 53.675781 C 51.0625 52.167969 51.433594 50.621094 51.851562 49.09375 Z M 51.851562 49.09375 " fill-opacity="1" fill-rule="nonzero"/><path fill="#976538" d="M 65.136719 72.332031 C 65.351562 71.097656 66.359375 71.070312 67.292969 70.875 C 68.140625 70.699219 69.082031 70.628906 69.789062 70.191406 C 71.617188 69.066406 72.703125 69.621094 73.535156 71.417969 C 73.792969 71.964844 74.3125 72.390625 74.710938 72.871094 C 74.664062 73.902344 74.484375 75.046875 75.207031 75.84375 C 76.796875 77.609375 76.117188 79.097656 74.988281 80.726562 C 73.492188 82.886719 71.914062 84.925781 69.726562 86.445312 C 67.8125 87.765625 67.363281 89.609375 68.480469 91.625 C 69.066406 92.683594 69.355469 93.472656 68.148438 94.183594 C 67.164062 94.761719 67.582031 95.492188 67.914062 96.214844 C 65.847656 97.210938 63.832031 97.476562 61.964844 95.765625 C 63.164062 93.730469 63.320312 91.417969 63.667969 89.171875 C 64.097656 86.390625 64.910156 83.71875 66.617188 81.523438 C 68.121094 79.589844 68.074219 77.859375 66.976562 75.886719 C 66.316406 74.726562 65.746094 73.519531 65.136719 72.332031 Z M 65.136719 72.332031 " fill-opacity="1" fill-rule="nonzero"/><path fill="#facfbe" d="M 20.707031 34.625 C 22.417969 35.203125 24.058594 35.8125 25.828125 34.566406 C 27.203125 33.597656 29.554688 34.523438 29.253906 35.9375 C 28.621094 38.894531 30.855469 41.273438 30.363281 44.082031 C 29.363281 44.488281 28.617188 45.226562 28.140625 46.140625 C 27.179688 47.992188 25.710938 48.417969 23.6875 48.554688 C 17.765625 48.960938 16.480469 43.5625 17.738281 39.347656 C 17.847656 38.976562 18.335938 38.507812 18.230469 38.324219 C 16.535156 35.367188 18.914062 35.199219 20.707031 34.625 Z M 20.707031 34.625 " fill-opacity="1" fill-rule="nonzero"/><g clip-path="url(#id2)"><path fill="#643918" d="M 35.984375 15.136719 C 35.359375 16.726562 33.734375 17.453125 32.808594 18.835938 C 32.121094 19.875 30.964844 20.585938 31.226562 22.070312 C 29.878906 21.820312 29.957031 24.027344 28.554688 23.628906 C 28.164062 23.515625 27.851562 23.574219 27.9375 23.941406 C 28.65625 27.148438 25.804688 28.808594 24.832031 31.503906 C 24.1875 30.105469 25.027344 29.066406 25.117188 27.960938 C 25.285156 25.972656 26.734375 23.515625 23.15625 22.992188 C 22.980469 22.964844 22.871094 22.480469 22.734375 22.210938 C 23.128906 21.253906 21.800781 20.703125 22.148438 19.753906 C 22.550781 18.902344 22.820312 17.964844 23.675781 17.410156 C 24.164062 16.910156 24.316406 16.429688 23.824219 15.796875 C 23.121094 14.886719 24.058594 14.871094 24.535156 14.621094 C 25.769531 13.734375 26.996094 12.835938 28.695312 13.132812 C 28.519531 11.820312 26.867188 12.550781 26.640625 11.25 C 30.148438 11.722656 33.542969 12.230469 35.984375 15.136719 Z M 35.984375 15.136719 " fill-opacity="1" fill-rule="nonzero"/></g><path fill="#301d13" d="M 84.316406 92.945312 C 86.425781 92.589844 88.054688 91.183594 89.945312 90.355469 C 91.175781 91.0625 92.949219 91.351562 92.78125 93.285156 C 92.664062 94.617188 88.785156 97.75 87.589844 97.722656 C 86.539062 97.703125 86.074219 96.9375 85.695312 96.175781 C 85.171875 95.132812 84.769531 94.027344 84.316406 92.945312 Z M 84.316406 92.945312 " fill-opacity="1" fill-rule="nonzero"/><path fill="#311f16" d="M 35.96875 95.660156 C 38.011719 96.097656 40.050781 96.605469 42.125 95.804688 C 44.074219 99.808594 43.417969 100.886719 39.015625 100.914062 C 38.539062 100.917969 38.0625 100.925781 37.589844 100.882812 C 34.824219 100.636719 34.3125 99.808594 35.296875 97.167969 C 35.492188 96.652344 35.742188 96.160156 35.96875 95.660156 Z M 35.96875 95.660156 " fill-opacity="1" fill-rule="nonzero"/><g clip-path="url(#id3)"><path fill="#311f15" d="M 61.960938 95.769531 C 63.898438 96.492188 65.914062 96.265625 67.910156 96.21875 C 68.308594 97.535156 69.761719 98.847656 68.199219 100.214844 C 67.050781 101.222656 62.226562 101.25 61.378906 100.410156 C 60.714844 99.75 60.855469 99.003906 61.140625 98.222656 C 61.4375 97.414062 61.6875 96.585938 61.960938 95.769531 Z M 61.960938 95.769531 " fill-opacity="1" fill-rule="nonzero"/></g><path fill="#2f1d13" d="M 28.707031 87.722656 C 29.894531 86.222656 31.617188 85.042969 31.675781 82.855469 C 33.15625 82.945312 35 82.425781 35.546875 84.449219 C 35.953125 85.953125 33.625 90.191406 32.476562 90.519531 C 31.667969 90.75 31.105469 90.335938 30.605469 89.8125 C 29.953125 89.132812 29.335938 88.421875 28.707031 87.722656 Z M 28.707031 87.722656 " fill-opacity="1" fill-rule="nonzero"/><path fill="#9f6b43" d="M 24.535156 14.621094 C 24.574219 14.988281 23.671875 15.1875 24.148438 15.441406 C 25.988281 16.414062 24.59375 17.078125 24.019531 17.839844 C 22.859375 17.035156 22.15625 16.023438 22.53125 14.53125 C 23.277344 12.8125 23.824219 15.453125 24.535156 14.621094 Z M 24.535156 14.621094 " fill-opacity="1" fill-rule="nonzero"/><path fill="#f1c7b4" d="M 22.527344 14.53125 C 22.335938 15.941406 24.039062 16.503906 24.015625 17.839844 C 23.394531 18.476562 22.769531 19.117188 22.148438 19.753906 C 22.238281 18.011719 21.691406 16.21875 22.527344 14.53125 Z M 22.527344 14.53125 " fill-opacity="1" fill-rule="nonzero"/><path fill="#f7cebd" d="M 37.859375 15.972656 C 38.117188 18.4375 37.976562 20.484375 36.835938 22.402344 C 34.347656 20.691406 34.460938 19.898438 37.859375 15.972656 Z M 37.859375 15.972656 " fill-opacity="1" fill-rule="nonzero"/><path fill="#533116" d="M 35.007812 30.046875 C 33.378906 28.007812 31.972656 27.851562 30.515625 29.910156 C 30.089844 27.964844 30.882812 27.167969 32.289062 26.992188 C 33.960938 26.785156 35.003906 27.5 35.007812 30.046875 Z M 35.007812 30.046875 " fill-opacity="1" fill-rule="nonzero"/><path fill="#f5b89f" d="M 26.699219 39.125 C 26.347656 38.367188 26.382812 37.640625 25.882812 37.066406 C 25.332031 36.4375 25.371094 35.652344 26.203125 35.328125 C 27.046875 35.007812 27.527344 35.769531 27.738281 36.40625 C 28.085938 37.421875 28 38.421875 26.699219 39.125 Z M 26.699219 39.125 " fill-opacity="1" fill-rule="nonzero"/></svg>