<svg xmlns="http://www.w3.org/2000/svg" xmlns:xlink="http://www.w3.org/1999/xlink" width="100" zoomAndPan="magnify" viewBox="0 0 75 74.999997" height="100" preserveAspectRatio="xMidYMid meet" version="1.0"><defs><clipPath id="id1"><path d="M 9.390625 7.5 L 66.390625 7.5 L 66.390625 66.75 L 9.390625 66.75 Z M 9.390625 7.5 " clip-rule="nonzero"/></clipPath></defs><g clip-path="url(#id1)"><path fill="#0795ff" d="M 61.863281 54 C 61.863281 54 61.578125 58.246094 57.695312 58.246094 C 54.703125 58.246094 52.660156 55.972656 50.757812 53.011719 C 49.519531 50.8125 46.363281 46 46.363281 46 C 44.375 43.171875 42 40.765625 38.597656 40 C 36.578125 39.578125 34.546875 39.535156 32.511719 39.875 C 30.476562 40.210938 28.570312 40.910156 26.796875 41.964844 C 26.644531 42.058594 26.511719 42.175781 26.402344 42.320312 C 26.292969 42.460938 26.214844 42.617188 26.164062 42.789062 C 26.113281 42.964844 26.097656 43.136719 26.113281 43.316406 C 26.128906 43.496094 26.175781 43.667969 26.253906 43.828125 L 26.660156 44.667969 C 26.785156 44.988281 27 45.238281 27.296875 45.410156 C 27.59375 45.585938 27.914062 45.652344 28.257812 45.605469 C 29.761719 45.402344 31.246094 45.503906 32.710938 45.902344 C 35.183594 46.46875 37.0625 49.851562 39.242188 53.738281 C 37.761719 54.496094 36.191406 54.878906 34.527344 54.886719 C 26.449219 54.886719 19.894531 45.234375 19.894531 33.335938 C 19.894531 21.4375 26.449219 11.785156 34.527344 11.785156 C 42.605469 11.785156 49.148438 21.421875 49.148438 33.335938 C 49.148438 35.0625 49.007812 36.777344 48.726562 38.484375 C 48.605469 39.207031 48.652344 39.921875 48.867188 40.625 C 49.085938 41.328125 49.453125 41.941406 49.964844 42.46875 C 51.359375 43.929688 52.621094 45.496094 53.75 47.171875 C 53.855469 47.332031 53.992188 47.457031 54.160156 47.550781 C 54.328125 47.640625 54.511719 47.6875 54.703125 47.6875 C 54.894531 47.6875 55.074219 47.640625 55.242188 47.550781 C 55.414062 47.457031 55.550781 47.332031 55.652344 47.171875 C 56.933594 45.097656 57.902344 42.886719 58.5625 40.542969 C 59.226562 38.199219 59.554688 35.808594 59.550781 33.371094 C 59.636719 19.054688 48.40625 7.5 34.554688 7.5 C 20.699219 7.5 9.445312 19.054688 9.445312 33.3125 C 9.445312 47.566406 20.699219 59.121094 34.554688 59.121094 C 37.019531 59.121094 39.433594 58.757812 41.789062 58.023438 C 44.683594 62.613281 48.355469 66.75 54.15625 66.75 C 65.832031 66.75 66.339844 54 66.339844 54 Z M 61.863281 54 " fill-opacity="1" fill-rule="nonzero"/></g><path fill="#156cdd" d="M 39.265625 53.714844 C 37.785156 54.472656 36.214844 54.851562 34.554688 54.863281 C 30.546875 54.863281 26.921875 52.492188 24.285156 48.691406 C 24.101562 48.40625 23.867188 48.171875 23.578125 47.992188 C 23.292969 47.808594 22.980469 47.695312 22.640625 47.652344 C 22.304688 47.609375 21.972656 47.636719 21.648438 47.738281 C 21.324219 47.839844 21.039062 48.007812 20.785156 48.234375 C 18.3125 50.492188 20.390625 53.617188 23.753906 56.578125 C 25.140625 57.269531 26.582031 57.820312 28.074219 58.238281 C 29.566406 58.652344 31.085938 58.921875 32.632812 59.042969 C 34.175781 59.167969 35.71875 59.144531 37.257812 58.972656 C 38.800781 58.800781 40.308594 58.484375 41.789062 58.023438 Z M 39.265625 53.714844 " fill-opacity="1" fill-rule="nonzero"/></svg>